%TF.GenerationSoftware,KiCad,Pcbnew,9.0.7*%
%TF.CreationDate,2026-02-07T11:06:05-07:00*%
%TF.ProjectId,PCB_v1,5043425f-7631-42e6-9b69-6361645f7063,rev?*%
%TF.SameCoordinates,Original*%
%TF.FileFunction,Legend,Bot*%
%TF.FilePolarity,Positive*%
%FSLAX46Y46*%
G04 Gerber Fmt 4.6, Leading zero omitted, Abs format (unit mm)*
G04 Created by KiCad (PCBNEW 9.0.7) date 2026-02-07 11:06:05*
%MOMM*%
%LPD*%
G01*
G04 APERTURE LIST*
%ADD10C,0.100000*%
%ADD11C,0.300000*%
G04 APERTURE END LIST*
D10*
X180000000Y-80000000D02*
X180000000Y-72000000D01*
X180000000Y-80000000D02*
X188000000Y-80000000D01*
X180300000Y-80000000D02*
G75*
G02*
X179700000Y-80000000I-300000J0D01*
G01*
X179700000Y-80000000D02*
G75*
G02*
X180300000Y-80000000I300000J0D01*
G01*
X180000000Y-72000000D02*
X181000000Y-73000000D01*
X188000000Y-80000000D02*
X187000000Y-79000000D01*
X188000000Y-80000000D02*
X187000000Y-81000000D01*
X180000000Y-72000000D02*
X179000000Y-73000000D01*
X186261904Y-81457419D02*
X185738095Y-80790752D01*
X186261904Y-80790752D02*
X185738095Y-81457419D01*
X182238094Y-72790752D02*
X181999999Y-73457419D01*
X181761904Y-72790752D02*
X181999999Y-73457419D01*
X181999999Y-73457419D02*
X182095237Y-73695514D01*
X182095237Y-73695514D02*
X182142856Y-73743133D01*
X182142856Y-73743133D02*
X182238094Y-73790752D01*
X182214284Y-81124085D02*
X182238093Y-81100276D01*
X182238093Y-81100276D02*
X182285712Y-81028847D01*
X182285712Y-81028847D02*
X182309522Y-80981228D01*
X182309522Y-80981228D02*
X182333331Y-80909800D01*
X182333331Y-80909800D02*
X182357141Y-80790752D01*
X182357141Y-80790752D02*
X182357141Y-80695514D01*
X182357141Y-80695514D02*
X182333331Y-80576466D01*
X182333331Y-80576466D02*
X182309522Y-80505038D01*
X182309522Y-80505038D02*
X182285712Y-80457419D01*
X182285712Y-80457419D02*
X182238093Y-80385990D01*
X182238093Y-80385990D02*
X182214284Y-80362180D01*
X182023808Y-80933609D02*
X182023808Y-80433609D01*
X182023808Y-80433609D02*
X181833332Y-80433609D01*
X181833332Y-80433609D02*
X181785713Y-80457419D01*
X181785713Y-80457419D02*
X181761903Y-80481228D01*
X181761903Y-80481228D02*
X181738094Y-80528847D01*
X181738094Y-80528847D02*
X181738094Y-80600276D01*
X181738094Y-80600276D02*
X181761903Y-80647895D01*
X181761903Y-80647895D02*
X181785713Y-80671704D01*
X181785713Y-80671704D02*
X181833332Y-80695514D01*
X181833332Y-80695514D02*
X182023808Y-80695514D01*
X181238094Y-80885990D02*
X181261903Y-80909800D01*
X181261903Y-80909800D02*
X181333332Y-80933609D01*
X181333332Y-80933609D02*
X181380951Y-80933609D01*
X181380951Y-80933609D02*
X181452379Y-80909800D01*
X181452379Y-80909800D02*
X181499998Y-80862180D01*
X181499998Y-80862180D02*
X181523808Y-80814561D01*
X181523808Y-80814561D02*
X181547617Y-80719323D01*
X181547617Y-80719323D02*
X181547617Y-80647895D01*
X181547617Y-80647895D02*
X181523808Y-80552657D01*
X181523808Y-80552657D02*
X181499998Y-80505038D01*
X181499998Y-80505038D02*
X181452379Y-80457419D01*
X181452379Y-80457419D02*
X181380951Y-80433609D01*
X181380951Y-80433609D02*
X181333332Y-80433609D01*
X181333332Y-80433609D02*
X181261903Y-80457419D01*
X181261903Y-80457419D02*
X181238094Y-80481228D01*
X180857141Y-80671704D02*
X180785713Y-80695514D01*
X180785713Y-80695514D02*
X180761903Y-80719323D01*
X180761903Y-80719323D02*
X180738094Y-80766942D01*
X180738094Y-80766942D02*
X180738094Y-80838371D01*
X180738094Y-80838371D02*
X180761903Y-80885990D01*
X180761903Y-80885990D02*
X180785713Y-80909800D01*
X180785713Y-80909800D02*
X180833332Y-80933609D01*
X180833332Y-80933609D02*
X181023808Y-80933609D01*
X181023808Y-80933609D02*
X181023808Y-80433609D01*
X181023808Y-80433609D02*
X180857141Y-80433609D01*
X180857141Y-80433609D02*
X180809522Y-80457419D01*
X180809522Y-80457419D02*
X180785713Y-80481228D01*
X180785713Y-80481228D02*
X180761903Y-80528847D01*
X180761903Y-80528847D02*
X180761903Y-80576466D01*
X180761903Y-80576466D02*
X180785713Y-80624085D01*
X180785713Y-80624085D02*
X180809522Y-80647895D01*
X180809522Y-80647895D02*
X180857141Y-80671704D01*
X180857141Y-80671704D02*
X181023808Y-80671704D01*
X179857142Y-80885990D02*
X179880951Y-80909800D01*
X179880951Y-80909800D02*
X179952380Y-80933609D01*
X179952380Y-80933609D02*
X179999999Y-80933609D01*
X179999999Y-80933609D02*
X180071427Y-80909800D01*
X180071427Y-80909800D02*
X180119046Y-80862180D01*
X180119046Y-80862180D02*
X180142856Y-80814561D01*
X180142856Y-80814561D02*
X180166665Y-80719323D01*
X180166665Y-80719323D02*
X180166665Y-80647895D01*
X180166665Y-80647895D02*
X180142856Y-80552657D01*
X180142856Y-80552657D02*
X180119046Y-80505038D01*
X180119046Y-80505038D02*
X180071427Y-80457419D01*
X180071427Y-80457419D02*
X179999999Y-80433609D01*
X179999999Y-80433609D02*
X179952380Y-80433609D01*
X179952380Y-80433609D02*
X179880951Y-80457419D01*
X179880951Y-80457419D02*
X179857142Y-80481228D01*
X179452380Y-80909800D02*
X179499999Y-80933609D01*
X179499999Y-80933609D02*
X179595237Y-80933609D01*
X179595237Y-80933609D02*
X179642856Y-80909800D01*
X179642856Y-80909800D02*
X179666665Y-80862180D01*
X179666665Y-80862180D02*
X179666665Y-80671704D01*
X179666665Y-80671704D02*
X179642856Y-80624085D01*
X179642856Y-80624085D02*
X179595237Y-80600276D01*
X179595237Y-80600276D02*
X179499999Y-80600276D01*
X179499999Y-80600276D02*
X179452380Y-80624085D01*
X179452380Y-80624085D02*
X179428570Y-80671704D01*
X179428570Y-80671704D02*
X179428570Y-80719323D01*
X179428570Y-80719323D02*
X179666665Y-80766942D01*
X179214285Y-80600276D02*
X179214285Y-80933609D01*
X179214285Y-80647895D02*
X179190475Y-80624085D01*
X179190475Y-80624085D02*
X179142856Y-80600276D01*
X179142856Y-80600276D02*
X179071428Y-80600276D01*
X179071428Y-80600276D02*
X179023809Y-80624085D01*
X179023809Y-80624085D02*
X178999999Y-80671704D01*
X178999999Y-80671704D02*
X178999999Y-80933609D01*
X178833332Y-80600276D02*
X178642856Y-80600276D01*
X178761904Y-80433609D02*
X178761904Y-80862180D01*
X178761904Y-80862180D02*
X178738094Y-80909800D01*
X178738094Y-80909800D02*
X178690475Y-80933609D01*
X178690475Y-80933609D02*
X178642856Y-80933609D01*
X178285714Y-80909800D02*
X178333333Y-80933609D01*
X178333333Y-80933609D02*
X178428571Y-80933609D01*
X178428571Y-80933609D02*
X178476190Y-80909800D01*
X178476190Y-80909800D02*
X178499999Y-80862180D01*
X178499999Y-80862180D02*
X178499999Y-80671704D01*
X178499999Y-80671704D02*
X178476190Y-80624085D01*
X178476190Y-80624085D02*
X178428571Y-80600276D01*
X178428571Y-80600276D02*
X178333333Y-80600276D01*
X178333333Y-80600276D02*
X178285714Y-80624085D01*
X178285714Y-80624085D02*
X178261904Y-80671704D01*
X178261904Y-80671704D02*
X178261904Y-80719323D01*
X178261904Y-80719323D02*
X178499999Y-80766942D01*
X178047619Y-80933609D02*
X178047619Y-80600276D01*
X178047619Y-80695514D02*
X178023809Y-80647895D01*
X178023809Y-80647895D02*
X178000000Y-80624085D01*
X178000000Y-80624085D02*
X177952381Y-80600276D01*
X177952381Y-80600276D02*
X177904762Y-80600276D01*
X177785714Y-81124085D02*
X177761904Y-81100276D01*
X177761904Y-81100276D02*
X177714285Y-81028847D01*
X177714285Y-81028847D02*
X177690476Y-80981228D01*
X177690476Y-80981228D02*
X177666666Y-80909800D01*
X177666666Y-80909800D02*
X177642857Y-80790752D01*
X177642857Y-80790752D02*
X177642857Y-80695514D01*
X177642857Y-80695514D02*
X177666666Y-80576466D01*
X177666666Y-80576466D02*
X177690476Y-80505038D01*
X177690476Y-80505038D02*
X177714285Y-80457419D01*
X177714285Y-80457419D02*
X177761904Y-80385990D01*
X177761904Y-80385990D02*
X177785714Y-80362180D01*
D11*
X206667857Y-63392614D02*
X206453571Y-63464042D01*
X206453571Y-63464042D02*
X206382142Y-63535471D01*
X206382142Y-63535471D02*
X206310714Y-63678328D01*
X206310714Y-63678328D02*
X206310714Y-63892614D01*
X206310714Y-63892614D02*
X206382142Y-64035471D01*
X206382142Y-64035471D02*
X206453571Y-64106900D01*
X206453571Y-64106900D02*
X206596428Y-64178328D01*
X206596428Y-64178328D02*
X207167857Y-64178328D01*
X207167857Y-64178328D02*
X207167857Y-62678328D01*
X207167857Y-62678328D02*
X206667857Y-62678328D01*
X206667857Y-62678328D02*
X206525000Y-62749757D01*
X206525000Y-62749757D02*
X206453571Y-62821185D01*
X206453571Y-62821185D02*
X206382142Y-62964042D01*
X206382142Y-62964042D02*
X206382142Y-63106900D01*
X206382142Y-63106900D02*
X206453571Y-63249757D01*
X206453571Y-63249757D02*
X206525000Y-63321185D01*
X206525000Y-63321185D02*
X206667857Y-63392614D01*
X206667857Y-63392614D02*
X207167857Y-63392614D01*
X205453571Y-64178328D02*
X205596428Y-64106900D01*
X205596428Y-64106900D02*
X205667857Y-64035471D01*
X205667857Y-64035471D02*
X205739285Y-63892614D01*
X205739285Y-63892614D02*
X205739285Y-63464042D01*
X205739285Y-63464042D02*
X205667857Y-63321185D01*
X205667857Y-63321185D02*
X205596428Y-63249757D01*
X205596428Y-63249757D02*
X205453571Y-63178328D01*
X205453571Y-63178328D02*
X205239285Y-63178328D01*
X205239285Y-63178328D02*
X205096428Y-63249757D01*
X205096428Y-63249757D02*
X205025000Y-63321185D01*
X205025000Y-63321185D02*
X204953571Y-63464042D01*
X204953571Y-63464042D02*
X204953571Y-63892614D01*
X204953571Y-63892614D02*
X205025000Y-64035471D01*
X205025000Y-64035471D02*
X205096428Y-64106900D01*
X205096428Y-64106900D02*
X205239285Y-64178328D01*
X205239285Y-64178328D02*
X205453571Y-64178328D01*
X204524999Y-63178328D02*
X203953571Y-63178328D01*
X204310714Y-62678328D02*
X204310714Y-63964042D01*
X204310714Y-63964042D02*
X204239285Y-64106900D01*
X204239285Y-64106900D02*
X204096428Y-64178328D01*
X204096428Y-64178328D02*
X203953571Y-64178328D01*
X203667856Y-63178328D02*
X203096428Y-63178328D01*
X203453571Y-62678328D02*
X203453571Y-63964042D01*
X203453571Y-63964042D02*
X203382142Y-64106900D01*
X203382142Y-64106900D02*
X203239285Y-64178328D01*
X203239285Y-64178328D02*
X203096428Y-64178328D01*
X202382142Y-64178328D02*
X202524999Y-64106900D01*
X202524999Y-64106900D02*
X202596428Y-64035471D01*
X202596428Y-64035471D02*
X202667856Y-63892614D01*
X202667856Y-63892614D02*
X202667856Y-63464042D01*
X202667856Y-63464042D02*
X202596428Y-63321185D01*
X202596428Y-63321185D02*
X202524999Y-63249757D01*
X202524999Y-63249757D02*
X202382142Y-63178328D01*
X202382142Y-63178328D02*
X202167856Y-63178328D01*
X202167856Y-63178328D02*
X202024999Y-63249757D01*
X202024999Y-63249757D02*
X201953571Y-63321185D01*
X201953571Y-63321185D02*
X201882142Y-63464042D01*
X201882142Y-63464042D02*
X201882142Y-63892614D01*
X201882142Y-63892614D02*
X201953571Y-64035471D01*
X201953571Y-64035471D02*
X202024999Y-64106900D01*
X202024999Y-64106900D02*
X202167856Y-64178328D01*
X202167856Y-64178328D02*
X202382142Y-64178328D01*
X201239285Y-64178328D02*
X201239285Y-63178328D01*
X201239285Y-63321185D02*
X201167856Y-63249757D01*
X201167856Y-63249757D02*
X201024999Y-63178328D01*
X201024999Y-63178328D02*
X200810713Y-63178328D01*
X200810713Y-63178328D02*
X200667856Y-63249757D01*
X200667856Y-63249757D02*
X200596428Y-63392614D01*
X200596428Y-63392614D02*
X200596428Y-64178328D01*
X200596428Y-63392614D02*
X200524999Y-63249757D01*
X200524999Y-63249757D02*
X200382142Y-63178328D01*
X200382142Y-63178328D02*
X200167856Y-63178328D01*
X200167856Y-63178328D02*
X200024999Y-63249757D01*
X200024999Y-63249757D02*
X199953570Y-63392614D01*
X199953570Y-63392614D02*
X199953570Y-64178328D01*
X197382142Y-64178328D02*
X198096428Y-64178328D01*
X198096428Y-64178328D02*
X198096428Y-62678328D01*
X196239285Y-64178328D02*
X196239285Y-63392614D01*
X196239285Y-63392614D02*
X196310713Y-63249757D01*
X196310713Y-63249757D02*
X196453570Y-63178328D01*
X196453570Y-63178328D02*
X196739285Y-63178328D01*
X196739285Y-63178328D02*
X196882142Y-63249757D01*
X196239285Y-64106900D02*
X196382142Y-64178328D01*
X196382142Y-64178328D02*
X196739285Y-64178328D01*
X196739285Y-64178328D02*
X196882142Y-64106900D01*
X196882142Y-64106900D02*
X196953570Y-63964042D01*
X196953570Y-63964042D02*
X196953570Y-63821185D01*
X196953570Y-63821185D02*
X196882142Y-63678328D01*
X196882142Y-63678328D02*
X196739285Y-63606900D01*
X196739285Y-63606900D02*
X196382142Y-63606900D01*
X196382142Y-63606900D02*
X196239285Y-63535471D01*
X195667856Y-63178328D02*
X195310713Y-64178328D01*
X194953570Y-63178328D02*
X195310713Y-64178328D01*
X195310713Y-64178328D02*
X195453570Y-64535471D01*
X195453570Y-64535471D02*
X195524999Y-64606900D01*
X195524999Y-64606900D02*
X195667856Y-64678328D01*
X193810713Y-64106900D02*
X193953570Y-64178328D01*
X193953570Y-64178328D02*
X194239285Y-64178328D01*
X194239285Y-64178328D02*
X194382142Y-64106900D01*
X194382142Y-64106900D02*
X194453570Y-63964042D01*
X194453570Y-63964042D02*
X194453570Y-63392614D01*
X194453570Y-63392614D02*
X194382142Y-63249757D01*
X194382142Y-63249757D02*
X194239285Y-63178328D01*
X194239285Y-63178328D02*
X193953570Y-63178328D01*
X193953570Y-63178328D02*
X193810713Y-63249757D01*
X193810713Y-63249757D02*
X193739285Y-63392614D01*
X193739285Y-63392614D02*
X193739285Y-63535471D01*
X193739285Y-63535471D02*
X194453570Y-63678328D01*
X193096428Y-64178328D02*
X193096428Y-63178328D01*
X193096428Y-63464042D02*
X193024999Y-63321185D01*
X193024999Y-63321185D02*
X192953571Y-63249757D01*
X192953571Y-63249757D02*
X192810713Y-63178328D01*
X192810713Y-63178328D02*
X192667856Y-63178328D01*
D10*
X203583331Y-65671704D02*
X203511903Y-65695514D01*
X203511903Y-65695514D02*
X203488093Y-65719323D01*
X203488093Y-65719323D02*
X203464284Y-65766942D01*
X203464284Y-65766942D02*
X203464284Y-65838371D01*
X203464284Y-65838371D02*
X203488093Y-65885990D01*
X203488093Y-65885990D02*
X203511903Y-65909800D01*
X203511903Y-65909800D02*
X203559522Y-65933609D01*
X203559522Y-65933609D02*
X203749998Y-65933609D01*
X203749998Y-65933609D02*
X203749998Y-65433609D01*
X203749998Y-65433609D02*
X203583331Y-65433609D01*
X203583331Y-65433609D02*
X203535712Y-65457419D01*
X203535712Y-65457419D02*
X203511903Y-65481228D01*
X203511903Y-65481228D02*
X203488093Y-65528847D01*
X203488093Y-65528847D02*
X203488093Y-65576466D01*
X203488093Y-65576466D02*
X203511903Y-65624085D01*
X203511903Y-65624085D02*
X203535712Y-65647895D01*
X203535712Y-65647895D02*
X203583331Y-65671704D01*
X203583331Y-65671704D02*
X203749998Y-65671704D01*
X203249998Y-65885990D02*
X203226188Y-65909800D01*
X203226188Y-65909800D02*
X203249998Y-65933609D01*
X203249998Y-65933609D02*
X203273807Y-65909800D01*
X203273807Y-65909800D02*
X203249998Y-65885990D01*
X203249998Y-65885990D02*
X203249998Y-65933609D01*
X202726189Y-65885990D02*
X202749998Y-65909800D01*
X202749998Y-65909800D02*
X202821427Y-65933609D01*
X202821427Y-65933609D02*
X202869046Y-65933609D01*
X202869046Y-65933609D02*
X202940474Y-65909800D01*
X202940474Y-65909800D02*
X202988093Y-65862180D01*
X202988093Y-65862180D02*
X203011903Y-65814561D01*
X203011903Y-65814561D02*
X203035712Y-65719323D01*
X203035712Y-65719323D02*
X203035712Y-65647895D01*
X203035712Y-65647895D02*
X203011903Y-65552657D01*
X203011903Y-65552657D02*
X202988093Y-65505038D01*
X202988093Y-65505038D02*
X202940474Y-65457419D01*
X202940474Y-65457419D02*
X202869046Y-65433609D01*
X202869046Y-65433609D02*
X202821427Y-65433609D01*
X202821427Y-65433609D02*
X202749998Y-65457419D01*
X202749998Y-65457419D02*
X202726189Y-65481228D01*
X202297617Y-65600276D02*
X202297617Y-65933609D01*
X202511903Y-65600276D02*
X202511903Y-65862180D01*
X202511903Y-65862180D02*
X202488093Y-65909800D01*
X202488093Y-65909800D02*
X202440474Y-65933609D01*
X202440474Y-65933609D02*
X202369046Y-65933609D01*
X202369046Y-65933609D02*
X202321427Y-65909800D01*
X202321427Y-65909800D02*
X202297617Y-65885990D01*
X201035713Y-65933609D02*
X201321427Y-65933609D01*
X201178570Y-65933609D02*
X201178570Y-65433609D01*
X201178570Y-65433609D02*
X201226189Y-65505038D01*
X201226189Y-65505038D02*
X201273808Y-65552657D01*
X201273808Y-65552657D02*
X201321427Y-65576466D01*
X200369047Y-65933609D02*
X200416666Y-65909800D01*
X200416666Y-65909800D02*
X200440476Y-65885990D01*
X200440476Y-65885990D02*
X200464285Y-65838371D01*
X200464285Y-65838371D02*
X200464285Y-65695514D01*
X200464285Y-65695514D02*
X200440476Y-65647895D01*
X200440476Y-65647895D02*
X200416666Y-65624085D01*
X200416666Y-65624085D02*
X200369047Y-65600276D01*
X200369047Y-65600276D02*
X200297619Y-65600276D01*
X200297619Y-65600276D02*
X200250000Y-65624085D01*
X200250000Y-65624085D02*
X200226190Y-65647895D01*
X200226190Y-65647895D02*
X200202381Y-65695514D01*
X200202381Y-65695514D02*
X200202381Y-65838371D01*
X200202381Y-65838371D02*
X200226190Y-65885990D01*
X200226190Y-65885990D02*
X200250000Y-65909800D01*
X200250000Y-65909800D02*
X200297619Y-65933609D01*
X200297619Y-65933609D02*
X200369047Y-65933609D01*
X200035714Y-65600276D02*
X199773809Y-65600276D01*
X199773809Y-65600276D02*
X200035714Y-65933609D01*
X200035714Y-65933609D02*
X199773809Y-65933609D01*
X199059524Y-66124085D02*
X199083333Y-66100276D01*
X199083333Y-66100276D02*
X199130952Y-66028847D01*
X199130952Y-66028847D02*
X199154762Y-65981228D01*
X199154762Y-65981228D02*
X199178571Y-65909800D01*
X199178571Y-65909800D02*
X199202381Y-65790752D01*
X199202381Y-65790752D02*
X199202381Y-65695514D01*
X199202381Y-65695514D02*
X199178571Y-65576466D01*
X199178571Y-65576466D02*
X199154762Y-65505038D01*
X199154762Y-65505038D02*
X199130952Y-65457419D01*
X199130952Y-65457419D02*
X199083333Y-65385990D01*
X199083333Y-65385990D02*
X199059524Y-65362180D01*
X198916667Y-65433609D02*
X198607143Y-65433609D01*
X198607143Y-65433609D02*
X198773810Y-65624085D01*
X198773810Y-65624085D02*
X198702381Y-65624085D01*
X198702381Y-65624085D02*
X198654762Y-65647895D01*
X198654762Y-65647895D02*
X198630953Y-65671704D01*
X198630953Y-65671704D02*
X198607143Y-65719323D01*
X198607143Y-65719323D02*
X198607143Y-65838371D01*
X198607143Y-65838371D02*
X198630953Y-65885990D01*
X198630953Y-65885990D02*
X198654762Y-65909800D01*
X198654762Y-65909800D02*
X198702381Y-65933609D01*
X198702381Y-65933609D02*
X198845238Y-65933609D01*
X198845238Y-65933609D02*
X198892857Y-65909800D01*
X198892857Y-65909800D02*
X198916667Y-65885990D01*
X198154763Y-65433609D02*
X198392858Y-65433609D01*
X198392858Y-65433609D02*
X198416667Y-65671704D01*
X198416667Y-65671704D02*
X198392858Y-65647895D01*
X198392858Y-65647895D02*
X198345239Y-65624085D01*
X198345239Y-65624085D02*
X198226191Y-65624085D01*
X198226191Y-65624085D02*
X198178572Y-65647895D01*
X198178572Y-65647895D02*
X198154763Y-65671704D01*
X198154763Y-65671704D02*
X198130953Y-65719323D01*
X198130953Y-65719323D02*
X198130953Y-65838371D01*
X198130953Y-65838371D02*
X198154763Y-65885990D01*
X198154763Y-65885990D02*
X198178572Y-65909800D01*
X198178572Y-65909800D02*
X198226191Y-65933609D01*
X198226191Y-65933609D02*
X198345239Y-65933609D01*
X198345239Y-65933609D02*
X198392858Y-65909800D01*
X198392858Y-65909800D02*
X198416667Y-65885990D01*
X197535716Y-65600276D02*
X197535716Y-66100276D01*
X197297621Y-65862180D02*
X197273811Y-65909800D01*
X197273811Y-65909800D02*
X197226192Y-65933609D01*
X197535716Y-65862180D02*
X197511906Y-65909800D01*
X197511906Y-65909800D02*
X197464287Y-65933609D01*
X197464287Y-65933609D02*
X197369049Y-65933609D01*
X197369049Y-65933609D02*
X197321430Y-65909800D01*
X197321430Y-65909800D02*
X197297621Y-65862180D01*
X197297621Y-65862180D02*
X197297621Y-65600276D01*
X197011906Y-65933609D02*
X197011906Y-65600276D01*
X197011906Y-65647895D02*
X196988096Y-65624085D01*
X196988096Y-65624085D02*
X196940477Y-65600276D01*
X196940477Y-65600276D02*
X196869049Y-65600276D01*
X196869049Y-65600276D02*
X196821430Y-65624085D01*
X196821430Y-65624085D02*
X196797620Y-65671704D01*
X196797620Y-65671704D02*
X196797620Y-65933609D01*
X196797620Y-65671704D02*
X196773811Y-65624085D01*
X196773811Y-65624085D02*
X196726192Y-65600276D01*
X196726192Y-65600276D02*
X196654763Y-65600276D01*
X196654763Y-65600276D02*
X196607144Y-65624085D01*
X196607144Y-65624085D02*
X196583334Y-65671704D01*
X196583334Y-65671704D02*
X196583334Y-65933609D01*
X196392858Y-66124085D02*
X196369048Y-66100276D01*
X196369048Y-66100276D02*
X196321429Y-66028847D01*
X196321429Y-66028847D02*
X196297620Y-65981228D01*
X196297620Y-65981228D02*
X196273810Y-65909800D01*
X196273810Y-65909800D02*
X196250001Y-65790752D01*
X196250001Y-65790752D02*
X196250001Y-65695514D01*
X196250001Y-65695514D02*
X196273810Y-65576466D01*
X196273810Y-65576466D02*
X196297620Y-65505038D01*
X196297620Y-65505038D02*
X196321429Y-65457419D01*
X196321429Y-65457419D02*
X196369048Y-65385990D01*
X196369048Y-65385990D02*
X196392858Y-65362180D01*
M02*
