%TF.GenerationSoftware,KiCad,Pcbnew,9.0.7*%
%TF.CreationDate,2026-02-08T08:02:24-07:00*%
%TF.ProjectId,PCB_v1,5043425f-7631-42e6-9b69-6361645f7063,rev?*%
%TF.SameCoordinates,Original*%
%TF.FileFunction,Soldermask,Bot*%
%TF.FilePolarity,Negative*%
%FSLAX46Y46*%
G04 Gerber Fmt 4.6, Leading zero omitted, Abs format (unit mm)*
G04 Created by KiCad (PCBNEW 9.0.7) date 2026-02-08 08:02:24*
%MOMM*%
%LPD*%
G01*
G04 APERTURE LIST*
G04 Aperture macros list*
%AMRoundRect*
0 Rectangle with rounded corners*
0 $1 Rounding radius*
0 $2 $3 $4 $5 $6 $7 $8 $9 X,Y pos of 4 corners*
0 Add a 4 corners polygon primitive as box body*
4,1,4,$2,$3,$4,$5,$6,$7,$8,$9,$2,$3,0*
0 Add four circle primitives for the rounded corners*
1,1,$1+$1,$2,$3*
1,1,$1+$1,$4,$5*
1,1,$1+$1,$6,$7*
1,1,$1+$1,$8,$9*
0 Add four rect primitives between the rounded corners*
20,1,$1+$1,$2,$3,$4,$5,0*
20,1,$1+$1,$4,$5,$6,$7,0*
20,1,$1+$1,$6,$7,$8,$9,0*
20,1,$1+$1,$8,$9,$2,$3,0*%
G04 Aperture macros list end*
%ADD10R,2.000000X2.000000*%
%ADD11C,2.000000*%
%ADD12C,1.600000*%
%ADD13RoundRect,1.000000X-0.000010X0.000010X-0.000010X-0.000010X0.000010X-0.000010X0.000010X0.000010X0*%
%ADD14R,1.500000X2.500000*%
%ADD15RoundRect,0.150000X0.600000X-1.100000X0.600000X1.100000X-0.600000X1.100000X-0.600000X-1.100000X0*%
G04 APERTURE END LIST*
D10*
%TO.C,J7*%
X210000000Y-98108000D03*
%TD*%
%TO.C,J5*%
X204730000Y-98044500D03*
D11*
X207270000Y-98044500D03*
%TD*%
D10*
%TO.C,J6*%
X172908000Y-65400000D03*
%TD*%
D12*
%TO.C,U1*%
X192120000Y-95510000D03*
X192120000Y-92970000D03*
X192120000Y-90430000D03*
X192120000Y-87890000D03*
X192120000Y-85350000D03*
X192120000Y-82810000D03*
X192120000Y-80270000D03*
X192120000Y-77730000D03*
X192120000Y-75190000D03*
X192120000Y-72650000D03*
X192120000Y-70110000D03*
X192120000Y-67570000D03*
X192120000Y-65030000D03*
X192120000Y-62490000D03*
X189580000Y-62490000D03*
X187040000Y-62490000D03*
X184500000Y-62490000D03*
X181960000Y-62490000D03*
X179420000Y-62490000D03*
X176880000Y-62490000D03*
X176880000Y-65030000D03*
X176880000Y-67570000D03*
X176880000Y-70110000D03*
X176880000Y-72650000D03*
X176880000Y-75190000D03*
X176880000Y-77730000D03*
X176880000Y-80270000D03*
X176880000Y-82810000D03*
X176880000Y-85350000D03*
X176880000Y-87890000D03*
X176880000Y-90430000D03*
X176880000Y-92970000D03*
X176880000Y-95510000D03*
%TD*%
D10*
%TO.C,J4*%
X172844500Y-70670000D03*
D11*
X172844500Y-68130000D03*
%TD*%
D10*
%TO.C,J8*%
X216135000Y-73370000D03*
D11*
X216135000Y-70830000D03*
%TD*%
D10*
%TO.C,J1*%
X216190000Y-81890000D03*
D13*
X216190000Y-84430000D03*
X216190000Y-86970000D03*
X216190000Y-89510000D03*
X198410000Y-81890000D03*
X198410000Y-84430000D03*
X198410000Y-86970000D03*
X198410000Y-89510000D03*
%TD*%
D14*
%TO.C,J3*%
X188000000Y-81000000D03*
D15*
X181000000Y-81000000D03*
X188000000Y-94000000D03*
X181000000Y-94000000D03*
%TD*%
D10*
%TO.C,J2*%
X203190000Y-72950000D03*
X205730000Y-72950000D03*
X208270000Y-72950000D03*
X210810000Y-72950000D03*
D11*
X203190000Y-70410000D03*
X205730000Y-70410000D03*
X208270000Y-70410000D03*
X210810000Y-70410000D03*
X203190000Y-67870000D03*
X205730000Y-67870000D03*
X208270000Y-67870000D03*
X210810000Y-67870000D03*
%TD*%
M02*
