M48
; DRILL file {KiCad 9.0.7} date 2026-02-07T11:06:32-0700
; FORMAT={-:-/ absolute / metric / decimal}
; #@! TF.CreationDate,2026-02-07T11:06:32-07:00
; #@! TF.GenerationSoftware,Kicad,Pcbnew,9.0.7
; #@! TF.FileFunction,Plated,1,2,PTH
FMAT,2
METRIC
; #@! TA.AperFunction,Plated,PTH,ComponentDrill
T1C1.000
; #@! TA.AperFunction,Plated,PTH,ComponentDrill
T2C1.100
%
G90
G05
T1
X146.9Y-63.592
X149.63Y-63.655
X149.65Y-88.4
X149.65Y-95.4
X152.17Y-63.655
X162.65Y-88.4
X162.65Y-95.4
X164.3Y-77.05
X164.3Y-79.72
X164.3Y-82.39
X164.3Y-85.06
X166.8Y-77.05
X166.8Y-79.72
X166.8Y-82.39
X166.8Y-85.06
X169.3Y-77.05
X169.3Y-79.72
X169.3Y-82.39
X169.3Y-85.06
X200.01Y-76.29
X200.01Y-78.83
X200.01Y-81.37
X200.01Y-83.91
X207.83Y-96.344
X209.63Y-63.465
X210.37Y-96.344
X212.17Y-63.465
X213.1Y-96.408
X217.79Y-76.29
X217.79Y-78.83
X217.79Y-81.37
X217.79Y-83.91
T2
X174.285Y-62.22
X174.285Y-64.76
X174.285Y-67.3
X174.285Y-69.84
X174.285Y-72.38
X174.285Y-74.92
X174.285Y-77.46
X174.285Y-80.0
X174.285Y-82.54
X174.285Y-85.08
X174.285Y-87.62
X174.285Y-90.16
X174.285Y-92.7
X174.285Y-95.24
X176.825Y-62.22
X179.365Y-62.22
X181.905Y-62.22
X184.445Y-62.22
X186.985Y-62.22
X189.525Y-62.22
X189.525Y-64.76
X189.525Y-67.3
X189.525Y-69.84
X189.525Y-72.38
X189.525Y-74.92
X189.525Y-77.46
X189.525Y-80.0
X189.525Y-82.54
X189.525Y-85.08
X189.525Y-87.62
X189.525Y-90.16
X189.525Y-92.7
X189.525Y-95.24
M30
