%TF.GenerationSoftware,KiCad,Pcbnew,9.0.7*%
%TF.CreationDate,2026-02-07T11:06:05-07:00*%
%TF.ProjectId,PCB_v1,5043425f-7631-42e6-9b69-6361645f7063,rev?*%
%TF.SameCoordinates,Original*%
%TF.FileFunction,Copper,L1,Top*%
%TF.FilePolarity,Positive*%
%FSLAX46Y46*%
G04 Gerber Fmt 4.6, Leading zero omitted, Abs format (unit mm)*
G04 Created by KiCad (PCBNEW 9.0.7) date 2026-02-07 11:06:05*
%MOMM*%
%LPD*%
G01*
G04 APERTURE LIST*
G04 Aperture macros list*
%AMRoundRect*
0 Rectangle with rounded corners*
0 $1 Rounding radius*
0 $2 $3 $4 $5 $6 $7 $8 $9 X,Y pos of 4 corners*
0 Add a 4 corners polygon primitive as box body*
4,1,4,$2,$3,$4,$5,$6,$7,$8,$9,$2,$3,0*
0 Add four circle primitives for the rounded corners*
1,1,$1+$1,$2,$3*
1,1,$1+$1,$4,$5*
1,1,$1+$1,$6,$7*
1,1,$1+$1,$8,$9*
0 Add four rect primitives between the rounded corners*
20,1,$1+$1,$2,$3,$4,$5,0*
20,1,$1+$1,$4,$5,$6,$7,0*
20,1,$1+$1,$6,$7,$8,$9,0*
20,1,$1+$1,$8,$9,$2,$3,0*%
G04 Aperture macros list end*
%TA.AperFunction,ComponentPad*%
%ADD10R,2.000000X2.000000*%
%TD*%
%TA.AperFunction,ComponentPad*%
%ADD11C,2.000000*%
%TD*%
%TA.AperFunction,ComponentPad*%
%ADD12C,1.600000*%
%TD*%
%TA.AperFunction,ComponentPad*%
%ADD13RoundRect,1.000000X-0.000010X0.000010X-0.000010X-0.000010X0.000010X-0.000010X0.000010X0.000010X0*%
%TD*%
%TA.AperFunction,ComponentPad*%
%ADD14R,2.500000X1.500000*%
%TD*%
%TA.AperFunction,ComponentPad*%
%ADD15RoundRect,0.150000X1.100000X0.600000X-1.100000X0.600000X-1.100000X-0.600000X1.100000X-0.600000X0*%
%TD*%
%TA.AperFunction,Conductor*%
%ADD16C,0.400000*%
%TD*%
%TA.AperFunction,Conductor*%
%ADD17C,0.200000*%
%TD*%
%TA.AperFunction,Conductor*%
%ADD18C,0.600000*%
%TD*%
G04 APERTURE END LIST*
D10*
%TO.P,J7,1,Pin_1*%
%TO.N,/S_ESC_Right_3*%
X213100000Y-96408000D03*
%TD*%
%TO.P,J5,1,Pin_1*%
%TO.N,/12V*%
X207830000Y-96344500D03*
D11*
%TO.P,J5,2,Pin_2*%
%TO.N,/GND*%
X210370000Y-96344500D03*
%TD*%
D10*
%TO.P,J6,1,Pin_1*%
%TO.N,/S_ESC_Left_2*%
X146900000Y-63592000D03*
%TD*%
D12*
%TO.P,U1,1,GND*%
%TO.N,/GND*%
X189525000Y-95240000D03*
%TO.P,U1,2,0_RX1_CRX2_CS1*%
%TO.N,unconnected-(U1-0_RX1_CRX2_CS1-Pad2)*%
X189525000Y-92700000D03*
%TO.P,U1,3,1_TX1_CTX2_MISO1*%
%TO.N,unconnected-(U1-1_TX1_CTX2_MISO1-Pad3)*%
X189525000Y-90160000D03*
%TO.P,U1,4,2_OUT2*%
%TO.N,/S_ESC_Left_2*%
X189525000Y-87620000D03*
%TO.P,U1,5,3_LRCLK2*%
%TO.N,/S_ESC_Right_3*%
X189525000Y-85080000D03*
%TO.P,U1,6,4_BCLK2*%
%TO.N,unconnected-(U1-4_BCLK2-Pad6)*%
X189525000Y-82540000D03*
%TO.P,U1,7,5_IN2*%
%TO.N,unconnected-(U1-5_IN2-Pad7)*%
X189525000Y-80000000D03*
%TO.P,U1,8,6_OUT1D*%
%TO.N,unconnected-(U1-6_OUT1D-Pad8)*%
X189525000Y-77460000D03*
%TO.P,U1,9,7_RX2_OUT1A*%
%TO.N,unconnected-(U1-7_RX2_OUT1A-Pad9)*%
X189525000Y-74920000D03*
%TO.P,U1,10,8_TX2_IN1*%
%TO.N,unconnected-(U1-8_TX2_IN1-Pad10)*%
X189525000Y-72380000D03*
%TO.P,U1,11,9_OUT1C*%
%TO.N,unconnected-(U1-9_OUT1C-Pad11)*%
X189525000Y-69840000D03*
%TO.P,U1,12,10_CS_MQSR*%
%TO.N,unconnected-(U1-10_CS_MQSR-Pad12)*%
X189525000Y-67300000D03*
%TO.P,U1,13,11_MOSI_CTX1*%
%TO.N,/LED*%
X189525000Y-64760000D03*
%TO.P,U1,14,12_MISO_MQSL*%
%TO.N,unconnected-(U1-12_MISO_MQSL-Pad14)*%
X189525000Y-62220000D03*
%TO.P,U1,15,VBAT*%
%TO.N,unconnected-(U1-VBAT-Pad15)*%
X186985000Y-62220000D03*
%TO.P,U1,16,3V3*%
%TO.N,unconnected-(U1-3V3-Pad16)*%
X184445000Y-62220000D03*
%TO.P,U1,17,GND*%
%TO.N,/GND*%
X181905000Y-62220000D03*
%TO.P,U1,18,PROGRAM*%
%TO.N,unconnected-(U1-PROGRAM-Pad18)*%
X179365000Y-62220000D03*
%TO.P,U1,19,ON_OFF*%
%TO.N,unconnected-(U1-ON_OFF-Pad19)*%
X176825000Y-62220000D03*
%TO.P,U1,20,13_SCK_CRX1_LED*%
%TO.N,unconnected-(U1-13_SCK_CRX1_LED-Pad20)*%
X174285000Y-62220000D03*
%TO.P,U1,21,14_A0_TX3_SPDIF_OUT*%
%TO.N,unconnected-(U1-14_A0_TX3_SPDIF_OUT-Pad21)*%
X174285000Y-64760000D03*
%TO.P,U1,22,15_A1_RX3_SPDIF_IN*%
%TO.N,unconnected-(U1-15_A1_RX3_SPDIF_IN-Pad22)*%
X174285000Y-67300000D03*
%TO.P,U1,23,16_A2_RX4_SCL1*%
%TO.N,unconnected-(U1-16_A2_RX4_SCL1-Pad23)*%
X174285000Y-69840000D03*
%TO.P,U1,24,17_A3_TX4_SDA1*%
%TO.N,unconnected-(U1-17_A3_TX4_SDA1-Pad24)*%
X174285000Y-72380000D03*
%TO.P,U1,25,18_A4_SDA0*%
%TO.N,/SDA_18*%
X174285000Y-74920000D03*
%TO.P,U1,26,19_A5_SCL0*%
%TO.N,/SCL_19*%
X174285000Y-77460000D03*
%TO.P,U1,27,20_A6_TX5_LRCLK1*%
%TO.N,/CH4_20*%
X174285000Y-80000000D03*
%TO.P,U1,28,21_A7_RX5_BCLK1*%
%TO.N,/CH3_21*%
X174285000Y-82540000D03*
%TO.P,U1,29,22_A8_CTX1*%
%TO.N,/CH2_22*%
X174285000Y-85080000D03*
%TO.P,U1,30,23_A9_CRX1_MCLK1*%
%TO.N,/CH1_23*%
X174285000Y-87620000D03*
%TO.P,U1,31,3V3*%
%TO.N,/3.3V*%
X174285000Y-90160000D03*
%TO.P,U1,32,GND*%
%TO.N,/GND*%
X174285000Y-92700000D03*
%TO.P,U1,33,VIN*%
%TO.N,/5V*%
X174285000Y-95240000D03*
%TD*%
D10*
%TO.P,J4,1,Pin_1*%
%TO.N,/12V*%
X152170000Y-63655500D03*
D11*
%TO.P,J4,2,Pin_2*%
%TO.N,/GND*%
X149630000Y-63655500D03*
%TD*%
D10*
%TO.P,J8,1,Pin_1*%
%TO.N,/LED*%
X212170000Y-63465000D03*
D11*
%TO.P,J8,2,Pin_2*%
%TO.N,/GND*%
X209630000Y-63465000D03*
%TD*%
D10*
%TO.P,J1,1,Pin_1*%
%TO.N,unconnected-(J1-Pin_1-Pad1)*%
X217790000Y-76290000D03*
D13*
%TO.P,J1,2,Pin_2*%
%TO.N,unconnected-(J1-Pin_2-Pad2)*%
X217790000Y-78830000D03*
%TO.P,J1,3,Pin_3*%
%TO.N,unconnected-(J1-Pin_3-Pad3)*%
X217790000Y-81370000D03*
%TO.P,J1,4,Pin_4*%
%TO.N,unconnected-(J1-Pin_4-Pad4)*%
X217790000Y-83910000D03*
%TO.P,J1,5,Pin_5*%
%TO.N,/GND*%
X200010000Y-76290000D03*
%TO.P,J1,6,Pin_6*%
%TO.N,/3.3V*%
X200010000Y-78830000D03*
%TO.P,J1,7,Pin_7*%
%TO.N,/SDA_18*%
X200010000Y-81370000D03*
%TO.P,J1,8,Pin_8*%
%TO.N,/SCL_19*%
X200010000Y-83910000D03*
%TD*%
D14*
%TO.P,J3,1,Pin_1*%
%TO.N,/12V*%
X149650000Y-95400000D03*
D15*
%TO.P,J3,2,Pin_2*%
%TO.N,/GND*%
X149650000Y-88400000D03*
%TO.P,J3,3,Pin_3*%
%TO.N,/5V*%
X162650000Y-95400000D03*
%TO.P,J3,4,Pin_4*%
%TO.N,/GND*%
X162650000Y-88400000D03*
%TD*%
D10*
%TO.P,J2,1,Pin_1*%
%TO.N,/CH1_23*%
X164300000Y-85060000D03*
%TO.P,J2,2,Pin_2*%
%TO.N,/CH2_22*%
X164300000Y-82390000D03*
%TO.P,J2,3,Pin_3*%
%TO.N,/CH3_21*%
X164300000Y-79720000D03*
%TO.P,J2,4,Pin_4*%
%TO.N,/CH4_20*%
X164300000Y-77050000D03*
D11*
%TO.P,J2,5,Pin_5*%
%TO.N,/3.3V*%
X166800000Y-85060000D03*
%TO.P,J2,6,Pin_6*%
X166800000Y-82390000D03*
%TO.P,J2,7,Pin_7*%
X166800000Y-79720000D03*
%TO.P,J2,8,Pin_8*%
X166800000Y-77050000D03*
%TO.P,J2,9,Pin_9*%
%TO.N,/GND*%
X169300000Y-85060000D03*
%TO.P,J2,10,Pin_10*%
X169300000Y-82390000D03*
%TO.P,J2,11,Pin_11*%
X169300000Y-79720000D03*
%TO.P,J2,12,Pin_12*%
X169300000Y-77050000D03*
%TD*%
D16*
%TO.N,/3.3V*%
X199551314Y-86350000D02*
X201411000Y-84490314D01*
X174285000Y-90160000D02*
X178095000Y-86350000D01*
X201411000Y-84490314D02*
X201411000Y-80231000D01*
X201411000Y-80231000D02*
X200010000Y-78830000D01*
X178095000Y-86350000D02*
X199551314Y-86350000D01*
D17*
%TO.N,/SCL_19*%
X180735000Y-83910000D02*
X174285000Y-77460000D01*
X200010000Y-83910000D02*
X180735000Y-83910000D01*
%TO.N,/SDA_18*%
X200010000Y-81370000D02*
X180735000Y-81370000D01*
X180735000Y-81370000D02*
X174285000Y-74920000D01*
%TO.N,/CH3_21*%
X165669000Y-81089000D02*
X172834000Y-81089000D01*
X164300000Y-79720000D02*
X165669000Y-81089000D01*
X172834000Y-81089000D02*
X174285000Y-82540000D01*
%TO.N,/CH2_22*%
X165601000Y-83691000D02*
X172896000Y-83691000D01*
X172896000Y-83691000D02*
X174285000Y-85080000D01*
X164300000Y-82390000D02*
X165601000Y-83691000D01*
%TO.N,/CH4_20*%
X172636000Y-78351000D02*
X174285000Y-80000000D01*
X165601000Y-78351000D02*
X172636000Y-78351000D01*
X164300000Y-77050000D02*
X165601000Y-78351000D01*
%TO.N,/CH1_23*%
X164300000Y-85060000D02*
X166680000Y-87440000D01*
X166680000Y-87440000D02*
X174580000Y-87440000D01*
D18*
%TO.N,/12V*%
X151000000Y-98000000D02*
X206174500Y-98000000D01*
X152170000Y-88830000D02*
X149650000Y-91350000D01*
X206174500Y-98000000D02*
X207830000Y-96344500D01*
X152170000Y-63655500D02*
X152170000Y-88830000D01*
X149650000Y-96650000D02*
X151000000Y-98000000D01*
X149650000Y-95400000D02*
X149650000Y-96650000D01*
X149650000Y-91350000D02*
X149650000Y-95400000D01*
D17*
%TO.N,/5V*%
X162990000Y-95060000D02*
X162650000Y-95400000D01*
X174125000Y-95400000D02*
X174285000Y-95240000D01*
D18*
X162650000Y-95400000D02*
X174125000Y-95400000D01*
D17*
%TO.N,/LED*%
X190006000Y-64766000D02*
X189820000Y-64580000D01*
X190324999Y-65559999D02*
X189525000Y-64760000D01*
X212170000Y-63465000D02*
X210075001Y-65559999D01*
X210075001Y-65559999D02*
X190324999Y-65559999D01*
%TD*%
M02*
