%TF.GenerationSoftware,KiCad,Pcbnew,9.0.7*%
%TF.CreationDate,2026-02-08T08:02:24-07:00*%
%TF.ProjectId,PCB_v1,5043425f-7631-42e6-9b69-6361645f7063,rev?*%
%TF.SameCoordinates,Original*%
%TF.FileFunction,Legend,Bot*%
%TF.FilePolarity,Positive*%
%FSLAX46Y46*%
G04 Gerber Fmt 4.6, Leading zero omitted, Abs format (unit mm)*
G04 Created by KiCad (PCBNEW 9.0.7) date 2026-02-08 08:02:24*
%MOMM*%
%LPD*%
G01*
G04 APERTURE LIST*
%ADD10C,0.100000*%
%ADD11C,0.300000*%
G04 APERTURE END LIST*
D10*
X184500000Y-80000000D02*
X184500000Y-72000000D01*
X184500000Y-80000000D02*
X192500000Y-80000000D01*
X184800000Y-80000000D02*
G75*
G02*
X184200000Y-80000000I-300000J0D01*
G01*
X184200000Y-80000000D02*
G75*
G02*
X184800000Y-80000000I300000J0D01*
G01*
X184500000Y-72000000D02*
X185500000Y-73000000D01*
X192500000Y-80000000D02*
X191500000Y-79000000D01*
X192500000Y-80000000D02*
X191500000Y-81000000D01*
X184500000Y-72000000D02*
X183500000Y-73000000D01*
X187035713Y-79209085D02*
X187059522Y-79185276D01*
X187059522Y-79185276D02*
X187107141Y-79113847D01*
X187107141Y-79113847D02*
X187130951Y-79066228D01*
X187130951Y-79066228D02*
X187154760Y-78994800D01*
X187154760Y-78994800D02*
X187178570Y-78875752D01*
X187178570Y-78875752D02*
X187178570Y-78780514D01*
X187178570Y-78780514D02*
X187154760Y-78661466D01*
X187154760Y-78661466D02*
X187130951Y-78590038D01*
X187130951Y-78590038D02*
X187107141Y-78542419D01*
X187107141Y-78542419D02*
X187059522Y-78470990D01*
X187059522Y-78470990D02*
X187035713Y-78447180D01*
X186559523Y-79018609D02*
X186726189Y-78780514D01*
X186845237Y-79018609D02*
X186845237Y-78518609D01*
X186845237Y-78518609D02*
X186654761Y-78518609D01*
X186654761Y-78518609D02*
X186607142Y-78542419D01*
X186607142Y-78542419D02*
X186583332Y-78566228D01*
X186583332Y-78566228D02*
X186559523Y-78613847D01*
X186559523Y-78613847D02*
X186559523Y-78685276D01*
X186559523Y-78685276D02*
X186583332Y-78732895D01*
X186583332Y-78732895D02*
X186607142Y-78756704D01*
X186607142Y-78756704D02*
X186654761Y-78780514D01*
X186654761Y-78780514D02*
X186845237Y-78780514D01*
X186273808Y-79018609D02*
X186321427Y-78994800D01*
X186321427Y-78994800D02*
X186345237Y-78970990D01*
X186345237Y-78970990D02*
X186369046Y-78923371D01*
X186369046Y-78923371D02*
X186369046Y-78780514D01*
X186369046Y-78780514D02*
X186345237Y-78732895D01*
X186345237Y-78732895D02*
X186321427Y-78709085D01*
X186321427Y-78709085D02*
X186273808Y-78685276D01*
X186273808Y-78685276D02*
X186202380Y-78685276D01*
X186202380Y-78685276D02*
X186154761Y-78709085D01*
X186154761Y-78709085D02*
X186130951Y-78732895D01*
X186130951Y-78732895D02*
X186107142Y-78780514D01*
X186107142Y-78780514D02*
X186107142Y-78923371D01*
X186107142Y-78923371D02*
X186130951Y-78970990D01*
X186130951Y-78970990D02*
X186154761Y-78994800D01*
X186154761Y-78994800D02*
X186202380Y-79018609D01*
X186202380Y-79018609D02*
X186273808Y-79018609D01*
X185892856Y-79018609D02*
X185892856Y-78518609D01*
X185892856Y-78709085D02*
X185845237Y-78685276D01*
X185845237Y-78685276D02*
X185749999Y-78685276D01*
X185749999Y-78685276D02*
X185702380Y-78709085D01*
X185702380Y-78709085D02*
X185678570Y-78732895D01*
X185678570Y-78732895D02*
X185654761Y-78780514D01*
X185654761Y-78780514D02*
X185654761Y-78923371D01*
X185654761Y-78923371D02*
X185678570Y-78970990D01*
X185678570Y-78970990D02*
X185702380Y-78994800D01*
X185702380Y-78994800D02*
X185749999Y-79018609D01*
X185749999Y-79018609D02*
X185845237Y-79018609D01*
X185845237Y-79018609D02*
X185892856Y-78994800D01*
X185369046Y-79018609D02*
X185416665Y-78994800D01*
X185416665Y-78994800D02*
X185440475Y-78970990D01*
X185440475Y-78970990D02*
X185464284Y-78923371D01*
X185464284Y-78923371D02*
X185464284Y-78780514D01*
X185464284Y-78780514D02*
X185440475Y-78732895D01*
X185440475Y-78732895D02*
X185416665Y-78709085D01*
X185416665Y-78709085D02*
X185369046Y-78685276D01*
X185369046Y-78685276D02*
X185297618Y-78685276D01*
X185297618Y-78685276D02*
X185249999Y-78709085D01*
X185249999Y-78709085D02*
X185226189Y-78732895D01*
X185226189Y-78732895D02*
X185202380Y-78780514D01*
X185202380Y-78780514D02*
X185202380Y-78923371D01*
X185202380Y-78923371D02*
X185226189Y-78970990D01*
X185226189Y-78970990D02*
X185249999Y-78994800D01*
X185249999Y-78994800D02*
X185297618Y-79018609D01*
X185297618Y-79018609D02*
X185369046Y-79018609D01*
X185059522Y-78685276D02*
X184869046Y-78685276D01*
X184988094Y-78518609D02*
X184988094Y-78947180D01*
X184988094Y-78947180D02*
X184964284Y-78994800D01*
X184964284Y-78994800D02*
X184916665Y-79018609D01*
X184916665Y-79018609D02*
X184869046Y-79018609D01*
X184035714Y-78970990D02*
X184059523Y-78994800D01*
X184059523Y-78994800D02*
X184130952Y-79018609D01*
X184130952Y-79018609D02*
X184178571Y-79018609D01*
X184178571Y-79018609D02*
X184249999Y-78994800D01*
X184249999Y-78994800D02*
X184297618Y-78947180D01*
X184297618Y-78947180D02*
X184321428Y-78899561D01*
X184321428Y-78899561D02*
X184345237Y-78804323D01*
X184345237Y-78804323D02*
X184345237Y-78732895D01*
X184345237Y-78732895D02*
X184321428Y-78637657D01*
X184321428Y-78637657D02*
X184297618Y-78590038D01*
X184297618Y-78590038D02*
X184249999Y-78542419D01*
X184249999Y-78542419D02*
X184178571Y-78518609D01*
X184178571Y-78518609D02*
X184130952Y-78518609D01*
X184130952Y-78518609D02*
X184059523Y-78542419D01*
X184059523Y-78542419D02*
X184035714Y-78566228D01*
X183630952Y-78994800D02*
X183678571Y-79018609D01*
X183678571Y-79018609D02*
X183773809Y-79018609D01*
X183773809Y-79018609D02*
X183821428Y-78994800D01*
X183821428Y-78994800D02*
X183845237Y-78947180D01*
X183845237Y-78947180D02*
X183845237Y-78756704D01*
X183845237Y-78756704D02*
X183821428Y-78709085D01*
X183821428Y-78709085D02*
X183773809Y-78685276D01*
X183773809Y-78685276D02*
X183678571Y-78685276D01*
X183678571Y-78685276D02*
X183630952Y-78709085D01*
X183630952Y-78709085D02*
X183607142Y-78756704D01*
X183607142Y-78756704D02*
X183607142Y-78804323D01*
X183607142Y-78804323D02*
X183845237Y-78851942D01*
X183392857Y-78685276D02*
X183392857Y-79018609D01*
X183392857Y-78732895D02*
X183369047Y-78709085D01*
X183369047Y-78709085D02*
X183321428Y-78685276D01*
X183321428Y-78685276D02*
X183250000Y-78685276D01*
X183250000Y-78685276D02*
X183202381Y-78709085D01*
X183202381Y-78709085D02*
X183178571Y-78756704D01*
X183178571Y-78756704D02*
X183178571Y-79018609D01*
X183011904Y-78685276D02*
X182821428Y-78685276D01*
X182940476Y-78518609D02*
X182940476Y-78947180D01*
X182940476Y-78947180D02*
X182916666Y-78994800D01*
X182916666Y-78994800D02*
X182869047Y-79018609D01*
X182869047Y-79018609D02*
X182821428Y-79018609D01*
X182464286Y-78994800D02*
X182511905Y-79018609D01*
X182511905Y-79018609D02*
X182607143Y-79018609D01*
X182607143Y-79018609D02*
X182654762Y-78994800D01*
X182654762Y-78994800D02*
X182678571Y-78947180D01*
X182678571Y-78947180D02*
X182678571Y-78756704D01*
X182678571Y-78756704D02*
X182654762Y-78709085D01*
X182654762Y-78709085D02*
X182607143Y-78685276D01*
X182607143Y-78685276D02*
X182511905Y-78685276D01*
X182511905Y-78685276D02*
X182464286Y-78709085D01*
X182464286Y-78709085D02*
X182440476Y-78756704D01*
X182440476Y-78756704D02*
X182440476Y-78804323D01*
X182440476Y-78804323D02*
X182678571Y-78851942D01*
X182226191Y-79018609D02*
X182226191Y-78685276D01*
X182226191Y-78780514D02*
X182202381Y-78732895D01*
X182202381Y-78732895D02*
X182178572Y-78709085D01*
X182178572Y-78709085D02*
X182130953Y-78685276D01*
X182130953Y-78685276D02*
X182083334Y-78685276D01*
X181964286Y-79209085D02*
X181940476Y-79185276D01*
X181940476Y-79185276D02*
X181892857Y-79113847D01*
X181892857Y-79113847D02*
X181869048Y-79066228D01*
X181869048Y-79066228D02*
X181845238Y-78994800D01*
X181845238Y-78994800D02*
X181821429Y-78875752D01*
X181821429Y-78875752D02*
X181821429Y-78780514D01*
X181821429Y-78780514D02*
X181845238Y-78661466D01*
X181845238Y-78661466D02*
X181869048Y-78590038D01*
X181869048Y-78590038D02*
X181892857Y-78542419D01*
X181892857Y-78542419D02*
X181940476Y-78470990D01*
X181940476Y-78470990D02*
X181964286Y-78447180D01*
X190961904Y-81057419D02*
X190438095Y-80390752D01*
X190961904Y-80390752D02*
X190438095Y-81057419D01*
X186238094Y-72290752D02*
X185999999Y-72957419D01*
X185761904Y-72290752D02*
X185999999Y-72957419D01*
X185999999Y-72957419D02*
X186095237Y-73195514D01*
X186095237Y-73195514D02*
X186142856Y-73243133D01*
X186142856Y-73243133D02*
X186238094Y-73290752D01*
D11*
X171892614Y-81659774D02*
X171964042Y-81874060D01*
X171964042Y-81874060D02*
X172035471Y-81945489D01*
X172035471Y-81945489D02*
X172178328Y-82016917D01*
X172178328Y-82016917D02*
X172392614Y-82016917D01*
X172392614Y-82016917D02*
X172535471Y-81945489D01*
X172535471Y-81945489D02*
X172606900Y-81874060D01*
X172606900Y-81874060D02*
X172678328Y-81731203D01*
X172678328Y-81731203D02*
X172678328Y-81159774D01*
X172678328Y-81159774D02*
X171178328Y-81159774D01*
X171178328Y-81159774D02*
X171178328Y-81659774D01*
X171178328Y-81659774D02*
X171249757Y-81802632D01*
X171249757Y-81802632D02*
X171321185Y-81874060D01*
X171321185Y-81874060D02*
X171464042Y-81945489D01*
X171464042Y-81945489D02*
X171606900Y-81945489D01*
X171606900Y-81945489D02*
X171749757Y-81874060D01*
X171749757Y-81874060D02*
X171821185Y-81802632D01*
X171821185Y-81802632D02*
X171892614Y-81659774D01*
X171892614Y-81659774D02*
X171892614Y-81159774D01*
X172678328Y-82874060D02*
X172606900Y-82731203D01*
X172606900Y-82731203D02*
X172535471Y-82659774D01*
X172535471Y-82659774D02*
X172392614Y-82588346D01*
X172392614Y-82588346D02*
X171964042Y-82588346D01*
X171964042Y-82588346D02*
X171821185Y-82659774D01*
X171821185Y-82659774D02*
X171749757Y-82731203D01*
X171749757Y-82731203D02*
X171678328Y-82874060D01*
X171678328Y-82874060D02*
X171678328Y-83088346D01*
X171678328Y-83088346D02*
X171749757Y-83231203D01*
X171749757Y-83231203D02*
X171821185Y-83302632D01*
X171821185Y-83302632D02*
X171964042Y-83374060D01*
X171964042Y-83374060D02*
X172392614Y-83374060D01*
X172392614Y-83374060D02*
X172535471Y-83302632D01*
X172535471Y-83302632D02*
X172606900Y-83231203D01*
X172606900Y-83231203D02*
X172678328Y-83088346D01*
X172678328Y-83088346D02*
X172678328Y-82874060D01*
X171678328Y-83802632D02*
X171678328Y-84374060D01*
X171178328Y-84016917D02*
X172464042Y-84016917D01*
X172464042Y-84016917D02*
X172606900Y-84088346D01*
X172606900Y-84088346D02*
X172678328Y-84231203D01*
X172678328Y-84231203D02*
X172678328Y-84374060D01*
X171678328Y-84659775D02*
X171678328Y-85231203D01*
X171178328Y-84874060D02*
X172464042Y-84874060D01*
X172464042Y-84874060D02*
X172606900Y-84945489D01*
X172606900Y-84945489D02*
X172678328Y-85088346D01*
X172678328Y-85088346D02*
X172678328Y-85231203D01*
X172678328Y-85945489D02*
X172606900Y-85802632D01*
X172606900Y-85802632D02*
X172535471Y-85731203D01*
X172535471Y-85731203D02*
X172392614Y-85659775D01*
X172392614Y-85659775D02*
X171964042Y-85659775D01*
X171964042Y-85659775D02*
X171821185Y-85731203D01*
X171821185Y-85731203D02*
X171749757Y-85802632D01*
X171749757Y-85802632D02*
X171678328Y-85945489D01*
X171678328Y-85945489D02*
X171678328Y-86159775D01*
X171678328Y-86159775D02*
X171749757Y-86302632D01*
X171749757Y-86302632D02*
X171821185Y-86374061D01*
X171821185Y-86374061D02*
X171964042Y-86445489D01*
X171964042Y-86445489D02*
X172392614Y-86445489D01*
X172392614Y-86445489D02*
X172535471Y-86374061D01*
X172535471Y-86374061D02*
X172606900Y-86302632D01*
X172606900Y-86302632D02*
X172678328Y-86159775D01*
X172678328Y-86159775D02*
X172678328Y-85945489D01*
X172678328Y-87088346D02*
X171678328Y-87088346D01*
X171821185Y-87088346D02*
X171749757Y-87159775D01*
X171749757Y-87159775D02*
X171678328Y-87302632D01*
X171678328Y-87302632D02*
X171678328Y-87516918D01*
X171678328Y-87516918D02*
X171749757Y-87659775D01*
X171749757Y-87659775D02*
X171892614Y-87731204D01*
X171892614Y-87731204D02*
X172678328Y-87731204D01*
X171892614Y-87731204D02*
X171749757Y-87802632D01*
X171749757Y-87802632D02*
X171678328Y-87945489D01*
X171678328Y-87945489D02*
X171678328Y-88159775D01*
X171678328Y-88159775D02*
X171749757Y-88302632D01*
X171749757Y-88302632D02*
X171892614Y-88374061D01*
X171892614Y-88374061D02*
X172678328Y-88374061D01*
X172678328Y-90945489D02*
X172678328Y-90231203D01*
X172678328Y-90231203D02*
X171178328Y-90231203D01*
X172678328Y-92088347D02*
X171892614Y-92088347D01*
X171892614Y-92088347D02*
X171749757Y-92016918D01*
X171749757Y-92016918D02*
X171678328Y-91874061D01*
X171678328Y-91874061D02*
X171678328Y-91588347D01*
X171678328Y-91588347D02*
X171749757Y-91445489D01*
X172606900Y-92088347D02*
X172678328Y-91945489D01*
X172678328Y-91945489D02*
X172678328Y-91588347D01*
X172678328Y-91588347D02*
X172606900Y-91445489D01*
X172606900Y-91445489D02*
X172464042Y-91374061D01*
X172464042Y-91374061D02*
X172321185Y-91374061D01*
X172321185Y-91374061D02*
X172178328Y-91445489D01*
X172178328Y-91445489D02*
X172106900Y-91588347D01*
X172106900Y-91588347D02*
X172106900Y-91945489D01*
X172106900Y-91945489D02*
X172035471Y-92088347D01*
X171678328Y-92659775D02*
X172678328Y-93016918D01*
X171678328Y-93374061D02*
X172678328Y-93016918D01*
X172678328Y-93016918D02*
X173035471Y-92874061D01*
X173035471Y-92874061D02*
X173106900Y-92802632D01*
X173106900Y-92802632D02*
X173178328Y-92659775D01*
X172606900Y-94516918D02*
X172678328Y-94374061D01*
X172678328Y-94374061D02*
X172678328Y-94088347D01*
X172678328Y-94088347D02*
X172606900Y-93945489D01*
X172606900Y-93945489D02*
X172464042Y-93874061D01*
X172464042Y-93874061D02*
X171892614Y-93874061D01*
X171892614Y-93874061D02*
X171749757Y-93945489D01*
X171749757Y-93945489D02*
X171678328Y-94088347D01*
X171678328Y-94088347D02*
X171678328Y-94374061D01*
X171678328Y-94374061D02*
X171749757Y-94516918D01*
X171749757Y-94516918D02*
X171892614Y-94588347D01*
X171892614Y-94588347D02*
X172035471Y-94588347D01*
X172035471Y-94588347D02*
X172178328Y-93874061D01*
X172678328Y-95231203D02*
X171678328Y-95231203D01*
X171964042Y-95231203D02*
X171821185Y-95302632D01*
X171821185Y-95302632D02*
X171749757Y-95374061D01*
X171749757Y-95374061D02*
X171678328Y-95516918D01*
X171678328Y-95516918D02*
X171678328Y-95659775D01*
D10*
X174171704Y-88481833D02*
X174195514Y-88553261D01*
X174195514Y-88553261D02*
X174219323Y-88577071D01*
X174219323Y-88577071D02*
X174266942Y-88600880D01*
X174266942Y-88600880D02*
X174338371Y-88600880D01*
X174338371Y-88600880D02*
X174385990Y-88577071D01*
X174385990Y-88577071D02*
X174409800Y-88553261D01*
X174409800Y-88553261D02*
X174433609Y-88505642D01*
X174433609Y-88505642D02*
X174433609Y-88315166D01*
X174433609Y-88315166D02*
X173933609Y-88315166D01*
X173933609Y-88315166D02*
X173933609Y-88481833D01*
X173933609Y-88481833D02*
X173957419Y-88529452D01*
X173957419Y-88529452D02*
X173981228Y-88553261D01*
X173981228Y-88553261D02*
X174028847Y-88577071D01*
X174028847Y-88577071D02*
X174076466Y-88577071D01*
X174076466Y-88577071D02*
X174124085Y-88553261D01*
X174124085Y-88553261D02*
X174147895Y-88529452D01*
X174147895Y-88529452D02*
X174171704Y-88481833D01*
X174171704Y-88481833D02*
X174171704Y-88315166D01*
X174385990Y-88815166D02*
X174409800Y-88838976D01*
X174409800Y-88838976D02*
X174433609Y-88815166D01*
X174433609Y-88815166D02*
X174409800Y-88791357D01*
X174409800Y-88791357D02*
X174385990Y-88815166D01*
X174385990Y-88815166D02*
X174433609Y-88815166D01*
X174385990Y-89338975D02*
X174409800Y-89315166D01*
X174409800Y-89315166D02*
X174433609Y-89243737D01*
X174433609Y-89243737D02*
X174433609Y-89196118D01*
X174433609Y-89196118D02*
X174409800Y-89124690D01*
X174409800Y-89124690D02*
X174362180Y-89077071D01*
X174362180Y-89077071D02*
X174314561Y-89053261D01*
X174314561Y-89053261D02*
X174219323Y-89029452D01*
X174219323Y-89029452D02*
X174147895Y-89029452D01*
X174147895Y-89029452D02*
X174052657Y-89053261D01*
X174052657Y-89053261D02*
X174005038Y-89077071D01*
X174005038Y-89077071D02*
X173957419Y-89124690D01*
X173957419Y-89124690D02*
X173933609Y-89196118D01*
X173933609Y-89196118D02*
X173933609Y-89243737D01*
X173933609Y-89243737D02*
X173957419Y-89315166D01*
X173957419Y-89315166D02*
X173981228Y-89338975D01*
X174100276Y-89767547D02*
X174433609Y-89767547D01*
X174100276Y-89553261D02*
X174362180Y-89553261D01*
X174362180Y-89553261D02*
X174409800Y-89577071D01*
X174409800Y-89577071D02*
X174433609Y-89624690D01*
X174433609Y-89624690D02*
X174433609Y-89696118D01*
X174433609Y-89696118D02*
X174409800Y-89743737D01*
X174409800Y-89743737D02*
X174385990Y-89767547D01*
X174433609Y-91029451D02*
X174433609Y-90743737D01*
X174433609Y-90886594D02*
X173933609Y-90886594D01*
X173933609Y-90886594D02*
X174005038Y-90838975D01*
X174005038Y-90838975D02*
X174052657Y-90791356D01*
X174052657Y-90791356D02*
X174076466Y-90743737D01*
X174433609Y-91696117D02*
X174409800Y-91648498D01*
X174409800Y-91648498D02*
X174385990Y-91624688D01*
X174385990Y-91624688D02*
X174338371Y-91600879D01*
X174338371Y-91600879D02*
X174195514Y-91600879D01*
X174195514Y-91600879D02*
X174147895Y-91624688D01*
X174147895Y-91624688D02*
X174124085Y-91648498D01*
X174124085Y-91648498D02*
X174100276Y-91696117D01*
X174100276Y-91696117D02*
X174100276Y-91767545D01*
X174100276Y-91767545D02*
X174124085Y-91815164D01*
X174124085Y-91815164D02*
X174147895Y-91838974D01*
X174147895Y-91838974D02*
X174195514Y-91862783D01*
X174195514Y-91862783D02*
X174338371Y-91862783D01*
X174338371Y-91862783D02*
X174385990Y-91838974D01*
X174385990Y-91838974D02*
X174409800Y-91815164D01*
X174409800Y-91815164D02*
X174433609Y-91767545D01*
X174433609Y-91767545D02*
X174433609Y-91696117D01*
X174100276Y-92029450D02*
X174100276Y-92291355D01*
X174100276Y-92291355D02*
X174433609Y-92029450D01*
X174433609Y-92029450D02*
X174433609Y-92291355D01*
X174624085Y-93005640D02*
X174600276Y-92981831D01*
X174600276Y-92981831D02*
X174528847Y-92934212D01*
X174528847Y-92934212D02*
X174481228Y-92910402D01*
X174481228Y-92910402D02*
X174409800Y-92886593D01*
X174409800Y-92886593D02*
X174290752Y-92862783D01*
X174290752Y-92862783D02*
X174195514Y-92862783D01*
X174195514Y-92862783D02*
X174076466Y-92886593D01*
X174076466Y-92886593D02*
X174005038Y-92910402D01*
X174005038Y-92910402D02*
X173957419Y-92934212D01*
X173957419Y-92934212D02*
X173885990Y-92981831D01*
X173885990Y-92981831D02*
X173862180Y-93005640D01*
X173933609Y-93148497D02*
X173933609Y-93458021D01*
X173933609Y-93458021D02*
X174124085Y-93291354D01*
X174124085Y-93291354D02*
X174124085Y-93362783D01*
X174124085Y-93362783D02*
X174147895Y-93410402D01*
X174147895Y-93410402D02*
X174171704Y-93434211D01*
X174171704Y-93434211D02*
X174219323Y-93458021D01*
X174219323Y-93458021D02*
X174338371Y-93458021D01*
X174338371Y-93458021D02*
X174385990Y-93434211D01*
X174385990Y-93434211D02*
X174409800Y-93410402D01*
X174409800Y-93410402D02*
X174433609Y-93362783D01*
X174433609Y-93362783D02*
X174433609Y-93219926D01*
X174433609Y-93219926D02*
X174409800Y-93172307D01*
X174409800Y-93172307D02*
X174385990Y-93148497D01*
X173933609Y-93910401D02*
X173933609Y-93672306D01*
X173933609Y-93672306D02*
X174171704Y-93648497D01*
X174171704Y-93648497D02*
X174147895Y-93672306D01*
X174147895Y-93672306D02*
X174124085Y-93719925D01*
X174124085Y-93719925D02*
X174124085Y-93838973D01*
X174124085Y-93838973D02*
X174147895Y-93886592D01*
X174147895Y-93886592D02*
X174171704Y-93910401D01*
X174171704Y-93910401D02*
X174219323Y-93934211D01*
X174219323Y-93934211D02*
X174338371Y-93934211D01*
X174338371Y-93934211D02*
X174385990Y-93910401D01*
X174385990Y-93910401D02*
X174409800Y-93886592D01*
X174409800Y-93886592D02*
X174433609Y-93838973D01*
X174433609Y-93838973D02*
X174433609Y-93719925D01*
X174433609Y-93719925D02*
X174409800Y-93672306D01*
X174409800Y-93672306D02*
X174385990Y-93648497D01*
X174100276Y-94529448D02*
X174600276Y-94529448D01*
X174362180Y-94767543D02*
X174409800Y-94791353D01*
X174409800Y-94791353D02*
X174433609Y-94838972D01*
X174362180Y-94529448D02*
X174409800Y-94553258D01*
X174409800Y-94553258D02*
X174433609Y-94600877D01*
X174433609Y-94600877D02*
X174433609Y-94696115D01*
X174433609Y-94696115D02*
X174409800Y-94743734D01*
X174409800Y-94743734D02*
X174362180Y-94767543D01*
X174362180Y-94767543D02*
X174100276Y-94767543D01*
X174433609Y-95053258D02*
X174100276Y-95053258D01*
X174147895Y-95053258D02*
X174124085Y-95077068D01*
X174124085Y-95077068D02*
X174100276Y-95124687D01*
X174100276Y-95124687D02*
X174100276Y-95196115D01*
X174100276Y-95196115D02*
X174124085Y-95243734D01*
X174124085Y-95243734D02*
X174171704Y-95267544D01*
X174171704Y-95267544D02*
X174433609Y-95267544D01*
X174171704Y-95267544D02*
X174124085Y-95291353D01*
X174124085Y-95291353D02*
X174100276Y-95338972D01*
X174100276Y-95338972D02*
X174100276Y-95410401D01*
X174100276Y-95410401D02*
X174124085Y-95458020D01*
X174124085Y-95458020D02*
X174171704Y-95481830D01*
X174171704Y-95481830D02*
X174433609Y-95481830D01*
X174624085Y-95672306D02*
X174600276Y-95696116D01*
X174600276Y-95696116D02*
X174528847Y-95743735D01*
X174528847Y-95743735D02*
X174481228Y-95767544D01*
X174481228Y-95767544D02*
X174409800Y-95791354D01*
X174409800Y-95791354D02*
X174290752Y-95815163D01*
X174290752Y-95815163D02*
X174195514Y-95815163D01*
X174195514Y-95815163D02*
X174076466Y-95791354D01*
X174076466Y-95791354D02*
X174005038Y-95767544D01*
X174005038Y-95767544D02*
X173957419Y-95743735D01*
X173957419Y-95743735D02*
X173885990Y-95696116D01*
X173885990Y-95696116D02*
X173862180Y-95672306D01*
X182002419Y-92373810D02*
X183002419Y-92707143D01*
X183002419Y-92707143D02*
X182002419Y-93040476D01*
X182002419Y-93564286D02*
X182002419Y-93754762D01*
X182002419Y-93754762D02*
X182050038Y-93850000D01*
X182050038Y-93850000D02*
X182145276Y-93945238D01*
X182145276Y-93945238D02*
X182335752Y-93992857D01*
X182335752Y-93992857D02*
X182669085Y-93992857D01*
X182669085Y-93992857D02*
X182859561Y-93945238D01*
X182859561Y-93945238D02*
X182954800Y-93850000D01*
X182954800Y-93850000D02*
X183002419Y-93754762D01*
X183002419Y-93754762D02*
X183002419Y-93564286D01*
X183002419Y-93564286D02*
X182954800Y-93469048D01*
X182954800Y-93469048D02*
X182859561Y-93373810D01*
X182859561Y-93373810D02*
X182669085Y-93326191D01*
X182669085Y-93326191D02*
X182335752Y-93326191D01*
X182335752Y-93326191D02*
X182145276Y-93373810D01*
X182145276Y-93373810D02*
X182050038Y-93469048D01*
X182050038Y-93469048D02*
X182002419Y-93564286D01*
X182621466Y-94421429D02*
X182621466Y-95183334D01*
X186912419Y-80007143D02*
X185912419Y-80007143D01*
X186912419Y-80483333D02*
X185912419Y-80483333D01*
X185912419Y-80483333D02*
X186912419Y-81054761D01*
X186912419Y-81054761D02*
X185912419Y-81054761D01*
X186531466Y-81530952D02*
X186531466Y-82292857D01*
X186912419Y-81911904D02*
X186150514Y-81911904D01*
X183002419Y-80007143D02*
X182002419Y-80007143D01*
X183002419Y-80483333D02*
X182002419Y-80483333D01*
X182002419Y-80483333D02*
X183002419Y-81054761D01*
X183002419Y-81054761D02*
X182002419Y-81054761D01*
X182621466Y-81530952D02*
X182621466Y-82292857D01*
X185912419Y-92373810D02*
X186912419Y-92707143D01*
X186912419Y-92707143D02*
X185912419Y-93040476D01*
X185912419Y-93564286D02*
X185912419Y-93754762D01*
X185912419Y-93754762D02*
X185960038Y-93850000D01*
X185960038Y-93850000D02*
X186055276Y-93945238D01*
X186055276Y-93945238D02*
X186245752Y-93992857D01*
X186245752Y-93992857D02*
X186579085Y-93992857D01*
X186579085Y-93992857D02*
X186769561Y-93945238D01*
X186769561Y-93945238D02*
X186864800Y-93850000D01*
X186864800Y-93850000D02*
X186912419Y-93754762D01*
X186912419Y-93754762D02*
X186912419Y-93564286D01*
X186912419Y-93564286D02*
X186864800Y-93469048D01*
X186864800Y-93469048D02*
X186769561Y-93373810D01*
X186769561Y-93373810D02*
X186579085Y-93326191D01*
X186579085Y-93326191D02*
X186245752Y-93326191D01*
X186245752Y-93326191D02*
X186055276Y-93373810D01*
X186055276Y-93373810D02*
X185960038Y-93469048D01*
X185960038Y-93469048D02*
X185912419Y-93564286D01*
X186531466Y-94421429D02*
X186531466Y-95183334D01*
X186912419Y-94802381D02*
X186150514Y-94802381D01*
X204200000Y-86938057D02*
X203800000Y-87509485D01*
X203514286Y-86938057D02*
X203514286Y-88138057D01*
X203514286Y-88138057D02*
X203971429Y-88138057D01*
X203971429Y-88138057D02*
X204085714Y-88080914D01*
X204085714Y-88080914D02*
X204142857Y-88023771D01*
X204142857Y-88023771D02*
X204200000Y-87909485D01*
X204200000Y-87909485D02*
X204200000Y-87738057D01*
X204200000Y-87738057D02*
X204142857Y-87623771D01*
X204142857Y-87623771D02*
X204085714Y-87566628D01*
X204085714Y-87566628D02*
X203971429Y-87509485D01*
X203971429Y-87509485D02*
X203514286Y-87509485D01*
X205171429Y-86995200D02*
X205057143Y-86938057D01*
X205057143Y-86938057D02*
X204828572Y-86938057D01*
X204828572Y-86938057D02*
X204714286Y-86995200D01*
X204714286Y-86995200D02*
X204657143Y-87109485D01*
X204657143Y-87109485D02*
X204657143Y-87566628D01*
X204657143Y-87566628D02*
X204714286Y-87680914D01*
X204714286Y-87680914D02*
X204828572Y-87738057D01*
X204828572Y-87738057D02*
X205057143Y-87738057D01*
X205057143Y-87738057D02*
X205171429Y-87680914D01*
X205171429Y-87680914D02*
X205228572Y-87566628D01*
X205228572Y-87566628D02*
X205228572Y-87452342D01*
X205228572Y-87452342D02*
X204657143Y-87338057D01*
X206257143Y-86995200D02*
X206142857Y-86938057D01*
X206142857Y-86938057D02*
X205914285Y-86938057D01*
X205914285Y-86938057D02*
X205800000Y-86995200D01*
X205800000Y-86995200D02*
X205742857Y-87052342D01*
X205742857Y-87052342D02*
X205685714Y-87166628D01*
X205685714Y-87166628D02*
X205685714Y-87509485D01*
X205685714Y-87509485D02*
X205742857Y-87623771D01*
X205742857Y-87623771D02*
X205800000Y-87680914D01*
X205800000Y-87680914D02*
X205914285Y-87738057D01*
X205914285Y-87738057D02*
X206142857Y-87738057D01*
X206142857Y-87738057D02*
X206257143Y-87680914D01*
X207228571Y-86995200D02*
X207114285Y-86938057D01*
X207114285Y-86938057D02*
X206885714Y-86938057D01*
X206885714Y-86938057D02*
X206771428Y-86995200D01*
X206771428Y-86995200D02*
X206714285Y-87109485D01*
X206714285Y-87109485D02*
X206714285Y-87566628D01*
X206714285Y-87566628D02*
X206771428Y-87680914D01*
X206771428Y-87680914D02*
X206885714Y-87738057D01*
X206885714Y-87738057D02*
X207114285Y-87738057D01*
X207114285Y-87738057D02*
X207228571Y-87680914D01*
X207228571Y-87680914D02*
X207285714Y-87566628D01*
X207285714Y-87566628D02*
X207285714Y-87452342D01*
X207285714Y-87452342D02*
X206714285Y-87338057D01*
X207799999Y-86938057D02*
X207799999Y-87738057D01*
X207799999Y-88138057D02*
X207742856Y-88080914D01*
X207742856Y-88080914D02*
X207799999Y-88023771D01*
X207799999Y-88023771D02*
X207857142Y-88080914D01*
X207857142Y-88080914D02*
X207799999Y-88138057D01*
X207799999Y-88138057D02*
X207799999Y-88023771D01*
X208257142Y-87738057D02*
X208542856Y-86938057D01*
X208542856Y-86938057D02*
X208828571Y-87738057D01*
X209742857Y-86995200D02*
X209628571Y-86938057D01*
X209628571Y-86938057D02*
X209400000Y-86938057D01*
X209400000Y-86938057D02*
X209285714Y-86995200D01*
X209285714Y-86995200D02*
X209228571Y-87109485D01*
X209228571Y-87109485D02*
X209228571Y-87566628D01*
X209228571Y-87566628D02*
X209285714Y-87680914D01*
X209285714Y-87680914D02*
X209400000Y-87738057D01*
X209400000Y-87738057D02*
X209628571Y-87738057D01*
X209628571Y-87738057D02*
X209742857Y-87680914D01*
X209742857Y-87680914D02*
X209800000Y-87566628D01*
X209800000Y-87566628D02*
X209800000Y-87452342D01*
X209800000Y-87452342D02*
X209228571Y-87338057D01*
X210314285Y-86938057D02*
X210314285Y-87738057D01*
X210314285Y-87509485D02*
X210371428Y-87623771D01*
X210371428Y-87623771D02*
X210428571Y-87680914D01*
X210428571Y-87680914D02*
X210542856Y-87738057D01*
X210542856Y-87738057D02*
X210657142Y-87738057D01*
X205177619Y-74399295D02*
X205139523Y-74361200D01*
X205139523Y-74361200D02*
X205025238Y-74323104D01*
X205025238Y-74323104D02*
X204949047Y-74323104D01*
X204949047Y-74323104D02*
X204834761Y-74361200D01*
X204834761Y-74361200D02*
X204758571Y-74437390D01*
X204758571Y-74437390D02*
X204720476Y-74513580D01*
X204720476Y-74513580D02*
X204682380Y-74665961D01*
X204682380Y-74665961D02*
X204682380Y-74780247D01*
X204682380Y-74780247D02*
X204720476Y-74932628D01*
X204720476Y-74932628D02*
X204758571Y-75008819D01*
X204758571Y-75008819D02*
X204834761Y-75085009D01*
X204834761Y-75085009D02*
X204949047Y-75123104D01*
X204949047Y-75123104D02*
X205025238Y-75123104D01*
X205025238Y-75123104D02*
X205139523Y-75085009D01*
X205139523Y-75085009D02*
X205177619Y-75046914D01*
X205520476Y-74323104D02*
X205520476Y-75123104D01*
X205520476Y-74742152D02*
X205977619Y-74742152D01*
X205977619Y-74323104D02*
X205977619Y-75123104D01*
X206320475Y-75046914D02*
X206358571Y-75085009D01*
X206358571Y-75085009D02*
X206434761Y-75123104D01*
X206434761Y-75123104D02*
X206625237Y-75123104D01*
X206625237Y-75123104D02*
X206701428Y-75085009D01*
X206701428Y-75085009D02*
X206739523Y-75046914D01*
X206739523Y-75046914D02*
X206777618Y-74970723D01*
X206777618Y-74970723D02*
X206777618Y-74894533D01*
X206777618Y-74894533D02*
X206739523Y-74780247D01*
X206739523Y-74780247D02*
X206282380Y-74323104D01*
X206282380Y-74323104D02*
X206777618Y-74323104D01*
X202637619Y-74399295D02*
X202599523Y-74361200D01*
X202599523Y-74361200D02*
X202485238Y-74323104D01*
X202485238Y-74323104D02*
X202409047Y-74323104D01*
X202409047Y-74323104D02*
X202294761Y-74361200D01*
X202294761Y-74361200D02*
X202218571Y-74437390D01*
X202218571Y-74437390D02*
X202180476Y-74513580D01*
X202180476Y-74513580D02*
X202142380Y-74665961D01*
X202142380Y-74665961D02*
X202142380Y-74780247D01*
X202142380Y-74780247D02*
X202180476Y-74932628D01*
X202180476Y-74932628D02*
X202218571Y-75008819D01*
X202218571Y-75008819D02*
X202294761Y-75085009D01*
X202294761Y-75085009D02*
X202409047Y-75123104D01*
X202409047Y-75123104D02*
X202485238Y-75123104D01*
X202485238Y-75123104D02*
X202599523Y-75085009D01*
X202599523Y-75085009D02*
X202637619Y-75046914D01*
X202980476Y-74323104D02*
X202980476Y-75123104D01*
X202980476Y-74742152D02*
X203437619Y-74742152D01*
X203437619Y-74323104D02*
X203437619Y-75123104D01*
X204237618Y-74323104D02*
X203780475Y-74323104D01*
X204009047Y-74323104D02*
X204009047Y-75123104D01*
X204009047Y-75123104D02*
X203932856Y-75008819D01*
X203932856Y-75008819D02*
X203856666Y-74932628D01*
X203856666Y-74932628D02*
X203780475Y-74894533D01*
X207717619Y-74399295D02*
X207679523Y-74361200D01*
X207679523Y-74361200D02*
X207565238Y-74323104D01*
X207565238Y-74323104D02*
X207489047Y-74323104D01*
X207489047Y-74323104D02*
X207374761Y-74361200D01*
X207374761Y-74361200D02*
X207298571Y-74437390D01*
X207298571Y-74437390D02*
X207260476Y-74513580D01*
X207260476Y-74513580D02*
X207222380Y-74665961D01*
X207222380Y-74665961D02*
X207222380Y-74780247D01*
X207222380Y-74780247D02*
X207260476Y-74932628D01*
X207260476Y-74932628D02*
X207298571Y-75008819D01*
X207298571Y-75008819D02*
X207374761Y-75085009D01*
X207374761Y-75085009D02*
X207489047Y-75123104D01*
X207489047Y-75123104D02*
X207565238Y-75123104D01*
X207565238Y-75123104D02*
X207679523Y-75085009D01*
X207679523Y-75085009D02*
X207717619Y-75046914D01*
X208060476Y-74323104D02*
X208060476Y-75123104D01*
X208060476Y-74742152D02*
X208517619Y-74742152D01*
X208517619Y-74323104D02*
X208517619Y-75123104D01*
X208822380Y-75123104D02*
X209317618Y-75123104D01*
X209317618Y-75123104D02*
X209050952Y-74818342D01*
X209050952Y-74818342D02*
X209165237Y-74818342D01*
X209165237Y-74818342D02*
X209241428Y-74780247D01*
X209241428Y-74780247D02*
X209279523Y-74742152D01*
X209279523Y-74742152D02*
X209317618Y-74665961D01*
X209317618Y-74665961D02*
X209317618Y-74475485D01*
X209317618Y-74475485D02*
X209279523Y-74399295D01*
X209279523Y-74399295D02*
X209241428Y-74361200D01*
X209241428Y-74361200D02*
X209165237Y-74323104D01*
X209165237Y-74323104D02*
X208936666Y-74323104D01*
X208936666Y-74323104D02*
X208860475Y-74361200D01*
X208860475Y-74361200D02*
X208822380Y-74399295D01*
X203119046Y-90211390D02*
X202785713Y-90211390D01*
X202785713Y-89687580D02*
X202785713Y-90687580D01*
X202785713Y-90687580D02*
X203261903Y-90687580D01*
X203785713Y-89687580D02*
X203690475Y-89735200D01*
X203690475Y-89735200D02*
X203642856Y-89830438D01*
X203642856Y-89830438D02*
X203642856Y-90687580D01*
X204071428Y-90354247D02*
X204309523Y-89687580D01*
X204547618Y-90354247D02*
X204309523Y-89687580D01*
X204309523Y-89687580D02*
X204214285Y-89449485D01*
X204214285Y-89449485D02*
X204166666Y-89401866D01*
X204166666Y-89401866D02*
X204071428Y-89354247D01*
X204880952Y-89735200D02*
X204976190Y-89687580D01*
X204976190Y-89687580D02*
X205166666Y-89687580D01*
X205166666Y-89687580D02*
X205261904Y-89735200D01*
X205261904Y-89735200D02*
X205309523Y-89830438D01*
X205309523Y-89830438D02*
X205309523Y-89878057D01*
X205309523Y-89878057D02*
X205261904Y-89973295D01*
X205261904Y-89973295D02*
X205166666Y-90020914D01*
X205166666Y-90020914D02*
X205023809Y-90020914D01*
X205023809Y-90020914D02*
X204928571Y-90068533D01*
X204928571Y-90068533D02*
X204880952Y-90163771D01*
X204880952Y-90163771D02*
X204880952Y-90211390D01*
X204880952Y-90211390D02*
X204928571Y-90306628D01*
X204928571Y-90306628D02*
X205023809Y-90354247D01*
X205023809Y-90354247D02*
X205166666Y-90354247D01*
X205166666Y-90354247D02*
X205261904Y-90306628D01*
X205738095Y-89687580D02*
X205738095Y-90687580D01*
X205833333Y-90068533D02*
X206119047Y-89687580D01*
X206119047Y-90354247D02*
X205738095Y-89973295D01*
X206452381Y-90354247D02*
X206690476Y-89687580D01*
X206928571Y-90354247D02*
X206690476Y-89687580D01*
X206690476Y-89687580D02*
X206595238Y-89449485D01*
X206595238Y-89449485D02*
X206547619Y-89401866D01*
X206547619Y-89401866D02*
X206452381Y-89354247D01*
X208404762Y-90211390D02*
X208071429Y-90211390D01*
X208071429Y-89687580D02*
X208071429Y-90687580D01*
X208071429Y-90687580D02*
X208547619Y-90687580D01*
X208880953Y-89735200D02*
X209023810Y-89687580D01*
X209023810Y-89687580D02*
X209261905Y-89687580D01*
X209261905Y-89687580D02*
X209357143Y-89735200D01*
X209357143Y-89735200D02*
X209404762Y-89782819D01*
X209404762Y-89782819D02*
X209452381Y-89878057D01*
X209452381Y-89878057D02*
X209452381Y-89973295D01*
X209452381Y-89973295D02*
X209404762Y-90068533D01*
X209404762Y-90068533D02*
X209357143Y-90116152D01*
X209357143Y-90116152D02*
X209261905Y-90163771D01*
X209261905Y-90163771D02*
X209071429Y-90211390D01*
X209071429Y-90211390D02*
X208976191Y-90259009D01*
X208976191Y-90259009D02*
X208928572Y-90306628D01*
X208928572Y-90306628D02*
X208880953Y-90401866D01*
X208880953Y-90401866D02*
X208880953Y-90497104D01*
X208880953Y-90497104D02*
X208928572Y-90592342D01*
X208928572Y-90592342D02*
X208976191Y-90639961D01*
X208976191Y-90639961D02*
X209071429Y-90687580D01*
X209071429Y-90687580D02*
X209309524Y-90687580D01*
X209309524Y-90687580D02*
X209452381Y-90639961D01*
X209833334Y-90592342D02*
X209880953Y-90639961D01*
X209880953Y-90639961D02*
X209976191Y-90687580D01*
X209976191Y-90687580D02*
X210214286Y-90687580D01*
X210214286Y-90687580D02*
X210309524Y-90639961D01*
X210309524Y-90639961D02*
X210357143Y-90592342D01*
X210357143Y-90592342D02*
X210404762Y-90497104D01*
X210404762Y-90497104D02*
X210404762Y-90401866D01*
X210404762Y-90401866D02*
X210357143Y-90259009D01*
X210357143Y-90259009D02*
X209785715Y-89687580D01*
X209785715Y-89687580D02*
X210404762Y-89687580D01*
X210785715Y-89973295D02*
X211261905Y-89973295D01*
X210690477Y-89687580D02*
X211023810Y-90687580D01*
X211023810Y-90687580D02*
X211357143Y-89687580D01*
X210257619Y-74399295D02*
X210219523Y-74361200D01*
X210219523Y-74361200D02*
X210105238Y-74323104D01*
X210105238Y-74323104D02*
X210029047Y-74323104D01*
X210029047Y-74323104D02*
X209914761Y-74361200D01*
X209914761Y-74361200D02*
X209838571Y-74437390D01*
X209838571Y-74437390D02*
X209800476Y-74513580D01*
X209800476Y-74513580D02*
X209762380Y-74665961D01*
X209762380Y-74665961D02*
X209762380Y-74780247D01*
X209762380Y-74780247D02*
X209800476Y-74932628D01*
X209800476Y-74932628D02*
X209838571Y-75008819D01*
X209838571Y-75008819D02*
X209914761Y-75085009D01*
X209914761Y-75085009D02*
X210029047Y-75123104D01*
X210029047Y-75123104D02*
X210105238Y-75123104D01*
X210105238Y-75123104D02*
X210219523Y-75085009D01*
X210219523Y-75085009D02*
X210257619Y-75046914D01*
X210600476Y-74323104D02*
X210600476Y-75123104D01*
X210600476Y-74742152D02*
X211057619Y-74742152D01*
X211057619Y-74323104D02*
X211057619Y-75123104D01*
X211781428Y-74856438D02*
X211781428Y-74323104D01*
X211590952Y-75161200D02*
X211400475Y-74589771D01*
X211400475Y-74589771D02*
X211895714Y-74589771D01*
X202438771Y-90568972D02*
X202462580Y-90545163D01*
X202462580Y-90545163D02*
X202486390Y-90497544D01*
X202486390Y-90497544D02*
X202486390Y-90378496D01*
X202486390Y-90378496D02*
X202462580Y-90330877D01*
X202462580Y-90330877D02*
X202438771Y-90307068D01*
X202438771Y-90307068D02*
X202391152Y-90283258D01*
X202391152Y-90283258D02*
X202343533Y-90283258D01*
X202343533Y-90283258D02*
X202272104Y-90307068D01*
X202272104Y-90307068D02*
X201986390Y-90592782D01*
X201986390Y-90592782D02*
X201986390Y-90283258D01*
X202486390Y-89830878D02*
X202486390Y-90068973D01*
X202486390Y-90068973D02*
X202248295Y-90092782D01*
X202248295Y-90092782D02*
X202272104Y-90068973D01*
X202272104Y-90068973D02*
X202295914Y-90021354D01*
X202295914Y-90021354D02*
X202295914Y-89902306D01*
X202295914Y-89902306D02*
X202272104Y-89854687D01*
X202272104Y-89854687D02*
X202248295Y-89830878D01*
X202248295Y-89830878D02*
X202200676Y-89807068D01*
X202200676Y-89807068D02*
X202081628Y-89807068D01*
X202081628Y-89807068D02*
X202034009Y-89830878D01*
X202034009Y-89830878D02*
X202010200Y-89854687D01*
X202010200Y-89854687D02*
X201986390Y-89902306D01*
X201986390Y-89902306D02*
X201986390Y-90021354D01*
X201986390Y-90021354D02*
X202010200Y-90068973D01*
X202010200Y-90068973D02*
X202034009Y-90092782D01*
X201986390Y-89592783D02*
X202319723Y-89592783D01*
X202272104Y-89592783D02*
X202295914Y-89568973D01*
X202295914Y-89568973D02*
X202319723Y-89521354D01*
X202319723Y-89521354D02*
X202319723Y-89449926D01*
X202319723Y-89449926D02*
X202295914Y-89402307D01*
X202295914Y-89402307D02*
X202248295Y-89378497D01*
X202248295Y-89378497D02*
X201986390Y-89378497D01*
X202248295Y-89378497D02*
X202295914Y-89354688D01*
X202295914Y-89354688D02*
X202319723Y-89307069D01*
X202319723Y-89307069D02*
X202319723Y-89235640D01*
X202319723Y-89235640D02*
X202295914Y-89188021D01*
X202295914Y-89188021D02*
X202248295Y-89164211D01*
X202248295Y-89164211D02*
X201986390Y-89164211D01*
X201986390Y-88926116D02*
X202319723Y-88926116D01*
X202272104Y-88926116D02*
X202295914Y-88902306D01*
X202295914Y-88902306D02*
X202319723Y-88854687D01*
X202319723Y-88854687D02*
X202319723Y-88783259D01*
X202319723Y-88783259D02*
X202295914Y-88735640D01*
X202295914Y-88735640D02*
X202248295Y-88711830D01*
X202248295Y-88711830D02*
X201986390Y-88711830D01*
X202248295Y-88711830D02*
X202295914Y-88688021D01*
X202295914Y-88688021D02*
X202319723Y-88640402D01*
X202319723Y-88640402D02*
X202319723Y-88568973D01*
X202319723Y-88568973D02*
X202295914Y-88521354D01*
X202295914Y-88521354D02*
X202248295Y-88497544D01*
X202248295Y-88497544D02*
X201986390Y-88497544D01*
X202319723Y-87830878D02*
X202034009Y-87545164D01*
X202319723Y-87545164D02*
X202034009Y-87830878D01*
X201986390Y-86616592D02*
X201986390Y-86902306D01*
X201986390Y-86759449D02*
X202486390Y-86759449D01*
X202486390Y-86759449D02*
X202414961Y-86807068D01*
X202414961Y-86807068D02*
X202367342Y-86854687D01*
X202367342Y-86854687D02*
X202343533Y-86902306D01*
X201986390Y-86140402D02*
X201986390Y-86426116D01*
X201986390Y-86283259D02*
X202486390Y-86283259D01*
X202486390Y-86283259D02*
X202414961Y-86330878D01*
X202414961Y-86330878D02*
X202367342Y-86378497D01*
X202367342Y-86378497D02*
X202343533Y-86426116D01*
X201986390Y-85545165D02*
X202319723Y-85545165D01*
X202272104Y-85545165D02*
X202295914Y-85521355D01*
X202295914Y-85521355D02*
X202319723Y-85473736D01*
X202319723Y-85473736D02*
X202319723Y-85402308D01*
X202319723Y-85402308D02*
X202295914Y-85354689D01*
X202295914Y-85354689D02*
X202248295Y-85330879D01*
X202248295Y-85330879D02*
X201986390Y-85330879D01*
X202248295Y-85330879D02*
X202295914Y-85307070D01*
X202295914Y-85307070D02*
X202319723Y-85259451D01*
X202319723Y-85259451D02*
X202319723Y-85188022D01*
X202319723Y-85188022D02*
X202295914Y-85140403D01*
X202295914Y-85140403D02*
X202248295Y-85116593D01*
X202248295Y-85116593D02*
X201986390Y-85116593D01*
X201986390Y-84878498D02*
X202319723Y-84878498D01*
X202272104Y-84878498D02*
X202295914Y-84854688D01*
X202295914Y-84854688D02*
X202319723Y-84807069D01*
X202319723Y-84807069D02*
X202319723Y-84735641D01*
X202319723Y-84735641D02*
X202295914Y-84688022D01*
X202295914Y-84688022D02*
X202248295Y-84664212D01*
X202248295Y-84664212D02*
X201986390Y-84664212D01*
X202248295Y-84664212D02*
X202295914Y-84640403D01*
X202295914Y-84640403D02*
X202319723Y-84592784D01*
X202319723Y-84592784D02*
X202319723Y-84521355D01*
X202319723Y-84521355D02*
X202295914Y-84473736D01*
X202295914Y-84473736D02*
X202248295Y-84449926D01*
X202248295Y-84449926D02*
X201986390Y-84449926D01*
%TO.C,J3*%
X182595000Y-87500000D02*
X184500000Y-91945000D01*
X183865000Y-83690000D02*
X183865000Y-88770000D01*
X183865000Y-88770000D02*
X182595000Y-87500000D01*
X184500000Y-91945000D02*
X186405000Y-87500000D01*
X185135000Y-88770000D02*
X185135000Y-83690000D01*
X186405000Y-87500000D02*
X185135000Y-88770000D01*
X180050000Y-95650000D02*
X188950000Y-95650000D01*
X188950000Y-79350000D01*
X180050000Y-79350000D01*
X180050000Y-95650000D01*
X183865000Y-83690000D02*
G75*
G02*
X185135000Y-83690000I635000J0D01*
G01*
%TO.C,J2*%
X201500000Y-66600000D02*
X212500000Y-66600000D01*
X212500000Y-91600000D01*
X201500000Y-91600000D01*
X201500000Y-66600000D01*
%TD*%
M02*
