%TF.GenerationSoftware,KiCad,Pcbnew,9.0.7*%
%TF.CreationDate,2026-02-07T11:06:05-07:00*%
%TF.ProjectId,PCB_v1,5043425f-7631-42e6-9b69-6361645f7063,rev?*%
%TF.SameCoordinates,Original*%
%TF.FileFunction,Copper,L2,Bot*%
%TF.FilePolarity,Positive*%
%FSLAX46Y46*%
G04 Gerber Fmt 4.6, Leading zero omitted, Abs format (unit mm)*
G04 Created by KiCad (PCBNEW 9.0.7) date 2026-02-07 11:06:05*
%MOMM*%
%LPD*%
G01*
G04 APERTURE LIST*
G04 Aperture macros list*
%AMRoundRect*
0 Rectangle with rounded corners*
0 $1 Rounding radius*
0 $2 $3 $4 $5 $6 $7 $8 $9 X,Y pos of 4 corners*
0 Add a 4 corners polygon primitive as box body*
4,1,4,$2,$3,$4,$5,$6,$7,$8,$9,$2,$3,0*
0 Add four circle primitives for the rounded corners*
1,1,$1+$1,$2,$3*
1,1,$1+$1,$4,$5*
1,1,$1+$1,$6,$7*
1,1,$1+$1,$8,$9*
0 Add four rect primitives between the rounded corners*
20,1,$1+$1,$2,$3,$4,$5,0*
20,1,$1+$1,$4,$5,$6,$7,0*
20,1,$1+$1,$6,$7,$8,$9,0*
20,1,$1+$1,$8,$9,$2,$3,0*%
G04 Aperture macros list end*
%TA.AperFunction,ComponentPad*%
%ADD10R,2.000000X2.000000*%
%TD*%
%TA.AperFunction,ComponentPad*%
%ADD11C,2.000000*%
%TD*%
%TA.AperFunction,ComponentPad*%
%ADD12C,1.600000*%
%TD*%
%TA.AperFunction,ComponentPad*%
%ADD13RoundRect,1.000000X-0.000010X0.000010X-0.000010X-0.000010X0.000010X-0.000010X0.000010X0.000010X0*%
%TD*%
%TA.AperFunction,ComponentPad*%
%ADD14R,2.500000X1.500000*%
%TD*%
%TA.AperFunction,ComponentPad*%
%ADD15RoundRect,0.150000X1.100000X0.600000X-1.100000X0.600000X-1.100000X-0.600000X1.100000X-0.600000X0*%
%TD*%
%TA.AperFunction,Conductor*%
%ADD16C,0.400000*%
%TD*%
%TA.AperFunction,Conductor*%
%ADD17C,0.200000*%
%TD*%
G04 APERTURE END LIST*
D10*
%TO.P,J7,1,Pin_1*%
%TO.N,/S_ESC_Right_3*%
X213100000Y-96408000D03*
%TD*%
%TO.P,J5,1,Pin_1*%
%TO.N,/12V*%
X207830000Y-96344500D03*
D11*
%TO.P,J5,2,Pin_2*%
%TO.N,/GND*%
X210370000Y-96344500D03*
%TD*%
D10*
%TO.P,J6,1,Pin_1*%
%TO.N,/S_ESC_Left_2*%
X146900000Y-63592000D03*
%TD*%
D12*
%TO.P,U1,1,GND*%
%TO.N,/GND*%
X189525000Y-95240000D03*
%TO.P,U1,2,0_RX1_CRX2_CS1*%
%TO.N,unconnected-(U1-0_RX1_CRX2_CS1-Pad2)*%
X189525000Y-92700000D03*
%TO.P,U1,3,1_TX1_CTX2_MISO1*%
%TO.N,unconnected-(U1-1_TX1_CTX2_MISO1-Pad3)*%
X189525000Y-90160000D03*
%TO.P,U1,4,2_OUT2*%
%TO.N,/S_ESC_Left_2*%
X189525000Y-87620000D03*
%TO.P,U1,5,3_LRCLK2*%
%TO.N,/S_ESC_Right_3*%
X189525000Y-85080000D03*
%TO.P,U1,6,4_BCLK2*%
%TO.N,unconnected-(U1-4_BCLK2-Pad6)*%
X189525000Y-82540000D03*
%TO.P,U1,7,5_IN2*%
%TO.N,unconnected-(U1-5_IN2-Pad7)*%
X189525000Y-80000000D03*
%TO.P,U1,8,6_OUT1D*%
%TO.N,unconnected-(U1-6_OUT1D-Pad8)*%
X189525000Y-77460000D03*
%TO.P,U1,9,7_RX2_OUT1A*%
%TO.N,unconnected-(U1-7_RX2_OUT1A-Pad9)*%
X189525000Y-74920000D03*
%TO.P,U1,10,8_TX2_IN1*%
%TO.N,unconnected-(U1-8_TX2_IN1-Pad10)*%
X189525000Y-72380000D03*
%TO.P,U1,11,9_OUT1C*%
%TO.N,unconnected-(U1-9_OUT1C-Pad11)*%
X189525000Y-69840000D03*
%TO.P,U1,12,10_CS_MQSR*%
%TO.N,unconnected-(U1-10_CS_MQSR-Pad12)*%
X189525000Y-67300000D03*
%TO.P,U1,13,11_MOSI_CTX1*%
%TO.N,/LED*%
X189525000Y-64760000D03*
%TO.P,U1,14,12_MISO_MQSL*%
%TO.N,unconnected-(U1-12_MISO_MQSL-Pad14)*%
X189525000Y-62220000D03*
%TO.P,U1,15,VBAT*%
%TO.N,unconnected-(U1-VBAT-Pad15)*%
X186985000Y-62220000D03*
%TO.P,U1,16,3V3*%
%TO.N,unconnected-(U1-3V3-Pad16)*%
X184445000Y-62220000D03*
%TO.P,U1,17,GND*%
%TO.N,/GND*%
X181905000Y-62220000D03*
%TO.P,U1,18,PROGRAM*%
%TO.N,unconnected-(U1-PROGRAM-Pad18)*%
X179365000Y-62220000D03*
%TO.P,U1,19,ON_OFF*%
%TO.N,unconnected-(U1-ON_OFF-Pad19)*%
X176825000Y-62220000D03*
%TO.P,U1,20,13_SCK_CRX1_LED*%
%TO.N,unconnected-(U1-13_SCK_CRX1_LED-Pad20)*%
X174285000Y-62220000D03*
%TO.P,U1,21,14_A0_TX3_SPDIF_OUT*%
%TO.N,unconnected-(U1-14_A0_TX3_SPDIF_OUT-Pad21)*%
X174285000Y-64760000D03*
%TO.P,U1,22,15_A1_RX3_SPDIF_IN*%
%TO.N,unconnected-(U1-15_A1_RX3_SPDIF_IN-Pad22)*%
X174285000Y-67300000D03*
%TO.P,U1,23,16_A2_RX4_SCL1*%
%TO.N,unconnected-(U1-16_A2_RX4_SCL1-Pad23)*%
X174285000Y-69840000D03*
%TO.P,U1,24,17_A3_TX4_SDA1*%
%TO.N,unconnected-(U1-17_A3_TX4_SDA1-Pad24)*%
X174285000Y-72380000D03*
%TO.P,U1,25,18_A4_SDA0*%
%TO.N,/SDA_18*%
X174285000Y-74920000D03*
%TO.P,U1,26,19_A5_SCL0*%
%TO.N,/SCL_19*%
X174285000Y-77460000D03*
%TO.P,U1,27,20_A6_TX5_LRCLK1*%
%TO.N,/CH4_20*%
X174285000Y-80000000D03*
%TO.P,U1,28,21_A7_RX5_BCLK1*%
%TO.N,/CH3_21*%
X174285000Y-82540000D03*
%TO.P,U1,29,22_A8_CTX1*%
%TO.N,/CH2_22*%
X174285000Y-85080000D03*
%TO.P,U1,30,23_A9_CRX1_MCLK1*%
%TO.N,/CH1_23*%
X174285000Y-87620000D03*
%TO.P,U1,31,3V3*%
%TO.N,/3.3V*%
X174285000Y-90160000D03*
%TO.P,U1,32,GND*%
%TO.N,/GND*%
X174285000Y-92700000D03*
%TO.P,U1,33,VIN*%
%TO.N,/5V*%
X174285000Y-95240000D03*
%TD*%
D10*
%TO.P,J4,1,Pin_1*%
%TO.N,/12V*%
X152170000Y-63655500D03*
D11*
%TO.P,J4,2,Pin_2*%
%TO.N,/GND*%
X149630000Y-63655500D03*
%TD*%
D10*
%TO.P,J8,1,Pin_1*%
%TO.N,/LED*%
X212170000Y-63465000D03*
D11*
%TO.P,J8,2,Pin_2*%
%TO.N,/GND*%
X209630000Y-63465000D03*
%TD*%
D10*
%TO.P,J1,1,Pin_1*%
%TO.N,unconnected-(J1-Pin_1-Pad1)*%
X217790000Y-76290000D03*
D13*
%TO.P,J1,2,Pin_2*%
%TO.N,unconnected-(J1-Pin_2-Pad2)*%
X217790000Y-78830000D03*
%TO.P,J1,3,Pin_3*%
%TO.N,unconnected-(J1-Pin_3-Pad3)*%
X217790000Y-81370000D03*
%TO.P,J1,4,Pin_4*%
%TO.N,unconnected-(J1-Pin_4-Pad4)*%
X217790000Y-83910000D03*
%TO.P,J1,5,Pin_5*%
%TO.N,/GND*%
X200010000Y-76290000D03*
%TO.P,J1,6,Pin_6*%
%TO.N,/3.3V*%
X200010000Y-78830000D03*
%TO.P,J1,7,Pin_7*%
%TO.N,/SDA_18*%
X200010000Y-81370000D03*
%TO.P,J1,8,Pin_8*%
%TO.N,/SCL_19*%
X200010000Y-83910000D03*
%TD*%
D14*
%TO.P,J3,1,Pin_1*%
%TO.N,/12V*%
X149650000Y-95400000D03*
D15*
%TO.P,J3,2,Pin_2*%
%TO.N,/GND*%
X149650000Y-88400000D03*
%TO.P,J3,3,Pin_3*%
%TO.N,/5V*%
X162650000Y-95400000D03*
%TO.P,J3,4,Pin_4*%
%TO.N,/GND*%
X162650000Y-88400000D03*
%TD*%
D10*
%TO.P,J2,1,Pin_1*%
%TO.N,/CH1_23*%
X164300000Y-85060000D03*
%TO.P,J2,2,Pin_2*%
%TO.N,/CH2_22*%
X164300000Y-82390000D03*
%TO.P,J2,3,Pin_3*%
%TO.N,/CH3_21*%
X164300000Y-79720000D03*
%TO.P,J2,4,Pin_4*%
%TO.N,/CH4_20*%
X164300000Y-77050000D03*
D11*
%TO.P,J2,5,Pin_5*%
%TO.N,/3.3V*%
X166800000Y-85060000D03*
%TO.P,J2,6,Pin_6*%
X166800000Y-82390000D03*
%TO.P,J2,7,Pin_7*%
X166800000Y-79720000D03*
%TO.P,J2,8,Pin_8*%
X166800000Y-77050000D03*
%TO.P,J2,9,Pin_9*%
%TO.N,/GND*%
X169300000Y-85060000D03*
%TO.P,J2,10,Pin_10*%
X169300000Y-82390000D03*
%TO.P,J2,11,Pin_11*%
X169300000Y-79720000D03*
%TO.P,J2,12,Pin_12*%
X169300000Y-77050000D03*
%TD*%
D16*
%TO.N,/3.3V*%
X169160000Y-90160000D02*
X174285000Y-90160000D01*
X166800000Y-87800000D02*
X166800000Y-77050000D01*
X166800000Y-87800000D02*
X169160000Y-90160000D01*
D17*
%TO.N,/S_ESC_Left_2*%
X185000000Y-76000000D02*
X179941000Y-70941000D01*
X189525000Y-87620000D02*
X185000000Y-83095000D01*
X149941000Y-70941000D02*
X146900000Y-67900000D01*
X185000000Y-83095000D02*
X185000000Y-76000000D01*
X179941000Y-70941000D02*
X149941000Y-70941000D01*
X146900000Y-67900000D02*
X146900000Y-63592000D01*
%TO.N,/S_ESC_Right_3*%
X213100000Y-96408000D02*
X213100000Y-92100000D01*
X210000000Y-89000000D02*
X193445000Y-89000000D01*
X213100000Y-92100000D02*
X210000000Y-89000000D01*
X193445000Y-89000000D02*
X189525000Y-85080000D01*
%TD*%
%TA.AperFunction,Conductor*%
%TO.N,/GND*%
G36*
X219442539Y-60520185D02*
G01*
X219488294Y-60572989D01*
X219499500Y-60624500D01*
X219499500Y-75072763D01*
X219479815Y-75139802D01*
X219427011Y-75185557D01*
X219357853Y-75195501D01*
X219294297Y-75166476D01*
X219259318Y-75116096D01*
X219233797Y-75047671D01*
X219233793Y-75047664D01*
X219147547Y-74932455D01*
X219147544Y-74932452D01*
X219032335Y-74846206D01*
X219032328Y-74846202D01*
X218897482Y-74795908D01*
X218897483Y-74795908D01*
X218837883Y-74789501D01*
X218837881Y-74789500D01*
X218837873Y-74789500D01*
X218837864Y-74789500D01*
X216742129Y-74789500D01*
X216742123Y-74789501D01*
X216682516Y-74795908D01*
X216547671Y-74846202D01*
X216547664Y-74846206D01*
X216432455Y-74932452D01*
X216432452Y-74932455D01*
X216346206Y-75047664D01*
X216346202Y-75047671D01*
X216295908Y-75182517D01*
X216289501Y-75242116D01*
X216289500Y-75242135D01*
X216289500Y-77337870D01*
X216289501Y-77337876D01*
X216295908Y-77397483D01*
X216346202Y-77532328D01*
X216346206Y-77532335D01*
X216432452Y-77647544D01*
X216432455Y-77647547D01*
X216547663Y-77733793D01*
X216553929Y-77737214D01*
X216603335Y-77786619D01*
X216618187Y-77854892D01*
X216593771Y-77920357D01*
X216589127Y-77926186D01*
X216564638Y-77955101D01*
X216564627Y-77955115D01*
X216437343Y-78168727D01*
X216437343Y-78168728D01*
X216346953Y-78400374D01*
X216346950Y-78400384D01*
X216295919Y-78643761D01*
X216295918Y-78643764D01*
X216289500Y-78747149D01*
X216289500Y-78912850D01*
X216295918Y-79016235D01*
X216295919Y-79016238D01*
X216346950Y-79259615D01*
X216346953Y-79259625D01*
X216437342Y-79491269D01*
X216437344Y-79491273D01*
X216503268Y-79601908D01*
X216564639Y-79704902D01*
X216725348Y-79894649D01*
X216725350Y-79894651D01*
X216856084Y-80005378D01*
X216894519Y-80063727D01*
X216895306Y-80133592D01*
X216858197Y-80192792D01*
X216856084Y-80194622D01*
X216725350Y-80305348D01*
X216725348Y-80305350D01*
X216564639Y-80495097D01*
X216437342Y-80708730D01*
X216346953Y-80940374D01*
X216346950Y-80940384D01*
X216295919Y-81183761D01*
X216295918Y-81183764D01*
X216289500Y-81287149D01*
X216289500Y-81452850D01*
X216295918Y-81556235D01*
X216295919Y-81556238D01*
X216346950Y-81799615D01*
X216346953Y-81799625D01*
X216437342Y-82031269D01*
X216437344Y-82031273D01*
X216441729Y-82038632D01*
X216564639Y-82244902D01*
X216725348Y-82434649D01*
X216725350Y-82434651D01*
X216856084Y-82545378D01*
X216894519Y-82603727D01*
X216895306Y-82673592D01*
X216858197Y-82732792D01*
X216856084Y-82734622D01*
X216725350Y-82845348D01*
X216725348Y-82845350D01*
X216564639Y-83035097D01*
X216437342Y-83248730D01*
X216346953Y-83480374D01*
X216346950Y-83480384D01*
X216295919Y-83723761D01*
X216295918Y-83723764D01*
X216289500Y-83827149D01*
X216289500Y-83992850D01*
X216295918Y-84096235D01*
X216295919Y-84096238D01*
X216346950Y-84339615D01*
X216346953Y-84339625D01*
X216437342Y-84571269D01*
X216437344Y-84571273D01*
X216519192Y-84708632D01*
X216564639Y-84784902D01*
X216725348Y-84974649D01*
X216725350Y-84974651D01*
X216915097Y-85135360D01*
X216915103Y-85135363D01*
X216915106Y-85135366D01*
X217128727Y-85262656D01*
X217128730Y-85262657D01*
X217360374Y-85353046D01*
X217360381Y-85353048D01*
X217360386Y-85353050D01*
X217603763Y-85404081D01*
X217707158Y-85410500D01*
X217707169Y-85410500D01*
X217872831Y-85410500D01*
X217872842Y-85410500D01*
X217976237Y-85404081D01*
X218219614Y-85353050D01*
X218219621Y-85353046D01*
X218219625Y-85353046D01*
X218298980Y-85322080D01*
X218451273Y-85262656D01*
X218664894Y-85135366D01*
X218664898Y-85135361D01*
X218664902Y-85135360D01*
X218854649Y-84974651D01*
X218854651Y-84974649D01*
X219015360Y-84784902D01*
X219015361Y-84784898D01*
X219015366Y-84784894D01*
X219142656Y-84571273D01*
X219202080Y-84418980D01*
X219233046Y-84339625D01*
X219233046Y-84339621D01*
X219233050Y-84339614D01*
X219254139Y-84239032D01*
X219287162Y-84177461D01*
X219348232Y-84143516D01*
X219417959Y-84147977D01*
X219474206Y-84189427D01*
X219499114Y-84254706D01*
X219499500Y-84264481D01*
X219499500Y-99375500D01*
X219479815Y-99442539D01*
X219427011Y-99488294D01*
X219375500Y-99499500D01*
X140624500Y-99499500D01*
X140557461Y-99479815D01*
X140511706Y-99427011D01*
X140500500Y-99375500D01*
X140500500Y-94602135D01*
X147899500Y-94602135D01*
X147899500Y-96197870D01*
X147899501Y-96197876D01*
X147905908Y-96257483D01*
X147956202Y-96392328D01*
X147956206Y-96392335D01*
X148042452Y-96507544D01*
X148042455Y-96507547D01*
X148157664Y-96593793D01*
X148157671Y-96593797D01*
X148292517Y-96644091D01*
X148292516Y-96644091D01*
X148299444Y-96644835D01*
X148352127Y-96650500D01*
X150947872Y-96650499D01*
X151007483Y-96644091D01*
X151142331Y-96593796D01*
X151257546Y-96507546D01*
X151343796Y-96392331D01*
X151394091Y-96257483D01*
X151400500Y-96197873D01*
X151400499Y-94734298D01*
X160899500Y-94734298D01*
X160899500Y-96065701D01*
X160902401Y-96102567D01*
X160902402Y-96102573D01*
X160948254Y-96260393D01*
X160948255Y-96260396D01*
X161031917Y-96401862D01*
X161031923Y-96401870D01*
X161148129Y-96518076D01*
X161148133Y-96518079D01*
X161148135Y-96518081D01*
X161289602Y-96601744D01*
X161331224Y-96613836D01*
X161447426Y-96647597D01*
X161447429Y-96647597D01*
X161447431Y-96647598D01*
X161484306Y-96650500D01*
X161484314Y-96650500D01*
X163815686Y-96650500D01*
X163815694Y-96650500D01*
X163852569Y-96647598D01*
X163852571Y-96647597D01*
X163852573Y-96647597D01*
X163894191Y-96635505D01*
X164010398Y-96601744D01*
X164151865Y-96518081D01*
X164268081Y-96401865D01*
X164351744Y-96260398D01*
X164397598Y-96102569D01*
X164400500Y-96065694D01*
X164400500Y-95137648D01*
X172984500Y-95137648D01*
X172984500Y-95342352D01*
X172987316Y-95360129D01*
X173016522Y-95544534D01*
X173079781Y-95739223D01*
X173172715Y-95921613D01*
X173293028Y-96087213D01*
X173437786Y-96231971D01*
X173592749Y-96344556D01*
X173603390Y-96352287D01*
X173700692Y-96401865D01*
X173785776Y-96445218D01*
X173785778Y-96445218D01*
X173785781Y-96445220D01*
X173890137Y-96479127D01*
X173980465Y-96508477D01*
X174081557Y-96524488D01*
X174182648Y-96540500D01*
X174182649Y-96540500D01*
X174387351Y-96540500D01*
X174387352Y-96540500D01*
X174589534Y-96508477D01*
X174784219Y-96445220D01*
X174966610Y-96352287D01*
X175059590Y-96284732D01*
X175132213Y-96231971D01*
X175132215Y-96231968D01*
X175132219Y-96231966D01*
X175276966Y-96087219D01*
X175276968Y-96087215D01*
X175276971Y-96087213D01*
X175329732Y-96014590D01*
X175397287Y-95921610D01*
X175490220Y-95739219D01*
X175553477Y-95544534D01*
X175585500Y-95342352D01*
X175585500Y-95296635D01*
X206329500Y-95296635D01*
X206329500Y-97392370D01*
X206329501Y-97392376D01*
X206335908Y-97451983D01*
X206386202Y-97586828D01*
X206386206Y-97586835D01*
X206472452Y-97702044D01*
X206472455Y-97702047D01*
X206587664Y-97788293D01*
X206587671Y-97788297D01*
X206722517Y-97838591D01*
X206722516Y-97838591D01*
X206729444Y-97839335D01*
X206782127Y-97845000D01*
X208877872Y-97844999D01*
X208937483Y-97838591D01*
X209072331Y-97788296D01*
X209187546Y-97702046D01*
X209273796Y-97586831D01*
X209324091Y-97451983D01*
X209330500Y-97392373D01*
X209330499Y-95296628D01*
X209324091Y-95237017D01*
X209273796Y-95102169D01*
X209273795Y-95102168D01*
X209273793Y-95102164D01*
X209187547Y-94986955D01*
X209187544Y-94986952D01*
X209072335Y-94900706D01*
X209072328Y-94900702D01*
X208937482Y-94850408D01*
X208937483Y-94850408D01*
X208877883Y-94844001D01*
X208877881Y-94844000D01*
X208877873Y-94844000D01*
X208877864Y-94844000D01*
X206782129Y-94844000D01*
X206782123Y-94844001D01*
X206722516Y-94850408D01*
X206587671Y-94900702D01*
X206587664Y-94900706D01*
X206472455Y-94986952D01*
X206472452Y-94986955D01*
X206386206Y-95102164D01*
X206386202Y-95102171D01*
X206335908Y-95237017D01*
X206329501Y-95296616D01*
X206329501Y-95296623D01*
X206329500Y-95296635D01*
X175585500Y-95296635D01*
X175585500Y-95137648D01*
X175558029Y-94964204D01*
X175553477Y-94935465D01*
X175490218Y-94740776D01*
X175419573Y-94602129D01*
X175397287Y-94558390D01*
X175383637Y-94539602D01*
X175276971Y-94392786D01*
X175132213Y-94248028D01*
X174966613Y-94127715D01*
X174966612Y-94127714D01*
X174966610Y-94127713D01*
X174909653Y-94098691D01*
X174784223Y-94034781D01*
X174589534Y-93971522D01*
X174414995Y-93943878D01*
X174387352Y-93939500D01*
X174182648Y-93939500D01*
X174158329Y-93943351D01*
X173980465Y-93971522D01*
X173785776Y-94034781D01*
X173603386Y-94127715D01*
X173437786Y-94248028D01*
X173293028Y-94392786D01*
X173172715Y-94558386D01*
X173079781Y-94740776D01*
X173016522Y-94935465D01*
X172998310Y-95050454D01*
X172984500Y-95137648D01*
X164400500Y-95137648D01*
X164400500Y-94734306D01*
X164397598Y-94697431D01*
X164351744Y-94539602D01*
X164268081Y-94398135D01*
X164268079Y-94398133D01*
X164268076Y-94398129D01*
X164151870Y-94281923D01*
X164151862Y-94281917D01*
X164010396Y-94198255D01*
X164010393Y-94198254D01*
X163852573Y-94152402D01*
X163852567Y-94152401D01*
X163815701Y-94149500D01*
X163815694Y-94149500D01*
X161484306Y-94149500D01*
X161484298Y-94149500D01*
X161447432Y-94152401D01*
X161447426Y-94152402D01*
X161289606Y-94198254D01*
X161289603Y-94198255D01*
X161148137Y-94281917D01*
X161148129Y-94281923D01*
X161031923Y-94398129D01*
X161031917Y-94398137D01*
X160948255Y-94539603D01*
X160948254Y-94539606D01*
X160902402Y-94697426D01*
X160902401Y-94697432D01*
X160899500Y-94734298D01*
X151400499Y-94734298D01*
X151400499Y-94602128D01*
X151394091Y-94542517D01*
X151393005Y-94539606D01*
X151343797Y-94407671D01*
X151343793Y-94407664D01*
X151257547Y-94292455D01*
X151257544Y-94292452D01*
X151142335Y-94206206D01*
X151142328Y-94206202D01*
X151007482Y-94155908D01*
X151007483Y-94155908D01*
X150947883Y-94149501D01*
X150947881Y-94149500D01*
X150947873Y-94149500D01*
X150947864Y-94149500D01*
X148352129Y-94149500D01*
X148352123Y-94149501D01*
X148292516Y-94155908D01*
X148157671Y-94206202D01*
X148157664Y-94206206D01*
X148042455Y-94292452D01*
X148042452Y-94292455D01*
X147956206Y-94407664D01*
X147956202Y-94407671D01*
X147905908Y-94542517D01*
X147904202Y-94558390D01*
X147899501Y-94602123D01*
X147899500Y-94602135D01*
X140500500Y-94602135D01*
X140500500Y-62544135D01*
X145399500Y-62544135D01*
X145399500Y-64639870D01*
X145399501Y-64639876D01*
X145405908Y-64699483D01*
X145456202Y-64834328D01*
X145456206Y-64834335D01*
X145542452Y-64949544D01*
X145542455Y-64949547D01*
X145657664Y-65035793D01*
X145657671Y-65035797D01*
X145702618Y-65052561D01*
X145792517Y-65086091D01*
X145852127Y-65092500D01*
X146175500Y-65092499D01*
X146242539Y-65112183D01*
X146288294Y-65164987D01*
X146299500Y-65216499D01*
X146299500Y-67813330D01*
X146299499Y-67813348D01*
X146299499Y-67979054D01*
X146299498Y-67979054D01*
X146299499Y-67979057D01*
X146340423Y-68131785D01*
X146344038Y-68138047D01*
X146349332Y-68147217D01*
X146349334Y-68147219D01*
X146419477Y-68268712D01*
X146419481Y-68268717D01*
X146538349Y-68387585D01*
X146538355Y-68387590D01*
X149456139Y-71305374D01*
X149456149Y-71305385D01*
X149460479Y-71309715D01*
X149460480Y-71309716D01*
X149572284Y-71421520D01*
X149572286Y-71421521D01*
X149572290Y-71421524D01*
X149709209Y-71500573D01*
X149709216Y-71500577D01*
X149821019Y-71530534D01*
X149861942Y-71541500D01*
X149861943Y-71541500D01*
X173050303Y-71541500D01*
X173117342Y-71561185D01*
X173163097Y-71613989D01*
X173173041Y-71683147D01*
X173160788Y-71721795D01*
X173079781Y-71880776D01*
X173016522Y-72075465D01*
X172984500Y-72277648D01*
X172984500Y-72482351D01*
X173016522Y-72684534D01*
X173079781Y-72879223D01*
X173172715Y-73061613D01*
X173293028Y-73227213D01*
X173437786Y-73371971D01*
X173592749Y-73484556D01*
X173603390Y-73492287D01*
X173694840Y-73538883D01*
X173696080Y-73539515D01*
X173746876Y-73587490D01*
X173763671Y-73655311D01*
X173741134Y-73721446D01*
X173696080Y-73760485D01*
X173603386Y-73807715D01*
X173437786Y-73928028D01*
X173293028Y-74072786D01*
X173172715Y-74238386D01*
X173079781Y-74420776D01*
X173016522Y-74615465D01*
X172984500Y-74817648D01*
X172984500Y-75022351D01*
X173016522Y-75224534D01*
X173079781Y-75419223D01*
X173172715Y-75601613D01*
X173293028Y-75767213D01*
X173437786Y-75911971D01*
X173561878Y-76002127D01*
X173603390Y-76032287D01*
X173682287Y-76072487D01*
X173696080Y-76079515D01*
X173746876Y-76127490D01*
X173763671Y-76195311D01*
X173741134Y-76261446D01*
X173696080Y-76300485D01*
X173603386Y-76347715D01*
X173437786Y-76468028D01*
X173293028Y-76612786D01*
X173172715Y-76778386D01*
X173079781Y-76960776D01*
X173016522Y-77155465D01*
X172984500Y-77357648D01*
X172984500Y-77562351D01*
X173016522Y-77764534D01*
X173079781Y-77959223D01*
X173172715Y-78141613D01*
X173293028Y-78307213D01*
X173437786Y-78451971D01*
X173592749Y-78564556D01*
X173603390Y-78572287D01*
X173670001Y-78606227D01*
X173696080Y-78619515D01*
X173746876Y-78667490D01*
X173763671Y-78735311D01*
X173741134Y-78801446D01*
X173696080Y-78840485D01*
X173603386Y-78887715D01*
X173437786Y-79008028D01*
X173293028Y-79152786D01*
X173172715Y-79318386D01*
X173079781Y-79500776D01*
X173016522Y-79695465D01*
X172984500Y-79897648D01*
X172984500Y-80102351D01*
X173016522Y-80304534D01*
X173079781Y-80499223D01*
X173172715Y-80681613D01*
X173293028Y-80847213D01*
X173437786Y-80991971D01*
X173586462Y-81099988D01*
X173603390Y-81112287D01*
X173672831Y-81147669D01*
X173696080Y-81159515D01*
X173746876Y-81207490D01*
X173763671Y-81275311D01*
X173741134Y-81341446D01*
X173696080Y-81380485D01*
X173603386Y-81427715D01*
X173437786Y-81548028D01*
X173293028Y-81692786D01*
X173172715Y-81858386D01*
X173079781Y-82040776D01*
X173016522Y-82235465D01*
X172984500Y-82437648D01*
X172984500Y-82642351D01*
X173016522Y-82844534D01*
X173079781Y-83039223D01*
X173143691Y-83164653D01*
X173148483Y-83174057D01*
X173172715Y-83221613D01*
X173293028Y-83387213D01*
X173437786Y-83531971D01*
X173575927Y-83632334D01*
X173603390Y-83652287D01*
X173694840Y-83698883D01*
X173696080Y-83699515D01*
X173746876Y-83747490D01*
X173763671Y-83815311D01*
X173741134Y-83881446D01*
X173696080Y-83920485D01*
X173603386Y-83967715D01*
X173437786Y-84088028D01*
X173293028Y-84232786D01*
X173172715Y-84398386D01*
X173079781Y-84580776D01*
X173016522Y-84775465D01*
X172984500Y-84977648D01*
X172984500Y-85182351D01*
X173016522Y-85384534D01*
X173079781Y-85579223D01*
X173172715Y-85761613D01*
X173293028Y-85927213D01*
X173437786Y-86071971D01*
X173569250Y-86167483D01*
X173603390Y-86192287D01*
X173694840Y-86238883D01*
X173696080Y-86239515D01*
X173746876Y-86287490D01*
X173763671Y-86355311D01*
X173741134Y-86421446D01*
X173696080Y-86460485D01*
X173603386Y-86507715D01*
X173437786Y-86628028D01*
X173293028Y-86772786D01*
X173172715Y-86938386D01*
X173079781Y-87120776D01*
X173016522Y-87315465D01*
X172984500Y-87517648D01*
X172984500Y-87722351D01*
X173016522Y-87924534D01*
X173079781Y-88119223D01*
X173172715Y-88301613D01*
X173293028Y-88467213D01*
X173437786Y-88611971D01*
X173592749Y-88724556D01*
X173603390Y-88732287D01*
X173694840Y-88778883D01*
X173696080Y-88779515D01*
X173746876Y-88827490D01*
X173763671Y-88895311D01*
X173741134Y-88961446D01*
X173696080Y-89000485D01*
X173603386Y-89047715D01*
X173437786Y-89168028D01*
X173293030Y-89312784D01*
X173223575Y-89408384D01*
X173168245Y-89451051D01*
X173123256Y-89459500D01*
X169501519Y-89459500D01*
X169434480Y-89439815D01*
X169413838Y-89423181D01*
X167536819Y-87546162D01*
X167503334Y-87484839D01*
X167500500Y-87458481D01*
X167500500Y-86463115D01*
X167520185Y-86396076D01*
X167568205Y-86352630D01*
X167586433Y-86343343D01*
X167777510Y-86204517D01*
X167944517Y-86037510D01*
X168083343Y-85846433D01*
X168190568Y-85635992D01*
X168263553Y-85411368D01*
X168283774Y-85283697D01*
X168300500Y-85178097D01*
X168300500Y-84941902D01*
X168263553Y-84708631D01*
X168229689Y-84604412D01*
X168190568Y-84484008D01*
X168190566Y-84484005D01*
X168190566Y-84484003D01*
X168116996Y-84339615D01*
X168083343Y-84273567D01*
X167944517Y-84082490D01*
X167777510Y-83915483D01*
X167653406Y-83825316D01*
X167610743Y-83769988D01*
X167604764Y-83700375D01*
X167637370Y-83638580D01*
X167653403Y-83624686D01*
X167777510Y-83534517D01*
X167944517Y-83367510D01*
X168083343Y-83176433D01*
X168190568Y-82965992D01*
X168263553Y-82741368D01*
X168274288Y-82673592D01*
X168300500Y-82508097D01*
X168300500Y-82271902D01*
X168263553Y-82038631D01*
X168229689Y-81934412D01*
X168190568Y-81814008D01*
X168190566Y-81814005D01*
X168190566Y-81814003D01*
X168083342Y-81603566D01*
X168048956Y-81556238D01*
X167944517Y-81412490D01*
X167777510Y-81245483D01*
X167653406Y-81155316D01*
X167610743Y-81099988D01*
X167604764Y-81030375D01*
X167637370Y-80968580D01*
X167653403Y-80954686D01*
X167777510Y-80864517D01*
X167944517Y-80697510D01*
X168083343Y-80506433D01*
X168190568Y-80295992D01*
X168263553Y-80071368D01*
X168264763Y-80063727D01*
X168300500Y-79838097D01*
X168300500Y-79601902D01*
X168263553Y-79368631D01*
X168228131Y-79259614D01*
X168190568Y-79144008D01*
X168190566Y-79144005D01*
X168190566Y-79144003D01*
X168083342Y-78933566D01*
X168050029Y-78887715D01*
X167944517Y-78742490D01*
X167777510Y-78575483D01*
X167653406Y-78485316D01*
X167610743Y-78429988D01*
X167604764Y-78360375D01*
X167637370Y-78298580D01*
X167653403Y-78284686D01*
X167777510Y-78194517D01*
X167944517Y-78027510D01*
X168083343Y-77836433D01*
X168190568Y-77625992D01*
X168263553Y-77401368D01*
X168274936Y-77329500D01*
X168300500Y-77168097D01*
X168300500Y-76931902D01*
X168263553Y-76698631D01*
X168190566Y-76474003D01*
X168134002Y-76362991D01*
X168083343Y-76263567D01*
X167944517Y-76072490D01*
X167777510Y-75905483D01*
X167586433Y-75766657D01*
X167375996Y-75659433D01*
X167151368Y-75586446D01*
X166918097Y-75549500D01*
X166918092Y-75549500D01*
X166681908Y-75549500D01*
X166681903Y-75549500D01*
X166448631Y-75586446D01*
X166224003Y-75659433D01*
X166013563Y-75766659D01*
X165917841Y-75836205D01*
X165852035Y-75859685D01*
X165783981Y-75843859D01*
X165745690Y-75810198D01*
X165657547Y-75692455D01*
X165657544Y-75692452D01*
X165542335Y-75606206D01*
X165542328Y-75606202D01*
X165407482Y-75555908D01*
X165407483Y-75555908D01*
X165347883Y-75549501D01*
X165347881Y-75549500D01*
X165347873Y-75549500D01*
X165347864Y-75549500D01*
X163252129Y-75549500D01*
X163252123Y-75549501D01*
X163192516Y-75555908D01*
X163057671Y-75606202D01*
X163057664Y-75606206D01*
X162942455Y-75692452D01*
X162942452Y-75692455D01*
X162856206Y-75807664D01*
X162856202Y-75807671D01*
X162805908Y-75942517D01*
X162799501Y-76002116D01*
X162799500Y-76002135D01*
X162799500Y-78097870D01*
X162799501Y-78097876D01*
X162805908Y-78157483D01*
X162856202Y-78292328D01*
X162856205Y-78292334D01*
X162869947Y-78310691D01*
X162894363Y-78376156D01*
X162879510Y-78444429D01*
X162869947Y-78459309D01*
X162856205Y-78477665D01*
X162856202Y-78477671D01*
X162805908Y-78612517D01*
X162799501Y-78672116D01*
X162799500Y-78672135D01*
X162799500Y-80767870D01*
X162799501Y-80767876D01*
X162805908Y-80827483D01*
X162856202Y-80962328D01*
X162856205Y-80962334D01*
X162869947Y-80980691D01*
X162894363Y-81046156D01*
X162879510Y-81114429D01*
X162869947Y-81129309D01*
X162856205Y-81147665D01*
X162856202Y-81147671D01*
X162805908Y-81282517D01*
X162799501Y-81342116D01*
X162799500Y-81342135D01*
X162799500Y-83437870D01*
X162799501Y-83437876D01*
X162805908Y-83497483D01*
X162856202Y-83632328D01*
X162856205Y-83632334D01*
X162869947Y-83650691D01*
X162894363Y-83716156D01*
X162879510Y-83784429D01*
X162869947Y-83799309D01*
X162856205Y-83817665D01*
X162856202Y-83817671D01*
X162805908Y-83952517D01*
X162799501Y-84012116D01*
X162799500Y-84012135D01*
X162799500Y-86107870D01*
X162799501Y-86107876D01*
X162805908Y-86167483D01*
X162856202Y-86302328D01*
X162856206Y-86302335D01*
X162942452Y-86417544D01*
X162942455Y-86417547D01*
X163057664Y-86503793D01*
X163057671Y-86503797D01*
X163192517Y-86554091D01*
X163192516Y-86554091D01*
X163199444Y-86554835D01*
X163252127Y-86560500D01*
X165347872Y-86560499D01*
X165407483Y-86554091D01*
X165542331Y-86503796D01*
X165657546Y-86417546D01*
X165743796Y-86302331D01*
X165743796Y-86302328D01*
X165745689Y-86299801D01*
X165750720Y-86296034D01*
X165753486Y-86290391D01*
X165778352Y-86275349D01*
X165801623Y-86257930D01*
X165807892Y-86257481D01*
X165813270Y-86254229D01*
X165842322Y-86255019D01*
X165871315Y-86252946D01*
X165878416Y-86256001D01*
X165883113Y-86256129D01*
X165907254Y-86268408D01*
X165914807Y-86271658D01*
X165916338Y-86272702D01*
X166013567Y-86343343D01*
X166038830Y-86356215D01*
X166045351Y-86360661D01*
X166062697Y-86381815D01*
X166082590Y-86400603D01*
X166084799Y-86408770D01*
X166089653Y-86414690D01*
X166092099Y-86435757D01*
X166099500Y-86463115D01*
X166099500Y-87731006D01*
X166099500Y-87868994D01*
X166099500Y-87868996D01*
X166099499Y-87868996D01*
X166126418Y-88004322D01*
X166126421Y-88004332D01*
X166179222Y-88131807D01*
X166255887Y-88246545D01*
X168713454Y-90704112D01*
X168828192Y-90780777D01*
X168955667Y-90833578D01*
X168955672Y-90833580D01*
X168955676Y-90833580D01*
X168955677Y-90833581D01*
X169091003Y-90860500D01*
X169091006Y-90860500D01*
X169091007Y-90860500D01*
X173123256Y-90860500D01*
X173190295Y-90880185D01*
X173223575Y-90911616D01*
X173293030Y-91007215D01*
X173437786Y-91151971D01*
X173592749Y-91264556D01*
X173603390Y-91272287D01*
X173696080Y-91319515D01*
X173785776Y-91365218D01*
X173785778Y-91365218D01*
X173785781Y-91365220D01*
X173890137Y-91399127D01*
X173980465Y-91428477D01*
X173999697Y-91431523D01*
X174182648Y-91460500D01*
X174182649Y-91460500D01*
X174387351Y-91460500D01*
X174387352Y-91460500D01*
X174589534Y-91428477D01*
X174784219Y-91365220D01*
X174966610Y-91272287D01*
X175059590Y-91204732D01*
X175132213Y-91151971D01*
X175132215Y-91151968D01*
X175132219Y-91151966D01*
X175276966Y-91007219D01*
X175276968Y-91007215D01*
X175276971Y-91007213D01*
X175346425Y-90911616D01*
X175397287Y-90841610D01*
X175490220Y-90659219D01*
X175553477Y-90464534D01*
X175585500Y-90262352D01*
X175585500Y-90057648D01*
X175553477Y-89855466D01*
X175490220Y-89660781D01*
X175490218Y-89660778D01*
X175490218Y-89660776D01*
X175423909Y-89530639D01*
X175397287Y-89478390D01*
X175357176Y-89423181D01*
X175276971Y-89312786D01*
X175132213Y-89168028D01*
X174966614Y-89047715D01*
X174960006Y-89044348D01*
X174873917Y-89000483D01*
X174823123Y-88952511D01*
X174806328Y-88884690D01*
X174828865Y-88818555D01*
X174873917Y-88779516D01*
X174966610Y-88732287D01*
X174987770Y-88716913D01*
X175132213Y-88611971D01*
X175132215Y-88611968D01*
X175132219Y-88611966D01*
X175276966Y-88467219D01*
X175276968Y-88467215D01*
X175276971Y-88467213D01*
X175352553Y-88363181D01*
X175397287Y-88301610D01*
X175490220Y-88119219D01*
X175553477Y-87924534D01*
X175585500Y-87722352D01*
X175585500Y-87517648D01*
X175584264Y-87509843D01*
X175553477Y-87315465D01*
X175490218Y-87120776D01*
X175456503Y-87054607D01*
X175397287Y-86938390D01*
X175389556Y-86927749D01*
X175276971Y-86772786D01*
X175132213Y-86628028D01*
X174966614Y-86507715D01*
X174958917Y-86503793D01*
X174873917Y-86460483D01*
X174823123Y-86412511D01*
X174806328Y-86344690D01*
X174828865Y-86278555D01*
X174873917Y-86239516D01*
X174966610Y-86192287D01*
X175082793Y-86107876D01*
X175132213Y-86071971D01*
X175132215Y-86071968D01*
X175132219Y-86071966D01*
X175276966Y-85927219D01*
X175276968Y-85927215D01*
X175276971Y-85927213D01*
X175335660Y-85846433D01*
X175397287Y-85761610D01*
X175490220Y-85579219D01*
X175553477Y-85384534D01*
X175585500Y-85182352D01*
X175585500Y-84977648D01*
X175553477Y-84775466D01*
X175490220Y-84580781D01*
X175490218Y-84580778D01*
X175490218Y-84580776D01*
X175456503Y-84514607D01*
X175397287Y-84398390D01*
X175389556Y-84387749D01*
X175276971Y-84232786D01*
X175132213Y-84088028D01*
X174966614Y-83967715D01*
X174924441Y-83946227D01*
X174873917Y-83920483D01*
X174823123Y-83872511D01*
X174806328Y-83804690D01*
X174828865Y-83738555D01*
X174873917Y-83699516D01*
X174966610Y-83652287D01*
X175051718Y-83590453D01*
X175132213Y-83531971D01*
X175132215Y-83531968D01*
X175132219Y-83531966D01*
X175276966Y-83387219D01*
X175276968Y-83387215D01*
X175276971Y-83387213D01*
X175377583Y-83248730D01*
X175397287Y-83221610D01*
X175490220Y-83039219D01*
X175553477Y-82844534D01*
X175585500Y-82642352D01*
X175585500Y-82437648D01*
X175553477Y-82235466D01*
X175490220Y-82040781D01*
X175490218Y-82040778D01*
X175490218Y-82040776D01*
X175456503Y-81974607D01*
X175397287Y-81858390D01*
X175365042Y-81814008D01*
X175276971Y-81692786D01*
X175132213Y-81548028D01*
X174966614Y-81427715D01*
X174936727Y-81412487D01*
X174873917Y-81380483D01*
X174823123Y-81332511D01*
X174806328Y-81264690D01*
X174828865Y-81198555D01*
X174873917Y-81159516D01*
X174966610Y-81112287D01*
X175034626Y-81062871D01*
X175132213Y-80991971D01*
X175132215Y-80991968D01*
X175132219Y-80991966D01*
X175276966Y-80847219D01*
X175276968Y-80847215D01*
X175276971Y-80847213D01*
X175377583Y-80708730D01*
X175397287Y-80681610D01*
X175490220Y-80499219D01*
X175553477Y-80304534D01*
X175585500Y-80102352D01*
X175585500Y-79897648D01*
X175553477Y-79695466D01*
X175490220Y-79500781D01*
X175490218Y-79500778D01*
X175490218Y-79500776D01*
X175456503Y-79434607D01*
X175397287Y-79318390D01*
X175389556Y-79307749D01*
X175276971Y-79152786D01*
X175132213Y-79008028D01*
X174966614Y-78887715D01*
X174903822Y-78855721D01*
X174873917Y-78840483D01*
X174823123Y-78792511D01*
X174806328Y-78724690D01*
X174828865Y-78658555D01*
X174873917Y-78619516D01*
X174966610Y-78572287D01*
X175051718Y-78510453D01*
X175132213Y-78451971D01*
X175132215Y-78451968D01*
X175132219Y-78451966D01*
X175276966Y-78307219D01*
X175276968Y-78307215D01*
X175276971Y-78307213D01*
X175377583Y-78168730D01*
X175397287Y-78141610D01*
X175490220Y-77959219D01*
X175553477Y-77764534D01*
X175585500Y-77562352D01*
X175585500Y-77357648D01*
X175553477Y-77155466D01*
X175490220Y-76960781D01*
X175490218Y-76960778D01*
X175490218Y-76960776D01*
X175456503Y-76894607D01*
X175397287Y-76778390D01*
X175389556Y-76767749D01*
X175276971Y-76612786D01*
X175132213Y-76468028D01*
X174966614Y-76347715D01*
X174960006Y-76344348D01*
X174873917Y-76300483D01*
X174823123Y-76252511D01*
X174806328Y-76184690D01*
X174828865Y-76118555D01*
X174873917Y-76079516D01*
X174966610Y-76032287D01*
X175090169Y-75942517D01*
X175132213Y-75911971D01*
X175132215Y-75911968D01*
X175132219Y-75911966D01*
X175276966Y-75767219D01*
X175276968Y-75767215D01*
X175276971Y-75767213D01*
X175331285Y-75692455D01*
X175397287Y-75601610D01*
X175490220Y-75419219D01*
X175553477Y-75224534D01*
X175585500Y-75022352D01*
X175585500Y-74817648D01*
X175553477Y-74615466D01*
X175490220Y-74420781D01*
X175490218Y-74420778D01*
X175490218Y-74420776D01*
X175456503Y-74354607D01*
X175397287Y-74238390D01*
X175389556Y-74227749D01*
X175276971Y-74072786D01*
X175132213Y-73928028D01*
X174966614Y-73807715D01*
X174960006Y-73804348D01*
X174873917Y-73760483D01*
X174823123Y-73712511D01*
X174806328Y-73644690D01*
X174828865Y-73578555D01*
X174873917Y-73539516D01*
X174966610Y-73492287D01*
X174987770Y-73476913D01*
X175132213Y-73371971D01*
X175132215Y-73371968D01*
X175132219Y-73371966D01*
X175276966Y-73227219D01*
X175276968Y-73227215D01*
X175276971Y-73227213D01*
X175329732Y-73154590D01*
X175397287Y-73061610D01*
X175490220Y-72879219D01*
X175553477Y-72684534D01*
X175585500Y-72482352D01*
X175585500Y-72277648D01*
X175553477Y-72075466D01*
X175490220Y-71880781D01*
X175490218Y-71880778D01*
X175490218Y-71880776D01*
X175409212Y-71721795D01*
X175396316Y-71653126D01*
X175422592Y-71588386D01*
X175479698Y-71548128D01*
X175519697Y-71541500D01*
X179640903Y-71541500D01*
X179707942Y-71561185D01*
X179728584Y-71577819D01*
X184363181Y-76212416D01*
X184396666Y-76273739D01*
X184399500Y-76300097D01*
X184399500Y-83008330D01*
X184399499Y-83008348D01*
X184399499Y-83174054D01*
X184399498Y-83174054D01*
X184440424Y-83326789D01*
X184440425Y-83326790D01*
X184457276Y-83355976D01*
X184457277Y-83355977D01*
X184519477Y-83463712D01*
X184519481Y-83463717D01*
X184638349Y-83582585D01*
X184638355Y-83582590D01*
X188230922Y-87175157D01*
X188264407Y-87236480D01*
X188261173Y-87301155D01*
X188256522Y-87315468D01*
X188224500Y-87517648D01*
X188224500Y-87722351D01*
X188256522Y-87924534D01*
X188319781Y-88119223D01*
X188412715Y-88301613D01*
X188533028Y-88467213D01*
X188677786Y-88611971D01*
X188832749Y-88724556D01*
X188843390Y-88732287D01*
X188934840Y-88778883D01*
X188936080Y-88779515D01*
X188986876Y-88827490D01*
X189003671Y-88895311D01*
X188981134Y-88961446D01*
X188936080Y-89000485D01*
X188843386Y-89047715D01*
X188677786Y-89168028D01*
X188533028Y-89312786D01*
X188412715Y-89478386D01*
X188319781Y-89660776D01*
X188256522Y-89855465D01*
X188224500Y-90057648D01*
X188224500Y-90262351D01*
X188256522Y-90464534D01*
X188319781Y-90659223D01*
X188342655Y-90704114D01*
X188408620Y-90833578D01*
X188412715Y-90841613D01*
X188533028Y-91007213D01*
X188677786Y-91151971D01*
X188832749Y-91264556D01*
X188843390Y-91272287D01*
X188934840Y-91318883D01*
X188936080Y-91319515D01*
X188986876Y-91367490D01*
X189003671Y-91435311D01*
X188981134Y-91501446D01*
X188936080Y-91540485D01*
X188843386Y-91587715D01*
X188677786Y-91708028D01*
X188533028Y-91852786D01*
X188412715Y-92018386D01*
X188319781Y-92200776D01*
X188256522Y-92395465D01*
X188224500Y-92597648D01*
X188224500Y-92802351D01*
X188256522Y-93004534D01*
X188319781Y-93199223D01*
X188412715Y-93381613D01*
X188533028Y-93547213D01*
X188677786Y-93691971D01*
X188832749Y-93804556D01*
X188843390Y-93812287D01*
X188959607Y-93871503D01*
X189025776Y-93905218D01*
X189025778Y-93905218D01*
X189025781Y-93905220D01*
X189130137Y-93939127D01*
X189220465Y-93968477D01*
X189239697Y-93971523D01*
X189422648Y-94000500D01*
X189422649Y-94000500D01*
X189627351Y-94000500D01*
X189627352Y-94000500D01*
X189829534Y-93968477D01*
X190024219Y-93905220D01*
X190206610Y-93812287D01*
X190299590Y-93744732D01*
X190372213Y-93691971D01*
X190372215Y-93691968D01*
X190372219Y-93691966D01*
X190516966Y-93547219D01*
X190516968Y-93547215D01*
X190516971Y-93547213D01*
X190569732Y-93474590D01*
X190637287Y-93381610D01*
X190730220Y-93199219D01*
X190793477Y-93004534D01*
X190825500Y-92802352D01*
X190825500Y-92597648D01*
X190793477Y-92395465D01*
X190730218Y-92200776D01*
X190696503Y-92134607D01*
X190637287Y-92018390D01*
X190629556Y-92007749D01*
X190516971Y-91852786D01*
X190372213Y-91708028D01*
X190206614Y-91587715D01*
X190200006Y-91584348D01*
X190113917Y-91540483D01*
X190063123Y-91492511D01*
X190046328Y-91424690D01*
X190068865Y-91358555D01*
X190113917Y-91319516D01*
X190206610Y-91272287D01*
X190227770Y-91256913D01*
X190372213Y-91151971D01*
X190372215Y-91151968D01*
X190372219Y-91151966D01*
X190516966Y-91007219D01*
X190516968Y-91007215D01*
X190516971Y-91007213D01*
X190586425Y-90911616D01*
X190637287Y-90841610D01*
X190730220Y-90659219D01*
X190793477Y-90464534D01*
X190825500Y-90262352D01*
X190825500Y-90057648D01*
X190793477Y-89855466D01*
X190730220Y-89660781D01*
X190730218Y-89660778D01*
X190730218Y-89660776D01*
X190663909Y-89530639D01*
X190637287Y-89478390D01*
X190597176Y-89423181D01*
X190516971Y-89312786D01*
X190372213Y-89168028D01*
X190206614Y-89047715D01*
X190200006Y-89044348D01*
X190113917Y-89000483D01*
X190063123Y-88952511D01*
X190046328Y-88884690D01*
X190068865Y-88818555D01*
X190113917Y-88779516D01*
X190206610Y-88732287D01*
X190227770Y-88716913D01*
X190372213Y-88611971D01*
X190372215Y-88611968D01*
X190372219Y-88611966D01*
X190516966Y-88467219D01*
X190516968Y-88467215D01*
X190516971Y-88467213D01*
X190592553Y-88363181D01*
X190637287Y-88301610D01*
X190730220Y-88119219D01*
X190793477Y-87924534D01*
X190825500Y-87722352D01*
X190825500Y-87529097D01*
X190845185Y-87462058D01*
X190897989Y-87416303D01*
X190967147Y-87406359D01*
X191030703Y-87435384D01*
X191037181Y-87441416D01*
X192960139Y-89364374D01*
X192960149Y-89364385D01*
X192964479Y-89368715D01*
X192964480Y-89368716D01*
X193076284Y-89480520D01*
X193163095Y-89530639D01*
X193163097Y-89530641D01*
X193201151Y-89552611D01*
X193213215Y-89559577D01*
X193365943Y-89600500D01*
X193524057Y-89600500D01*
X209699903Y-89600500D01*
X209766942Y-89620185D01*
X209787584Y-89636819D01*
X212463181Y-92312416D01*
X212496666Y-92373739D01*
X212499500Y-92400097D01*
X212499500Y-94783500D01*
X212479815Y-94850539D01*
X212427011Y-94896294D01*
X212375500Y-94907500D01*
X212052130Y-94907500D01*
X212052123Y-94907501D01*
X211992516Y-94913908D01*
X211857671Y-94964202D01*
X211857664Y-94964206D01*
X211742455Y-95050452D01*
X211742452Y-95050455D01*
X211656206Y-95165664D01*
X211656202Y-95165671D01*
X211605908Y-95300517D01*
X211601411Y-95342351D01*
X211599501Y-95360123D01*
X211599500Y-95360135D01*
X211599500Y-97455870D01*
X211599501Y-97455876D01*
X211605908Y-97515483D01*
X211656202Y-97650328D01*
X211656206Y-97650335D01*
X211742452Y-97765544D01*
X211742455Y-97765547D01*
X211857664Y-97851793D01*
X211857671Y-97851797D01*
X211992517Y-97902091D01*
X211992516Y-97902091D01*
X211999444Y-97902835D01*
X212052127Y-97908500D01*
X214147872Y-97908499D01*
X214207483Y-97902091D01*
X214342331Y-97851796D01*
X214457546Y-97765546D01*
X214543796Y-97650331D01*
X214594091Y-97515483D01*
X214600500Y-97455873D01*
X214600499Y-95360128D01*
X214594091Y-95300517D01*
X214592640Y-95296628D01*
X214543797Y-95165671D01*
X214543793Y-95165664D01*
X214457547Y-95050455D01*
X214457544Y-95050452D01*
X214342335Y-94964206D01*
X214342328Y-94964202D01*
X214207482Y-94913908D01*
X214207483Y-94913908D01*
X214147883Y-94907501D01*
X214147881Y-94907500D01*
X214147873Y-94907500D01*
X214147865Y-94907500D01*
X213824500Y-94907500D01*
X213757461Y-94887815D01*
X213711706Y-94835011D01*
X213700500Y-94783500D01*
X213700500Y-92189059D01*
X213700501Y-92189046D01*
X213700501Y-92020945D01*
X213700501Y-92020943D01*
X213659577Y-91868215D01*
X213602329Y-91769059D01*
X213580520Y-91731284D01*
X213468716Y-91619480D01*
X213468713Y-91619478D01*
X210487590Y-88638355D01*
X210487588Y-88638352D01*
X210368717Y-88519481D01*
X210368716Y-88519480D01*
X210281904Y-88469360D01*
X210281904Y-88469359D01*
X210281900Y-88469358D01*
X210231785Y-88440423D01*
X210079057Y-88399499D01*
X209920943Y-88399499D01*
X209913347Y-88399499D01*
X209913331Y-88399500D01*
X193745097Y-88399500D01*
X193678058Y-88379815D01*
X193657416Y-88363181D01*
X190819077Y-85524842D01*
X190785592Y-85463519D01*
X190788828Y-85398841D01*
X190793477Y-85384534D01*
X190825500Y-85182352D01*
X190825500Y-84977648D01*
X190793477Y-84775466D01*
X190730220Y-84580781D01*
X190730218Y-84580778D01*
X190730218Y-84580776D01*
X190696503Y-84514607D01*
X190637287Y-84398390D01*
X190629556Y-84387749D01*
X190516971Y-84232786D01*
X190372213Y-84088028D01*
X190206614Y-83967715D01*
X190164441Y-83946227D01*
X190113917Y-83920483D01*
X190063123Y-83872511D01*
X190046328Y-83804690D01*
X190068865Y-83738555D01*
X190113917Y-83699516D01*
X190206610Y-83652287D01*
X190291718Y-83590453D01*
X190372213Y-83531971D01*
X190372215Y-83531968D01*
X190372219Y-83531966D01*
X190516966Y-83387219D01*
X190516968Y-83387215D01*
X190516971Y-83387213D01*
X190617583Y-83248730D01*
X190637287Y-83221610D01*
X190730220Y-83039219D01*
X190793477Y-82844534D01*
X190825500Y-82642352D01*
X190825500Y-82437648D01*
X190793477Y-82235466D01*
X190730220Y-82040781D01*
X190730218Y-82040778D01*
X190730218Y-82040776D01*
X190696503Y-81974607D01*
X190637287Y-81858390D01*
X190605042Y-81814008D01*
X190516971Y-81692786D01*
X190372213Y-81548028D01*
X190206614Y-81427715D01*
X190176727Y-81412487D01*
X190113917Y-81380483D01*
X190063123Y-81332511D01*
X190046328Y-81264690D01*
X190068865Y-81198555D01*
X190113917Y-81159516D01*
X190206610Y-81112287D01*
X190274626Y-81062871D01*
X190372213Y-80991971D01*
X190372215Y-80991968D01*
X190372219Y-80991966D01*
X190516966Y-80847219D01*
X190516968Y-80847215D01*
X190516971Y-80847213D01*
X190617583Y-80708730D01*
X190637287Y-80681610D01*
X190730220Y-80499219D01*
X190793477Y-80304534D01*
X190825500Y-80102352D01*
X190825500Y-79897648D01*
X190793477Y-79695466D01*
X190730220Y-79500781D01*
X190730218Y-79500778D01*
X190730218Y-79500776D01*
X190696503Y-79434607D01*
X190637287Y-79318390D01*
X190629556Y-79307749D01*
X190516971Y-79152786D01*
X190372213Y-79008028D01*
X190206611Y-78887713D01*
X190143822Y-78855721D01*
X190113917Y-78840483D01*
X190063123Y-78792510D01*
X190051890Y-78747149D01*
X198509500Y-78747149D01*
X198509500Y-78912850D01*
X198515918Y-79016235D01*
X198515919Y-79016238D01*
X198566950Y-79259615D01*
X198566953Y-79259625D01*
X198657342Y-79491269D01*
X198657344Y-79491273D01*
X198723268Y-79601908D01*
X198784639Y-79704902D01*
X198945348Y-79894649D01*
X198945350Y-79894651D01*
X199076084Y-80005378D01*
X199114519Y-80063727D01*
X199115306Y-80133592D01*
X199078197Y-80192792D01*
X199076084Y-80194622D01*
X198945350Y-80305348D01*
X198945348Y-80305350D01*
X198784639Y-80495097D01*
X198657342Y-80708730D01*
X198566953Y-80940374D01*
X198566950Y-80940384D01*
X198515919Y-81183761D01*
X198515918Y-81183764D01*
X198509500Y-81287149D01*
X198509500Y-81452850D01*
X198515918Y-81556235D01*
X198515919Y-81556238D01*
X198566950Y-81799615D01*
X198566953Y-81799625D01*
X198657342Y-82031269D01*
X198657344Y-82031273D01*
X198661729Y-82038632D01*
X198784639Y-82244902D01*
X198945348Y-82434649D01*
X198945350Y-82434651D01*
X199076084Y-82545378D01*
X199114519Y-82603727D01*
X199115306Y-82673592D01*
X199078197Y-82732792D01*
X199076084Y-82734622D01*
X198945350Y-82845348D01*
X198945348Y-82845350D01*
X198784639Y-83035097D01*
X198657342Y-83248730D01*
X198566953Y-83480374D01*
X198566950Y-83480384D01*
X198515919Y-83723761D01*
X198515918Y-83723764D01*
X198509500Y-83827149D01*
X198509500Y-83992850D01*
X198515918Y-84096235D01*
X198515919Y-84096238D01*
X198566950Y-84339615D01*
X198566953Y-84339625D01*
X198657342Y-84571269D01*
X198657344Y-84571273D01*
X198739192Y-84708632D01*
X198784639Y-84784902D01*
X198945348Y-84974649D01*
X198945350Y-84974651D01*
X199135097Y-85135360D01*
X199135103Y-85135363D01*
X199135106Y-85135366D01*
X199348727Y-85262656D01*
X199348730Y-85262657D01*
X199580374Y-85353046D01*
X199580381Y-85353048D01*
X199580386Y-85353050D01*
X199823763Y-85404081D01*
X199927158Y-85410500D01*
X199927169Y-85410500D01*
X200092831Y-85410500D01*
X200092842Y-85410500D01*
X200196237Y-85404081D01*
X200439614Y-85353050D01*
X200439621Y-85353046D01*
X200439625Y-85353046D01*
X200518980Y-85322080D01*
X200671273Y-85262656D01*
X200884894Y-85135366D01*
X200884898Y-85135361D01*
X200884902Y-85135360D01*
X201074649Y-84974651D01*
X201074651Y-84974649D01*
X201235360Y-84784902D01*
X201235361Y-84784898D01*
X201235366Y-84784894D01*
X201362656Y-84571273D01*
X201422080Y-84418980D01*
X201453046Y-84339625D01*
X201453046Y-84339621D01*
X201453050Y-84339614D01*
X201504081Y-84096237D01*
X201510500Y-83992842D01*
X201510500Y-83827158D01*
X201504081Y-83723763D01*
X201453050Y-83480386D01*
X201453048Y-83480381D01*
X201453046Y-83480374D01*
X201362657Y-83248730D01*
X201362656Y-83248727D01*
X201235366Y-83035106D01*
X201235363Y-83035103D01*
X201235360Y-83035097D01*
X201074651Y-82845350D01*
X201074650Y-82845349D01*
X200943915Y-82734622D01*
X200905480Y-82676274D01*
X200904693Y-82606409D01*
X200941802Y-82547208D01*
X200943915Y-82545378D01*
X201074650Y-82434650D01*
X201074651Y-82434649D01*
X201235360Y-82244902D01*
X201235361Y-82244898D01*
X201235366Y-82244894D01*
X201362656Y-82031273D01*
X201422080Y-81878980D01*
X201453046Y-81799625D01*
X201453046Y-81799621D01*
X201453050Y-81799614D01*
X201504081Y-81556237D01*
X201510500Y-81452842D01*
X201510500Y-81287158D01*
X201504081Y-81183763D01*
X201453050Y-80940386D01*
X201453048Y-80940381D01*
X201453046Y-80940374D01*
X201362657Y-80708730D01*
X201362656Y-80708727D01*
X201235366Y-80495106D01*
X201235363Y-80495103D01*
X201235360Y-80495097D01*
X201074651Y-80305350D01*
X201074650Y-80305349D01*
X200943915Y-80194622D01*
X200905480Y-80136274D01*
X200904693Y-80066409D01*
X200941802Y-80007208D01*
X200943915Y-80005378D01*
X201074650Y-79894650D01*
X201074651Y-79894649D01*
X201235360Y-79704902D01*
X201235361Y-79704898D01*
X201235366Y-79704894D01*
X201362656Y-79491273D01*
X201422080Y-79338980D01*
X201453046Y-79259625D01*
X201453046Y-79259621D01*
X201453050Y-79259614D01*
X201504081Y-79016237D01*
X201510500Y-78912842D01*
X201510500Y-78747158D01*
X201504081Y-78643763D01*
X201453050Y-78400386D01*
X201453048Y-78400381D01*
X201453046Y-78400374D01*
X201362657Y-78168730D01*
X201362656Y-78168728D01*
X201362656Y-78168727D01*
X201235366Y-77955106D01*
X201235363Y-77955103D01*
X201235360Y-77955097D01*
X201074651Y-77765350D01*
X201074649Y-77765348D01*
X200884902Y-77604639D01*
X200813935Y-77562352D01*
X200671273Y-77477344D01*
X200671271Y-77477343D01*
X200671269Y-77477342D01*
X200439625Y-77386953D01*
X200439615Y-77386950D01*
X200196238Y-77335919D01*
X200196235Y-77335918D01*
X200092850Y-77329500D01*
X200092842Y-77329500D01*
X199927158Y-77329500D01*
X199927149Y-77329500D01*
X199823764Y-77335918D01*
X199823761Y-77335919D01*
X199580384Y-77386950D01*
X199580374Y-77386953D01*
X199348730Y-77477342D01*
X199135097Y-77604639D01*
X198945350Y-77765348D01*
X198945348Y-77765350D01*
X198784639Y-77955097D01*
X198657342Y-78168730D01*
X198566953Y-78400374D01*
X198566950Y-78400384D01*
X198515919Y-78643761D01*
X198515918Y-78643764D01*
X198509500Y-78747149D01*
X190051890Y-78747149D01*
X190046328Y-78724689D01*
X190068866Y-78658554D01*
X190113917Y-78619516D01*
X190206610Y-78572287D01*
X190291718Y-78510453D01*
X190372213Y-78451971D01*
X190372215Y-78451968D01*
X190372219Y-78451966D01*
X190516966Y-78307219D01*
X190516968Y-78307215D01*
X190516971Y-78307213D01*
X190617583Y-78168730D01*
X190637287Y-78141610D01*
X190730220Y-77959219D01*
X190793477Y-77764534D01*
X190825500Y-77562352D01*
X190825500Y-77357648D01*
X190793477Y-77155466D01*
X190730220Y-76960781D01*
X190730218Y-76960778D01*
X190730218Y-76960776D01*
X190696503Y-76894607D01*
X190637287Y-76778390D01*
X190629556Y-76767749D01*
X190516971Y-76612786D01*
X190372213Y-76468028D01*
X190206614Y-76347715D01*
X190200006Y-76344348D01*
X190113917Y-76300483D01*
X190063123Y-76252511D01*
X190046328Y-76184690D01*
X190068865Y-76118555D01*
X190113917Y-76079516D01*
X190206610Y-76032287D01*
X190330169Y-75942517D01*
X190372213Y-75911971D01*
X190372215Y-75911968D01*
X190372219Y-75911966D01*
X190516966Y-75767219D01*
X190516968Y-75767215D01*
X190516971Y-75767213D01*
X190571285Y-75692455D01*
X190637287Y-75601610D01*
X190730220Y-75419219D01*
X190793477Y-75224534D01*
X190825500Y-75022352D01*
X190825500Y-74817648D01*
X190793477Y-74615466D01*
X190730220Y-74420781D01*
X190730218Y-74420778D01*
X190730218Y-74420776D01*
X190696503Y-74354607D01*
X190637287Y-74238390D01*
X190629556Y-74227749D01*
X190516971Y-74072786D01*
X190372213Y-73928028D01*
X190206614Y-73807715D01*
X190200006Y-73804348D01*
X190113917Y-73760483D01*
X190063123Y-73712511D01*
X190046328Y-73644690D01*
X190068865Y-73578555D01*
X190113917Y-73539516D01*
X190206610Y-73492287D01*
X190227770Y-73476913D01*
X190372213Y-73371971D01*
X190372215Y-73371968D01*
X190372219Y-73371966D01*
X190516966Y-73227219D01*
X190516968Y-73227215D01*
X190516971Y-73227213D01*
X190569732Y-73154590D01*
X190637287Y-73061610D01*
X190730220Y-72879219D01*
X190793477Y-72684534D01*
X190825500Y-72482352D01*
X190825500Y-72277648D01*
X190793477Y-72075466D01*
X190730220Y-71880781D01*
X190730218Y-71880778D01*
X190730218Y-71880776D01*
X190649212Y-71721795D01*
X190637287Y-71698390D01*
X190575967Y-71613989D01*
X190516971Y-71532786D01*
X190372213Y-71388028D01*
X190206614Y-71267715D01*
X190200006Y-71264348D01*
X190113917Y-71220483D01*
X190063123Y-71172511D01*
X190046328Y-71104690D01*
X190068865Y-71038555D01*
X190113917Y-70999516D01*
X190206610Y-70952287D01*
X190227770Y-70936913D01*
X190372213Y-70831971D01*
X190372215Y-70831968D01*
X190372219Y-70831966D01*
X190516966Y-70687219D01*
X190516968Y-70687215D01*
X190516971Y-70687213D01*
X190600470Y-70572284D01*
X190637287Y-70521610D01*
X190730220Y-70339219D01*
X190793477Y-70144534D01*
X190825500Y-69942352D01*
X190825500Y-69737648D01*
X190793477Y-69535466D01*
X190730220Y-69340781D01*
X190730218Y-69340778D01*
X190730218Y-69340776D01*
X190696503Y-69274607D01*
X190637287Y-69158390D01*
X190629556Y-69147749D01*
X190516971Y-68992786D01*
X190372213Y-68848028D01*
X190206614Y-68727715D01*
X190200006Y-68724348D01*
X190113917Y-68680483D01*
X190063123Y-68632511D01*
X190046328Y-68564690D01*
X190068865Y-68498555D01*
X190113917Y-68459516D01*
X190206610Y-68412287D01*
X190250334Y-68380520D01*
X190372213Y-68291971D01*
X190372215Y-68291968D01*
X190372219Y-68291966D01*
X190516966Y-68147219D01*
X190516968Y-68147215D01*
X190516971Y-68147213D01*
X190569732Y-68074590D01*
X190637287Y-67981610D01*
X190730220Y-67799219D01*
X190793477Y-67604534D01*
X190825500Y-67402352D01*
X190825500Y-67197648D01*
X190793477Y-66995466D01*
X190730220Y-66800781D01*
X190730218Y-66800778D01*
X190730218Y-66800776D01*
X190696503Y-66734607D01*
X190637287Y-66618390D01*
X190629556Y-66607749D01*
X190516971Y-66452786D01*
X190372213Y-66308028D01*
X190206614Y-66187715D01*
X190200006Y-66184348D01*
X190113917Y-66140483D01*
X190063123Y-66092511D01*
X190046328Y-66024690D01*
X190068865Y-65958555D01*
X190113917Y-65919516D01*
X190206610Y-65872287D01*
X190227770Y-65856913D01*
X190372213Y-65751971D01*
X190372215Y-65751968D01*
X190372219Y-65751966D01*
X190516966Y-65607219D01*
X190516968Y-65607215D01*
X190516971Y-65607213D01*
X190569732Y-65534590D01*
X190637287Y-65441610D01*
X190730220Y-65259219D01*
X190793477Y-65064534D01*
X190825500Y-64862352D01*
X190825500Y-64657648D01*
X190793477Y-64455466D01*
X190730220Y-64260781D01*
X190730218Y-64260778D01*
X190730218Y-64260776D01*
X190696503Y-64194607D01*
X190637287Y-64078390D01*
X190629556Y-64067749D01*
X190516971Y-63912786D01*
X190372213Y-63768028D01*
X190206614Y-63647715D01*
X190200006Y-63644348D01*
X190113917Y-63600483D01*
X190063123Y-63552511D01*
X190046328Y-63484690D01*
X190068865Y-63418555D01*
X190113917Y-63379516D01*
X190206610Y-63332287D01*
X190227770Y-63316913D01*
X190372213Y-63211971D01*
X190372215Y-63211968D01*
X190372219Y-63211966D01*
X190516966Y-63067219D01*
X190516968Y-63067215D01*
X190516971Y-63067213D01*
X190569732Y-62994590D01*
X190637287Y-62901610D01*
X190730220Y-62719219D01*
X190793477Y-62524534D01*
X190810488Y-62417135D01*
X210669500Y-62417135D01*
X210669500Y-64512870D01*
X210669501Y-64512876D01*
X210675908Y-64572483D01*
X210726202Y-64707328D01*
X210726206Y-64707335D01*
X210812452Y-64822544D01*
X210812455Y-64822547D01*
X210927664Y-64908793D01*
X210927671Y-64908797D01*
X211062517Y-64959091D01*
X211062516Y-64959091D01*
X211069444Y-64959835D01*
X211122127Y-64965500D01*
X213217872Y-64965499D01*
X213277483Y-64959091D01*
X213412331Y-64908796D01*
X213527546Y-64822546D01*
X213613796Y-64707331D01*
X213664091Y-64572483D01*
X213670500Y-64512873D01*
X213670499Y-62417128D01*
X213664091Y-62357517D01*
X213650975Y-62322352D01*
X213613797Y-62222671D01*
X213613793Y-62222664D01*
X213527547Y-62107455D01*
X213527544Y-62107452D01*
X213412335Y-62021206D01*
X213412328Y-62021202D01*
X213277482Y-61970908D01*
X213277483Y-61970908D01*
X213217883Y-61964501D01*
X213217881Y-61964500D01*
X213217873Y-61964500D01*
X213217864Y-61964500D01*
X211122129Y-61964500D01*
X211122123Y-61964501D01*
X211062516Y-61970908D01*
X210927671Y-62021202D01*
X210927664Y-62021206D01*
X210812455Y-62107452D01*
X210812452Y-62107455D01*
X210726206Y-62222664D01*
X210726202Y-62222671D01*
X210675908Y-62357517D01*
X210669925Y-62413171D01*
X210669501Y-62417123D01*
X210669500Y-62417135D01*
X190810488Y-62417135D01*
X190825500Y-62322352D01*
X190825500Y-62117648D01*
X190821359Y-62091501D01*
X190793477Y-61915465D01*
X190730218Y-61720776D01*
X190684515Y-61631080D01*
X190637287Y-61538390D01*
X190629556Y-61527749D01*
X190516971Y-61372786D01*
X190372213Y-61228028D01*
X190206613Y-61107715D01*
X190206612Y-61107714D01*
X190206610Y-61107713D01*
X190149653Y-61078691D01*
X190024223Y-61014781D01*
X189829534Y-60951522D01*
X189654995Y-60923878D01*
X189627352Y-60919500D01*
X189422648Y-60919500D01*
X189398329Y-60923351D01*
X189220465Y-60951522D01*
X189025776Y-61014781D01*
X188843386Y-61107715D01*
X188677786Y-61228028D01*
X188533028Y-61372786D01*
X188412715Y-61538386D01*
X188365485Y-61631080D01*
X188317510Y-61681876D01*
X188249689Y-61698671D01*
X188183554Y-61676134D01*
X188144515Y-61631080D01*
X188143883Y-61629840D01*
X188097287Y-61538390D01*
X188089556Y-61527749D01*
X187976971Y-61372786D01*
X187832213Y-61228028D01*
X187666613Y-61107715D01*
X187666612Y-61107714D01*
X187666610Y-61107713D01*
X187609653Y-61078691D01*
X187484223Y-61014781D01*
X187289534Y-60951522D01*
X187114995Y-60923878D01*
X187087352Y-60919500D01*
X186882648Y-60919500D01*
X186858329Y-60923351D01*
X186680465Y-60951522D01*
X186485776Y-61014781D01*
X186303386Y-61107715D01*
X186137786Y-61228028D01*
X185993028Y-61372786D01*
X185872715Y-61538386D01*
X185825485Y-61631080D01*
X185777510Y-61681876D01*
X185709689Y-61698671D01*
X185643554Y-61676134D01*
X185604515Y-61631080D01*
X185603883Y-61629840D01*
X185557287Y-61538390D01*
X185549556Y-61527749D01*
X185436971Y-61372786D01*
X185292213Y-61228028D01*
X185126613Y-61107715D01*
X185126612Y-61107714D01*
X185126610Y-61107713D01*
X185069653Y-61078691D01*
X184944223Y-61014781D01*
X184749534Y-60951522D01*
X184574995Y-60923878D01*
X184547352Y-60919500D01*
X184342648Y-60919500D01*
X184318329Y-60923351D01*
X184140465Y-60951522D01*
X183945776Y-61014781D01*
X183763386Y-61107715D01*
X183597786Y-61228028D01*
X183453028Y-61372786D01*
X183332715Y-61538386D01*
X183239781Y-61720776D01*
X183176522Y-61915465D01*
X183144500Y-62117648D01*
X183144500Y-62322351D01*
X183176522Y-62524534D01*
X183239781Y-62719223D01*
X183332715Y-62901613D01*
X183453028Y-63067213D01*
X183597786Y-63211971D01*
X183752749Y-63324556D01*
X183763390Y-63332287D01*
X183856080Y-63379515D01*
X183945776Y-63425218D01*
X183945778Y-63425218D01*
X183945781Y-63425220D01*
X184050137Y-63459127D01*
X184140465Y-63488477D01*
X184159697Y-63491523D01*
X184342648Y-63520500D01*
X184342649Y-63520500D01*
X184547351Y-63520500D01*
X184547352Y-63520500D01*
X184749534Y-63488477D01*
X184944219Y-63425220D01*
X185126610Y-63332287D01*
X185219590Y-63264732D01*
X185292213Y-63211971D01*
X185292215Y-63211968D01*
X185292219Y-63211966D01*
X185436966Y-63067219D01*
X185436968Y-63067215D01*
X185436971Y-63067213D01*
X185557284Y-62901614D01*
X185557285Y-62901613D01*
X185557287Y-62901610D01*
X185604516Y-62808917D01*
X185652489Y-62758123D01*
X185720310Y-62741328D01*
X185786445Y-62763865D01*
X185825485Y-62808919D01*
X185872715Y-62901614D01*
X185993028Y-63067213D01*
X186137786Y-63211971D01*
X186292749Y-63324556D01*
X186303390Y-63332287D01*
X186396080Y-63379515D01*
X186485776Y-63425218D01*
X186485778Y-63425218D01*
X186485781Y-63425220D01*
X186590137Y-63459127D01*
X186680465Y-63488477D01*
X186699697Y-63491523D01*
X186882648Y-63520500D01*
X186882649Y-63520500D01*
X187087351Y-63520500D01*
X187087352Y-63520500D01*
X187289534Y-63488477D01*
X187484219Y-63425220D01*
X187666610Y-63332287D01*
X187759590Y-63264732D01*
X187832213Y-63211971D01*
X187832215Y-63211968D01*
X187832219Y-63211966D01*
X187976966Y-63067219D01*
X187976968Y-63067215D01*
X187976971Y-63067213D01*
X188097284Y-62901614D01*
X188097285Y-62901613D01*
X188097287Y-62901610D01*
X188144516Y-62808917D01*
X188192489Y-62758123D01*
X188260310Y-62741328D01*
X188326445Y-62763865D01*
X188365485Y-62808919D01*
X188412715Y-62901614D01*
X188533028Y-63067213D01*
X188677786Y-63211971D01*
X188832749Y-63324556D01*
X188843390Y-63332287D01*
X188934840Y-63378883D01*
X188936080Y-63379515D01*
X188986876Y-63427490D01*
X189003671Y-63495311D01*
X188981134Y-63561446D01*
X188936080Y-63600485D01*
X188843386Y-63647715D01*
X188677786Y-63768028D01*
X188533028Y-63912786D01*
X188412715Y-64078386D01*
X188319781Y-64260776D01*
X188256522Y-64455465D01*
X188224500Y-64657648D01*
X188224500Y-64862351D01*
X188256522Y-65064534D01*
X188319781Y-65259223D01*
X188412715Y-65441613D01*
X188533028Y-65607213D01*
X188677786Y-65751971D01*
X188832749Y-65864556D01*
X188843390Y-65872287D01*
X188934840Y-65918883D01*
X188936080Y-65919515D01*
X188986876Y-65967490D01*
X189003671Y-66035311D01*
X188981134Y-66101446D01*
X188936080Y-66140485D01*
X188843386Y-66187715D01*
X188677786Y-66308028D01*
X188533028Y-66452786D01*
X188412715Y-66618386D01*
X188319781Y-66800776D01*
X188256522Y-66995465D01*
X188224500Y-67197648D01*
X188224500Y-67402351D01*
X188256522Y-67604534D01*
X188319781Y-67799223D01*
X188383691Y-67924653D01*
X188411412Y-67979057D01*
X188412715Y-67981613D01*
X188533028Y-68147213D01*
X188677786Y-68291971D01*
X188799666Y-68380520D01*
X188843390Y-68412287D01*
X188934840Y-68458883D01*
X188936080Y-68459515D01*
X188986876Y-68507490D01*
X189003671Y-68575311D01*
X188981134Y-68641446D01*
X188936080Y-68680485D01*
X188843386Y-68727715D01*
X188677786Y-68848028D01*
X188533028Y-68992786D01*
X188412715Y-69158386D01*
X188319781Y-69340776D01*
X188256522Y-69535465D01*
X188224500Y-69737648D01*
X188224500Y-69942351D01*
X188256522Y-70144534D01*
X188319781Y-70339223D01*
X188412715Y-70521613D01*
X188533028Y-70687213D01*
X188677786Y-70831971D01*
X188832749Y-70944556D01*
X188843390Y-70952287D01*
X188934840Y-70998883D01*
X188936080Y-70999515D01*
X188986876Y-71047490D01*
X189003671Y-71115311D01*
X188981134Y-71181446D01*
X188936080Y-71220485D01*
X188843386Y-71267715D01*
X188677786Y-71388028D01*
X188533028Y-71532786D01*
X188412715Y-71698386D01*
X188319781Y-71880776D01*
X188256522Y-72075465D01*
X188224500Y-72277648D01*
X188224500Y-72482351D01*
X188256522Y-72684534D01*
X188319781Y-72879223D01*
X188412715Y-73061613D01*
X188533028Y-73227213D01*
X188677786Y-73371971D01*
X188832749Y-73484556D01*
X188843390Y-73492287D01*
X188934840Y-73538883D01*
X188936080Y-73539515D01*
X188986876Y-73587490D01*
X189003671Y-73655311D01*
X188981134Y-73721446D01*
X188936080Y-73760485D01*
X188843386Y-73807715D01*
X188677786Y-73928028D01*
X188533028Y-74072786D01*
X188412715Y-74238386D01*
X188319781Y-74420776D01*
X188256522Y-74615465D01*
X188224500Y-74817648D01*
X188224500Y-75022351D01*
X188256522Y-75224534D01*
X188319781Y-75419223D01*
X188412715Y-75601613D01*
X188533028Y-75767213D01*
X188677786Y-75911971D01*
X188801878Y-76002127D01*
X188843390Y-76032287D01*
X188922287Y-76072487D01*
X188936080Y-76079515D01*
X188986876Y-76127490D01*
X189003671Y-76195311D01*
X188981134Y-76261446D01*
X188936080Y-76300485D01*
X188843386Y-76347715D01*
X188677786Y-76468028D01*
X188533028Y-76612786D01*
X188412715Y-76778386D01*
X188319781Y-76960776D01*
X188256522Y-77155465D01*
X188224500Y-77357648D01*
X188224500Y-77562351D01*
X188256522Y-77764534D01*
X188319781Y-77959223D01*
X188412715Y-78141613D01*
X188533028Y-78307213D01*
X188677786Y-78451971D01*
X188832749Y-78564556D01*
X188843390Y-78572287D01*
X188910001Y-78606227D01*
X188936080Y-78619515D01*
X188986876Y-78667490D01*
X189003671Y-78735311D01*
X188981134Y-78801446D01*
X188936080Y-78840485D01*
X188843386Y-78887715D01*
X188677786Y-79008028D01*
X188533028Y-79152786D01*
X188412715Y-79318386D01*
X188319781Y-79500776D01*
X188256522Y-79695465D01*
X188224500Y-79897648D01*
X188224500Y-80102351D01*
X188256522Y-80304534D01*
X188319781Y-80499223D01*
X188412715Y-80681613D01*
X188533028Y-80847213D01*
X188677786Y-80991971D01*
X188826462Y-81099988D01*
X188843390Y-81112287D01*
X188912831Y-81147669D01*
X188936080Y-81159515D01*
X188986876Y-81207490D01*
X189003671Y-81275311D01*
X188981134Y-81341446D01*
X188936080Y-81380485D01*
X188843386Y-81427715D01*
X188677786Y-81548028D01*
X188533028Y-81692786D01*
X188412715Y-81858386D01*
X188319781Y-82040776D01*
X188256522Y-82235465D01*
X188224500Y-82437648D01*
X188224500Y-82642351D01*
X188256522Y-82844534D01*
X188319781Y-83039223D01*
X188383691Y-83164653D01*
X188388483Y-83174057D01*
X188412715Y-83221613D01*
X188533028Y-83387213D01*
X188677786Y-83531971D01*
X188815927Y-83632334D01*
X188843390Y-83652287D01*
X188934840Y-83698883D01*
X188936080Y-83699515D01*
X188986876Y-83747490D01*
X189003671Y-83815311D01*
X188981134Y-83881446D01*
X188936080Y-83920485D01*
X188843386Y-83967715D01*
X188677786Y-84088028D01*
X188533028Y-84232786D01*
X188412715Y-84398386D01*
X188319781Y-84580776D01*
X188256522Y-84775465D01*
X188224500Y-84977648D01*
X188224500Y-85170903D01*
X188204815Y-85237942D01*
X188152011Y-85283697D01*
X188082853Y-85293641D01*
X188019297Y-85264616D01*
X188012819Y-85258584D01*
X185636819Y-82882584D01*
X185603334Y-82821261D01*
X185600500Y-82794903D01*
X185600500Y-75920945D01*
X185600500Y-75920943D01*
X185559577Y-75768216D01*
X185515837Y-75692455D01*
X185480524Y-75631290D01*
X185480521Y-75631286D01*
X185480520Y-75631284D01*
X185368716Y-75519480D01*
X185368715Y-75519479D01*
X185364385Y-75515149D01*
X185364374Y-75515139D01*
X180428590Y-70579355D01*
X180428588Y-70579352D01*
X180309717Y-70460481D01*
X180309716Y-70460480D01*
X180222904Y-70410360D01*
X180222904Y-70410359D01*
X180222900Y-70410358D01*
X180172785Y-70381423D01*
X180020057Y-70340499D01*
X179861943Y-70340499D01*
X179854347Y-70340499D01*
X179854331Y-70340500D01*
X175660476Y-70340500D01*
X175593437Y-70320815D01*
X175547682Y-70268011D01*
X175537738Y-70198853D01*
X175542545Y-70178183D01*
X175553475Y-70144542D01*
X175553475Y-70144538D01*
X175553477Y-70144534D01*
X175585500Y-69942352D01*
X175585500Y-69737648D01*
X175553477Y-69535466D01*
X175490220Y-69340781D01*
X175490218Y-69340778D01*
X175490218Y-69340776D01*
X175456503Y-69274607D01*
X175397287Y-69158390D01*
X175389556Y-69147749D01*
X175276971Y-68992786D01*
X175132213Y-68848028D01*
X174966614Y-68727715D01*
X174960006Y-68724348D01*
X174873917Y-68680483D01*
X174823123Y-68632511D01*
X174806328Y-68564690D01*
X174828865Y-68498555D01*
X174873917Y-68459516D01*
X174966610Y-68412287D01*
X175010334Y-68380520D01*
X175132213Y-68291971D01*
X175132215Y-68291968D01*
X175132219Y-68291966D01*
X175276966Y-68147219D01*
X175276968Y-68147215D01*
X175276971Y-68147213D01*
X175329732Y-68074590D01*
X175397287Y-67981610D01*
X175490220Y-67799219D01*
X175553477Y-67604534D01*
X175585500Y-67402352D01*
X175585500Y-67197648D01*
X175553477Y-66995466D01*
X175490220Y-66800781D01*
X175490218Y-66800778D01*
X175490218Y-66800776D01*
X175456503Y-66734607D01*
X175397287Y-66618390D01*
X175389556Y-66607749D01*
X175276971Y-66452786D01*
X175132213Y-66308028D01*
X174966614Y-66187715D01*
X174960006Y-66184348D01*
X174873917Y-66140483D01*
X174823123Y-66092511D01*
X174806328Y-66024690D01*
X174828865Y-65958555D01*
X174873917Y-65919516D01*
X174966610Y-65872287D01*
X174987770Y-65856913D01*
X175132213Y-65751971D01*
X175132215Y-65751968D01*
X175132219Y-65751966D01*
X175276966Y-65607219D01*
X175276968Y-65607215D01*
X175276971Y-65607213D01*
X175329732Y-65534590D01*
X175397287Y-65441610D01*
X175490220Y-65259219D01*
X175553477Y-65064534D01*
X175585500Y-64862352D01*
X175585500Y-64657648D01*
X175553477Y-64455466D01*
X175490220Y-64260781D01*
X175490218Y-64260778D01*
X175490218Y-64260776D01*
X175456503Y-64194607D01*
X175397287Y-64078390D01*
X175389556Y-64067749D01*
X175276971Y-63912786D01*
X175132213Y-63768028D01*
X174966614Y-63647715D01*
X174960006Y-63644348D01*
X174873917Y-63600483D01*
X174823123Y-63552511D01*
X174806328Y-63484690D01*
X174828865Y-63418555D01*
X174873917Y-63379516D01*
X174966610Y-63332287D01*
X174987770Y-63316913D01*
X175132213Y-63211971D01*
X175132215Y-63211968D01*
X175132219Y-63211966D01*
X175276966Y-63067219D01*
X175276968Y-63067215D01*
X175276971Y-63067213D01*
X175397284Y-62901614D01*
X175397285Y-62901613D01*
X175397287Y-62901610D01*
X175444516Y-62808917D01*
X175492489Y-62758123D01*
X175560310Y-62741328D01*
X175626445Y-62763865D01*
X175665485Y-62808919D01*
X175712715Y-62901614D01*
X175833028Y-63067213D01*
X175977786Y-63211971D01*
X176132749Y-63324556D01*
X176143390Y-63332287D01*
X176236080Y-63379515D01*
X176325776Y-63425218D01*
X176325778Y-63425218D01*
X176325781Y-63425220D01*
X176430137Y-63459127D01*
X176520465Y-63488477D01*
X176539697Y-63491523D01*
X176722648Y-63520500D01*
X176722649Y-63520500D01*
X176927351Y-63520500D01*
X176927352Y-63520500D01*
X177129534Y-63488477D01*
X177324219Y-63425220D01*
X177506610Y-63332287D01*
X177599590Y-63264732D01*
X177672213Y-63211971D01*
X177672215Y-63211968D01*
X177672219Y-63211966D01*
X177816966Y-63067219D01*
X177816968Y-63067215D01*
X177816971Y-63067213D01*
X177937284Y-62901614D01*
X177937285Y-62901613D01*
X177937287Y-62901610D01*
X177984516Y-62808917D01*
X178032489Y-62758123D01*
X178100310Y-62741328D01*
X178166445Y-62763865D01*
X178205485Y-62808919D01*
X178252715Y-62901614D01*
X178373028Y-63067213D01*
X178517786Y-63211971D01*
X178672749Y-63324556D01*
X178683390Y-63332287D01*
X178776080Y-63379515D01*
X178865776Y-63425218D01*
X178865778Y-63425218D01*
X178865781Y-63425220D01*
X178970137Y-63459127D01*
X179060465Y-63488477D01*
X179079697Y-63491523D01*
X179262648Y-63520500D01*
X179262649Y-63520500D01*
X179467351Y-63520500D01*
X179467352Y-63520500D01*
X179669534Y-63488477D01*
X179864219Y-63425220D01*
X180046610Y-63332287D01*
X180139590Y-63264732D01*
X180212213Y-63211971D01*
X180212215Y-63211968D01*
X180212219Y-63211966D01*
X180356966Y-63067219D01*
X180356968Y-63067215D01*
X180356971Y-63067213D01*
X180409732Y-62994590D01*
X180477287Y-62901610D01*
X180570220Y-62719219D01*
X180633477Y-62524534D01*
X180665500Y-62322352D01*
X180665500Y-62117648D01*
X180661359Y-62091501D01*
X180633477Y-61915465D01*
X180570218Y-61720776D01*
X180524515Y-61631080D01*
X180477287Y-61538390D01*
X180469556Y-61527749D01*
X180356971Y-61372786D01*
X180212213Y-61228028D01*
X180046613Y-61107715D01*
X180046612Y-61107714D01*
X180046610Y-61107713D01*
X179989653Y-61078691D01*
X179864223Y-61014781D01*
X179669534Y-60951522D01*
X179494995Y-60923878D01*
X179467352Y-60919500D01*
X179262648Y-60919500D01*
X179238329Y-60923351D01*
X179060465Y-60951522D01*
X178865776Y-61014781D01*
X178683386Y-61107715D01*
X178517786Y-61228028D01*
X178373028Y-61372786D01*
X178252715Y-61538386D01*
X178205485Y-61631080D01*
X178157510Y-61681876D01*
X178089689Y-61698671D01*
X178023554Y-61676134D01*
X177984515Y-61631080D01*
X177983883Y-61629840D01*
X177937287Y-61538390D01*
X177929556Y-61527749D01*
X177816971Y-61372786D01*
X177672213Y-61228028D01*
X177506613Y-61107715D01*
X177506612Y-61107714D01*
X177506610Y-61107713D01*
X177449653Y-61078691D01*
X177324223Y-61014781D01*
X177129534Y-60951522D01*
X176954995Y-60923878D01*
X176927352Y-60919500D01*
X176722648Y-60919500D01*
X176698329Y-60923351D01*
X176520465Y-60951522D01*
X176325776Y-61014781D01*
X176143386Y-61107715D01*
X175977786Y-61228028D01*
X175833028Y-61372786D01*
X175712715Y-61538386D01*
X175665485Y-61631080D01*
X175617510Y-61681876D01*
X175549689Y-61698671D01*
X175483554Y-61676134D01*
X175444515Y-61631080D01*
X175443883Y-61629840D01*
X175397287Y-61538390D01*
X175389556Y-61527749D01*
X175276971Y-61372786D01*
X175132213Y-61228028D01*
X174966613Y-61107715D01*
X174966612Y-61107714D01*
X174966610Y-61107713D01*
X174909653Y-61078691D01*
X174784223Y-61014781D01*
X174589534Y-60951522D01*
X174414995Y-60923878D01*
X174387352Y-60919500D01*
X174182648Y-60919500D01*
X174158329Y-60923351D01*
X173980465Y-60951522D01*
X173785776Y-61014781D01*
X173603386Y-61107715D01*
X173437786Y-61228028D01*
X173293028Y-61372786D01*
X173172715Y-61538386D01*
X173079781Y-61720776D01*
X173016522Y-61915465D01*
X172984500Y-62117648D01*
X172984500Y-62322351D01*
X173016522Y-62524534D01*
X173079781Y-62719223D01*
X173172715Y-62901613D01*
X173293028Y-63067213D01*
X173437786Y-63211971D01*
X173592749Y-63324556D01*
X173603390Y-63332287D01*
X173694840Y-63378883D01*
X173696080Y-63379515D01*
X173746876Y-63427490D01*
X173763671Y-63495311D01*
X173741134Y-63561446D01*
X173696080Y-63600485D01*
X173603386Y-63647715D01*
X173437786Y-63768028D01*
X173293028Y-63912786D01*
X173172715Y-64078386D01*
X173079781Y-64260776D01*
X173016522Y-64455465D01*
X172984500Y-64657648D01*
X172984500Y-64862351D01*
X173016522Y-65064534D01*
X173079781Y-65259223D01*
X173172715Y-65441613D01*
X173293028Y-65607213D01*
X173437786Y-65751971D01*
X173592749Y-65864556D01*
X173603390Y-65872287D01*
X173694840Y-65918883D01*
X173696080Y-65919515D01*
X173746876Y-65967490D01*
X173763671Y-66035311D01*
X173741134Y-66101446D01*
X173696080Y-66140485D01*
X173603386Y-66187715D01*
X173437786Y-66308028D01*
X173293028Y-66452786D01*
X173172715Y-66618386D01*
X173079781Y-66800776D01*
X173016522Y-66995465D01*
X172984500Y-67197648D01*
X172984500Y-67402351D01*
X173016522Y-67604534D01*
X173079781Y-67799223D01*
X173143691Y-67924653D01*
X173171412Y-67979057D01*
X173172715Y-67981613D01*
X173293028Y-68147213D01*
X173437786Y-68291971D01*
X173559666Y-68380520D01*
X173603390Y-68412287D01*
X173694840Y-68458883D01*
X173696080Y-68459515D01*
X173746876Y-68507490D01*
X173763671Y-68575311D01*
X173741134Y-68641446D01*
X173696080Y-68680485D01*
X173603386Y-68727715D01*
X173437786Y-68848028D01*
X173293028Y-68992786D01*
X173172715Y-69158386D01*
X173079781Y-69340776D01*
X173016522Y-69535465D01*
X172984500Y-69737648D01*
X172984500Y-69942351D01*
X173016523Y-70144535D01*
X173016524Y-70144542D01*
X173027455Y-70178183D01*
X173029450Y-70248024D01*
X172993369Y-70307856D01*
X172930668Y-70338684D01*
X172909524Y-70340500D01*
X150241097Y-70340500D01*
X150174058Y-70320815D01*
X150153416Y-70304181D01*
X147536819Y-67687584D01*
X147503334Y-67626261D01*
X147500500Y-67599903D01*
X147500500Y-65216499D01*
X147520185Y-65149460D01*
X147572989Y-65103705D01*
X147624500Y-65092499D01*
X147947871Y-65092499D01*
X147947872Y-65092499D01*
X148007483Y-65086091D01*
X148142331Y-65035796D01*
X148257546Y-64949546D01*
X148343796Y-64834331D01*
X148394091Y-64699483D01*
X148400500Y-64639873D01*
X148400499Y-62607635D01*
X150669500Y-62607635D01*
X150669500Y-64703370D01*
X150669501Y-64703376D01*
X150675908Y-64762983D01*
X150726202Y-64897828D01*
X150726206Y-64897835D01*
X150812452Y-65013044D01*
X150812455Y-65013047D01*
X150927664Y-65099293D01*
X150927671Y-65099297D01*
X151062517Y-65149591D01*
X151062516Y-65149591D01*
X151069444Y-65150335D01*
X151122127Y-65156000D01*
X153217872Y-65155999D01*
X153277483Y-65149591D01*
X153412331Y-65099296D01*
X153527546Y-65013046D01*
X153613796Y-64897831D01*
X153664091Y-64762983D01*
X153670500Y-64703373D01*
X153670499Y-62607628D01*
X153664091Y-62548017D01*
X153662640Y-62544128D01*
X153613797Y-62413171D01*
X153613793Y-62413164D01*
X153527547Y-62297955D01*
X153527544Y-62297952D01*
X153412335Y-62211706D01*
X153412328Y-62211702D01*
X153277482Y-62161408D01*
X153277483Y-62161408D01*
X153217883Y-62155001D01*
X153217881Y-62155000D01*
X153217873Y-62155000D01*
X153217864Y-62155000D01*
X151122129Y-62155000D01*
X151122123Y-62155001D01*
X151062516Y-62161408D01*
X150927671Y-62211702D01*
X150927664Y-62211706D01*
X150812455Y-62297952D01*
X150812452Y-62297955D01*
X150726206Y-62413164D01*
X150726202Y-62413171D01*
X150675908Y-62548017D01*
X150669501Y-62607616D01*
X150669501Y-62607623D01*
X150669500Y-62607635D01*
X148400499Y-62607635D01*
X148400499Y-62544128D01*
X148394091Y-62484517D01*
X148343796Y-62349669D01*
X148343795Y-62349668D01*
X148343793Y-62349664D01*
X148257547Y-62234455D01*
X148257544Y-62234452D01*
X148142335Y-62148206D01*
X148142328Y-62148202D01*
X148007482Y-62097908D01*
X148007483Y-62097908D01*
X147947883Y-62091501D01*
X147947881Y-62091500D01*
X147947873Y-62091500D01*
X147947864Y-62091500D01*
X145852129Y-62091500D01*
X145852123Y-62091501D01*
X145792516Y-62097908D01*
X145657671Y-62148202D01*
X145657664Y-62148206D01*
X145542455Y-62234452D01*
X145542452Y-62234455D01*
X145456206Y-62349664D01*
X145456202Y-62349671D01*
X145405908Y-62484517D01*
X145399501Y-62544116D01*
X145399501Y-62544123D01*
X145399500Y-62544135D01*
X140500500Y-62544135D01*
X140500500Y-60624500D01*
X140520185Y-60557461D01*
X140572989Y-60511706D01*
X140624500Y-60500500D01*
X219375500Y-60500500D01*
X219442539Y-60520185D01*
G37*
%TD.AperFunction*%
%TD*%
M02*
