%TF.GenerationSoftware,KiCad,Pcbnew,9.0.7*%
%TF.CreationDate,2026-02-08T08:02:24-07:00*%
%TF.ProjectId,PCB_v1,5043425f-7631-42e6-9b69-6361645f7063,rev?*%
%TF.SameCoordinates,Original*%
%TF.FileFunction,Legend,Top*%
%TF.FilePolarity,Positive*%
%FSLAX46Y46*%
G04 Gerber Fmt 4.6, Leading zero omitted, Abs format (unit mm)*
G04 Created by KiCad (PCBNEW 9.0.7) date 2026-02-08 08:02:24*
%MOMM*%
%LPD*%
G01*
G04 APERTURE LIST*
%ADD10C,0.400000*%
%ADD11C,0.300000*%
%ADD12C,0.100000*%
%ADD13C,0.200000*%
%ADD14C,0.150000*%
%ADD15C,0.101600*%
G04 APERTURE END LIST*
D10*
X195144109Y-63979200D02*
X195429823Y-64074438D01*
X195429823Y-64074438D02*
X195906014Y-64074438D01*
X195906014Y-64074438D02*
X196096490Y-63979200D01*
X196096490Y-63979200D02*
X196191728Y-63883961D01*
X196191728Y-63883961D02*
X196286966Y-63693485D01*
X196286966Y-63693485D02*
X196286966Y-63503009D01*
X196286966Y-63503009D02*
X196191728Y-63312533D01*
X196191728Y-63312533D02*
X196096490Y-63217295D01*
X196096490Y-63217295D02*
X195906014Y-63122057D01*
X195906014Y-63122057D02*
X195525061Y-63026819D01*
X195525061Y-63026819D02*
X195334585Y-62931580D01*
X195334585Y-62931580D02*
X195239347Y-62836342D01*
X195239347Y-62836342D02*
X195144109Y-62645866D01*
X195144109Y-62645866D02*
X195144109Y-62455390D01*
X195144109Y-62455390D02*
X195239347Y-62264914D01*
X195239347Y-62264914D02*
X195334585Y-62169676D01*
X195334585Y-62169676D02*
X195525061Y-62074438D01*
X195525061Y-62074438D02*
X196001252Y-62074438D01*
X196001252Y-62074438D02*
X196286966Y-62169676D01*
X196858395Y-62741104D02*
X197620299Y-62741104D01*
X197144109Y-62074438D02*
X197144109Y-63788723D01*
X197144109Y-63788723D02*
X197239347Y-63979200D01*
X197239347Y-63979200D02*
X197429823Y-64074438D01*
X197429823Y-64074438D02*
X197620299Y-64074438D01*
X199144109Y-62741104D02*
X199144109Y-64074438D01*
X198286966Y-62741104D02*
X198286966Y-63788723D01*
X198286966Y-63788723D02*
X198382204Y-63979200D01*
X198382204Y-63979200D02*
X198572680Y-64074438D01*
X198572680Y-64074438D02*
X198858395Y-64074438D01*
X198858395Y-64074438D02*
X199048871Y-63979200D01*
X199048871Y-63979200D02*
X199144109Y-63883961D01*
X199810776Y-62741104D02*
X200572680Y-62741104D01*
X200096490Y-64074438D02*
X200096490Y-62360152D01*
X200096490Y-62360152D02*
X200191728Y-62169676D01*
X200191728Y-62169676D02*
X200382204Y-62074438D01*
X200382204Y-62074438D02*
X200572680Y-62074438D01*
X200953633Y-62741104D02*
X201715537Y-62741104D01*
X201239347Y-64074438D02*
X201239347Y-62360152D01*
X201239347Y-62360152D02*
X201334585Y-62169676D01*
X201334585Y-62169676D02*
X201525061Y-62074438D01*
X201525061Y-62074438D02*
X201715537Y-62074438D01*
X203144109Y-63979200D02*
X202953633Y-64074438D01*
X202953633Y-64074438D02*
X202572680Y-64074438D01*
X202572680Y-64074438D02*
X202382204Y-63979200D01*
X202382204Y-63979200D02*
X202286966Y-63788723D01*
X202286966Y-63788723D02*
X202286966Y-63026819D01*
X202286966Y-63026819D02*
X202382204Y-62836342D01*
X202382204Y-62836342D02*
X202572680Y-62741104D01*
X202572680Y-62741104D02*
X202953633Y-62741104D01*
X202953633Y-62741104D02*
X203144109Y-62836342D01*
X203144109Y-62836342D02*
X203239347Y-63026819D01*
X203239347Y-63026819D02*
X203239347Y-63217295D01*
X203239347Y-63217295D02*
X202286966Y-63407771D01*
X204953633Y-64074438D02*
X204953633Y-62074438D01*
X204953633Y-63979200D02*
X204763157Y-64074438D01*
X204763157Y-64074438D02*
X204382204Y-64074438D01*
X204382204Y-64074438D02*
X204191728Y-63979200D01*
X204191728Y-63979200D02*
X204096490Y-63883961D01*
X204096490Y-63883961D02*
X204001252Y-63693485D01*
X204001252Y-63693485D02*
X204001252Y-63122057D01*
X204001252Y-63122057D02*
X204096490Y-62931580D01*
X204096490Y-62931580D02*
X204191728Y-62836342D01*
X204191728Y-62836342D02*
X204382204Y-62741104D01*
X204382204Y-62741104D02*
X204763157Y-62741104D01*
X204763157Y-62741104D02*
X204953633Y-62836342D01*
X208572681Y-63883961D02*
X208477443Y-63979200D01*
X208477443Y-63979200D02*
X208191729Y-64074438D01*
X208191729Y-64074438D02*
X208001253Y-64074438D01*
X208001253Y-64074438D02*
X207715538Y-63979200D01*
X207715538Y-63979200D02*
X207525062Y-63788723D01*
X207525062Y-63788723D02*
X207429824Y-63598247D01*
X207429824Y-63598247D02*
X207334586Y-63217295D01*
X207334586Y-63217295D02*
X207334586Y-62931580D01*
X207334586Y-62931580D02*
X207429824Y-62550628D01*
X207429824Y-62550628D02*
X207525062Y-62360152D01*
X207525062Y-62360152D02*
X207715538Y-62169676D01*
X207715538Y-62169676D02*
X208001253Y-62074438D01*
X208001253Y-62074438D02*
X208191729Y-62074438D01*
X208191729Y-62074438D02*
X208477443Y-62169676D01*
X208477443Y-62169676D02*
X208572681Y-62264914D01*
X209429824Y-64074438D02*
X209429824Y-62741104D01*
X209429824Y-63122057D02*
X209525062Y-62931580D01*
X209525062Y-62931580D02*
X209620300Y-62836342D01*
X209620300Y-62836342D02*
X209810776Y-62741104D01*
X209810776Y-62741104D02*
X210001253Y-62741104D01*
X211525062Y-62741104D02*
X211525062Y-64074438D01*
X210667919Y-62741104D02*
X210667919Y-63788723D01*
X210667919Y-63788723D02*
X210763157Y-63979200D01*
X210763157Y-63979200D02*
X210953633Y-64074438D01*
X210953633Y-64074438D02*
X211239348Y-64074438D01*
X211239348Y-64074438D02*
X211429824Y-63979200D01*
X211429824Y-63979200D02*
X211525062Y-63883961D01*
X212382205Y-63979200D02*
X212572681Y-64074438D01*
X212572681Y-64074438D02*
X212953633Y-64074438D01*
X212953633Y-64074438D02*
X213144110Y-63979200D01*
X213144110Y-63979200D02*
X213239348Y-63788723D01*
X213239348Y-63788723D02*
X213239348Y-63693485D01*
X213239348Y-63693485D02*
X213144110Y-63503009D01*
X213144110Y-63503009D02*
X212953633Y-63407771D01*
X212953633Y-63407771D02*
X212667919Y-63407771D01*
X212667919Y-63407771D02*
X212477443Y-63312533D01*
X212477443Y-63312533D02*
X212382205Y-63122057D01*
X212382205Y-63122057D02*
X212382205Y-63026819D01*
X212382205Y-63026819D02*
X212477443Y-62836342D01*
X212477443Y-62836342D02*
X212667919Y-62741104D01*
X212667919Y-62741104D02*
X212953633Y-62741104D01*
X212953633Y-62741104D02*
X213144110Y-62836342D01*
X213810777Y-62741104D02*
X214572681Y-62741104D01*
X214096491Y-62074438D02*
X214096491Y-63788723D01*
X214096491Y-63788723D02*
X214191729Y-63979200D01*
X214191729Y-63979200D02*
X214382205Y-64074438D01*
X214382205Y-64074438D02*
X214572681Y-64074438D01*
D11*
X171178328Y-95659774D02*
X171178328Y-94802632D01*
X172678328Y-95231203D02*
X171178328Y-95231203D01*
X172678328Y-94088346D02*
X172606900Y-94231203D01*
X172606900Y-94231203D02*
X172535471Y-94302632D01*
X172535471Y-94302632D02*
X172392614Y-94374060D01*
X172392614Y-94374060D02*
X171964042Y-94374060D01*
X171964042Y-94374060D02*
X171821185Y-94302632D01*
X171821185Y-94302632D02*
X171749757Y-94231203D01*
X171749757Y-94231203D02*
X171678328Y-94088346D01*
X171678328Y-94088346D02*
X171678328Y-93874060D01*
X171678328Y-93874060D02*
X171749757Y-93731203D01*
X171749757Y-93731203D02*
X171821185Y-93659775D01*
X171821185Y-93659775D02*
X171964042Y-93588346D01*
X171964042Y-93588346D02*
X172392614Y-93588346D01*
X172392614Y-93588346D02*
X172535471Y-93659775D01*
X172535471Y-93659775D02*
X172606900Y-93731203D01*
X172606900Y-93731203D02*
X172678328Y-93874060D01*
X172678328Y-93874060D02*
X172678328Y-94088346D01*
X171678328Y-92945489D02*
X173178328Y-92945489D01*
X171749757Y-92945489D02*
X171678328Y-92802632D01*
X171678328Y-92802632D02*
X171678328Y-92516917D01*
X171678328Y-92516917D02*
X171749757Y-92374060D01*
X171749757Y-92374060D02*
X171821185Y-92302632D01*
X171821185Y-92302632D02*
X171964042Y-92231203D01*
X171964042Y-92231203D02*
X172392614Y-92231203D01*
X172392614Y-92231203D02*
X172535471Y-92302632D01*
X172535471Y-92302632D02*
X172606900Y-92374060D01*
X172606900Y-92374060D02*
X172678328Y-92516917D01*
X172678328Y-92516917D02*
X172678328Y-92802632D01*
X172678328Y-92802632D02*
X172606900Y-92945489D01*
X172678328Y-89731203D02*
X172678328Y-90445489D01*
X172678328Y-90445489D02*
X171178328Y-90445489D01*
X172678328Y-88588346D02*
X171892614Y-88588346D01*
X171892614Y-88588346D02*
X171749757Y-88659774D01*
X171749757Y-88659774D02*
X171678328Y-88802631D01*
X171678328Y-88802631D02*
X171678328Y-89088346D01*
X171678328Y-89088346D02*
X171749757Y-89231203D01*
X172606900Y-88588346D02*
X172678328Y-88731203D01*
X172678328Y-88731203D02*
X172678328Y-89088346D01*
X172678328Y-89088346D02*
X172606900Y-89231203D01*
X172606900Y-89231203D02*
X172464042Y-89302631D01*
X172464042Y-89302631D02*
X172321185Y-89302631D01*
X172321185Y-89302631D02*
X172178328Y-89231203D01*
X172178328Y-89231203D02*
X172106900Y-89088346D01*
X172106900Y-89088346D02*
X172106900Y-88731203D01*
X172106900Y-88731203D02*
X172035471Y-88588346D01*
X171678328Y-88016917D02*
X172678328Y-87659774D01*
X171678328Y-87302631D02*
X172678328Y-87659774D01*
X172678328Y-87659774D02*
X173035471Y-87802631D01*
X173035471Y-87802631D02*
X173106900Y-87874060D01*
X173106900Y-87874060D02*
X173178328Y-88016917D01*
X172606900Y-86159774D02*
X172678328Y-86302631D01*
X172678328Y-86302631D02*
X172678328Y-86588346D01*
X172678328Y-86588346D02*
X172606900Y-86731203D01*
X172606900Y-86731203D02*
X172464042Y-86802631D01*
X172464042Y-86802631D02*
X171892614Y-86802631D01*
X171892614Y-86802631D02*
X171749757Y-86731203D01*
X171749757Y-86731203D02*
X171678328Y-86588346D01*
X171678328Y-86588346D02*
X171678328Y-86302631D01*
X171678328Y-86302631D02*
X171749757Y-86159774D01*
X171749757Y-86159774D02*
X171892614Y-86088346D01*
X171892614Y-86088346D02*
X172035471Y-86088346D01*
X172035471Y-86088346D02*
X172178328Y-86802631D01*
X172678328Y-85445489D02*
X171678328Y-85445489D01*
X171964042Y-85445489D02*
X171821185Y-85374060D01*
X171821185Y-85374060D02*
X171749757Y-85302632D01*
X171749757Y-85302632D02*
X171678328Y-85159774D01*
X171678328Y-85159774D02*
X171678328Y-85016917D01*
D12*
X174171704Y-95648496D02*
X174171704Y-95815163D01*
X174433609Y-95815163D02*
X173933609Y-95815163D01*
X173933609Y-95815163D02*
X173933609Y-95577068D01*
X174385990Y-95386592D02*
X174409800Y-95362782D01*
X174409800Y-95362782D02*
X174433609Y-95386592D01*
X174433609Y-95386592D02*
X174409800Y-95410401D01*
X174409800Y-95410401D02*
X174385990Y-95386592D01*
X174385990Y-95386592D02*
X174433609Y-95386592D01*
X174385990Y-94862783D02*
X174409800Y-94886592D01*
X174409800Y-94886592D02*
X174433609Y-94958021D01*
X174433609Y-94958021D02*
X174433609Y-95005640D01*
X174433609Y-95005640D02*
X174409800Y-95077068D01*
X174409800Y-95077068D02*
X174362180Y-95124687D01*
X174362180Y-95124687D02*
X174314561Y-95148497D01*
X174314561Y-95148497D02*
X174219323Y-95172306D01*
X174219323Y-95172306D02*
X174147895Y-95172306D01*
X174147895Y-95172306D02*
X174052657Y-95148497D01*
X174052657Y-95148497D02*
X174005038Y-95124687D01*
X174005038Y-95124687D02*
X173957419Y-95077068D01*
X173957419Y-95077068D02*
X173933609Y-95005640D01*
X173933609Y-95005640D02*
X173933609Y-94958021D01*
X173933609Y-94958021D02*
X173957419Y-94886592D01*
X173957419Y-94886592D02*
X173981228Y-94862783D01*
X174100276Y-94434211D02*
X174433609Y-94434211D01*
X174100276Y-94648497D02*
X174362180Y-94648497D01*
X174362180Y-94648497D02*
X174409800Y-94624687D01*
X174409800Y-94624687D02*
X174433609Y-94577068D01*
X174433609Y-94577068D02*
X174433609Y-94505640D01*
X174433609Y-94505640D02*
X174409800Y-94458021D01*
X174409800Y-94458021D02*
X174385990Y-94434211D01*
X174433609Y-93172307D02*
X174433609Y-93458021D01*
X174433609Y-93315164D02*
X173933609Y-93315164D01*
X173933609Y-93315164D02*
X174005038Y-93362783D01*
X174005038Y-93362783D02*
X174052657Y-93410402D01*
X174052657Y-93410402D02*
X174076466Y-93458021D01*
X174433609Y-92505641D02*
X174409800Y-92553260D01*
X174409800Y-92553260D02*
X174385990Y-92577070D01*
X174385990Y-92577070D02*
X174338371Y-92600879D01*
X174338371Y-92600879D02*
X174195514Y-92600879D01*
X174195514Y-92600879D02*
X174147895Y-92577070D01*
X174147895Y-92577070D02*
X174124085Y-92553260D01*
X174124085Y-92553260D02*
X174100276Y-92505641D01*
X174100276Y-92505641D02*
X174100276Y-92434213D01*
X174100276Y-92434213D02*
X174124085Y-92386594D01*
X174124085Y-92386594D02*
X174147895Y-92362784D01*
X174147895Y-92362784D02*
X174195514Y-92338975D01*
X174195514Y-92338975D02*
X174338371Y-92338975D01*
X174338371Y-92338975D02*
X174385990Y-92362784D01*
X174385990Y-92362784D02*
X174409800Y-92386594D01*
X174409800Y-92386594D02*
X174433609Y-92434213D01*
X174433609Y-92434213D02*
X174433609Y-92505641D01*
X174100276Y-92172308D02*
X174100276Y-91910403D01*
X174100276Y-91910403D02*
X174433609Y-92172308D01*
X174433609Y-92172308D02*
X174433609Y-91910403D01*
X174624085Y-91196118D02*
X174600276Y-91219927D01*
X174600276Y-91219927D02*
X174528847Y-91267546D01*
X174528847Y-91267546D02*
X174481228Y-91291356D01*
X174481228Y-91291356D02*
X174409800Y-91315165D01*
X174409800Y-91315165D02*
X174290752Y-91338975D01*
X174290752Y-91338975D02*
X174195514Y-91338975D01*
X174195514Y-91338975D02*
X174076466Y-91315165D01*
X174076466Y-91315165D02*
X174005038Y-91291356D01*
X174005038Y-91291356D02*
X173957419Y-91267546D01*
X173957419Y-91267546D02*
X173885990Y-91219927D01*
X173885990Y-91219927D02*
X173862180Y-91196118D01*
X173933609Y-91053261D02*
X173933609Y-90743737D01*
X173933609Y-90743737D02*
X174124085Y-90910404D01*
X174124085Y-90910404D02*
X174124085Y-90838975D01*
X174124085Y-90838975D02*
X174147895Y-90791356D01*
X174147895Y-90791356D02*
X174171704Y-90767547D01*
X174171704Y-90767547D02*
X174219323Y-90743737D01*
X174219323Y-90743737D02*
X174338371Y-90743737D01*
X174338371Y-90743737D02*
X174385990Y-90767547D01*
X174385990Y-90767547D02*
X174409800Y-90791356D01*
X174409800Y-90791356D02*
X174433609Y-90838975D01*
X174433609Y-90838975D02*
X174433609Y-90981832D01*
X174433609Y-90981832D02*
X174409800Y-91029451D01*
X174409800Y-91029451D02*
X174385990Y-91053261D01*
X173933609Y-90291357D02*
X173933609Y-90529452D01*
X173933609Y-90529452D02*
X174171704Y-90553261D01*
X174171704Y-90553261D02*
X174147895Y-90529452D01*
X174147895Y-90529452D02*
X174124085Y-90481833D01*
X174124085Y-90481833D02*
X174124085Y-90362785D01*
X174124085Y-90362785D02*
X174147895Y-90315166D01*
X174147895Y-90315166D02*
X174171704Y-90291357D01*
X174171704Y-90291357D02*
X174219323Y-90267547D01*
X174219323Y-90267547D02*
X174338371Y-90267547D01*
X174338371Y-90267547D02*
X174385990Y-90291357D01*
X174385990Y-90291357D02*
X174409800Y-90315166D01*
X174409800Y-90315166D02*
X174433609Y-90362785D01*
X174433609Y-90362785D02*
X174433609Y-90481833D01*
X174433609Y-90481833D02*
X174409800Y-90529452D01*
X174409800Y-90529452D02*
X174385990Y-90553261D01*
X174100276Y-89672310D02*
X174600276Y-89672310D01*
X174362180Y-89434215D02*
X174409800Y-89410405D01*
X174409800Y-89410405D02*
X174433609Y-89362786D01*
X174362180Y-89672310D02*
X174409800Y-89648500D01*
X174409800Y-89648500D02*
X174433609Y-89600881D01*
X174433609Y-89600881D02*
X174433609Y-89505643D01*
X174433609Y-89505643D02*
X174409800Y-89458024D01*
X174409800Y-89458024D02*
X174362180Y-89434215D01*
X174362180Y-89434215D02*
X174100276Y-89434215D01*
X174433609Y-89148500D02*
X174100276Y-89148500D01*
X174147895Y-89148500D02*
X174124085Y-89124690D01*
X174124085Y-89124690D02*
X174100276Y-89077071D01*
X174100276Y-89077071D02*
X174100276Y-89005643D01*
X174100276Y-89005643D02*
X174124085Y-88958024D01*
X174124085Y-88958024D02*
X174171704Y-88934214D01*
X174171704Y-88934214D02*
X174433609Y-88934214D01*
X174171704Y-88934214D02*
X174124085Y-88910405D01*
X174124085Y-88910405D02*
X174100276Y-88862786D01*
X174100276Y-88862786D02*
X174100276Y-88791357D01*
X174100276Y-88791357D02*
X174124085Y-88743738D01*
X174124085Y-88743738D02*
X174171704Y-88719928D01*
X174171704Y-88719928D02*
X174433609Y-88719928D01*
X174624085Y-88529452D02*
X174600276Y-88505642D01*
X174600276Y-88505642D02*
X174528847Y-88458023D01*
X174528847Y-88458023D02*
X174481228Y-88434214D01*
X174481228Y-88434214D02*
X174409800Y-88410404D01*
X174409800Y-88410404D02*
X174290752Y-88386595D01*
X174290752Y-88386595D02*
X174195514Y-88386595D01*
X174195514Y-88386595D02*
X174076466Y-88410404D01*
X174076466Y-88410404D02*
X174005038Y-88434214D01*
X174005038Y-88434214D02*
X173957419Y-88458023D01*
X173957419Y-88458023D02*
X173885990Y-88505642D01*
X173885990Y-88505642D02*
X173862180Y-88529452D01*
X212342580Y-71557142D02*
X212342580Y-71080952D01*
X212342580Y-71080952D02*
X213342580Y-71080952D01*
X212866390Y-71890476D02*
X212866390Y-72223809D01*
X212342580Y-72366666D02*
X212342580Y-71890476D01*
X212342580Y-71890476D02*
X213342580Y-71890476D01*
X213342580Y-71890476D02*
X213342580Y-72366666D01*
X212342580Y-72795238D02*
X213342580Y-72795238D01*
X213342580Y-72795238D02*
X213342580Y-73033333D01*
X213342580Y-73033333D02*
X213294961Y-73176190D01*
X213294961Y-73176190D02*
X213199723Y-73271428D01*
X213199723Y-73271428D02*
X213104485Y-73319047D01*
X213104485Y-73319047D02*
X212914009Y-73366666D01*
X212914009Y-73366666D02*
X212771152Y-73366666D01*
X212771152Y-73366666D02*
X212580676Y-73319047D01*
X212580676Y-73319047D02*
X212485438Y-73271428D01*
X212485438Y-73271428D02*
X212390200Y-73176190D01*
X212390200Y-73176190D02*
X212342580Y-73033333D01*
X212342580Y-73033333D02*
X212342580Y-72795238D01*
X171280074Y-98457419D02*
X170803884Y-98457419D01*
X170803884Y-98457419D02*
X170756265Y-98933609D01*
X170756265Y-98933609D02*
X170803884Y-98885990D01*
X170803884Y-98885990D02*
X170899122Y-98838371D01*
X170899122Y-98838371D02*
X171137217Y-98838371D01*
X171137217Y-98838371D02*
X171232455Y-98885990D01*
X171232455Y-98885990D02*
X171280074Y-98933609D01*
X171280074Y-98933609D02*
X171327693Y-99028847D01*
X171327693Y-99028847D02*
X171327693Y-99266942D01*
X171327693Y-99266942D02*
X171280074Y-99362180D01*
X171280074Y-99362180D02*
X171232455Y-99409800D01*
X171232455Y-99409800D02*
X171137217Y-99457419D01*
X171137217Y-99457419D02*
X170899122Y-99457419D01*
X170899122Y-99457419D02*
X170803884Y-99409800D01*
X170803884Y-99409800D02*
X170756265Y-99362180D01*
X171946741Y-98457419D02*
X172041979Y-98457419D01*
X172041979Y-98457419D02*
X172137217Y-98505038D01*
X172137217Y-98505038D02*
X172184836Y-98552657D01*
X172184836Y-98552657D02*
X172232455Y-98647895D01*
X172232455Y-98647895D02*
X172280074Y-98838371D01*
X172280074Y-98838371D02*
X172280074Y-99076466D01*
X172280074Y-99076466D02*
X172232455Y-99266942D01*
X172232455Y-99266942D02*
X172184836Y-99362180D01*
X172184836Y-99362180D02*
X172137217Y-99409800D01*
X172137217Y-99409800D02*
X172041979Y-99457419D01*
X172041979Y-99457419D02*
X171946741Y-99457419D01*
X171946741Y-99457419D02*
X171851503Y-99409800D01*
X171851503Y-99409800D02*
X171803884Y-99362180D01*
X171803884Y-99362180D02*
X171756265Y-99266942D01*
X171756265Y-99266942D02*
X171708646Y-99076466D01*
X171708646Y-99076466D02*
X171708646Y-98838371D01*
X171708646Y-98838371D02*
X171756265Y-98647895D01*
X171756265Y-98647895D02*
X171803884Y-98552657D01*
X171803884Y-98552657D02*
X171851503Y-98505038D01*
X171851503Y-98505038D02*
X171946741Y-98457419D01*
X172708646Y-99457419D02*
X172708646Y-98790752D01*
X172708646Y-98885990D02*
X172756265Y-98838371D01*
X172756265Y-98838371D02*
X172851503Y-98790752D01*
X172851503Y-98790752D02*
X172994360Y-98790752D01*
X172994360Y-98790752D02*
X173089598Y-98838371D01*
X173089598Y-98838371D02*
X173137217Y-98933609D01*
X173137217Y-98933609D02*
X173137217Y-99457419D01*
X173137217Y-98933609D02*
X173184836Y-98838371D01*
X173184836Y-98838371D02*
X173280074Y-98790752D01*
X173280074Y-98790752D02*
X173422931Y-98790752D01*
X173422931Y-98790752D02*
X173518170Y-98838371D01*
X173518170Y-98838371D02*
X173565789Y-98933609D01*
X173565789Y-98933609D02*
X173565789Y-99457419D01*
X174041979Y-99457419D02*
X174041979Y-98790752D01*
X174041979Y-98885990D02*
X174089598Y-98838371D01*
X174089598Y-98838371D02*
X174184836Y-98790752D01*
X174184836Y-98790752D02*
X174327693Y-98790752D01*
X174327693Y-98790752D02*
X174422931Y-98838371D01*
X174422931Y-98838371D02*
X174470550Y-98933609D01*
X174470550Y-98933609D02*
X174470550Y-99457419D01*
X174470550Y-98933609D02*
X174518169Y-98838371D01*
X174518169Y-98838371D02*
X174613407Y-98790752D01*
X174613407Y-98790752D02*
X174756264Y-98790752D01*
X174756264Y-98790752D02*
X174851503Y-98838371D01*
X174851503Y-98838371D02*
X174899122Y-98933609D01*
X174899122Y-98933609D02*
X174899122Y-99457419D01*
X176232455Y-98790752D02*
X176803883Y-99362180D01*
X176803883Y-98790752D02*
X176232455Y-99362180D01*
X178565788Y-98790752D02*
X178565788Y-99457419D01*
X178327693Y-98409800D02*
X178089598Y-99124085D01*
X178089598Y-99124085D02*
X178708645Y-99124085D01*
X179280074Y-98457419D02*
X179375312Y-98457419D01*
X179375312Y-98457419D02*
X179470550Y-98505038D01*
X179470550Y-98505038D02*
X179518169Y-98552657D01*
X179518169Y-98552657D02*
X179565788Y-98647895D01*
X179565788Y-98647895D02*
X179613407Y-98838371D01*
X179613407Y-98838371D02*
X179613407Y-99076466D01*
X179613407Y-99076466D02*
X179565788Y-99266942D01*
X179565788Y-99266942D02*
X179518169Y-99362180D01*
X179518169Y-99362180D02*
X179470550Y-99409800D01*
X179470550Y-99409800D02*
X179375312Y-99457419D01*
X179375312Y-99457419D02*
X179280074Y-99457419D01*
X179280074Y-99457419D02*
X179184836Y-99409800D01*
X179184836Y-99409800D02*
X179137217Y-99362180D01*
X179137217Y-99362180D02*
X179089598Y-99266942D01*
X179089598Y-99266942D02*
X179041979Y-99076466D01*
X179041979Y-99076466D02*
X179041979Y-98838371D01*
X179041979Y-98838371D02*
X179089598Y-98647895D01*
X179089598Y-98647895D02*
X179137217Y-98552657D01*
X179137217Y-98552657D02*
X179184836Y-98505038D01*
X179184836Y-98505038D02*
X179280074Y-98457419D01*
X180041979Y-99457419D02*
X180041979Y-98790752D01*
X180041979Y-98885990D02*
X180089598Y-98838371D01*
X180089598Y-98838371D02*
X180184836Y-98790752D01*
X180184836Y-98790752D02*
X180327693Y-98790752D01*
X180327693Y-98790752D02*
X180422931Y-98838371D01*
X180422931Y-98838371D02*
X180470550Y-98933609D01*
X180470550Y-98933609D02*
X180470550Y-99457419D01*
X180470550Y-98933609D02*
X180518169Y-98838371D01*
X180518169Y-98838371D02*
X180613407Y-98790752D01*
X180613407Y-98790752D02*
X180756264Y-98790752D01*
X180756264Y-98790752D02*
X180851503Y-98838371D01*
X180851503Y-98838371D02*
X180899122Y-98933609D01*
X180899122Y-98933609D02*
X180899122Y-99457419D01*
X181375312Y-99457419D02*
X181375312Y-98790752D01*
X181375312Y-98885990D02*
X181422931Y-98838371D01*
X181422931Y-98838371D02*
X181518169Y-98790752D01*
X181518169Y-98790752D02*
X181661026Y-98790752D01*
X181661026Y-98790752D02*
X181756264Y-98838371D01*
X181756264Y-98838371D02*
X181803883Y-98933609D01*
X181803883Y-98933609D02*
X181803883Y-99457419D01*
X181803883Y-98933609D02*
X181851502Y-98838371D01*
X181851502Y-98838371D02*
X181946740Y-98790752D01*
X181946740Y-98790752D02*
X182089597Y-98790752D01*
X182089597Y-98790752D02*
X182184836Y-98838371D01*
X182184836Y-98838371D02*
X182232455Y-98933609D01*
X182232455Y-98933609D02*
X182232455Y-99457419D01*
D13*
X195274435Y-65037219D02*
X195512530Y-66037219D01*
X195512530Y-66037219D02*
X195703006Y-65322933D01*
X195703006Y-65322933D02*
X195893482Y-66037219D01*
X195893482Y-66037219D02*
X196131578Y-65037219D01*
X196512530Y-66037219D02*
X196512530Y-65370552D01*
X196512530Y-65037219D02*
X196464911Y-65084838D01*
X196464911Y-65084838D02*
X196512530Y-65132457D01*
X196512530Y-65132457D02*
X196560149Y-65084838D01*
X196560149Y-65084838D02*
X196512530Y-65037219D01*
X196512530Y-65037219D02*
X196512530Y-65132457D01*
X197131577Y-66037219D02*
X197036339Y-65989600D01*
X197036339Y-65989600D02*
X196988720Y-65894361D01*
X196988720Y-65894361D02*
X196988720Y-65037219D01*
X197941101Y-66037219D02*
X197941101Y-65037219D01*
X197941101Y-65989600D02*
X197845863Y-66037219D01*
X197845863Y-66037219D02*
X197655387Y-66037219D01*
X197655387Y-66037219D02*
X197560149Y-65989600D01*
X197560149Y-65989600D02*
X197512530Y-65941980D01*
X197512530Y-65941980D02*
X197464911Y-65846742D01*
X197464911Y-65846742D02*
X197464911Y-65561028D01*
X197464911Y-65561028D02*
X197512530Y-65465790D01*
X197512530Y-65465790D02*
X197560149Y-65418171D01*
X197560149Y-65418171D02*
X197655387Y-65370552D01*
X197655387Y-65370552D02*
X197845863Y-65370552D01*
X197845863Y-65370552D02*
X197941101Y-65418171D01*
X198845863Y-65989600D02*
X198750625Y-66037219D01*
X198750625Y-66037219D02*
X198560149Y-66037219D01*
X198560149Y-66037219D02*
X198464911Y-65989600D01*
X198464911Y-65989600D02*
X198417292Y-65941980D01*
X198417292Y-65941980D02*
X198369673Y-65846742D01*
X198369673Y-65846742D02*
X198369673Y-65561028D01*
X198369673Y-65561028D02*
X198417292Y-65465790D01*
X198417292Y-65465790D02*
X198464911Y-65418171D01*
X198464911Y-65418171D02*
X198560149Y-65370552D01*
X198560149Y-65370552D02*
X198750625Y-65370552D01*
X198750625Y-65370552D02*
X198845863Y-65418171D01*
X199703006Y-66037219D02*
X199703006Y-65513409D01*
X199703006Y-65513409D02*
X199655387Y-65418171D01*
X199655387Y-65418171D02*
X199560149Y-65370552D01*
X199560149Y-65370552D02*
X199369673Y-65370552D01*
X199369673Y-65370552D02*
X199274435Y-65418171D01*
X199703006Y-65989600D02*
X199607768Y-66037219D01*
X199607768Y-66037219D02*
X199369673Y-66037219D01*
X199369673Y-66037219D02*
X199274435Y-65989600D01*
X199274435Y-65989600D02*
X199226816Y-65894361D01*
X199226816Y-65894361D02*
X199226816Y-65799123D01*
X199226816Y-65799123D02*
X199274435Y-65703885D01*
X199274435Y-65703885D02*
X199369673Y-65656266D01*
X199369673Y-65656266D02*
X199607768Y-65656266D01*
X199607768Y-65656266D02*
X199703006Y-65608647D01*
X200036340Y-65370552D02*
X200417292Y-65370552D01*
X200179197Y-65037219D02*
X200179197Y-65894361D01*
X200179197Y-65894361D02*
X200226816Y-65989600D01*
X200226816Y-65989600D02*
X200322054Y-66037219D01*
X200322054Y-66037219D02*
X200417292Y-66037219D01*
X202083959Y-66037219D02*
X201750626Y-65561028D01*
X201512531Y-66037219D02*
X201512531Y-65037219D01*
X201512531Y-65037219D02*
X201893483Y-65037219D01*
X201893483Y-65037219D02*
X201988721Y-65084838D01*
X201988721Y-65084838D02*
X202036340Y-65132457D01*
X202036340Y-65132457D02*
X202083959Y-65227695D01*
X202083959Y-65227695D02*
X202083959Y-65370552D01*
X202083959Y-65370552D02*
X202036340Y-65465790D01*
X202036340Y-65465790D02*
X201988721Y-65513409D01*
X201988721Y-65513409D02*
X201893483Y-65561028D01*
X201893483Y-65561028D02*
X201512531Y-65561028D01*
X202655388Y-66037219D02*
X202560150Y-65989600D01*
X202560150Y-65989600D02*
X202512531Y-65941980D01*
X202512531Y-65941980D02*
X202464912Y-65846742D01*
X202464912Y-65846742D02*
X202464912Y-65561028D01*
X202464912Y-65561028D02*
X202512531Y-65465790D01*
X202512531Y-65465790D02*
X202560150Y-65418171D01*
X202560150Y-65418171D02*
X202655388Y-65370552D01*
X202655388Y-65370552D02*
X202798245Y-65370552D01*
X202798245Y-65370552D02*
X202893483Y-65418171D01*
X202893483Y-65418171D02*
X202941102Y-65465790D01*
X202941102Y-65465790D02*
X202988721Y-65561028D01*
X202988721Y-65561028D02*
X202988721Y-65846742D01*
X202988721Y-65846742D02*
X202941102Y-65941980D01*
X202941102Y-65941980D02*
X202893483Y-65989600D01*
X202893483Y-65989600D02*
X202798245Y-66037219D01*
X202798245Y-66037219D02*
X202655388Y-66037219D01*
X203417293Y-66037219D02*
X203417293Y-65037219D01*
X203417293Y-65418171D02*
X203512531Y-65370552D01*
X203512531Y-65370552D02*
X203703007Y-65370552D01*
X203703007Y-65370552D02*
X203798245Y-65418171D01*
X203798245Y-65418171D02*
X203845864Y-65465790D01*
X203845864Y-65465790D02*
X203893483Y-65561028D01*
X203893483Y-65561028D02*
X203893483Y-65846742D01*
X203893483Y-65846742D02*
X203845864Y-65941980D01*
X203845864Y-65941980D02*
X203798245Y-65989600D01*
X203798245Y-65989600D02*
X203703007Y-66037219D01*
X203703007Y-66037219D02*
X203512531Y-66037219D01*
X203512531Y-66037219D02*
X203417293Y-65989600D01*
X204464912Y-66037219D02*
X204369674Y-65989600D01*
X204369674Y-65989600D02*
X204322055Y-65941980D01*
X204322055Y-65941980D02*
X204274436Y-65846742D01*
X204274436Y-65846742D02*
X204274436Y-65561028D01*
X204274436Y-65561028D02*
X204322055Y-65465790D01*
X204322055Y-65465790D02*
X204369674Y-65418171D01*
X204369674Y-65418171D02*
X204464912Y-65370552D01*
X204464912Y-65370552D02*
X204607769Y-65370552D01*
X204607769Y-65370552D02*
X204703007Y-65418171D01*
X204703007Y-65418171D02*
X204750626Y-65465790D01*
X204750626Y-65465790D02*
X204798245Y-65561028D01*
X204798245Y-65561028D02*
X204798245Y-65846742D01*
X204798245Y-65846742D02*
X204750626Y-65941980D01*
X204750626Y-65941980D02*
X204703007Y-65989600D01*
X204703007Y-65989600D02*
X204607769Y-66037219D01*
X204607769Y-66037219D02*
X204464912Y-66037219D01*
X205083960Y-65370552D02*
X205464912Y-65370552D01*
X205226817Y-65037219D02*
X205226817Y-65894361D01*
X205226817Y-65894361D02*
X205274436Y-65989600D01*
X205274436Y-65989600D02*
X205369674Y-66037219D01*
X205369674Y-66037219D02*
X205464912Y-66037219D01*
X205798246Y-66037219D02*
X205798246Y-65370552D01*
X205798246Y-65037219D02*
X205750627Y-65084838D01*
X205750627Y-65084838D02*
X205798246Y-65132457D01*
X205798246Y-65132457D02*
X205845865Y-65084838D01*
X205845865Y-65084838D02*
X205798246Y-65037219D01*
X205798246Y-65037219D02*
X205798246Y-65132457D01*
X206703007Y-65989600D02*
X206607769Y-66037219D01*
X206607769Y-66037219D02*
X206417293Y-66037219D01*
X206417293Y-66037219D02*
X206322055Y-65989600D01*
X206322055Y-65989600D02*
X206274436Y-65941980D01*
X206274436Y-65941980D02*
X206226817Y-65846742D01*
X206226817Y-65846742D02*
X206226817Y-65561028D01*
X206226817Y-65561028D02*
X206274436Y-65465790D01*
X206274436Y-65465790D02*
X206322055Y-65418171D01*
X206322055Y-65418171D02*
X206417293Y-65370552D01*
X206417293Y-65370552D02*
X206607769Y-65370552D01*
X206607769Y-65370552D02*
X206703007Y-65418171D01*
X207083960Y-65989600D02*
X207179198Y-66037219D01*
X207179198Y-66037219D02*
X207369674Y-66037219D01*
X207369674Y-66037219D02*
X207464912Y-65989600D01*
X207464912Y-65989600D02*
X207512531Y-65894361D01*
X207512531Y-65894361D02*
X207512531Y-65846742D01*
X207512531Y-65846742D02*
X207464912Y-65751504D01*
X207464912Y-65751504D02*
X207369674Y-65703885D01*
X207369674Y-65703885D02*
X207226817Y-65703885D01*
X207226817Y-65703885D02*
X207131579Y-65656266D01*
X207131579Y-65656266D02*
X207083960Y-65561028D01*
X207083960Y-65561028D02*
X207083960Y-65513409D01*
X207083960Y-65513409D02*
X207131579Y-65418171D01*
X207131579Y-65418171D02*
X207226817Y-65370552D01*
X207226817Y-65370552D02*
X207369674Y-65370552D01*
X207369674Y-65370552D02*
X207464912Y-65418171D01*
D12*
X210228571Y-96043200D02*
X210114285Y-96005104D01*
X210114285Y-96005104D02*
X209923809Y-96005104D01*
X209923809Y-96005104D02*
X209847618Y-96043200D01*
X209847618Y-96043200D02*
X209809523Y-96081295D01*
X209809523Y-96081295D02*
X209771428Y-96157485D01*
X209771428Y-96157485D02*
X209771428Y-96233676D01*
X209771428Y-96233676D02*
X209809523Y-96309866D01*
X209809523Y-96309866D02*
X209847618Y-96347961D01*
X209847618Y-96347961D02*
X209923809Y-96386057D01*
X209923809Y-96386057D02*
X210076190Y-96424152D01*
X210076190Y-96424152D02*
X210152380Y-96462247D01*
X210152380Y-96462247D02*
X210190475Y-96500342D01*
X210190475Y-96500342D02*
X210228571Y-96576533D01*
X210228571Y-96576533D02*
X210228571Y-96652723D01*
X210228571Y-96652723D02*
X210190475Y-96728914D01*
X210190475Y-96728914D02*
X210152380Y-96767009D01*
X210152380Y-96767009D02*
X210076190Y-96805104D01*
X210076190Y-96805104D02*
X209885713Y-96805104D01*
X209885713Y-96805104D02*
X209771428Y-96767009D01*
X207650951Y-96444033D02*
X206889047Y-96444033D01*
X205110951Y-96444033D02*
X204349047Y-96444033D01*
X204729999Y-96063080D02*
X204729999Y-96824985D01*
X170843200Y-65171428D02*
X170805104Y-65285714D01*
X170805104Y-65285714D02*
X170805104Y-65476190D01*
X170805104Y-65476190D02*
X170843200Y-65552381D01*
X170843200Y-65552381D02*
X170881295Y-65590476D01*
X170881295Y-65590476D02*
X170957485Y-65628571D01*
X170957485Y-65628571D02*
X171033676Y-65628571D01*
X171033676Y-65628571D02*
X171109866Y-65590476D01*
X171109866Y-65590476D02*
X171147961Y-65552381D01*
X171147961Y-65552381D02*
X171186057Y-65476190D01*
X171186057Y-65476190D02*
X171224152Y-65323809D01*
X171224152Y-65323809D02*
X171262247Y-65247619D01*
X171262247Y-65247619D02*
X171300342Y-65209524D01*
X171300342Y-65209524D02*
X171376533Y-65171428D01*
X171376533Y-65171428D02*
X171452723Y-65171428D01*
X171452723Y-65171428D02*
X171528914Y-65209524D01*
X171528914Y-65209524D02*
X171567009Y-65247619D01*
X171567009Y-65247619D02*
X171605104Y-65323809D01*
X171605104Y-65323809D02*
X171605104Y-65514286D01*
X171605104Y-65514286D02*
X171567009Y-65628571D01*
D14*
X194114819Y-82571428D02*
X194114819Y-82000000D01*
X195114819Y-82285714D02*
X194114819Y-82285714D01*
X195067200Y-81285714D02*
X195114819Y-81380952D01*
X195114819Y-81380952D02*
X195114819Y-81571428D01*
X195114819Y-81571428D02*
X195067200Y-81666666D01*
X195067200Y-81666666D02*
X194971961Y-81714285D01*
X194971961Y-81714285D02*
X194591009Y-81714285D01*
X194591009Y-81714285D02*
X194495771Y-81666666D01*
X194495771Y-81666666D02*
X194448152Y-81571428D01*
X194448152Y-81571428D02*
X194448152Y-81380952D01*
X194448152Y-81380952D02*
X194495771Y-81285714D01*
X194495771Y-81285714D02*
X194591009Y-81238095D01*
X194591009Y-81238095D02*
X194686247Y-81238095D01*
X194686247Y-81238095D02*
X194781485Y-81714285D01*
X195067200Y-80428571D02*
X195114819Y-80523809D01*
X195114819Y-80523809D02*
X195114819Y-80714285D01*
X195114819Y-80714285D02*
X195067200Y-80809523D01*
X195067200Y-80809523D02*
X194971961Y-80857142D01*
X194971961Y-80857142D02*
X194591009Y-80857142D01*
X194591009Y-80857142D02*
X194495771Y-80809523D01*
X194495771Y-80809523D02*
X194448152Y-80714285D01*
X194448152Y-80714285D02*
X194448152Y-80523809D01*
X194448152Y-80523809D02*
X194495771Y-80428571D01*
X194495771Y-80428571D02*
X194591009Y-80380952D01*
X194591009Y-80380952D02*
X194686247Y-80380952D01*
X194686247Y-80380952D02*
X194781485Y-80857142D01*
X194448152Y-79952380D02*
X195114819Y-79952380D01*
X194543390Y-79952380D02*
X194495771Y-79904761D01*
X194495771Y-79904761D02*
X194448152Y-79809523D01*
X194448152Y-79809523D02*
X194448152Y-79666666D01*
X194448152Y-79666666D02*
X194495771Y-79571428D01*
X194495771Y-79571428D02*
X194591009Y-79523809D01*
X194591009Y-79523809D02*
X195114819Y-79523809D01*
X195067200Y-79095237D02*
X195114819Y-78999999D01*
X195114819Y-78999999D02*
X195114819Y-78809523D01*
X195114819Y-78809523D02*
X195067200Y-78714285D01*
X195067200Y-78714285D02*
X194971961Y-78666666D01*
X194971961Y-78666666D02*
X194924342Y-78666666D01*
X194924342Y-78666666D02*
X194829104Y-78714285D01*
X194829104Y-78714285D02*
X194781485Y-78809523D01*
X194781485Y-78809523D02*
X194781485Y-78952380D01*
X194781485Y-78952380D02*
X194733866Y-79047618D01*
X194733866Y-79047618D02*
X194638628Y-79095237D01*
X194638628Y-79095237D02*
X194591009Y-79095237D01*
X194591009Y-79095237D02*
X194495771Y-79047618D01*
X194495771Y-79047618D02*
X194448152Y-78952380D01*
X194448152Y-78952380D02*
X194448152Y-78809523D01*
X194448152Y-78809523D02*
X194495771Y-78714285D01*
X194448152Y-78333332D02*
X195114819Y-78095237D01*
X194448152Y-77857142D02*
X195114819Y-78095237D01*
X195114819Y-78095237D02*
X195352914Y-78190475D01*
X195352914Y-78190475D02*
X195400533Y-78238094D01*
X195400533Y-78238094D02*
X195448152Y-78333332D01*
X194448152Y-77047618D02*
X195114819Y-77047618D01*
X194067200Y-77285713D02*
X194781485Y-77523808D01*
X194781485Y-77523808D02*
X194781485Y-76904761D01*
X195019580Y-76523808D02*
X195067200Y-76476189D01*
X195067200Y-76476189D02*
X195114819Y-76523808D01*
X195114819Y-76523808D02*
X195067200Y-76571427D01*
X195067200Y-76571427D02*
X195019580Y-76523808D01*
X195019580Y-76523808D02*
X195114819Y-76523808D01*
X194114819Y-75857142D02*
X194114819Y-75761904D01*
X194114819Y-75761904D02*
X194162438Y-75666666D01*
X194162438Y-75666666D02*
X194210057Y-75619047D01*
X194210057Y-75619047D02*
X194305295Y-75571428D01*
X194305295Y-75571428D02*
X194495771Y-75523809D01*
X194495771Y-75523809D02*
X194733866Y-75523809D01*
X194733866Y-75523809D02*
X194924342Y-75571428D01*
X194924342Y-75571428D02*
X195019580Y-75619047D01*
X195019580Y-75619047D02*
X195067200Y-75666666D01*
X195067200Y-75666666D02*
X195114819Y-75761904D01*
X195114819Y-75761904D02*
X195114819Y-75857142D01*
X195114819Y-75857142D02*
X195067200Y-75952380D01*
X195067200Y-75952380D02*
X195019580Y-75999999D01*
X195019580Y-75999999D02*
X194924342Y-76047618D01*
X194924342Y-76047618D02*
X194733866Y-76095237D01*
X194733866Y-76095237D02*
X194495771Y-76095237D01*
X194495771Y-76095237D02*
X194305295Y-76047618D01*
X194305295Y-76047618D02*
X194210057Y-75999999D01*
X194210057Y-75999999D02*
X194162438Y-75952380D01*
X194162438Y-75952380D02*
X194114819Y-75857142D01*
X181416666Y-79062033D02*
X181416666Y-78362033D01*
X181416666Y-78362033D02*
X181650000Y-78862033D01*
X181650000Y-78862033D02*
X181883333Y-78362033D01*
X181883333Y-78362033D02*
X181883333Y-79062033D01*
X182216666Y-79062033D02*
X182216666Y-78362033D01*
X182549999Y-79062033D02*
X182549999Y-78362033D01*
X182549999Y-78362033D02*
X182783333Y-78862033D01*
X182783333Y-78862033D02*
X183016666Y-78362033D01*
X183016666Y-78362033D02*
X183016666Y-79062033D01*
X183283333Y-78362033D02*
X183749999Y-79062033D01*
X183749999Y-78362033D02*
X183283333Y-79062033D01*
X184416666Y-79062033D02*
X184183333Y-78728700D01*
X184016666Y-79062033D02*
X184016666Y-78362033D01*
X184016666Y-78362033D02*
X184283333Y-78362033D01*
X184283333Y-78362033D02*
X184350000Y-78395366D01*
X184350000Y-78395366D02*
X184383333Y-78428700D01*
X184383333Y-78428700D02*
X184416666Y-78495366D01*
X184416666Y-78495366D02*
X184416666Y-78595366D01*
X184416666Y-78595366D02*
X184383333Y-78662033D01*
X184383333Y-78662033D02*
X184350000Y-78695366D01*
X184350000Y-78695366D02*
X184283333Y-78728700D01*
X184283333Y-78728700D02*
X184016666Y-78728700D01*
X184616666Y-78362033D02*
X185016666Y-78362033D01*
X184816666Y-79062033D02*
X184816666Y-78362033D01*
X185616666Y-79062033D02*
X185216666Y-79062033D01*
X185416666Y-79062033D02*
X185416666Y-78362033D01*
X185416666Y-78362033D02*
X185349999Y-78462033D01*
X185349999Y-78462033D02*
X185283333Y-78528700D01*
X185283333Y-78528700D02*
X185216666Y-78562033D01*
X186050000Y-78362033D02*
X186116666Y-78362033D01*
X186116666Y-78362033D02*
X186183333Y-78395366D01*
X186183333Y-78395366D02*
X186216666Y-78428700D01*
X186216666Y-78428700D02*
X186250000Y-78495366D01*
X186250000Y-78495366D02*
X186283333Y-78628700D01*
X186283333Y-78628700D02*
X186283333Y-78795366D01*
X186283333Y-78795366D02*
X186250000Y-78928700D01*
X186250000Y-78928700D02*
X186216666Y-78995366D01*
X186216666Y-78995366D02*
X186183333Y-79028700D01*
X186183333Y-79028700D02*
X186116666Y-79062033D01*
X186116666Y-79062033D02*
X186050000Y-79062033D01*
X186050000Y-79062033D02*
X185983333Y-79028700D01*
X185983333Y-79028700D02*
X185950000Y-78995366D01*
X185950000Y-78995366D02*
X185916666Y-78928700D01*
X185916666Y-78928700D02*
X185883333Y-78795366D01*
X185883333Y-78795366D02*
X185883333Y-78628700D01*
X185883333Y-78628700D02*
X185916666Y-78495366D01*
X185916666Y-78495366D02*
X185950000Y-78428700D01*
X185950000Y-78428700D02*
X185983333Y-78395366D01*
X185983333Y-78395366D02*
X186050000Y-78362033D01*
X186883333Y-78362033D02*
X186750000Y-78362033D01*
X186750000Y-78362033D02*
X186683333Y-78395366D01*
X186683333Y-78395366D02*
X186650000Y-78428700D01*
X186650000Y-78428700D02*
X186583333Y-78528700D01*
X186583333Y-78528700D02*
X186550000Y-78662033D01*
X186550000Y-78662033D02*
X186550000Y-78928700D01*
X186550000Y-78928700D02*
X186583333Y-78995366D01*
X186583333Y-78995366D02*
X186616667Y-79028700D01*
X186616667Y-79028700D02*
X186683333Y-79062033D01*
X186683333Y-79062033D02*
X186816667Y-79062033D01*
X186816667Y-79062033D02*
X186883333Y-79028700D01*
X186883333Y-79028700D02*
X186916667Y-78995366D01*
X186916667Y-78995366D02*
X186950000Y-78928700D01*
X186950000Y-78928700D02*
X186950000Y-78762033D01*
X186950000Y-78762033D02*
X186916667Y-78695366D01*
X186916667Y-78695366D02*
X186883333Y-78662033D01*
X186883333Y-78662033D02*
X186816667Y-78628700D01*
X186816667Y-78628700D02*
X186683333Y-78628700D01*
X186683333Y-78628700D02*
X186616667Y-78662033D01*
X186616667Y-78662033D02*
X186583333Y-78695366D01*
X186583333Y-78695366D02*
X186550000Y-78762033D01*
X187216667Y-78428700D02*
X187250000Y-78395366D01*
X187250000Y-78395366D02*
X187316667Y-78362033D01*
X187316667Y-78362033D02*
X187483334Y-78362033D01*
X187483334Y-78362033D02*
X187550000Y-78395366D01*
X187550000Y-78395366D02*
X187583334Y-78428700D01*
X187583334Y-78428700D02*
X187616667Y-78495366D01*
X187616667Y-78495366D02*
X187616667Y-78562033D01*
X187616667Y-78562033D02*
X187583334Y-78662033D01*
X187583334Y-78662033D02*
X187183334Y-79062033D01*
X187183334Y-79062033D02*
X187616667Y-79062033D01*
X183099999Y-77538033D02*
X183099999Y-76838033D01*
X183099999Y-76838033D02*
X183266666Y-76838033D01*
X183266666Y-76838033D02*
X183366666Y-76871366D01*
X183366666Y-76871366D02*
X183433333Y-76938033D01*
X183433333Y-76938033D02*
X183466666Y-77004700D01*
X183466666Y-77004700D02*
X183499999Y-77138033D01*
X183499999Y-77138033D02*
X183499999Y-77238033D01*
X183499999Y-77238033D02*
X183466666Y-77371366D01*
X183466666Y-77371366D02*
X183433333Y-77438033D01*
X183433333Y-77438033D02*
X183366666Y-77504700D01*
X183366666Y-77504700D02*
X183266666Y-77538033D01*
X183266666Y-77538033D02*
X183099999Y-77538033D01*
X183699999Y-76838033D02*
X183933333Y-77538033D01*
X183933333Y-77538033D02*
X184166666Y-76838033D01*
X184733333Y-77538033D02*
X184399999Y-77538033D01*
X184399999Y-77538033D02*
X184399999Y-76838033D01*
X185266666Y-76838033D02*
X185133333Y-76838033D01*
X185133333Y-76838033D02*
X185066666Y-76871366D01*
X185066666Y-76871366D02*
X185033333Y-76904700D01*
X185033333Y-76904700D02*
X184966666Y-77004700D01*
X184966666Y-77004700D02*
X184933333Y-77138033D01*
X184933333Y-77138033D02*
X184933333Y-77404700D01*
X184933333Y-77404700D02*
X184966666Y-77471366D01*
X184966666Y-77471366D02*
X185000000Y-77504700D01*
X185000000Y-77504700D02*
X185066666Y-77538033D01*
X185066666Y-77538033D02*
X185200000Y-77538033D01*
X185200000Y-77538033D02*
X185266666Y-77504700D01*
X185266666Y-77504700D02*
X185300000Y-77471366D01*
X185300000Y-77471366D02*
X185333333Y-77404700D01*
X185333333Y-77404700D02*
X185333333Y-77238033D01*
X185333333Y-77238033D02*
X185300000Y-77171366D01*
X185300000Y-77171366D02*
X185266666Y-77138033D01*
X185266666Y-77138033D02*
X185200000Y-77104700D01*
X185200000Y-77104700D02*
X185066666Y-77104700D01*
X185066666Y-77104700D02*
X185000000Y-77138033D01*
X185000000Y-77138033D02*
X184966666Y-77171366D01*
X184966666Y-77171366D02*
X184933333Y-77238033D01*
X185600000Y-77338033D02*
X185933333Y-77338033D01*
X185533333Y-77538033D02*
X185766667Y-76838033D01*
X185766667Y-76838033D02*
X186000000Y-77538033D01*
D12*
X171244033Y-67749048D02*
X171244033Y-68510953D01*
X171244033Y-70289048D02*
X171244033Y-71050953D01*
X170863080Y-70670000D02*
X171624985Y-70670000D01*
X214153533Y-72989048D02*
X214153533Y-73750953D01*
X213772580Y-73370000D02*
X214534485Y-73370000D01*
X214153533Y-70449048D02*
X214153533Y-71210953D01*
X205604247Y-94328095D02*
X205604247Y-94851904D01*
X205604247Y-94851904D02*
X204937580Y-94328095D01*
X204937580Y-94328095D02*
X204937580Y-94851904D01*
X211909009Y-77009528D02*
X211885200Y-76985719D01*
X211885200Y-76985719D02*
X211861390Y-76914290D01*
X211861390Y-76914290D02*
X211861390Y-76866671D01*
X211861390Y-76866671D02*
X211885200Y-76795243D01*
X211885200Y-76795243D02*
X211932819Y-76747624D01*
X211932819Y-76747624D02*
X211980438Y-76723814D01*
X211980438Y-76723814D02*
X212075676Y-76700005D01*
X212075676Y-76700005D02*
X212147104Y-76700005D01*
X212147104Y-76700005D02*
X212242342Y-76723814D01*
X212242342Y-76723814D02*
X212289961Y-76747624D01*
X212289961Y-76747624D02*
X212337580Y-76795243D01*
X212337580Y-76795243D02*
X212361390Y-76866671D01*
X212361390Y-76866671D02*
X212361390Y-76914290D01*
X212361390Y-76914290D02*
X212337580Y-76985719D01*
X212337580Y-76985719D02*
X212313771Y-77009528D01*
X211861390Y-77223814D02*
X212361390Y-77223814D01*
X211861390Y-77438100D02*
X212123295Y-77438100D01*
X212123295Y-77438100D02*
X212170914Y-77414290D01*
X212170914Y-77414290D02*
X212194723Y-77366671D01*
X212194723Y-77366671D02*
X212194723Y-77295243D01*
X212194723Y-77295243D02*
X212170914Y-77247624D01*
X212170914Y-77247624D02*
X212147104Y-77223814D01*
X211885200Y-77866671D02*
X211861390Y-77819052D01*
X211861390Y-77819052D02*
X211861390Y-77723814D01*
X211861390Y-77723814D02*
X211885200Y-77676195D01*
X211885200Y-77676195D02*
X211932819Y-77652386D01*
X211932819Y-77652386D02*
X212123295Y-77652386D01*
X212123295Y-77652386D02*
X212170914Y-77676195D01*
X212170914Y-77676195D02*
X212194723Y-77723814D01*
X212194723Y-77723814D02*
X212194723Y-77819052D01*
X212194723Y-77819052D02*
X212170914Y-77866671D01*
X212170914Y-77866671D02*
X212123295Y-77890481D01*
X212123295Y-77890481D02*
X212075676Y-77890481D01*
X212075676Y-77890481D02*
X212028057Y-77652386D01*
X211885200Y-78319052D02*
X211861390Y-78271433D01*
X211861390Y-78271433D02*
X211861390Y-78176195D01*
X211861390Y-78176195D02*
X211885200Y-78128576D01*
X211885200Y-78128576D02*
X211909009Y-78104766D01*
X211909009Y-78104766D02*
X211956628Y-78080957D01*
X211956628Y-78080957D02*
X212099485Y-78080957D01*
X212099485Y-78080957D02*
X212147104Y-78104766D01*
X212147104Y-78104766D02*
X212170914Y-78128576D01*
X212170914Y-78128576D02*
X212194723Y-78176195D01*
X212194723Y-78176195D02*
X212194723Y-78271433D01*
X212194723Y-78271433D02*
X212170914Y-78319052D01*
X211861390Y-78533337D02*
X212361390Y-78533337D01*
X212051866Y-78580956D02*
X211861390Y-78723813D01*
X212194723Y-78723813D02*
X212004247Y-78533337D01*
X212194723Y-79247623D02*
X212194723Y-79438099D01*
X212361390Y-79319051D02*
X211932819Y-79319051D01*
X211932819Y-79319051D02*
X211885200Y-79342861D01*
X211885200Y-79342861D02*
X211861390Y-79390480D01*
X211861390Y-79390480D02*
X211861390Y-79438099D01*
X211861390Y-79604765D02*
X212361390Y-79604765D01*
X211861390Y-79819051D02*
X212123295Y-79819051D01*
X212123295Y-79819051D02*
X212170914Y-79795241D01*
X212170914Y-79795241D02*
X212194723Y-79747622D01*
X212194723Y-79747622D02*
X212194723Y-79676194D01*
X212194723Y-79676194D02*
X212170914Y-79628575D01*
X212170914Y-79628575D02*
X212147104Y-79604765D01*
X211885200Y-80247622D02*
X211861390Y-80200003D01*
X211861390Y-80200003D02*
X211861390Y-80104765D01*
X211861390Y-80104765D02*
X211885200Y-80057146D01*
X211885200Y-80057146D02*
X211932819Y-80033337D01*
X211932819Y-80033337D02*
X212123295Y-80033337D01*
X212123295Y-80033337D02*
X212170914Y-80057146D01*
X212170914Y-80057146D02*
X212194723Y-80104765D01*
X212194723Y-80104765D02*
X212194723Y-80200003D01*
X212194723Y-80200003D02*
X212170914Y-80247622D01*
X212170914Y-80247622D02*
X212123295Y-80271432D01*
X212123295Y-80271432D02*
X212075676Y-80271432D01*
X212075676Y-80271432D02*
X212028057Y-80033337D01*
X211861390Y-81080955D02*
X212361390Y-81080955D01*
X211885200Y-81080955D02*
X211861390Y-81033336D01*
X211861390Y-81033336D02*
X211861390Y-80938098D01*
X211861390Y-80938098D02*
X211885200Y-80890479D01*
X211885200Y-80890479D02*
X211909009Y-80866669D01*
X211909009Y-80866669D02*
X211956628Y-80842860D01*
X211956628Y-80842860D02*
X212099485Y-80842860D01*
X212099485Y-80842860D02*
X212147104Y-80866669D01*
X212147104Y-80866669D02*
X212170914Y-80890479D01*
X212170914Y-80890479D02*
X212194723Y-80938098D01*
X212194723Y-80938098D02*
X212194723Y-81033336D01*
X212194723Y-81033336D02*
X212170914Y-81080955D01*
X211861390Y-81319050D02*
X212194723Y-81319050D01*
X212361390Y-81319050D02*
X212337580Y-81295241D01*
X212337580Y-81295241D02*
X212313771Y-81319050D01*
X212313771Y-81319050D02*
X212337580Y-81342860D01*
X212337580Y-81342860D02*
X212361390Y-81319050D01*
X212361390Y-81319050D02*
X212313771Y-81319050D01*
X211861390Y-81557145D02*
X212194723Y-81557145D01*
X212099485Y-81557145D02*
X212147104Y-81580955D01*
X212147104Y-81580955D02*
X212170914Y-81604764D01*
X212170914Y-81604764D02*
X212194723Y-81652383D01*
X212194723Y-81652383D02*
X212194723Y-81700002D01*
X211885200Y-82057145D02*
X211861390Y-82009526D01*
X211861390Y-82009526D02*
X211861390Y-81914288D01*
X211861390Y-81914288D02*
X211885200Y-81866669D01*
X211885200Y-81866669D02*
X211932819Y-81842860D01*
X211932819Y-81842860D02*
X212123295Y-81842860D01*
X212123295Y-81842860D02*
X212170914Y-81866669D01*
X212170914Y-81866669D02*
X212194723Y-81914288D01*
X212194723Y-81914288D02*
X212194723Y-82009526D01*
X212194723Y-82009526D02*
X212170914Y-82057145D01*
X212170914Y-82057145D02*
X212123295Y-82080955D01*
X212123295Y-82080955D02*
X212075676Y-82080955D01*
X212075676Y-82080955D02*
X212028057Y-81842860D01*
X211885200Y-82509526D02*
X211861390Y-82461907D01*
X211861390Y-82461907D02*
X211861390Y-82366669D01*
X211861390Y-82366669D02*
X211885200Y-82319050D01*
X211885200Y-82319050D02*
X211909009Y-82295240D01*
X211909009Y-82295240D02*
X211956628Y-82271431D01*
X211956628Y-82271431D02*
X212099485Y-82271431D01*
X212099485Y-82271431D02*
X212147104Y-82295240D01*
X212147104Y-82295240D02*
X212170914Y-82319050D01*
X212170914Y-82319050D02*
X212194723Y-82366669D01*
X212194723Y-82366669D02*
X212194723Y-82461907D01*
X212194723Y-82461907D02*
X212170914Y-82509526D01*
X212194723Y-82652383D02*
X212194723Y-82842859D01*
X212361390Y-82723811D02*
X211932819Y-82723811D01*
X211932819Y-82723811D02*
X211885200Y-82747621D01*
X211885200Y-82747621D02*
X211861390Y-82795240D01*
X211861390Y-82795240D02*
X211861390Y-82842859D01*
X211861390Y-83009525D02*
X212194723Y-83009525D01*
X212361390Y-83009525D02*
X212337580Y-82985716D01*
X212337580Y-82985716D02*
X212313771Y-83009525D01*
X212313771Y-83009525D02*
X212337580Y-83033335D01*
X212337580Y-83033335D02*
X212361390Y-83009525D01*
X212361390Y-83009525D02*
X212313771Y-83009525D01*
X211861390Y-83319049D02*
X211885200Y-83271430D01*
X211885200Y-83271430D02*
X211909009Y-83247620D01*
X211909009Y-83247620D02*
X211956628Y-83223811D01*
X211956628Y-83223811D02*
X212099485Y-83223811D01*
X212099485Y-83223811D02*
X212147104Y-83247620D01*
X212147104Y-83247620D02*
X212170914Y-83271430D01*
X212170914Y-83271430D02*
X212194723Y-83319049D01*
X212194723Y-83319049D02*
X212194723Y-83390477D01*
X212194723Y-83390477D02*
X212170914Y-83438096D01*
X212170914Y-83438096D02*
X212147104Y-83461906D01*
X212147104Y-83461906D02*
X212099485Y-83485715D01*
X212099485Y-83485715D02*
X211956628Y-83485715D01*
X211956628Y-83485715D02*
X211909009Y-83461906D01*
X211909009Y-83461906D02*
X211885200Y-83438096D01*
X211885200Y-83438096D02*
X211861390Y-83390477D01*
X211861390Y-83390477D02*
X211861390Y-83319049D01*
X212194723Y-83700001D02*
X211861390Y-83700001D01*
X212147104Y-83700001D02*
X212170914Y-83723811D01*
X212170914Y-83723811D02*
X212194723Y-83771430D01*
X212194723Y-83771430D02*
X212194723Y-83842858D01*
X212194723Y-83842858D02*
X212170914Y-83890477D01*
X212170914Y-83890477D02*
X212123295Y-83914287D01*
X212123295Y-83914287D02*
X211861390Y-83914287D01*
X211861390Y-84604763D02*
X211885200Y-84557144D01*
X211885200Y-84557144D02*
X211909009Y-84533334D01*
X211909009Y-84533334D02*
X211956628Y-84509525D01*
X211956628Y-84509525D02*
X212099485Y-84509525D01*
X212099485Y-84509525D02*
X212147104Y-84533334D01*
X212147104Y-84533334D02*
X212170914Y-84557144D01*
X212170914Y-84557144D02*
X212194723Y-84604763D01*
X212194723Y-84604763D02*
X212194723Y-84676191D01*
X212194723Y-84676191D02*
X212170914Y-84723810D01*
X212170914Y-84723810D02*
X212147104Y-84747620D01*
X212147104Y-84747620D02*
X212099485Y-84771429D01*
X212099485Y-84771429D02*
X211956628Y-84771429D01*
X211956628Y-84771429D02*
X211909009Y-84747620D01*
X211909009Y-84747620D02*
X211885200Y-84723810D01*
X211885200Y-84723810D02*
X211861390Y-84676191D01*
X211861390Y-84676191D02*
X211861390Y-84604763D01*
X212194723Y-84914287D02*
X212194723Y-85104763D01*
X211861390Y-84985715D02*
X212289961Y-84985715D01*
X212289961Y-84985715D02*
X212337580Y-85009525D01*
X212337580Y-85009525D02*
X212361390Y-85057144D01*
X212361390Y-85057144D02*
X212361390Y-85104763D01*
X212194723Y-85580953D02*
X212194723Y-85771429D01*
X212361390Y-85652381D02*
X211932819Y-85652381D01*
X211932819Y-85652381D02*
X211885200Y-85676191D01*
X211885200Y-85676191D02*
X211861390Y-85723810D01*
X211861390Y-85723810D02*
X211861390Y-85771429D01*
X211861390Y-85938095D02*
X212361390Y-85938095D01*
X211861390Y-86152381D02*
X212123295Y-86152381D01*
X212123295Y-86152381D02*
X212170914Y-86128571D01*
X212170914Y-86128571D02*
X212194723Y-86080952D01*
X212194723Y-86080952D02*
X212194723Y-86009524D01*
X212194723Y-86009524D02*
X212170914Y-85961905D01*
X212170914Y-85961905D02*
X212147104Y-85938095D01*
X211885200Y-86580952D02*
X211861390Y-86533333D01*
X211861390Y-86533333D02*
X211861390Y-86438095D01*
X211861390Y-86438095D02*
X211885200Y-86390476D01*
X211885200Y-86390476D02*
X211932819Y-86366667D01*
X211932819Y-86366667D02*
X212123295Y-86366667D01*
X212123295Y-86366667D02*
X212170914Y-86390476D01*
X212170914Y-86390476D02*
X212194723Y-86438095D01*
X212194723Y-86438095D02*
X212194723Y-86533333D01*
X212194723Y-86533333D02*
X212170914Y-86580952D01*
X212170914Y-86580952D02*
X212123295Y-86604762D01*
X212123295Y-86604762D02*
X212075676Y-86604762D01*
X212075676Y-86604762D02*
X212028057Y-86366667D01*
X212194723Y-87128571D02*
X212194723Y-87319047D01*
X212361390Y-87199999D02*
X211932819Y-87199999D01*
X211932819Y-87199999D02*
X211885200Y-87223809D01*
X211885200Y-87223809D02*
X211861390Y-87271428D01*
X211861390Y-87271428D02*
X211861390Y-87319047D01*
X211885200Y-87676189D02*
X211861390Y-87628570D01*
X211861390Y-87628570D02*
X211861390Y-87533332D01*
X211861390Y-87533332D02*
X211885200Y-87485713D01*
X211885200Y-87485713D02*
X211932819Y-87461904D01*
X211932819Y-87461904D02*
X212123295Y-87461904D01*
X212123295Y-87461904D02*
X212170914Y-87485713D01*
X212170914Y-87485713D02*
X212194723Y-87533332D01*
X212194723Y-87533332D02*
X212194723Y-87628570D01*
X212194723Y-87628570D02*
X212170914Y-87676189D01*
X212170914Y-87676189D02*
X212123295Y-87699999D01*
X212123295Y-87699999D02*
X212075676Y-87699999D01*
X212075676Y-87699999D02*
X212028057Y-87461904D01*
X211861390Y-87866665D02*
X212194723Y-88128570D01*
X212194723Y-87866665D02*
X211861390Y-88128570D01*
X212194723Y-88247618D02*
X212194723Y-88438094D01*
X212361390Y-88319046D02*
X211932819Y-88319046D01*
X211932819Y-88319046D02*
X211885200Y-88342856D01*
X211885200Y-88342856D02*
X211861390Y-88390475D01*
X211861390Y-88390475D02*
X211861390Y-88438094D01*
X212361390Y-88961903D02*
X212266152Y-88961903D01*
X212361390Y-89152379D02*
X212266152Y-89152379D01*
X211861390Y-89366664D02*
X212361390Y-89366664D01*
X212123295Y-89366664D02*
X212123295Y-89652378D01*
X211861390Y-89652378D02*
X212361390Y-89652378D01*
X212361390Y-89842855D02*
X212361390Y-90152379D01*
X212361390Y-90152379D02*
X212170914Y-89985712D01*
X212170914Y-89985712D02*
X212170914Y-90057141D01*
X212170914Y-90057141D02*
X212147104Y-90104760D01*
X212147104Y-90104760D02*
X212123295Y-90128569D01*
X212123295Y-90128569D02*
X212075676Y-90152379D01*
X212075676Y-90152379D02*
X211956628Y-90152379D01*
X211956628Y-90152379D02*
X211909009Y-90128569D01*
X211909009Y-90128569D02*
X211885200Y-90104760D01*
X211885200Y-90104760D02*
X211861390Y-90057141D01*
X211861390Y-90057141D02*
X211861390Y-89914284D01*
X211861390Y-89914284D02*
X211885200Y-89866665D01*
X211885200Y-89866665D02*
X211909009Y-89842855D01*
X211861390Y-90604759D02*
X211861390Y-90366664D01*
X211861390Y-90366664D02*
X212361390Y-90366664D01*
X211861390Y-90771426D02*
X212361390Y-90771426D01*
X211885200Y-90985712D02*
X211861390Y-91057140D01*
X211861390Y-91057140D02*
X211861390Y-91176188D01*
X211861390Y-91176188D02*
X211885200Y-91223807D01*
X211885200Y-91223807D02*
X211909009Y-91247616D01*
X211909009Y-91247616D02*
X211956628Y-91271426D01*
X211956628Y-91271426D02*
X212004247Y-91271426D01*
X212004247Y-91271426D02*
X212051866Y-91247616D01*
X212051866Y-91247616D02*
X212075676Y-91223807D01*
X212075676Y-91223807D02*
X212099485Y-91176188D01*
X212099485Y-91176188D02*
X212123295Y-91080950D01*
X212123295Y-91080950D02*
X212147104Y-91033331D01*
X212147104Y-91033331D02*
X212170914Y-91009521D01*
X212170914Y-91009521D02*
X212218533Y-90985712D01*
X212218533Y-90985712D02*
X212266152Y-90985712D01*
X212266152Y-90985712D02*
X212313771Y-91009521D01*
X212313771Y-91009521D02*
X212337580Y-91033331D01*
X212337580Y-91033331D02*
X212361390Y-91080950D01*
X212361390Y-91080950D02*
X212361390Y-91199997D01*
X212361390Y-91199997D02*
X212337580Y-91271426D01*
X212361390Y-91438092D02*
X212361390Y-91747616D01*
X212361390Y-91747616D02*
X212170914Y-91580949D01*
X212170914Y-91580949D02*
X212170914Y-91652378D01*
X212170914Y-91652378D02*
X212147104Y-91699997D01*
X212147104Y-91699997D02*
X212123295Y-91723806D01*
X212123295Y-91723806D02*
X212075676Y-91747616D01*
X212075676Y-91747616D02*
X211956628Y-91747616D01*
X211956628Y-91747616D02*
X211909009Y-91723806D01*
X211909009Y-91723806D02*
X211885200Y-91699997D01*
X211885200Y-91699997D02*
X211861390Y-91652378D01*
X211861390Y-91652378D02*
X211861390Y-91509521D01*
X211861390Y-91509521D02*
X211885200Y-91461902D01*
X211885200Y-91461902D02*
X211909009Y-91438092D01*
X212361390Y-91914282D02*
X212361390Y-92223806D01*
X212361390Y-92223806D02*
X212170914Y-92057139D01*
X212170914Y-92057139D02*
X212170914Y-92128568D01*
X212170914Y-92128568D02*
X212147104Y-92176187D01*
X212147104Y-92176187D02*
X212123295Y-92199996D01*
X212123295Y-92199996D02*
X212075676Y-92223806D01*
X212075676Y-92223806D02*
X211956628Y-92223806D01*
X211956628Y-92223806D02*
X211909009Y-92199996D01*
X211909009Y-92199996D02*
X211885200Y-92176187D01*
X211885200Y-92176187D02*
X211861390Y-92128568D01*
X211861390Y-92128568D02*
X211861390Y-91985711D01*
X211861390Y-91985711D02*
X211885200Y-91938092D01*
X211885200Y-91938092D02*
X211909009Y-91914282D01*
X211861390Y-92699996D02*
X211861390Y-92414282D01*
X211861390Y-92557139D02*
X212361390Y-92557139D01*
X212361390Y-92557139D02*
X212289961Y-92509520D01*
X212289961Y-92509520D02*
X212242342Y-92461901D01*
X212242342Y-92461901D02*
X212218533Y-92414282D01*
X211861390Y-92914281D02*
X212361390Y-92914281D01*
X212361390Y-92914281D02*
X212361390Y-93033329D01*
X212361390Y-93033329D02*
X212337580Y-93104757D01*
X212337580Y-93104757D02*
X212289961Y-93152376D01*
X212289961Y-93152376D02*
X212242342Y-93176186D01*
X212242342Y-93176186D02*
X212147104Y-93199995D01*
X212147104Y-93199995D02*
X212075676Y-93199995D01*
X212075676Y-93199995D02*
X211980438Y-93176186D01*
X211980438Y-93176186D02*
X211932819Y-93152376D01*
X211932819Y-93152376D02*
X211885200Y-93104757D01*
X211885200Y-93104757D02*
X211861390Y-93033329D01*
X211861390Y-93033329D02*
X211861390Y-92914281D01*
X211861390Y-93652376D02*
X211861390Y-93414281D01*
X211861390Y-93414281D02*
X212361390Y-93414281D01*
X212361390Y-93795234D02*
X212266152Y-93795234D01*
X212361390Y-93985710D02*
X212266152Y-93985710D01*
X211909009Y-94199995D02*
X211885200Y-94223805D01*
X211885200Y-94223805D02*
X211861390Y-94199995D01*
X211861390Y-94199995D02*
X211885200Y-94176186D01*
X211885200Y-94176186D02*
X211909009Y-94199995D01*
X211909009Y-94199995D02*
X211861390Y-94199995D01*
X212051866Y-94199995D02*
X212337580Y-94176186D01*
X212337580Y-94176186D02*
X212361390Y-94199995D01*
X212361390Y-94199995D02*
X212337580Y-94223805D01*
X212337580Y-94223805D02*
X212051866Y-94199995D01*
X212051866Y-94199995D02*
X212361390Y-94199995D01*
X211909009Y-94438090D02*
X211885200Y-94461900D01*
X211885200Y-94461900D02*
X211861390Y-94438090D01*
X211861390Y-94438090D02*
X211885200Y-94414281D01*
X211885200Y-94414281D02*
X211909009Y-94438090D01*
X211909009Y-94438090D02*
X211861390Y-94438090D01*
X212051866Y-94438090D02*
X212337580Y-94414281D01*
X212337580Y-94414281D02*
X212361390Y-94438090D01*
X212361390Y-94438090D02*
X212337580Y-94461900D01*
X212337580Y-94461900D02*
X212051866Y-94438090D01*
X212051866Y-94438090D02*
X212361390Y-94438090D01*
X211909009Y-94676185D02*
X211885200Y-94699995D01*
X211885200Y-94699995D02*
X211861390Y-94676185D01*
X211861390Y-94676185D02*
X211885200Y-94652376D01*
X211885200Y-94652376D02*
X211909009Y-94676185D01*
X211909009Y-94676185D02*
X211861390Y-94676185D01*
X212051866Y-94676185D02*
X212337580Y-94652376D01*
X212337580Y-94652376D02*
X212361390Y-94676185D01*
X212361390Y-94676185D02*
X212337580Y-94699995D01*
X212337580Y-94699995D02*
X212051866Y-94676185D01*
X212051866Y-94676185D02*
X212361390Y-94676185D01*
D15*
X213091258Y-80561943D02*
X214310458Y-80561943D01*
X213729887Y-80561943D02*
X213729887Y-81258629D01*
X213091258Y-81258629D02*
X214310458Y-81258629D01*
X214310458Y-81723086D02*
X214310458Y-82477829D01*
X214310458Y-82477829D02*
X213846001Y-82071429D01*
X213846001Y-82071429D02*
X213846001Y-82245600D01*
X213846001Y-82245600D02*
X213787944Y-82361715D01*
X213787944Y-82361715D02*
X213729887Y-82419772D01*
X213729887Y-82419772D02*
X213613773Y-82477829D01*
X213613773Y-82477829D02*
X213323487Y-82477829D01*
X213323487Y-82477829D02*
X213207373Y-82419772D01*
X213207373Y-82419772D02*
X213149316Y-82361715D01*
X213149316Y-82361715D02*
X213091258Y-82245600D01*
X213091258Y-82245600D02*
X213091258Y-81897257D01*
X213091258Y-81897257D02*
X213149316Y-81781143D01*
X213149316Y-81781143D02*
X213207373Y-81723086D01*
X213091258Y-83580915D02*
X213091258Y-83000343D01*
X213091258Y-83000343D02*
X214310458Y-83000343D01*
X213091258Y-83987314D02*
X214310458Y-83987314D01*
X213149316Y-84509828D02*
X213091258Y-84684000D01*
X213091258Y-84684000D02*
X213091258Y-84974285D01*
X213091258Y-84974285D02*
X213149316Y-85090400D01*
X213149316Y-85090400D02*
X213207373Y-85148457D01*
X213207373Y-85148457D02*
X213323487Y-85206514D01*
X213323487Y-85206514D02*
X213439601Y-85206514D01*
X213439601Y-85206514D02*
X213555716Y-85148457D01*
X213555716Y-85148457D02*
X213613773Y-85090400D01*
X213613773Y-85090400D02*
X213671830Y-84974285D01*
X213671830Y-84974285D02*
X213729887Y-84742057D01*
X213729887Y-84742057D02*
X213787944Y-84625942D01*
X213787944Y-84625942D02*
X213846001Y-84567885D01*
X213846001Y-84567885D02*
X213962116Y-84509828D01*
X213962116Y-84509828D02*
X214078230Y-84509828D01*
X214078230Y-84509828D02*
X214194344Y-84567885D01*
X214194344Y-84567885D02*
X214252401Y-84625942D01*
X214252401Y-84625942D02*
X214310458Y-84742057D01*
X214310458Y-84742057D02*
X214310458Y-85032342D01*
X214310458Y-85032342D02*
X214252401Y-85206514D01*
X214310458Y-85612914D02*
X214310458Y-86367657D01*
X214310458Y-86367657D02*
X213846001Y-85961257D01*
X213846001Y-85961257D02*
X213846001Y-86135428D01*
X213846001Y-86135428D02*
X213787944Y-86251543D01*
X213787944Y-86251543D02*
X213729887Y-86309600D01*
X213729887Y-86309600D02*
X213613773Y-86367657D01*
X213613773Y-86367657D02*
X213323487Y-86367657D01*
X213323487Y-86367657D02*
X213207373Y-86309600D01*
X213207373Y-86309600D02*
X213149316Y-86251543D01*
X213149316Y-86251543D02*
X213091258Y-86135428D01*
X213091258Y-86135428D02*
X213091258Y-85787085D01*
X213091258Y-85787085D02*
X213149316Y-85670971D01*
X213149316Y-85670971D02*
X213207373Y-85612914D01*
X214310458Y-86774057D02*
X214310458Y-87528800D01*
X214310458Y-87528800D02*
X213846001Y-87122400D01*
X213846001Y-87122400D02*
X213846001Y-87296571D01*
X213846001Y-87296571D02*
X213787944Y-87412686D01*
X213787944Y-87412686D02*
X213729887Y-87470743D01*
X213729887Y-87470743D02*
X213613773Y-87528800D01*
X213613773Y-87528800D02*
X213323487Y-87528800D01*
X213323487Y-87528800D02*
X213207373Y-87470743D01*
X213207373Y-87470743D02*
X213149316Y-87412686D01*
X213149316Y-87412686D02*
X213091258Y-87296571D01*
X213091258Y-87296571D02*
X213091258Y-86948228D01*
X213091258Y-86948228D02*
X213149316Y-86832114D01*
X213149316Y-86832114D02*
X213207373Y-86774057D01*
X213091258Y-88689943D02*
X213091258Y-87993257D01*
X213091258Y-88341600D02*
X214310458Y-88341600D01*
X214310458Y-88341600D02*
X214136287Y-88225486D01*
X214136287Y-88225486D02*
X214020173Y-88109371D01*
X214020173Y-88109371D02*
X213962116Y-87993257D01*
X213091258Y-89212457D02*
X214310458Y-89212457D01*
X214310458Y-89212457D02*
X214310458Y-89502743D01*
X214310458Y-89502743D02*
X214252401Y-89676914D01*
X214252401Y-89676914D02*
X214136287Y-89793029D01*
X214136287Y-89793029D02*
X214020173Y-89851086D01*
X214020173Y-89851086D02*
X213787944Y-89909143D01*
X213787944Y-89909143D02*
X213613773Y-89909143D01*
X213613773Y-89909143D02*
X213381544Y-89851086D01*
X213381544Y-89851086D02*
X213265430Y-89793029D01*
X213265430Y-89793029D02*
X213149316Y-89676914D01*
X213149316Y-89676914D02*
X213091258Y-89502743D01*
X213091258Y-89502743D02*
X213091258Y-89212457D01*
X213091258Y-91012229D02*
X213091258Y-90431657D01*
X213091258Y-90431657D02*
X214310458Y-90431657D01*
D12*
X199936265Y-87379800D02*
X200079122Y-87427419D01*
X200079122Y-87427419D02*
X200317217Y-87427419D01*
X200317217Y-87427419D02*
X200412455Y-87379800D01*
X200412455Y-87379800D02*
X200460074Y-87332180D01*
X200460074Y-87332180D02*
X200507693Y-87236942D01*
X200507693Y-87236942D02*
X200507693Y-87141704D01*
X200507693Y-87141704D02*
X200460074Y-87046466D01*
X200460074Y-87046466D02*
X200412455Y-86998847D01*
X200412455Y-86998847D02*
X200317217Y-86951228D01*
X200317217Y-86951228D02*
X200126741Y-86903609D01*
X200126741Y-86903609D02*
X200031503Y-86855990D01*
X200031503Y-86855990D02*
X199983884Y-86808371D01*
X199983884Y-86808371D02*
X199936265Y-86713133D01*
X199936265Y-86713133D02*
X199936265Y-86617895D01*
X199936265Y-86617895D02*
X199983884Y-86522657D01*
X199983884Y-86522657D02*
X200031503Y-86475038D01*
X200031503Y-86475038D02*
X200126741Y-86427419D01*
X200126741Y-86427419D02*
X200364836Y-86427419D01*
X200364836Y-86427419D02*
X200507693Y-86475038D01*
X200936265Y-87427419D02*
X200936265Y-86427419D01*
X200936265Y-86427419D02*
X201174360Y-86427419D01*
X201174360Y-86427419D02*
X201317217Y-86475038D01*
X201317217Y-86475038D02*
X201412455Y-86570276D01*
X201412455Y-86570276D02*
X201460074Y-86665514D01*
X201460074Y-86665514D02*
X201507693Y-86855990D01*
X201507693Y-86855990D02*
X201507693Y-86998847D01*
X201507693Y-86998847D02*
X201460074Y-87189323D01*
X201460074Y-87189323D02*
X201412455Y-87284561D01*
X201412455Y-87284561D02*
X201317217Y-87379800D01*
X201317217Y-87379800D02*
X201174360Y-87427419D01*
X201174360Y-87427419D02*
X200936265Y-87427419D01*
X201888646Y-87141704D02*
X202364836Y-87141704D01*
X201793408Y-87427419D02*
X202126741Y-86427419D01*
X202126741Y-86427419D02*
X202460074Y-87427419D01*
X199936265Y-89919800D02*
X200079122Y-89967419D01*
X200079122Y-89967419D02*
X200317217Y-89967419D01*
X200317217Y-89967419D02*
X200412455Y-89919800D01*
X200412455Y-89919800D02*
X200460074Y-89872180D01*
X200460074Y-89872180D02*
X200507693Y-89776942D01*
X200507693Y-89776942D02*
X200507693Y-89681704D01*
X200507693Y-89681704D02*
X200460074Y-89586466D01*
X200460074Y-89586466D02*
X200412455Y-89538847D01*
X200412455Y-89538847D02*
X200317217Y-89491228D01*
X200317217Y-89491228D02*
X200126741Y-89443609D01*
X200126741Y-89443609D02*
X200031503Y-89395990D01*
X200031503Y-89395990D02*
X199983884Y-89348371D01*
X199983884Y-89348371D02*
X199936265Y-89253133D01*
X199936265Y-89253133D02*
X199936265Y-89157895D01*
X199936265Y-89157895D02*
X199983884Y-89062657D01*
X199983884Y-89062657D02*
X200031503Y-89015038D01*
X200031503Y-89015038D02*
X200126741Y-88967419D01*
X200126741Y-88967419D02*
X200364836Y-88967419D01*
X200364836Y-88967419D02*
X200507693Y-89015038D01*
X201507693Y-89872180D02*
X201460074Y-89919800D01*
X201460074Y-89919800D02*
X201317217Y-89967419D01*
X201317217Y-89967419D02*
X201221979Y-89967419D01*
X201221979Y-89967419D02*
X201079122Y-89919800D01*
X201079122Y-89919800D02*
X200983884Y-89824561D01*
X200983884Y-89824561D02*
X200936265Y-89729323D01*
X200936265Y-89729323D02*
X200888646Y-89538847D01*
X200888646Y-89538847D02*
X200888646Y-89395990D01*
X200888646Y-89395990D02*
X200936265Y-89205514D01*
X200936265Y-89205514D02*
X200983884Y-89110276D01*
X200983884Y-89110276D02*
X201079122Y-89015038D01*
X201079122Y-89015038D02*
X201221979Y-88967419D01*
X201221979Y-88967419D02*
X201317217Y-88967419D01*
X201317217Y-88967419D02*
X201460074Y-89015038D01*
X201460074Y-89015038D02*
X201507693Y-89062657D01*
X202412455Y-89967419D02*
X201936265Y-89967419D01*
X201936265Y-89967419D02*
X201936265Y-88967419D01*
X199888646Y-83887419D02*
X200507693Y-83887419D01*
X200507693Y-83887419D02*
X200174360Y-84268371D01*
X200174360Y-84268371D02*
X200317217Y-84268371D01*
X200317217Y-84268371D02*
X200412455Y-84315990D01*
X200412455Y-84315990D02*
X200460074Y-84363609D01*
X200460074Y-84363609D02*
X200507693Y-84458847D01*
X200507693Y-84458847D02*
X200507693Y-84696942D01*
X200507693Y-84696942D02*
X200460074Y-84792180D01*
X200460074Y-84792180D02*
X200412455Y-84839800D01*
X200412455Y-84839800D02*
X200317217Y-84887419D01*
X200317217Y-84887419D02*
X200031503Y-84887419D01*
X200031503Y-84887419D02*
X199936265Y-84839800D01*
X199936265Y-84839800D02*
X199888646Y-84792180D01*
X200936265Y-84792180D02*
X200983884Y-84839800D01*
X200983884Y-84839800D02*
X200936265Y-84887419D01*
X200936265Y-84887419D02*
X200888646Y-84839800D01*
X200888646Y-84839800D02*
X200936265Y-84792180D01*
X200936265Y-84792180D02*
X200936265Y-84887419D01*
X201317217Y-83887419D02*
X201936264Y-83887419D01*
X201936264Y-83887419D02*
X201602931Y-84268371D01*
X201602931Y-84268371D02*
X201745788Y-84268371D01*
X201745788Y-84268371D02*
X201841026Y-84315990D01*
X201841026Y-84315990D02*
X201888645Y-84363609D01*
X201888645Y-84363609D02*
X201936264Y-84458847D01*
X201936264Y-84458847D02*
X201936264Y-84696942D01*
X201936264Y-84696942D02*
X201888645Y-84792180D01*
X201888645Y-84792180D02*
X201841026Y-84839800D01*
X201841026Y-84839800D02*
X201745788Y-84887419D01*
X201745788Y-84887419D02*
X201460074Y-84887419D01*
X201460074Y-84887419D02*
X201364836Y-84839800D01*
X201364836Y-84839800D02*
X201317217Y-84792180D01*
X202221979Y-83887419D02*
X202555312Y-84887419D01*
X202555312Y-84887419D02*
X202888645Y-83887419D01*
X206207580Y-89883095D02*
X206874247Y-90406904D01*
X206874247Y-89883095D02*
X206207580Y-90406904D01*
X200507693Y-81395038D02*
X200412455Y-81347419D01*
X200412455Y-81347419D02*
X200269598Y-81347419D01*
X200269598Y-81347419D02*
X200126741Y-81395038D01*
X200126741Y-81395038D02*
X200031503Y-81490276D01*
X200031503Y-81490276D02*
X199983884Y-81585514D01*
X199983884Y-81585514D02*
X199936265Y-81775990D01*
X199936265Y-81775990D02*
X199936265Y-81918847D01*
X199936265Y-81918847D02*
X199983884Y-82109323D01*
X199983884Y-82109323D02*
X200031503Y-82204561D01*
X200031503Y-82204561D02*
X200126741Y-82299800D01*
X200126741Y-82299800D02*
X200269598Y-82347419D01*
X200269598Y-82347419D02*
X200364836Y-82347419D01*
X200364836Y-82347419D02*
X200507693Y-82299800D01*
X200507693Y-82299800D02*
X200555312Y-82252180D01*
X200555312Y-82252180D02*
X200555312Y-81918847D01*
X200555312Y-81918847D02*
X200364836Y-81918847D01*
X200983884Y-82347419D02*
X200983884Y-81347419D01*
X200983884Y-81347419D02*
X201555312Y-82347419D01*
X201555312Y-82347419D02*
X201555312Y-81347419D01*
X202031503Y-82347419D02*
X202031503Y-81347419D01*
X202031503Y-81347419D02*
X202269598Y-81347419D01*
X202269598Y-81347419D02*
X202412455Y-81395038D01*
X202412455Y-81395038D02*
X202507693Y-81490276D01*
X202507693Y-81490276D02*
X202555312Y-81585514D01*
X202555312Y-81585514D02*
X202602931Y-81775990D01*
X202602931Y-81775990D02*
X202602931Y-81918847D01*
X202602931Y-81918847D02*
X202555312Y-82109323D01*
X202555312Y-82109323D02*
X202507693Y-82204561D01*
X202507693Y-82204561D02*
X202412455Y-82299800D01*
X202412455Y-82299800D02*
X202269598Y-82347419D01*
X202269598Y-82347419D02*
X202031503Y-82347419D01*
X209414247Y-94351905D02*
X208747580Y-94590000D01*
X209414247Y-94828095D02*
X208747580Y-94590000D01*
X208747580Y-94590000D02*
X208509485Y-94494762D01*
X208509485Y-94494762D02*
X208461866Y-94447143D01*
X208461866Y-94447143D02*
X208414247Y-94351905D01*
%TO.C,J7*%
X208730000Y-99378000D02*
X211270000Y-99378000D01*
X211270000Y-95822000D01*
X208730000Y-95822000D01*
X208730000Y-99378000D01*
%TO.C,J5*%
X203460000Y-99314500D02*
X208540000Y-99314500D01*
X208540000Y-95885500D01*
X203460000Y-95885500D01*
X203460000Y-99314500D01*
%TO.C,J6*%
X174178000Y-66670000D02*
X170622000Y-66670000D01*
X170622000Y-64130000D01*
X174178000Y-64130000D01*
X174178000Y-66670000D01*
D14*
%TO.C,U1*%
X175610000Y-61220000D02*
X193390000Y-61220000D01*
X175610000Y-96780000D02*
X175610000Y-61220000D01*
X179420000Y-71380000D02*
X182595000Y-71380000D01*
X179420000Y-73920000D02*
X179420000Y-71380000D01*
X179420000Y-74555000D02*
X179420000Y-84715000D01*
X179420000Y-84715000D02*
X189580000Y-84715000D01*
X180690000Y-91700000D02*
X180690000Y-96780000D01*
X180690000Y-98050000D02*
X180690000Y-96780000D01*
X182595000Y-71380000D02*
X182595000Y-73920000D01*
X182595000Y-73920000D02*
X179420000Y-73920000D01*
X183230000Y-64268000D02*
X185770000Y-64268000D01*
X183230000Y-68840000D02*
X183230000Y-64268000D01*
X185770000Y-64268000D02*
X185770000Y-68840000D01*
X185770000Y-68840000D02*
X183230000Y-68840000D01*
X188310000Y-91700000D02*
X180690000Y-91700000D01*
X188310000Y-91700000D02*
X188310000Y-96780000D01*
X188310000Y-96780000D02*
X188310000Y-98050000D01*
X188310000Y-98050000D02*
X180690000Y-98050000D01*
X189580000Y-74555000D02*
X179420000Y-74555000D01*
X189580000Y-74555000D02*
X189580000Y-84715000D01*
X193390000Y-61220000D02*
X193390000Y-96780000D01*
X193390000Y-96780000D02*
X175610000Y-96780000D01*
D12*
X184246000Y-81921000D02*
X183865000Y-82175000D01*
X183611000Y-81921000D01*
X183992000Y-81667000D01*
X184246000Y-81921000D01*
G36*
X184246000Y-81921000D02*
G01*
X183865000Y-82175000D01*
X183611000Y-81921000D01*
X183992000Y-81667000D01*
X184246000Y-81921000D01*
G37*
X184373000Y-81159000D02*
X183992000Y-81413000D01*
X183738000Y-81159000D01*
X184119000Y-80905000D01*
X184373000Y-81159000D01*
G36*
X184373000Y-81159000D02*
G01*
X183992000Y-81413000D01*
X183738000Y-81159000D01*
X184119000Y-80905000D01*
X184373000Y-81159000D01*
G37*
X184627000Y-82302000D02*
X184246000Y-82556000D01*
X183992000Y-82302000D01*
X184373000Y-82048000D01*
X184627000Y-82302000D01*
G36*
X184627000Y-82302000D02*
G01*
X184246000Y-82556000D01*
X183992000Y-82302000D01*
X184373000Y-82048000D01*
X184627000Y-82302000D01*
G37*
X184754000Y-81540000D02*
X184373000Y-81794000D01*
X184119000Y-81540000D01*
X184500000Y-81286000D01*
X184754000Y-81540000D01*
G36*
X184754000Y-81540000D02*
G01*
X184373000Y-81794000D01*
X184119000Y-81540000D01*
X184500000Y-81286000D01*
X184754000Y-81540000D01*
G37*
X184881000Y-80778000D02*
X184500000Y-81032000D01*
X184246000Y-80778000D01*
X184627000Y-80524000D01*
X184881000Y-80778000D01*
G36*
X184881000Y-80778000D02*
G01*
X184500000Y-81032000D01*
X184246000Y-80778000D01*
X184627000Y-80524000D01*
X184881000Y-80778000D01*
G37*
X185008000Y-82683000D02*
X184627000Y-82937000D01*
X184373000Y-82683000D01*
X184754000Y-82429000D01*
X185008000Y-82683000D01*
G36*
X185008000Y-82683000D02*
G01*
X184627000Y-82937000D01*
X184373000Y-82683000D01*
X184754000Y-82429000D01*
X185008000Y-82683000D01*
G37*
X185262000Y-81159000D02*
X184881000Y-81413000D01*
X184627000Y-81159000D01*
X185008000Y-80905000D01*
X185262000Y-81159000D01*
G36*
X185262000Y-81159000D02*
G01*
X184881000Y-81413000D01*
X184627000Y-81159000D01*
X185008000Y-80905000D01*
X185262000Y-81159000D01*
G37*
X185389000Y-80397000D02*
X185008000Y-80651000D01*
X184754000Y-80397000D01*
X185135000Y-80143000D01*
X185389000Y-80397000D01*
G36*
X185389000Y-80397000D02*
G01*
X185008000Y-80651000D01*
X184754000Y-80397000D01*
X185135000Y-80143000D01*
X185389000Y-80397000D01*
G37*
%TO.C,J4*%
X174114500Y-71940000D02*
X170685500Y-71940000D01*
X170685500Y-66860000D01*
X174114500Y-66860000D01*
X174114500Y-71940000D01*
%TO.C,J8*%
X217405000Y-74640000D02*
X213595000Y-74640000D01*
X213595000Y-69560000D01*
X217405000Y-69560000D01*
X217405000Y-74640000D01*
%TO.C,J1*%
X204760000Y-91415000D02*
X205395000Y-90780000D01*
X204760000Y-91415000D02*
X205395000Y-92050000D01*
X207935000Y-91415000D02*
X204760000Y-91415000D01*
X207935000Y-91415000D02*
X207935000Y-94590000D01*
X207935000Y-94590000D02*
X207300000Y-93955000D01*
X207935000Y-94590000D02*
X208570000Y-93955000D01*
X217460000Y-75540000D02*
X197140000Y-75540000D01*
X197140000Y-95860000D01*
X217460000Y-95860000D01*
X217460000Y-75540000D01*
X206080800Y-93320000D02*
G75*
G02*
X205979200Y-93320000I-50800J0D01*
G01*
X205979200Y-93320000D02*
G75*
G02*
X206080800Y-93320000I50800J0D01*
G01*
X206792000Y-93320000D02*
G75*
G02*
X205268000Y-93320000I-762000J0D01*
G01*
X205268000Y-93320000D02*
G75*
G02*
X206792000Y-93320000I762000J0D01*
G01*
%TD*%
M02*
