M48
; DRILL file {KiCad 9.0.7} date 2026-02-08T08:03:06-0700
; FORMAT={-:-/ absolute / metric / decimal}
; #@! TF.CreationDate,2026-02-08T08:03:06-07:00
; #@! TF.GenerationSoftware,Kicad,Pcbnew,9.0.7
; #@! TF.FileFunction,Plated,1,2,PTH
FMAT,2
METRIC
; #@! TA.AperFunction,Plated,PTH,ComponentDrill
T1C1.000
; #@! TA.AperFunction,Plated,PTH,ComponentDrill
T2C1.100
%
G90
G05
T1
X172.844Y-68.13
X172.844Y-70.67
X172.908Y-65.4
X181.0Y-81.0
X181.0Y-94.0
X188.0Y-81.0
X188.0Y-94.0
X198.41Y-81.89
X198.41Y-84.43
X198.41Y-86.97
X198.41Y-89.51
X203.19Y-67.87
X203.19Y-70.41
X203.19Y-72.95
X204.73Y-98.044
X205.73Y-67.87
X205.73Y-70.41
X205.73Y-72.95
X207.27Y-98.044
X208.27Y-67.87
X208.27Y-70.41
X208.27Y-72.95
X210.0Y-98.108
X210.81Y-67.87
X210.81Y-70.41
X210.81Y-72.95
X216.135Y-70.83
X216.135Y-73.37
X216.19Y-81.89
X216.19Y-84.43
X216.19Y-86.97
X216.19Y-89.51
T2
X176.88Y-62.49
X176.88Y-65.03
X176.88Y-67.57
X176.88Y-70.11
X176.88Y-72.65
X176.88Y-75.19
X176.88Y-77.73
X176.88Y-80.27
X176.88Y-82.81
X176.88Y-85.35
X176.88Y-87.89
X176.88Y-90.43
X176.88Y-92.97
X176.88Y-95.51
X179.42Y-62.49
X181.96Y-62.49
X184.5Y-62.49
X187.04Y-62.49
X189.58Y-62.49
X192.12Y-62.49
X192.12Y-65.03
X192.12Y-67.57
X192.12Y-70.11
X192.12Y-72.65
X192.12Y-75.19
X192.12Y-77.73
X192.12Y-80.27
X192.12Y-82.81
X192.12Y-85.35
X192.12Y-87.89
X192.12Y-90.43
X192.12Y-92.97
X192.12Y-95.51
M30
