%TF.GenerationSoftware,KiCad,Pcbnew,9.0.7*%
%TF.CreationDate,2026-02-08T08:02:23-07:00*%
%TF.ProjectId,PCB_v1,5043425f-7631-42e6-9b69-6361645f7063,rev?*%
%TF.SameCoordinates,Original*%
%TF.FileFunction,Copper,L2,Bot*%
%TF.FilePolarity,Positive*%
%FSLAX46Y46*%
G04 Gerber Fmt 4.6, Leading zero omitted, Abs format (unit mm)*
G04 Created by KiCad (PCBNEW 9.0.7) date 2026-02-08 08:02:23*
%MOMM*%
%LPD*%
G01*
G04 APERTURE LIST*
G04 Aperture macros list*
%AMRoundRect*
0 Rectangle with rounded corners*
0 $1 Rounding radius*
0 $2 $3 $4 $5 $6 $7 $8 $9 X,Y pos of 4 corners*
0 Add a 4 corners polygon primitive as box body*
4,1,4,$2,$3,$4,$5,$6,$7,$8,$9,$2,$3,0*
0 Add four circle primitives for the rounded corners*
1,1,$1+$1,$2,$3*
1,1,$1+$1,$4,$5*
1,1,$1+$1,$6,$7*
1,1,$1+$1,$8,$9*
0 Add four rect primitives between the rounded corners*
20,1,$1+$1,$2,$3,$4,$5,0*
20,1,$1+$1,$4,$5,$6,$7,0*
20,1,$1+$1,$6,$7,$8,$9,0*
20,1,$1+$1,$8,$9,$2,$3,0*%
G04 Aperture macros list end*
%TA.AperFunction,ComponentPad*%
%ADD10R,2.000000X2.000000*%
%TD*%
%TA.AperFunction,ComponentPad*%
%ADD11C,2.000000*%
%TD*%
%TA.AperFunction,ComponentPad*%
%ADD12C,1.600000*%
%TD*%
%TA.AperFunction,ComponentPad*%
%ADD13RoundRect,1.000000X-0.000010X0.000010X-0.000010X-0.000010X0.000010X-0.000010X0.000010X0.000010X0*%
%TD*%
%TA.AperFunction,ComponentPad*%
%ADD14R,1.500000X2.500000*%
%TD*%
%TA.AperFunction,ComponentPad*%
%ADD15RoundRect,0.150000X0.600000X-1.100000X0.600000X1.100000X-0.600000X1.100000X-0.600000X-1.100000X0*%
%TD*%
%TA.AperFunction,Conductor*%
%ADD16C,0.200000*%
%TD*%
%TA.AperFunction,Conductor*%
%ADD17C,0.800000*%
%TD*%
G04 APERTURE END LIST*
D10*
%TO.P,J7,1,Pin_1*%
%TO.N,/S_ESC_Right_3*%
X210000000Y-98108000D03*
%TD*%
%TO.P,J5,1,Pin_1*%
%TO.N,/12V*%
X204730000Y-98044500D03*
D11*
%TO.P,J5,2,Pin_2*%
%TO.N,/GND*%
X207270000Y-98044500D03*
%TD*%
D10*
%TO.P,J6,1,Pin_1*%
%TO.N,/S_ESC_Left_2*%
X172908000Y-65400000D03*
%TD*%
D12*
%TO.P,U1,1,GND*%
%TO.N,/GND*%
X192120000Y-95510000D03*
%TO.P,U1,2,0_RX1_CRX2_CS1*%
%TO.N,unconnected-(U1-0_RX1_CRX2_CS1-Pad2)*%
X192120000Y-92970000D03*
%TO.P,U1,3,1_TX1_CTX2_MISO1*%
%TO.N,unconnected-(U1-1_TX1_CTX2_MISO1-Pad3)*%
X192120000Y-90430000D03*
%TO.P,U1,4,2_OUT2*%
%TO.N,/S_ESC_Left_2*%
X192120000Y-87890000D03*
%TO.P,U1,5,3_LRCLK2*%
%TO.N,/S_ESC_Right_3*%
X192120000Y-85350000D03*
%TO.P,U1,6,4_BCLK2*%
%TO.N,unconnected-(U1-4_BCLK2-Pad6)*%
X192120000Y-82810000D03*
%TO.P,U1,7,5_IN2*%
%TO.N,unconnected-(U1-5_IN2-Pad7)*%
X192120000Y-80270000D03*
%TO.P,U1,8,6_OUT1D*%
%TO.N,unconnected-(U1-6_OUT1D-Pad8)*%
X192120000Y-77730000D03*
%TO.P,U1,9,7_RX2_OUT1A*%
%TO.N,unconnected-(U1-7_RX2_OUT1A-Pad9)*%
X192120000Y-75190000D03*
%TO.P,U1,10,8_TX2_IN1*%
%TO.N,unconnected-(U1-8_TX2_IN1-Pad10)*%
X192120000Y-72650000D03*
%TO.P,U1,11,9_OUT1C*%
%TO.N,unconnected-(U1-9_OUT1C-Pad11)*%
X192120000Y-70110000D03*
%TO.P,U1,12,10_CS_MQSR*%
%TO.N,unconnected-(U1-10_CS_MQSR-Pad12)*%
X192120000Y-67570000D03*
%TO.P,U1,13,11_MOSI_CTX1*%
%TO.N,/LED*%
X192120000Y-65030000D03*
%TO.P,U1,14,12_MISO_MQSL*%
%TO.N,unconnected-(U1-12_MISO_MQSL-Pad14)*%
X192120000Y-62490000D03*
%TO.P,U1,15,VBAT*%
%TO.N,unconnected-(U1-VBAT-Pad15)*%
X189580000Y-62490000D03*
%TO.P,U1,16,3V3*%
%TO.N,unconnected-(U1-3V3-Pad16)*%
X187040000Y-62490000D03*
%TO.P,U1,17,GND*%
%TO.N,/GND*%
X184500000Y-62490000D03*
%TO.P,U1,18,PROGRAM*%
%TO.N,unconnected-(U1-PROGRAM-Pad18)*%
X181960000Y-62490000D03*
%TO.P,U1,19,ON_OFF*%
%TO.N,unconnected-(U1-ON_OFF-Pad19)*%
X179420000Y-62490000D03*
%TO.P,U1,20,13_SCK_CRX1_LED*%
%TO.N,unconnected-(U1-13_SCK_CRX1_LED-Pad20)*%
X176880000Y-62490000D03*
%TO.P,U1,21,14_A0_TX3_SPDIF_OUT*%
%TO.N,unconnected-(U1-14_A0_TX3_SPDIF_OUT-Pad21)*%
X176880000Y-65030000D03*
%TO.P,U1,22,15_A1_RX3_SPDIF_IN*%
%TO.N,unconnected-(U1-15_A1_RX3_SPDIF_IN-Pad22)*%
X176880000Y-67570000D03*
%TO.P,U1,23,16_A2_RX4_SCL1*%
%TO.N,unconnected-(U1-16_A2_RX4_SCL1-Pad23)*%
X176880000Y-70110000D03*
%TO.P,U1,24,17_A3_TX4_SDA1*%
%TO.N,unconnected-(U1-17_A3_TX4_SDA1-Pad24)*%
X176880000Y-72650000D03*
%TO.P,U1,25,18_A4_SDA0*%
%TO.N,/SDA_18*%
X176880000Y-75190000D03*
%TO.P,U1,26,19_A5_SCL0*%
%TO.N,/SCL_19*%
X176880000Y-77730000D03*
%TO.P,U1,27,20_A6_TX5_LRCLK1*%
%TO.N,/CH4_20*%
X176880000Y-80270000D03*
%TO.P,U1,28,21_A7_RX5_BCLK1*%
%TO.N,/CH3_21*%
X176880000Y-82810000D03*
%TO.P,U1,29,22_A8_CTX1*%
%TO.N,/CH2_22*%
X176880000Y-85350000D03*
%TO.P,U1,30,23_A9_CRX1_MCLK1*%
%TO.N,/CH1_23*%
X176880000Y-87890000D03*
%TO.P,U1,31,3V3*%
%TO.N,/3.3V*%
X176880000Y-90430000D03*
%TO.P,U1,32,GND*%
%TO.N,/GND*%
X176880000Y-92970000D03*
%TO.P,U1,33,VIN*%
%TO.N,/5V*%
X176880000Y-95510000D03*
%TD*%
D10*
%TO.P,J4,1,Pin_1*%
%TO.N,/12V*%
X172844500Y-70670000D03*
D11*
%TO.P,J4,2,Pin_2*%
%TO.N,/GND*%
X172844500Y-68130000D03*
%TD*%
D10*
%TO.P,J8,1,Pin_1*%
%TO.N,/LED*%
X216135000Y-73370000D03*
D11*
%TO.P,J8,2,Pin_2*%
%TO.N,/GND*%
X216135000Y-70830000D03*
%TD*%
D10*
%TO.P,J1,1,Pin_1*%
%TO.N,unconnected-(J1-Pin_1-Pad1)*%
X216190000Y-81890000D03*
D13*
%TO.P,J1,2,Pin_2*%
%TO.N,unconnected-(J1-Pin_2-Pad2)*%
X216190000Y-84430000D03*
%TO.P,J1,3,Pin_3*%
%TO.N,unconnected-(J1-Pin_3-Pad3)*%
X216190000Y-86970000D03*
%TO.P,J1,4,Pin_4*%
%TO.N,unconnected-(J1-Pin_4-Pad4)*%
X216190000Y-89510000D03*
%TO.P,J1,5,Pin_5*%
%TO.N,/GND*%
X198410000Y-81890000D03*
%TO.P,J1,6,Pin_6*%
%TO.N,/3.3V*%
X198410000Y-84430000D03*
%TO.P,J1,7,Pin_7*%
%TO.N,/SDA_18*%
X198410000Y-86970000D03*
%TO.P,J1,8,Pin_8*%
%TO.N,/SCL_19*%
X198410000Y-89510000D03*
%TD*%
D14*
%TO.P,J3,1,Pin_1*%
%TO.N,/12V*%
X188000000Y-81000000D03*
D15*
%TO.P,J3,2,Pin_2*%
%TO.N,/GND*%
X181000000Y-81000000D03*
%TO.P,J3,3,Pin_3*%
%TO.N,/5V*%
X188000000Y-94000000D03*
%TO.P,J3,4,Pin_4*%
%TO.N,/GND*%
X181000000Y-94000000D03*
%TD*%
D10*
%TO.P,J2,1,Pin_1*%
%TO.N,/CH1_23*%
X203190000Y-72950000D03*
%TO.P,J2,2,Pin_2*%
%TO.N,/CH2_22*%
X205730000Y-72950000D03*
%TO.P,J2,3,Pin_3*%
%TO.N,/CH3_21*%
X208270000Y-72950000D03*
%TO.P,J2,4,Pin_4*%
%TO.N,/CH4_20*%
X210810000Y-72950000D03*
D11*
%TO.P,J2,5,Pin_5*%
%TO.N,/3.3V*%
X203190000Y-70410000D03*
%TO.P,J2,6,Pin_6*%
X205730000Y-70410000D03*
%TO.P,J2,7,Pin_7*%
X208270000Y-70410000D03*
%TO.P,J2,8,Pin_8*%
X210810000Y-70410000D03*
%TO.P,J2,9,Pin_9*%
%TO.N,/GND*%
X203190000Y-67870000D03*
%TO.P,J2,10,Pin_10*%
X205730000Y-67870000D03*
%TO.P,J2,11,Pin_11*%
X208270000Y-67870000D03*
%TO.P,J2,12,Pin_12*%
X210810000Y-67870000D03*
%TD*%
D16*
%TO.N,/SCL_19*%
X178150000Y-79000000D02*
X193500000Y-79000000D01*
X176880000Y-77730000D02*
X178150000Y-79000000D01*
X193500000Y-79000000D02*
X195000000Y-80500000D01*
X196510000Y-89510000D02*
X198410000Y-89510000D01*
X195000000Y-88000000D02*
X196510000Y-89510000D01*
X195000000Y-80500000D02*
X195000000Y-88000000D01*
%TO.N,/SDA_18*%
X195500000Y-78000000D02*
X194000000Y-76500000D01*
X178190000Y-76500000D02*
X176880000Y-75190000D01*
X198410000Y-86970000D02*
X196530000Y-86970000D01*
X196500000Y-87000000D02*
X195500000Y-86000000D01*
X194000000Y-76500000D02*
X178190000Y-76500000D01*
X195500000Y-86000000D02*
X195500000Y-78000000D01*
X196530000Y-86970000D02*
X196500000Y-87000000D01*
D17*
%TO.N,/12V*%
X172844500Y-70670000D02*
X172844500Y-95844500D01*
X185500000Y-98044500D02*
X185500000Y-83500000D01*
X185500000Y-98044500D02*
X204730000Y-98044500D01*
X185500000Y-83500000D02*
X188000000Y-81000000D01*
X175044500Y-98044500D02*
X185500000Y-98044500D01*
X172844500Y-95844500D02*
X175044500Y-98044500D01*
D16*
%TO.N,/S_ESC_Right_3*%
X194500000Y-86500000D02*
X194500000Y-88067100D01*
X192120000Y-85350000D02*
X193350000Y-85350000D01*
X203392000Y-91500000D02*
X210000000Y-98108000D01*
X193350000Y-85350000D02*
X194500000Y-86500000D01*
X197932900Y-91500000D02*
X203392000Y-91500000D01*
X194500000Y-88067100D02*
X197932900Y-91500000D01*
%TD*%
%TA.AperFunction,Conductor*%
%TO.N,/GND*%
G36*
X219442539Y-60520185D02*
G01*
X219488294Y-60572989D01*
X219499500Y-60624500D01*
X219499500Y-99375500D01*
X219479815Y-99442539D01*
X219427011Y-99488294D01*
X219375500Y-99499500D01*
X211566753Y-99499500D01*
X211499714Y-99479815D01*
X211453959Y-99427011D01*
X211444015Y-99357853D01*
X211450571Y-99332167D01*
X211494091Y-99215482D01*
X211500500Y-99155873D01*
X211500499Y-97060128D01*
X211494091Y-97000517D01*
X211492640Y-96996628D01*
X211443797Y-96865671D01*
X211443793Y-96865664D01*
X211357547Y-96750455D01*
X211357544Y-96750452D01*
X211242335Y-96664206D01*
X211242328Y-96664202D01*
X211107482Y-96613908D01*
X211107483Y-96613908D01*
X211047883Y-96607501D01*
X211047881Y-96607500D01*
X211047873Y-96607500D01*
X211047865Y-96607500D01*
X209400097Y-96607500D01*
X209333058Y-96587815D01*
X209312416Y-96571181D01*
X203879590Y-91138355D01*
X203879588Y-91138352D01*
X203760717Y-91019481D01*
X203760709Y-91019475D01*
X203645656Y-90953050D01*
X203645656Y-90953049D01*
X203645651Y-90953048D01*
X203638021Y-90948642D01*
X203623786Y-90940423D01*
X203581972Y-90929219D01*
X203471057Y-90899499D01*
X203312943Y-90899499D01*
X203305347Y-90899499D01*
X203305331Y-90899500D01*
X199429370Y-90899500D01*
X199362331Y-90879815D01*
X199316576Y-90827011D01*
X199306632Y-90757853D01*
X199335657Y-90694297D01*
X199349229Y-90680878D01*
X199474649Y-90574651D01*
X199474651Y-90574649D01*
X199635360Y-90384902D01*
X199635361Y-90384898D01*
X199635366Y-90384894D01*
X199762656Y-90171273D01*
X199853050Y-89939614D01*
X199904081Y-89696237D01*
X199910500Y-89592842D01*
X199910500Y-89427158D01*
X199904081Y-89323763D01*
X199853050Y-89080386D01*
X199853048Y-89080381D01*
X199853046Y-89080374D01*
X199762657Y-88848730D01*
X199762656Y-88848727D01*
X199635366Y-88635106D01*
X199635363Y-88635103D01*
X199635360Y-88635097D01*
X199474651Y-88445350D01*
X199474650Y-88445349D01*
X199343915Y-88334622D01*
X199305480Y-88276274D01*
X199304693Y-88206409D01*
X199341802Y-88147208D01*
X199343915Y-88145378D01*
X199474650Y-88034650D01*
X199474651Y-88034649D01*
X199635360Y-87844902D01*
X199635361Y-87844898D01*
X199635366Y-87844894D01*
X199762656Y-87631273D01*
X199853050Y-87399614D01*
X199904081Y-87156237D01*
X199910500Y-87052842D01*
X199910500Y-86887158D01*
X199904081Y-86783763D01*
X199853050Y-86540386D01*
X199853048Y-86540381D01*
X199853046Y-86540374D01*
X199762657Y-86308730D01*
X199762656Y-86308727D01*
X199635366Y-86095106D01*
X199635363Y-86095103D01*
X199635360Y-86095097D01*
X199474651Y-85905350D01*
X199474650Y-85905349D01*
X199343915Y-85794622D01*
X199305480Y-85736274D01*
X199304693Y-85666409D01*
X199341802Y-85607208D01*
X199343915Y-85605378D01*
X199474650Y-85494650D01*
X199474651Y-85494649D01*
X199635360Y-85304902D01*
X199635361Y-85304898D01*
X199635366Y-85304894D01*
X199762656Y-85091273D01*
X199849200Y-84869481D01*
X199853046Y-84859625D01*
X199853046Y-84859621D01*
X199853050Y-84859614D01*
X199904081Y-84616237D01*
X199910500Y-84512842D01*
X199910500Y-84347158D01*
X199904081Y-84243763D01*
X199853050Y-84000386D01*
X199853048Y-84000381D01*
X199853046Y-84000374D01*
X199762657Y-83768730D01*
X199762656Y-83768728D01*
X199762656Y-83768727D01*
X199635366Y-83555106D01*
X199635363Y-83555103D01*
X199635360Y-83555097D01*
X199474651Y-83365350D01*
X199474649Y-83365348D01*
X199284902Y-83204639D01*
X199133686Y-83114534D01*
X199071273Y-83077344D01*
X199071271Y-83077343D01*
X199071269Y-83077342D01*
X198839625Y-82986953D01*
X198839615Y-82986950D01*
X198596238Y-82935919D01*
X198596235Y-82935918D01*
X198492850Y-82929500D01*
X198492842Y-82929500D01*
X198327158Y-82929500D01*
X198327149Y-82929500D01*
X198223764Y-82935918D01*
X198223761Y-82935919D01*
X197980384Y-82986950D01*
X197980374Y-82986953D01*
X197748730Y-83077342D01*
X197535097Y-83204639D01*
X197345350Y-83365348D01*
X197345348Y-83365350D01*
X197184639Y-83555097D01*
X197057342Y-83768730D01*
X196966953Y-84000374D01*
X196966950Y-84000384D01*
X196915919Y-84243761D01*
X196915918Y-84243764D01*
X196909500Y-84347149D01*
X196909500Y-84512850D01*
X196915918Y-84616235D01*
X196915919Y-84616238D01*
X196966950Y-84859615D01*
X196966953Y-84859625D01*
X197057342Y-85091269D01*
X197184639Y-85304902D01*
X197345348Y-85494649D01*
X197345350Y-85494651D01*
X197476084Y-85605378D01*
X197514519Y-85663727D01*
X197515306Y-85733592D01*
X197478197Y-85792792D01*
X197476084Y-85794622D01*
X197345350Y-85905348D01*
X197345348Y-85905350D01*
X197184639Y-86095097D01*
X197057197Y-86308974D01*
X197049019Y-86316558D01*
X197044387Y-86326703D01*
X197023859Y-86339895D01*
X197005970Y-86356488D01*
X196993459Y-86359431D01*
X196985609Y-86364477D01*
X196950674Y-86369500D01*
X196770098Y-86369500D01*
X196703059Y-86349815D01*
X196682417Y-86333181D01*
X196136819Y-85787583D01*
X196103334Y-85726260D01*
X196100500Y-85699902D01*
X196100500Y-80842135D01*
X214689500Y-80842135D01*
X214689500Y-82937870D01*
X214689501Y-82937875D01*
X214695908Y-82997483D01*
X214746202Y-83132328D01*
X214746206Y-83132335D01*
X214832452Y-83247544D01*
X214832455Y-83247547D01*
X214947663Y-83333793D01*
X214953929Y-83337214D01*
X215003335Y-83386619D01*
X215018187Y-83454892D01*
X214993771Y-83520357D01*
X214989127Y-83526186D01*
X214964638Y-83555101D01*
X214964627Y-83555115D01*
X214837343Y-83768727D01*
X214837343Y-83768728D01*
X214746953Y-84000374D01*
X214746950Y-84000384D01*
X214695919Y-84243761D01*
X214695918Y-84243764D01*
X214689500Y-84347149D01*
X214689500Y-84512850D01*
X214695918Y-84616235D01*
X214695919Y-84616238D01*
X214746950Y-84859615D01*
X214746953Y-84859625D01*
X214837342Y-85091269D01*
X214964639Y-85304902D01*
X215125348Y-85494649D01*
X215125350Y-85494651D01*
X215256084Y-85605378D01*
X215294519Y-85663727D01*
X215295306Y-85733592D01*
X215258197Y-85792792D01*
X215256084Y-85794622D01*
X215125350Y-85905348D01*
X215125348Y-85905350D01*
X214964639Y-86095097D01*
X214837342Y-86308730D01*
X214746953Y-86540374D01*
X214746950Y-86540384D01*
X214695919Y-86783761D01*
X214695918Y-86783764D01*
X214689500Y-86887149D01*
X214689500Y-87052850D01*
X214695918Y-87156235D01*
X214695919Y-87156238D01*
X214746950Y-87399615D01*
X214746953Y-87399625D01*
X214837342Y-87631269D01*
X214837344Y-87631273D01*
X214930485Y-87787584D01*
X214964639Y-87844902D01*
X215125348Y-88034649D01*
X215125350Y-88034651D01*
X215256084Y-88145378D01*
X215294519Y-88203727D01*
X215295306Y-88273592D01*
X215258197Y-88332792D01*
X215256084Y-88334622D01*
X215125350Y-88445348D01*
X215125348Y-88445350D01*
X214964639Y-88635097D01*
X214837342Y-88848730D01*
X214746953Y-89080374D01*
X214746950Y-89080384D01*
X214695919Y-89323761D01*
X214695918Y-89323764D01*
X214689500Y-89427149D01*
X214689500Y-89592850D01*
X214695918Y-89696235D01*
X214695919Y-89696238D01*
X214746950Y-89939615D01*
X214746953Y-89939625D01*
X214837342Y-90171269D01*
X214964639Y-90384902D01*
X215125348Y-90574649D01*
X215125350Y-90574651D01*
X215315097Y-90735360D01*
X215315103Y-90735363D01*
X215315106Y-90735366D01*
X215528727Y-90862656D01*
X215528730Y-90862657D01*
X215760374Y-90953046D01*
X215760381Y-90953048D01*
X215760386Y-90953050D01*
X216003763Y-91004081D01*
X216107158Y-91010500D01*
X216107169Y-91010500D01*
X216272831Y-91010500D01*
X216272842Y-91010500D01*
X216376237Y-91004081D01*
X216619614Y-90953050D01*
X216619621Y-90953046D01*
X216619625Y-90953046D01*
X216756850Y-90899500D01*
X216851273Y-90862656D01*
X217064894Y-90735366D01*
X217064898Y-90735361D01*
X217064902Y-90735360D01*
X217254649Y-90574651D01*
X217254651Y-90574649D01*
X217415360Y-90384902D01*
X217415361Y-90384898D01*
X217415366Y-90384894D01*
X217542656Y-90171273D01*
X217633050Y-89939614D01*
X217684081Y-89696237D01*
X217690500Y-89592842D01*
X217690500Y-89427158D01*
X217684081Y-89323763D01*
X217633050Y-89080386D01*
X217633048Y-89080381D01*
X217633046Y-89080374D01*
X217542657Y-88848730D01*
X217542656Y-88848727D01*
X217415366Y-88635106D01*
X217415363Y-88635103D01*
X217415360Y-88635097D01*
X217254651Y-88445350D01*
X217254650Y-88445349D01*
X217123915Y-88334622D01*
X217085480Y-88276274D01*
X217084693Y-88206409D01*
X217121802Y-88147208D01*
X217123915Y-88145378D01*
X217254650Y-88034650D01*
X217254651Y-88034649D01*
X217415360Y-87844902D01*
X217415361Y-87844898D01*
X217415366Y-87844894D01*
X217542656Y-87631273D01*
X217633050Y-87399614D01*
X217684081Y-87156237D01*
X217690500Y-87052842D01*
X217690500Y-86887158D01*
X217684081Y-86783763D01*
X217633050Y-86540386D01*
X217633048Y-86540381D01*
X217633046Y-86540374D01*
X217542657Y-86308730D01*
X217542656Y-86308727D01*
X217415366Y-86095106D01*
X217415363Y-86095103D01*
X217415360Y-86095097D01*
X217254651Y-85905350D01*
X217254650Y-85905349D01*
X217123915Y-85794622D01*
X217085480Y-85736274D01*
X217084693Y-85666409D01*
X217121802Y-85607208D01*
X217123915Y-85605378D01*
X217254650Y-85494650D01*
X217254651Y-85494649D01*
X217415360Y-85304902D01*
X217415361Y-85304898D01*
X217415366Y-85304894D01*
X217542656Y-85091273D01*
X217629200Y-84869481D01*
X217633046Y-84859625D01*
X217633046Y-84859621D01*
X217633050Y-84859614D01*
X217684081Y-84616237D01*
X217690500Y-84512842D01*
X217690500Y-84347158D01*
X217684081Y-84243763D01*
X217633050Y-84000386D01*
X217633048Y-84000381D01*
X217633046Y-84000374D01*
X217542657Y-83768730D01*
X217542656Y-83768728D01*
X217542656Y-83768727D01*
X217415366Y-83555106D01*
X217415365Y-83555105D01*
X217415364Y-83555103D01*
X217390874Y-83526189D01*
X217362567Y-83462310D01*
X217373289Y-83393268D01*
X217419636Y-83340983D01*
X217426073Y-83337213D01*
X217432328Y-83333796D01*
X217432331Y-83333796D01*
X217547546Y-83247546D01*
X217633796Y-83132331D01*
X217684091Y-82997483D01*
X217690500Y-82937873D01*
X217690499Y-80842128D01*
X217684091Y-80782517D01*
X217679131Y-80769219D01*
X217633797Y-80647671D01*
X217633793Y-80647664D01*
X217547547Y-80532455D01*
X217547544Y-80532452D01*
X217432335Y-80446206D01*
X217432328Y-80446202D01*
X217297482Y-80395908D01*
X217297483Y-80395908D01*
X217237883Y-80389501D01*
X217237881Y-80389500D01*
X217237873Y-80389500D01*
X217237864Y-80389500D01*
X215142129Y-80389500D01*
X215142123Y-80389501D01*
X215082516Y-80395908D01*
X214947671Y-80446202D01*
X214947664Y-80446206D01*
X214832455Y-80532452D01*
X214832452Y-80532455D01*
X214746206Y-80647664D01*
X214746202Y-80647671D01*
X214695908Y-80782517D01*
X214689501Y-80842116D01*
X214689501Y-80842123D01*
X214689500Y-80842135D01*
X196100500Y-80842135D01*
X196100500Y-77920945D01*
X196100500Y-77920943D01*
X196059577Y-77768216D01*
X196059573Y-77768209D01*
X195980524Y-77631290D01*
X195980521Y-77631286D01*
X195980520Y-77631284D01*
X195868716Y-77519480D01*
X195868715Y-77519479D01*
X195864385Y-77515149D01*
X195864374Y-77515139D01*
X194487590Y-76138355D01*
X194487588Y-76138352D01*
X194368717Y-76019481D01*
X194368716Y-76019480D01*
X194281904Y-75969360D01*
X194281904Y-75969359D01*
X194281900Y-75969358D01*
X194231785Y-75940423D01*
X194079057Y-75899499D01*
X193920943Y-75899499D01*
X193913347Y-75899499D01*
X193913331Y-75899500D01*
X193420426Y-75899500D01*
X193353387Y-75879815D01*
X193307632Y-75827011D01*
X193297688Y-75757853D01*
X193309942Y-75719204D01*
X193325217Y-75689225D01*
X193325218Y-75689223D01*
X193325220Y-75689219D01*
X193388477Y-75494534D01*
X193420500Y-75292352D01*
X193420500Y-75087648D01*
X193388477Y-74885466D01*
X193383614Y-74870500D01*
X193337166Y-74727547D01*
X193325220Y-74690781D01*
X193325218Y-74690778D01*
X193325218Y-74690776D01*
X193285246Y-74612328D01*
X193232287Y-74508390D01*
X193190227Y-74450499D01*
X193111971Y-74342786D01*
X192967213Y-74198028D01*
X192801614Y-74077715D01*
X192761904Y-74057482D01*
X192708917Y-74030483D01*
X192658123Y-73982511D01*
X192641328Y-73914690D01*
X192663865Y-73848555D01*
X192708917Y-73809516D01*
X192801610Y-73762287D01*
X192822770Y-73746913D01*
X192967213Y-73641971D01*
X192967215Y-73641968D01*
X192967219Y-73641966D01*
X193111966Y-73497219D01*
X193111968Y-73497215D01*
X193111971Y-73497213D01*
X193164732Y-73424590D01*
X193232287Y-73331610D01*
X193325220Y-73149219D01*
X193388477Y-72954534D01*
X193420500Y-72752352D01*
X193420500Y-72547648D01*
X193388477Y-72345466D01*
X193380896Y-72322135D01*
X193355178Y-72242983D01*
X193325220Y-72150781D01*
X193325218Y-72150778D01*
X193325218Y-72150776D01*
X193262429Y-72027547D01*
X193232287Y-71968390D01*
X193201639Y-71926206D01*
X193111971Y-71802786D01*
X192967213Y-71658028D01*
X192801614Y-71537715D01*
X192739770Y-71506204D01*
X192708917Y-71490483D01*
X192658123Y-71442511D01*
X192641328Y-71374690D01*
X192663865Y-71308555D01*
X192708917Y-71269516D01*
X192801610Y-71222287D01*
X192837195Y-71196433D01*
X192967213Y-71101971D01*
X192967215Y-71101968D01*
X192967219Y-71101966D01*
X193111966Y-70957219D01*
X193111968Y-70957215D01*
X193111971Y-70957213D01*
X193164732Y-70884590D01*
X193232287Y-70791610D01*
X193325220Y-70609219D01*
X193388477Y-70414534D01*
X193407900Y-70291902D01*
X201689500Y-70291902D01*
X201689500Y-70528097D01*
X201726446Y-70761368D01*
X201799433Y-70985996D01*
X201858526Y-71101971D01*
X201906657Y-71196433D01*
X201994610Y-71317490D01*
X201996549Y-71320158D01*
X202020029Y-71385965D01*
X202004204Y-71454019D01*
X201955255Y-71501589D01*
X201955454Y-71501953D01*
X201954146Y-71502667D01*
X201954098Y-71502714D01*
X201953885Y-71502809D01*
X201947664Y-71506206D01*
X201832455Y-71592452D01*
X201832452Y-71592455D01*
X201746206Y-71707664D01*
X201746202Y-71707671D01*
X201695908Y-71842517D01*
X201689501Y-71902116D01*
X201689501Y-71902123D01*
X201689500Y-71902135D01*
X201689500Y-73997870D01*
X201689501Y-73997876D01*
X201695908Y-74057483D01*
X201746202Y-74192328D01*
X201746206Y-74192335D01*
X201832452Y-74307544D01*
X201832455Y-74307547D01*
X201947664Y-74393793D01*
X201947671Y-74393797D01*
X202082517Y-74444091D01*
X202082516Y-74444091D01*
X202089444Y-74444835D01*
X202142127Y-74450500D01*
X204237872Y-74450499D01*
X204297483Y-74444091D01*
X204416667Y-74399637D01*
X204486358Y-74394654D01*
X204503329Y-74399636D01*
X204622517Y-74444091D01*
X204622516Y-74444091D01*
X204629444Y-74444835D01*
X204682127Y-74450500D01*
X206777872Y-74450499D01*
X206837483Y-74444091D01*
X206956667Y-74399637D01*
X207026358Y-74394654D01*
X207043329Y-74399636D01*
X207162517Y-74444091D01*
X207162516Y-74444091D01*
X207169444Y-74444835D01*
X207222127Y-74450500D01*
X209317872Y-74450499D01*
X209377483Y-74444091D01*
X209496667Y-74399637D01*
X209566358Y-74394654D01*
X209583329Y-74399636D01*
X209702517Y-74444091D01*
X209702516Y-74444091D01*
X209709444Y-74444835D01*
X209762127Y-74450500D01*
X211857872Y-74450499D01*
X211917483Y-74444091D01*
X212052331Y-74393796D01*
X212167546Y-74307546D01*
X212253796Y-74192331D01*
X212304091Y-74057483D01*
X212310500Y-73997873D01*
X212310499Y-72322135D01*
X214634500Y-72322135D01*
X214634500Y-74417870D01*
X214634501Y-74417876D01*
X214640908Y-74477483D01*
X214691202Y-74612328D01*
X214691206Y-74612335D01*
X214777452Y-74727544D01*
X214777455Y-74727547D01*
X214892664Y-74813793D01*
X214892671Y-74813797D01*
X215027517Y-74864091D01*
X215027516Y-74864091D01*
X215034444Y-74864835D01*
X215087127Y-74870500D01*
X217182872Y-74870499D01*
X217242483Y-74864091D01*
X217377331Y-74813796D01*
X217492546Y-74727546D01*
X217578796Y-74612331D01*
X217629091Y-74477483D01*
X217635500Y-74417873D01*
X217635499Y-72322128D01*
X217629091Y-72262517D01*
X217621805Y-72242983D01*
X217578797Y-72127671D01*
X217578793Y-72127664D01*
X217492547Y-72012455D01*
X217492544Y-72012452D01*
X217377335Y-71926206D01*
X217377328Y-71926202D01*
X217242482Y-71875908D01*
X217242483Y-71875908D01*
X217182883Y-71869501D01*
X217182881Y-71869500D01*
X217182873Y-71869500D01*
X217182864Y-71869500D01*
X215087129Y-71869500D01*
X215087123Y-71869501D01*
X215027516Y-71875908D01*
X214892671Y-71926202D01*
X214892664Y-71926206D01*
X214777455Y-72012452D01*
X214777452Y-72012455D01*
X214691206Y-72127664D01*
X214691202Y-72127671D01*
X214640908Y-72262517D01*
X214637470Y-72294499D01*
X214634501Y-72322123D01*
X214634500Y-72322135D01*
X212310499Y-72322135D01*
X212310499Y-71902128D01*
X212304091Y-71842517D01*
X212289272Y-71802786D01*
X212253797Y-71707671D01*
X212253793Y-71707664D01*
X212167547Y-71592455D01*
X212167544Y-71592452D01*
X212052335Y-71506206D01*
X212044546Y-71501953D01*
X212046331Y-71498683D01*
X212004448Y-71467284D01*
X211980078Y-71401803D01*
X211994978Y-71333540D01*
X212003441Y-71320171D01*
X212093343Y-71196433D01*
X212200568Y-70985992D01*
X212273553Y-70761368D01*
X212310500Y-70528097D01*
X212310500Y-70291902D01*
X212273553Y-70058631D01*
X212200566Y-69834003D01*
X212093342Y-69623566D01*
X211954517Y-69432490D01*
X211787510Y-69265483D01*
X211596433Y-69126657D01*
X211385996Y-69019433D01*
X211161368Y-68946446D01*
X210928097Y-68909500D01*
X210928092Y-68909500D01*
X210691908Y-68909500D01*
X210691903Y-68909500D01*
X210458631Y-68946446D01*
X210234003Y-69019433D01*
X210023566Y-69126657D01*
X209914550Y-69205862D01*
X209832490Y-69265483D01*
X209832488Y-69265485D01*
X209832487Y-69265485D01*
X209665484Y-69432488D01*
X209640318Y-69467127D01*
X209584987Y-69509792D01*
X209515374Y-69515771D01*
X209453579Y-69483165D01*
X209439682Y-69467127D01*
X209414517Y-69432490D01*
X209247510Y-69265483D01*
X209056433Y-69126657D01*
X208845996Y-69019433D01*
X208621368Y-68946446D01*
X208388097Y-68909500D01*
X208388092Y-68909500D01*
X208151908Y-68909500D01*
X208151903Y-68909500D01*
X207918631Y-68946446D01*
X207694003Y-69019433D01*
X207483566Y-69126657D01*
X207374550Y-69205862D01*
X207292490Y-69265483D01*
X207292488Y-69265485D01*
X207292487Y-69265485D01*
X207125484Y-69432488D01*
X207100318Y-69467127D01*
X207044987Y-69509792D01*
X206975374Y-69515771D01*
X206913579Y-69483165D01*
X206899682Y-69467127D01*
X206874517Y-69432490D01*
X206707510Y-69265483D01*
X206516433Y-69126657D01*
X206305996Y-69019433D01*
X206081368Y-68946446D01*
X205848097Y-68909500D01*
X205848092Y-68909500D01*
X205611908Y-68909500D01*
X205611903Y-68909500D01*
X205378631Y-68946446D01*
X205154003Y-69019433D01*
X204943566Y-69126657D01*
X204834550Y-69205862D01*
X204752490Y-69265483D01*
X204752488Y-69265485D01*
X204752487Y-69265485D01*
X204585484Y-69432488D01*
X204560318Y-69467127D01*
X204504987Y-69509792D01*
X204435374Y-69515771D01*
X204373579Y-69483165D01*
X204359682Y-69467127D01*
X204334517Y-69432490D01*
X204167510Y-69265483D01*
X203976433Y-69126657D01*
X203765996Y-69019433D01*
X203541368Y-68946446D01*
X203308097Y-68909500D01*
X203308092Y-68909500D01*
X203071908Y-68909500D01*
X203071903Y-68909500D01*
X202838631Y-68946446D01*
X202614003Y-69019433D01*
X202403566Y-69126657D01*
X202294550Y-69205862D01*
X202212490Y-69265483D01*
X202212488Y-69265485D01*
X202212487Y-69265485D01*
X202045485Y-69432487D01*
X202045485Y-69432488D01*
X202045483Y-69432490D01*
X201989320Y-69509792D01*
X201906657Y-69623566D01*
X201799433Y-69834003D01*
X201726446Y-70058631D01*
X201689500Y-70291902D01*
X193407900Y-70291902D01*
X193420500Y-70212352D01*
X193420500Y-70007648D01*
X193388477Y-69805466D01*
X193325220Y-69610781D01*
X193325218Y-69610778D01*
X193325218Y-69610776D01*
X193260196Y-69483165D01*
X193232287Y-69428390D01*
X193224556Y-69417749D01*
X193111971Y-69262786D01*
X192967213Y-69118028D01*
X192801614Y-68997715D01*
X192795006Y-68994348D01*
X192708917Y-68950483D01*
X192658123Y-68902511D01*
X192641328Y-68834690D01*
X192663865Y-68768555D01*
X192708917Y-68729516D01*
X192801610Y-68682287D01*
X192822770Y-68666913D01*
X192967213Y-68561971D01*
X192967215Y-68561968D01*
X192967219Y-68561966D01*
X193111966Y-68417219D01*
X193111968Y-68417215D01*
X193111971Y-68417213D01*
X193164732Y-68344590D01*
X193232287Y-68251610D01*
X193325220Y-68069219D01*
X193388477Y-67874534D01*
X193420500Y-67672352D01*
X193420500Y-67467648D01*
X193388477Y-67265466D01*
X193325220Y-67070781D01*
X193325218Y-67070778D01*
X193325218Y-67070776D01*
X193238457Y-66900500D01*
X193232287Y-66888390D01*
X193199886Y-66843793D01*
X193111971Y-66722786D01*
X192967213Y-66578028D01*
X192801614Y-66457715D01*
X192795006Y-66454348D01*
X192708917Y-66410483D01*
X192658123Y-66362511D01*
X192641328Y-66294690D01*
X192663865Y-66228555D01*
X192708917Y-66189516D01*
X192801610Y-66142287D01*
X192822770Y-66126913D01*
X192967213Y-66021971D01*
X192967215Y-66021968D01*
X192967219Y-66021966D01*
X193111966Y-65877219D01*
X193111968Y-65877215D01*
X193111971Y-65877213D01*
X193164732Y-65804590D01*
X193232287Y-65711610D01*
X193325220Y-65529219D01*
X193388477Y-65334534D01*
X193420500Y-65132352D01*
X193420500Y-64927648D01*
X193388477Y-64725466D01*
X193325220Y-64530781D01*
X193325218Y-64530778D01*
X193325218Y-64530776D01*
X193291503Y-64464607D01*
X193232287Y-64348390D01*
X193224556Y-64337749D01*
X193111971Y-64182786D01*
X192967213Y-64038028D01*
X192801614Y-63917715D01*
X192765865Y-63899500D01*
X192708917Y-63870483D01*
X192658123Y-63822511D01*
X192641328Y-63754690D01*
X192663865Y-63688555D01*
X192708917Y-63649516D01*
X192801610Y-63602287D01*
X192822770Y-63586913D01*
X192967213Y-63481971D01*
X192967215Y-63481968D01*
X192967219Y-63481966D01*
X193111966Y-63337219D01*
X193111968Y-63337215D01*
X193111971Y-63337213D01*
X193164732Y-63264590D01*
X193232287Y-63171610D01*
X193325220Y-62989219D01*
X193388477Y-62794534D01*
X193420500Y-62592352D01*
X193420500Y-62387648D01*
X193388477Y-62185466D01*
X193325220Y-61990781D01*
X193325218Y-61990778D01*
X193325218Y-61990776D01*
X193279515Y-61901080D01*
X193232287Y-61808390D01*
X193224556Y-61797749D01*
X193111971Y-61642786D01*
X192967213Y-61498028D01*
X192801613Y-61377715D01*
X192801612Y-61377714D01*
X192801610Y-61377713D01*
X192744653Y-61348691D01*
X192619223Y-61284781D01*
X192424534Y-61221522D01*
X192249995Y-61193878D01*
X192222352Y-61189500D01*
X192017648Y-61189500D01*
X191993329Y-61193351D01*
X191815465Y-61221522D01*
X191620776Y-61284781D01*
X191438386Y-61377715D01*
X191272786Y-61498028D01*
X191128028Y-61642786D01*
X191007715Y-61808386D01*
X190960485Y-61901080D01*
X190912510Y-61951876D01*
X190844689Y-61968671D01*
X190778554Y-61946134D01*
X190739515Y-61901080D01*
X190738883Y-61899840D01*
X190692287Y-61808390D01*
X190684556Y-61797749D01*
X190571971Y-61642786D01*
X190427213Y-61498028D01*
X190261613Y-61377715D01*
X190261612Y-61377714D01*
X190261610Y-61377713D01*
X190204653Y-61348691D01*
X190079223Y-61284781D01*
X189884534Y-61221522D01*
X189709995Y-61193878D01*
X189682352Y-61189500D01*
X189477648Y-61189500D01*
X189453329Y-61193351D01*
X189275465Y-61221522D01*
X189080776Y-61284781D01*
X188898386Y-61377715D01*
X188732786Y-61498028D01*
X188588028Y-61642786D01*
X188467715Y-61808386D01*
X188420485Y-61901080D01*
X188372510Y-61951876D01*
X188304689Y-61968671D01*
X188238554Y-61946134D01*
X188199515Y-61901080D01*
X188198883Y-61899840D01*
X188152287Y-61808390D01*
X188144556Y-61797749D01*
X188031971Y-61642786D01*
X187887213Y-61498028D01*
X187721613Y-61377715D01*
X187721612Y-61377714D01*
X187721610Y-61377713D01*
X187664653Y-61348691D01*
X187539223Y-61284781D01*
X187344534Y-61221522D01*
X187169995Y-61193878D01*
X187142352Y-61189500D01*
X186937648Y-61189500D01*
X186913329Y-61193351D01*
X186735465Y-61221522D01*
X186540776Y-61284781D01*
X186358386Y-61377715D01*
X186192786Y-61498028D01*
X186048028Y-61642786D01*
X185927715Y-61808386D01*
X185834781Y-61990776D01*
X185771522Y-62185465D01*
X185739500Y-62387648D01*
X185739500Y-62592351D01*
X185771522Y-62794534D01*
X185834781Y-62989223D01*
X185927715Y-63171613D01*
X186048028Y-63337213D01*
X186192786Y-63481971D01*
X186347749Y-63594556D01*
X186358390Y-63602287D01*
X186451080Y-63649515D01*
X186540776Y-63695218D01*
X186540778Y-63695218D01*
X186540781Y-63695220D01*
X186645137Y-63729127D01*
X186735465Y-63758477D01*
X186754697Y-63761523D01*
X186937648Y-63790500D01*
X186937649Y-63790500D01*
X187142351Y-63790500D01*
X187142352Y-63790500D01*
X187344534Y-63758477D01*
X187539219Y-63695220D01*
X187721610Y-63602287D01*
X187814590Y-63534732D01*
X187887213Y-63481971D01*
X187887215Y-63481968D01*
X187887219Y-63481966D01*
X188031966Y-63337219D01*
X188031968Y-63337215D01*
X188031971Y-63337213D01*
X188152284Y-63171614D01*
X188152285Y-63171613D01*
X188152287Y-63171610D01*
X188199516Y-63078917D01*
X188247489Y-63028123D01*
X188315310Y-63011328D01*
X188381445Y-63033865D01*
X188420485Y-63078919D01*
X188467715Y-63171614D01*
X188588028Y-63337213D01*
X188732786Y-63481971D01*
X188887749Y-63594556D01*
X188898390Y-63602287D01*
X188991080Y-63649515D01*
X189080776Y-63695218D01*
X189080778Y-63695218D01*
X189080781Y-63695220D01*
X189185137Y-63729127D01*
X189275465Y-63758477D01*
X189294697Y-63761523D01*
X189477648Y-63790500D01*
X189477649Y-63790500D01*
X189682351Y-63790500D01*
X189682352Y-63790500D01*
X189884534Y-63758477D01*
X190079219Y-63695220D01*
X190261610Y-63602287D01*
X190354590Y-63534732D01*
X190427213Y-63481971D01*
X190427215Y-63481968D01*
X190427219Y-63481966D01*
X190571966Y-63337219D01*
X190571968Y-63337215D01*
X190571971Y-63337213D01*
X190692284Y-63171614D01*
X190692285Y-63171613D01*
X190692287Y-63171610D01*
X190739516Y-63078917D01*
X190787489Y-63028123D01*
X190855310Y-63011328D01*
X190921445Y-63033865D01*
X190960485Y-63078919D01*
X191007715Y-63171614D01*
X191128028Y-63337213D01*
X191272786Y-63481971D01*
X191427749Y-63594556D01*
X191438390Y-63602287D01*
X191529840Y-63648883D01*
X191531080Y-63649515D01*
X191581876Y-63697490D01*
X191598671Y-63765311D01*
X191576134Y-63831446D01*
X191531080Y-63870485D01*
X191438386Y-63917715D01*
X191272786Y-64038028D01*
X191128028Y-64182786D01*
X191007715Y-64348386D01*
X190914781Y-64530776D01*
X190851522Y-64725465D01*
X190819500Y-64927648D01*
X190819500Y-65132351D01*
X190851522Y-65334534D01*
X190914781Y-65529223D01*
X191007715Y-65711613D01*
X191128028Y-65877213D01*
X191272786Y-66021971D01*
X191427749Y-66134556D01*
X191438390Y-66142287D01*
X191529840Y-66188883D01*
X191531080Y-66189515D01*
X191581876Y-66237490D01*
X191598671Y-66305311D01*
X191576134Y-66371446D01*
X191531080Y-66410485D01*
X191438386Y-66457715D01*
X191272786Y-66578028D01*
X191128028Y-66722786D01*
X191007715Y-66888386D01*
X190914781Y-67070776D01*
X190851522Y-67265465D01*
X190819500Y-67467648D01*
X190819500Y-67672351D01*
X190851522Y-67874534D01*
X190914781Y-68069223D01*
X191007715Y-68251613D01*
X191128028Y-68417213D01*
X191272786Y-68561971D01*
X191427749Y-68674556D01*
X191438390Y-68682287D01*
X191529840Y-68728883D01*
X191531080Y-68729515D01*
X191581876Y-68777490D01*
X191598671Y-68845311D01*
X191576134Y-68911446D01*
X191531080Y-68950485D01*
X191438386Y-68997715D01*
X191272786Y-69118028D01*
X191128028Y-69262786D01*
X191007715Y-69428386D01*
X190914781Y-69610776D01*
X190851522Y-69805465D01*
X190819500Y-70007648D01*
X190819500Y-70212351D01*
X190851522Y-70414534D01*
X190914781Y-70609223D01*
X191007715Y-70791613D01*
X191128028Y-70957213D01*
X191272786Y-71101971D01*
X191427749Y-71214556D01*
X191438390Y-71222287D01*
X191529840Y-71268883D01*
X191531080Y-71269515D01*
X191581876Y-71317490D01*
X191598671Y-71385311D01*
X191576134Y-71451446D01*
X191531080Y-71490485D01*
X191438386Y-71537715D01*
X191272786Y-71658028D01*
X191128028Y-71802786D01*
X191007715Y-71968386D01*
X190914781Y-72150776D01*
X190851522Y-72345465D01*
X190819500Y-72547648D01*
X190819500Y-72752351D01*
X190851522Y-72954534D01*
X190914781Y-73149223D01*
X191007715Y-73331613D01*
X191128028Y-73497213D01*
X191272786Y-73641971D01*
X191427749Y-73754556D01*
X191438390Y-73762287D01*
X191529840Y-73808883D01*
X191531080Y-73809515D01*
X191581876Y-73857490D01*
X191598671Y-73925311D01*
X191576134Y-73991446D01*
X191531080Y-74030485D01*
X191438386Y-74077715D01*
X191272786Y-74198028D01*
X191128028Y-74342786D01*
X191007715Y-74508386D01*
X190914781Y-74690776D01*
X190851522Y-74885465D01*
X190819500Y-75087648D01*
X190819500Y-75292351D01*
X190851522Y-75494534D01*
X190914782Y-75689225D01*
X190930058Y-75719204D01*
X190942955Y-75787873D01*
X190916680Y-75852614D01*
X190859574Y-75892871D01*
X190819574Y-75899500D01*
X178490098Y-75899500D01*
X178423059Y-75879815D01*
X178402417Y-75863181D01*
X178174077Y-75634841D01*
X178140592Y-75573518D01*
X178143827Y-75508842D01*
X178148477Y-75494534D01*
X178180500Y-75292352D01*
X178180500Y-75087648D01*
X178148477Y-74885466D01*
X178143614Y-74870500D01*
X178097166Y-74727547D01*
X178085220Y-74690781D01*
X178085218Y-74690778D01*
X178085218Y-74690776D01*
X178045246Y-74612328D01*
X177992287Y-74508390D01*
X177950227Y-74450499D01*
X177871971Y-74342786D01*
X177727213Y-74198028D01*
X177561614Y-74077715D01*
X177521904Y-74057482D01*
X177468917Y-74030483D01*
X177418123Y-73982511D01*
X177401328Y-73914690D01*
X177423865Y-73848555D01*
X177468917Y-73809516D01*
X177561610Y-73762287D01*
X177582770Y-73746913D01*
X177727213Y-73641971D01*
X177727215Y-73641968D01*
X177727219Y-73641966D01*
X177871966Y-73497219D01*
X177871968Y-73497215D01*
X177871971Y-73497213D01*
X177924732Y-73424590D01*
X177992287Y-73331610D01*
X178085220Y-73149219D01*
X178148477Y-72954534D01*
X178180500Y-72752352D01*
X178180500Y-72547648D01*
X178148477Y-72345466D01*
X178140896Y-72322135D01*
X178115178Y-72242983D01*
X178085220Y-72150781D01*
X178085218Y-72150778D01*
X178085218Y-72150776D01*
X178022429Y-72027547D01*
X177992287Y-71968390D01*
X177961639Y-71926206D01*
X177871971Y-71802786D01*
X177727213Y-71658028D01*
X177561614Y-71537715D01*
X177499770Y-71506204D01*
X177468917Y-71490483D01*
X177418123Y-71442511D01*
X177401328Y-71374690D01*
X177423865Y-71308555D01*
X177468917Y-71269516D01*
X177561610Y-71222287D01*
X177597195Y-71196433D01*
X177727213Y-71101971D01*
X177727215Y-71101968D01*
X177727219Y-71101966D01*
X177871966Y-70957219D01*
X177871968Y-70957215D01*
X177871971Y-70957213D01*
X177924732Y-70884590D01*
X177992287Y-70791610D01*
X178085220Y-70609219D01*
X178148477Y-70414534D01*
X178180500Y-70212352D01*
X178180500Y-70007648D01*
X178148477Y-69805466D01*
X178085220Y-69610781D01*
X178085218Y-69610778D01*
X178085218Y-69610776D01*
X178020196Y-69483165D01*
X177992287Y-69428390D01*
X177984556Y-69417749D01*
X177871971Y-69262786D01*
X177727213Y-69118028D01*
X177561614Y-68997715D01*
X177555006Y-68994348D01*
X177468917Y-68950483D01*
X177418123Y-68902511D01*
X177401328Y-68834690D01*
X177423865Y-68768555D01*
X177468917Y-68729516D01*
X177561610Y-68682287D01*
X177582770Y-68666913D01*
X177727213Y-68561971D01*
X177727215Y-68561968D01*
X177727219Y-68561966D01*
X177871966Y-68417219D01*
X177871968Y-68417215D01*
X177871971Y-68417213D01*
X177924732Y-68344590D01*
X177992287Y-68251610D01*
X178085220Y-68069219D01*
X178148477Y-67874534D01*
X178180500Y-67672352D01*
X178180500Y-67467648D01*
X178148477Y-67265466D01*
X178085220Y-67070781D01*
X178085218Y-67070778D01*
X178085218Y-67070776D01*
X177998457Y-66900500D01*
X177992287Y-66888390D01*
X177959886Y-66843793D01*
X177871971Y-66722786D01*
X177727213Y-66578028D01*
X177561614Y-66457715D01*
X177555006Y-66454348D01*
X177468917Y-66410483D01*
X177418123Y-66362511D01*
X177401328Y-66294690D01*
X177423865Y-66228555D01*
X177468917Y-66189516D01*
X177561610Y-66142287D01*
X177582770Y-66126913D01*
X177727213Y-66021971D01*
X177727215Y-66021968D01*
X177727219Y-66021966D01*
X177871966Y-65877219D01*
X177871968Y-65877215D01*
X177871971Y-65877213D01*
X177924732Y-65804590D01*
X177992287Y-65711610D01*
X178085220Y-65529219D01*
X178148477Y-65334534D01*
X178180500Y-65132352D01*
X178180500Y-64927648D01*
X178148477Y-64725466D01*
X178085220Y-64530781D01*
X178085218Y-64530778D01*
X178085218Y-64530776D01*
X178051503Y-64464607D01*
X177992287Y-64348390D01*
X177984556Y-64337749D01*
X177871971Y-64182786D01*
X177727213Y-64038028D01*
X177561614Y-63917715D01*
X177525865Y-63899500D01*
X177468917Y-63870483D01*
X177418123Y-63822511D01*
X177401328Y-63754690D01*
X177423865Y-63688555D01*
X177468917Y-63649516D01*
X177561610Y-63602287D01*
X177582770Y-63586913D01*
X177727213Y-63481971D01*
X177727215Y-63481968D01*
X177727219Y-63481966D01*
X177871966Y-63337219D01*
X177871968Y-63337215D01*
X177871971Y-63337213D01*
X177992284Y-63171614D01*
X177992285Y-63171613D01*
X177992287Y-63171610D01*
X178039516Y-63078917D01*
X178087489Y-63028123D01*
X178155310Y-63011328D01*
X178221445Y-63033865D01*
X178260485Y-63078919D01*
X178307715Y-63171614D01*
X178428028Y-63337213D01*
X178572786Y-63481971D01*
X178727749Y-63594556D01*
X178738390Y-63602287D01*
X178831080Y-63649515D01*
X178920776Y-63695218D01*
X178920778Y-63695218D01*
X178920781Y-63695220D01*
X179025137Y-63729127D01*
X179115465Y-63758477D01*
X179134697Y-63761523D01*
X179317648Y-63790500D01*
X179317649Y-63790500D01*
X179522351Y-63790500D01*
X179522352Y-63790500D01*
X179724534Y-63758477D01*
X179919219Y-63695220D01*
X180101610Y-63602287D01*
X180194590Y-63534732D01*
X180267213Y-63481971D01*
X180267215Y-63481968D01*
X180267219Y-63481966D01*
X180411966Y-63337219D01*
X180411968Y-63337215D01*
X180411971Y-63337213D01*
X180532284Y-63171614D01*
X180532285Y-63171613D01*
X180532287Y-63171610D01*
X180579516Y-63078917D01*
X180627489Y-63028123D01*
X180695310Y-63011328D01*
X180761445Y-63033865D01*
X180800485Y-63078919D01*
X180847715Y-63171614D01*
X180968028Y-63337213D01*
X181112786Y-63481971D01*
X181267749Y-63594556D01*
X181278390Y-63602287D01*
X181371080Y-63649515D01*
X181460776Y-63695218D01*
X181460778Y-63695218D01*
X181460781Y-63695220D01*
X181565137Y-63729127D01*
X181655465Y-63758477D01*
X181674697Y-63761523D01*
X181857648Y-63790500D01*
X181857649Y-63790500D01*
X182062351Y-63790500D01*
X182062352Y-63790500D01*
X182264534Y-63758477D01*
X182459219Y-63695220D01*
X182641610Y-63602287D01*
X182734590Y-63534732D01*
X182807213Y-63481971D01*
X182807215Y-63481968D01*
X182807219Y-63481966D01*
X182951966Y-63337219D01*
X182951968Y-63337215D01*
X182951971Y-63337213D01*
X183004732Y-63264590D01*
X183072287Y-63171610D01*
X183165220Y-62989219D01*
X183228477Y-62794534D01*
X183260500Y-62592352D01*
X183260500Y-62387648D01*
X183228477Y-62185466D01*
X183165220Y-61990781D01*
X183165218Y-61990778D01*
X183165218Y-61990776D01*
X183119515Y-61901080D01*
X183072287Y-61808390D01*
X183064556Y-61797749D01*
X182951971Y-61642786D01*
X182807213Y-61498028D01*
X182641613Y-61377715D01*
X182641612Y-61377714D01*
X182641610Y-61377713D01*
X182584653Y-61348691D01*
X182459223Y-61284781D01*
X182264534Y-61221522D01*
X182089995Y-61193878D01*
X182062352Y-61189500D01*
X181857648Y-61189500D01*
X181833329Y-61193351D01*
X181655465Y-61221522D01*
X181460776Y-61284781D01*
X181278386Y-61377715D01*
X181112786Y-61498028D01*
X180968028Y-61642786D01*
X180847715Y-61808386D01*
X180800485Y-61901080D01*
X180752510Y-61951876D01*
X180684689Y-61968671D01*
X180618554Y-61946134D01*
X180579515Y-61901080D01*
X180578883Y-61899840D01*
X180532287Y-61808390D01*
X180524556Y-61797749D01*
X180411971Y-61642786D01*
X180267213Y-61498028D01*
X180101613Y-61377715D01*
X180101612Y-61377714D01*
X180101610Y-61377713D01*
X180044653Y-61348691D01*
X179919223Y-61284781D01*
X179724534Y-61221522D01*
X179549995Y-61193878D01*
X179522352Y-61189500D01*
X179317648Y-61189500D01*
X179293329Y-61193351D01*
X179115465Y-61221522D01*
X178920776Y-61284781D01*
X178738386Y-61377715D01*
X178572786Y-61498028D01*
X178428028Y-61642786D01*
X178307715Y-61808386D01*
X178260485Y-61901080D01*
X178212510Y-61951876D01*
X178144689Y-61968671D01*
X178078554Y-61946134D01*
X178039515Y-61901080D01*
X178038883Y-61899840D01*
X177992287Y-61808390D01*
X177984556Y-61797749D01*
X177871971Y-61642786D01*
X177727213Y-61498028D01*
X177561613Y-61377715D01*
X177561612Y-61377714D01*
X177561610Y-61377713D01*
X177504653Y-61348691D01*
X177379223Y-61284781D01*
X177184534Y-61221522D01*
X177009995Y-61193878D01*
X176982352Y-61189500D01*
X176777648Y-61189500D01*
X176753329Y-61193351D01*
X176575465Y-61221522D01*
X176380776Y-61284781D01*
X176198386Y-61377715D01*
X176032786Y-61498028D01*
X175888028Y-61642786D01*
X175767715Y-61808386D01*
X175674781Y-61990776D01*
X175611522Y-62185465D01*
X175579500Y-62387648D01*
X175579500Y-62592351D01*
X175611522Y-62794534D01*
X175674781Y-62989223D01*
X175767715Y-63171613D01*
X175888028Y-63337213D01*
X176032786Y-63481971D01*
X176187749Y-63594556D01*
X176198390Y-63602287D01*
X176289840Y-63648883D01*
X176291080Y-63649515D01*
X176341876Y-63697490D01*
X176358671Y-63765311D01*
X176336134Y-63831446D01*
X176291080Y-63870485D01*
X176198386Y-63917715D01*
X176032786Y-64038028D01*
X175888028Y-64182786D01*
X175767715Y-64348386D01*
X175674781Y-64530776D01*
X175611522Y-64725465D01*
X175579500Y-64927648D01*
X175579500Y-65132351D01*
X175611522Y-65334534D01*
X175674781Y-65529223D01*
X175767715Y-65711613D01*
X175888028Y-65877213D01*
X176032786Y-66021971D01*
X176187749Y-66134556D01*
X176198390Y-66142287D01*
X176289840Y-66188883D01*
X176291080Y-66189515D01*
X176341876Y-66237490D01*
X176358671Y-66305311D01*
X176336134Y-66371446D01*
X176291080Y-66410485D01*
X176198386Y-66457715D01*
X176032786Y-66578028D01*
X175888028Y-66722786D01*
X175767715Y-66888386D01*
X175674781Y-67070776D01*
X175611522Y-67265465D01*
X175579500Y-67467648D01*
X175579500Y-67672351D01*
X175611522Y-67874534D01*
X175674781Y-68069223D01*
X175767715Y-68251613D01*
X175888028Y-68417213D01*
X176032786Y-68561971D01*
X176187749Y-68674556D01*
X176198390Y-68682287D01*
X176289840Y-68728883D01*
X176291080Y-68729515D01*
X176341876Y-68777490D01*
X176358671Y-68845311D01*
X176336134Y-68911446D01*
X176291080Y-68950485D01*
X176198386Y-68997715D01*
X176032786Y-69118028D01*
X175888028Y-69262786D01*
X175767715Y-69428386D01*
X175674781Y-69610776D01*
X175611522Y-69805465D01*
X175579500Y-70007648D01*
X175579500Y-70212351D01*
X175611522Y-70414534D01*
X175674781Y-70609223D01*
X175767715Y-70791613D01*
X175888028Y-70957213D01*
X176032786Y-71101971D01*
X176187749Y-71214556D01*
X176198390Y-71222287D01*
X176289840Y-71268883D01*
X176291080Y-71269515D01*
X176341876Y-71317490D01*
X176358671Y-71385311D01*
X176336134Y-71451446D01*
X176291080Y-71490485D01*
X176198386Y-71537715D01*
X176032786Y-71658028D01*
X175888028Y-71802786D01*
X175767715Y-71968386D01*
X175674781Y-72150776D01*
X175611522Y-72345465D01*
X175579500Y-72547648D01*
X175579500Y-72752351D01*
X175611522Y-72954534D01*
X175674781Y-73149223D01*
X175767715Y-73331613D01*
X175888028Y-73497213D01*
X176032786Y-73641971D01*
X176187749Y-73754556D01*
X176198390Y-73762287D01*
X176289840Y-73808883D01*
X176291080Y-73809515D01*
X176341876Y-73857490D01*
X176358671Y-73925311D01*
X176336134Y-73991446D01*
X176291080Y-74030485D01*
X176198386Y-74077715D01*
X176032786Y-74198028D01*
X175888028Y-74342786D01*
X175767715Y-74508386D01*
X175674781Y-74690776D01*
X175611522Y-74885465D01*
X175579500Y-75087648D01*
X175579500Y-75292351D01*
X175611522Y-75494534D01*
X175674781Y-75689223D01*
X175725047Y-75787873D01*
X175763418Y-75863181D01*
X175767715Y-75871613D01*
X175888028Y-76037213D01*
X176032786Y-76181971D01*
X176187749Y-76294556D01*
X176198390Y-76302287D01*
X176289840Y-76348883D01*
X176291080Y-76349515D01*
X176341876Y-76397490D01*
X176358671Y-76465311D01*
X176336134Y-76531446D01*
X176291080Y-76570485D01*
X176198386Y-76617715D01*
X176032786Y-76738028D01*
X175888028Y-76882786D01*
X175767715Y-77048386D01*
X175674781Y-77230776D01*
X175611522Y-77425465D01*
X175579500Y-77627648D01*
X175579500Y-77832351D01*
X175611522Y-78034534D01*
X175674781Y-78229223D01*
X175767715Y-78411613D01*
X175888028Y-78577213D01*
X176032786Y-78721971D01*
X176187749Y-78834556D01*
X176198390Y-78842287D01*
X176289840Y-78888883D01*
X176291080Y-78889515D01*
X176341876Y-78937490D01*
X176358671Y-79005311D01*
X176336134Y-79071446D01*
X176291080Y-79110485D01*
X176198386Y-79157715D01*
X176032786Y-79278028D01*
X175888028Y-79422786D01*
X175767715Y-79588386D01*
X175674781Y-79770776D01*
X175611522Y-79965465D01*
X175579500Y-80167648D01*
X175579500Y-80372351D01*
X175611522Y-80574534D01*
X175674781Y-80769223D01*
X175767715Y-80951613D01*
X175888028Y-81117213D01*
X176032786Y-81261971D01*
X176187749Y-81374556D01*
X176198390Y-81382287D01*
X176289840Y-81428883D01*
X176291080Y-81429515D01*
X176341876Y-81477490D01*
X176358671Y-81545311D01*
X176336134Y-81611446D01*
X176291080Y-81650485D01*
X176198386Y-81697715D01*
X176032786Y-81818028D01*
X175888028Y-81962786D01*
X175767715Y-82128386D01*
X175674781Y-82310776D01*
X175611522Y-82505465D01*
X175581694Y-82693793D01*
X175579500Y-82707648D01*
X175579500Y-82912352D01*
X175592984Y-82997483D01*
X175611523Y-83114534D01*
X175611522Y-83114534D01*
X175674781Y-83309223D01*
X175767715Y-83491613D01*
X175888028Y-83657213D01*
X176032786Y-83801971D01*
X176187749Y-83914556D01*
X176198390Y-83922287D01*
X176289840Y-83968883D01*
X176291080Y-83969515D01*
X176341876Y-84017490D01*
X176358671Y-84085311D01*
X176336134Y-84151446D01*
X176291080Y-84190485D01*
X176198386Y-84237715D01*
X176032786Y-84358028D01*
X175888028Y-84502786D01*
X175767715Y-84668386D01*
X175674781Y-84850776D01*
X175611522Y-85045465D01*
X175579500Y-85247648D01*
X175579500Y-85452351D01*
X175611522Y-85654534D01*
X175674781Y-85849223D01*
X175767715Y-86031613D01*
X175888028Y-86197213D01*
X176032786Y-86341971D01*
X176187749Y-86454556D01*
X176198390Y-86462287D01*
X176289840Y-86508883D01*
X176291080Y-86509515D01*
X176341876Y-86557490D01*
X176358671Y-86625311D01*
X176336134Y-86691446D01*
X176291080Y-86730485D01*
X176198386Y-86777715D01*
X176032786Y-86898028D01*
X175888028Y-87042786D01*
X175767715Y-87208386D01*
X175674781Y-87390776D01*
X175611522Y-87585465D01*
X175579500Y-87787648D01*
X175579500Y-87992351D01*
X175611522Y-88194534D01*
X175674781Y-88389223D01*
X175703380Y-88445350D01*
X175759089Y-88554685D01*
X175767715Y-88571613D01*
X175888028Y-88737213D01*
X176032786Y-88881971D01*
X176187749Y-88994556D01*
X176198390Y-89002287D01*
X176289840Y-89048883D01*
X176291080Y-89049515D01*
X176341876Y-89097490D01*
X176358671Y-89165311D01*
X176336134Y-89231446D01*
X176291080Y-89270485D01*
X176198386Y-89317715D01*
X176032786Y-89438028D01*
X175888028Y-89582786D01*
X175767715Y-89748386D01*
X175674781Y-89930776D01*
X175611522Y-90125465D01*
X175579500Y-90327648D01*
X175579500Y-90532351D01*
X175611522Y-90734534D01*
X175674781Y-90929223D01*
X175767715Y-91111613D01*
X175888028Y-91277213D01*
X176032786Y-91421971D01*
X176187749Y-91534556D01*
X176198390Y-91542287D01*
X176291080Y-91589515D01*
X176380776Y-91635218D01*
X176380778Y-91635218D01*
X176380781Y-91635220D01*
X176485137Y-91669127D01*
X176575465Y-91698477D01*
X176594697Y-91701523D01*
X176777648Y-91730500D01*
X176777649Y-91730500D01*
X176982351Y-91730500D01*
X176982352Y-91730500D01*
X177184534Y-91698477D01*
X177379219Y-91635220D01*
X177561610Y-91542287D01*
X177654590Y-91474732D01*
X177727213Y-91421971D01*
X177727215Y-91421968D01*
X177727219Y-91421966D01*
X177871966Y-91277219D01*
X177871968Y-91277215D01*
X177871971Y-91277213D01*
X177924732Y-91204590D01*
X177992287Y-91111610D01*
X178085220Y-90929219D01*
X178148477Y-90734534D01*
X178180500Y-90532352D01*
X178180500Y-90327648D01*
X178148477Y-90125466D01*
X178085220Y-89930781D01*
X178085218Y-89930778D01*
X178085218Y-89930776D01*
X178051503Y-89864607D01*
X177992287Y-89748390D01*
X177954396Y-89696237D01*
X177871971Y-89582786D01*
X177727213Y-89438028D01*
X177561614Y-89317715D01*
X177555006Y-89314348D01*
X177468917Y-89270483D01*
X177418123Y-89222511D01*
X177401328Y-89154690D01*
X177423865Y-89088555D01*
X177468917Y-89049516D01*
X177561610Y-89002287D01*
X177582770Y-88986913D01*
X177727213Y-88881971D01*
X177727215Y-88881968D01*
X177727219Y-88881966D01*
X177871966Y-88737219D01*
X177871968Y-88737215D01*
X177871971Y-88737213D01*
X177946161Y-88635097D01*
X177992287Y-88571610D01*
X178085220Y-88389219D01*
X178148477Y-88194534D01*
X178180500Y-87992352D01*
X178180500Y-87787648D01*
X178150858Y-87600501D01*
X178148477Y-87585465D01*
X178114377Y-87480518D01*
X178085220Y-87390781D01*
X178085218Y-87390778D01*
X178085218Y-87390776D01*
X178013028Y-87249097D01*
X177992287Y-87208390D01*
X177954396Y-87156237D01*
X177871971Y-87042786D01*
X177727213Y-86898028D01*
X177561614Y-86777715D01*
X177553811Y-86773739D01*
X177468917Y-86730483D01*
X177418123Y-86682511D01*
X177401328Y-86614690D01*
X177423865Y-86548555D01*
X177468917Y-86509516D01*
X177561610Y-86462287D01*
X177582770Y-86446913D01*
X177727213Y-86341971D01*
X177727215Y-86341968D01*
X177727219Y-86341966D01*
X177871966Y-86197219D01*
X177871968Y-86197215D01*
X177871971Y-86197213D01*
X177971284Y-86060518D01*
X177992287Y-86031610D01*
X178085220Y-85849219D01*
X178148477Y-85654534D01*
X178180500Y-85452352D01*
X178180500Y-85247648D01*
X178148477Y-85045466D01*
X178085220Y-84850781D01*
X178085218Y-84850778D01*
X178085218Y-84850776D01*
X178023584Y-84729814D01*
X177992287Y-84668390D01*
X177954396Y-84616237D01*
X177871971Y-84502786D01*
X177727213Y-84358028D01*
X177561614Y-84237715D01*
X177555006Y-84234348D01*
X177468917Y-84190483D01*
X177418123Y-84142511D01*
X177401328Y-84074690D01*
X177423865Y-84008555D01*
X177468917Y-83969516D01*
X177561610Y-83922287D01*
X177582770Y-83906913D01*
X177727213Y-83801971D01*
X177727215Y-83801968D01*
X177727219Y-83801966D01*
X177871966Y-83657219D01*
X177871968Y-83657215D01*
X177871971Y-83657213D01*
X177971401Y-83520357D01*
X177992287Y-83491610D01*
X178085220Y-83309219D01*
X178148477Y-83114534D01*
X178180500Y-82912352D01*
X178180500Y-82707648D01*
X178148477Y-82505466D01*
X178144210Y-82492335D01*
X178085218Y-82310776D01*
X178051503Y-82244607D01*
X177992287Y-82128390D01*
X177984556Y-82117749D01*
X177871971Y-81962786D01*
X177727213Y-81818028D01*
X177561614Y-81697715D01*
X177555006Y-81694348D01*
X177468917Y-81650483D01*
X177418123Y-81602511D01*
X177401328Y-81534690D01*
X177423865Y-81468555D01*
X177468917Y-81429516D01*
X177561610Y-81382287D01*
X177582770Y-81366913D01*
X177727213Y-81261971D01*
X177727215Y-81261968D01*
X177727219Y-81261966D01*
X177871966Y-81117219D01*
X177871968Y-81117215D01*
X177871971Y-81117213D01*
X177962451Y-80992676D01*
X177992287Y-80951610D01*
X178085220Y-80769219D01*
X178148477Y-80574534D01*
X178180500Y-80372352D01*
X178180500Y-80167648D01*
X178148477Y-79965466D01*
X178142517Y-79947124D01*
X178126822Y-79898820D01*
X178085220Y-79770781D01*
X178085218Y-79770777D01*
X178083714Y-79766148D01*
X178085035Y-79765718D01*
X178078236Y-79702486D01*
X178109509Y-79640006D01*
X178169597Y-79604352D01*
X178200266Y-79600500D01*
X186625500Y-79600500D01*
X186692539Y-79620185D01*
X186738294Y-79672989D01*
X186749500Y-79724500D01*
X186749500Y-80925637D01*
X186729815Y-80992676D01*
X186713181Y-81013318D01*
X184800537Y-82925962D01*
X184800532Y-82925968D01*
X184792576Y-82937874D01*
X184792577Y-82937875D01*
X184701988Y-83073449D01*
X184684971Y-83114534D01*
X184634105Y-83237333D01*
X184628298Y-83266524D01*
X184604914Y-83384091D01*
X184604386Y-83386747D01*
X184599500Y-83411309D01*
X184599500Y-97020000D01*
X184579815Y-97087039D01*
X184527011Y-97132794D01*
X184475500Y-97144000D01*
X175468862Y-97144000D01*
X175401823Y-97124315D01*
X175381181Y-97107681D01*
X173781319Y-95507819D01*
X173766615Y-95480891D01*
X173750023Y-95455073D01*
X173749131Y-95448872D01*
X173747834Y-95446496D01*
X173745000Y-95420138D01*
X173745000Y-95407648D01*
X175579500Y-95407648D01*
X175579500Y-95612352D01*
X175580408Y-95618082D01*
X175611522Y-95814534D01*
X175674781Y-96009223D01*
X175738691Y-96134653D01*
X175766437Y-96189106D01*
X175767715Y-96191613D01*
X175888028Y-96357213D01*
X176032786Y-96501971D01*
X176168683Y-96600704D01*
X176198390Y-96622287D01*
X176280653Y-96664202D01*
X176380776Y-96715218D01*
X176380778Y-96715218D01*
X176380781Y-96715220D01*
X176485137Y-96749127D01*
X176575465Y-96778477D01*
X176676557Y-96794488D01*
X176777648Y-96810500D01*
X176777649Y-96810500D01*
X176982351Y-96810500D01*
X176982352Y-96810500D01*
X177184534Y-96778477D01*
X177379219Y-96715220D01*
X177561610Y-96622287D01*
X177669364Y-96544000D01*
X177727213Y-96501971D01*
X177727215Y-96501968D01*
X177727219Y-96501966D01*
X177871966Y-96357219D01*
X177871968Y-96357215D01*
X177871971Y-96357213D01*
X177934573Y-96271047D01*
X177992287Y-96191610D01*
X178085220Y-96009219D01*
X178148477Y-95814534D01*
X178180500Y-95612352D01*
X178180500Y-95407648D01*
X178148477Y-95205466D01*
X178085220Y-95010781D01*
X178085218Y-95010778D01*
X178085218Y-95010776D01*
X178051503Y-94944607D01*
X177992287Y-94828390D01*
X177984556Y-94817749D01*
X177871971Y-94662786D01*
X177727213Y-94518028D01*
X177561613Y-94397715D01*
X177561612Y-94397714D01*
X177561610Y-94397713D01*
X177504653Y-94368691D01*
X177379223Y-94304781D01*
X177184534Y-94241522D01*
X177009995Y-94213878D01*
X176982352Y-94209500D01*
X176777648Y-94209500D01*
X176753329Y-94213351D01*
X176575465Y-94241522D01*
X176380776Y-94304781D01*
X176198386Y-94397715D01*
X176032786Y-94518028D01*
X175888028Y-94662786D01*
X175767715Y-94828386D01*
X175674781Y-95010776D01*
X175611522Y-95205465D01*
X175586984Y-95360396D01*
X175579500Y-95407648D01*
X173745000Y-95407648D01*
X173745000Y-72294499D01*
X173764685Y-72227460D01*
X173817489Y-72181705D01*
X173869000Y-72170499D01*
X173892371Y-72170499D01*
X173892372Y-72170499D01*
X173951983Y-72164091D01*
X174086831Y-72113796D01*
X174202046Y-72027546D01*
X174288296Y-71912331D01*
X174338591Y-71777483D01*
X174345000Y-71717873D01*
X174344999Y-69622128D01*
X174338591Y-69562517D01*
X174290093Y-69432488D01*
X174288297Y-69427671D01*
X174288293Y-69427664D01*
X174202047Y-69312455D01*
X174202044Y-69312452D01*
X174086835Y-69226206D01*
X174086828Y-69226202D01*
X173951982Y-69175908D01*
X173951983Y-69175908D01*
X173892383Y-69169501D01*
X173892381Y-69169500D01*
X173892373Y-69169500D01*
X173892364Y-69169500D01*
X171796629Y-69169500D01*
X171796623Y-69169501D01*
X171737016Y-69175908D01*
X171602171Y-69226202D01*
X171602164Y-69226206D01*
X171486955Y-69312452D01*
X171486952Y-69312455D01*
X171400706Y-69427664D01*
X171400702Y-69427671D01*
X171350408Y-69562517D01*
X171345220Y-69610776D01*
X171344001Y-69622123D01*
X171344000Y-69622135D01*
X171344000Y-71717870D01*
X171344001Y-71717876D01*
X171350408Y-71777483D01*
X171400702Y-71912328D01*
X171400706Y-71912335D01*
X171486952Y-72027544D01*
X171486955Y-72027547D01*
X171602164Y-72113793D01*
X171602171Y-72113797D01*
X171639351Y-72127664D01*
X171737017Y-72164091D01*
X171796627Y-72170500D01*
X171819997Y-72170499D01*
X171887036Y-72190181D01*
X171932792Y-72242983D01*
X171944000Y-72294499D01*
X171944000Y-95933196D01*
X171978603Y-96107158D01*
X171978605Y-96107166D01*
X172010051Y-96183084D01*
X172010053Y-96183088D01*
X172012546Y-96189106D01*
X172046487Y-96271047D01*
X172104066Y-96357219D01*
X172107215Y-96361932D01*
X172107220Y-96361941D01*
X172145037Y-96418538D01*
X174470459Y-98743960D01*
X174470462Y-98743962D01*
X174470464Y-98743964D01*
X174544207Y-98793237D01*
X174544209Y-98793239D01*
X174617954Y-98842514D01*
X174665952Y-98862395D01*
X174781834Y-98910395D01*
X174955803Y-98944999D01*
X174955807Y-98945000D01*
X174955808Y-98945000D01*
X174955809Y-98945000D01*
X185411309Y-98945000D01*
X203105501Y-98945000D01*
X203172540Y-98964685D01*
X203218295Y-99017489D01*
X203229501Y-99069000D01*
X203229501Y-99092376D01*
X203235908Y-99151983D01*
X203286202Y-99286828D01*
X203286204Y-99286832D01*
X203296951Y-99301187D01*
X203321370Y-99366651D01*
X203306520Y-99434924D01*
X203257115Y-99484331D01*
X203197686Y-99499500D01*
X170624500Y-99499500D01*
X170557461Y-99479815D01*
X170511706Y-99427011D01*
X170500500Y-99375500D01*
X170500500Y-64352135D01*
X171407500Y-64352135D01*
X171407500Y-66447870D01*
X171407501Y-66447876D01*
X171413908Y-66507483D01*
X171464202Y-66642328D01*
X171464206Y-66642335D01*
X171550452Y-66757544D01*
X171550455Y-66757547D01*
X171665664Y-66843793D01*
X171665671Y-66843797D01*
X171800517Y-66894091D01*
X171800516Y-66894091D01*
X171807444Y-66894835D01*
X171860127Y-66900500D01*
X173955872Y-66900499D01*
X174015483Y-66894091D01*
X174150331Y-66843796D01*
X174265546Y-66757546D01*
X174351796Y-66642331D01*
X174402091Y-66507483D01*
X174408500Y-66447873D01*
X174408499Y-64352128D01*
X174402091Y-64292517D01*
X174351796Y-64157669D01*
X174351795Y-64157668D01*
X174351793Y-64157664D01*
X174265547Y-64042455D01*
X174265544Y-64042452D01*
X174150335Y-63956206D01*
X174150328Y-63956202D01*
X174015482Y-63905908D01*
X174015483Y-63905908D01*
X173955883Y-63899501D01*
X173955881Y-63899500D01*
X173955873Y-63899500D01*
X173955864Y-63899500D01*
X171860129Y-63899500D01*
X171860123Y-63899501D01*
X171800516Y-63905908D01*
X171665671Y-63956202D01*
X171665664Y-63956206D01*
X171550455Y-64042452D01*
X171550452Y-64042455D01*
X171464206Y-64157664D01*
X171464202Y-64157671D01*
X171413908Y-64292517D01*
X171407902Y-64348386D01*
X171407501Y-64352123D01*
X171407500Y-64352135D01*
X170500500Y-64352135D01*
X170500500Y-60624500D01*
X170520185Y-60557461D01*
X170572989Y-60511706D01*
X170624500Y-60500500D01*
X219375500Y-60500500D01*
X219442539Y-60520185D01*
G37*
%TD.AperFunction*%
%TA.AperFunction,Conductor*%
G36*
X190866773Y-79620185D02*
G01*
X190912528Y-79672989D01*
X190922472Y-79742147D01*
X190915919Y-79766029D01*
X190916286Y-79766148D01*
X190914781Y-79770777D01*
X190914780Y-79770781D01*
X190895040Y-79831534D01*
X190851522Y-79965465D01*
X190819500Y-80167648D01*
X190819500Y-80372351D01*
X190851522Y-80574534D01*
X190914781Y-80769223D01*
X191007715Y-80951613D01*
X191128028Y-81117213D01*
X191272786Y-81261971D01*
X191427749Y-81374556D01*
X191438390Y-81382287D01*
X191529840Y-81428883D01*
X191531080Y-81429515D01*
X191581876Y-81477490D01*
X191598671Y-81545311D01*
X191576134Y-81611446D01*
X191531080Y-81650485D01*
X191438386Y-81697715D01*
X191272786Y-81818028D01*
X191128028Y-81962786D01*
X191007715Y-82128386D01*
X190914781Y-82310776D01*
X190851522Y-82505465D01*
X190821694Y-82693793D01*
X190819500Y-82707648D01*
X190819500Y-82912352D01*
X190832984Y-82997483D01*
X190851523Y-83114534D01*
X190851522Y-83114534D01*
X190914781Y-83309223D01*
X191007715Y-83491613D01*
X191128028Y-83657213D01*
X191272786Y-83801971D01*
X191427749Y-83914556D01*
X191438390Y-83922287D01*
X191529840Y-83968883D01*
X191531080Y-83969515D01*
X191581876Y-84017490D01*
X191598671Y-84085311D01*
X191576134Y-84151446D01*
X191531080Y-84190485D01*
X191438386Y-84237715D01*
X191272786Y-84358028D01*
X191128028Y-84502786D01*
X191007715Y-84668386D01*
X190914781Y-84850776D01*
X190851522Y-85045465D01*
X190819500Y-85247648D01*
X190819500Y-85452351D01*
X190851522Y-85654534D01*
X190914781Y-85849223D01*
X191007715Y-86031613D01*
X191128028Y-86197213D01*
X191272786Y-86341971D01*
X191427749Y-86454556D01*
X191438390Y-86462287D01*
X191529840Y-86508883D01*
X191531080Y-86509515D01*
X191581876Y-86557490D01*
X191598671Y-86625311D01*
X191576134Y-86691446D01*
X191531080Y-86730485D01*
X191438386Y-86777715D01*
X191272786Y-86898028D01*
X191128028Y-87042786D01*
X191007715Y-87208386D01*
X190914781Y-87390776D01*
X190851522Y-87585465D01*
X190819500Y-87787648D01*
X190819500Y-87992351D01*
X190851522Y-88194534D01*
X190914781Y-88389223D01*
X190943380Y-88445350D01*
X190999089Y-88554685D01*
X191007715Y-88571613D01*
X191128028Y-88737213D01*
X191272786Y-88881971D01*
X191427749Y-88994556D01*
X191438390Y-89002287D01*
X191529840Y-89048883D01*
X191531080Y-89049515D01*
X191581876Y-89097490D01*
X191598671Y-89165311D01*
X191576134Y-89231446D01*
X191531080Y-89270485D01*
X191438386Y-89317715D01*
X191272786Y-89438028D01*
X191128028Y-89582786D01*
X191007715Y-89748386D01*
X190914781Y-89930776D01*
X190851522Y-90125465D01*
X190819500Y-90327648D01*
X190819500Y-90532351D01*
X190851522Y-90734534D01*
X190914781Y-90929223D01*
X191007715Y-91111613D01*
X191128028Y-91277213D01*
X191272786Y-91421971D01*
X191427749Y-91534556D01*
X191438390Y-91542287D01*
X191529840Y-91588883D01*
X191531080Y-91589515D01*
X191581876Y-91637490D01*
X191598671Y-91705311D01*
X191576134Y-91771446D01*
X191531080Y-91810485D01*
X191438386Y-91857715D01*
X191272786Y-91978028D01*
X191128028Y-92122786D01*
X191007715Y-92288386D01*
X190914781Y-92470776D01*
X190851522Y-92665465D01*
X190819500Y-92867648D01*
X190819500Y-93072351D01*
X190851522Y-93274534D01*
X190914781Y-93469223D01*
X191007715Y-93651613D01*
X191128028Y-93817213D01*
X191272786Y-93961971D01*
X191427749Y-94074556D01*
X191438390Y-94082287D01*
X191554607Y-94141503D01*
X191620776Y-94175218D01*
X191620778Y-94175218D01*
X191620781Y-94175220D01*
X191725137Y-94209127D01*
X191815465Y-94238477D01*
X191834697Y-94241523D01*
X192017648Y-94270500D01*
X192017649Y-94270500D01*
X192222351Y-94270500D01*
X192222352Y-94270500D01*
X192424534Y-94238477D01*
X192619219Y-94175220D01*
X192801610Y-94082287D01*
X192894590Y-94014732D01*
X192967213Y-93961971D01*
X192967215Y-93961968D01*
X192967219Y-93961966D01*
X193111966Y-93817219D01*
X193111968Y-93817215D01*
X193111971Y-93817213D01*
X193164732Y-93744590D01*
X193232287Y-93651610D01*
X193325220Y-93469219D01*
X193388477Y-93274534D01*
X193420500Y-93072352D01*
X193420500Y-92867648D01*
X193388477Y-92665466D01*
X193380073Y-92639602D01*
X193359127Y-92575137D01*
X193325220Y-92470781D01*
X193325218Y-92470778D01*
X193325218Y-92470776D01*
X193291503Y-92404607D01*
X193232287Y-92288390D01*
X193224556Y-92277749D01*
X193111971Y-92122786D01*
X192967213Y-91978028D01*
X192801614Y-91857715D01*
X192795006Y-91854348D01*
X192708917Y-91810483D01*
X192658123Y-91762511D01*
X192641328Y-91694690D01*
X192663865Y-91628555D01*
X192708917Y-91589516D01*
X192801610Y-91542287D01*
X192822770Y-91526913D01*
X192967213Y-91421971D01*
X192967215Y-91421968D01*
X192967219Y-91421966D01*
X193111966Y-91277219D01*
X193111968Y-91277215D01*
X193111971Y-91277213D01*
X193164732Y-91204590D01*
X193232287Y-91111610D01*
X193325220Y-90929219D01*
X193388477Y-90734534D01*
X193420500Y-90532352D01*
X193420500Y-90327648D01*
X193388477Y-90125466D01*
X193325220Y-89930781D01*
X193325218Y-89930778D01*
X193325218Y-89930776D01*
X193291503Y-89864607D01*
X193232287Y-89748390D01*
X193194396Y-89696237D01*
X193111971Y-89582786D01*
X192967213Y-89438028D01*
X192801614Y-89317715D01*
X192795006Y-89314348D01*
X192708917Y-89270483D01*
X192658123Y-89222511D01*
X192641328Y-89154690D01*
X192663865Y-89088555D01*
X192708917Y-89049516D01*
X192801610Y-89002287D01*
X192822770Y-88986913D01*
X192967213Y-88881971D01*
X192967215Y-88881968D01*
X192967219Y-88881966D01*
X193111966Y-88737219D01*
X193111968Y-88737215D01*
X193111971Y-88737213D01*
X193186161Y-88635097D01*
X193232287Y-88571610D01*
X193325220Y-88389219D01*
X193388477Y-88194534D01*
X193420500Y-87992352D01*
X193420500Y-87787648D01*
X193390858Y-87600501D01*
X193388477Y-87585465D01*
X193354377Y-87480518D01*
X193325220Y-87390781D01*
X193325218Y-87390778D01*
X193325218Y-87390776D01*
X193253028Y-87249097D01*
X193232287Y-87208390D01*
X193194396Y-87156237D01*
X193111971Y-87042786D01*
X192967213Y-86898028D01*
X192801614Y-86777715D01*
X192793811Y-86773739D01*
X192708917Y-86730483D01*
X192658123Y-86682511D01*
X192641328Y-86614690D01*
X192663865Y-86548555D01*
X192708917Y-86509516D01*
X192801610Y-86462287D01*
X192822770Y-86446913D01*
X192967213Y-86341971D01*
X192967215Y-86341968D01*
X192967219Y-86341966D01*
X193111966Y-86197219D01*
X193125944Y-86177978D01*
X193181272Y-86135311D01*
X193250885Y-86129330D01*
X193312681Y-86161934D01*
X193313945Y-86163180D01*
X193863181Y-86712416D01*
X193896666Y-86773739D01*
X193899500Y-86800097D01*
X193899500Y-87980430D01*
X193899499Y-87980448D01*
X193899499Y-88146154D01*
X193899498Y-88146154D01*
X193933646Y-88273592D01*
X193940423Y-88298885D01*
X193961056Y-88334622D01*
X193969358Y-88349000D01*
X193969359Y-88349004D01*
X193969360Y-88349004D01*
X194019479Y-88435814D01*
X194019481Y-88435817D01*
X194138349Y-88554685D01*
X194138354Y-88554689D01*
X197564184Y-91980520D01*
X197564186Y-91980521D01*
X197564190Y-91980524D01*
X197701109Y-92059573D01*
X197701116Y-92059577D01*
X197853843Y-92100501D01*
X197853845Y-92100501D01*
X198019554Y-92100501D01*
X198019570Y-92100500D01*
X203091903Y-92100500D01*
X203158942Y-92120185D01*
X203179584Y-92136819D01*
X208463181Y-97420416D01*
X208496666Y-97481739D01*
X208499500Y-97508097D01*
X208499500Y-99155870D01*
X208499501Y-99155876D01*
X208505908Y-99215483D01*
X208549429Y-99332167D01*
X208554413Y-99401859D01*
X208520928Y-99463182D01*
X208459604Y-99496666D01*
X208433247Y-99499500D01*
X206262314Y-99499500D01*
X206195275Y-99479815D01*
X206149520Y-99427011D01*
X206139576Y-99357853D01*
X206163049Y-99301187D01*
X206173795Y-99286832D01*
X206173796Y-99286831D01*
X206224091Y-99151983D01*
X206230500Y-99092373D01*
X206230499Y-96996628D01*
X206224091Y-96937017D01*
X206176903Y-96810500D01*
X206173797Y-96802171D01*
X206173793Y-96802164D01*
X206087547Y-96686955D01*
X206087544Y-96686952D01*
X205972335Y-96600706D01*
X205972328Y-96600702D01*
X205837482Y-96550408D01*
X205837483Y-96550408D01*
X205777883Y-96544001D01*
X205777881Y-96544000D01*
X205777873Y-96544000D01*
X205777864Y-96544000D01*
X203682129Y-96544000D01*
X203682123Y-96544001D01*
X203622516Y-96550408D01*
X203487671Y-96600702D01*
X203487664Y-96600706D01*
X203372455Y-96686952D01*
X203372452Y-96686955D01*
X203286206Y-96802164D01*
X203286202Y-96802171D01*
X203235908Y-96937017D01*
X203229501Y-96996616D01*
X203229501Y-96996623D01*
X203229500Y-96996635D01*
X203229500Y-97020000D01*
X203209815Y-97087039D01*
X203157011Y-97132794D01*
X203105500Y-97144000D01*
X186524500Y-97144000D01*
X186457461Y-97124315D01*
X186411706Y-97071511D01*
X186400500Y-97020000D01*
X186400500Y-92834298D01*
X186749500Y-92834298D01*
X186749500Y-95165701D01*
X186752401Y-95202567D01*
X186752402Y-95202573D01*
X186798254Y-95360393D01*
X186798255Y-95360396D01*
X186798256Y-95360398D01*
X186833586Y-95420138D01*
X186881917Y-95501862D01*
X186881923Y-95501870D01*
X186998129Y-95618076D01*
X186998133Y-95618079D01*
X186998135Y-95618081D01*
X187139602Y-95701744D01*
X187181224Y-95713836D01*
X187297426Y-95747597D01*
X187297429Y-95747597D01*
X187297431Y-95747598D01*
X187334306Y-95750500D01*
X187334314Y-95750500D01*
X188665686Y-95750500D01*
X188665694Y-95750500D01*
X188702569Y-95747598D01*
X188702571Y-95747597D01*
X188702573Y-95747597D01*
X188744191Y-95735505D01*
X188860398Y-95701744D01*
X189001865Y-95618081D01*
X189118081Y-95501865D01*
X189201744Y-95360398D01*
X189247598Y-95202569D01*
X189250500Y-95165694D01*
X189250500Y-92834306D01*
X189247598Y-92797431D01*
X189201744Y-92639602D01*
X189118081Y-92498135D01*
X189118079Y-92498133D01*
X189118076Y-92498129D01*
X189001870Y-92381923D01*
X189001862Y-92381917D01*
X188860396Y-92298255D01*
X188860393Y-92298254D01*
X188702573Y-92252402D01*
X188702567Y-92252401D01*
X188665701Y-92249500D01*
X188665694Y-92249500D01*
X187334306Y-92249500D01*
X187334298Y-92249500D01*
X187297432Y-92252401D01*
X187297426Y-92252402D01*
X187139606Y-92298254D01*
X187139603Y-92298255D01*
X186998137Y-92381917D01*
X186998129Y-92381923D01*
X186881923Y-92498129D01*
X186881917Y-92498137D01*
X186798255Y-92639603D01*
X186798254Y-92639606D01*
X186752402Y-92797426D01*
X186752401Y-92797432D01*
X186749500Y-92834298D01*
X186400500Y-92834298D01*
X186400500Y-83924361D01*
X186420185Y-83857322D01*
X186436814Y-83836684D01*
X187486681Y-82786817D01*
X187548004Y-82753333D01*
X187574362Y-82750499D01*
X188797871Y-82750499D01*
X188797872Y-82750499D01*
X188857483Y-82744091D01*
X188992331Y-82693796D01*
X189107546Y-82607546D01*
X189193796Y-82492331D01*
X189244091Y-82357483D01*
X189250500Y-82297873D01*
X189250499Y-79724499D01*
X189270184Y-79657461D01*
X189322987Y-79611706D01*
X189374499Y-79600500D01*
X190799734Y-79600500D01*
X190866773Y-79620185D01*
G37*
%TD.AperFunction*%
%TD*%
M02*
