%TF.GenerationSoftware,KiCad,Pcbnew,9.0.7*%
%TF.CreationDate,2026-04-06T11:15:20-07:00*%
%TF.ProjectId,ESP32_PCB,45535033-325f-4504-9342-2e6b69636164,rev?*%
%TF.SameCoordinates,Original*%
%TF.FileFunction,Paste,Bot*%
%TF.FilePolarity,Positive*%
%FSLAX46Y46*%
G04 Gerber Fmt 4.6, Leading zero omitted, Abs format (unit mm)*
G04 Created by KiCad (PCBNEW 9.0.7) date 2026-04-06 11:15:20*
%MOMM*%
%LPD*%
G01*
G04 APERTURE LIST*
G04 Aperture macros list*
%AMRoundRect*
0 Rectangle with rounded corners*
0 $1 Rounding radius*
0 $2 $3 $4 $5 $6 $7 $8 $9 X,Y pos of 4 corners*
0 Add a 4 corners polygon primitive as box body*
4,1,4,$2,$3,$4,$5,$6,$7,$8,$9,$2,$3,0*
0 Add four circle primitives for the rounded corners*
1,1,$1+$1,$2,$3*
1,1,$1+$1,$4,$5*
1,1,$1+$1,$6,$7*
1,1,$1+$1,$8,$9*
0 Add four rect primitives between the rounded corners*
20,1,$1+$1,$2,$3,$4,$5,0*
20,1,$1+$1,$4,$5,$6,$7,0*
20,1,$1+$1,$6,$7,$8,$9,0*
20,1,$1+$1,$8,$9,$2,$3,0*%
G04 Aperture macros list end*
%ADD10RoundRect,0.200000X0.200000X0.275000X-0.200000X0.275000X-0.200000X-0.275000X0.200000X-0.275000X0*%
%ADD11RoundRect,0.125000X0.487500X0.125000X-0.487500X0.125000X-0.487500X-0.125000X0.487500X-0.125000X0*%
%ADD12RoundRect,0.250000X1.000000X0.650000X-1.000000X0.650000X-1.000000X-0.650000X1.000000X-0.650000X0*%
%ADD13RoundRect,0.225000X-0.250000X0.225000X-0.250000X-0.225000X0.250000X-0.225000X0.250000X0.225000X0*%
%ADD14RoundRect,0.225000X0.225000X0.250000X-0.225000X0.250000X-0.225000X-0.250000X0.225000X-0.250000X0*%
%ADD15RoundRect,0.225000X0.250000X-0.225000X0.250000X0.225000X-0.250000X0.225000X-0.250000X-0.225000X0*%
%ADD16RoundRect,0.250000X0.262500X0.450000X-0.262500X0.450000X-0.262500X-0.450000X0.262500X-0.450000X0*%
%ADD17RoundRect,0.250000X-0.250000X-0.475000X0.250000X-0.475000X0.250000X0.475000X-0.250000X0.475000X0*%
%ADD18RoundRect,0.250000X-0.445000X0.457500X-0.445000X-0.457500X0.445000X-0.457500X0.445000X0.457500X0*%
%ADD19RoundRect,0.200000X-0.275000X0.200000X-0.275000X-0.200000X0.275000X-0.200000X0.275000X0.200000X0*%
%ADD20RoundRect,0.250000X-1.500000X0.925000X-1.500000X-0.925000X1.500000X-0.925000X1.500000X0.925000X0*%
%ADD21RoundRect,0.150000X-0.150000X0.512500X-0.150000X-0.512500X0.150000X-0.512500X0.150000X0.512500X0*%
%ADD22RoundRect,0.250000X-1.000000X-0.650000X1.000000X-0.650000X1.000000X0.650000X-1.000000X0.650000X0*%
%ADD23RoundRect,0.250000X0.457500X0.445000X-0.457500X0.445000X-0.457500X-0.445000X0.457500X-0.445000X0*%
%ADD24RoundRect,0.250000X-0.262500X-0.450000X0.262500X-0.450000X0.262500X0.450000X-0.262500X0.450000X0*%
%ADD25RoundRect,0.200000X0.275000X-0.200000X0.275000X0.200000X-0.275000X0.200000X-0.275000X-0.200000X0*%
G04 APERTURE END LIST*
D10*
%TO.C,R11*%
X139825000Y-97500000D03*
X138175000Y-97500000D03*
%TD*%
D11*
%TO.C,D1*%
X147437500Y-95350000D03*
X147437500Y-96650000D03*
X145562500Y-96000000D03*
%TD*%
D12*
%TO.C,D2*%
X149500000Y-104000000D03*
X145500000Y-104000000D03*
%TD*%
D13*
%TO.C,C13*%
X158200000Y-98025000D03*
X158200000Y-99575000D03*
%TD*%
D14*
%TO.C,C2*%
X154275000Y-113000000D03*
X152725000Y-113000000D03*
%TD*%
D15*
%TO.C,C1*%
X147500000Y-116275000D03*
X147500000Y-114725000D03*
%TD*%
D16*
%TO.C,R8*%
X146725000Y-91000000D03*
X144900000Y-91000000D03*
%TD*%
D17*
%TO.C,C10*%
X145450000Y-93600000D03*
X147350000Y-93600000D03*
%TD*%
D13*
%TO.C,C7*%
X150300000Y-94625000D03*
X150300000Y-96175000D03*
%TD*%
D18*
%TO.C,C5*%
X136700000Y-106095000D03*
X136700000Y-108800000D03*
%TD*%
D13*
%TO.C,C4*%
X156700000Y-98025000D03*
X156700000Y-99575000D03*
%TD*%
D19*
%TO.C,R4*%
X139000000Y-103175000D03*
X139000000Y-104825000D03*
%TD*%
D10*
%TO.C,R9*%
X155825000Y-95400000D03*
X154175000Y-95400000D03*
%TD*%
D20*
%TO.C,L1*%
X151200000Y-84375000D03*
X151200000Y-90425000D03*
%TD*%
D21*
%TO.C,U4*%
X145000000Y-86800000D03*
X145950000Y-86800000D03*
X146900000Y-86800000D03*
X146900000Y-89075000D03*
X145950000Y-89075000D03*
X145000000Y-89075000D03*
%TD*%
D22*
%TO.C,D3*%
X152500000Y-104000000D03*
X156500000Y-104000000D03*
%TD*%
D23*
%TO.C,C3*%
X154952500Y-97200000D03*
X152247500Y-97200000D03*
%TD*%
D14*
%TO.C,C8*%
X146775000Y-85100000D03*
X145225000Y-85100000D03*
%TD*%
D13*
%TO.C,C6*%
X138500000Y-107225000D03*
X138500000Y-108775000D03*
%TD*%
D21*
%TO.C,U3*%
X149050000Y-113362500D03*
X150000000Y-113362500D03*
X150950000Y-113362500D03*
X150950000Y-115637500D03*
X149050000Y-115637500D03*
%TD*%
D14*
%TO.C,C9*%
X155775000Y-93900000D03*
X154225000Y-93900000D03*
%TD*%
D24*
%TO.C,R7*%
X154087500Y-92100000D03*
X155912500Y-92100000D03*
%TD*%
D25*
%TO.C,R5*%
X140500000Y-108825000D03*
X140500000Y-107175000D03*
%TD*%
D15*
%TO.C,C11*%
X144500000Y-99075000D03*
X144500000Y-97525000D03*
%TD*%
D19*
%TO.C,R12*%
X152700000Y-93775000D03*
X152700000Y-95425000D03*
%TD*%
M02*
