M48
; DRILL file {KiCad 9.0.7} date 2026-04-03T17:41:32-0700
; FORMAT={-:-/ absolute / metric / decimal}
; #@! TF.CreationDate,2026-04-03T17:41:32-07:00
; #@! TF.GenerationSoftware,Kicad,Pcbnew,9.0.7
; #@! TF.FileFunction,Plated,1,2,PTH
FMAT,2
METRIC
; #@! TA.AperFunction,Plated,PTH,ViaDrill
T1C0.300
; #@! TA.AperFunction,Plated,PTH,ComponentDrill
T2C0.600
; #@! TA.AperFunction,Plated,PTH,ComponentDrill
T3C1.000
%
G90
G05
T1
X134.0Y-104.5
X135.815Y-107.214
X137.2Y-100.5
X138.0Y-105.0
X139.0Y-95.75
X139.0Y-106.0
X140.0Y-104.6
X140.45Y-96.6
X140.8Y-104.6
X141.0Y-99.8
X141.24Y-105.701
X141.39Y-106.628
X141.5Y-108.0
X141.55Y-95.2
X141.672Y-104.6
X141.7Y-100.5
X144.0Y-94.0
X144.0Y-95.0
X144.0Y-101.0
X144.0Y-102.0
X144.5Y-96.0
X144.5Y-106.0
X145.0Y-95.0
X145.0Y-102.0
X145.5Y-106.0
X146.5Y-98.0
X146.5Y-99.0
X146.5Y-100.0
X146.5Y-101.0
X146.5Y-106.0
X148.35Y-99.175
X148.35Y-100.825
X149.175Y-98.35
X149.175Y-100.0
X149.175Y-101.65
X149.3Y-96.0
X149.5Y-108.5
X150.0Y-97.5
X150.0Y-99.175
X150.0Y-100.825
X150.0Y-106.0
X150.825Y-98.35
X150.825Y-100.0
X150.825Y-101.65
X151.5Y-108.5
X151.6Y-94.2
X151.65Y-99.175
X151.65Y-100.825
X154.5Y-103.0
X155.0Y-99.5
X155.0Y-100.5
X155.0Y-101.5
X155.27Y-98.77
X155.682Y-113.183
X155.755Y-112.437
X156.0Y-99.5
X156.0Y-100.5
X156.0Y-101.5
T3
X135.0Y-97.5
X135.0Y-100.0
X135.0Y-102.5
X140.23Y-88.37
X142.77Y-85.83
X142.77Y-88.37
X159.725Y-93.69
X159.725Y-96.23
X159.725Y-98.77
X159.725Y-101.31
X162.265Y-93.69
X162.265Y-96.23
X162.265Y-98.77
X162.265Y-101.31
X165.0Y-97.5
X165.0Y-100.0
X165.0Y-102.5
T2
X145.68Y-109.695G85X145.68Y-110.695
G05
X145.68Y-114.805G85X145.68Y-116.305
G05
X154.32Y-109.695G85X154.32Y-110.695
G05
X154.32Y-114.805G85X154.32Y-116.305
G05
M30
