%TF.GenerationSoftware,KiCad,Pcbnew,9.0.7*%
%TF.CreationDate,2026-04-03T17:40:40-07:00*%
%TF.ProjectId,ESP32_PCB,45535033-325f-4504-9342-2e6b69636164,rev?*%
%TF.SameCoordinates,Original*%
%TF.FileFunction,Copper,L2,Bot*%
%TF.FilePolarity,Positive*%
%FSLAX46Y46*%
G04 Gerber Fmt 4.6, Leading zero omitted, Abs format (unit mm)*
G04 Created by KiCad (PCBNEW 9.0.7) date 2026-04-03 17:40:40*
%MOMM*%
%LPD*%
G01*
G04 APERTURE LIST*
G04 Aperture macros list*
%AMRoundRect*
0 Rectangle with rounded corners*
0 $1 Rounding radius*
0 $2 $3 $4 $5 $6 $7 $8 $9 X,Y pos of 4 corners*
0 Add a 4 corners polygon primitive as box body*
4,1,4,$2,$3,$4,$5,$6,$7,$8,$9,$2,$3,0*
0 Add four circle primitives for the rounded corners*
1,1,$1+$1,$2,$3*
1,1,$1+$1,$4,$5*
1,1,$1+$1,$6,$7*
1,1,$1+$1,$8,$9*
0 Add four rect primitives between the rounded corners*
20,1,$1+$1,$2,$3,$4,$5,0*
20,1,$1+$1,$4,$5,$6,$7,0*
20,1,$1+$1,$6,$7,$8,$9,0*
20,1,$1+$1,$8,$9,$2,$3,0*%
G04 Aperture macros list end*
%TA.AperFunction,ComponentPad*%
%ADD10C,1.905000*%
%TD*%
%TA.AperFunction,ComponentPad*%
%ADD11R,1.700000X1.700000*%
%TD*%
%TA.AperFunction,ComponentPad*%
%ADD12C,1.700000*%
%TD*%
%TA.AperFunction,ComponentPad*%
%ADD13C,2.000000*%
%TD*%
%TA.AperFunction,HeatsinkPad*%
%ADD14O,1.100000X2.100000*%
%TD*%
%TA.AperFunction,HeatsinkPad*%
%ADD15O,1.100000X2.600000*%
%TD*%
%TA.AperFunction,SMDPad,CuDef*%
%ADD16RoundRect,0.200000X0.200000X0.275000X-0.200000X0.275000X-0.200000X-0.275000X0.200000X-0.275000X0*%
%TD*%
%TA.AperFunction,SMDPad,CuDef*%
%ADD17RoundRect,0.125000X0.487500X0.125000X-0.487500X0.125000X-0.487500X-0.125000X0.487500X-0.125000X0*%
%TD*%
%TA.AperFunction,SMDPad,CuDef*%
%ADD18RoundRect,0.250000X1.000000X0.650000X-1.000000X0.650000X-1.000000X-0.650000X1.000000X-0.650000X0*%
%TD*%
%TA.AperFunction,SMDPad,CuDef*%
%ADD19RoundRect,0.225000X-0.250000X0.225000X-0.250000X-0.225000X0.250000X-0.225000X0.250000X0.225000X0*%
%TD*%
%TA.AperFunction,SMDPad,CuDef*%
%ADD20RoundRect,0.225000X0.225000X0.250000X-0.225000X0.250000X-0.225000X-0.250000X0.225000X-0.250000X0*%
%TD*%
%TA.AperFunction,SMDPad,CuDef*%
%ADD21RoundRect,0.225000X0.250000X-0.225000X0.250000X0.225000X-0.250000X0.225000X-0.250000X-0.225000X0*%
%TD*%
%TA.AperFunction,SMDPad,CuDef*%
%ADD22RoundRect,0.250000X0.262500X0.450000X-0.262500X0.450000X-0.262500X-0.450000X0.262500X-0.450000X0*%
%TD*%
%TA.AperFunction,SMDPad,CuDef*%
%ADD23RoundRect,0.250000X-0.250000X-0.475000X0.250000X-0.475000X0.250000X0.475000X-0.250000X0.475000X0*%
%TD*%
%TA.AperFunction,SMDPad,CuDef*%
%ADD24RoundRect,0.250000X-0.445000X0.457500X-0.445000X-0.457500X0.445000X-0.457500X0.445000X0.457500X0*%
%TD*%
%TA.AperFunction,SMDPad,CuDef*%
%ADD25RoundRect,0.200000X-0.275000X0.200000X-0.275000X-0.200000X0.275000X-0.200000X0.275000X0.200000X0*%
%TD*%
%TA.AperFunction,SMDPad,CuDef*%
%ADD26RoundRect,0.250000X-1.500000X0.925000X-1.500000X-0.925000X1.500000X-0.925000X1.500000X0.925000X0*%
%TD*%
%TA.AperFunction,SMDPad,CuDef*%
%ADD27RoundRect,0.087500X-0.087500X0.250000X-0.087500X-0.250000X0.087500X-0.250000X0.087500X0.250000X0*%
%TD*%
%TA.AperFunction,SMDPad,CuDef*%
%ADD28RoundRect,0.250000X-1.000000X-0.650000X1.000000X-0.650000X1.000000X0.650000X-1.000000X0.650000X0*%
%TD*%
%TA.AperFunction,SMDPad,CuDef*%
%ADD29RoundRect,0.250000X0.457500X0.445000X-0.457500X0.445000X-0.457500X-0.445000X0.457500X-0.445000X0*%
%TD*%
%TA.AperFunction,SMDPad,CuDef*%
%ADD30RoundRect,0.150000X-0.150000X0.512500X-0.150000X-0.512500X0.150000X-0.512500X0.150000X0.512500X0*%
%TD*%
%TA.AperFunction,SMDPad,CuDef*%
%ADD31RoundRect,0.250000X-0.262500X-0.450000X0.262500X-0.450000X0.262500X0.450000X-0.262500X0.450000X0*%
%TD*%
%TA.AperFunction,SMDPad,CuDef*%
%ADD32RoundRect,0.200000X0.275000X-0.200000X0.275000X0.200000X-0.275000X0.200000X-0.275000X-0.200000X0*%
%TD*%
%TA.AperFunction,ViaPad*%
%ADD33C,0.600000*%
%TD*%
%TA.AperFunction,Conductor*%
%ADD34C,0.200000*%
%TD*%
%TA.AperFunction,Conductor*%
%ADD35C,0.300000*%
%TD*%
G04 APERTURE END LIST*
D10*
%TO.P,J3,1,Pin_1*%
%TO.N,Net-(D3-A2)*%
X165000000Y-97500000D03*
%TO.P,J3,2,Pin_2*%
%TO.N,GNDREF*%
X165000000Y-100000000D03*
%TO.P,J3,3,Pin_3*%
%TO.N,/S2*%
X165000000Y-102500000D03*
%TD*%
%TO.P,J2,1,Pin_1*%
%TO.N,Net-(D2-A2)*%
X135000000Y-102500000D03*
%TO.P,J2,2,Pin_2*%
%TO.N,GNDREF*%
X135000000Y-100000000D03*
%TO.P,J2,3,Pin_3*%
%TO.N,/S1*%
X135000000Y-97500000D03*
%TD*%
D11*
%TO.P,J4,1,Pin_1*%
%TO.N,GNDREF*%
X159725000Y-93690000D03*
D12*
%TO.P,J4,2,Pin_2*%
X162265000Y-93690000D03*
%TO.P,J4,3,Pin_3*%
%TO.N,/EN*%
X159725000Y-96230000D03*
%TO.P,J4,4,Pin_4*%
%TO.N,GNDREF*%
X162265000Y-96230000D03*
%TO.P,J4,5,Pin_5*%
%TO.N,/BOOT*%
X159725000Y-98770000D03*
%TO.P,J4,6,Pin_6*%
%TO.N,GNDREF*%
X162265000Y-98770000D03*
%TO.P,J4,7,Pin_7*%
X159725000Y-101310000D03*
%TO.P,J4,8,Pin_8*%
X162265000Y-101310000D03*
%TD*%
D13*
%TO.P,J5,1,Pin_1*%
%TO.N,/SPI_DO*%
X142770000Y-88370000D03*
%TO.P,J5,2,Pin_2*%
%TO.N,/SPI_SCK*%
X140230000Y-88370000D03*
%TO.P,J5,3,Pin_3*%
%TO.N,GNDREF*%
X142770000Y-85830000D03*
%TD*%
D14*
%TO.P,J1,S1,SHIELD*%
%TO.N,unconnected-(J1-SHIELD-PadS1)_1*%
X145680000Y-110195000D03*
D15*
%TO.N,unconnected-(J1-SHIELD-PadS1)_3*%
X145680000Y-115555000D03*
D14*
%TO.N,unconnected-(J1-SHIELD-PadS1)*%
X154320000Y-110195000D03*
D15*
%TO.N,unconnected-(J1-SHIELD-PadS1)_2*%
X154320000Y-115555000D03*
%TD*%
D16*
%TO.P,R11,1*%
%TO.N,Net-(D5-K)*%
X139825000Y-97500000D03*
%TO.P,R11,2*%
%TO.N,GNDREF*%
X138175000Y-97500000D03*
%TD*%
D17*
%TO.P,D1,1*%
%TO.N,VIN*%
X147437500Y-95350000D03*
%TO.P,D1,2*%
%TO.N,/VUSB*%
X147437500Y-96650000D03*
%TO.P,D1,3*%
%TO.N,+3V3*%
X145562500Y-96000000D03*
%TD*%
D18*
%TO.P,D2,1,A1*%
%TO.N,VBATT*%
X149500000Y-104000000D03*
%TO.P,D2,2,A2*%
%TO.N,Net-(D2-A2)*%
X145500000Y-104000000D03*
%TD*%
D19*
%TO.P,C13,1*%
%TO.N,/EN*%
X158200000Y-98025000D03*
%TO.P,C13,2*%
%TO.N,GNDREF*%
X158200000Y-99575000D03*
%TD*%
D20*
%TO.P,C2,1*%
%TO.N,GNDREF*%
X154275000Y-113000000D03*
%TO.P,C2,2*%
%TO.N,Net-(U3-EN)*%
X152725000Y-113000000D03*
%TD*%
D21*
%TO.P,C1,1*%
%TO.N,GNDREF*%
X147500000Y-116275000D03*
%TO.P,C1,2*%
%TO.N,/VUSB*%
X147500000Y-114725000D03*
%TD*%
D22*
%TO.P,R8,1*%
%TO.N,Net-(U4-FB)*%
X146712500Y-90500000D03*
%TO.P,R8,2*%
%TO.N,GNDREF*%
X144887500Y-90500000D03*
%TD*%
D23*
%TO.P,C10,1*%
%TO.N,GNDREF*%
X145450000Y-93600000D03*
%TO.P,C10,2*%
%TO.N,VIN*%
X147350000Y-93600000D03*
%TD*%
D19*
%TO.P,C7,1*%
%TO.N,/BOOT*%
X150300000Y-94625000D03*
%TO.P,C7,2*%
%TO.N,GNDREF*%
X150300000Y-96175000D03*
%TD*%
D24*
%TO.P,C5,1*%
%TO.N,+3V3*%
X136700000Y-106095000D03*
%TO.P,C5,2*%
%TO.N,GNDREF*%
X136700000Y-108800000D03*
%TD*%
D19*
%TO.P,C4,1*%
%TO.N,/EN*%
X156700000Y-98025000D03*
%TO.P,C4,2*%
%TO.N,GNDREF*%
X156700000Y-99575000D03*
%TD*%
D25*
%TO.P,R4,1*%
%TO.N,+3V3*%
X139000000Y-103175000D03*
%TO.P,R4,2*%
%TO.N,/SCL*%
X139000000Y-104825000D03*
%TD*%
D16*
%TO.P,R9,1*%
%TO.N,/EN*%
X155825000Y-95400000D03*
%TO.P,R9,2*%
%TO.N,+3V3*%
X154175000Y-95400000D03*
%TD*%
D26*
%TO.P,L1,1,1*%
%TO.N,Net-(U4-SW)*%
X151200000Y-84375000D03*
%TO.P,L1,2,2*%
%TO.N,VIN*%
X151200000Y-90425000D03*
%TD*%
D27*
%TO.P,U4,1,GND*%
%TO.N,GNDREF*%
X146000000Y-86487500D03*
%TO.P,U4,2,SW*%
%TO.N,Net-(U4-SW)*%
X146500000Y-86487500D03*
%TO.P,U4,3,VIN*%
%TO.N,VBATT*%
X147000000Y-86487500D03*
%TO.P,U4,4,FB*%
%TO.N,Net-(U4-FB)*%
X147000000Y-87912500D03*
%TO.P,U4,5,EN*%
%TO.N,VBATT*%
X146500000Y-87912500D03*
%TO.P,U4,6,BOOT*%
%TO.N,Net-(U4-BOOT)*%
X146000000Y-87912500D03*
%TD*%
D28*
%TO.P,D3,1,A1*%
%TO.N,VBATT*%
X152500000Y-104000000D03*
%TO.P,D3,2,A2*%
%TO.N,Net-(D3-A2)*%
X156500000Y-104000000D03*
%TD*%
D29*
%TO.P,C3,1*%
%TO.N,VBATT*%
X154952500Y-97200000D03*
%TO.P,C3,2*%
%TO.N,GNDREF*%
X152247500Y-97200000D03*
%TD*%
D20*
%TO.P,C8,1*%
%TO.N,Net-(U4-SW)*%
X146775000Y-85100000D03*
%TO.P,C8,2*%
%TO.N,Net-(U4-BOOT)*%
X145225000Y-85100000D03*
%TD*%
D19*
%TO.P,C6,1*%
%TO.N,+3V3*%
X138500000Y-107225000D03*
%TO.P,C6,2*%
%TO.N,GNDREF*%
X138500000Y-108775000D03*
%TD*%
D30*
%TO.P,U3,1,VIN*%
%TO.N,Net-(U3-EN)*%
X149050000Y-113362500D03*
%TO.P,U3,2,GND*%
%TO.N,GNDREF*%
X150000000Y-113362500D03*
%TO.P,U3,3,EN*%
%TO.N,Net-(U3-EN)*%
X150950000Y-113362500D03*
%TO.P,U3,4,NC*%
%TO.N,unconnected-(U3-NC-Pad4)*%
X150950000Y-115637500D03*
%TO.P,U3,5,VOUT*%
%TO.N,/VUSB*%
X149050000Y-115637500D03*
%TD*%
D20*
%TO.P,C9,1*%
%TO.N,Net-(U4-FB)*%
X155775000Y-93900000D03*
%TO.P,C9,2*%
%TO.N,VIN*%
X154225000Y-93900000D03*
%TD*%
D31*
%TO.P,R7,1*%
%TO.N,VIN*%
X154087500Y-92100000D03*
%TO.P,R7,2*%
%TO.N,Net-(U4-FB)*%
X155912500Y-92100000D03*
%TD*%
D32*
%TO.P,R5,1*%
%TO.N,GNDREF*%
X140500000Y-108825000D03*
%TO.P,R5,2*%
%TO.N,+3V3*%
X140500000Y-107175000D03*
%TD*%
D21*
%TO.P,C11,1*%
%TO.N,GNDREF*%
X144500000Y-99075000D03*
%TO.P,C11,2*%
%TO.N,+3V3*%
X144500000Y-97525000D03*
%TD*%
D25*
%TO.P,R12,1*%
%TO.N,/BOOT*%
X152700000Y-93775000D03*
%TO.P,R12,2*%
%TO.N,+3V3*%
X152700000Y-95425000D03*
%TD*%
D33*
%TO.N,GNDREF*%
X144500000Y-106000000D03*
X155000000Y-100500000D03*
X145000000Y-95000000D03*
X151650000Y-99175000D03*
X148350000Y-100825000D03*
X151650000Y-100825000D03*
X145500000Y-106000000D03*
X148350000Y-99175000D03*
X145000000Y-102000000D03*
X156000000Y-101500000D03*
X138000000Y-105000000D03*
X146500000Y-98000000D03*
X150000000Y-100825000D03*
X149175000Y-100000000D03*
X150825000Y-101650000D03*
X144000000Y-102000000D03*
X146500000Y-100000000D03*
X144000000Y-101000000D03*
X149175000Y-101650000D03*
X155000000Y-101500000D03*
X137200000Y-100500000D03*
X146500000Y-106000000D03*
X146500000Y-101000000D03*
X150825000Y-100000000D03*
X144000000Y-94000000D03*
X146500000Y-99000000D03*
X156000000Y-99500000D03*
X144000000Y-95000000D03*
X150825000Y-98350000D03*
X134000000Y-104500000D03*
X156000000Y-100500000D03*
X155000000Y-99500000D03*
X149175000Y-98350000D03*
X149300000Y-96000000D03*
X150000000Y-97500000D03*
X150000000Y-99175000D03*
%TO.N,Net-(U3-EN)*%
X151500000Y-108500000D03*
X155682183Y-113183465D03*
%TO.N,+3V3*%
X144500000Y-96000000D03*
X139000000Y-95750000D03*
X135815417Y-107214349D03*
%TO.N,/S2*%
X154500000Y-103000000D03*
%TO.N,/SCL*%
X139000000Y-106000001D03*
%TO.N,/USB_D+*%
X150000000Y-106000000D03*
X149500000Y-108500000D03*
X155754676Y-112436974D03*
%TO.N,/BOOT*%
X151600000Y-94200000D03*
X155270000Y-98770000D03*
%TO.N,/SPI_SCK*%
X141700000Y-100500000D03*
X141500000Y-108000000D03*
X141672183Y-104599999D03*
X141550000Y-95200000D03*
%TO.N,/SPI_DO*%
X141000000Y-99800000D03*
X140000000Y-104600000D03*
X141389910Y-106628414D03*
%TO.N,/Status_LED*%
X140800000Y-104600000D03*
X141240313Y-105701000D03*
%TO.N,Net-(D5-K)*%
X140450000Y-96600000D03*
%TD*%
D34*
%TO.N,/VUSB*%
X148137500Y-114725000D02*
X149050000Y-115637500D01*
X147500000Y-114725000D02*
X148137500Y-114725000D01*
X147500000Y-96712500D02*
X147500000Y-114725000D01*
X147437500Y-96650000D02*
X147500000Y-96712500D01*
%TO.N,GNDREF*%
X147826000Y-116601000D02*
X147500000Y-116275000D01*
D35*
X146000000Y-86487500D02*
X146000000Y-83600000D01*
D34*
X154275000Y-113616968D02*
X154095984Y-113795984D01*
X154095984Y-113795984D02*
X151290968Y-116601000D01*
X136700000Y-108800000D02*
X137900000Y-110000000D01*
X146724000Y-115499000D02*
X146724000Y-113724000D01*
X147500000Y-116275000D02*
X146724000Y-115499000D01*
X150000000Y-113362500D02*
X150000000Y-116601000D01*
X151290968Y-116601000D02*
X150000000Y-116601000D01*
X154275000Y-113000000D02*
X154275000Y-113616968D01*
X150000000Y-116601000D02*
X147826000Y-116601000D01*
%TO.N,Net-(U3-EN)*%
X155383465Y-113183465D02*
X155225000Y-113025000D01*
X155225000Y-113025000D02*
X155225000Y-112718831D01*
X153501000Y-112224000D02*
X152725000Y-113000000D01*
X150950000Y-114024999D02*
X150950000Y-113362500D01*
X151500000Y-109000000D02*
X150950000Y-109550000D01*
X155682183Y-113183465D02*
X155383465Y-113183465D01*
X152362500Y-113362500D02*
X152725000Y-113000000D01*
X150950000Y-112400000D02*
X150950000Y-113362500D01*
X149050000Y-113078744D02*
X149728744Y-112400000D01*
X149728744Y-112400000D02*
X150950000Y-112400000D01*
X150950000Y-113362500D02*
X152362500Y-113362500D01*
X151500000Y-108500000D02*
X151500000Y-109000000D01*
X149050000Y-113362500D02*
X149050000Y-113078744D01*
X149050000Y-113362500D02*
X149050000Y-114024999D01*
X150950000Y-109550000D02*
X150950000Y-112400000D01*
X151000000Y-113312500D02*
X150950000Y-113362500D01*
X154730169Y-112224000D02*
X153501000Y-112224000D01*
X155225000Y-112718831D02*
X154730169Y-112224000D01*
%TO.N,+3V3*%
X145562500Y-96000000D02*
X144500000Y-96000000D01*
X144500000Y-97525000D02*
X144500000Y-96000000D01*
X148300000Y-96000000D02*
X148900000Y-95400000D01*
X137300000Y-107225000D02*
X137300000Y-106695000D01*
X135815417Y-107214349D02*
X135886068Y-107285000D01*
X138550000Y-107175000D02*
X138500000Y-107225000D01*
X137300000Y-106695000D02*
X136700000Y-106095000D01*
X136500000Y-107285000D02*
X136560000Y-107225000D01*
X137300000Y-107225000D02*
X138500000Y-107225000D01*
X139000000Y-95750000D02*
X139000000Y-103175000D01*
X136560000Y-107225000D02*
X137300000Y-107225000D01*
X148300000Y-96000000D02*
X145562500Y-96000000D01*
X140500000Y-107175000D02*
X138550000Y-107175000D01*
X148900000Y-95400000D02*
X154175000Y-95400000D01*
X135886068Y-107285000D02*
X136500000Y-107285000D01*
D35*
%TO.N,VBATT*%
X152500000Y-99652500D02*
X154952500Y-97200000D01*
X146500000Y-87400000D02*
X146500000Y-87912500D01*
X152500000Y-104000000D02*
X152500000Y-99652500D01*
X154952500Y-97200000D02*
X154976000Y-97176500D01*
X147600000Y-92000000D02*
X146400000Y-92000000D01*
X146400000Y-92000000D02*
X145800000Y-91400000D01*
X147000000Y-86487500D02*
X147000000Y-86900000D01*
X148100000Y-89600000D02*
X148100000Y-91500000D01*
X145800000Y-91400000D02*
X145800000Y-89001848D01*
X145800000Y-89001848D02*
X146500000Y-88301848D01*
X149100000Y-88600000D02*
X148100000Y-89600000D01*
X154976000Y-97176500D02*
X154976000Y-90989840D01*
X148100000Y-91500000D02*
X147600000Y-92000000D01*
X146500000Y-88301848D02*
X146500000Y-87912500D01*
X152586160Y-88600000D02*
X149100000Y-88600000D01*
X152500000Y-104000000D02*
X149500000Y-104000000D01*
X154976000Y-90989840D02*
X152586160Y-88600000D01*
X147000000Y-86900000D02*
X146500000Y-87400000D01*
%TO.N,Net-(U4-SW)*%
X146500000Y-85375000D02*
X146775000Y-85100000D01*
X146775000Y-85100000D02*
X150475000Y-85100000D01*
X146500000Y-86487500D02*
X146500000Y-85375000D01*
X150475000Y-85100000D02*
X151200000Y-84375000D01*
%TO.N,Net-(U4-BOOT)*%
X145225000Y-85100000D02*
X145225000Y-87137500D01*
X145225000Y-87137500D02*
X146000000Y-87912500D01*
%TO.N,VIN*%
X154225000Y-92237500D02*
X154087500Y-92100000D01*
X154225000Y-93900000D02*
X154225000Y-92237500D01*
X151200000Y-90425000D02*
X152425000Y-90425000D01*
X147350000Y-95262500D02*
X147437500Y-95350000D01*
X152425000Y-90425000D02*
X154087500Y-92087500D01*
X150525000Y-90425000D02*
X151200000Y-90425000D01*
X147350000Y-93600000D02*
X147350000Y-95262500D01*
X147350000Y-93600000D02*
X150525000Y-90425000D01*
%TO.N,Net-(U4-FB)*%
X155912500Y-93762500D02*
X155775000Y-93900000D01*
X155912500Y-90512500D02*
X155912500Y-92100000D01*
X153312500Y-87912500D02*
X147000000Y-87912500D01*
X155912500Y-90512500D02*
X153312500Y-87912500D01*
X155912500Y-92100000D02*
X155912500Y-93762500D01*
X146712500Y-90500000D02*
X147000000Y-90212500D01*
X147000000Y-90212500D02*
X147000000Y-87912500D01*
D34*
%TO.N,/S2*%
X154500000Y-103000000D02*
X155000000Y-102500000D01*
X155000000Y-102500000D02*
X165000000Y-102500000D01*
D35*
%TO.N,Net-(D2-A2)*%
X136500000Y-104000000D02*
X145500000Y-104000000D01*
X135000000Y-102500000D02*
X136500000Y-104000000D01*
%TO.N,Net-(D3-A2)*%
X156500000Y-104000000D02*
X165343428Y-104000000D01*
X166303500Y-98803500D02*
X165000000Y-97500000D01*
X165343428Y-104000000D02*
X166303500Y-103039928D01*
X166303500Y-103039928D02*
X166303500Y-98803500D01*
D34*
%TO.N,/SCL*%
X139000000Y-104825000D02*
X139000000Y-106000001D01*
%TO.N,/USB_D+*%
X153334900Y-109484957D02*
X151749943Y-107900000D01*
X149500000Y-107600000D02*
X149500000Y-106500000D01*
X149800000Y-107900000D02*
X149500000Y-107600000D01*
X149500000Y-108500000D02*
X149500000Y-107600000D01*
X153334900Y-111823000D02*
X153334900Y-109484957D01*
X151749943Y-107900000D02*
X149800000Y-107900000D01*
X155140702Y-111823000D02*
X153334900Y-111823000D01*
X155754676Y-112436974D02*
X155140702Y-111823000D01*
X149500000Y-106500000D02*
X150000000Y-106000000D01*
%TO.N,/EN*%
X155825000Y-95400000D02*
X158895000Y-95400000D01*
X158895000Y-95400000D02*
X159725000Y-96230000D01*
X158200000Y-98025000D02*
X156700000Y-98025000D01*
X158200000Y-98025000D02*
X158200000Y-97755000D01*
X158200000Y-97755000D02*
X159725000Y-96230000D01*
%TO.N,/BOOT*%
X151175000Y-94625000D02*
X151600000Y-94200000D01*
X152025000Y-93775000D02*
X151600000Y-94200000D01*
X155270000Y-98770000D02*
X159725000Y-98770000D01*
X150300000Y-94625000D02*
X151175000Y-94625000D01*
X152700000Y-93775000D02*
X152025000Y-93775000D01*
%TO.N,/SPI_SCK*%
X141672183Y-104649999D02*
X141939910Y-104917726D01*
X141700000Y-95350000D02*
X141550000Y-95200000D01*
X141939910Y-104917726D02*
X141939910Y-107560090D01*
X141700000Y-100500000D02*
X141700000Y-95350000D01*
X141939910Y-107560090D02*
X141500000Y-108000000D01*
X141672183Y-104599999D02*
X141672183Y-104649999D01*
%TO.N,/SPI_DO*%
X141389910Y-106628414D02*
X140000000Y-105238504D01*
X141000000Y-99800000D02*
X141000000Y-94102634D01*
X142770000Y-92332634D02*
X142770000Y-88370000D01*
X141000000Y-94102634D02*
X142770000Y-92332634D01*
X140000000Y-105238504D02*
X140000000Y-104600000D01*
%TO.N,/Status_LED*%
X141240313Y-105701000D02*
X141240313Y-105040313D01*
X141240313Y-105040313D02*
X140800000Y-104600000D01*
%TO.N,Net-(D5-K)*%
X140450000Y-96600000D02*
X140450000Y-96875000D01*
X140450000Y-96875000D02*
X139825000Y-97500000D01*
%TD*%
%TA.AperFunction,Conductor*%
%TO.N,GNDREF*%
G36*
X150092539Y-113382185D02*
G01*
X150138294Y-113434989D01*
X150149500Y-113486500D01*
X150149500Y-113940701D01*
X150152401Y-113977567D01*
X150152402Y-113977573D01*
X150198254Y-114135393D01*
X150198255Y-114135395D01*
X150198256Y-114135398D01*
X150232732Y-114193694D01*
X150250000Y-114256814D01*
X150250000Y-114522295D01*
X150276247Y-114546558D01*
X150312114Y-114606519D01*
X150309869Y-114676353D01*
X150285471Y-114716014D01*
X150286702Y-114716969D01*
X150281917Y-114723137D01*
X150198255Y-114864603D01*
X150198254Y-114864606D01*
X150152402Y-115022426D01*
X150152401Y-115022432D01*
X150149500Y-115059298D01*
X150149500Y-116215701D01*
X150152401Y-116252567D01*
X150152402Y-116252573D01*
X150198254Y-116410393D01*
X150198255Y-116410396D01*
X150281917Y-116551862D01*
X150281923Y-116551870D01*
X150398129Y-116668076D01*
X150398133Y-116668079D01*
X150398135Y-116668081D01*
X150539602Y-116751744D01*
X150539609Y-116751746D01*
X150541204Y-116752437D01*
X150542260Y-116753315D01*
X150546317Y-116755715D01*
X150545930Y-116756369D01*
X150546904Y-116757180D01*
X150554111Y-116758939D01*
X150573400Y-116779225D01*
X150594914Y-116797125D01*
X150597145Y-116804197D01*
X150602257Y-116809573D01*
X150607516Y-116837067D01*
X150615937Y-116863757D01*
X150613990Y-116870913D01*
X150615384Y-116878199D01*
X150604944Y-116904169D01*
X150597599Y-116931177D01*
X150592092Y-116936145D01*
X150589326Y-116943027D01*
X150566505Y-116959229D01*
X150545722Y-116977980D01*
X150536990Y-116980184D01*
X150532355Y-116983476D01*
X150497690Y-116990108D01*
X150400105Y-116994620D01*
X150395507Y-116994833D01*
X150389781Y-116994965D01*
X149610219Y-116994965D01*
X149604492Y-116994833D01*
X149599645Y-116994608D01*
X149502309Y-116990108D01*
X149436251Y-116967347D01*
X149392984Y-116912486D01*
X149386245Y-116842942D01*
X149418175Y-116780795D01*
X149453805Y-116755921D01*
X149453683Y-116755715D01*
X149456420Y-116754095D01*
X149458800Y-116752435D01*
X149460394Y-116751745D01*
X149460398Y-116751744D01*
X149601865Y-116668081D01*
X149718081Y-116551865D01*
X149801744Y-116410398D01*
X149847598Y-116252569D01*
X149850500Y-116215694D01*
X149850500Y-115059306D01*
X149847598Y-115022431D01*
X149801744Y-114864602D01*
X149718081Y-114723135D01*
X149718078Y-114723132D01*
X149713298Y-114716969D01*
X149714982Y-114715662D01*
X149686757Y-114663972D01*
X149691741Y-114594280D01*
X149723752Y-114546557D01*
X149750000Y-114522293D01*
X149750000Y-114256814D01*
X149767267Y-114193694D01*
X149801744Y-114135398D01*
X149847598Y-113977569D01*
X149850500Y-113940694D01*
X149850500Y-113486500D01*
X149853050Y-113477814D01*
X149851762Y-113468853D01*
X149862740Y-113444812D01*
X149870185Y-113419461D01*
X149877025Y-113413533D01*
X149880787Y-113405297D01*
X149903021Y-113391007D01*
X149922989Y-113373706D01*
X149933503Y-113371418D01*
X149939565Y-113367523D01*
X149974500Y-113362500D01*
X150025500Y-113362500D01*
X150092539Y-113382185D01*
G37*
%TD.AperFunction*%
%TA.AperFunction,Conductor*%
G36*
X153512009Y-113782572D02*
G01*
X153543679Y-113784835D01*
X153546992Y-113786964D01*
X153549835Y-113787321D01*
X153579864Y-113805867D01*
X153613984Y-113834378D01*
X153652805Y-113892470D01*
X153654057Y-113962328D01*
X153622155Y-114017212D01*
X153504023Y-114135344D01*
X153389058Y-114307403D01*
X153309870Y-114498579D01*
X153309868Y-114498587D01*
X153269500Y-114701530D01*
X153269500Y-114701534D01*
X153269500Y-114701535D01*
X153269500Y-116408465D01*
X153280264Y-116462581D01*
X153296752Y-116545474D01*
X153290523Y-116615065D01*
X153247660Y-116670242D01*
X153197919Y-116691553D01*
X152739659Y-116777217D01*
X152734005Y-116778139D01*
X151961909Y-116885842D01*
X151956219Y-116886502D01*
X151529484Y-116926045D01*
X151460915Y-116912630D01*
X151410483Y-116864273D01*
X151394200Y-116796327D01*
X151417237Y-116730364D01*
X151454921Y-116695843D01*
X151501865Y-116668081D01*
X151618081Y-116551865D01*
X151701744Y-116410398D01*
X151747598Y-116252569D01*
X151750500Y-116215694D01*
X151750500Y-115059306D01*
X151747598Y-115022431D01*
X151701744Y-114864602D01*
X151618081Y-114723135D01*
X151618079Y-114723133D01*
X151618076Y-114723129D01*
X151501870Y-114606923D01*
X151501867Y-114606921D01*
X151501865Y-114606919D01*
X151501549Y-114606732D01*
X151501353Y-114606522D01*
X151495702Y-114602139D01*
X151496409Y-114601227D01*
X151453866Y-114555664D01*
X151441362Y-114486923D01*
X151468006Y-114422333D01*
X151495921Y-114398144D01*
X151495702Y-114397861D01*
X151500911Y-114393820D01*
X151501550Y-114393267D01*
X151501865Y-114393081D01*
X151618081Y-114276865D01*
X151701744Y-114135398D01*
X151701745Y-114135395D01*
X151725857Y-114052404D01*
X151763464Y-113993519D01*
X151826936Y-113964313D01*
X151844933Y-113963000D01*
X152275833Y-113963000D01*
X152283439Y-113963000D01*
X152283443Y-113963001D01*
X152328202Y-113963001D01*
X152345540Y-113964836D01*
X152345558Y-113964661D01*
X152352291Y-113965348D01*
X152352292Y-113965349D01*
X152451655Y-113975500D01*
X152998344Y-113975499D01*
X152998352Y-113975498D01*
X152998355Y-113975498D01*
X153052760Y-113969940D01*
X153097708Y-113965349D01*
X153258697Y-113912003D01*
X153403044Y-113822968D01*
X153412668Y-113813343D01*
X153415678Y-113811699D01*
X153417484Y-113808777D01*
X153446130Y-113795069D01*
X153473987Y-113779856D01*
X153477411Y-113780100D01*
X153480510Y-113778618D01*
X153512009Y-113782572D01*
G37*
%TD.AperFunction*%
%TA.AperFunction,Conductor*%
G36*
X143699504Y-104670185D02*
G01*
X143745259Y-104722989D01*
X143755823Y-104761898D01*
X143760001Y-104802797D01*
X143760001Y-104802799D01*
X143791383Y-104897501D01*
X143815186Y-104969334D01*
X143907288Y-105118656D01*
X144031344Y-105242712D01*
X144180666Y-105334814D01*
X144347203Y-105389999D01*
X144449991Y-105400500D01*
X146550008Y-105400499D01*
X146652797Y-105389999D01*
X146736498Y-105362262D01*
X146806323Y-105359861D01*
X146866365Y-105395592D01*
X146897558Y-105458112D01*
X146899500Y-105479969D01*
X146899500Y-109270654D01*
X146879815Y-109337693D01*
X146827011Y-109383448D01*
X146757853Y-109393392D01*
X146694297Y-109364367D01*
X146660939Y-109318107D01*
X146610942Y-109197403D01*
X146495975Y-109025342D01*
X146349657Y-108879024D01*
X146186097Y-108769738D01*
X146177598Y-108764059D01*
X146103815Y-108733497D01*
X145986420Y-108684870D01*
X145986412Y-108684868D01*
X145783469Y-108644500D01*
X145783465Y-108644500D01*
X145576535Y-108644500D01*
X145576530Y-108644500D01*
X145373587Y-108684868D01*
X145373579Y-108684870D01*
X145182403Y-108764058D01*
X145010342Y-108879024D01*
X144864024Y-109025342D01*
X144749058Y-109197403D01*
X144669870Y-109388579D01*
X144669868Y-109388587D01*
X144629500Y-109591530D01*
X144629500Y-110798469D01*
X144669868Y-111001412D01*
X144669870Y-111001420D01*
X144726291Y-111137633D01*
X144749059Y-111192598D01*
X144796382Y-111263423D01*
X144864024Y-111364657D01*
X145010342Y-111510975D01*
X145010345Y-111510977D01*
X145182402Y-111625941D01*
X145373580Y-111705130D01*
X145486460Y-111727583D01*
X145576530Y-111745499D01*
X145576534Y-111745500D01*
X145576535Y-111745500D01*
X145783466Y-111745500D01*
X145783467Y-111745499D01*
X145986420Y-111705130D01*
X146177598Y-111625941D01*
X146349655Y-111510977D01*
X146495977Y-111364655D01*
X146610941Y-111192598D01*
X146660939Y-111071891D01*
X146704780Y-111017489D01*
X146771074Y-110995424D01*
X146838773Y-111012703D01*
X146886384Y-111063840D01*
X146899500Y-111119345D01*
X146899500Y-113794574D01*
X146879815Y-113861613D01*
X146840598Y-113900112D01*
X146796957Y-113927030D01*
X146677030Y-114046958D01*
X146656568Y-114080133D01*
X146604620Y-114126857D01*
X146535657Y-114138078D01*
X146471575Y-114110235D01*
X146463349Y-114102716D01*
X146349657Y-113989024D01*
X146241834Y-113916980D01*
X146177598Y-113874059D01*
X146164298Y-113868550D01*
X145986420Y-113794870D01*
X145986412Y-113794868D01*
X145783469Y-113754500D01*
X145783465Y-113754500D01*
X145576535Y-113754500D01*
X145576530Y-113754500D01*
X145373587Y-113794868D01*
X145373579Y-113794870D01*
X145182403Y-113874058D01*
X145010342Y-113989024D01*
X144864024Y-114135342D01*
X144749058Y-114307403D01*
X144669870Y-114498579D01*
X144669868Y-114498587D01*
X144629500Y-114701530D01*
X144629500Y-115951789D01*
X144621418Y-115979309D01*
X144616267Y-116007526D01*
X144611699Y-116012411D01*
X144609815Y-116018828D01*
X144588142Y-116037607D01*
X144568550Y-116058563D01*
X144562064Y-116060203D01*
X144557011Y-116064583D01*
X144528619Y-116068665D01*
X144500814Y-116075700D01*
X144491509Y-116074001D01*
X144487853Y-116074527D01*
X144466094Y-116069361D01*
X144229572Y-115990088D01*
X144224184Y-115988143D01*
X143497226Y-115706517D01*
X143491942Y-115704328D01*
X142778767Y-115389431D01*
X142773624Y-115387016D01*
X142075766Y-115039523D01*
X142070699Y-115036852D01*
X141389654Y-114657513D01*
X141384715Y-114654611D01*
X141143923Y-114505519D01*
X140721889Y-114244206D01*
X140717111Y-114241093D01*
X140073946Y-113800515D01*
X140069298Y-113797171D01*
X140062462Y-113792009D01*
X139447181Y-113327370D01*
X139442691Y-113323813D01*
X138842945Y-112825790D01*
X138838624Y-112822030D01*
X138262508Y-112296830D01*
X138258365Y-112292874D01*
X137707125Y-111741634D01*
X137703169Y-111737491D01*
X137194591Y-111179608D01*
X137177967Y-111161373D01*
X137174209Y-111157054D01*
X137058316Y-111017489D01*
X136676182Y-110557303D01*
X136672629Y-110552818D01*
X136598704Y-110454926D01*
X136407242Y-110201389D01*
X136382551Y-110136028D01*
X136397116Y-110067694D01*
X136418516Y-110038981D01*
X136450000Y-110007497D01*
X136450000Y-109050000D01*
X136950000Y-109050000D01*
X136950000Y-110007499D01*
X137194972Y-110007499D01*
X137194986Y-110007498D01*
X137297697Y-109997005D01*
X137464119Y-109941858D01*
X137464124Y-109941856D01*
X137613345Y-109849815D01*
X137737316Y-109725845D01*
X137757224Y-109693568D01*
X137809172Y-109646842D01*
X137878134Y-109635619D01*
X137927861Y-109653124D01*
X137941513Y-109661545D01*
X137941518Y-109661547D01*
X138102393Y-109714855D01*
X138201683Y-109724999D01*
X138750000Y-109724999D01*
X138798308Y-109724999D01*
X138798322Y-109724998D01*
X138897607Y-109714855D01*
X139058481Y-109661547D01*
X139058492Y-109661542D01*
X139202728Y-109572575D01*
X139202732Y-109572572D01*
X139322571Y-109452733D01*
X139389212Y-109344692D01*
X139441160Y-109297968D01*
X139510123Y-109286745D01*
X139574205Y-109314589D01*
X139600868Y-109345639D01*
X139669927Y-109459877D01*
X139790122Y-109580072D01*
X139935604Y-109668019D01*
X139935603Y-109668019D01*
X140097894Y-109718590D01*
X140097892Y-109718590D01*
X140168418Y-109724999D01*
X140750000Y-109724999D01*
X140831581Y-109724999D01*
X140902102Y-109718591D01*
X140902107Y-109718590D01*
X141064396Y-109668018D01*
X141209877Y-109580072D01*
X141330072Y-109459877D01*
X141418019Y-109314395D01*
X141468590Y-109152106D01*
X141475000Y-109081572D01*
X141475000Y-109075000D01*
X140750000Y-109075000D01*
X140750000Y-109724999D01*
X140168418Y-109724999D01*
X140249999Y-109724998D01*
X140250000Y-109724998D01*
X140250000Y-109075000D01*
X139496362Y-109075000D01*
X139429323Y-109055315D01*
X139408681Y-109038681D01*
X139395000Y-109025000D01*
X138750000Y-109025000D01*
X138750000Y-109724999D01*
X138201683Y-109724999D01*
X138249999Y-109724998D01*
X138250000Y-109724998D01*
X138250000Y-109025000D01*
X138015590Y-109025000D01*
X137974996Y-109047166D01*
X137948638Y-109050000D01*
X136950000Y-109050000D01*
X136450000Y-109050000D01*
X136450000Y-108924000D01*
X136469685Y-108856961D01*
X136522489Y-108811206D01*
X136574000Y-108800000D01*
X136700000Y-108800000D01*
X136700000Y-108674000D01*
X136719685Y-108606961D01*
X136772489Y-108561206D01*
X136824000Y-108550000D01*
X137404410Y-108550000D01*
X137445004Y-108527834D01*
X137471362Y-108525000D01*
X139503638Y-108525000D01*
X139570677Y-108544685D01*
X139591319Y-108561319D01*
X139605000Y-108575000D01*
X140891559Y-108575000D01*
X140958598Y-108594685D01*
X140979240Y-108611319D01*
X140989707Y-108621786D01*
X140989711Y-108621789D01*
X141120814Y-108709390D01*
X141120827Y-108709397D01*
X141252795Y-108764059D01*
X141266503Y-108769737D01*
X141418644Y-108800000D01*
X141421153Y-108800499D01*
X141421156Y-108800500D01*
X141421158Y-108800500D01*
X141578844Y-108800500D01*
X141578845Y-108800499D01*
X141733497Y-108769737D01*
X141879179Y-108709394D01*
X142010289Y-108621789D01*
X142121789Y-108510289D01*
X142209394Y-108379179D01*
X142269737Y-108233497D01*
X142300500Y-108078842D01*
X142300500Y-108078840D01*
X142300637Y-108078152D01*
X142333021Y-108016241D01*
X142334574Y-108014661D01*
X142361963Y-107987273D01*
X142420430Y-107928806D01*
X142421423Y-107927087D01*
X142445432Y-107885501D01*
X142499487Y-107791874D01*
X142540411Y-107639147D01*
X142540411Y-107481032D01*
X142540411Y-107473437D01*
X142540410Y-107473419D01*
X142540410Y-104838671D01*
X142540410Y-104838669D01*
X142531815Y-104806592D01*
X142533478Y-104736743D01*
X142572641Y-104678881D01*
X142636869Y-104651377D01*
X142651590Y-104650500D01*
X143632465Y-104650500D01*
X143699504Y-104670185D01*
G37*
%TD.AperFunction*%
%TA.AperFunction,Conductor*%
G36*
X141225871Y-85528998D02*
G01*
X141270733Y-85582563D01*
X141279563Y-85651569D01*
X141270000Y-85711951D01*
X141270000Y-85948052D01*
X141306934Y-86181247D01*
X141379897Y-86405802D01*
X141487087Y-86616174D01*
X141547338Y-86699104D01*
X141547340Y-86699105D01*
X142287037Y-85959407D01*
X142304075Y-86022993D01*
X142369901Y-86137007D01*
X142462993Y-86230099D01*
X142577007Y-86295925D01*
X142640590Y-86312962D01*
X141900893Y-87052658D01*
X141902448Y-87072405D01*
X141888084Y-87140783D01*
X141851717Y-87182451D01*
X141792490Y-87225482D01*
X141625484Y-87392488D01*
X141600318Y-87427127D01*
X141544987Y-87469792D01*
X141475374Y-87475771D01*
X141413579Y-87443165D01*
X141399682Y-87427127D01*
X141385221Y-87407223D01*
X141374517Y-87392490D01*
X141207510Y-87225483D01*
X141016433Y-87086657D01*
X140988460Y-87072404D01*
X140805996Y-86979433D01*
X140581368Y-86906446D01*
X140348097Y-86869500D01*
X140348092Y-86869500D01*
X140111908Y-86869500D01*
X140111903Y-86869500D01*
X139878631Y-86906446D01*
X139654003Y-86979433D01*
X139443566Y-87086657D01*
X139369069Y-87140783D01*
X139252490Y-87225483D01*
X139252488Y-87225485D01*
X139252487Y-87225485D01*
X139085485Y-87392487D01*
X139085485Y-87392488D01*
X139085483Y-87392490D01*
X139046878Y-87445625D01*
X138946657Y-87583566D01*
X138839433Y-87794003D01*
X138766446Y-88018631D01*
X138729500Y-88251902D01*
X138729500Y-88488097D01*
X138766446Y-88721368D01*
X138798622Y-88820392D01*
X138839432Y-88945992D01*
X138839433Y-88945995D01*
X138839434Y-88945996D01*
X138880509Y-89026611D01*
X138893405Y-89095281D01*
X138867128Y-89160021D01*
X138810022Y-89200278D01*
X138783908Y-89206126D01*
X138530172Y-89234716D01*
X138530156Y-89234718D01*
X138223500Y-89304710D01*
X138223498Y-89304711D01*
X137926604Y-89408598D01*
X137643213Y-89545072D01*
X137376878Y-89712422D01*
X137130956Y-89908538D01*
X136908538Y-90130956D01*
X136712422Y-90376878D01*
X136545072Y-90643213D01*
X136408598Y-90926604D01*
X136304711Y-91223498D01*
X136304710Y-91223500D01*
X136234718Y-91530156D01*
X136234716Y-91530172D01*
X136199500Y-91842722D01*
X136199500Y-92157277D01*
X136234716Y-92469827D01*
X136234718Y-92469843D01*
X136304710Y-92776499D01*
X136304711Y-92776501D01*
X136408598Y-93073395D01*
X136545072Y-93356786D01*
X136545074Y-93356789D01*
X136712423Y-93623123D01*
X136908539Y-93869044D01*
X137130956Y-94091461D01*
X137376877Y-94287577D01*
X137638104Y-94451717D01*
X137643213Y-94454927D01*
X137651050Y-94458701D01*
X137926606Y-94591402D01*
X138223500Y-94695289D01*
X138530160Y-94765282D01*
X138530164Y-94765282D01*
X138530173Y-94765284D01*
X138601983Y-94773374D01*
X138646296Y-94778367D01*
X138710709Y-94805433D01*
X138750264Y-94863028D01*
X138752402Y-94932864D01*
X138716445Y-94992771D01*
X138679866Y-95016147D01*
X138620829Y-95040601D01*
X138620814Y-95040609D01*
X138489711Y-95128210D01*
X138489707Y-95128213D01*
X138378213Y-95239707D01*
X138378210Y-95239711D01*
X138290609Y-95370814D01*
X138290602Y-95370827D01*
X138230264Y-95516498D01*
X138230261Y-95516510D01*
X138199500Y-95671153D01*
X138199500Y-95828846D01*
X138230261Y-95983489D01*
X138230264Y-95983501D01*
X138290602Y-96129172D01*
X138290609Y-96129185D01*
X138358286Y-96230469D01*
X138376202Y-96257283D01*
X138378602Y-96260874D01*
X138399480Y-96327551D01*
X138399500Y-96329765D01*
X138399500Y-102283284D01*
X138379815Y-102350323D01*
X138339652Y-102389400D01*
X138289811Y-102419530D01*
X138169530Y-102539811D01*
X138081522Y-102685393D01*
X138030913Y-102847807D01*
X138024500Y-102918386D01*
X138024500Y-103225500D01*
X138004815Y-103292539D01*
X137952011Y-103338294D01*
X137900500Y-103349500D01*
X136820808Y-103349500D01*
X136753769Y-103329815D01*
X136733127Y-103313181D01*
X136432443Y-103012497D01*
X136398958Y-102951174D01*
X136402193Y-102886498D01*
X136403868Y-102881344D01*
X136417222Y-102840245D01*
X136453000Y-102614354D01*
X136453000Y-102385646D01*
X136417222Y-102159755D01*
X136417221Y-102159751D01*
X136417221Y-102159750D01*
X136346549Y-101942244D01*
X136324769Y-101899499D01*
X136242717Y-101738462D01*
X136108286Y-101553434D01*
X135946566Y-101391714D01*
X135882190Y-101344942D01*
X135839526Y-101289613D01*
X135831459Y-101234896D01*
X135835098Y-101188650D01*
X135129409Y-100482962D01*
X135192993Y-100465925D01*
X135307007Y-100400099D01*
X135400099Y-100307007D01*
X135465925Y-100192993D01*
X135482962Y-100129410D01*
X136188651Y-100835099D01*
X136188651Y-100835098D01*
X136242288Y-100761276D01*
X136346082Y-100557568D01*
X136416734Y-100340125D01*
X136416734Y-100340124D01*
X136452500Y-100114313D01*
X136452500Y-99885686D01*
X136416734Y-99659875D01*
X136416734Y-99659874D01*
X136346082Y-99442431D01*
X136242292Y-99238731D01*
X136242288Y-99238725D01*
X136188651Y-99164900D01*
X136188651Y-99164899D01*
X135482962Y-99870589D01*
X135465925Y-99807007D01*
X135400099Y-99692993D01*
X135307007Y-99599901D01*
X135192993Y-99534075D01*
X135129408Y-99517037D01*
X135835098Y-98811348D01*
X135831459Y-98765103D01*
X135845823Y-98696726D01*
X135882190Y-98655057D01*
X135946566Y-98608286D01*
X136108286Y-98446566D01*
X136242717Y-98261538D01*
X136346548Y-98057758D01*
X136352017Y-98040925D01*
X136417221Y-97840249D01*
X136417221Y-97840248D01*
X136417222Y-97840245D01*
X136418594Y-97831582D01*
X137275001Y-97831582D01*
X137281408Y-97902102D01*
X137281409Y-97902107D01*
X137331981Y-98064396D01*
X137419927Y-98209877D01*
X137540122Y-98330072D01*
X137685604Y-98418019D01*
X137685603Y-98418019D01*
X137847894Y-98468590D01*
X137847893Y-98468590D01*
X137918408Y-98474998D01*
X137918426Y-98474999D01*
X137924999Y-98474998D01*
X137925000Y-98474998D01*
X137925000Y-97750000D01*
X137275001Y-97750000D01*
X137275001Y-97831582D01*
X136418594Y-97831582D01*
X136453000Y-97614354D01*
X136453000Y-97385646D01*
X136435186Y-97273172D01*
X136421223Y-97185013D01*
X136419304Y-97172903D01*
X136418595Y-97168427D01*
X137275000Y-97168427D01*
X137275000Y-97250000D01*
X137925000Y-97250000D01*
X137925000Y-96525000D01*
X137924999Y-96524999D01*
X137918436Y-96525000D01*
X137918417Y-96525001D01*
X137847897Y-96531408D01*
X137847892Y-96531409D01*
X137685603Y-96581981D01*
X137540122Y-96669927D01*
X137419927Y-96790122D01*
X137331980Y-96935604D01*
X137281409Y-97097893D01*
X137275000Y-97168427D01*
X136418595Y-97168427D01*
X136417222Y-97159755D01*
X136417221Y-97159751D01*
X136417221Y-97159750D01*
X136346549Y-96942244D01*
X136297997Y-96846956D01*
X136242717Y-96738462D01*
X136108286Y-96553434D01*
X135946566Y-96391714D01*
X135761538Y-96257283D01*
X135714863Y-96233501D01*
X135557755Y-96153450D01*
X135340248Y-96082778D01*
X135170826Y-96055944D01*
X135114354Y-96047000D01*
X134885646Y-96047000D01*
X134810349Y-96058926D01*
X134659753Y-96082778D01*
X134659750Y-96082778D01*
X134442244Y-96153450D01*
X134238461Y-96257283D01*
X134143665Y-96326157D01*
X134053434Y-96391714D01*
X134053432Y-96391716D01*
X134053431Y-96391716D01*
X133891716Y-96553431D01*
X133891716Y-96553432D01*
X133891714Y-96553434D01*
X133833980Y-96632896D01*
X133757283Y-96738461D01*
X133653450Y-96942244D01*
X133582778Y-97159750D01*
X133582778Y-97159753D01*
X133547000Y-97385646D01*
X133547000Y-97614353D01*
X133582778Y-97840246D01*
X133582778Y-97840249D01*
X133653450Y-98057755D01*
X133754980Y-98257019D01*
X133757283Y-98261538D01*
X133891714Y-98446566D01*
X134053434Y-98608286D01*
X134053437Y-98608288D01*
X134117806Y-98655055D01*
X134160472Y-98710385D01*
X134168539Y-98765101D01*
X134164899Y-98811347D01*
X134870590Y-99517037D01*
X134807007Y-99534075D01*
X134692993Y-99599901D01*
X134599901Y-99692993D01*
X134534075Y-99807007D01*
X134517037Y-99870590D01*
X133811347Y-99164899D01*
X133811346Y-99164900D01*
X133757713Y-99238719D01*
X133653917Y-99442431D01*
X133583265Y-99659874D01*
X133583265Y-99659875D01*
X133547500Y-99885686D01*
X133547500Y-100114313D01*
X133583265Y-100340124D01*
X133583265Y-100340125D01*
X133653917Y-100557568D01*
X133757711Y-100761276D01*
X133811347Y-100835098D01*
X133811347Y-100835099D01*
X134517037Y-100129409D01*
X134534075Y-100192993D01*
X134599901Y-100307007D01*
X134692993Y-100400099D01*
X134807007Y-100465925D01*
X134870590Y-100482962D01*
X134164899Y-101188651D01*
X134168539Y-101234898D01*
X134154174Y-101303275D01*
X134117807Y-101344943D01*
X134053440Y-101391709D01*
X134053431Y-101391716D01*
X133891716Y-101553431D01*
X133891716Y-101553432D01*
X133891714Y-101553434D01*
X133838899Y-101626127D01*
X133757283Y-101738461D01*
X133653450Y-101942244D01*
X133582778Y-102159750D01*
X133582778Y-102159753D01*
X133554567Y-102337871D01*
X133547000Y-102385646D01*
X133547000Y-102614354D01*
X133552877Y-102651460D01*
X133582778Y-102840246D01*
X133582778Y-102840249D01*
X133653450Y-103057755D01*
X133709823Y-103168392D01*
X133757283Y-103261538D01*
X133891714Y-103446566D01*
X134053434Y-103608286D01*
X134238462Y-103742717D01*
X134340897Y-103794910D01*
X134442244Y-103846549D01*
X134659751Y-103917221D01*
X134659752Y-103917221D01*
X134659755Y-103917222D01*
X134885646Y-103953000D01*
X134885647Y-103953000D01*
X135114353Y-103953000D01*
X135114354Y-103953000D01*
X135340245Y-103917222D01*
X135386499Y-103902192D01*
X135456339Y-103900198D01*
X135512497Y-103932443D01*
X136085324Y-104505271D01*
X136085327Y-104505274D01*
X136179777Y-104568383D01*
X136183827Y-104571089D01*
X136191873Y-104576465D01*
X136310256Y-104625501D01*
X136390099Y-104641383D01*
X136452010Y-104673767D01*
X136486584Y-104734483D01*
X136482845Y-104804253D01*
X136441979Y-104860925D01*
X136376961Y-104886506D01*
X136365909Y-104887000D01*
X136204999Y-104887000D01*
X136204980Y-104887001D01*
X136102203Y-104897500D01*
X136102200Y-104897501D01*
X135935668Y-104952685D01*
X135935663Y-104952687D01*
X135786342Y-105044789D01*
X135662289Y-105168842D01*
X135570187Y-105318163D01*
X135570185Y-105318168D01*
X135542904Y-105400498D01*
X135515001Y-105484703D01*
X135515001Y-105484704D01*
X135515000Y-105484704D01*
X135504500Y-105587483D01*
X135504500Y-106394145D01*
X135484815Y-106461184D01*
X135441205Y-106501427D01*
X135441302Y-106501571D01*
X135440389Y-106502180D01*
X135438962Y-106503498D01*
X135436240Y-106504952D01*
X135305132Y-106592556D01*
X135305124Y-106592562D01*
X135193630Y-106704056D01*
X135193627Y-106704060D01*
X135106026Y-106835163D01*
X135106019Y-106835176D01*
X135045681Y-106980847D01*
X135045678Y-106980859D01*
X135014917Y-107135502D01*
X135014917Y-107293195D01*
X135045678Y-107447838D01*
X135045681Y-107447850D01*
X135106019Y-107593521D01*
X135106026Y-107593534D01*
X135193627Y-107724637D01*
X135193630Y-107724641D01*
X135305124Y-107836135D01*
X135305128Y-107836138D01*
X135436231Y-107923739D01*
X135436244Y-107923746D01*
X135476931Y-107940599D01*
X135531335Y-107984440D01*
X135553400Y-108050734D01*
X135547185Y-108094163D01*
X135515495Y-108189798D01*
X135515493Y-108189809D01*
X135505000Y-108292513D01*
X135505000Y-108424663D01*
X135485315Y-108491702D01*
X135432511Y-108537457D01*
X135363353Y-108547401D01*
X135299797Y-108518376D01*
X135272671Y-108485002D01*
X134963147Y-107929300D01*
X134960476Y-107924233D01*
X134824536Y-107651229D01*
X134612970Y-107226349D01*
X134610577Y-107221251D01*
X134295662Y-106508036D01*
X134293482Y-106502773D01*
X134205048Y-106274500D01*
X134011847Y-105775790D01*
X134009920Y-105770453D01*
X133762169Y-105031262D01*
X133760475Y-105025790D01*
X133707235Y-104838671D01*
X133547129Y-104275958D01*
X133545704Y-104270473D01*
X133367215Y-103511584D01*
X133366033Y-103505981D01*
X133322356Y-103272328D01*
X133222781Y-102739655D01*
X133221860Y-102734005D01*
X133212260Y-102665185D01*
X133114155Y-101961895D01*
X133113497Y-101956219D01*
X133112033Y-101940423D01*
X133041567Y-101179979D01*
X133041171Y-101174266D01*
X133005167Y-100395508D01*
X133005035Y-100389781D01*
X133005035Y-99610218D01*
X133005167Y-99604491D01*
X133005620Y-99594685D01*
X133041171Y-98825728D01*
X133041568Y-98820019D01*
X133113499Y-98043760D01*
X133114157Y-98038090D01*
X133221861Y-97265982D01*
X133222782Y-97260340D01*
X133224406Y-97251656D01*
X133366034Y-96494009D01*
X133367216Y-96488413D01*
X133369072Y-96480522D01*
X133545707Y-95729516D01*
X133547126Y-95724052D01*
X133760478Y-94974197D01*
X133762169Y-94968737D01*
X134009925Y-94229532D01*
X134011841Y-94224223D01*
X134293485Y-93497217D01*
X134295655Y-93491979D01*
X134610584Y-92778731D01*
X134612962Y-92773667D01*
X134960480Y-92075756D01*
X134963147Y-92070699D01*
X135002088Y-92000787D01*
X135342504Y-91389623D01*
X135345369Y-91384745D01*
X135755812Y-90721858D01*
X135758886Y-90717141D01*
X136199503Y-90073917D01*
X136202806Y-90069328D01*
X136672649Y-89447154D01*
X136676165Y-89442716D01*
X137174230Y-88842920D01*
X137177948Y-88838647D01*
X137703189Y-88262486D01*
X137707103Y-88258387D01*
X138258387Y-87707103D01*
X138262486Y-87703189D01*
X138838647Y-87177948D01*
X138842920Y-87174230D01*
X139442716Y-86676165D01*
X139447154Y-86672649D01*
X140069328Y-86202806D01*
X140073917Y-86199503D01*
X140717121Y-85758899D01*
X140721878Y-85755799D01*
X141091815Y-85526744D01*
X141159172Y-85508190D01*
X141225871Y-85528998D01*
G37*
%TD.AperFunction*%
%TA.AperFunction,Conductor*%
G36*
X137967539Y-104670185D02*
G01*
X138013294Y-104722989D01*
X138024500Y-104774500D01*
X138024500Y-105081616D01*
X138030914Y-105152196D01*
X138081522Y-105314606D01*
X138169528Y-105460185D01*
X138172293Y-105462950D01*
X138172294Y-105462952D01*
X138243605Y-105534263D01*
X138277090Y-105595586D01*
X138272106Y-105665278D01*
X138270486Y-105669396D01*
X138230263Y-105766504D01*
X138230262Y-105766507D01*
X138230262Y-105766508D01*
X138230261Y-105766511D01*
X138199500Y-105921154D01*
X138199500Y-106078847D01*
X138211092Y-106137124D01*
X138204865Y-106206716D01*
X138162002Y-106261893D01*
X138123770Y-106280478D01*
X138113109Y-106283545D01*
X138102292Y-106284651D01*
X138056192Y-106299926D01*
X138053794Y-106300617D01*
X138021224Y-106300442D01*
X137988672Y-106301561D01*
X137986478Y-106300255D01*
X137983925Y-106300242D01*
X137956612Y-106282481D01*
X137928631Y-106265828D01*
X137927491Y-106263543D01*
X137925351Y-106262152D01*
X137911980Y-106232453D01*
X137897440Y-106203308D01*
X137897091Y-106199381D01*
X137896668Y-106198441D01*
X137896880Y-106197014D01*
X137895499Y-106181454D01*
X137895499Y-105587498D01*
X137895498Y-105587481D01*
X137884999Y-105484703D01*
X137884997Y-105484695D01*
X137869730Y-105438624D01*
X137869729Y-105438621D01*
X137829814Y-105318166D01*
X137737712Y-105168844D01*
X137613656Y-105044788D01*
X137464334Y-104952686D01*
X137297797Y-104897501D01*
X137297793Y-104897500D01*
X137291173Y-104896083D01*
X137291636Y-104893918D01*
X137236600Y-104871462D01*
X137196448Y-104814281D01*
X137193585Y-104744470D01*
X137228919Y-104684194D01*
X137291232Y-104652588D01*
X137313894Y-104650500D01*
X137900500Y-104650500D01*
X137967539Y-104670185D01*
G37*
%TD.AperFunction*%
%TA.AperFunction,Conductor*%
G36*
X144398314Y-85824552D02*
G01*
X144411647Y-85822636D01*
X144431790Y-85831835D01*
X144453427Y-85836542D01*
X144471152Y-85849810D01*
X144475203Y-85851661D01*
X144481681Y-85857693D01*
X144538181Y-85914193D01*
X144571666Y-85975516D01*
X144574500Y-86001874D01*
X144574500Y-87201570D01*
X144579256Y-87225480D01*
X144591493Y-87286997D01*
X144596997Y-87314663D01*
X144596997Y-87314672D01*
X144596999Y-87314672D01*
X144599499Y-87327245D01*
X144648533Y-87445625D01*
X144719726Y-87552173D01*
X144719727Y-87552174D01*
X145288406Y-88120852D01*
X145321103Y-88178781D01*
X145324500Y-88192525D01*
X145324500Y-88201040D01*
X145339635Y-88315999D01*
X145377776Y-88408080D01*
X145380017Y-88417147D01*
X145378892Y-88443095D01*
X145381669Y-88468916D01*
X145377405Y-88477433D01*
X145376993Y-88486951D01*
X145362019Y-88508170D01*
X145350394Y-88531395D01*
X145347322Y-88534579D01*
X145294723Y-88587179D01*
X145223534Y-88693722D01*
X145174499Y-88812103D01*
X145174497Y-88812109D01*
X145149500Y-88937776D01*
X145149500Y-89236638D01*
X145137500Y-89277505D01*
X145137500Y-91699999D01*
X145151825Y-91699999D01*
X145218864Y-91719684D01*
X145254924Y-91755105D01*
X145294723Y-91814669D01*
X145294724Y-91814670D01*
X145294727Y-91814674D01*
X145689846Y-92209791D01*
X145723331Y-92271114D01*
X145718347Y-92340805D01*
X145700000Y-92369354D01*
X145700000Y-94824999D01*
X145749972Y-94824999D01*
X145749986Y-94824998D01*
X145852697Y-94814505D01*
X146019119Y-94759358D01*
X146019124Y-94759356D01*
X146168345Y-94667315D01*
X146292318Y-94543342D01*
X146294165Y-94540348D01*
X146295969Y-94538724D01*
X146296798Y-94537677D01*
X146296976Y-94537818D01*
X146346110Y-94493621D01*
X146415073Y-94482396D01*
X146479156Y-94510236D01*
X146492034Y-94522666D01*
X146499429Y-94530914D01*
X146507288Y-94543656D01*
X146541733Y-94578101D01*
X146543986Y-94580614D01*
X146557637Y-94609218D01*
X146572824Y-94637030D01*
X146572574Y-94640515D01*
X146574080Y-94643670D01*
X146570100Y-94675112D01*
X146567840Y-94706722D01*
X146565673Y-94710093D01*
X146565307Y-94712987D01*
X146558885Y-94720656D01*
X146539340Y-94751069D01*
X146451831Y-94838578D01*
X146451827Y-94838583D01*
X146371382Y-94974609D01*
X146371380Y-94974614D01*
X146327292Y-95126366D01*
X146327288Y-95126387D01*
X146325557Y-95148385D01*
X146300672Y-95213673D01*
X146244440Y-95255142D01*
X146174714Y-95259627D01*
X146167345Y-95257729D01*
X146148632Y-95252292D01*
X146148628Y-95252291D01*
X146148627Y-95252291D01*
X146148625Y-95252290D01*
X146148620Y-95252290D01*
X146113163Y-95249500D01*
X145011849Y-95249500D01*
X145011824Y-95249501D01*
X144976374Y-95252290D01*
X144906693Y-95272534D01*
X144836823Y-95272333D01*
X144824662Y-95268024D01*
X144733497Y-95230263D01*
X144733490Y-95230261D01*
X144733489Y-95230261D01*
X144733488Y-95230260D01*
X144578845Y-95199500D01*
X144578842Y-95199500D01*
X144421158Y-95199500D01*
X144421155Y-95199500D01*
X144266510Y-95230261D01*
X144266498Y-95230264D01*
X144120827Y-95290602D01*
X144120814Y-95290609D01*
X143989711Y-95378210D01*
X143989707Y-95378213D01*
X143878213Y-95489707D01*
X143878210Y-95489711D01*
X143790609Y-95620814D01*
X143790602Y-95620827D01*
X143730264Y-95766498D01*
X143730261Y-95766510D01*
X143699500Y-95921153D01*
X143699500Y-96078846D01*
X143730261Y-96233489D01*
X143730264Y-96233501D01*
X143790602Y-96379172D01*
X143790609Y-96379185D01*
X143878602Y-96510874D01*
X143884252Y-96528920D01*
X143894477Y-96544830D01*
X143898928Y-96575789D01*
X143899480Y-96577551D01*
X143899500Y-96579765D01*
X143899500Y-96594574D01*
X143879815Y-96661613D01*
X143840598Y-96700112D01*
X143796957Y-96727030D01*
X143677029Y-96846959D01*
X143588001Y-96991294D01*
X143587996Y-96991305D01*
X143534651Y-97152290D01*
X143524500Y-97251647D01*
X143524500Y-97798337D01*
X143524501Y-97798355D01*
X143534650Y-97897707D01*
X143534651Y-97897710D01*
X143587996Y-98058694D01*
X143588001Y-98058705D01*
X143677029Y-98203040D01*
X143677032Y-98203044D01*
X143686660Y-98212672D01*
X143720145Y-98273995D01*
X143715161Y-98343687D01*
X143686663Y-98388031D01*
X143677428Y-98397265D01*
X143677424Y-98397271D01*
X143588457Y-98541507D01*
X143588452Y-98541518D01*
X143535144Y-98702393D01*
X143525000Y-98801677D01*
X143525000Y-98825000D01*
X145474999Y-98825000D01*
X145474999Y-98801692D01*
X145474998Y-98801677D01*
X145464855Y-98702392D01*
X145411547Y-98541518D01*
X145411542Y-98541507D01*
X145322575Y-98397271D01*
X145322572Y-98397267D01*
X145313339Y-98388034D01*
X145279854Y-98326711D01*
X145284838Y-98257019D01*
X145313343Y-98212668D01*
X145322968Y-98203044D01*
X145412003Y-98058697D01*
X145465349Y-97897708D01*
X145475500Y-97798345D01*
X145475499Y-97251656D01*
X145468691Y-97185013D01*
X145465349Y-97152292D01*
X145465348Y-97152289D01*
X145451264Y-97109786D01*
X145412003Y-96991303D01*
X145411999Y-96991297D01*
X145411998Y-96991294D01*
X145380110Y-96939596D01*
X145361669Y-96872204D01*
X145382591Y-96805540D01*
X145436233Y-96760771D01*
X145485648Y-96750499D01*
X146113150Y-96750499D01*
X146113162Y-96750499D01*
X146148627Y-96747709D01*
X146167344Y-96742271D01*
X146237212Y-96742468D01*
X146295883Y-96780409D01*
X146324728Y-96844046D01*
X146325559Y-96851617D01*
X146327291Y-96873628D01*
X146371380Y-97025385D01*
X146371382Y-97025390D01*
X146451827Y-97161416D01*
X146451834Y-97161425D01*
X146563574Y-97273165D01*
X146563583Y-97273172D01*
X146564963Y-97273988D01*
X146699610Y-97353618D01*
X146810098Y-97385717D01*
X146868980Y-97423321D01*
X146898187Y-97486793D01*
X146899500Y-97504792D01*
X146899500Y-102520030D01*
X146879815Y-102587069D01*
X146827011Y-102632824D01*
X146757853Y-102642768D01*
X146736497Y-102637736D01*
X146652799Y-102610001D01*
X146652795Y-102610000D01*
X146550010Y-102599500D01*
X144449998Y-102599500D01*
X144449981Y-102599501D01*
X144347203Y-102610000D01*
X144347200Y-102610001D01*
X144180668Y-102665185D01*
X144180663Y-102665187D01*
X144031342Y-102757289D01*
X143907289Y-102881342D01*
X143815187Y-103030663D01*
X143815185Y-103030668D01*
X143760001Y-103197204D01*
X143760000Y-103197205D01*
X143755823Y-103238102D01*
X143729427Y-103302793D01*
X143672247Y-103342945D01*
X143632465Y-103349500D01*
X140099500Y-103349500D01*
X140032461Y-103329815D01*
X139986706Y-103277011D01*
X139975500Y-103225500D01*
X139975500Y-102918386D01*
X139969086Y-102847807D01*
X139969086Y-102847804D01*
X139918478Y-102685394D01*
X139830472Y-102539815D01*
X139830470Y-102539813D01*
X139830469Y-102539811D01*
X139710188Y-102419530D01*
X139660348Y-102389400D01*
X139613162Y-102337871D01*
X139600500Y-102283284D01*
X139600500Y-98599500D01*
X139620185Y-98532461D01*
X139672989Y-98486706D01*
X139724500Y-98475500D01*
X140081613Y-98475500D01*
X140081616Y-98475500D01*
X140152196Y-98469086D01*
X140238612Y-98442157D01*
X140308471Y-98441008D01*
X140367863Y-98477809D01*
X140397931Y-98540878D01*
X140399500Y-98560544D01*
X140399500Y-99220234D01*
X140379815Y-99287273D01*
X140378602Y-99289125D01*
X140290609Y-99420814D01*
X140290602Y-99420827D01*
X140230264Y-99566498D01*
X140230261Y-99566510D01*
X140199500Y-99721153D01*
X140199500Y-99878846D01*
X140230261Y-100033489D01*
X140230264Y-100033501D01*
X140290602Y-100179172D01*
X140290609Y-100179185D01*
X140378210Y-100310288D01*
X140378213Y-100310292D01*
X140489707Y-100421786D01*
X140489711Y-100421789D01*
X140620814Y-100509390D01*
X140620827Y-100509397D01*
X140730082Y-100554651D01*
X140766503Y-100569737D01*
X140821831Y-100580742D01*
X140883740Y-100613126D01*
X140918315Y-100673841D01*
X140919256Y-100678166D01*
X140930261Y-100733492D01*
X140930264Y-100733501D01*
X140990602Y-100879172D01*
X140990609Y-100879185D01*
X141078210Y-101010288D01*
X141078213Y-101010292D01*
X141189707Y-101121786D01*
X141189711Y-101121789D01*
X141320814Y-101209390D01*
X141320827Y-101209397D01*
X141436436Y-101257283D01*
X141466503Y-101269737D01*
X141566426Y-101289613D01*
X141621153Y-101300499D01*
X141621156Y-101300500D01*
X141621158Y-101300500D01*
X141778844Y-101300500D01*
X141778845Y-101300499D01*
X141933497Y-101269737D01*
X142079179Y-101209394D01*
X142210289Y-101121789D01*
X142321789Y-101010289D01*
X142409394Y-100879179D01*
X142469737Y-100733497D01*
X142500500Y-100578842D01*
X142500500Y-100421158D01*
X142500500Y-100421155D01*
X142500499Y-100421153D01*
X142490836Y-100372575D01*
X142469737Y-100266503D01*
X142440007Y-100194727D01*
X142409397Y-100120827D01*
X142409390Y-100120814D01*
X142321398Y-99989125D01*
X142300520Y-99922447D01*
X142300500Y-99920234D01*
X142300500Y-99348322D01*
X143525001Y-99348322D01*
X143535144Y-99447607D01*
X143588452Y-99608481D01*
X143588457Y-99608492D01*
X143677424Y-99752728D01*
X143677427Y-99752732D01*
X143797267Y-99872572D01*
X143797271Y-99872575D01*
X143941507Y-99961542D01*
X143941518Y-99961547D01*
X144102393Y-100014855D01*
X144201683Y-100024999D01*
X144750000Y-100024999D01*
X144798308Y-100024999D01*
X144798322Y-100024998D01*
X144897607Y-100014855D01*
X145058481Y-99961547D01*
X145058492Y-99961542D01*
X145202728Y-99872575D01*
X145202732Y-99872572D01*
X145322572Y-99752732D01*
X145322575Y-99752728D01*
X145411542Y-99608492D01*
X145411547Y-99608481D01*
X145464855Y-99447606D01*
X145474999Y-99348322D01*
X145475000Y-99348309D01*
X145475000Y-99325000D01*
X144750000Y-99325000D01*
X144750000Y-100024999D01*
X144201683Y-100024999D01*
X144249999Y-100024998D01*
X144250000Y-100024998D01*
X144250000Y-99325000D01*
X143525001Y-99325000D01*
X143525001Y-99348322D01*
X142300500Y-99348322D01*
X142300500Y-95504604D01*
X142309939Y-95457151D01*
X142319737Y-95433497D01*
X142350500Y-95278842D01*
X142350500Y-95121158D01*
X142350500Y-95121155D01*
X142350499Y-95121153D01*
X142336214Y-95049337D01*
X142319737Y-94966503D01*
X142312694Y-94949500D01*
X142259397Y-94820827D01*
X142259390Y-94820814D01*
X142171789Y-94689711D01*
X142171786Y-94689707D01*
X142060292Y-94578213D01*
X142060288Y-94578210D01*
X141929185Y-94490609D01*
X141929172Y-94490602D01*
X141783496Y-94430262D01*
X141780531Y-94429363D01*
X141779167Y-94428469D01*
X141777870Y-94427932D01*
X141777971Y-94427685D01*
X141722093Y-94391065D01*
X141693636Y-94327253D01*
X141704197Y-94258186D01*
X141728843Y-94223025D01*
X141826882Y-94124986D01*
X144450001Y-94124986D01*
X144460494Y-94227697D01*
X144515641Y-94394119D01*
X144515643Y-94394124D01*
X144607684Y-94543345D01*
X144731654Y-94667315D01*
X144880875Y-94759356D01*
X144880880Y-94759358D01*
X145047302Y-94814505D01*
X145047309Y-94814506D01*
X145150019Y-94824999D01*
X145199999Y-94824998D01*
X145200000Y-94824998D01*
X145200000Y-93850000D01*
X144450001Y-93850000D01*
X144450001Y-94124986D01*
X141826882Y-94124986D01*
X142876854Y-93075013D01*
X144450000Y-93075013D01*
X144450000Y-93350000D01*
X145200000Y-93350000D01*
X145200000Y-92375000D01*
X145199999Y-92374999D01*
X145150029Y-92375000D01*
X145150011Y-92375001D01*
X145047302Y-92385494D01*
X144880880Y-92440641D01*
X144880875Y-92440643D01*
X144731654Y-92532684D01*
X144607684Y-92656654D01*
X144515643Y-92805875D01*
X144515641Y-92805880D01*
X144460494Y-92972302D01*
X144460493Y-92972309D01*
X144450000Y-93075013D01*
X142876854Y-93075013D01*
X143128506Y-92823361D01*
X143128511Y-92823358D01*
X143138714Y-92813154D01*
X143138716Y-92813154D01*
X143250520Y-92701350D01*
X143313204Y-92592777D01*
X143329577Y-92564419D01*
X143370501Y-92411691D01*
X143370501Y-92253577D01*
X143370501Y-92245982D01*
X143370500Y-92245964D01*
X143370500Y-90999986D01*
X143875001Y-90999986D01*
X143885494Y-91102697D01*
X143940641Y-91269119D01*
X143940643Y-91269124D01*
X144032684Y-91418345D01*
X144156654Y-91542315D01*
X144305875Y-91634356D01*
X144305880Y-91634358D01*
X144472302Y-91689505D01*
X144472309Y-91689506D01*
X144575019Y-91699999D01*
X144637499Y-91699998D01*
X144637500Y-91699998D01*
X144637500Y-90750000D01*
X143875001Y-90750000D01*
X143875001Y-90999986D01*
X143370500Y-90999986D01*
X143370500Y-90000013D01*
X143875000Y-90000013D01*
X143875000Y-90250000D01*
X144637500Y-90250000D01*
X144637500Y-89300000D01*
X144637499Y-89299999D01*
X144575028Y-89300000D01*
X144575011Y-89300001D01*
X144472302Y-89310494D01*
X144305880Y-89365641D01*
X144305875Y-89365643D01*
X144156654Y-89457684D01*
X144032684Y-89581654D01*
X143940643Y-89730875D01*
X143940641Y-89730880D01*
X143885494Y-89897302D01*
X143885493Y-89897309D01*
X143875000Y-90000013D01*
X143370500Y-90000013D01*
X143370500Y-89824067D01*
X143390185Y-89757028D01*
X143438205Y-89713582D01*
X143556433Y-89653343D01*
X143747510Y-89514517D01*
X143914517Y-89347510D01*
X144053343Y-89156433D01*
X144160568Y-88945992D01*
X144233553Y-88721368D01*
X144237932Y-88693721D01*
X144270500Y-88488097D01*
X144270500Y-88251902D01*
X144233553Y-88018631D01*
X144160566Y-87794003D01*
X144053342Y-87583566D01*
X143914517Y-87392490D01*
X143747510Y-87225483D01*
X143688282Y-87182451D01*
X143645617Y-87127122D01*
X143637550Y-87072404D01*
X143639104Y-87052657D01*
X142899408Y-86312962D01*
X142962993Y-86295925D01*
X143077007Y-86230099D01*
X143170099Y-86137007D01*
X143235925Y-86022993D01*
X143252962Y-85959408D01*
X143992658Y-86699105D01*
X143992658Y-86699104D01*
X144052914Y-86616169D01*
X144052918Y-86616163D01*
X144160102Y-86405802D01*
X144233065Y-86181247D01*
X144270000Y-85948052D01*
X144270000Y-85945374D01*
X144270288Y-85944392D01*
X144270383Y-85943190D01*
X144270635Y-85943209D01*
X144276238Y-85924128D01*
X144277818Y-85902040D01*
X144285890Y-85891256D01*
X144289685Y-85878335D01*
X144306418Y-85863835D01*
X144319690Y-85846107D01*
X144332310Y-85841399D01*
X144342489Y-85832580D01*
X144364406Y-85829428D01*
X144385154Y-85821690D01*
X144398314Y-85824552D01*
G37*
%TD.AperFunction*%
%TA.AperFunction,Conductor*%
G36*
X150243039Y-96020185D02*
G01*
X150288794Y-96072989D01*
X150300000Y-96124500D01*
X150300000Y-96175000D01*
X150426000Y-96175000D01*
X150493039Y-96194685D01*
X150538794Y-96247489D01*
X150550000Y-96299000D01*
X150550000Y-97124999D01*
X150598308Y-97124999D01*
X150598322Y-97124998D01*
X150697607Y-97114855D01*
X150858487Y-97061545D01*
X150909999Y-97029771D01*
X150919042Y-97013569D01*
X150968902Y-96964623D01*
X151027320Y-96950000D01*
X153454999Y-96950000D01*
X153454999Y-96705028D01*
X153454998Y-96705013D01*
X153444505Y-96602302D01*
X153389358Y-96435880D01*
X153389354Y-96435871D01*
X153367162Y-96399892D01*
X153366294Y-96396723D01*
X153363969Y-96394405D01*
X153357139Y-96363262D01*
X153348722Y-96332500D01*
X153349705Y-96329365D01*
X153349002Y-96326157D01*
X153360095Y-96296262D01*
X153369645Y-96265836D01*
X153372167Y-96263730D01*
X153373310Y-96260652D01*
X153398799Y-96241503D01*
X153423287Y-96221067D01*
X153426546Y-96220659D01*
X153429173Y-96218687D01*
X153460973Y-96216359D01*
X153492618Y-96212406D01*
X153496557Y-96213754D01*
X153498856Y-96213586D01*
X153516204Y-96220477D01*
X153531945Y-96225864D01*
X153539096Y-96229753D01*
X153539815Y-96230472D01*
X153685394Y-96318478D01*
X153724823Y-96330764D01*
X153735533Y-96336589D01*
X153751989Y-96352990D01*
X153771326Y-96365872D01*
X153776272Y-96377192D01*
X153785021Y-96385912D01*
X153789997Y-96408604D01*
X153799301Y-96429897D01*
X153797878Y-96444541D01*
X153799988Y-96454160D01*
X153795865Y-96465270D01*
X153793995Y-96484524D01*
X153755001Y-96602200D01*
X153755000Y-96602204D01*
X153744500Y-96704983D01*
X153744500Y-97436690D01*
X153735855Y-97466130D01*
X153729332Y-97496117D01*
X153725577Y-97501132D01*
X153724815Y-97503729D01*
X153708181Y-97524371D01*
X153666681Y-97565871D01*
X153605358Y-97599356D01*
X153535666Y-97594372D01*
X153479733Y-97552500D01*
X153455316Y-97487036D01*
X153455000Y-97478190D01*
X153455000Y-97450000D01*
X152497500Y-97450000D01*
X152497500Y-98394999D01*
X152538192Y-98394999D01*
X152605231Y-98414684D01*
X152650986Y-98467488D01*
X152660930Y-98536646D01*
X152631905Y-98600202D01*
X152625873Y-98606680D01*
X151994725Y-99237828D01*
X151994722Y-99237832D01*
X151956708Y-99294723D01*
X151956709Y-99294724D01*
X151923534Y-99344374D01*
X151874499Y-99462755D01*
X151874497Y-99462761D01*
X151849500Y-99588428D01*
X151849500Y-102475500D01*
X151829815Y-102542539D01*
X151777011Y-102588294D01*
X151725500Y-102599500D01*
X151449999Y-102599500D01*
X151449980Y-102599501D01*
X151347203Y-102610000D01*
X151347200Y-102610001D01*
X151180668Y-102665185D01*
X151180659Y-102665189D01*
X151065096Y-102736469D01*
X150997704Y-102754909D01*
X150934904Y-102736469D01*
X150819340Y-102665189D01*
X150819335Y-102665187D01*
X150819334Y-102665186D01*
X150652797Y-102610001D01*
X150652795Y-102610000D01*
X150550010Y-102599500D01*
X148449998Y-102599500D01*
X148449981Y-102599501D01*
X148347203Y-102610000D01*
X148347200Y-102610001D01*
X148263504Y-102637736D01*
X148193676Y-102640138D01*
X148133634Y-102604406D01*
X148102441Y-102541886D01*
X148100500Y-102520030D01*
X148100500Y-97694986D01*
X151040001Y-97694986D01*
X151050494Y-97797697D01*
X151105641Y-97964119D01*
X151105643Y-97964124D01*
X151197684Y-98113345D01*
X151321654Y-98237315D01*
X151470875Y-98329356D01*
X151470880Y-98329358D01*
X151637302Y-98384505D01*
X151637309Y-98384506D01*
X151740019Y-98394999D01*
X151997499Y-98394999D01*
X151997500Y-98394998D01*
X151997500Y-97450000D01*
X151040001Y-97450000D01*
X151040001Y-97694986D01*
X148100500Y-97694986D01*
X148100500Y-97467478D01*
X148103826Y-97456148D01*
X148102667Y-97444400D01*
X148113489Y-97423241D01*
X148120185Y-97400439D01*
X148129911Y-97391134D01*
X148134484Y-97382195D01*
X148152242Y-97369773D01*
X148162157Y-97360289D01*
X148171866Y-97354641D01*
X148175390Y-97353618D01*
X148311420Y-97273170D01*
X148423170Y-97161420D01*
X148503618Y-97025390D01*
X148547709Y-96873627D01*
X148550500Y-96838163D01*
X148550499Y-96620363D01*
X148570183Y-96553324D01*
X148612499Y-96512976D01*
X148668716Y-96480520D01*
X148700914Y-96448322D01*
X149325001Y-96448322D01*
X149335144Y-96547607D01*
X149388452Y-96708481D01*
X149388457Y-96708492D01*
X149477424Y-96852728D01*
X149477427Y-96852732D01*
X149597267Y-96972572D01*
X149597271Y-96972575D01*
X149741507Y-97061542D01*
X149741518Y-97061547D01*
X149902393Y-97114855D01*
X150001683Y-97124999D01*
X150049999Y-97124998D01*
X150050000Y-97124998D01*
X150050000Y-96425000D01*
X149325001Y-96425000D01*
X149325001Y-96448322D01*
X148700914Y-96448322D01*
X148780520Y-96368716D01*
X148780520Y-96368714D01*
X148790723Y-96358512D01*
X148790727Y-96358506D01*
X149112417Y-96036816D01*
X149173739Y-96003334D01*
X149200097Y-96000500D01*
X150176000Y-96000500D01*
X150243039Y-96020185D01*
G37*
%TD.AperFunction*%
%TA.AperFunction,Conductor*%
G36*
X154370382Y-98777472D02*
G01*
X154395678Y-98779281D01*
X154403814Y-98785372D01*
X154413704Y-98787709D01*
X154431311Y-98805956D01*
X154451611Y-98821153D01*
X154456454Y-98832013D01*
X154462219Y-98837988D01*
X154473961Y-98871272D01*
X154500261Y-99003489D01*
X154500264Y-99003501D01*
X154560602Y-99149172D01*
X154560609Y-99149185D01*
X154648210Y-99280288D01*
X154648213Y-99280292D01*
X154759707Y-99391786D01*
X154759711Y-99391789D01*
X154890814Y-99479390D01*
X154890827Y-99479397D01*
X155036498Y-99539735D01*
X155036503Y-99539737D01*
X155171039Y-99566498D01*
X155191153Y-99570499D01*
X155191156Y-99570500D01*
X155191158Y-99570500D01*
X155348844Y-99570500D01*
X155348845Y-99570499D01*
X155503497Y-99539737D01*
X155649179Y-99479394D01*
X155674072Y-99462761D01*
X155780875Y-99391398D01*
X155847553Y-99370520D01*
X155849766Y-99370500D01*
X158076000Y-99370500D01*
X158143039Y-99390185D01*
X158188794Y-99442989D01*
X158200000Y-99494500D01*
X158200000Y-99575000D01*
X158326000Y-99575000D01*
X158393039Y-99594685D01*
X158438794Y-99647489D01*
X158450000Y-99699000D01*
X158450000Y-100524999D01*
X158467672Y-100542671D01*
X158474527Y-100544684D01*
X158520282Y-100597488D01*
X158530226Y-100666646D01*
X158517973Y-100705294D01*
X158473904Y-100791782D01*
X158408242Y-100993869D01*
X158408242Y-100993872D01*
X158375000Y-101203753D01*
X158375000Y-101416246D01*
X158408242Y-101626127D01*
X158408242Y-101626130D01*
X158444325Y-101737182D01*
X158446320Y-101807024D01*
X158410239Y-101866856D01*
X158347538Y-101897684D01*
X158326394Y-101899500D01*
X155086670Y-101899500D01*
X155086654Y-101899499D01*
X155079058Y-101899499D01*
X154920943Y-101899499D01*
X154844579Y-101919961D01*
X154768214Y-101940423D01*
X154768209Y-101940426D01*
X154631290Y-102019475D01*
X154631286Y-102019478D01*
X154485337Y-102165427D01*
X154424014Y-102198911D01*
X154421848Y-102199362D01*
X154266508Y-102230261D01*
X154266498Y-102230264D01*
X154120827Y-102290602D01*
X154120814Y-102290609D01*
X153989711Y-102378210D01*
X153989707Y-102378213D01*
X153878213Y-102489707D01*
X153878210Y-102489711D01*
X153824008Y-102570830D01*
X153770395Y-102615635D01*
X153701070Y-102624342D01*
X153681903Y-102619645D01*
X153652800Y-102610001D01*
X153550016Y-102599500D01*
X153550009Y-102599500D01*
X153274500Y-102599500D01*
X153207461Y-102579815D01*
X153161706Y-102527011D01*
X153150500Y-102475500D01*
X153150500Y-99973307D01*
X153170185Y-99906268D01*
X153186814Y-99885631D01*
X153224123Y-99848322D01*
X155725001Y-99848322D01*
X155735144Y-99947607D01*
X155788452Y-100108481D01*
X155788457Y-100108492D01*
X155877424Y-100252728D01*
X155877427Y-100252732D01*
X155997267Y-100372572D01*
X155997271Y-100372575D01*
X156141507Y-100461542D01*
X156141518Y-100461547D01*
X156302393Y-100514855D01*
X156401683Y-100524999D01*
X156950000Y-100524999D01*
X156998308Y-100524999D01*
X156998322Y-100524998D01*
X157097607Y-100514855D01*
X157258481Y-100461547D01*
X157258488Y-100461544D01*
X157384902Y-100383570D01*
X157452295Y-100365129D01*
X157515098Y-100383570D01*
X157641511Y-100461544D01*
X157641518Y-100461547D01*
X157802393Y-100514855D01*
X157901683Y-100524999D01*
X157949999Y-100524998D01*
X157950000Y-100524998D01*
X157950000Y-99825000D01*
X156950000Y-99825000D01*
X156950000Y-100524999D01*
X156401683Y-100524999D01*
X156449999Y-100524998D01*
X156450000Y-100524998D01*
X156450000Y-99825000D01*
X155725001Y-99825000D01*
X155725001Y-99848322D01*
X153224123Y-99848322D01*
X154264663Y-98807781D01*
X154273581Y-98802912D01*
X154279817Y-98794885D01*
X154303732Y-98786448D01*
X154325986Y-98774297D01*
X154336123Y-98775021D01*
X154345707Y-98771641D01*
X154370382Y-98777472D01*
G37*
%TD.AperFunction*%
%TA.AperFunction,Conductor*%
G36*
X164534075Y-100192993D02*
G01*
X164599901Y-100307007D01*
X164692993Y-100400099D01*
X164807007Y-100465925D01*
X164870589Y-100482962D01*
X164164899Y-101188651D01*
X164168539Y-101234898D01*
X164154174Y-101303275D01*
X164117807Y-101344943D01*
X164053440Y-101391709D01*
X164053431Y-101391716D01*
X163891715Y-101553432D01*
X163813664Y-101660860D01*
X163758333Y-101703525D01*
X163688720Y-101709504D01*
X163626925Y-101676898D01*
X163592568Y-101616059D01*
X163590873Y-101568576D01*
X163615000Y-101416246D01*
X163615000Y-101203753D01*
X163581757Y-100993872D01*
X163581757Y-100993869D01*
X163544624Y-100879584D01*
X163542629Y-100809743D01*
X163578710Y-100749910D01*
X163641411Y-100719082D01*
X163710825Y-100727047D01*
X163762873Y-100768380D01*
X163811347Y-100835098D01*
X163811347Y-100835099D01*
X164517037Y-100129409D01*
X164534075Y-100192993D01*
G37*
%TD.AperFunction*%
%TA.AperFunction,Conductor*%
G36*
X161799075Y-98962993D02*
G01*
X161864901Y-99077007D01*
X161957993Y-99170099D01*
X162072007Y-99235925D01*
X162135591Y-99252962D01*
X161534971Y-99853581D01*
X161613711Y-99970895D01*
X161614920Y-99974729D01*
X161617844Y-99977491D01*
X161625343Y-100007778D01*
X161634727Y-100037529D01*
X161633671Y-100041408D01*
X161634638Y-100045312D01*
X161624573Y-100074844D01*
X161616383Y-100104947D01*
X161613397Y-100107640D01*
X161612100Y-100111447D01*
X161567051Y-100150483D01*
X161557440Y-100155380D01*
X161503282Y-100194727D01*
X161503282Y-100194728D01*
X162135591Y-100827037D01*
X162072007Y-100844075D01*
X161957993Y-100909901D01*
X161864901Y-101002993D01*
X161799075Y-101117007D01*
X161782037Y-101180591D01*
X161149728Y-100548282D01*
X161149727Y-100548282D01*
X161110380Y-100602440D01*
X161105483Y-100612051D01*
X161057506Y-100662845D01*
X160989684Y-100679638D01*
X160923550Y-100657098D01*
X160884516Y-100612048D01*
X160879626Y-100602452D01*
X160840270Y-100548282D01*
X160840269Y-100548282D01*
X160207962Y-101180589D01*
X160190925Y-101117007D01*
X160125099Y-101002993D01*
X160032007Y-100909901D01*
X159917993Y-100844075D01*
X159854407Y-100827036D01*
X160486716Y-100194728D01*
X160432547Y-100155373D01*
X160432547Y-100155372D01*
X160423500Y-100150763D01*
X160372706Y-100102788D01*
X160355912Y-100034966D01*
X160378451Y-99968832D01*
X160423508Y-99929793D01*
X160432816Y-99925051D01*
X160538425Y-99848322D01*
X160604786Y-99800109D01*
X160604788Y-99800106D01*
X160604792Y-99800104D01*
X160755104Y-99649792D01*
X160755106Y-99649788D01*
X160755109Y-99649786D01*
X160835063Y-99539737D01*
X160880051Y-99477816D01*
X160884793Y-99468508D01*
X160932763Y-99417711D01*
X161000583Y-99400911D01*
X161066719Y-99423445D01*
X161105763Y-99468500D01*
X161110373Y-99477547D01*
X161149728Y-99531716D01*
X161782037Y-98899408D01*
X161799075Y-98962993D01*
G37*
%TD.AperFunction*%
%TA.AperFunction,Conductor*%
G36*
X163380270Y-99531717D02*
G01*
X163395383Y-99530527D01*
X163418307Y-99512850D01*
X163487920Y-99506869D01*
X163549716Y-99539473D01*
X163584075Y-99600311D01*
X163583882Y-99655036D01*
X163584028Y-99655060D01*
X163583878Y-99656002D01*
X163583874Y-99657340D01*
X163583265Y-99659877D01*
X163547500Y-99885686D01*
X163547500Y-100114313D01*
X163583265Y-100340124D01*
X163583265Y-100340125D01*
X163627912Y-100477534D01*
X163629907Y-100547375D01*
X163593827Y-100607208D01*
X163531126Y-100638036D01*
X163461711Y-100630071D01*
X163409663Y-100588737D01*
X163380271Y-100548282D01*
X163380269Y-100548282D01*
X162747962Y-101180589D01*
X162730925Y-101117007D01*
X162665099Y-101002993D01*
X162572007Y-100909901D01*
X162457993Y-100844075D01*
X162394409Y-100827037D01*
X163026716Y-100194728D01*
X162972550Y-100155375D01*
X162962954Y-100150486D01*
X162912157Y-100102512D01*
X162895361Y-100034692D01*
X162917897Y-99968556D01*
X162962954Y-99929514D01*
X162972554Y-99924622D01*
X163026716Y-99885270D01*
X163026717Y-99885270D01*
X162394408Y-99252962D01*
X162457993Y-99235925D01*
X162572007Y-99170099D01*
X162665099Y-99077007D01*
X162730925Y-98962993D01*
X162747962Y-98899408D01*
X163380270Y-99531717D01*
G37*
%TD.AperFunction*%
%TA.AperFunction,Conductor*%
G36*
X163734835Y-98260947D02*
G01*
X163786883Y-98302279D01*
X163891714Y-98446566D01*
X164053434Y-98608286D01*
X164053437Y-98608288D01*
X164117806Y-98655055D01*
X164160472Y-98710385D01*
X164168539Y-98765101D01*
X164164899Y-98811347D01*
X164870590Y-99517037D01*
X164807007Y-99534075D01*
X164692993Y-99599901D01*
X164599901Y-99692993D01*
X164534075Y-99807007D01*
X164517037Y-99870590D01*
X163811347Y-99164899D01*
X163811346Y-99164900D01*
X163805390Y-99173098D01*
X163750060Y-99215763D01*
X163680446Y-99221742D01*
X163618651Y-99189136D01*
X163584294Y-99128297D01*
X163582599Y-99080814D01*
X163615000Y-98876245D01*
X163615000Y-98663753D01*
X163581757Y-98453872D01*
X163581757Y-98453869D01*
X163568635Y-98413484D01*
X163566640Y-98343643D01*
X163602720Y-98283810D01*
X163665421Y-98252982D01*
X163734835Y-98260947D01*
G37*
%TD.AperFunction*%
%TA.AperFunction,Conductor*%
G36*
X161799075Y-96422993D02*
G01*
X161864901Y-96537007D01*
X161957993Y-96630099D01*
X162072007Y-96695925D01*
X162135591Y-96712962D01*
X161534971Y-97313581D01*
X161613711Y-97430895D01*
X161614920Y-97434729D01*
X161617844Y-97437491D01*
X161625343Y-97467778D01*
X161634727Y-97497529D01*
X161633671Y-97501408D01*
X161634638Y-97505312D01*
X161624573Y-97534844D01*
X161616383Y-97564947D01*
X161613397Y-97567640D01*
X161612100Y-97571447D01*
X161567051Y-97610483D01*
X161557440Y-97615380D01*
X161503282Y-97654727D01*
X161503282Y-97654728D01*
X162135591Y-98287037D01*
X162072007Y-98304075D01*
X161957993Y-98369901D01*
X161864901Y-98462993D01*
X161799075Y-98577007D01*
X161782037Y-98640591D01*
X161149728Y-98008282D01*
X161149727Y-98008282D01*
X161110380Y-98062440D01*
X161110376Y-98062446D01*
X161105760Y-98071505D01*
X161057781Y-98122297D01*
X160989959Y-98139087D01*
X160923826Y-98116543D01*
X160884794Y-98071493D01*
X160880051Y-98062184D01*
X160880049Y-98062181D01*
X160880048Y-98062179D01*
X160755109Y-97890213D01*
X160604786Y-97739890D01*
X160432820Y-97614951D01*
X160431646Y-97614353D01*
X160424054Y-97610485D01*
X160373259Y-97562512D01*
X160356463Y-97494692D01*
X160378999Y-97428556D01*
X160424054Y-97389515D01*
X160432816Y-97385051D01*
X160476080Y-97353618D01*
X160604786Y-97260109D01*
X160604788Y-97260106D01*
X160604792Y-97260104D01*
X160755104Y-97109792D01*
X160755106Y-97109788D01*
X160755109Y-97109786D01*
X160825014Y-97013569D01*
X160880051Y-96937816D01*
X160884793Y-96928508D01*
X160932763Y-96877711D01*
X161000583Y-96860911D01*
X161066719Y-96883445D01*
X161105763Y-96928500D01*
X161110373Y-96937547D01*
X161149728Y-96991716D01*
X161782037Y-96359408D01*
X161799075Y-96422993D01*
G37*
%TD.AperFunction*%
%TA.AperFunction,Conductor*%
G36*
X163380269Y-96991716D02*
G01*
X163385197Y-96984935D01*
X163440527Y-96942269D01*
X163510140Y-96936290D01*
X163571936Y-96968895D01*
X163606293Y-97029734D01*
X163603447Y-97096137D01*
X163582779Y-97159746D01*
X163582778Y-97159753D01*
X163547000Y-97385646D01*
X163547000Y-97614353D01*
X163582778Y-97840246D01*
X163582778Y-97840249D01*
X163603447Y-97903860D01*
X163605442Y-97973701D01*
X163569362Y-98033534D01*
X163506661Y-98064362D01*
X163437246Y-98056397D01*
X163385198Y-98015063D01*
X163380271Y-98008282D01*
X163380269Y-98008282D01*
X162747962Y-98640590D01*
X162730925Y-98577007D01*
X162665099Y-98462993D01*
X162572007Y-98369901D01*
X162457993Y-98304075D01*
X162394409Y-98287037D01*
X163026716Y-97654728D01*
X162972550Y-97615375D01*
X162962954Y-97610486D01*
X162912157Y-97562512D01*
X162895361Y-97494692D01*
X162917897Y-97428556D01*
X162962954Y-97389514D01*
X162972554Y-97384622D01*
X163026716Y-97345270D01*
X163026717Y-97345270D01*
X162394408Y-96712962D01*
X162457993Y-96695925D01*
X162572007Y-96630099D01*
X162665099Y-96537007D01*
X162730925Y-96422993D01*
X162747962Y-96359408D01*
X163380269Y-96991716D01*
G37*
%TD.AperFunction*%
%TA.AperFunction,Conductor*%
G36*
X153602882Y-83388688D02*
G01*
X154270473Y-83545704D01*
X154275958Y-83547129D01*
X155025790Y-83760475D01*
X155031263Y-83762169D01*
X155770453Y-84009920D01*
X155775790Y-84011847D01*
X156230496Y-84188001D01*
X156502773Y-84293482D01*
X156508036Y-84295662D01*
X157221251Y-84610577D01*
X157226349Y-84612970D01*
X157605262Y-84801647D01*
X157924233Y-84960476D01*
X157929300Y-84963147D01*
X158056901Y-85034220D01*
X158610357Y-85342493D01*
X158615272Y-85345381D01*
X159278121Y-85755799D01*
X159282878Y-85758899D01*
X159926061Y-86199489D01*
X159930691Y-86202821D01*
X160552818Y-86672629D01*
X160557303Y-86676182D01*
X161157054Y-87174209D01*
X161161373Y-87177967D01*
X161434688Y-87427127D01*
X161737491Y-87703169D01*
X161741634Y-87707125D01*
X162292874Y-88258365D01*
X162296830Y-88262508D01*
X162822030Y-88838624D01*
X162825790Y-88842945D01*
X163323813Y-89442691D01*
X163327370Y-89447181D01*
X163797171Y-90069298D01*
X163800515Y-90073946D01*
X164094951Y-90503770D01*
X164241086Y-90717100D01*
X164244206Y-90721889D01*
X164451877Y-91057288D01*
X164654611Y-91384715D01*
X164657513Y-91389654D01*
X165036852Y-92070699D01*
X165039523Y-92075766D01*
X165253394Y-92505276D01*
X165379024Y-92757575D01*
X165387016Y-92773624D01*
X165389431Y-92778767D01*
X165703740Y-93490609D01*
X165704325Y-93491934D01*
X165706517Y-93497226D01*
X165988143Y-94224184D01*
X165990088Y-94229572D01*
X166237830Y-94968737D01*
X166239524Y-94974209D01*
X166452862Y-95724012D01*
X166454302Y-95729556D01*
X166632783Y-96488413D01*
X166633966Y-96494018D01*
X166777217Y-97260340D01*
X166778139Y-97265994D01*
X166885842Y-98038090D01*
X166886502Y-98043780D01*
X166897991Y-98167771D01*
X166884576Y-98236341D01*
X166836219Y-98286773D01*
X166768273Y-98303055D01*
X166702310Y-98280017D01*
X166686839Y-98266893D01*
X166432443Y-98012497D01*
X166398958Y-97951174D01*
X166402193Y-97886498D01*
X166417222Y-97840245D01*
X166453000Y-97614354D01*
X166453000Y-97385646D01*
X166417222Y-97159755D01*
X166417221Y-97159751D01*
X166417221Y-97159750D01*
X166346549Y-96942244D01*
X166297997Y-96846956D01*
X166242717Y-96738462D01*
X166108286Y-96553434D01*
X165946566Y-96391714D01*
X165761538Y-96257283D01*
X165714863Y-96233501D01*
X165557755Y-96153450D01*
X165340248Y-96082778D01*
X165170826Y-96055944D01*
X165114354Y-96047000D01*
X164885646Y-96047000D01*
X164810349Y-96058926D01*
X164659753Y-96082778D01*
X164659750Y-96082778D01*
X164442244Y-96153450D01*
X164238461Y-96257283D01*
X164143665Y-96326157D01*
X164053434Y-96391714D01*
X164053432Y-96391716D01*
X164053431Y-96391716D01*
X163891715Y-96553432D01*
X163786884Y-96697719D01*
X163731553Y-96740384D01*
X163661940Y-96746363D01*
X163600145Y-96713757D01*
X163565788Y-96652918D01*
X163568635Y-96586514D01*
X163581758Y-96546126D01*
X163615000Y-96336246D01*
X163615000Y-96123753D01*
X163581757Y-95913872D01*
X163581757Y-95913869D01*
X163516095Y-95711782D01*
X163419624Y-95522449D01*
X163380270Y-95468282D01*
X163380269Y-95468282D01*
X162747962Y-96100590D01*
X162730925Y-96037007D01*
X162665099Y-95922993D01*
X162572007Y-95829901D01*
X162457993Y-95764075D01*
X162394409Y-95747037D01*
X163026716Y-95114728D01*
X162972550Y-95075375D01*
X162962954Y-95070486D01*
X162912157Y-95022512D01*
X162895361Y-94954692D01*
X162917897Y-94888556D01*
X162962954Y-94849514D01*
X162972554Y-94844622D01*
X163026716Y-94805270D01*
X163026717Y-94805270D01*
X162394408Y-94172962D01*
X162457993Y-94155925D01*
X162572007Y-94090099D01*
X162665099Y-93997007D01*
X162730925Y-93882993D01*
X162747962Y-93819408D01*
X163380270Y-94451717D01*
X163380270Y-94451716D01*
X163419622Y-94397554D01*
X163516095Y-94208217D01*
X163581757Y-94006130D01*
X163581757Y-94006127D01*
X163615000Y-93796246D01*
X163615000Y-93583753D01*
X163581757Y-93373872D01*
X163581757Y-93373869D01*
X163516095Y-93171782D01*
X163419624Y-92982449D01*
X163380270Y-92928282D01*
X163380269Y-92928282D01*
X162747962Y-93560590D01*
X162730925Y-93497007D01*
X162665099Y-93382993D01*
X162572007Y-93289901D01*
X162457993Y-93224075D01*
X162394409Y-93207037D01*
X163026716Y-92574728D01*
X162972550Y-92535375D01*
X162783217Y-92438904D01*
X162581129Y-92373242D01*
X162371246Y-92340000D01*
X162158754Y-92340000D01*
X161948872Y-92373242D01*
X161948869Y-92373242D01*
X161746782Y-92438904D01*
X161557439Y-92535380D01*
X161503282Y-92574727D01*
X161503282Y-92574728D01*
X162135591Y-93207037D01*
X162072007Y-93224075D01*
X161957993Y-93289901D01*
X161864901Y-93382993D01*
X161799075Y-93497007D01*
X161782037Y-93560591D01*
X161112642Y-92891196D01*
X161079319Y-92830609D01*
X161040527Y-92657364D01*
X161018354Y-92597913D01*
X161018350Y-92597906D01*
X160932190Y-92482812D01*
X160932187Y-92482809D01*
X160817093Y-92396649D01*
X160817086Y-92396645D01*
X160682379Y-92346403D01*
X160682372Y-92346401D01*
X160622844Y-92340000D01*
X159975000Y-92340000D01*
X159975000Y-93256988D01*
X159917993Y-93224075D01*
X159790826Y-93190000D01*
X159659174Y-93190000D01*
X159532007Y-93224075D01*
X159475000Y-93256988D01*
X159475000Y-92340000D01*
X158827155Y-92340000D01*
X158767627Y-92346401D01*
X158767620Y-92346403D01*
X158632913Y-92396645D01*
X158632906Y-92396649D01*
X158517812Y-92482809D01*
X158517809Y-92482812D01*
X158431649Y-92597906D01*
X158431645Y-92597913D01*
X158381403Y-92732620D01*
X158381401Y-92732627D01*
X158375000Y-92792155D01*
X158375000Y-93440000D01*
X159291988Y-93440000D01*
X159259075Y-93497007D01*
X159225000Y-93624174D01*
X159225000Y-93755826D01*
X159259075Y-93882993D01*
X159291988Y-93940000D01*
X158375000Y-93940000D01*
X158375000Y-94587844D01*
X158382231Y-94655087D01*
X158380867Y-94655233D01*
X158377568Y-94716757D01*
X158336700Y-94773427D01*
X158271681Y-94799007D01*
X158260633Y-94799500D01*
X156716715Y-94799500D01*
X156706392Y-94796468D01*
X156695705Y-94797707D01*
X156673452Y-94786796D01*
X156649676Y-94779815D01*
X156640976Y-94770873D01*
X156632970Y-94766948D01*
X156610598Y-94739650D01*
X156589438Y-94704647D01*
X156571603Y-94637095D01*
X156590017Y-94575402D01*
X156662003Y-94458697D01*
X156715349Y-94297708D01*
X156725500Y-94198345D01*
X156725499Y-93601656D01*
X156715349Y-93502292D01*
X156662003Y-93341303D01*
X156661999Y-93341297D01*
X156661998Y-93341294D01*
X156630714Y-93290575D01*
X156612273Y-93223183D01*
X156633195Y-93156519D01*
X156648571Y-93137797D01*
X156676700Y-93109668D01*
X156767712Y-93018656D01*
X156859814Y-92869334D01*
X156914999Y-92702797D01*
X156925500Y-92600009D01*
X156925499Y-91599992D01*
X156921829Y-91564069D01*
X156914999Y-91497203D01*
X156914998Y-91497200D01*
X156904019Y-91464069D01*
X156859814Y-91330666D01*
X156767712Y-91181344D01*
X156643656Y-91057288D01*
X156621900Y-91043868D01*
X156575177Y-90991918D01*
X156563000Y-90938331D01*
X156563000Y-90448428D01*
X156538002Y-90322761D01*
X156538001Y-90322760D01*
X156538001Y-90322756D01*
X156488965Y-90204373D01*
X156480613Y-90191873D01*
X156480612Y-90191871D01*
X156480612Y-90191870D01*
X156417779Y-90097834D01*
X156417773Y-90097826D01*
X153727173Y-87407226D01*
X153705116Y-87392488D01*
X153620627Y-87336035D01*
X153569052Y-87314672D01*
X153502244Y-87286999D01*
X153502238Y-87286997D01*
X153376571Y-87262000D01*
X153376569Y-87262000D01*
X147739729Y-87262000D01*
X147672690Y-87242315D01*
X147626935Y-87189511D01*
X147616991Y-87120353D01*
X147617588Y-87116607D01*
X147619942Y-87103162D01*
X147625501Y-87089744D01*
X147650500Y-86964069D01*
X147650500Y-86928699D01*
X147652359Y-86918086D01*
X147656369Y-86909970D01*
X147658565Y-86898931D01*
X147658261Y-86898850D01*
X147659506Y-86894199D01*
X147659939Y-86892026D01*
X147660365Y-86890999D01*
X147675500Y-86776040D01*
X147675500Y-86198960D01*
X147660365Y-86084001D01*
X147601117Y-85940963D01*
X147601114Y-85940959D01*
X147598541Y-85936502D01*
X147582067Y-85868602D01*
X147604918Y-85802575D01*
X147659838Y-85759383D01*
X147705927Y-85750500D01*
X149037769Y-85750500D01*
X149104808Y-85770185D01*
X149125450Y-85786818D01*
X149231344Y-85892712D01*
X149380666Y-85984814D01*
X149547203Y-86039999D01*
X149649991Y-86050500D01*
X152750008Y-86050499D01*
X152852797Y-86039999D01*
X153019334Y-85984814D01*
X153168656Y-85892712D01*
X153292712Y-85768656D01*
X153384814Y-85619334D01*
X153439999Y-85452797D01*
X153450500Y-85350009D01*
X153450499Y-83509395D01*
X153470184Y-83442357D01*
X153522987Y-83396602D01*
X153592146Y-83386658D01*
X153602882Y-83388688D01*
G37*
%TD.AperFunction*%
%TA.AperFunction,Conductor*%
G36*
X161799075Y-93882993D02*
G01*
X161864901Y-93997007D01*
X161957993Y-94090099D01*
X162072007Y-94155925D01*
X162135591Y-94172962D01*
X161534971Y-94773581D01*
X161613711Y-94890895D01*
X161634727Y-94957529D01*
X161616383Y-95024947D01*
X161567051Y-95070483D01*
X161557440Y-95075380D01*
X161503282Y-95114727D01*
X161503282Y-95114728D01*
X162135591Y-95747037D01*
X162072007Y-95764075D01*
X161957993Y-95829901D01*
X161864901Y-95922993D01*
X161799075Y-96037007D01*
X161782037Y-96100591D01*
X161149728Y-95468282D01*
X161149727Y-95468282D01*
X161110380Y-95522440D01*
X161110376Y-95522446D01*
X161105760Y-95531505D01*
X161057781Y-95582297D01*
X160989959Y-95599087D01*
X160923826Y-95576543D01*
X160884794Y-95531493D01*
X160880051Y-95522184D01*
X160880049Y-95522181D01*
X160880048Y-95522179D01*
X160755109Y-95350213D01*
X160641181Y-95236285D01*
X160607696Y-95174962D01*
X160612680Y-95105270D01*
X160654552Y-95049337D01*
X160685529Y-95032422D01*
X160817086Y-94983354D01*
X160817093Y-94983350D01*
X160932187Y-94897190D01*
X160932190Y-94897187D01*
X161018350Y-94782093D01*
X161018354Y-94782086D01*
X161040529Y-94722632D01*
X161079319Y-94549390D01*
X161079682Y-94548734D01*
X161079642Y-94547984D01*
X161112642Y-94488802D01*
X161782037Y-93819408D01*
X161799075Y-93882993D01*
G37*
%TD.AperFunction*%
%TA.AperFunction,Conductor*%
G36*
X148935962Y-83055779D02*
G01*
X148984108Y-83106412D01*
X148997236Y-83175037D01*
X148991520Y-83202083D01*
X148960001Y-83297200D01*
X148960000Y-83297204D01*
X148949500Y-83399983D01*
X148949500Y-83399996D01*
X148949501Y-84325500D01*
X148929817Y-84392539D01*
X148877013Y-84438294D01*
X148825501Y-84449500D01*
X147674547Y-84449500D01*
X147607508Y-84429815D01*
X147577276Y-84402405D01*
X147572967Y-84396955D01*
X147550000Y-84373988D01*
X147453044Y-84277032D01*
X147453041Y-84277030D01*
X147453040Y-84277029D01*
X147308705Y-84188001D01*
X147308699Y-84187998D01*
X147308697Y-84187997D01*
X147308694Y-84187996D01*
X147147709Y-84134651D01*
X147048346Y-84124500D01*
X146501662Y-84124500D01*
X146501644Y-84124501D01*
X146402292Y-84134650D01*
X146402289Y-84134651D01*
X146241305Y-84187996D01*
X146241294Y-84188001D01*
X146096959Y-84277029D01*
X146096955Y-84277032D01*
X146087681Y-84286307D01*
X146026358Y-84319792D01*
X145956666Y-84314808D01*
X145912319Y-84286307D01*
X145903044Y-84277032D01*
X145903040Y-84277029D01*
X145758705Y-84188001D01*
X145758699Y-84187998D01*
X145758697Y-84187997D01*
X145758694Y-84187996D01*
X145597709Y-84134651D01*
X145498346Y-84124500D01*
X144951662Y-84124500D01*
X144951644Y-84124501D01*
X144852292Y-84134650D01*
X144852289Y-84134651D01*
X144691305Y-84187996D01*
X144691294Y-84188001D01*
X144546959Y-84277029D01*
X144546955Y-84277032D01*
X144427032Y-84396955D01*
X144427029Y-84396959D01*
X144338001Y-84541294D01*
X144337996Y-84541305D01*
X144284651Y-84702290D01*
X144274500Y-84801647D01*
X144274500Y-84967181D01*
X144254815Y-85034220D01*
X144202011Y-85079975D01*
X144132853Y-85089919D01*
X144069297Y-85060894D01*
X144050182Y-85040067D01*
X143992658Y-84960894D01*
X143992658Y-84960893D01*
X143252962Y-85700590D01*
X143235925Y-85637007D01*
X143170099Y-85522993D01*
X143077007Y-85429901D01*
X142962993Y-85364075D01*
X142899407Y-85347037D01*
X143639105Y-84607340D01*
X143639104Y-84607338D01*
X143556174Y-84547087D01*
X143495093Y-84515964D01*
X143444297Y-84467989D01*
X143427502Y-84400168D01*
X143450040Y-84334033D01*
X143504755Y-84290582D01*
X143506485Y-84289895D01*
X144224223Y-84011841D01*
X144229532Y-84009925D01*
X144968748Y-83762165D01*
X144974197Y-83760478D01*
X145724052Y-83547126D01*
X145729516Y-83545707D01*
X146488423Y-83367213D01*
X146494009Y-83366034D01*
X147260351Y-83222780D01*
X147265982Y-83221861D01*
X148038109Y-83114154D01*
X148043760Y-83113499D01*
X148820023Y-83041567D01*
X148825722Y-83041171D01*
X148868088Y-83039212D01*
X148935962Y-83055779D01*
G37*
%TD.AperFunction*%
%TD*%
M02*
