%TF.GenerationSoftware,KiCad,Pcbnew,9.0.5*%
%TF.CreationDate,2026-03-24T11:01:46-07:00*%
%TF.ProjectId,ESP32_PCB,45535033-325f-4504-9342-2e6b69636164,rev?*%
%TF.SameCoordinates,Original*%
%TF.FileFunction,Copper,L1,Top*%
%TF.FilePolarity,Positive*%
%FSLAX46Y46*%
G04 Gerber Fmt 4.6, Leading zero omitted, Abs format (unit mm)*
G04 Created by KiCad (PCBNEW 9.0.5) date 2026-03-24 11:01:46*
%MOMM*%
%LPD*%
G01*
G04 APERTURE LIST*
G04 Aperture macros list*
%AMRoundRect*
0 Rectangle with rounded corners*
0 $1 Rounding radius*
0 $2 $3 $4 $5 $6 $7 $8 $9 X,Y pos of 4 corners*
0 Add a 4 corners polygon primitive as box body*
4,1,4,$2,$3,$4,$5,$6,$7,$8,$9,$2,$3,0*
0 Add four circle primitives for the rounded corners*
1,1,$1+$1,$2,$3*
1,1,$1+$1,$4,$5*
1,1,$1+$1,$6,$7*
1,1,$1+$1,$8,$9*
0 Add four rect primitives between the rounded corners*
20,1,$1+$1,$2,$3,$4,$5,0*
20,1,$1+$1,$4,$5,$6,$7,0*
20,1,$1+$1,$6,$7,$8,$9,0*
20,1,$1+$1,$8,$9,$2,$3,0*%
%AMOutline5P*
0 Free polygon, 5 corners , with rotation*
0 The origin of the aperture is its center*
0 number of corners: always 5*
0 $1 to $10 corner X, Y*
0 $11 Rotation angle, in degrees counterclockwise*
0 create outline with 5 corners*
4,1,5,$1,$2,$3,$4,$5,$6,$7,$8,$9,$10,$1,$2,$11*%
%AMOutline6P*
0 Free polygon, 6 corners , with rotation*
0 The origin of the aperture is its center*
0 number of corners: always 6*
0 $1 to $12 corner X, Y*
0 $13 Rotation angle, in degrees counterclockwise*
0 create outline with 6 corners*
4,1,6,$1,$2,$3,$4,$5,$6,$7,$8,$9,$10,$11,$12,$1,$2,$13*%
%AMOutline7P*
0 Free polygon, 7 corners , with rotation*
0 The origin of the aperture is its center*
0 number of corners: always 7*
0 $1 to $14 corner X, Y*
0 $15 Rotation angle, in degrees counterclockwise*
0 create outline with 7 corners*
4,1,7,$1,$2,$3,$4,$5,$6,$7,$8,$9,$10,$11,$12,$13,$14,$1,$2,$15*%
%AMOutline8P*
0 Free polygon, 8 corners , with rotation*
0 The origin of the aperture is its center*
0 number of corners: always 8*
0 $1 to $16 corner X, Y*
0 $17 Rotation angle, in degrees counterclockwise*
0 create outline with 8 corners*
4,1,8,$1,$2,$3,$4,$5,$6,$7,$8,$9,$10,$11,$12,$13,$14,$15,$16,$1,$2,$17*%
G04 Aperture macros list end*
%TA.AperFunction,SMDPad,CuDef*%
%ADD10RoundRect,0.218750X0.256250X-0.218750X0.256250X0.218750X-0.256250X0.218750X-0.256250X-0.218750X0*%
%TD*%
%TA.AperFunction,ComponentPad*%
%ADD11C,2.000000*%
%TD*%
%TA.AperFunction,SMDPad,CuDef*%
%ADD12RoundRect,0.218750X-0.218750X-0.256250X0.218750X-0.256250X0.218750X0.256250X-0.218750X0.256250X0*%
%TD*%
%TA.AperFunction,SMDPad,CuDef*%
%ADD13RoundRect,0.200000X0.200000X0.275000X-0.200000X0.275000X-0.200000X-0.275000X0.200000X-0.275000X0*%
%TD*%
%TA.AperFunction,ComponentPad*%
%ADD14C,1.905000*%
%TD*%
%TA.AperFunction,SMDPad,CuDef*%
%ADD15RoundRect,0.200000X-0.275000X0.200000X-0.275000X-0.200000X0.275000X-0.200000X0.275000X0.200000X0*%
%TD*%
%TA.AperFunction,SMDPad,CuDef*%
%ADD16RoundRect,0.200000X0.275000X-0.200000X0.275000X0.200000X-0.275000X0.200000X-0.275000X-0.200000X0*%
%TD*%
%TA.AperFunction,SMDPad,CuDef*%
%ADD17R,0.406400X0.304800*%
%TD*%
%TA.AperFunction,SMDPad,CuDef*%
%ADD18R,0.304800X0.406400*%
%TD*%
%TA.AperFunction,ComponentPad*%
%ADD19R,1.700000X1.700000*%
%TD*%
%TA.AperFunction,ComponentPad*%
%ADD20C,1.700000*%
%TD*%
%TA.AperFunction,SMDPad,CuDef*%
%ADD21R,0.800000X0.400000*%
%TD*%
%TA.AperFunction,SMDPad,CuDef*%
%ADD22R,0.400000X0.800000*%
%TD*%
%TA.AperFunction,HeatsinkPad*%
%ADD23Outline5P,-0.600000X0.204000X-0.204000X0.600000X0.600000X0.600000X0.600000X-0.600000X-0.600000X-0.600000X0.000000*%
%TD*%
%TA.AperFunction,HeatsinkPad*%
%ADD24R,1.200000X1.200000*%
%TD*%
%TA.AperFunction,SMDPad,CuDef*%
%ADD25R,0.800000X0.800000*%
%TD*%
%TA.AperFunction,SMDPad,CuDef*%
%ADD26R,0.300000X0.700000*%
%TD*%
%TA.AperFunction,SMDPad,CuDef*%
%ADD27R,1.000000X0.700000*%
%TD*%
%TA.AperFunction,HeatsinkPad*%
%ADD28O,1.100000X2.100000*%
%TD*%
%TA.AperFunction,HeatsinkPad*%
%ADD29O,1.100000X2.600000*%
%TD*%
%TA.AperFunction,ViaPad*%
%ADD30C,0.600000*%
%TD*%
%TA.AperFunction,Conductor*%
%ADD31C,0.200000*%
%TD*%
G04 APERTURE END LIST*
D10*
%TO.P,D5,1,K*%
%TO.N,Net-(D5-K)*%
X140500000Y-97287500D03*
%TO.P,D5,2,A*%
%TO.N,+3V3*%
X140500000Y-95712500D03*
%TD*%
D11*
%TO.P,J5,1,Pin_1*%
%TO.N,/SPI_DO*%
X144670000Y-88670000D03*
%TO.P,J5,2,Pin_2*%
%TO.N,/SPI_SCK*%
X142130000Y-88670000D03*
%TO.P,J5,3,Pin_3*%
%TO.N,GNDREF*%
X144670000Y-86130000D03*
%TD*%
D12*
%TO.P,D4,2,A*%
%TO.N,Net-(D4-A)*%
X139787500Y-100500000D03*
%TO.P,D4,1,K*%
%TO.N,GNDREF*%
X138212500Y-100500000D03*
%TD*%
D13*
%TO.P,R10,2*%
%TO.N,Net-(D4-A)*%
X139675000Y-102000000D03*
%TO.P,R10,1*%
%TO.N,/Status_LED*%
X141325000Y-102000000D03*
%TD*%
D14*
%TO.P,J3,1,Pin_1*%
%TO.N,Net-(D3-A2)*%
X165000000Y-97500000D03*
%TO.P,J3,2,Pin_2*%
%TO.N,GNDREF*%
X165000000Y-100000000D03*
%TO.P,J3,3,Pin_3*%
%TO.N,/S2*%
X165000000Y-102500000D03*
%TD*%
D15*
%TO.P,R3,1*%
%TO.N,+3V3*%
X139000000Y-97425000D03*
%TO.P,R3,2*%
%TO.N,/SDA*%
X139000000Y-99075000D03*
%TD*%
D14*
%TO.P,J2,1,Pin_1*%
%TO.N,Net-(D2-A2)*%
X135000000Y-102500000D03*
%TO.P,J2,2,Pin_2*%
%TO.N,GNDREF*%
X135000000Y-100000000D03*
%TO.P,J2,3,Pin_3*%
%TO.N,/S1*%
X135000000Y-97500000D03*
%TD*%
D16*
%TO.P,R1,1*%
%TO.N,GNDREF*%
X143000000Y-110825000D03*
%TO.P,R1,2*%
%TO.N,Net-(J1-CC1)*%
X143000000Y-109175000D03*
%TD*%
D17*
%TO.P,U2,1,VDD_IO*%
%TO.N,+3V3*%
X137833500Y-107500001D03*
%TO.P,U2,2,NC*%
%TO.N,unconnected-(U2-NC-Pad2)*%
X137833500Y-106999999D03*
%TO.P,U2,3,NC*%
%TO.N,unconnected-(U2-NC-Pad3)*%
X137833500Y-106500000D03*
%TO.P,U2,4,SCL/SPC*%
%TO.N,/SCL*%
X137833500Y-106000001D03*
%TO.P,U2,5,GND*%
%TO.N,GNDREF*%
X137833500Y-105499999D03*
D18*
%TO.P,U2,6,SDA/SDI/SDO*%
%TO.N,/SDA*%
X136999999Y-105166500D03*
%TO.P,U2,7,SDO/SA0*%
%TO.N,/SA0*%
X136500000Y-105166500D03*
%TO.P,U2,8,CS*%
%TO.N,+3V3*%
X136000001Y-105166500D03*
D17*
%TO.P,U2,9,INT2*%
%TO.N,/INT2*%
X135166500Y-105499999D03*
%TO.P,U2,10,RESERVED*%
%TO.N,GNDREF*%
X135166500Y-106000001D03*
%TO.P,U2,11,INT1*%
%TO.N,/INT1*%
X135166500Y-106500000D03*
%TO.P,U2,12,GND*%
%TO.N,GNDREF*%
X135166500Y-106999999D03*
%TO.P,U2,13,GND*%
X135166500Y-107500001D03*
D18*
%TO.P,U2,14,VDD*%
%TO.N,+3V3*%
X136000001Y-107833500D03*
%TO.P,U2,15,RESERVED*%
X136500000Y-107833500D03*
%TO.P,U2,16,GND*%
%TO.N,GNDREF*%
X136999999Y-107833500D03*
%TD*%
D19*
%TO.P,J4,1,Pin_1*%
%TO.N,GNDREF*%
X159725000Y-93690000D03*
D20*
%TO.P,J4,2,Pin_2*%
X162265000Y-93690000D03*
%TO.P,J4,3,Pin_3*%
%TO.N,/EN*%
X159725000Y-96230000D03*
%TO.P,J4,4,Pin_4*%
%TO.N,GNDREF*%
X162265000Y-96230000D03*
%TO.P,J4,5,Pin_5*%
%TO.N,/BOOT*%
X159725000Y-98770000D03*
%TO.P,J4,6,Pin_6*%
%TO.N,GNDREF*%
X162265000Y-98770000D03*
%TO.P,J4,7,Pin_7*%
X159725000Y-101310000D03*
%TO.P,J4,8,Pin_8*%
X162265000Y-101310000D03*
%TD*%
D21*
%TO.P,U5,1,GND*%
%TO.N,GNDREF*%
X143000000Y-94050000D03*
%TO.P,U5,2,GND*%
X143000000Y-94900000D03*
%TO.P,U5,3,3V3*%
%TO.N,+3V3*%
X143000000Y-95750000D03*
%TO.P,U5,4,IO0*%
%TO.N,/BOOT*%
X143000000Y-96600000D03*
%TO.P,U5,5,IO1*%
%TO.N,unconnected-(U5-IO1-Pad5)*%
X143000000Y-97450000D03*
%TO.P,U5,6,IO2*%
%TO.N,/S1*%
X143000000Y-98300000D03*
%TO.P,U5,7,IO3*%
%TO.N,/S2*%
X143000000Y-99150000D03*
%TO.P,U5,8,IO4*%
%TO.N,unconnected-(U5-IO4-Pad8)*%
X143000000Y-100000000D03*
%TO.P,U5,9,IO5*%
%TO.N,unconnected-(U5-IO5-Pad9)*%
X143000000Y-100850000D03*
%TO.P,U5,10,IO6*%
%TO.N,unconnected-(U5-IO6-Pad10)*%
X143000000Y-101700000D03*
%TO.P,U5,11,IO7*%
%TO.N,unconnected-(U5-IO7-Pad11)*%
X143000000Y-102550000D03*
%TO.P,U5,12,IO8*%
%TO.N,/SDA*%
X143000000Y-103400000D03*
%TO.P,U5,13,IO9*%
%TO.N,/SCL*%
X143000000Y-104250000D03*
%TO.P,U5,14,IO10*%
%TO.N,/Status_LED*%
X143000000Y-105100000D03*
%TO.P,U5,15,IO11*%
%TO.N,/SPI_DO*%
X143000000Y-105950000D03*
D22*
%TO.P,U5,16,IO12*%
%TO.N,/SPI_SCK*%
X144050000Y-107000000D03*
%TO.P,U5,17,IO13*%
%TO.N,unconnected-(U5-IO13-Pad17)*%
X144900000Y-107000000D03*
%TO.P,U5,18,IO14*%
%TO.N,unconnected-(U5-IO14-Pad18)*%
X145750000Y-107000000D03*
%TO.P,U5,19,IO15*%
%TO.N,GNDREF*%
X146600000Y-107000000D03*
%TO.P,U5,20,IO16*%
X147450000Y-107000000D03*
%TO.P,U5,21,IO17*%
%TO.N,unconnected-(U5-IO17-Pad21)*%
X148300000Y-107000000D03*
%TO.P,U5,22,IO18*%
%TO.N,unconnected-(U5-IO18-Pad22)*%
X149150000Y-107000000D03*
%TO.P,U5,23,USB_D-*%
%TO.N,/USB_D-*%
X150000000Y-107000000D03*
%TO.P,U5,24,USB_D+*%
%TO.N,/USB_D+*%
X150850000Y-107000000D03*
%TO.P,U5,25,IO21*%
%TO.N,unconnected-(U5-IO21-Pad25)*%
X151700000Y-107000000D03*
%TO.P,U5,26,IO26*%
%TO.N,unconnected-(U5-IO26-Pad26)*%
X152550000Y-107000000D03*
%TO.P,U5,27,IO47*%
%TO.N,unconnected-(U5-IO47-Pad27)*%
X153400000Y-107000000D03*
%TO.P,U5,28,IO33*%
%TO.N,unconnected-(U5-IO33-Pad28)*%
X154250000Y-107000000D03*
%TO.P,U5,29,IO34*%
%TO.N,unconnected-(U5-IO34-Pad29)*%
X155100000Y-107000000D03*
%TO.P,U5,30,IO48*%
%TO.N,unconnected-(U5-IO48-Pad30)*%
X155950000Y-107000000D03*
D21*
%TO.P,U5,31,IO35*%
%TO.N,unconnected-(U5-IO35-Pad31)*%
X157000000Y-105950000D03*
%TO.P,U5,32,IO36*%
%TO.N,unconnected-(U5-IO36-Pad32)*%
X157000000Y-105100000D03*
%TO.P,U5,33,IO37*%
%TO.N,unconnected-(U5-IO37-Pad33)*%
X157000000Y-104250000D03*
%TO.P,U5,34,IO38*%
%TO.N,unconnected-(U5-IO38-Pad34)*%
X157000000Y-103400000D03*
%TO.P,U5,35,IO39*%
%TO.N,unconnected-(U5-IO39-Pad35)*%
X157000000Y-102550000D03*
%TO.P,U5,36,IO40*%
%TO.N,unconnected-(U5-IO40-Pad36)*%
X157000000Y-101700000D03*
%TO.P,U5,37,IO41*%
%TO.N,unconnected-(U5-IO41-Pad37)*%
X157000000Y-100850000D03*
%TO.P,U5,38,IO42*%
%TO.N,unconnected-(U5-IO42-Pad38)*%
X157000000Y-100000000D03*
%TO.P,U5,39,TXD0*%
%TO.N,unconnected-(U5-TXD0-Pad39)*%
X157000000Y-99150000D03*
%TO.P,U5,40,RXD0*%
%TO.N,unconnected-(U5-RXD0-Pad40)*%
X157000000Y-98300000D03*
%TO.P,U5,41,IO45*%
%TO.N,unconnected-(U5-IO45-Pad41)*%
X157000000Y-97450000D03*
%TO.P,U5,42,GND*%
%TO.N,GNDREF*%
X157000000Y-96600000D03*
%TO.P,U5,43,GND*%
X157000000Y-95750000D03*
%TO.P,U5,44,IO46*%
%TO.N,unconnected-(U5-IO46-Pad44)*%
X157000000Y-94900000D03*
%TO.P,U5,45,EN*%
%TO.N,/EN*%
X157000000Y-94050000D03*
D22*
%TO.P,U5,46,GND*%
%TO.N,GNDREF*%
X155950000Y-93000000D03*
%TO.P,U5,47,GND*%
X155100000Y-93000000D03*
%TO.P,U5,48,GND*%
X154250000Y-93000000D03*
%TO.P,U5,49,GND*%
X153400000Y-93000000D03*
%TO.P,U5,50,GND*%
X152550000Y-93000000D03*
%TO.P,U5,51,GND*%
X151700000Y-93000000D03*
%TO.P,U5,52,GND*%
X150850000Y-93000000D03*
%TO.P,U5,53,GND*%
X150000000Y-93000000D03*
%TO.P,U5,54,GND*%
X149150000Y-93000000D03*
%TO.P,U5,55,GND*%
X148300000Y-93000000D03*
%TO.P,U5,56,GND*%
X147450000Y-93000000D03*
%TO.P,U5,57,GND*%
X146600000Y-93000000D03*
%TO.P,U5,58,GND*%
X145750000Y-93000000D03*
%TO.P,U5,59,GND*%
X144900000Y-93000000D03*
%TO.P,U5,60,GND*%
X144050000Y-93000000D03*
D23*
%TO.P,U5,61,GND*%
X148350000Y-98350000D03*
D24*
X148350000Y-100000000D03*
X148350000Y-101650000D03*
X150000000Y-98350000D03*
X150000000Y-100000000D03*
X150000000Y-101650000D03*
X151650000Y-98350000D03*
X151650000Y-100000000D03*
X151650000Y-101650000D03*
D25*
%TO.P,U5,62,GND*%
X143000000Y-93000000D03*
%TO.P,U5,63,GND*%
X143000000Y-107000000D03*
%TO.P,U5,64,GND*%
X157000000Y-107000000D03*
%TO.P,U5,65,GND*%
X157000000Y-93000000D03*
%TD*%
D15*
%TO.P,R2,1*%
%TO.N,GNDREF*%
X156500000Y-109175000D03*
%TO.P,R2,2*%
%TO.N,Net-(J1-CC2)*%
X156500000Y-110825000D03*
%TD*%
D26*
%TO.P,J1,A1,GND*%
%TO.N,GNDREF*%
X147000000Y-109785000D03*
%TO.P,J1,A2,TX1+*%
%TO.N,unconnected-(J1-TX1+-PadA2)*%
X147500000Y-109785000D03*
%TO.P,J1,A3,TX1-*%
%TO.N,unconnected-(J1-TX1--PadA3)*%
X148000000Y-109785000D03*
%TO.P,J1,A4,VBUS*%
%TO.N,Net-(U3-EN)*%
X148500000Y-109785000D03*
%TO.P,J1,A5,CC1*%
%TO.N,Net-(J1-CC1)*%
X149000000Y-109785000D03*
%TO.P,J1,A6,D+*%
%TO.N,/USB_D+*%
X149500000Y-109785000D03*
%TO.P,J1,A7,D-*%
%TO.N,/USB_D-*%
X150500000Y-109785000D03*
%TO.P,J1,A8,SBU1*%
%TO.N,unconnected-(J1-SBU1-PadA8)*%
X151000000Y-109785000D03*
%TO.P,J1,A9,VBUS*%
%TO.N,Net-(U3-EN)*%
X151500000Y-109785000D03*
%TO.P,J1,A10,RX2-*%
%TO.N,unconnected-(J1-RX2--PadA10)*%
X152000000Y-109785000D03*
%TO.P,J1,A11,RX2+*%
%TO.N,unconnected-(J1-RX2+-PadA11)*%
X152500000Y-109785000D03*
%TO.P,J1,A12,GND*%
%TO.N,GNDREF*%
X153000000Y-109785000D03*
D27*
%TO.P,J1,B1,GND*%
X153100000Y-111085000D03*
D26*
%TO.P,J1,B2,TX2+*%
%TO.N,unconnected-(J1-TX2+-PadB2)*%
X152250000Y-111085000D03*
%TO.P,J1,B3,TX2-*%
%TO.N,unconnected-(J1-TX2--PadB3)*%
X151750000Y-111085000D03*
%TO.P,J1,B4,VBUS*%
%TO.N,Net-(U3-EN)*%
X151250000Y-111085000D03*
%TO.P,J1,B5,CC2*%
%TO.N,Net-(J1-CC2)*%
X150750000Y-111085000D03*
%TO.P,J1,B6,D+*%
%TO.N,/USB_D+*%
X150250000Y-111085000D03*
%TO.P,J1,B7,D-*%
%TO.N,/USB_D-*%
X149750000Y-111085000D03*
%TO.P,J1,B8,SBU2*%
%TO.N,unconnected-(J1-SBU2-PadB8)*%
X149250000Y-111085000D03*
%TO.P,J1,B9,VBUS*%
%TO.N,Net-(U3-EN)*%
X148750000Y-111085000D03*
%TO.P,J1,B10,RX1-*%
%TO.N,unconnected-(J1-RX1--PadB10)*%
X148250000Y-111085000D03*
%TO.P,J1,B11,RX1+*%
%TO.N,unconnected-(J1-RX1+-PadB11)*%
X147750000Y-111085000D03*
D27*
%TO.P,J1,B12,GND*%
%TO.N,GNDREF*%
X146900000Y-111085000D03*
D28*
%TO.P,J1,S1,SHIELD*%
%TO.N,unconnected-(J1-SHIELD-PadS1)_1*%
X145680000Y-110195000D03*
D29*
%TO.N,unconnected-(J1-SHIELD-PadS1)_3*%
X145680000Y-115555000D03*
D28*
%TO.N,unconnected-(J1-SHIELD-PadS1)*%
X154320000Y-110195000D03*
D29*
%TO.N,unconnected-(J1-SHIELD-PadS1)_2*%
X154320000Y-115555000D03*
%TD*%
D16*
%TO.P,R6,1*%
%TO.N,/SA0*%
X137500000Y-99075000D03*
%TO.P,R6,2*%
%TO.N,+3V3*%
X137500000Y-97425000D03*
%TD*%
D30*
%TO.N,/SPI_SCK*%
X141550000Y-95200000D03*
%TO.N,Net-(D5-K)*%
X140450000Y-96600000D03*
%TO.N,GNDREF*%
X150000000Y-97500000D03*
X144500000Y-106000000D03*
X145500000Y-106000000D03*
X146500000Y-106000000D03*
X137200000Y-100500000D03*
%TO.N,/SPI_DO*%
X141000000Y-99800000D03*
%TO.N,/SPI_SCK*%
X141700000Y-100500000D03*
%TO.N,/Status_LED*%
X140800000Y-104600000D03*
X141240313Y-105701000D03*
%TO.N,/SPI_DO*%
X140000000Y-104600000D03*
%TO.N,/SPI_SCK*%
X141672183Y-104599999D03*
X141500000Y-108000000D03*
%TO.N,/SPI_DO*%
X141389910Y-106628414D03*
%TO.N,+3V3*%
X139000000Y-95750000D03*
%TO.N,GNDREF*%
X155000000Y-100500000D03*
X151650000Y-99175000D03*
X148350000Y-100825000D03*
X151650000Y-100825000D03*
X148350000Y-99175000D03*
X156000000Y-101500000D03*
X137000000Y-106000000D03*
X146500000Y-98000000D03*
X150000000Y-100825000D03*
X149175000Y-100000000D03*
X150825000Y-101650000D03*
X146500000Y-100000000D03*
X149175000Y-101650000D03*
X155000000Y-101500000D03*
X146500000Y-101000000D03*
X150825000Y-100000000D03*
X146500000Y-99000000D03*
X156000000Y-99500000D03*
X150825000Y-98350000D03*
X134000000Y-104500000D03*
X156000000Y-100500000D03*
X155000000Y-99500000D03*
X149175000Y-98350000D03*
X150000000Y-99175000D03*
%TO.N,Net-(U3-EN)*%
X151500000Y-108500000D03*
X155682183Y-113183465D03*
%TO.N,+3V3*%
X144000000Y-95500000D03*
X136000001Y-106000000D03*
%TO.N,/S2*%
X154500000Y-103000000D03*
%TO.N,/SCL*%
X139000000Y-106000001D03*
%TO.N,/USB_D+*%
X150000000Y-106000000D03*
X149500000Y-108500000D03*
X155754676Y-112436974D03*
%TO.N,/BOOT*%
X154674265Y-98174265D03*
%TD*%
D31*
%TO.N,/SPI_SCK*%
X141251000Y-94901000D02*
X137798366Y-94901000D01*
X141550000Y-95200000D02*
X141251000Y-94901000D01*
X137798366Y-94901000D02*
X136099000Y-93201634D01*
X136099000Y-93201634D02*
X136099000Y-90798366D01*
X136099000Y-90798366D02*
X138227366Y-88670000D01*
X138227366Y-88670000D02*
X142130000Y-88670000D01*
%TO.N,/Status_LED*%
X141325000Y-102000000D02*
X141325000Y-104075000D01*
X141325000Y-104075000D02*
X140800000Y-104600000D01*
%TO.N,Net-(D4-A)*%
X139675000Y-102000000D02*
X139675000Y-100612500D01*
X139675000Y-100612500D02*
X139787500Y-100500000D01*
%TO.N,/EN*%
X157000000Y-94050000D02*
X157545000Y-94050000D01*
X157545000Y-94050000D02*
X159725000Y-96230000D01*
%TO.N,Net-(D5-K)*%
X140500000Y-96650000D02*
X140450000Y-96600000D01*
X140500000Y-97287500D02*
X140500000Y-96650000D01*
%TO.N,/S1*%
X135800000Y-98300000D02*
X143000000Y-98300000D01*
%TO.N,GNDREF*%
X143000000Y-107000000D02*
X144000000Y-106000000D01*
X144000000Y-106000000D02*
X144500000Y-106000000D01*
X137000000Y-108287700D02*
X139712300Y-108287700D01*
X139712300Y-108287700D02*
X140820586Y-107179414D01*
X140820586Y-107179414D02*
X142820586Y-107179414D01*
X142820586Y-107179414D02*
X143000000Y-107000000D01*
X135596601Y-108287700D02*
X137000000Y-108287700D01*
X136999999Y-107833500D02*
X137000000Y-108287700D01*
X135596601Y-108287700D02*
X135166500Y-107857599D01*
X135166500Y-107857599D02*
X135166500Y-107500001D01*
X137200000Y-100500000D02*
X138212500Y-100500000D01*
%TO.N,/SPI_DO*%
X140400000Y-101300000D02*
X141000000Y-100700000D01*
X141000000Y-100700000D02*
X141000000Y-99800000D01*
%TO.N,/SPI_SCK*%
X141672183Y-104599999D02*
X141998000Y-104274182D01*
X141998000Y-104274182D02*
X141998000Y-100798000D01*
X141998000Y-100798000D02*
X141700000Y-100500000D01*
%TO.N,/SDA*%
X139000000Y-99075000D02*
X141775000Y-99075000D01*
X141775000Y-99075000D02*
X142349000Y-99649000D01*
X142349000Y-99649000D02*
X142349000Y-102949000D01*
X142349000Y-102949000D02*
X142800000Y-103400000D01*
X142800000Y-103400000D02*
X143000000Y-103400000D01*
%TO.N,/SPI_DO*%
X140000000Y-104600000D02*
X140000000Y-103700000D01*
X140000000Y-103700000D02*
X140400000Y-103300000D01*
X140400000Y-103300000D02*
X140400000Y-101300000D01*
%TO.N,/Status_LED*%
X141439313Y-105502000D02*
X141240313Y-105701000D01*
X143000000Y-105100000D02*
X142900000Y-105100000D01*
X142498000Y-105502000D02*
X141439313Y-105502000D01*
X142900000Y-105100000D02*
X142498000Y-105502000D01*
%TO.N,/SCL*%
X139849001Y-105151000D02*
X141899000Y-105151000D01*
X141899000Y-105151000D02*
X142800000Y-104250000D01*
X142800000Y-104250000D02*
X143000000Y-104250000D01*
%TO.N,/SPI_DO*%
X141389910Y-106628414D02*
X142068324Y-105950000D01*
X142068324Y-105950000D02*
X143000000Y-105950000D01*
%TO.N,/SCL*%
X139000000Y-106000001D02*
X139849001Y-105151000D01*
%TO.N,/SPI_SCK*%
X144050000Y-107000000D02*
X144050000Y-107252000D01*
X144050000Y-107252000D02*
X143302000Y-108000000D01*
X143302000Y-108000000D02*
X141500000Y-108000000D01*
%TO.N,/SDA*%
X139000000Y-99075000D02*
X139000000Y-100000000D01*
%TO.N,GNDREF*%
X134708899Y-106999999D02*
X134662300Y-106953400D01*
X147000000Y-109785000D02*
X147000000Y-110985000D01*
X135166500Y-107500001D02*
X135166500Y-106999999D01*
X134000000Y-104500000D02*
X134000000Y-105337700D01*
X153100000Y-109885000D02*
X153000000Y-109785000D01*
X137500001Y-105499999D02*
X137000000Y-106000000D01*
X153100000Y-111085000D02*
X153100000Y-109885000D01*
X153941000Y-108844000D02*
X156169000Y-108844000D01*
X153000000Y-109785000D02*
X153941000Y-108844000D01*
X137833500Y-105499999D02*
X137500001Y-105499999D01*
X134000000Y-105337700D02*
X134662300Y-106000000D01*
X135166500Y-106000001D02*
X134662300Y-106000000D01*
X156169000Y-108844000D02*
X156500000Y-109175000D01*
X135166500Y-106999999D02*
X134708899Y-106999999D01*
X134662300Y-106953400D02*
X134662300Y-106000000D01*
%TO.N,Net-(U3-EN)*%
X151500000Y-109785000D02*
X151500000Y-110335000D01*
X149800000Y-112800000D02*
X148750000Y-111750000D01*
X151500000Y-109785000D02*
X151500000Y-108500000D01*
X155682183Y-113183465D02*
X155383465Y-113183465D01*
X148750000Y-111750000D02*
X148750000Y-111085000D01*
X151250000Y-110585000D02*
X151250000Y-111085000D01*
X148750000Y-110483000D02*
X148500000Y-110233000D01*
X151500000Y-110335000D02*
X151250000Y-110585000D01*
X148750000Y-111085000D02*
X148750000Y-110483000D01*
X155682183Y-113183465D02*
X155664835Y-113166117D01*
X155000000Y-112800000D02*
X149800000Y-112800000D01*
X155383465Y-113183465D02*
X155000000Y-112800000D01*
X148500000Y-110233000D02*
X148500000Y-109785000D01*
X155664835Y-113166117D02*
X155400000Y-113166117D01*
%TO.N,+3V3*%
X137833500Y-107500001D02*
X137500001Y-107500001D01*
X139000000Y-97425000D02*
X139000000Y-95750000D01*
X136875000Y-106875000D02*
X136000001Y-106000001D01*
X143000000Y-95750000D02*
X143750000Y-95750000D01*
X133746500Y-103265399D02*
X135647601Y-105166500D01*
X133746500Y-96367142D02*
X133746500Y-103265399D01*
X136500000Y-107250000D02*
X136875000Y-106875000D01*
X137500000Y-97425000D02*
X137500000Y-95750000D01*
X136000001Y-106000001D02*
X136000001Y-106000000D01*
X137500001Y-107500001D02*
X137125000Y-107125000D01*
X143000000Y-95750000D02*
X139000000Y-95750000D01*
X137500000Y-95750000D02*
X134363642Y-95750000D01*
X135647601Y-105166500D02*
X136000001Y-105166500D01*
X134363642Y-95750000D02*
X133746500Y-96367142D01*
X136000001Y-107833500D02*
X136500000Y-107833500D01*
X136500000Y-107833500D02*
X136500000Y-107250000D01*
X143750000Y-95750000D02*
X144000000Y-95500000D01*
X136000001Y-106000000D02*
X136000001Y-105166500D01*
X139000000Y-95750000D02*
X137500000Y-95750000D01*
X137125000Y-107125000D02*
X136875000Y-106875000D01*
%TO.N,Net-(J1-CC1)*%
X149000000Y-109183000D02*
X148067000Y-108250000D01*
X149000000Y-109183000D02*
X149000000Y-109785000D01*
X143925000Y-108250000D02*
X148067000Y-108250000D01*
X143000000Y-109175000D02*
X143925000Y-108250000D01*
%TO.N,Net-(J1-CC2)*%
X150750000Y-111687000D02*
X151063000Y-112000000D01*
X150750000Y-111085000D02*
X150750000Y-111687000D01*
X155325000Y-112000000D02*
X156500000Y-110825000D01*
X151063000Y-112000000D02*
X155325000Y-112000000D01*
%TO.N,/S1*%
X135000000Y-97500000D02*
X135800000Y-98300000D01*
%TO.N,/S2*%
X154500000Y-103000000D02*
X147050000Y-103000000D01*
X147050000Y-103000000D02*
X143200000Y-99150000D01*
X143200000Y-99150000D02*
X143000000Y-99150000D01*
%TO.N,/USB_D-*%
X150500000Y-108000000D02*
X150500000Y-109785000D01*
X150500000Y-109785000D02*
X149750000Y-110535000D01*
X149750000Y-110535000D02*
X149750000Y-111085000D01*
X150000000Y-107000000D02*
X150000000Y-107500000D01*
X150000000Y-107500000D02*
X150500000Y-108000000D01*
%TO.N,/SA0*%
X137500000Y-99075000D02*
X136500000Y-100075000D01*
X136500000Y-100075000D02*
X136500000Y-105166500D01*
%TO.N,/SDA*%
X139000000Y-100000000D02*
X139000000Y-103166499D01*
X139000000Y-103166499D02*
X136999999Y-105166500D01*
%TO.N,/SCL*%
X137833500Y-106000001D02*
X139000000Y-106000001D01*
%TO.N,/USB_D+*%
X150895900Y-112400000D02*
X152200000Y-112400000D01*
X149500000Y-109785000D02*
X149500000Y-108500000D01*
X150202000Y-106000000D02*
X150850000Y-106648000D01*
X150850000Y-106648000D02*
X150850000Y-107000000D01*
X155717702Y-112400000D02*
X155754676Y-112436974D01*
X150250000Y-111085000D02*
X150250000Y-111754100D01*
X150000000Y-106000000D02*
X150202000Y-106000000D01*
X152200000Y-112400000D02*
X154794563Y-112400000D01*
X154794563Y-112400000D02*
X155717702Y-112400000D01*
X150894900Y-112399000D02*
X150895900Y-112400000D01*
X150250000Y-111754100D02*
X150894900Y-112399000D01*
%TO.N,/BOOT*%
X143000000Y-96600000D02*
X153100000Y-96600000D01*
X153100000Y-96600000D02*
X154674265Y-98174265D01*
%TD*%
%TA.AperFunction,Conductor*%
%TO.N,GNDREF*%
G36*
X164534075Y-100192993D02*
G01*
X164599901Y-100307007D01*
X164692993Y-100400099D01*
X164807007Y-100465925D01*
X164870590Y-100482962D01*
X164164899Y-101188651D01*
X164168539Y-101234898D01*
X164154174Y-101303275D01*
X164117807Y-101344943D01*
X164053440Y-101391709D01*
X164053431Y-101391716D01*
X163891715Y-101553432D01*
X163813664Y-101660860D01*
X163758333Y-101703525D01*
X163688720Y-101709504D01*
X163626925Y-101676898D01*
X163592568Y-101616059D01*
X163590873Y-101568576D01*
X163615000Y-101416246D01*
X163615000Y-101203753D01*
X163581757Y-100993872D01*
X163581757Y-100993869D01*
X163544624Y-100879584D01*
X163542629Y-100809743D01*
X163578710Y-100749910D01*
X163641411Y-100719082D01*
X163710825Y-100727047D01*
X163762873Y-100768380D01*
X163811347Y-100835098D01*
X163811347Y-100835099D01*
X164517037Y-100129409D01*
X164534075Y-100192993D01*
G37*
%TD.AperFunction*%
%TA.AperFunction,Conductor*%
G36*
X161799075Y-98962993D02*
G01*
X161864901Y-99077007D01*
X161957993Y-99170099D01*
X162072007Y-99235925D01*
X162135591Y-99252962D01*
X161534971Y-99853581D01*
X161613711Y-99970895D01*
X161614920Y-99974729D01*
X161617844Y-99977491D01*
X161625343Y-100007778D01*
X161634727Y-100037529D01*
X161633671Y-100041408D01*
X161634638Y-100045312D01*
X161624573Y-100074844D01*
X161616383Y-100104947D01*
X161613397Y-100107640D01*
X161612100Y-100111447D01*
X161567051Y-100150483D01*
X161557440Y-100155380D01*
X161503282Y-100194727D01*
X161503282Y-100194728D01*
X162135591Y-100827037D01*
X162072007Y-100844075D01*
X161957993Y-100909901D01*
X161864901Y-101002993D01*
X161799075Y-101117007D01*
X161782037Y-101180591D01*
X161149728Y-100548282D01*
X161149727Y-100548282D01*
X161110380Y-100602440D01*
X161105483Y-100612051D01*
X161057506Y-100662845D01*
X160989684Y-100679638D01*
X160923550Y-100657098D01*
X160884516Y-100612048D01*
X160879626Y-100602452D01*
X160840270Y-100548282D01*
X160840269Y-100548282D01*
X160207962Y-101180590D01*
X160190925Y-101117007D01*
X160125099Y-101002993D01*
X160032007Y-100909901D01*
X159917993Y-100844075D01*
X159854409Y-100827037D01*
X160486716Y-100194728D01*
X160432547Y-100155373D01*
X160432547Y-100155372D01*
X160423500Y-100150763D01*
X160372706Y-100102788D01*
X160355912Y-100034966D01*
X160378451Y-99968832D01*
X160423508Y-99929793D01*
X160432816Y-99925051D01*
X160531187Y-99853581D01*
X160604786Y-99800109D01*
X160604788Y-99800106D01*
X160604792Y-99800104D01*
X160755104Y-99649792D01*
X160755106Y-99649788D01*
X160755109Y-99649786D01*
X160840890Y-99531717D01*
X160880051Y-99477816D01*
X160884793Y-99468508D01*
X160932763Y-99417711D01*
X161000583Y-99400911D01*
X161066719Y-99423445D01*
X161105763Y-99468500D01*
X161110373Y-99477547D01*
X161149728Y-99531716D01*
X161782037Y-98899408D01*
X161799075Y-98962993D01*
G37*
%TD.AperFunction*%
%TA.AperFunction,Conductor*%
G36*
X163380270Y-99531717D02*
G01*
X163395383Y-99530527D01*
X163418307Y-99512850D01*
X163487920Y-99506869D01*
X163549716Y-99539473D01*
X163584075Y-99600311D01*
X163583882Y-99655036D01*
X163584028Y-99655060D01*
X163583878Y-99656002D01*
X163583874Y-99657340D01*
X163583265Y-99659877D01*
X163547500Y-99885686D01*
X163547500Y-100114313D01*
X163583265Y-100340124D01*
X163583265Y-100340125D01*
X163627912Y-100477534D01*
X163629907Y-100547375D01*
X163593827Y-100607208D01*
X163531126Y-100638036D01*
X163461711Y-100630071D01*
X163409663Y-100588737D01*
X163380271Y-100548282D01*
X163380269Y-100548282D01*
X162747962Y-101180590D01*
X162730925Y-101117007D01*
X162665099Y-101002993D01*
X162572007Y-100909901D01*
X162457993Y-100844075D01*
X162394409Y-100827037D01*
X163026716Y-100194728D01*
X162972550Y-100155375D01*
X162962954Y-100150486D01*
X162912157Y-100102512D01*
X162895361Y-100034692D01*
X162917897Y-99968556D01*
X162962954Y-99929514D01*
X162972554Y-99924622D01*
X163026716Y-99885270D01*
X163026717Y-99885270D01*
X162394408Y-99252962D01*
X162457993Y-99235925D01*
X162572007Y-99170099D01*
X162665099Y-99077007D01*
X162730925Y-98962993D01*
X162747962Y-98899408D01*
X163380270Y-99531717D01*
G37*
%TD.AperFunction*%
%TA.AperFunction,Conductor*%
G36*
X163734835Y-98260947D02*
G01*
X163786883Y-98302279D01*
X163891714Y-98446566D01*
X164053434Y-98608286D01*
X164053437Y-98608288D01*
X164117806Y-98655055D01*
X164160472Y-98710385D01*
X164168539Y-98765101D01*
X164164899Y-98811347D01*
X164870590Y-99517037D01*
X164807007Y-99534075D01*
X164692993Y-99599901D01*
X164599901Y-99692993D01*
X164534075Y-99807007D01*
X164517037Y-99870590D01*
X163811347Y-99164899D01*
X163811346Y-99164900D01*
X163805390Y-99173098D01*
X163750060Y-99215763D01*
X163680446Y-99221742D01*
X163618651Y-99189136D01*
X163584294Y-99128297D01*
X163582599Y-99080814D01*
X163615000Y-98876245D01*
X163615000Y-98663753D01*
X163581757Y-98453872D01*
X163581757Y-98453869D01*
X163568635Y-98413484D01*
X163566640Y-98343643D01*
X163602720Y-98283810D01*
X163665421Y-98252982D01*
X163734835Y-98260947D01*
G37*
%TD.AperFunction*%
%TA.AperFunction,Conductor*%
G36*
X161799075Y-96422993D02*
G01*
X161864901Y-96537007D01*
X161957993Y-96630099D01*
X162072007Y-96695925D01*
X162135591Y-96712962D01*
X161534971Y-97313581D01*
X161613711Y-97430895D01*
X161614920Y-97434729D01*
X161617844Y-97437491D01*
X161625343Y-97467778D01*
X161634727Y-97497529D01*
X161633671Y-97501408D01*
X161634638Y-97505312D01*
X161624573Y-97534844D01*
X161616383Y-97564947D01*
X161613397Y-97567640D01*
X161612100Y-97571447D01*
X161567051Y-97610483D01*
X161557440Y-97615380D01*
X161503282Y-97654727D01*
X161503282Y-97654728D01*
X162135591Y-98287037D01*
X162072007Y-98304075D01*
X161957993Y-98369901D01*
X161864901Y-98462993D01*
X161799075Y-98577007D01*
X161782037Y-98640591D01*
X161149728Y-98008282D01*
X161149727Y-98008282D01*
X161110380Y-98062440D01*
X161110376Y-98062446D01*
X161105760Y-98071505D01*
X161057781Y-98122297D01*
X160989959Y-98139087D01*
X160923826Y-98116543D01*
X160884794Y-98071493D01*
X160880051Y-98062184D01*
X160880049Y-98062181D01*
X160880048Y-98062179D01*
X160755109Y-97890213D01*
X160604786Y-97739890D01*
X160432820Y-97614951D01*
X160431646Y-97614353D01*
X160424054Y-97610485D01*
X160373259Y-97562512D01*
X160356463Y-97494692D01*
X160378999Y-97428556D01*
X160424054Y-97389515D01*
X160432816Y-97385051D01*
X160493116Y-97341241D01*
X160604786Y-97260109D01*
X160604788Y-97260106D01*
X160604792Y-97260104D01*
X160755104Y-97109792D01*
X160755106Y-97109788D01*
X160755109Y-97109786D01*
X160839075Y-96994215D01*
X160880051Y-96937816D01*
X160884793Y-96928508D01*
X160932763Y-96877711D01*
X161000583Y-96860911D01*
X161066719Y-96883445D01*
X161105763Y-96928500D01*
X161110373Y-96937547D01*
X161149728Y-96991716D01*
X161782037Y-96359408D01*
X161799075Y-96422993D01*
G37*
%TD.AperFunction*%
%TA.AperFunction,Conductor*%
G36*
X163380269Y-96991716D02*
G01*
X163385197Y-96984935D01*
X163440527Y-96942269D01*
X163510140Y-96936290D01*
X163571936Y-96968895D01*
X163606293Y-97029734D01*
X163603447Y-97096137D01*
X163582779Y-97159746D01*
X163582778Y-97159753D01*
X163565951Y-97265994D01*
X163547000Y-97385646D01*
X163547000Y-97614354D01*
X163557368Y-97679815D01*
X163582778Y-97840246D01*
X163582778Y-97840249D01*
X163603447Y-97903860D01*
X163605442Y-97973701D01*
X163569362Y-98033534D01*
X163506661Y-98064362D01*
X163437246Y-98056397D01*
X163385198Y-98015063D01*
X163380271Y-98008282D01*
X163380269Y-98008282D01*
X162747962Y-98640590D01*
X162730925Y-98577007D01*
X162665099Y-98462993D01*
X162572007Y-98369901D01*
X162457993Y-98304075D01*
X162394409Y-98287037D01*
X163026716Y-97654728D01*
X162972550Y-97615375D01*
X162962954Y-97610486D01*
X162912157Y-97562512D01*
X162895361Y-97494692D01*
X162917897Y-97428556D01*
X162962954Y-97389514D01*
X162972554Y-97384622D01*
X163026716Y-97345270D01*
X163026717Y-97345270D01*
X162394408Y-96712962D01*
X162457993Y-96695925D01*
X162572007Y-96630099D01*
X162665099Y-96537007D01*
X162730925Y-96422993D01*
X162747962Y-96359408D01*
X163380269Y-96991716D01*
G37*
%TD.AperFunction*%
%TA.AperFunction,Conductor*%
G36*
X161799075Y-93882993D02*
G01*
X161864901Y-93997007D01*
X161957993Y-94090099D01*
X162072007Y-94155925D01*
X162135591Y-94172962D01*
X161534971Y-94773581D01*
X161613711Y-94890895D01*
X161634727Y-94957529D01*
X161616383Y-95024947D01*
X161567051Y-95070483D01*
X161557440Y-95075380D01*
X161503282Y-95114727D01*
X161503282Y-95114728D01*
X162135591Y-95747037D01*
X162072007Y-95764075D01*
X161957993Y-95829901D01*
X161864901Y-95922993D01*
X161799075Y-96037007D01*
X161782037Y-96100591D01*
X161149728Y-95468282D01*
X161149727Y-95468282D01*
X161110380Y-95522440D01*
X161110376Y-95522446D01*
X161105760Y-95531505D01*
X161057781Y-95582297D01*
X160989959Y-95599087D01*
X160923826Y-95576543D01*
X160884794Y-95531493D01*
X160880051Y-95522184D01*
X160880049Y-95522181D01*
X160880048Y-95522179D01*
X160755109Y-95350213D01*
X160641181Y-95236285D01*
X160607696Y-95174962D01*
X160612680Y-95105270D01*
X160654552Y-95049337D01*
X160685529Y-95032422D01*
X160817086Y-94983354D01*
X160817093Y-94983350D01*
X160932187Y-94897190D01*
X160932190Y-94897187D01*
X161018350Y-94782093D01*
X161018354Y-94782086D01*
X161040529Y-94722632D01*
X161079319Y-94549390D01*
X161079682Y-94548734D01*
X161079642Y-94547984D01*
X161112642Y-94488802D01*
X161782037Y-93819408D01*
X161799075Y-93882993D01*
G37*
%TD.AperFunction*%
%TA.AperFunction,Conductor*%
G36*
X150395508Y-83005167D02*
G01*
X151174268Y-83041171D01*
X151179979Y-83041567D01*
X151956234Y-83113498D01*
X151961895Y-83114155D01*
X152734010Y-83221860D01*
X152739655Y-83222781D01*
X153505981Y-83366033D01*
X153511584Y-83367215D01*
X154270473Y-83545704D01*
X154275958Y-83547129D01*
X155025790Y-83760475D01*
X155031263Y-83762169D01*
X155770453Y-84009920D01*
X155775790Y-84011847D01*
X156355553Y-84236448D01*
X156502773Y-84293482D01*
X156508036Y-84295662D01*
X157221251Y-84610577D01*
X157226349Y-84612970D01*
X157689513Y-84843599D01*
X157924233Y-84960476D01*
X157929300Y-84963147D01*
X158217911Y-85123902D01*
X158610357Y-85342493D01*
X158615272Y-85345381D01*
X159278121Y-85755799D01*
X159282878Y-85758899D01*
X159926061Y-86199489D01*
X159930691Y-86202821D01*
X160451245Y-86595925D01*
X160552818Y-86672629D01*
X160557308Y-86676186D01*
X161157054Y-87174209D01*
X161161373Y-87177967D01*
X161352998Y-87352657D01*
X161737491Y-87703169D01*
X161741634Y-87707125D01*
X162292874Y-88258365D01*
X162296830Y-88262508D01*
X162822030Y-88838624D01*
X162825790Y-88842945D01*
X163323813Y-89442691D01*
X163327370Y-89447181D01*
X163797171Y-90069298D01*
X163800515Y-90073946D01*
X164094951Y-90503770D01*
X164241086Y-90717100D01*
X164244213Y-90721899D01*
X164654611Y-91384715D01*
X164657513Y-91389654D01*
X165036852Y-92070699D01*
X165039523Y-92075766D01*
X165247092Y-92492620D01*
X165375252Y-92750000D01*
X165387016Y-92773624D01*
X165389431Y-92778767D01*
X165678488Y-93433419D01*
X165704325Y-93491934D01*
X165706517Y-93497226D01*
X165988143Y-94224184D01*
X165990088Y-94229572D01*
X166237830Y-94968737D01*
X166239524Y-94974209D01*
X166452862Y-95724012D01*
X166454302Y-95729556D01*
X166632783Y-96488413D01*
X166633966Y-96494018D01*
X166777217Y-97260340D01*
X166778139Y-97265994D01*
X166885842Y-98038090D01*
X166886502Y-98043780D01*
X166958431Y-98820019D01*
X166958828Y-98825733D01*
X166994833Y-99604491D01*
X166994965Y-99610218D01*
X166994965Y-100389781D01*
X166994833Y-100395508D01*
X166958828Y-101174266D01*
X166958431Y-101179980D01*
X166886502Y-101956219D01*
X166885842Y-101961909D01*
X166778139Y-102734005D01*
X166777217Y-102739659D01*
X166633966Y-103505981D01*
X166632783Y-103511586D01*
X166454302Y-104270443D01*
X166452862Y-104275987D01*
X166239524Y-105025790D01*
X166237830Y-105031262D01*
X165990088Y-105770427D01*
X165988143Y-105775815D01*
X165706517Y-106502773D01*
X165704325Y-106508065D01*
X165684850Y-106552172D01*
X165389438Y-107221215D01*
X165387016Y-107226375D01*
X165039523Y-107924233D01*
X165036852Y-107929300D01*
X164657513Y-108610345D01*
X164654611Y-108615284D01*
X164244213Y-109278100D01*
X164241086Y-109282899D01*
X163800517Y-109926051D01*
X163797171Y-109930701D01*
X163327370Y-110552818D01*
X163323813Y-110557308D01*
X162825790Y-111157054D01*
X162822030Y-111161375D01*
X162296830Y-111737491D01*
X162292874Y-111741634D01*
X161741634Y-112292874D01*
X161737491Y-112296830D01*
X161161375Y-112822030D01*
X161157054Y-112825790D01*
X160557308Y-113323813D01*
X160552818Y-113327370D01*
X159930701Y-113797171D01*
X159926051Y-113800517D01*
X159282899Y-114241086D01*
X159278100Y-114244213D01*
X158615284Y-114654611D01*
X158610345Y-114657513D01*
X157929300Y-115036852D01*
X157924233Y-115039523D01*
X157226375Y-115387016D01*
X157221215Y-115389438D01*
X156665069Y-115635000D01*
X156508065Y-115704325D01*
X156502773Y-115706517D01*
X155775815Y-115988143D01*
X155770427Y-115990088D01*
X155533906Y-116069361D01*
X155464086Y-116072001D01*
X155403922Y-116036475D01*
X155372517Y-115974061D01*
X155370500Y-115951789D01*
X155370500Y-114701534D01*
X155370499Y-114701530D01*
X155330130Y-114498580D01*
X155250941Y-114307402D01*
X155135977Y-114135345D01*
X155135975Y-114135342D01*
X154989657Y-113989024D01*
X154845728Y-113892855D01*
X154817598Y-113874059D01*
X154651491Y-113805255D01*
X154626420Y-113794870D01*
X154626412Y-113794868D01*
X154423469Y-113754500D01*
X154423465Y-113754500D01*
X154216535Y-113754500D01*
X154216530Y-113754500D01*
X154013587Y-113794868D01*
X154013579Y-113794870D01*
X153822403Y-113874058D01*
X153650342Y-113989024D01*
X153504024Y-114135342D01*
X153389058Y-114307403D01*
X153309870Y-114498579D01*
X153309868Y-114498587D01*
X153269500Y-114701530D01*
X153269500Y-114701534D01*
X153269500Y-114701535D01*
X153269500Y-116408465D01*
X153269501Y-116408469D01*
X153296752Y-116545474D01*
X153290523Y-116615065D01*
X153247660Y-116670242D01*
X153197919Y-116691553D01*
X152739659Y-116777217D01*
X152734005Y-116778139D01*
X151961909Y-116885842D01*
X151956219Y-116886502D01*
X151179980Y-116958431D01*
X151174266Y-116958828D01*
X150395508Y-116994833D01*
X150389781Y-116994965D01*
X149610219Y-116994965D01*
X149604492Y-116994833D01*
X148825733Y-116958828D01*
X148820019Y-116958431D01*
X148043780Y-116886502D01*
X148038090Y-116885842D01*
X147265994Y-116778139D01*
X147260340Y-116777217D01*
X146802080Y-116691553D01*
X146739799Y-116659885D01*
X146704526Y-116599572D01*
X146703248Y-116545473D01*
X146730499Y-116408469D01*
X146730500Y-116408466D01*
X146730500Y-114701534D01*
X146730499Y-114701530D01*
X146690130Y-114498580D01*
X146610941Y-114307402D01*
X146495977Y-114135345D01*
X146495975Y-114135342D01*
X146349657Y-113989024D01*
X146205728Y-113892855D01*
X146177598Y-113874059D01*
X146011491Y-113805255D01*
X145986420Y-113794870D01*
X145986412Y-113794868D01*
X145783469Y-113754500D01*
X145783465Y-113754500D01*
X145576535Y-113754500D01*
X145576530Y-113754500D01*
X145373587Y-113794868D01*
X145373579Y-113794870D01*
X145182403Y-113874058D01*
X145010342Y-113989024D01*
X144864024Y-114135342D01*
X144749058Y-114307403D01*
X144669870Y-114498579D01*
X144669868Y-114498587D01*
X144629500Y-114701530D01*
X144629500Y-115951789D01*
X144621418Y-115979309D01*
X144616267Y-116007526D01*
X144611699Y-116012411D01*
X144609815Y-116018828D01*
X144588142Y-116037607D01*
X144568550Y-116058563D01*
X144562064Y-116060203D01*
X144557011Y-116064583D01*
X144528619Y-116068665D01*
X144500814Y-116075700D01*
X144491509Y-116074001D01*
X144487853Y-116074527D01*
X144466094Y-116069361D01*
X144229572Y-115990088D01*
X144224184Y-115988143D01*
X143497226Y-115706517D01*
X143491942Y-115704328D01*
X142778767Y-115389431D01*
X142773624Y-115387016D01*
X142075766Y-115039523D01*
X142070699Y-115036852D01*
X141389654Y-114657513D01*
X141384715Y-114654611D01*
X141321284Y-114615336D01*
X140721889Y-114244206D01*
X140717111Y-114241093D01*
X140073946Y-113800515D01*
X140069298Y-113797171D01*
X140012792Y-113754500D01*
X139489829Y-113359576D01*
X139447181Y-113327370D01*
X139442691Y-113323813D01*
X138842945Y-112825790D01*
X138838624Y-112822030D01*
X138262508Y-112296830D01*
X138258365Y-112292874D01*
X137707125Y-111741634D01*
X137703169Y-111737491D01*
X137471053Y-111482872D01*
X137177967Y-111161373D01*
X137174233Y-111157082D01*
X137111538Y-111081582D01*
X142025001Y-111081582D01*
X142031408Y-111152102D01*
X142031409Y-111152107D01*
X142081981Y-111314396D01*
X142169927Y-111459877D01*
X142290122Y-111580072D01*
X142435604Y-111668019D01*
X142435603Y-111668019D01*
X142597894Y-111718590D01*
X142597892Y-111718590D01*
X142668418Y-111724999D01*
X143250000Y-111724999D01*
X143331581Y-111724999D01*
X143402102Y-111718591D01*
X143402107Y-111718590D01*
X143564396Y-111668018D01*
X143709877Y-111580072D01*
X143830072Y-111459877D01*
X143918019Y-111314395D01*
X143968590Y-111152106D01*
X143975000Y-111081572D01*
X143975000Y-111075000D01*
X143250000Y-111075000D01*
X143250000Y-111724999D01*
X142668418Y-111724999D01*
X142749999Y-111724998D01*
X142750000Y-111724998D01*
X142750000Y-111075000D01*
X142025001Y-111075000D01*
X142025001Y-111081582D01*
X137111538Y-111081582D01*
X136676182Y-110557303D01*
X136672629Y-110552818D01*
X136638490Y-110507611D01*
X136202821Y-109930691D01*
X136199482Y-109926051D01*
X136190318Y-109912673D01*
X135758899Y-109282878D01*
X135755799Y-109278121D01*
X135345381Y-108615272D01*
X135342486Y-108610345D01*
X135337002Y-108600500D01*
X135313596Y-108558478D01*
X135298172Y-108490333D01*
X135322038Y-108424666D01*
X135377618Y-108382326D01*
X135447266Y-108376757D01*
X135496237Y-108398874D01*
X135605265Y-108480493D01*
X135605272Y-108480497D01*
X135631644Y-108490333D01*
X135740118Y-108530791D01*
X135799728Y-108537200D01*
X136200273Y-108537199D01*
X136200274Y-108537198D01*
X136200286Y-108537198D01*
X136236744Y-108533278D01*
X136263252Y-108533278D01*
X136299727Y-108537200D01*
X136700272Y-108537199D01*
X136700274Y-108537198D01*
X136700288Y-108537198D01*
X136724440Y-108534601D01*
X136724439Y-108534601D01*
X136759883Y-108530791D01*
X136894731Y-108480496D01*
X136954089Y-108436059D01*
X137019551Y-108411643D01*
X137087825Y-108426494D01*
X137137230Y-108475899D01*
X137152399Y-108535327D01*
X137152399Y-108536700D01*
X137200227Y-108536700D01*
X137200243Y-108536699D01*
X137259771Y-108530298D01*
X137259778Y-108530296D01*
X137394485Y-108480054D01*
X137394492Y-108480050D01*
X137509586Y-108393890D01*
X137509589Y-108393887D01*
X137595749Y-108278793D01*
X137595753Y-108278786D01*
X137612619Y-108233567D01*
X137654490Y-108177633D01*
X137719954Y-108153216D01*
X137728781Y-108152900D01*
X138084572Y-108152900D01*
X138144183Y-108146492D01*
X138279031Y-108096197D01*
X138394246Y-108009947D01*
X138480496Y-107894732D01*
X138530791Y-107759884D01*
X138537200Y-107700274D01*
X138537199Y-107299729D01*
X138537198Y-107299727D01*
X138537198Y-107299713D01*
X138533278Y-107263254D01*
X138533278Y-107236747D01*
X138537200Y-107200272D01*
X138537199Y-106860335D01*
X138556883Y-106793297D01*
X138609687Y-106747542D01*
X138678846Y-106737598D01*
X138708648Y-106745773D01*
X138766503Y-106769738D01*
X138917267Y-106799727D01*
X138921153Y-106800500D01*
X138921156Y-106800501D01*
X138921158Y-106800501D01*
X139078844Y-106800501D01*
X139078845Y-106800500D01*
X139233497Y-106769738D01*
X139379179Y-106709395D01*
X139510289Y-106621790D01*
X139621789Y-106510290D01*
X139709394Y-106379180D01*
X139769737Y-106233498D01*
X139790134Y-106130956D01*
X139800638Y-106078151D01*
X139833023Y-106016240D01*
X139834460Y-106014775D01*
X140061419Y-105787816D01*
X140088351Y-105773111D01*
X140114164Y-105756523D01*
X140120364Y-105755631D01*
X140122741Y-105754334D01*
X140149099Y-105751500D01*
X140332411Y-105751500D01*
X140399450Y-105771185D01*
X140445205Y-105823989D01*
X140454028Y-105851308D01*
X140470574Y-105934491D01*
X140470577Y-105934501D01*
X140530915Y-106080172D01*
X140530922Y-106080185D01*
X140618523Y-106211288D01*
X140622389Y-106215999D01*
X140620355Y-106217668D01*
X140648371Y-106268975D01*
X140643387Y-106338667D01*
X140641767Y-106342781D01*
X140626692Y-106379180D01*
X140620172Y-106394920D01*
X140620170Y-106394925D01*
X140589410Y-106549567D01*
X140589410Y-106707260D01*
X140620171Y-106861903D01*
X140620174Y-106861915D01*
X140680512Y-107007586D01*
X140680519Y-107007599D01*
X140768120Y-107138702D01*
X140768123Y-107138706D01*
X140879617Y-107250200D01*
X140879621Y-107250203D01*
X140896719Y-107261628D01*
X140941524Y-107315241D01*
X140950231Y-107384566D01*
X140920076Y-107447593D01*
X140915510Y-107452410D01*
X140878214Y-107489706D01*
X140878210Y-107489711D01*
X140790609Y-107620814D01*
X140790602Y-107620827D01*
X140730264Y-107766498D01*
X140730261Y-107766510D01*
X140699500Y-107921153D01*
X140699500Y-108078846D01*
X140730261Y-108233489D01*
X140730264Y-108233501D01*
X140790602Y-108379172D01*
X140790609Y-108379185D01*
X140878210Y-108510288D01*
X140878213Y-108510292D01*
X140989707Y-108621786D01*
X140989711Y-108621789D01*
X141120814Y-108709390D01*
X141120827Y-108709397D01*
X141252795Y-108764059D01*
X141266503Y-108769737D01*
X141421153Y-108800499D01*
X141421156Y-108800500D01*
X141421158Y-108800500D01*
X141578844Y-108800500D01*
X141578845Y-108800499D01*
X141733497Y-108769737D01*
X141860413Y-108717166D01*
X141929880Y-108709698D01*
X141992360Y-108740973D01*
X142028012Y-108801062D01*
X142031355Y-108842950D01*
X142030669Y-108850500D01*
X142024825Y-108914815D01*
X142024500Y-108918386D01*
X142024500Y-109431613D01*
X142030913Y-109502192D01*
X142030913Y-109502194D01*
X142030914Y-109502196D01*
X142081522Y-109664606D01*
X142169342Y-109809878D01*
X142169530Y-109810188D01*
X142272015Y-109912673D01*
X142305500Y-109973996D01*
X142300516Y-110043688D01*
X142272015Y-110088035D01*
X142169928Y-110190121D01*
X142169927Y-110190122D01*
X142081980Y-110335604D01*
X142031409Y-110497893D01*
X142025000Y-110568427D01*
X142025000Y-110575000D01*
X143974999Y-110575000D01*
X143974999Y-110568417D01*
X143968591Y-110497897D01*
X143968590Y-110497892D01*
X143918018Y-110335603D01*
X143830072Y-110190122D01*
X143727984Y-110088034D01*
X143694499Y-110026711D01*
X143699483Y-109957019D01*
X143727983Y-109912673D01*
X143830472Y-109810185D01*
X143918478Y-109664606D01*
X143969086Y-109502196D01*
X143975500Y-109431616D01*
X143975500Y-109100097D01*
X143984144Y-109070656D01*
X143990668Y-109040670D01*
X143994422Y-109035654D01*
X143995185Y-109033058D01*
X144011814Y-109012421D01*
X144137418Y-108886817D01*
X144198740Y-108853334D01*
X144225098Y-108850500D01*
X144748863Y-108850500D01*
X144815902Y-108870185D01*
X144861657Y-108922989D01*
X144871601Y-108992147D01*
X144851965Y-109043390D01*
X144749059Y-109197399D01*
X144749059Y-109197400D01*
X144669870Y-109388579D01*
X144669868Y-109388587D01*
X144629500Y-109591530D01*
X144629500Y-110798469D01*
X144669868Y-111001412D01*
X144669870Y-111001420D01*
X144749058Y-111192596D01*
X144864024Y-111364657D01*
X145010342Y-111510975D01*
X145010345Y-111510977D01*
X145182402Y-111625941D01*
X145373580Y-111705130D01*
X145536271Y-111737491D01*
X145576530Y-111745499D01*
X145576534Y-111745500D01*
X145576535Y-111745500D01*
X145783466Y-111745500D01*
X145813091Y-111739607D01*
X145902144Y-111721893D01*
X145971733Y-111728120D01*
X146025601Y-111769200D01*
X146042806Y-111792184D01*
X146042814Y-111792191D01*
X146157906Y-111878350D01*
X146157913Y-111878354D01*
X146292620Y-111928596D01*
X146292627Y-111928598D01*
X146352155Y-111934999D01*
X146352172Y-111935000D01*
X146650000Y-111935000D01*
X146650000Y-111122967D01*
X146652673Y-111113863D01*
X146659439Y-111075514D01*
X146659652Y-111075000D01*
X146690130Y-111001420D01*
X146730500Y-110798465D01*
X146730500Y-110515177D01*
X146750185Y-110448138D01*
X146802989Y-110402383D01*
X146872147Y-110392439D01*
X146935703Y-110421464D01*
X146941270Y-110426593D01*
X146948061Y-110433245D01*
X146992454Y-110492546D01*
X147060949Y-110543821D01*
X147066820Y-110549572D01*
X147080026Y-110573174D01*
X147096232Y-110594823D01*
X147097416Y-110604254D01*
X147100937Y-110610546D01*
X147100043Y-110625164D01*
X147103340Y-110651408D01*
X147099500Y-110687127D01*
X147099500Y-111084869D01*
X147099501Y-111085000D01*
X147099501Y-111482876D01*
X147105908Y-111542481D01*
X147105909Y-111542483D01*
X147142182Y-111639737D01*
X147150000Y-111683068D01*
X147150000Y-111935000D01*
X147447819Y-111935000D01*
X147447833Y-111934999D01*
X147484395Y-111931068D01*
X147510905Y-111931068D01*
X147552127Y-111935500D01*
X147947872Y-111935499D01*
X147947873Y-111935498D01*
X147947885Y-111935498D01*
X147986744Y-111931320D01*
X148006575Y-111930783D01*
X148009898Y-111930959D01*
X148052127Y-111935500D01*
X148095416Y-111935499D01*
X148098682Y-111935673D01*
X148128663Y-111946232D01*
X148159145Y-111955182D01*
X148161709Y-111957871D01*
X148164584Y-111958884D01*
X148173024Y-111969738D01*
X148199494Y-111997498D01*
X148218423Y-112030283D01*
X148218424Y-112030285D01*
X148269475Y-112118709D01*
X148269481Y-112118717D01*
X148388349Y-112237585D01*
X148388355Y-112237590D01*
X149315139Y-113164374D01*
X149315149Y-113164385D01*
X149319479Y-113168715D01*
X149319480Y-113168716D01*
X149431284Y-113280520D01*
X149506272Y-113323813D01*
X149518095Y-113330639D01*
X149518097Y-113330641D01*
X149568213Y-113359576D01*
X149568215Y-113359577D01*
X149720942Y-113400500D01*
X149720943Y-113400500D01*
X154699903Y-113400500D01*
X154729343Y-113409144D01*
X154759330Y-113415668D01*
X154764345Y-113419422D01*
X154766942Y-113420185D01*
X154787584Y-113436819D01*
X154898604Y-113547839D01*
X154898614Y-113547850D01*
X155014750Y-113663986D01*
X155027552Y-113671376D01*
X155038175Y-113677510D01*
X155063852Y-113697212D01*
X155121140Y-113754500D01*
X155171895Y-113805255D01*
X155302997Y-113892855D01*
X155303010Y-113892862D01*
X155448681Y-113953200D01*
X155448686Y-113953202D01*
X155603336Y-113983964D01*
X155603339Y-113983965D01*
X155603341Y-113983965D01*
X155761027Y-113983965D01*
X155761028Y-113983964D01*
X155915680Y-113953202D01*
X156061362Y-113892859D01*
X156192472Y-113805254D01*
X156303972Y-113693754D01*
X156391577Y-113562644D01*
X156451920Y-113416962D01*
X156482683Y-113262307D01*
X156482683Y-113104623D01*
X156482683Y-113104620D01*
X156482682Y-113104618D01*
X156451922Y-112949976D01*
X156451920Y-112949970D01*
X156451920Y-112949968D01*
X156447716Y-112939820D01*
X156440247Y-112870354D01*
X156459175Y-112823477D01*
X156464070Y-112816153D01*
X156524413Y-112670471D01*
X156555176Y-112515816D01*
X156555176Y-112358132D01*
X156555176Y-112358129D01*
X156555175Y-112358127D01*
X156542195Y-112292874D01*
X156524413Y-112203477D01*
X156489304Y-112118716D01*
X156464073Y-112057801D01*
X156464066Y-112057788D01*
X156381366Y-111934020D01*
X156371876Y-111903713D01*
X156360784Y-111873971D01*
X156361513Y-111870618D01*
X156360488Y-111867343D01*
X156368889Y-111836718D01*
X156375638Y-111805699D01*
X156378416Y-111801987D01*
X156378972Y-111799963D01*
X156396790Y-111777445D01*
X156412420Y-111761816D01*
X156473744Y-111728333D01*
X156500098Y-111725500D01*
X156831613Y-111725500D01*
X156831616Y-111725500D01*
X156902196Y-111719086D01*
X157064606Y-111668478D01*
X157210185Y-111580472D01*
X157330472Y-111460185D01*
X157418478Y-111314606D01*
X157469086Y-111152196D01*
X157475500Y-111081616D01*
X157475500Y-110568384D01*
X157469086Y-110497804D01*
X157418478Y-110335394D01*
X157330472Y-110189815D01*
X157330470Y-110189813D01*
X157330469Y-110189811D01*
X157227984Y-110087326D01*
X157194499Y-110026003D01*
X157199483Y-109956311D01*
X157227985Y-109911963D01*
X157330071Y-109809878D01*
X157330072Y-109809877D01*
X157418019Y-109664395D01*
X157468590Y-109502106D01*
X157475000Y-109431572D01*
X157475000Y-109425000D01*
X155521596Y-109425000D01*
X155467772Y-109454389D01*
X155398081Y-109449403D01*
X155342148Y-109407531D01*
X155326857Y-109380679D01*
X155250941Y-109197402D01*
X155135977Y-109025345D01*
X155135975Y-109025342D01*
X155029060Y-108918427D01*
X155525000Y-108918427D01*
X155525000Y-108925000D01*
X156250000Y-108925000D01*
X156750000Y-108925000D01*
X157474999Y-108925000D01*
X157474999Y-108918417D01*
X157468591Y-108847897D01*
X157468590Y-108847892D01*
X157418018Y-108685603D01*
X157330072Y-108540122D01*
X157209877Y-108419927D01*
X157064395Y-108331980D01*
X157064396Y-108331980D01*
X156902105Y-108281409D01*
X156902106Y-108281409D01*
X156831572Y-108275000D01*
X156750000Y-108275000D01*
X156750000Y-108925000D01*
X156250000Y-108925000D01*
X156250000Y-108275000D01*
X156249999Y-108274999D01*
X156168417Y-108275000D01*
X156097897Y-108281408D01*
X156097892Y-108281409D01*
X155935603Y-108331981D01*
X155790122Y-108419927D01*
X155669927Y-108540122D01*
X155581980Y-108685604D01*
X155531409Y-108847893D01*
X155525000Y-108918427D01*
X155029060Y-108918427D01*
X154989657Y-108879024D01*
X154865249Y-108795898D01*
X154817598Y-108764059D01*
X154743815Y-108733497D01*
X154626420Y-108684870D01*
X154626412Y-108684868D01*
X154423469Y-108644500D01*
X154423465Y-108644500D01*
X154216535Y-108644500D01*
X154216530Y-108644500D01*
X154013587Y-108684868D01*
X154013579Y-108684870D01*
X153822403Y-108764058D01*
X153650342Y-108879024D01*
X153650341Y-108879025D01*
X153551350Y-108978017D01*
X153490027Y-109011502D01*
X153420335Y-109006518D01*
X153400104Y-108995470D01*
X153399872Y-108995897D01*
X153392086Y-108991645D01*
X153257379Y-108941403D01*
X153257372Y-108941401D01*
X153197844Y-108935000D01*
X153150000Y-108935000D01*
X153150000Y-108936373D01*
X153146205Y-108949296D01*
X153147166Y-108962732D01*
X153136552Y-108982168D01*
X153130315Y-109003412D01*
X153120137Y-109012230D01*
X153113681Y-109024055D01*
X153094242Y-109034668D01*
X153077511Y-109049167D01*
X153064180Y-109051083D01*
X153052358Y-109057539D01*
X153030271Y-109055959D01*
X153008353Y-109059111D01*
X152994582Y-109053407D01*
X152982666Y-109052555D01*
X152951691Y-109035641D01*
X152899687Y-108996711D01*
X152863888Y-108948888D01*
X152850000Y-108935000D01*
X152802165Y-108935000D01*
X152765598Y-108938931D01*
X152739092Y-108938931D01*
X152697874Y-108934500D01*
X152372057Y-108934500D01*
X152305018Y-108914815D01*
X152259263Y-108862011D01*
X152249319Y-108792853D01*
X152257495Y-108763051D01*
X152269737Y-108733497D01*
X152300500Y-108578842D01*
X152300500Y-108421158D01*
X152300500Y-108421155D01*
X152300499Y-108421153D01*
X152296067Y-108398874D01*
X152269737Y-108266503D01*
X152232926Y-108177633D01*
X152209397Y-108120827D01*
X152209393Y-108120820D01*
X152192941Y-108096198D01*
X152190892Y-108093131D01*
X152170015Y-108026456D01*
X152188499Y-107959075D01*
X152240477Y-107912385D01*
X152298806Y-107900788D01*
X152298806Y-107900500D01*
X152300258Y-107900499D01*
X152300661Y-107900420D01*
X152302089Y-107900496D01*
X152302127Y-107900500D01*
X152797872Y-107900499D01*
X152857483Y-107894091D01*
X152931667Y-107866421D01*
X153001358Y-107861438D01*
X153018327Y-107866420D01*
X153078905Y-107889014D01*
X153091192Y-107893597D01*
X153092517Y-107894091D01*
X153152127Y-107900500D01*
X153647872Y-107900499D01*
X153707483Y-107894091D01*
X153781667Y-107866421D01*
X153851358Y-107861438D01*
X153868327Y-107866420D01*
X153928905Y-107889014D01*
X153941192Y-107893597D01*
X153942517Y-107894091D01*
X154002127Y-107900500D01*
X154497872Y-107900499D01*
X154557483Y-107894091D01*
X154631667Y-107866421D01*
X154701358Y-107861438D01*
X154718327Y-107866420D01*
X154778905Y-107889014D01*
X154791192Y-107893597D01*
X154792517Y-107894091D01*
X154852127Y-107900500D01*
X155347872Y-107900499D01*
X155407483Y-107894091D01*
X155481667Y-107866421D01*
X155551358Y-107861438D01*
X155568327Y-107866420D01*
X155628905Y-107889014D01*
X155641192Y-107893597D01*
X155642517Y-107894091D01*
X155702127Y-107900500D01*
X156197872Y-107900499D01*
X156257483Y-107894091D01*
X156332380Y-107866155D01*
X156363408Y-107863936D01*
X156394232Y-107859728D01*
X156397964Y-107861464D01*
X156402071Y-107861171D01*
X156419049Y-107866156D01*
X156492621Y-107893597D01*
X156552155Y-107899999D01*
X156552172Y-107900000D01*
X156750000Y-107900000D01*
X157250000Y-107900000D01*
X157447828Y-107900000D01*
X157447844Y-107899999D01*
X157507372Y-107893598D01*
X157507379Y-107893596D01*
X157642086Y-107843354D01*
X157642093Y-107843350D01*
X157642932Y-107842722D01*
X158199500Y-107842722D01*
X158199500Y-108157277D01*
X158234716Y-108469827D01*
X158234718Y-108469843D01*
X158304710Y-108776499D01*
X158304711Y-108776501D01*
X158408598Y-109073395D01*
X158545072Y-109356786D01*
X158545074Y-109356789D01*
X158712423Y-109623123D01*
X158908539Y-109869044D01*
X159130956Y-110091461D01*
X159376877Y-110287577D01*
X159632408Y-110448138D01*
X159643213Y-110454927D01*
X159721330Y-110492546D01*
X159926606Y-110591402D01*
X160223500Y-110695289D01*
X160530160Y-110765282D01*
X160842723Y-110800499D01*
X160842724Y-110800500D01*
X160842727Y-110800500D01*
X161157276Y-110800500D01*
X161157276Y-110800499D01*
X161469840Y-110765282D01*
X161776500Y-110695289D01*
X162073394Y-110591402D01*
X162356789Y-110454926D01*
X162623123Y-110287577D01*
X162869044Y-110091461D01*
X163091461Y-109869044D01*
X163287577Y-109623123D01*
X163454926Y-109356789D01*
X163591402Y-109073394D01*
X163695289Y-108776500D01*
X163765282Y-108469840D01*
X163800500Y-108157273D01*
X163800500Y-107842727D01*
X163765282Y-107530160D01*
X163695289Y-107223500D01*
X163591402Y-106926606D01*
X163485770Y-106707260D01*
X163454927Y-106643213D01*
X163397722Y-106552172D01*
X163287577Y-106376877D01*
X163091461Y-106130956D01*
X162869044Y-105908539D01*
X162623123Y-105712423D01*
X162356789Y-105545074D01*
X162356786Y-105545072D01*
X162073395Y-105408598D01*
X161776501Y-105304711D01*
X161776499Y-105304710D01*
X161469843Y-105234718D01*
X161469827Y-105234716D01*
X161157277Y-105199500D01*
X161157273Y-105199500D01*
X160842727Y-105199500D01*
X160842722Y-105199500D01*
X160530172Y-105234716D01*
X160530156Y-105234718D01*
X160223500Y-105304710D01*
X160223498Y-105304711D01*
X159926604Y-105408598D01*
X159643213Y-105545072D01*
X159376878Y-105712422D01*
X159130956Y-105908538D01*
X158908538Y-106130956D01*
X158712422Y-106376878D01*
X158545072Y-106643213D01*
X158408598Y-106926604D01*
X158304711Y-107223498D01*
X158304710Y-107223500D01*
X158234718Y-107530156D01*
X158234716Y-107530172D01*
X158199500Y-107842722D01*
X157642932Y-107842722D01*
X157757187Y-107757190D01*
X157757190Y-107757187D01*
X157843350Y-107642093D01*
X157843354Y-107642086D01*
X157893596Y-107507379D01*
X157893598Y-107507372D01*
X157899999Y-107447844D01*
X157900000Y-107447827D01*
X157900000Y-107250000D01*
X157250000Y-107250000D01*
X157250000Y-107900000D01*
X156750000Y-107900000D01*
X156750000Y-107124000D01*
X156769685Y-107056961D01*
X156822489Y-107011206D01*
X156874000Y-107000000D01*
X157000000Y-107000000D01*
X157000000Y-106874000D01*
X157019685Y-106806961D01*
X157072489Y-106761206D01*
X157124000Y-106750000D01*
X157900000Y-106750000D01*
X157900000Y-106552172D01*
X157899999Y-106552155D01*
X157893598Y-106492623D01*
X157866155Y-106419047D01*
X157861171Y-106349355D01*
X157866148Y-106332399D01*
X157894091Y-106257483D01*
X157900500Y-106197873D01*
X157900499Y-105702128D01*
X157894091Y-105642517D01*
X157866421Y-105568332D01*
X157861438Y-105498642D01*
X157866422Y-105481667D01*
X157894091Y-105407483D01*
X157900500Y-105347873D01*
X157900499Y-104852128D01*
X157894091Y-104792517D01*
X157866421Y-104718332D01*
X157861438Y-104648642D01*
X157866422Y-104631667D01*
X157894091Y-104557483D01*
X157900500Y-104497873D01*
X157900499Y-104002128D01*
X157894091Y-103942517D01*
X157866421Y-103868332D01*
X157861438Y-103798642D01*
X157866422Y-103781667D01*
X157894091Y-103707483D01*
X157900500Y-103647873D01*
X157900499Y-103152128D01*
X157894091Y-103092517D01*
X157866421Y-103018332D01*
X157861438Y-102948642D01*
X157866422Y-102931667D01*
X157894091Y-102857483D01*
X157900500Y-102797873D01*
X157900499Y-102302128D01*
X157894091Y-102242517D01*
X157866421Y-102168332D01*
X157861438Y-102098642D01*
X157866422Y-102081667D01*
X157894091Y-102007483D01*
X157900500Y-101947873D01*
X157900499Y-101452128D01*
X157894091Y-101392517D01*
X157866421Y-101318332D01*
X157864536Y-101291974D01*
X157858920Y-101266154D01*
X157861757Y-101253109D01*
X157861438Y-101248642D01*
X157866422Y-101231667D01*
X157894091Y-101157483D01*
X157900500Y-101097873D01*
X157900499Y-100602128D01*
X157894091Y-100542517D01*
X157866421Y-100468332D01*
X157861438Y-100398642D01*
X157866422Y-100381667D01*
X157894091Y-100307483D01*
X157900500Y-100247873D01*
X157900499Y-99752128D01*
X157894091Y-99692517D01*
X157866421Y-99618332D01*
X157861438Y-99548642D01*
X157866422Y-99531667D01*
X157894091Y-99457483D01*
X157900500Y-99397873D01*
X157900499Y-98902128D01*
X157894091Y-98842517D01*
X157866421Y-98768332D01*
X157861438Y-98698642D01*
X157866422Y-98681667D01*
X157894091Y-98607483D01*
X157900500Y-98547873D01*
X157900499Y-98052128D01*
X157894091Y-97992517D01*
X157866421Y-97918332D01*
X157861438Y-97848642D01*
X157866422Y-97831667D01*
X157894091Y-97757483D01*
X157900500Y-97697873D01*
X157900499Y-97202128D01*
X157894091Y-97142517D01*
X157866154Y-97067616D01*
X157861171Y-96997927D01*
X157866156Y-96980950D01*
X157893597Y-96907379D01*
X157893597Y-96907377D01*
X157899999Y-96847844D01*
X157900000Y-96847827D01*
X157900000Y-96800000D01*
X157648069Y-96800000D01*
X157604736Y-96792182D01*
X157507482Y-96755908D01*
X157507483Y-96755908D01*
X157447883Y-96749501D01*
X157447881Y-96749500D01*
X157447873Y-96749500D01*
X157447865Y-96749500D01*
X156552129Y-96749500D01*
X156552123Y-96749501D01*
X156492516Y-96755908D01*
X156395264Y-96792182D01*
X156351931Y-96800000D01*
X156100000Y-96800000D01*
X156100000Y-96847844D01*
X156106401Y-96907372D01*
X156106403Y-96907379D01*
X156133844Y-96980952D01*
X156138828Y-97050643D01*
X156133844Y-97067618D01*
X156118115Y-97109792D01*
X156105909Y-97142517D01*
X156099500Y-97202127D01*
X156099500Y-97202134D01*
X156099500Y-97202135D01*
X156099500Y-97697870D01*
X156099501Y-97697876D01*
X156105908Y-97757483D01*
X156133577Y-97831667D01*
X156138561Y-97901358D01*
X156133577Y-97918331D01*
X156105910Y-97992511D01*
X156105909Y-97992515D01*
X156105909Y-97992517D01*
X156099500Y-98052127D01*
X156099500Y-98052134D01*
X156099500Y-98052135D01*
X156099500Y-98547870D01*
X156099501Y-98547876D01*
X156105908Y-98607483D01*
X156133577Y-98681667D01*
X156138561Y-98751358D01*
X156133577Y-98768331D01*
X156105910Y-98842511D01*
X156105909Y-98842515D01*
X156105909Y-98842517D01*
X156099500Y-98902127D01*
X156099500Y-98902134D01*
X156099500Y-98902135D01*
X156099500Y-99397870D01*
X156099501Y-99397876D01*
X156105908Y-99457483D01*
X156133577Y-99531667D01*
X156138561Y-99601358D01*
X156133577Y-99618331D01*
X156105910Y-99692511D01*
X156105909Y-99692515D01*
X156105909Y-99692517D01*
X156099500Y-99752127D01*
X156099500Y-99752134D01*
X156099500Y-99752135D01*
X156099500Y-100247870D01*
X156099501Y-100247876D01*
X156105908Y-100307483D01*
X156133577Y-100381667D01*
X156138561Y-100451358D01*
X156133577Y-100468331D01*
X156105910Y-100542511D01*
X156105909Y-100542515D01*
X156105909Y-100542517D01*
X156099500Y-100602127D01*
X156099500Y-100602134D01*
X156099500Y-100602135D01*
X156099500Y-101097870D01*
X156099501Y-101097876D01*
X156105908Y-101157483D01*
X156133577Y-101231667D01*
X156138561Y-101301358D01*
X156133577Y-101318331D01*
X156105910Y-101392511D01*
X156105909Y-101392515D01*
X156105909Y-101392517D01*
X156099500Y-101452127D01*
X156099500Y-101452134D01*
X156099500Y-101452135D01*
X156099500Y-101947870D01*
X156099501Y-101947876D01*
X156105908Y-102007483D01*
X156133577Y-102081667D01*
X156138561Y-102151358D01*
X156133577Y-102168331D01*
X156105910Y-102242511D01*
X156105909Y-102242515D01*
X156105909Y-102242517D01*
X156099500Y-102302127D01*
X156099500Y-102302134D01*
X156099500Y-102302135D01*
X156099500Y-102797870D01*
X156099501Y-102797876D01*
X156105908Y-102857483D01*
X156133577Y-102931667D01*
X156138561Y-103001358D01*
X156133577Y-103018331D01*
X156105910Y-103092511D01*
X156105909Y-103092515D01*
X156105909Y-103092517D01*
X156099500Y-103152127D01*
X156099500Y-103152134D01*
X156099500Y-103152135D01*
X156099500Y-103647870D01*
X156099501Y-103647876D01*
X156105908Y-103707483D01*
X156133577Y-103781667D01*
X156138561Y-103851358D01*
X156133577Y-103868331D01*
X156105910Y-103942511D01*
X156105909Y-103942515D01*
X156105909Y-103942517D01*
X156099500Y-104002127D01*
X156099500Y-104002134D01*
X156099500Y-104002135D01*
X156099500Y-104497870D01*
X156099501Y-104497876D01*
X156105908Y-104557483D01*
X156133577Y-104631667D01*
X156138561Y-104701358D01*
X156133577Y-104718331D01*
X156105910Y-104792511D01*
X156105909Y-104792515D01*
X156105909Y-104792517D01*
X156099500Y-104852127D01*
X156099500Y-104852134D01*
X156099500Y-104852135D01*
X156099500Y-105347870D01*
X156099501Y-105347876D01*
X156105908Y-105407483D01*
X156133577Y-105481667D01*
X156138561Y-105551358D01*
X156133577Y-105568331D01*
X156105909Y-105642514D01*
X156105908Y-105642516D01*
X156099501Y-105702116D01*
X156099501Y-105702123D01*
X156099500Y-105702135D01*
X156099500Y-105975500D01*
X156079815Y-106042539D01*
X156027011Y-106088294D01*
X155975500Y-106099500D01*
X155702130Y-106099500D01*
X155702123Y-106099501D01*
X155642516Y-106105908D01*
X155568332Y-106133577D01*
X155498640Y-106138561D01*
X155481668Y-106133577D01*
X155407488Y-106105910D01*
X155407484Y-106105909D01*
X155407483Y-106105909D01*
X155347873Y-106099500D01*
X155347863Y-106099500D01*
X154852129Y-106099500D01*
X154852123Y-106099501D01*
X154792516Y-106105908D01*
X154718332Y-106133577D01*
X154648640Y-106138561D01*
X154631668Y-106133577D01*
X154557488Y-106105910D01*
X154557484Y-106105909D01*
X154557483Y-106105909D01*
X154497873Y-106099500D01*
X154497863Y-106099500D01*
X154002129Y-106099500D01*
X154002123Y-106099501D01*
X153942516Y-106105908D01*
X153868332Y-106133577D01*
X153798640Y-106138561D01*
X153781668Y-106133577D01*
X153707488Y-106105910D01*
X153707484Y-106105909D01*
X153707483Y-106105909D01*
X153647873Y-106099500D01*
X153647863Y-106099500D01*
X153152129Y-106099500D01*
X153152123Y-106099501D01*
X153092516Y-106105908D01*
X153018332Y-106133577D01*
X152948640Y-106138561D01*
X152931668Y-106133577D01*
X152857488Y-106105910D01*
X152857484Y-106105909D01*
X152857483Y-106105909D01*
X152797873Y-106099500D01*
X152797863Y-106099500D01*
X152302129Y-106099500D01*
X152302123Y-106099501D01*
X152242516Y-106105908D01*
X152168332Y-106133577D01*
X152098640Y-106138561D01*
X152081668Y-106133577D01*
X152007488Y-106105910D01*
X152007484Y-106105909D01*
X152007483Y-106105909D01*
X151947873Y-106099500D01*
X151947863Y-106099500D01*
X151452129Y-106099500D01*
X151452123Y-106099501D01*
X151392516Y-106105908D01*
X151318332Y-106133577D01*
X151291976Y-106135461D01*
X151266155Y-106141079D01*
X151253110Y-106138241D01*
X151248640Y-106138561D01*
X151231668Y-106133577D01*
X151182216Y-106115133D01*
X151137867Y-106086632D01*
X150753236Y-105702001D01*
X150726356Y-105661773D01*
X150709394Y-105620821D01*
X150709389Y-105620814D01*
X150621789Y-105489710D01*
X150510292Y-105378213D01*
X150510288Y-105378210D01*
X150379185Y-105290609D01*
X150379172Y-105290602D01*
X150233501Y-105230264D01*
X150233489Y-105230261D01*
X150078845Y-105199500D01*
X150078842Y-105199500D01*
X149921158Y-105199500D01*
X149921155Y-105199500D01*
X149766510Y-105230261D01*
X149766498Y-105230264D01*
X149620827Y-105290602D01*
X149620814Y-105290609D01*
X149489711Y-105378210D01*
X149489707Y-105378213D01*
X149378213Y-105489707D01*
X149378210Y-105489711D01*
X149290609Y-105620814D01*
X149290602Y-105620827D01*
X149230264Y-105766498D01*
X149230261Y-105766510D01*
X149199500Y-105921153D01*
X149199500Y-105975500D01*
X149179815Y-106042539D01*
X149127011Y-106088294D01*
X149075501Y-106099500D01*
X148902130Y-106099500D01*
X148902123Y-106099501D01*
X148842516Y-106105908D01*
X148768332Y-106133577D01*
X148698640Y-106138561D01*
X148681668Y-106133577D01*
X148607488Y-106105910D01*
X148607484Y-106105909D01*
X148607483Y-106105909D01*
X148547873Y-106099500D01*
X148547863Y-106099500D01*
X148052129Y-106099500D01*
X148052123Y-106099501D01*
X147992516Y-106105908D01*
X147917617Y-106133844D01*
X147847926Y-106138828D01*
X147830952Y-106133844D01*
X147757379Y-106106403D01*
X147757372Y-106106401D01*
X147697844Y-106100000D01*
X147650000Y-106100000D01*
X147650000Y-106351930D01*
X147642182Y-106395263D01*
X147633312Y-106419047D01*
X147605909Y-106492517D01*
X147599500Y-106552127D01*
X147599500Y-106876002D01*
X147579817Y-106943039D01*
X147574820Y-106950241D01*
X147425319Y-107150241D01*
X147400726Y-107168677D01*
X147377511Y-107188794D01*
X147372414Y-107189902D01*
X147369414Y-107192152D01*
X147358427Y-107192945D01*
X147326000Y-107200000D01*
X146724000Y-107200000D01*
X146656961Y-107180315D01*
X146611206Y-107127511D01*
X146600000Y-107076000D01*
X146600000Y-107000000D01*
X146574499Y-107000000D01*
X146507460Y-106980315D01*
X146461705Y-106927511D01*
X146450499Y-106876000D01*
X146450499Y-106800000D01*
X146800000Y-106800000D01*
X147250000Y-106800000D01*
X147250000Y-106100000D01*
X147202155Y-106100000D01*
X147142627Y-106106401D01*
X147142617Y-106106403D01*
X147068332Y-106134110D01*
X146998641Y-106139094D01*
X146981668Y-106134110D01*
X146907382Y-106106403D01*
X146907372Y-106106401D01*
X146847844Y-106100000D01*
X146800000Y-106100000D01*
X146800000Y-106800000D01*
X146450499Y-106800000D01*
X146450499Y-106552129D01*
X146450498Y-106552123D01*
X146450223Y-106549567D01*
X146445193Y-106502773D01*
X146444091Y-106492516D01*
X146407818Y-106395263D01*
X146400000Y-106351930D01*
X146400000Y-106100000D01*
X146352155Y-106100000D01*
X146292627Y-106106401D01*
X146292623Y-106106402D01*
X146219046Y-106133844D01*
X146149354Y-106138827D01*
X146132382Y-106133843D01*
X146057488Y-106105910D01*
X146057484Y-106105909D01*
X146057483Y-106105909D01*
X145997873Y-106099500D01*
X145997863Y-106099500D01*
X145502129Y-106099500D01*
X145502123Y-106099501D01*
X145442516Y-106105908D01*
X145368332Y-106133577D01*
X145298640Y-106138561D01*
X145281668Y-106133577D01*
X145207488Y-106105910D01*
X145207484Y-106105909D01*
X145207483Y-106105909D01*
X145147873Y-106099500D01*
X145147863Y-106099500D01*
X144652129Y-106099500D01*
X144652123Y-106099501D01*
X144592516Y-106105908D01*
X144518332Y-106133577D01*
X144448640Y-106138561D01*
X144431668Y-106133577D01*
X144357485Y-106105909D01*
X144357483Y-106105908D01*
X144297883Y-106099501D01*
X144297881Y-106099500D01*
X144297873Y-106099500D01*
X144297865Y-106099500D01*
X144024499Y-106099500D01*
X143957460Y-106079815D01*
X143911705Y-106027011D01*
X143900499Y-105975500D01*
X143900499Y-105702129D01*
X143900498Y-105702123D01*
X143900497Y-105702116D01*
X143894091Y-105642517D01*
X143866421Y-105568332D01*
X143861438Y-105498642D01*
X143866422Y-105481667D01*
X143894091Y-105407483D01*
X143900500Y-105347873D01*
X143900499Y-104852128D01*
X143894091Y-104792517D01*
X143866421Y-104718332D01*
X143861438Y-104648642D01*
X143866422Y-104631667D01*
X143894091Y-104557483D01*
X143900500Y-104497873D01*
X143900499Y-104002128D01*
X143894091Y-103942517D01*
X143866421Y-103868332D01*
X143861438Y-103798642D01*
X143866422Y-103781667D01*
X143894091Y-103707483D01*
X143900500Y-103647873D01*
X143900499Y-103152128D01*
X143894091Y-103092517D01*
X143866421Y-103018332D01*
X143861438Y-102948642D01*
X143866422Y-102931667D01*
X143894091Y-102857483D01*
X143900500Y-102797873D01*
X143900499Y-102302128D01*
X143894091Y-102242517D01*
X143866421Y-102168332D01*
X143861438Y-102098642D01*
X143866422Y-102081667D01*
X143894091Y-102007483D01*
X143900500Y-101947873D01*
X143900499Y-101452128D01*
X143894091Y-101392517D01*
X143866421Y-101318332D01*
X143861438Y-101248642D01*
X143866422Y-101231667D01*
X143894091Y-101157483D01*
X143900500Y-101097873D01*
X143900499Y-100999094D01*
X143920183Y-100932058D01*
X143972986Y-100886302D01*
X144042145Y-100876358D01*
X144105701Y-100905382D01*
X144112180Y-100911415D01*
X146565139Y-103364374D01*
X146565149Y-103364385D01*
X146569479Y-103368715D01*
X146569480Y-103368716D01*
X146681284Y-103480520D01*
X146768095Y-103530639D01*
X146768097Y-103530641D01*
X146818213Y-103559576D01*
X146818215Y-103559577D01*
X146970942Y-103600500D01*
X146970943Y-103600500D01*
X153920234Y-103600500D01*
X153987273Y-103620185D01*
X153989125Y-103621398D01*
X154120814Y-103709390D01*
X154120827Y-103709397D01*
X154201270Y-103742717D01*
X154266503Y-103769737D01*
X154411817Y-103798642D01*
X154421153Y-103800499D01*
X154421156Y-103800500D01*
X154421158Y-103800500D01*
X154578844Y-103800500D01*
X154578845Y-103800499D01*
X154733497Y-103769737D01*
X154879179Y-103709394D01*
X155010289Y-103621789D01*
X155121789Y-103510289D01*
X155209394Y-103379179D01*
X155269737Y-103233497D01*
X155300500Y-103078842D01*
X155300500Y-102921158D01*
X155300500Y-102921155D01*
X155300499Y-102921153D01*
X155289608Y-102866401D01*
X155269737Y-102766503D01*
X155258618Y-102739659D01*
X155209397Y-102620827D01*
X155209390Y-102620814D01*
X155121789Y-102489711D01*
X155121786Y-102489707D01*
X155010292Y-102378213D01*
X155010288Y-102378210D01*
X154879185Y-102290609D01*
X154879172Y-102290602D01*
X154733501Y-102230264D01*
X154733489Y-102230261D01*
X154578845Y-102199500D01*
X154578842Y-102199500D01*
X154421158Y-102199500D01*
X154421155Y-102199500D01*
X154266510Y-102230261D01*
X154266498Y-102230264D01*
X154120827Y-102290602D01*
X154120814Y-102290609D01*
X153989125Y-102378602D01*
X153922447Y-102399480D01*
X153920234Y-102399500D01*
X147350097Y-102399500D01*
X147283058Y-102379815D01*
X147262416Y-102363181D01*
X143936818Y-99037583D01*
X143903333Y-98976260D01*
X143902596Y-98972610D01*
X143900499Y-98961352D01*
X143900499Y-98902128D01*
X143894091Y-98842517D01*
X143862668Y-98758267D01*
X143860701Y-98747708D01*
X143863194Y-98723207D01*
X143861438Y-98698642D01*
X143866422Y-98681667D01*
X143894091Y-98607483D01*
X143900500Y-98547873D01*
X143900499Y-98052128D01*
X143894091Y-97992517D01*
X143866421Y-97918332D01*
X143861438Y-97848642D01*
X143866422Y-97831667D01*
X143894091Y-97757483D01*
X143900500Y-97697873D01*
X143900499Y-97324499D01*
X143920183Y-97257461D01*
X143972987Y-97211706D01*
X144024499Y-97200500D01*
X152799903Y-97200500D01*
X152866942Y-97220185D01*
X152887584Y-97236819D01*
X153839690Y-98188925D01*
X153873175Y-98250248D01*
X153873626Y-98252414D01*
X153904526Y-98407756D01*
X153904529Y-98407766D01*
X153964867Y-98553437D01*
X153964874Y-98553450D01*
X154052475Y-98684553D01*
X154052478Y-98684557D01*
X154163972Y-98796051D01*
X154163976Y-98796054D01*
X154295079Y-98883655D01*
X154295092Y-98883662D01*
X154440763Y-98944000D01*
X154440768Y-98944002D01*
X154536242Y-98962993D01*
X154595418Y-98974764D01*
X154595421Y-98974765D01*
X154595423Y-98974765D01*
X154753109Y-98974765D01*
X154753110Y-98974764D01*
X154907762Y-98944002D01*
X155053444Y-98883659D01*
X155184554Y-98796054D01*
X155296054Y-98684554D01*
X155383659Y-98553444D01*
X155444002Y-98407762D01*
X155474765Y-98253107D01*
X155474765Y-98095423D01*
X155474765Y-98095420D01*
X155474764Y-98095418D01*
X155470005Y-98071492D01*
X155444002Y-97940768D01*
X155434710Y-97918334D01*
X155383662Y-97795092D01*
X155383655Y-97795079D01*
X155296054Y-97663976D01*
X155296051Y-97663972D01*
X155184557Y-97552478D01*
X155184553Y-97552475D01*
X155053450Y-97464874D01*
X155053437Y-97464867D01*
X154907766Y-97404529D01*
X154907756Y-97404526D01*
X154752414Y-97373626D01*
X154690503Y-97341241D01*
X154688925Y-97339690D01*
X153587590Y-96238355D01*
X153587588Y-96238352D01*
X153468717Y-96119481D01*
X153468716Y-96119480D01*
X153405146Y-96082778D01*
X153370756Y-96062923D01*
X153370754Y-96062922D01*
X153361333Y-96057483D01*
X153331785Y-96040423D01*
X153179057Y-95999499D01*
X153020943Y-95999499D01*
X153013347Y-95999499D01*
X153013331Y-95999500D01*
X144845134Y-95999500D01*
X144839494Y-95997844D01*
X156100000Y-95997844D01*
X156106401Y-96057372D01*
X156106403Y-96057382D01*
X156134110Y-96131668D01*
X156139094Y-96201359D01*
X156134110Y-96218332D01*
X156106403Y-96292617D01*
X156106401Y-96292627D01*
X156100000Y-96352155D01*
X156100000Y-96400000D01*
X156800000Y-96400000D01*
X157200000Y-96400000D01*
X157900000Y-96400000D01*
X157900000Y-96352172D01*
X157899999Y-96352155D01*
X157893598Y-96292628D01*
X157865888Y-96218334D01*
X157860904Y-96148642D01*
X157865888Y-96131666D01*
X157893598Y-96057371D01*
X157899999Y-95997844D01*
X157900000Y-95997827D01*
X157900000Y-95950000D01*
X157200000Y-95950000D01*
X157200000Y-96400000D01*
X156800000Y-96400000D01*
X156800000Y-95950000D01*
X156100000Y-95950000D01*
X156100000Y-95997844D01*
X144839494Y-95997844D01*
X144778095Y-95979815D01*
X144732340Y-95927011D01*
X144722396Y-95857853D01*
X144730573Y-95828047D01*
X144769737Y-95733497D01*
X144800500Y-95578842D01*
X144800500Y-95421158D01*
X144800500Y-95421155D01*
X144800499Y-95421153D01*
X144790134Y-95369046D01*
X144769737Y-95266503D01*
X144757612Y-95237231D01*
X144709397Y-95120827D01*
X144709390Y-95120814D01*
X144621789Y-94989711D01*
X144621786Y-94989707D01*
X144510292Y-94878213D01*
X144510288Y-94878210D01*
X144379185Y-94790609D01*
X144379172Y-94790602D01*
X144233501Y-94730264D01*
X144233489Y-94730261D01*
X144078845Y-94699500D01*
X144078842Y-94699500D01*
X144016471Y-94699500D01*
X143949432Y-94679815D01*
X143903677Y-94627011D01*
X143899154Y-94615658D01*
X143864753Y-94515158D01*
X143863281Y-94481890D01*
X143860904Y-94448642D01*
X143861692Y-94445956D01*
X143861666Y-94445356D01*
X143862075Y-94444652D01*
X143865888Y-94431666D01*
X143893598Y-94357371D01*
X143899999Y-94297844D01*
X143900000Y-94297827D01*
X143900000Y-94250000D01*
X143200000Y-94250000D01*
X143200000Y-94776000D01*
X143197449Y-94784685D01*
X143198738Y-94793647D01*
X143187759Y-94817687D01*
X143180315Y-94843039D01*
X143173474Y-94848966D01*
X143169713Y-94857203D01*
X143147478Y-94871492D01*
X143127511Y-94888794D01*
X143116996Y-94891081D01*
X143110935Y-94894977D01*
X143076000Y-94900000D01*
X142924000Y-94900000D01*
X142856961Y-94880315D01*
X142811206Y-94827511D01*
X142800000Y-94776000D01*
X142800000Y-94250000D01*
X142100000Y-94250000D01*
X142100000Y-94297844D01*
X142107231Y-94365087D01*
X142104089Y-94365424D01*
X142101134Y-94420652D01*
X142060273Y-94477327D01*
X141995257Y-94502915D01*
X141935588Y-94491051D01*
X141934808Y-94492937D01*
X141783501Y-94430264D01*
X141783489Y-94430261D01*
X141628845Y-94399500D01*
X141628842Y-94399500D01*
X141616602Y-94399500D01*
X141601114Y-94395350D01*
X141587369Y-94396005D01*
X141554607Y-94382889D01*
X141554604Y-94382888D01*
X141510601Y-94357483D01*
X141482785Y-94341423D01*
X141482784Y-94341422D01*
X141482783Y-94341422D01*
X141426881Y-94326443D01*
X141330057Y-94300499D01*
X141171943Y-94300499D01*
X141164347Y-94300499D01*
X141164331Y-94300500D01*
X140959367Y-94300500D01*
X140892328Y-94280815D01*
X140846573Y-94228011D01*
X140836629Y-94158853D01*
X140865654Y-94095297D01*
X140871686Y-94088819D01*
X140963498Y-93997007D01*
X141060505Y-93900000D01*
X144250000Y-93900000D01*
X144297828Y-93900000D01*
X144297844Y-93899999D01*
X144357371Y-93893598D01*
X144431666Y-93865888D01*
X144501358Y-93860904D01*
X144518334Y-93865888D01*
X144592628Y-93893598D01*
X144592627Y-93893598D01*
X144652155Y-93899999D01*
X144652172Y-93900000D01*
X144700000Y-93900000D01*
X145100000Y-93900000D01*
X145147828Y-93900000D01*
X145147844Y-93899999D01*
X145207371Y-93893598D01*
X145281666Y-93865888D01*
X145351358Y-93860904D01*
X145368334Y-93865888D01*
X145442628Y-93893598D01*
X145442627Y-93893598D01*
X145502155Y-93899999D01*
X145502172Y-93900000D01*
X145550000Y-93900000D01*
X145950000Y-93900000D01*
X145997828Y-93900000D01*
X145997844Y-93899999D01*
X146057371Y-93893598D01*
X146131666Y-93865888D01*
X146201358Y-93860904D01*
X146218334Y-93865888D01*
X146292628Y-93893598D01*
X146292627Y-93893598D01*
X146352155Y-93899999D01*
X146352172Y-93900000D01*
X146400000Y-93900000D01*
X146800000Y-93900000D01*
X146847828Y-93900000D01*
X146847844Y-93899999D01*
X146907371Y-93893598D01*
X146981666Y-93865888D01*
X147051358Y-93860904D01*
X147068334Y-93865888D01*
X147142628Y-93893598D01*
X147142627Y-93893598D01*
X147202155Y-93899999D01*
X147202172Y-93900000D01*
X147250000Y-93900000D01*
X147650000Y-93900000D01*
X147697828Y-93900000D01*
X147697844Y-93899999D01*
X147757371Y-93893598D01*
X147831666Y-93865888D01*
X147901358Y-93860904D01*
X147918334Y-93865888D01*
X147992628Y-93893598D01*
X147992627Y-93893598D01*
X148052155Y-93899999D01*
X148052172Y-93900000D01*
X148100000Y-93900000D01*
X148500000Y-93900000D01*
X148547828Y-93900000D01*
X148547844Y-93899999D01*
X148607371Y-93893598D01*
X148681666Y-93865888D01*
X148751358Y-93860904D01*
X148768334Y-93865888D01*
X148842628Y-93893598D01*
X148842627Y-93893598D01*
X148902155Y-93899999D01*
X148902172Y-93900000D01*
X148950000Y-93900000D01*
X149350000Y-93900000D01*
X149397828Y-93900000D01*
X149397844Y-93899999D01*
X149457371Y-93893598D01*
X149531666Y-93865888D01*
X149601358Y-93860904D01*
X149618334Y-93865888D01*
X149692628Y-93893598D01*
X149692627Y-93893598D01*
X149752155Y-93899999D01*
X149752172Y-93900000D01*
X149800000Y-93900000D01*
X150200000Y-93900000D01*
X150247828Y-93900000D01*
X150247844Y-93899999D01*
X150307371Y-93893598D01*
X150381666Y-93865888D01*
X150451358Y-93860904D01*
X150468334Y-93865888D01*
X150542628Y-93893598D01*
X150542627Y-93893598D01*
X150602155Y-93899999D01*
X150602172Y-93900000D01*
X150650000Y-93900000D01*
X151050000Y-93900000D01*
X151097828Y-93900000D01*
X151097844Y-93899999D01*
X151157371Y-93893598D01*
X151231666Y-93865888D01*
X151301358Y-93860904D01*
X151318334Y-93865888D01*
X151392628Y-93893598D01*
X151392627Y-93893598D01*
X151452155Y-93899999D01*
X151452172Y-93900000D01*
X151500000Y-93900000D01*
X151900000Y-93900000D01*
X151947828Y-93900000D01*
X151947844Y-93899999D01*
X152007371Y-93893598D01*
X152081666Y-93865888D01*
X152151358Y-93860904D01*
X152168334Y-93865888D01*
X152242628Y-93893598D01*
X152242627Y-93893598D01*
X152302155Y-93899999D01*
X152302172Y-93900000D01*
X152350000Y-93900000D01*
X152750000Y-93900000D01*
X152797828Y-93900000D01*
X152797844Y-93899999D01*
X152857371Y-93893598D01*
X152931666Y-93865888D01*
X153001358Y-93860904D01*
X153018334Y-93865888D01*
X153092628Y-93893598D01*
X153092627Y-93893598D01*
X153152155Y-93899999D01*
X153152172Y-93900000D01*
X153200000Y-93900000D01*
X153600000Y-93900000D01*
X153647828Y-93900000D01*
X153647844Y-93899999D01*
X153707371Y-93893598D01*
X153781666Y-93865888D01*
X153851358Y-93860904D01*
X153868334Y-93865888D01*
X153942628Y-93893598D01*
X153942627Y-93893598D01*
X154002155Y-93899999D01*
X154002172Y-93900000D01*
X154050000Y-93900000D01*
X154450000Y-93900000D01*
X154497828Y-93900000D01*
X154497844Y-93899999D01*
X154557371Y-93893598D01*
X154631666Y-93865888D01*
X154701358Y-93860904D01*
X154718334Y-93865888D01*
X154792628Y-93893598D01*
X154792627Y-93893598D01*
X154852155Y-93899999D01*
X154852172Y-93900000D01*
X154900000Y-93900000D01*
X155300000Y-93900000D01*
X155347828Y-93900000D01*
X155347844Y-93899999D01*
X155407371Y-93893598D01*
X155481666Y-93865888D01*
X155551358Y-93860904D01*
X155568334Y-93865888D01*
X155642628Y-93893598D01*
X155642627Y-93893598D01*
X155702155Y-93899999D01*
X155702172Y-93900000D01*
X155750000Y-93900000D01*
X155750000Y-93802127D01*
X156099500Y-93802127D01*
X156099500Y-93802134D01*
X156099500Y-93802135D01*
X156099500Y-94297870D01*
X156099501Y-94297876D01*
X156105908Y-94357483D01*
X156133577Y-94431667D01*
X156138561Y-94501358D01*
X156133577Y-94518331D01*
X156105910Y-94592511D01*
X156105909Y-94592515D01*
X156105909Y-94592517D01*
X156099500Y-94652127D01*
X156099500Y-94652134D01*
X156099500Y-94652135D01*
X156099500Y-95147870D01*
X156099501Y-95147876D01*
X156105909Y-95207485D01*
X156133843Y-95282382D01*
X156138827Y-95352074D01*
X156133844Y-95369046D01*
X156106402Y-95442623D01*
X156106401Y-95442627D01*
X156100000Y-95502155D01*
X156100000Y-95550000D01*
X156351931Y-95550000D01*
X156395263Y-95557817D01*
X156492517Y-95594091D01*
X156552127Y-95600500D01*
X157447872Y-95600499D01*
X157507483Y-95594091D01*
X157604736Y-95557817D01*
X157648069Y-95550000D01*
X157900000Y-95550000D01*
X157901495Y-95548504D01*
X157919685Y-95486558D01*
X157972489Y-95440803D01*
X158041647Y-95430859D01*
X158105203Y-95459884D01*
X158111672Y-95465907D01*
X158167944Y-95522179D01*
X158391241Y-95745476D01*
X158424726Y-95806799D01*
X158421492Y-95871473D01*
X158407753Y-95913757D01*
X158374500Y-96123713D01*
X158374500Y-96336286D01*
X158404604Y-96526358D01*
X158407754Y-96546243D01*
X158472777Y-96746363D01*
X158473444Y-96748414D01*
X158569951Y-96937820D01*
X158694890Y-97109786D01*
X158845213Y-97260109D01*
X159017182Y-97385050D01*
X159025946Y-97389516D01*
X159076742Y-97437491D01*
X159093536Y-97505312D01*
X159070998Y-97571447D01*
X159025946Y-97610484D01*
X159017182Y-97614949D01*
X158845213Y-97739890D01*
X158694890Y-97890213D01*
X158569951Y-98062179D01*
X158473444Y-98251585D01*
X158407753Y-98453760D01*
X158374500Y-98663713D01*
X158374500Y-98876286D01*
X158394294Y-99001264D01*
X158407754Y-99086243D01*
X158433311Y-99164900D01*
X158473444Y-99288414D01*
X158569951Y-99477820D01*
X158694890Y-99649786D01*
X158845213Y-99800109D01*
X159017179Y-99925048D01*
X159017181Y-99925049D01*
X159017184Y-99925051D01*
X159026493Y-99929794D01*
X159077290Y-99977766D01*
X159094087Y-100045587D01*
X159071552Y-100111722D01*
X159026505Y-100150760D01*
X159017446Y-100155376D01*
X159017440Y-100155380D01*
X158963282Y-100194727D01*
X158963282Y-100194728D01*
X159595591Y-100827037D01*
X159532007Y-100844075D01*
X159417993Y-100909901D01*
X159324901Y-101002993D01*
X159259075Y-101117007D01*
X159242037Y-101180591D01*
X158609728Y-100548282D01*
X158609727Y-100548282D01*
X158570380Y-100602439D01*
X158473904Y-100791782D01*
X158408242Y-100993869D01*
X158408242Y-100993872D01*
X158375000Y-101203753D01*
X158375000Y-101416246D01*
X158408242Y-101626127D01*
X158408242Y-101626130D01*
X158473904Y-101828217D01*
X158570375Y-102017550D01*
X158609728Y-102071716D01*
X159242037Y-101439408D01*
X159259075Y-101502993D01*
X159324901Y-101617007D01*
X159417993Y-101710099D01*
X159532007Y-101775925D01*
X159595590Y-101792962D01*
X158963282Y-102425269D01*
X158963282Y-102425270D01*
X159017449Y-102464624D01*
X159206782Y-102561095D01*
X159408870Y-102626757D01*
X159618754Y-102660000D01*
X159831246Y-102660000D01*
X160041127Y-102626757D01*
X160041130Y-102626757D01*
X160243217Y-102561095D01*
X160432554Y-102464622D01*
X160486716Y-102425270D01*
X160486717Y-102425270D01*
X159854408Y-101792962D01*
X159917993Y-101775925D01*
X160032007Y-101710099D01*
X160125099Y-101617007D01*
X160190925Y-101502993D01*
X160207962Y-101439408D01*
X160840270Y-102071717D01*
X160840270Y-102071716D01*
X160879622Y-102017554D01*
X160884514Y-102007954D01*
X160932488Y-101957157D01*
X161000308Y-101940361D01*
X161066444Y-101962897D01*
X161105486Y-102007954D01*
X161110375Y-102017550D01*
X161149728Y-102071716D01*
X161782037Y-101439408D01*
X161799075Y-101502993D01*
X161864901Y-101617007D01*
X161957993Y-101710099D01*
X162072007Y-101775925D01*
X162135590Y-101792962D01*
X161503282Y-102425269D01*
X161503282Y-102425270D01*
X161557449Y-102464624D01*
X161746782Y-102561095D01*
X161948870Y-102626757D01*
X162158754Y-102660000D01*
X162371246Y-102660000D01*
X162581127Y-102626757D01*
X162581130Y-102626757D01*
X162783217Y-102561095D01*
X162972554Y-102464622D01*
X163026716Y-102425270D01*
X163026717Y-102425270D01*
X162394408Y-101792962D01*
X162457993Y-101775925D01*
X162572007Y-101710099D01*
X162665099Y-101617007D01*
X162730925Y-101502993D01*
X162747962Y-101439408D01*
X163380270Y-102071717D01*
X163403693Y-102069873D01*
X163408797Y-102065938D01*
X163478410Y-102059956D01*
X163540206Y-102092559D01*
X163574566Y-102153396D01*
X163576263Y-102200885D01*
X163560229Y-102302123D01*
X163547000Y-102385646D01*
X163547000Y-102614354D01*
X163554230Y-102660000D01*
X163582778Y-102840246D01*
X163582778Y-102840249D01*
X163653450Y-103057755D01*
X163757283Y-103261538D01*
X163891714Y-103446566D01*
X164053434Y-103608286D01*
X164238462Y-103742717D01*
X164351866Y-103800499D01*
X164442244Y-103846549D01*
X164659751Y-103917221D01*
X164659752Y-103917221D01*
X164659755Y-103917222D01*
X164885646Y-103953000D01*
X164885647Y-103953000D01*
X165114353Y-103953000D01*
X165114354Y-103953000D01*
X165340245Y-103917222D01*
X165340248Y-103917221D01*
X165340249Y-103917221D01*
X165557755Y-103846549D01*
X165557755Y-103846548D01*
X165557758Y-103846548D01*
X165761538Y-103742717D01*
X165946566Y-103608286D01*
X166108286Y-103446566D01*
X166242717Y-103261538D01*
X166346548Y-103057758D01*
X166359359Y-103018331D01*
X166417221Y-102840249D01*
X166417221Y-102840248D01*
X166417222Y-102840245D01*
X166453000Y-102614354D01*
X166453000Y-102385646D01*
X166417222Y-102159755D01*
X166417221Y-102159751D01*
X166417221Y-102159750D01*
X166346549Y-101942244D01*
X166242716Y-101738461D01*
X166222110Y-101710099D01*
X166108286Y-101553434D01*
X165946566Y-101391714D01*
X165882190Y-101344942D01*
X165839526Y-101289613D01*
X165831459Y-101234896D01*
X165835098Y-101188650D01*
X165129409Y-100482962D01*
X165192993Y-100465925D01*
X165307007Y-100400099D01*
X165400099Y-100307007D01*
X165465925Y-100192993D01*
X165482962Y-100129410D01*
X166188651Y-100835099D01*
X166188651Y-100835098D01*
X166242288Y-100761276D01*
X166346082Y-100557568D01*
X166416734Y-100340125D01*
X166416734Y-100340124D01*
X166452500Y-100114313D01*
X166452500Y-99885686D01*
X166416734Y-99659875D01*
X166416734Y-99659874D01*
X166346082Y-99442431D01*
X166242292Y-99238731D01*
X166242288Y-99238725D01*
X166188651Y-99164900D01*
X166188651Y-99164899D01*
X165482962Y-99870589D01*
X165465925Y-99807007D01*
X165400099Y-99692993D01*
X165307007Y-99599901D01*
X165192993Y-99534075D01*
X165129408Y-99517037D01*
X165835098Y-98811348D01*
X165831459Y-98765103D01*
X165845823Y-98696726D01*
X165882190Y-98655057D01*
X165946566Y-98608286D01*
X166108286Y-98446566D01*
X166242717Y-98261538D01*
X166346548Y-98057758D01*
X166352017Y-98040925D01*
X166417221Y-97840249D01*
X166417221Y-97840248D01*
X166417222Y-97840245D01*
X166453000Y-97614354D01*
X166453000Y-97385646D01*
X166417222Y-97159755D01*
X166417221Y-97159751D01*
X166417221Y-97159750D01*
X166346549Y-96942244D01*
X166298464Y-96847872D01*
X166242717Y-96738462D01*
X166108286Y-96553434D01*
X165946566Y-96391714D01*
X165761538Y-96257283D01*
X165707990Y-96229999D01*
X165557755Y-96153450D01*
X165340248Y-96082778D01*
X165170826Y-96055944D01*
X165114354Y-96047000D01*
X164885646Y-96047000D01*
X164820097Y-96057382D01*
X164659753Y-96082778D01*
X164659750Y-96082778D01*
X164442244Y-96153450D01*
X164238461Y-96257283D01*
X164185412Y-96295826D01*
X164053434Y-96391714D01*
X164053432Y-96391716D01*
X164053431Y-96391716D01*
X163891715Y-96553432D01*
X163786884Y-96697719D01*
X163731553Y-96740384D01*
X163661940Y-96746363D01*
X163600145Y-96713757D01*
X163565788Y-96652918D01*
X163568635Y-96586514D01*
X163581758Y-96546126D01*
X163615000Y-96336246D01*
X163615000Y-96123753D01*
X163581757Y-95913872D01*
X163581757Y-95913869D01*
X163516095Y-95711782D01*
X163419624Y-95522449D01*
X163380270Y-95468282D01*
X163380269Y-95468282D01*
X162747962Y-96100590D01*
X162730925Y-96037007D01*
X162665099Y-95922993D01*
X162572007Y-95829901D01*
X162457993Y-95764075D01*
X162394409Y-95747037D01*
X163026716Y-95114728D01*
X162972550Y-95075375D01*
X162962954Y-95070486D01*
X162912157Y-95022512D01*
X162895361Y-94954692D01*
X162917897Y-94888556D01*
X162962954Y-94849514D01*
X162972554Y-94844622D01*
X163026716Y-94805270D01*
X163026717Y-94805270D01*
X162394408Y-94172962D01*
X162457993Y-94155925D01*
X162572007Y-94090099D01*
X162665099Y-93997007D01*
X162730925Y-93882993D01*
X162747962Y-93819408D01*
X163380270Y-94451717D01*
X163380270Y-94451716D01*
X163419622Y-94397554D01*
X163516095Y-94208217D01*
X163581757Y-94006130D01*
X163581757Y-94006127D01*
X163615000Y-93796246D01*
X163615000Y-93583753D01*
X163581757Y-93373872D01*
X163581757Y-93373869D01*
X163516095Y-93171782D01*
X163419624Y-92982449D01*
X163380270Y-92928282D01*
X163380269Y-92928282D01*
X162747962Y-93560590D01*
X162730925Y-93497007D01*
X162665099Y-93382993D01*
X162572007Y-93289901D01*
X162457993Y-93224075D01*
X162394409Y-93207037D01*
X163026716Y-92574728D01*
X162972550Y-92535375D01*
X162783217Y-92438904D01*
X162581129Y-92373242D01*
X162371246Y-92340000D01*
X162158754Y-92340000D01*
X161948872Y-92373242D01*
X161948869Y-92373242D01*
X161746782Y-92438904D01*
X161557439Y-92535380D01*
X161503282Y-92574727D01*
X161503282Y-92574728D01*
X162135591Y-93207037D01*
X162072007Y-93224075D01*
X161957993Y-93289901D01*
X161864901Y-93382993D01*
X161799075Y-93497007D01*
X161782037Y-93560591D01*
X161112642Y-92891196D01*
X161079319Y-92830609D01*
X161040527Y-92657364D01*
X161018354Y-92597913D01*
X161018350Y-92597906D01*
X160932190Y-92482812D01*
X160932187Y-92482809D01*
X160817093Y-92396649D01*
X160817086Y-92396645D01*
X160682379Y-92346403D01*
X160682372Y-92346401D01*
X160622844Y-92340000D01*
X159975000Y-92340000D01*
X159975000Y-93256988D01*
X159917993Y-93224075D01*
X159790826Y-93190000D01*
X159659174Y-93190000D01*
X159532007Y-93224075D01*
X159475000Y-93256988D01*
X159475000Y-92340000D01*
X158827155Y-92340000D01*
X158767627Y-92346401D01*
X158767620Y-92346403D01*
X158632913Y-92396645D01*
X158632906Y-92396649D01*
X158517812Y-92482809D01*
X158517809Y-92482812D01*
X158431649Y-92597906D01*
X158431645Y-92597913D01*
X158381403Y-92732620D01*
X158381401Y-92732627D01*
X158375000Y-92792155D01*
X158375000Y-93440000D01*
X159291988Y-93440000D01*
X159259075Y-93497007D01*
X159225000Y-93624174D01*
X159225000Y-93755826D01*
X159259075Y-93882993D01*
X159291988Y-93940000D01*
X158335597Y-93940000D01*
X158268558Y-93920315D01*
X158247916Y-93903681D01*
X158032590Y-93688355D01*
X158025521Y-93681286D01*
X158025520Y-93681284D01*
X157931469Y-93587233D01*
X157907558Y-93543441D01*
X157897987Y-93525913D01*
X157895864Y-93486298D01*
X157899999Y-93447841D01*
X157900000Y-93447827D01*
X157900000Y-93250000D01*
X156150000Y-93250000D01*
X156150000Y-93601930D01*
X156142182Y-93645263D01*
X156120275Y-93704001D01*
X156105909Y-93742517D01*
X156099500Y-93802127D01*
X155750000Y-93802127D01*
X155750000Y-93200000D01*
X155300000Y-93200000D01*
X155300000Y-93900000D01*
X154900000Y-93900000D01*
X154900000Y-93200000D01*
X154450000Y-93200000D01*
X154450000Y-93900000D01*
X154050000Y-93900000D01*
X154050000Y-93200000D01*
X153600000Y-93200000D01*
X153600000Y-93900000D01*
X153200000Y-93900000D01*
X153200000Y-93200000D01*
X152750000Y-93200000D01*
X152750000Y-93900000D01*
X152350000Y-93900000D01*
X152350000Y-93200000D01*
X151900000Y-93200000D01*
X151900000Y-93900000D01*
X151500000Y-93900000D01*
X151500000Y-93200000D01*
X151050000Y-93200000D01*
X151050000Y-93900000D01*
X150650000Y-93900000D01*
X150650000Y-93200000D01*
X150200000Y-93200000D01*
X150200000Y-93900000D01*
X149800000Y-93900000D01*
X149800000Y-93200000D01*
X149350000Y-93200000D01*
X149350000Y-93900000D01*
X148950000Y-93900000D01*
X148950000Y-93200000D01*
X148500000Y-93200000D01*
X148500000Y-93900000D01*
X148100000Y-93900000D01*
X148100000Y-93200000D01*
X147650000Y-93200000D01*
X147650000Y-93900000D01*
X147250000Y-93900000D01*
X147250000Y-93200000D01*
X146800000Y-93200000D01*
X146800000Y-93900000D01*
X146400000Y-93900000D01*
X146400000Y-93200000D01*
X145950000Y-93200000D01*
X145950000Y-93900000D01*
X145550000Y-93900000D01*
X145550000Y-93200000D01*
X145100000Y-93200000D01*
X145100000Y-93900000D01*
X144700000Y-93900000D01*
X144700000Y-93200000D01*
X144250000Y-93200000D01*
X144250000Y-93900000D01*
X141060505Y-93900000D01*
X141091461Y-93869044D01*
X141287577Y-93623123D01*
X141397712Y-93447844D01*
X142100000Y-93447844D01*
X142106401Y-93507372D01*
X142106403Y-93507382D01*
X142134110Y-93581668D01*
X142139094Y-93651359D01*
X142134110Y-93668332D01*
X142106403Y-93742617D01*
X142106401Y-93742627D01*
X142100000Y-93802155D01*
X142100000Y-93850000D01*
X142750000Y-93850000D01*
X143250000Y-93850000D01*
X143850000Y-93850000D01*
X143850000Y-93250000D01*
X143250000Y-93250000D01*
X143250000Y-93850000D01*
X142750000Y-93850000D01*
X142750000Y-93250000D01*
X142100000Y-93250000D01*
X142100000Y-93447844D01*
X141397712Y-93447844D01*
X141454926Y-93356789D01*
X141530432Y-93200000D01*
X141556998Y-93144836D01*
X141556999Y-93144834D01*
X141591399Y-93073400D01*
X141591401Y-93073396D01*
X141617171Y-92999749D01*
X141687066Y-92800000D01*
X144250000Y-92800000D01*
X144700000Y-92800000D01*
X145100000Y-92800000D01*
X145550000Y-92800000D01*
X145950000Y-92800000D01*
X146400000Y-92800000D01*
X146800000Y-92800000D01*
X147250000Y-92800000D01*
X147650000Y-92800000D01*
X148100000Y-92800000D01*
X148500000Y-92800000D01*
X148950000Y-92800000D01*
X149350000Y-92800000D01*
X149800000Y-92800000D01*
X150200000Y-92800000D01*
X150650000Y-92800000D01*
X151050000Y-92800000D01*
X151500000Y-92800000D01*
X151900000Y-92800000D01*
X152350000Y-92800000D01*
X152750000Y-92800000D01*
X153200000Y-92800000D01*
X153600000Y-92800000D01*
X154050000Y-92800000D01*
X154450000Y-92800000D01*
X154900000Y-92800000D01*
X155300000Y-92800000D01*
X155750000Y-92800000D01*
X155750000Y-92750000D01*
X156150000Y-92750000D01*
X156750000Y-92750000D01*
X157250000Y-92750000D01*
X157900000Y-92750000D01*
X157900000Y-92552172D01*
X157899999Y-92552155D01*
X157893598Y-92492627D01*
X157893596Y-92492620D01*
X157843354Y-92357913D01*
X157843350Y-92357906D01*
X157757190Y-92242812D01*
X157757187Y-92242809D01*
X157642093Y-92156649D01*
X157642086Y-92156645D01*
X157507379Y-92106403D01*
X157507372Y-92106401D01*
X157447844Y-92100000D01*
X157250000Y-92100000D01*
X157250000Y-92750000D01*
X156750000Y-92750000D01*
X156750000Y-92100000D01*
X156552155Y-92100000D01*
X156492627Y-92106401D01*
X156492617Y-92106403D01*
X156418332Y-92134110D01*
X156348641Y-92139094D01*
X156331668Y-92134110D01*
X156257382Y-92106403D01*
X156257372Y-92106401D01*
X156197844Y-92100000D01*
X156150000Y-92100000D01*
X156150000Y-92750000D01*
X155750000Y-92750000D01*
X155750000Y-92100000D01*
X155702155Y-92100000D01*
X155642627Y-92106401D01*
X155642617Y-92106403D01*
X155568332Y-92134110D01*
X155498641Y-92139094D01*
X155481668Y-92134110D01*
X155407382Y-92106403D01*
X155407372Y-92106401D01*
X155347844Y-92100000D01*
X155300000Y-92100000D01*
X155300000Y-92800000D01*
X154900000Y-92800000D01*
X154900000Y-92100000D01*
X154852155Y-92100000D01*
X154792627Y-92106401D01*
X154792617Y-92106403D01*
X154718332Y-92134110D01*
X154648641Y-92139094D01*
X154631668Y-92134110D01*
X154557382Y-92106403D01*
X154557372Y-92106401D01*
X154497844Y-92100000D01*
X154450000Y-92100000D01*
X154450000Y-92800000D01*
X154050000Y-92800000D01*
X154050000Y-92100000D01*
X154002155Y-92100000D01*
X153942627Y-92106401D01*
X153942617Y-92106403D01*
X153868332Y-92134110D01*
X153798641Y-92139094D01*
X153781668Y-92134110D01*
X153707382Y-92106403D01*
X153707372Y-92106401D01*
X153647844Y-92100000D01*
X153600000Y-92100000D01*
X153600000Y-92800000D01*
X153200000Y-92800000D01*
X153200000Y-92100000D01*
X153152155Y-92100000D01*
X153092627Y-92106401D01*
X153092617Y-92106403D01*
X153018332Y-92134110D01*
X152948641Y-92139094D01*
X152931668Y-92134110D01*
X152857382Y-92106403D01*
X152857372Y-92106401D01*
X152797844Y-92100000D01*
X152750000Y-92100000D01*
X152750000Y-92800000D01*
X152350000Y-92800000D01*
X152350000Y-92100000D01*
X152302155Y-92100000D01*
X152242627Y-92106401D01*
X152242617Y-92106403D01*
X152168332Y-92134110D01*
X152098641Y-92139094D01*
X152081668Y-92134110D01*
X152007382Y-92106403D01*
X152007372Y-92106401D01*
X151947844Y-92100000D01*
X151900000Y-92100000D01*
X151900000Y-92800000D01*
X151500000Y-92800000D01*
X151500000Y-92100000D01*
X151452155Y-92100000D01*
X151392627Y-92106401D01*
X151392617Y-92106403D01*
X151318332Y-92134110D01*
X151248641Y-92139094D01*
X151231668Y-92134110D01*
X151157382Y-92106403D01*
X151157372Y-92106401D01*
X151097844Y-92100000D01*
X151050000Y-92100000D01*
X151050000Y-92800000D01*
X150650000Y-92800000D01*
X150650000Y-92100000D01*
X150602155Y-92100000D01*
X150542627Y-92106401D01*
X150542617Y-92106403D01*
X150468332Y-92134110D01*
X150398641Y-92139094D01*
X150381668Y-92134110D01*
X150307382Y-92106403D01*
X150307372Y-92106401D01*
X150247844Y-92100000D01*
X150200000Y-92100000D01*
X150200000Y-92800000D01*
X149800000Y-92800000D01*
X149800000Y-92100000D01*
X149752155Y-92100000D01*
X149692627Y-92106401D01*
X149692617Y-92106403D01*
X149618332Y-92134110D01*
X149548641Y-92139094D01*
X149531668Y-92134110D01*
X149457382Y-92106403D01*
X149457372Y-92106401D01*
X149397844Y-92100000D01*
X149350000Y-92100000D01*
X149350000Y-92800000D01*
X148950000Y-92800000D01*
X148950000Y-92100000D01*
X148902155Y-92100000D01*
X148842627Y-92106401D01*
X148842617Y-92106403D01*
X148768332Y-92134110D01*
X148698641Y-92139094D01*
X148681668Y-92134110D01*
X148607382Y-92106403D01*
X148607372Y-92106401D01*
X148547844Y-92100000D01*
X148500000Y-92100000D01*
X148500000Y-92800000D01*
X148100000Y-92800000D01*
X148100000Y-92100000D01*
X148052155Y-92100000D01*
X147992627Y-92106401D01*
X147992617Y-92106403D01*
X147918332Y-92134110D01*
X147848641Y-92139094D01*
X147831668Y-92134110D01*
X147757382Y-92106403D01*
X147757372Y-92106401D01*
X147697844Y-92100000D01*
X147650000Y-92100000D01*
X147650000Y-92800000D01*
X147250000Y-92800000D01*
X147250000Y-92100000D01*
X147202155Y-92100000D01*
X147142627Y-92106401D01*
X147142617Y-92106403D01*
X147068332Y-92134110D01*
X146998641Y-92139094D01*
X146981668Y-92134110D01*
X146907382Y-92106403D01*
X146907372Y-92106401D01*
X146847844Y-92100000D01*
X146800000Y-92100000D01*
X146800000Y-92800000D01*
X146400000Y-92800000D01*
X146400000Y-92100000D01*
X146352155Y-92100000D01*
X146292627Y-92106401D01*
X146292617Y-92106403D01*
X146218332Y-92134110D01*
X146148641Y-92139094D01*
X146131668Y-92134110D01*
X146057382Y-92106403D01*
X146057372Y-92106401D01*
X145997844Y-92100000D01*
X145950000Y-92100000D01*
X145950000Y-92800000D01*
X145550000Y-92800000D01*
X145550000Y-92100000D01*
X145502155Y-92100000D01*
X145442627Y-92106401D01*
X145442617Y-92106403D01*
X145368332Y-92134110D01*
X145298641Y-92139094D01*
X145281668Y-92134110D01*
X145207382Y-92106403D01*
X145207372Y-92106401D01*
X145147844Y-92100000D01*
X145100000Y-92100000D01*
X145100000Y-92800000D01*
X144700000Y-92800000D01*
X144700000Y-92100000D01*
X144652155Y-92100000D01*
X144592627Y-92106401D01*
X144592617Y-92106403D01*
X144518332Y-92134110D01*
X144448641Y-92139094D01*
X144431668Y-92134110D01*
X144357382Y-92106403D01*
X144357372Y-92106401D01*
X144297844Y-92100000D01*
X144250000Y-92100000D01*
X144250000Y-92800000D01*
X141687066Y-92800000D01*
X141695289Y-92776500D01*
X141746494Y-92552155D01*
X142100000Y-92552155D01*
X142100000Y-92750000D01*
X142750000Y-92750000D01*
X143250000Y-92750000D01*
X143850000Y-92750000D01*
X143850000Y-92100000D01*
X143802155Y-92100000D01*
X143742627Y-92106401D01*
X143742617Y-92106403D01*
X143668332Y-92134110D01*
X143598641Y-92139094D01*
X143581668Y-92134110D01*
X143507382Y-92106403D01*
X143507372Y-92106401D01*
X143447844Y-92100000D01*
X143250000Y-92100000D01*
X143250000Y-92750000D01*
X142750000Y-92750000D01*
X142750000Y-92100000D01*
X142552155Y-92100000D01*
X142492627Y-92106401D01*
X142492620Y-92106403D01*
X142357913Y-92156645D01*
X142357906Y-92156649D01*
X142242812Y-92242809D01*
X142242809Y-92242812D01*
X142156649Y-92357906D01*
X142156645Y-92357913D01*
X142106403Y-92492620D01*
X142106401Y-92492627D01*
X142100000Y-92552155D01*
X141746494Y-92552155D01*
X141765282Y-92469840D01*
X141800500Y-92157273D01*
X141800500Y-91842727D01*
X141765282Y-91530160D01*
X141695289Y-91223500D01*
X141591402Y-90926606D01*
X141454926Y-90643211D01*
X141287577Y-90376877D01*
X141091461Y-90130956D01*
X140869044Y-89908539D01*
X140623123Y-89712423D01*
X140396788Y-89570207D01*
X140356783Y-89545070D01*
X140276109Y-89506220D01*
X140224249Y-89459398D01*
X140205936Y-89391971D01*
X140226984Y-89325347D01*
X140280710Y-89280678D01*
X140329910Y-89270500D01*
X140675932Y-89270500D01*
X140742971Y-89290185D01*
X140786416Y-89338203D01*
X140846657Y-89456433D01*
X140985483Y-89647510D01*
X141152490Y-89814517D01*
X141343567Y-89953343D01*
X141442991Y-90004002D01*
X141554003Y-90060566D01*
X141554005Y-90060566D01*
X141554008Y-90060568D01*
X141674412Y-90099689D01*
X141778631Y-90133553D01*
X142011903Y-90170500D01*
X142011908Y-90170500D01*
X142248097Y-90170500D01*
X142481368Y-90133553D01*
X142489361Y-90130956D01*
X142705992Y-90060568D01*
X142916433Y-89953343D01*
X143107510Y-89814517D01*
X143274517Y-89647510D01*
X143299682Y-89612872D01*
X143355011Y-89570207D01*
X143424625Y-89564228D01*
X143486420Y-89596833D01*
X143500315Y-89612870D01*
X143525483Y-89647510D01*
X143692490Y-89814517D01*
X143883567Y-89953343D01*
X143982991Y-90004002D01*
X144094003Y-90060566D01*
X144094005Y-90060566D01*
X144094008Y-90060568D01*
X144214412Y-90099689D01*
X144318631Y-90133553D01*
X144551903Y-90170500D01*
X144551908Y-90170500D01*
X144788097Y-90170500D01*
X145021368Y-90133553D01*
X145029361Y-90130956D01*
X145245992Y-90060568D01*
X145456433Y-89953343D01*
X145647510Y-89814517D01*
X145814517Y-89647510D01*
X145953343Y-89456433D01*
X146060568Y-89245992D01*
X146133553Y-89021368D01*
X146170500Y-88788097D01*
X146170500Y-88551902D01*
X146133553Y-88318631D01*
X146075304Y-88139360D01*
X146060568Y-88094008D01*
X146060566Y-88094005D01*
X146060566Y-88094003D01*
X145965644Y-87907709D01*
X145953343Y-87883567D01*
X145814517Y-87692490D01*
X145647510Y-87525483D01*
X145588282Y-87482451D01*
X145545617Y-87427122D01*
X145537550Y-87372404D01*
X145539104Y-87352657D01*
X144799408Y-86612962D01*
X144862993Y-86595925D01*
X144977007Y-86530099D01*
X145070099Y-86437007D01*
X145135925Y-86322993D01*
X145152962Y-86259409D01*
X145892658Y-86999105D01*
X145892658Y-86999104D01*
X145952914Y-86916169D01*
X145952918Y-86916163D01*
X146060102Y-86705802D01*
X146133065Y-86481247D01*
X146170000Y-86248052D01*
X146170000Y-86011947D01*
X146133065Y-85778752D01*
X146060102Y-85554197D01*
X145952914Y-85343828D01*
X145892658Y-85260894D01*
X145892658Y-85260893D01*
X145152962Y-86000590D01*
X145135925Y-85937007D01*
X145070099Y-85822993D01*
X144977007Y-85729901D01*
X144862993Y-85664075D01*
X144799409Y-85647037D01*
X145539105Y-84907340D01*
X145539104Y-84907338D01*
X145456174Y-84847087D01*
X145245802Y-84739897D01*
X145021247Y-84666934D01*
X145021248Y-84666934D01*
X144788052Y-84630000D01*
X144551948Y-84630000D01*
X144318752Y-84666934D01*
X144094197Y-84739897D01*
X143883830Y-84847084D01*
X143800894Y-84907340D01*
X144540591Y-85647037D01*
X144477007Y-85664075D01*
X144362993Y-85729901D01*
X144269901Y-85822993D01*
X144204075Y-85937007D01*
X144187037Y-86000591D01*
X143447340Y-85260894D01*
X143387084Y-85343830D01*
X143279897Y-85554197D01*
X143206934Y-85778752D01*
X143170000Y-86011947D01*
X143170000Y-86248052D01*
X143206934Y-86481247D01*
X143279897Y-86705802D01*
X143387087Y-86916174D01*
X143447338Y-86999104D01*
X143447340Y-86999105D01*
X144187037Y-86259408D01*
X144204075Y-86322993D01*
X144269901Y-86437007D01*
X144362993Y-86530099D01*
X144477007Y-86595925D01*
X144540590Y-86612962D01*
X143800893Y-87352658D01*
X143802448Y-87372405D01*
X143788084Y-87440783D01*
X143751717Y-87482451D01*
X143692490Y-87525482D01*
X143525484Y-87692488D01*
X143500318Y-87727127D01*
X143444987Y-87769792D01*
X143375374Y-87775771D01*
X143313579Y-87743165D01*
X143299682Y-87727127D01*
X143283677Y-87705098D01*
X143274517Y-87692490D01*
X143107510Y-87525483D01*
X142916433Y-87386657D01*
X142888460Y-87372404D01*
X142705996Y-87279433D01*
X142481368Y-87206446D01*
X142248097Y-87169500D01*
X142248092Y-87169500D01*
X142011908Y-87169500D01*
X142011903Y-87169500D01*
X141778631Y-87206446D01*
X141554003Y-87279433D01*
X141343566Y-87386657D01*
X141269069Y-87440783D01*
X141152490Y-87525483D01*
X141152488Y-87525485D01*
X141152487Y-87525485D01*
X140985485Y-87692487D01*
X140985485Y-87692488D01*
X140985483Y-87692490D01*
X140929320Y-87769792D01*
X140846657Y-87883566D01*
X140845380Y-87886073D01*
X140788855Y-87997011D01*
X140786417Y-88001795D01*
X140738442Y-88052591D01*
X140675932Y-88069500D01*
X138195353Y-88069500D01*
X138174107Y-88063261D01*
X138152020Y-88061682D01*
X138141236Y-88053609D01*
X138128314Y-88049815D01*
X138113815Y-88033083D01*
X138096086Y-88019811D01*
X138091378Y-88007188D01*
X138082559Y-87997011D01*
X138079407Y-87975094D01*
X138071669Y-87954346D01*
X138074531Y-87941185D01*
X138072615Y-87927853D01*
X138081814Y-87907709D01*
X138086521Y-87886073D01*
X138099790Y-87868345D01*
X138101640Y-87864297D01*
X138107657Y-87857833D01*
X138258408Y-87707082D01*
X138262486Y-87703189D01*
X138838647Y-87177948D01*
X138842920Y-87174230D01*
X139442716Y-86676165D01*
X139447154Y-86672649D01*
X140069328Y-86202806D01*
X140073917Y-86199503D01*
X140717141Y-85758886D01*
X140721858Y-85755812D01*
X141384745Y-85345369D01*
X141389623Y-85342504D01*
X142070708Y-84963142D01*
X142075756Y-84960480D01*
X142773667Y-84612962D01*
X142778731Y-84610584D01*
X143491979Y-84295655D01*
X143497217Y-84293485D01*
X144224223Y-84011841D01*
X144229532Y-84009925D01*
X144968748Y-83762165D01*
X144974197Y-83760478D01*
X145724052Y-83547126D01*
X145729516Y-83545707D01*
X146488423Y-83367213D01*
X146494009Y-83366034D01*
X147260351Y-83222780D01*
X147265982Y-83221861D01*
X148038109Y-83114154D01*
X148043760Y-83113499D01*
X148820023Y-83041567D01*
X148825728Y-83041171D01*
X149604492Y-83005167D01*
X149610219Y-83005035D01*
X150389781Y-83005035D01*
X150395508Y-83005167D01*
G37*
%TD.AperFunction*%
%TA.AperFunction,Conductor*%
G36*
X153146115Y-110395852D02*
G01*
X153171859Y-110394011D01*
X153180369Y-110398658D01*
X153190034Y-110399450D01*
X153210531Y-110415127D01*
X153233182Y-110427496D01*
X153237829Y-110436007D01*
X153245531Y-110441898D01*
X153254299Y-110466171D01*
X153266666Y-110488820D01*
X153268439Y-110505315D01*
X153269269Y-110507611D01*
X153268872Y-110509345D01*
X153269500Y-110515177D01*
X153269500Y-110798465D01*
X153297108Y-110937263D01*
X153297196Y-110937721D01*
X153293866Y-110972024D01*
X153290791Y-111006400D01*
X153290493Y-111006782D01*
X153290447Y-111007264D01*
X153269089Y-111034336D01*
X153247928Y-111061578D01*
X153247471Y-111061738D01*
X153247172Y-111062119D01*
X153214502Y-111073369D01*
X153182038Y-111084822D01*
X153181179Y-111084845D01*
X153181110Y-111084869D01*
X153181028Y-111084849D01*
X153175401Y-111085000D01*
X153024500Y-111085000D01*
X152957461Y-111065315D01*
X152911706Y-111012511D01*
X152900500Y-110961000D01*
X152900499Y-110687130D01*
X152900499Y-110687128D01*
X152896659Y-110651409D01*
X152897183Y-110648501D01*
X152896180Y-110645722D01*
X152903346Y-110614345D01*
X152909065Y-110582651D01*
X152911279Y-110579613D01*
X152911738Y-110577606D01*
X152917739Y-110570751D01*
X152933180Y-110549572D01*
X152939050Y-110543821D01*
X153007546Y-110492546D01*
X153051935Y-110433249D01*
X153058731Y-110426593D01*
X153081506Y-110414461D01*
X153102167Y-110398995D01*
X153111839Y-110398303D01*
X153120397Y-110393745D01*
X153146115Y-110395852D01*
G37*
%TD.AperFunction*%
%TD*%
M02*
