%TF.GenerationSoftware,KiCad,Pcbnew,9.0.5*%
%TF.CreationDate,2026-03-24T11:01:47-07:00*%
%TF.ProjectId,ESP32_PCB,45535033-325f-4504-9342-2e6b69636164,rev?*%
%TF.SameCoordinates,Original*%
%TF.FileFunction,Legend,Bot*%
%TF.FilePolarity,Positive*%
%FSLAX46Y46*%
G04 Gerber Fmt 4.6, Leading zero omitted, Abs format (unit mm)*
G04 Created by KiCad (PCBNEW 9.0.5) date 2026-03-24 11:01:47*
%MOMM*%
%LPD*%
G01*
G04 APERTURE LIST*
%ADD10C,0.100000*%
%ADD11C,0.150000*%
%ADD12C,0.120000*%
G04 APERTURE END LIST*
D10*
X143128571Y-90626800D02*
X143014285Y-90664895D01*
X143014285Y-90664895D02*
X142823809Y-90664895D01*
X142823809Y-90664895D02*
X142747618Y-90626800D01*
X142747618Y-90626800D02*
X142709523Y-90588704D01*
X142709523Y-90588704D02*
X142671428Y-90512514D01*
X142671428Y-90512514D02*
X142671428Y-90436323D01*
X142671428Y-90436323D02*
X142709523Y-90360133D01*
X142709523Y-90360133D02*
X142747618Y-90322038D01*
X142747618Y-90322038D02*
X142823809Y-90283942D01*
X142823809Y-90283942D02*
X142976190Y-90245847D01*
X142976190Y-90245847D02*
X143052380Y-90207752D01*
X143052380Y-90207752D02*
X143090475Y-90169657D01*
X143090475Y-90169657D02*
X143128571Y-90093466D01*
X143128571Y-90093466D02*
X143128571Y-90017276D01*
X143128571Y-90017276D02*
X143090475Y-89941085D01*
X143090475Y-89941085D02*
X143052380Y-89902990D01*
X143052380Y-89902990D02*
X142976190Y-89864895D01*
X142976190Y-89864895D02*
X142785713Y-89864895D01*
X142785713Y-89864895D02*
X142671428Y-89902990D01*
X141871427Y-90588704D02*
X141909523Y-90626800D01*
X141909523Y-90626800D02*
X142023808Y-90664895D01*
X142023808Y-90664895D02*
X142099999Y-90664895D01*
X142099999Y-90664895D02*
X142214285Y-90626800D01*
X142214285Y-90626800D02*
X142290475Y-90550609D01*
X142290475Y-90550609D02*
X142328570Y-90474419D01*
X142328570Y-90474419D02*
X142366666Y-90322038D01*
X142366666Y-90322038D02*
X142366666Y-90207752D01*
X142366666Y-90207752D02*
X142328570Y-90055371D01*
X142328570Y-90055371D02*
X142290475Y-89979180D01*
X142290475Y-89979180D02*
X142214285Y-89902990D01*
X142214285Y-89902990D02*
X142099999Y-89864895D01*
X142099999Y-89864895D02*
X142023808Y-89864895D01*
X142023808Y-89864895D02*
X141909523Y-89902990D01*
X141909523Y-89902990D02*
X141871427Y-89941085D01*
X141528570Y-90664895D02*
X141528570Y-89864895D01*
X141071427Y-90664895D02*
X141414285Y-90207752D01*
X141071427Y-89864895D02*
X141528570Y-90322038D01*
X145861904Y-90664895D02*
X145861904Y-89864895D01*
X145861904Y-89864895D02*
X145671428Y-89864895D01*
X145671428Y-89864895D02*
X145557142Y-89902990D01*
X145557142Y-89902990D02*
X145480952Y-89979180D01*
X145480952Y-89979180D02*
X145442857Y-90055371D01*
X145442857Y-90055371D02*
X145404761Y-90207752D01*
X145404761Y-90207752D02*
X145404761Y-90322038D01*
X145404761Y-90322038D02*
X145442857Y-90474419D01*
X145442857Y-90474419D02*
X145480952Y-90550609D01*
X145480952Y-90550609D02*
X145557142Y-90626800D01*
X145557142Y-90626800D02*
X145671428Y-90664895D01*
X145671428Y-90664895D02*
X145861904Y-90664895D01*
X144719047Y-90664895D02*
X144719047Y-90245847D01*
X144719047Y-90245847D02*
X144757142Y-90169657D01*
X144757142Y-90169657D02*
X144833333Y-90131561D01*
X144833333Y-90131561D02*
X144985714Y-90131561D01*
X144985714Y-90131561D02*
X145061904Y-90169657D01*
X144719047Y-90626800D02*
X144795238Y-90664895D01*
X144795238Y-90664895D02*
X144985714Y-90664895D01*
X144985714Y-90664895D02*
X145061904Y-90626800D01*
X145061904Y-90626800D02*
X145100000Y-90550609D01*
X145100000Y-90550609D02*
X145100000Y-90474419D01*
X145100000Y-90474419D02*
X145061904Y-90398228D01*
X145061904Y-90398228D02*
X144985714Y-90360133D01*
X144985714Y-90360133D02*
X144795238Y-90360133D01*
X144795238Y-90360133D02*
X144719047Y-90322038D01*
X144452380Y-90131561D02*
X144147618Y-90131561D01*
X144338094Y-89864895D02*
X144338094Y-90550609D01*
X144338094Y-90550609D02*
X144299999Y-90626800D01*
X144299999Y-90626800D02*
X144223809Y-90664895D01*
X144223809Y-90664895D02*
X144147618Y-90664895D01*
X143538094Y-90664895D02*
X143538094Y-90245847D01*
X143538094Y-90245847D02*
X143576189Y-90169657D01*
X143576189Y-90169657D02*
X143652380Y-90131561D01*
X143652380Y-90131561D02*
X143804761Y-90131561D01*
X143804761Y-90131561D02*
X143880951Y-90169657D01*
X143538094Y-90626800D02*
X143614285Y-90664895D01*
X143614285Y-90664895D02*
X143804761Y-90664895D01*
X143804761Y-90664895D02*
X143880951Y-90626800D01*
X143880951Y-90626800D02*
X143919047Y-90550609D01*
X143919047Y-90550609D02*
X143919047Y-90474419D01*
X143919047Y-90474419D02*
X143880951Y-90398228D01*
X143880951Y-90398228D02*
X143804761Y-90360133D01*
X143804761Y-90360133D02*
X143614285Y-90360133D01*
X143614285Y-90360133D02*
X143538094Y-90322038D01*
X153500000Y-99000000D02*
X155500000Y-99000000D01*
X156000000Y-97500000D02*
X163500000Y-97500000D01*
X163500000Y-100000000D01*
X156000000Y-100000000D01*
X156000000Y-97500000D01*
X155500000Y-99000000D02*
X155000000Y-98500000D01*
X155500000Y-96500000D02*
X155000000Y-97000000D01*
X155500000Y-96500000D02*
X155000000Y-96000000D01*
X156000000Y-95000000D02*
X163500000Y-95000000D01*
X163500000Y-97500000D01*
X156000000Y-97500000D01*
X156000000Y-95000000D01*
X155500000Y-99000000D02*
X155000000Y-99500000D01*
X153500000Y-96500000D02*
X155500000Y-96500000D01*
X143245645Y-85692798D02*
X143658038Y-85454703D01*
X143658038Y-85454703D02*
X143158038Y-84588678D01*
X142695064Y-85405833D02*
X142406389Y-85572499D01*
X142544576Y-86097560D02*
X142956969Y-85859465D01*
X142956969Y-85859465D02*
X142456969Y-84993440D01*
X142456969Y-84993440D02*
X142044576Y-85231535D01*
X142173422Y-86311846D02*
X141673422Y-85445821D01*
X141673422Y-85445821D02*
X141467226Y-85564868D01*
X141467226Y-85564868D02*
X141367317Y-85677536D01*
X141367317Y-85677536D02*
X141332458Y-85807634D01*
X141332458Y-85807634D02*
X141338838Y-85913922D01*
X141338838Y-85913922D02*
X141392836Y-86102689D01*
X141392836Y-86102689D02*
X141464265Y-86226407D01*
X141464265Y-86226407D02*
X141600742Y-86367554D01*
X141600742Y-86367554D02*
X141689601Y-86426223D01*
X141689601Y-86426223D02*
X141819698Y-86461083D01*
X141819698Y-86461083D02*
X141967226Y-86430894D01*
X141967226Y-86430894D02*
X142173422Y-86311846D01*
X140664998Y-87127750D02*
X140565089Y-87240418D01*
X140565089Y-87240418D02*
X140358893Y-87359465D01*
X140358893Y-87359465D02*
X140252605Y-87365845D01*
X140252605Y-87365845D02*
X140187556Y-87348415D01*
X140187556Y-87348415D02*
X140098697Y-87289746D01*
X140098697Y-87289746D02*
X140051078Y-87207267D01*
X140051078Y-87207267D02*
X140044699Y-87100979D01*
X140044699Y-87100979D02*
X140062128Y-87035930D01*
X140062128Y-87035930D02*
X140120797Y-86947072D01*
X140120797Y-86947072D02*
X140261945Y-86810595D01*
X140261945Y-86810595D02*
X140320614Y-86721736D01*
X140320614Y-86721736D02*
X140338044Y-86656688D01*
X140338044Y-86656688D02*
X140331664Y-86550399D01*
X140331664Y-86550399D02*
X140284045Y-86467921D01*
X140284045Y-86467921D02*
X140195187Y-86409252D01*
X140195187Y-86409252D02*
X140130138Y-86391822D01*
X140130138Y-86391822D02*
X140023850Y-86398202D01*
X140023850Y-86398202D02*
X139817653Y-86517249D01*
X139817653Y-86517249D02*
X139717745Y-86629917D01*
X139613166Y-87020210D02*
X139283252Y-87210686D01*
X139322782Y-86802964D02*
X139751353Y-87545271D01*
X139751353Y-87545271D02*
X139757733Y-87651559D01*
X139757733Y-87651559D02*
X139699064Y-87740418D01*
X139699064Y-87740418D02*
X139616585Y-87788037D01*
X139327910Y-87954703D02*
X138994576Y-87377353D01*
X139089814Y-87542310D02*
X139000956Y-87483641D01*
X139000956Y-87483641D02*
X138935907Y-87466212D01*
X138935907Y-87466212D02*
X138829619Y-87472591D01*
X138829619Y-87472591D02*
X138747141Y-87520210D01*
X138791798Y-88264227D02*
X138458465Y-87686877D01*
X138291798Y-87398202D02*
X138356847Y-87415632D01*
X138356847Y-87415632D02*
X138339417Y-87480681D01*
X138339417Y-87480681D02*
X138274369Y-87463251D01*
X138274369Y-87463251D02*
X138291798Y-87398202D01*
X138291798Y-87398202D02*
X138339417Y-87480681D01*
X138046072Y-87924972D02*
X138546072Y-88790998D01*
X138069882Y-87966212D02*
X137963594Y-87972591D01*
X137963594Y-87972591D02*
X137798637Y-88067829D01*
X137798637Y-88067829D02*
X137739967Y-88156688D01*
X137739967Y-88156688D02*
X137722538Y-88221737D01*
X137722538Y-88221737D02*
X137728917Y-88328025D01*
X137728917Y-88328025D02*
X137871775Y-88575461D01*
X137871775Y-88575461D02*
X137960633Y-88634130D01*
X137960633Y-88634130D02*
X138025682Y-88651559D01*
X138025682Y-88651559D02*
X138131970Y-88645180D01*
X138131970Y-88645180D02*
X138296927Y-88549942D01*
X138296927Y-88549942D02*
X138355596Y-88461083D01*
X152862782Y-98933609D02*
X152719925Y-98981228D01*
X152719925Y-98981228D02*
X152672306Y-99028847D01*
X152672306Y-99028847D02*
X152624687Y-99124085D01*
X152624687Y-99124085D02*
X152624687Y-99266942D01*
X152624687Y-99266942D02*
X152672306Y-99362180D01*
X152672306Y-99362180D02*
X152719925Y-99409800D01*
X152719925Y-99409800D02*
X152815163Y-99457419D01*
X152815163Y-99457419D02*
X153196115Y-99457419D01*
X153196115Y-99457419D02*
X153196115Y-98457419D01*
X153196115Y-98457419D02*
X152862782Y-98457419D01*
X152862782Y-98457419D02*
X152767544Y-98505038D01*
X152767544Y-98505038D02*
X152719925Y-98552657D01*
X152719925Y-98552657D02*
X152672306Y-98647895D01*
X152672306Y-98647895D02*
X152672306Y-98743133D01*
X152672306Y-98743133D02*
X152719925Y-98838371D01*
X152719925Y-98838371D02*
X152767544Y-98885990D01*
X152767544Y-98885990D02*
X152862782Y-98933609D01*
X152862782Y-98933609D02*
X153196115Y-98933609D01*
X152053258Y-99457419D02*
X152148496Y-99409800D01*
X152148496Y-99409800D02*
X152196115Y-99362180D01*
X152196115Y-99362180D02*
X152243734Y-99266942D01*
X152243734Y-99266942D02*
X152243734Y-98981228D01*
X152243734Y-98981228D02*
X152196115Y-98885990D01*
X152196115Y-98885990D02*
X152148496Y-98838371D01*
X152148496Y-98838371D02*
X152053258Y-98790752D01*
X152053258Y-98790752D02*
X151910401Y-98790752D01*
X151910401Y-98790752D02*
X151815163Y-98838371D01*
X151815163Y-98838371D02*
X151767544Y-98885990D01*
X151767544Y-98885990D02*
X151719925Y-98981228D01*
X151719925Y-98981228D02*
X151719925Y-99266942D01*
X151719925Y-99266942D02*
X151767544Y-99362180D01*
X151767544Y-99362180D02*
X151815163Y-99409800D01*
X151815163Y-99409800D02*
X151910401Y-99457419D01*
X151910401Y-99457419D02*
X152053258Y-99457419D01*
X151148496Y-99457419D02*
X151243734Y-99409800D01*
X151243734Y-99409800D02*
X151291353Y-99362180D01*
X151291353Y-99362180D02*
X151338972Y-99266942D01*
X151338972Y-99266942D02*
X151338972Y-98981228D01*
X151338972Y-98981228D02*
X151291353Y-98885990D01*
X151291353Y-98885990D02*
X151243734Y-98838371D01*
X151243734Y-98838371D02*
X151148496Y-98790752D01*
X151148496Y-98790752D02*
X151005639Y-98790752D01*
X151005639Y-98790752D02*
X150910401Y-98838371D01*
X150910401Y-98838371D02*
X150862782Y-98885990D01*
X150862782Y-98885990D02*
X150815163Y-98981228D01*
X150815163Y-98981228D02*
X150815163Y-99266942D01*
X150815163Y-99266942D02*
X150862782Y-99362180D01*
X150862782Y-99362180D02*
X150910401Y-99409800D01*
X150910401Y-99409800D02*
X151005639Y-99457419D01*
X151005639Y-99457419D02*
X151148496Y-99457419D01*
X150529448Y-98790752D02*
X150148496Y-98790752D01*
X150386591Y-98457419D02*
X150386591Y-99314561D01*
X150386591Y-99314561D02*
X150338972Y-99409800D01*
X150338972Y-99409800D02*
X150243734Y-99457419D01*
X150243734Y-99457419D02*
X150148496Y-99457419D01*
X152624687Y-96957419D02*
X152958020Y-96481228D01*
X153196115Y-96957419D02*
X153196115Y-95957419D01*
X153196115Y-95957419D02*
X152815163Y-95957419D01*
X152815163Y-95957419D02*
X152719925Y-96005038D01*
X152719925Y-96005038D02*
X152672306Y-96052657D01*
X152672306Y-96052657D02*
X152624687Y-96147895D01*
X152624687Y-96147895D02*
X152624687Y-96290752D01*
X152624687Y-96290752D02*
X152672306Y-96385990D01*
X152672306Y-96385990D02*
X152719925Y-96433609D01*
X152719925Y-96433609D02*
X152815163Y-96481228D01*
X152815163Y-96481228D02*
X153196115Y-96481228D01*
X151815163Y-96909800D02*
X151910401Y-96957419D01*
X151910401Y-96957419D02*
X152100877Y-96957419D01*
X152100877Y-96957419D02*
X152196115Y-96909800D01*
X152196115Y-96909800D02*
X152243734Y-96814561D01*
X152243734Y-96814561D02*
X152243734Y-96433609D01*
X152243734Y-96433609D02*
X152196115Y-96338371D01*
X152196115Y-96338371D02*
X152100877Y-96290752D01*
X152100877Y-96290752D02*
X151910401Y-96290752D01*
X151910401Y-96290752D02*
X151815163Y-96338371D01*
X151815163Y-96338371D02*
X151767544Y-96433609D01*
X151767544Y-96433609D02*
X151767544Y-96528847D01*
X151767544Y-96528847D02*
X152243734Y-96624085D01*
X151386591Y-96909800D02*
X151291353Y-96957419D01*
X151291353Y-96957419D02*
X151100877Y-96957419D01*
X151100877Y-96957419D02*
X151005639Y-96909800D01*
X151005639Y-96909800D02*
X150958020Y-96814561D01*
X150958020Y-96814561D02*
X150958020Y-96766942D01*
X150958020Y-96766942D02*
X151005639Y-96671704D01*
X151005639Y-96671704D02*
X151100877Y-96624085D01*
X151100877Y-96624085D02*
X151243734Y-96624085D01*
X151243734Y-96624085D02*
X151338972Y-96576466D01*
X151338972Y-96576466D02*
X151386591Y-96481228D01*
X151386591Y-96481228D02*
X151386591Y-96433609D01*
X151386591Y-96433609D02*
X151338972Y-96338371D01*
X151338972Y-96338371D02*
X151243734Y-96290752D01*
X151243734Y-96290752D02*
X151100877Y-96290752D01*
X151100877Y-96290752D02*
X151005639Y-96338371D01*
X150148496Y-96909800D02*
X150243734Y-96957419D01*
X150243734Y-96957419D02*
X150434210Y-96957419D01*
X150434210Y-96957419D02*
X150529448Y-96909800D01*
X150529448Y-96909800D02*
X150577067Y-96814561D01*
X150577067Y-96814561D02*
X150577067Y-96433609D01*
X150577067Y-96433609D02*
X150529448Y-96338371D01*
X150529448Y-96338371D02*
X150434210Y-96290752D01*
X150434210Y-96290752D02*
X150243734Y-96290752D01*
X150243734Y-96290752D02*
X150148496Y-96338371D01*
X150148496Y-96338371D02*
X150100877Y-96433609D01*
X150100877Y-96433609D02*
X150100877Y-96528847D01*
X150100877Y-96528847D02*
X150577067Y-96624085D01*
X149815162Y-96290752D02*
X149434210Y-96290752D01*
X149672305Y-95957419D02*
X149672305Y-96814561D01*
X149672305Y-96814561D02*
X149624686Y-96909800D01*
X149624686Y-96909800D02*
X149529448Y-96957419D01*
X149529448Y-96957419D02*
X149434210Y-96957419D01*
D11*
X139642857Y-96524819D02*
X139976190Y-96048628D01*
X140214285Y-96524819D02*
X140214285Y-95524819D01*
X140214285Y-95524819D02*
X139833333Y-95524819D01*
X139833333Y-95524819D02*
X139738095Y-95572438D01*
X139738095Y-95572438D02*
X139690476Y-95620057D01*
X139690476Y-95620057D02*
X139642857Y-95715295D01*
X139642857Y-95715295D02*
X139642857Y-95858152D01*
X139642857Y-95858152D02*
X139690476Y-95953390D01*
X139690476Y-95953390D02*
X139738095Y-96001009D01*
X139738095Y-96001009D02*
X139833333Y-96048628D01*
X139833333Y-96048628D02*
X140214285Y-96048628D01*
X138690476Y-96524819D02*
X139261904Y-96524819D01*
X138976190Y-96524819D02*
X138976190Y-95524819D01*
X138976190Y-95524819D02*
X139071428Y-95667676D01*
X139071428Y-95667676D02*
X139166666Y-95762914D01*
X139166666Y-95762914D02*
X139261904Y-95810533D01*
X137738095Y-96524819D02*
X138309523Y-96524819D01*
X138023809Y-96524819D02*
X138023809Y-95524819D01*
X138023809Y-95524819D02*
X138119047Y-95667676D01*
X138119047Y-95667676D02*
X138214285Y-95762914D01*
X138214285Y-95762914D02*
X138309523Y-95810533D01*
X149738094Y-95954819D02*
X149738094Y-94954819D01*
X149738094Y-94954819D02*
X149499999Y-94954819D01*
X149499999Y-94954819D02*
X149357142Y-95002438D01*
X149357142Y-95002438D02*
X149261904Y-95097676D01*
X149261904Y-95097676D02*
X149214285Y-95192914D01*
X149214285Y-95192914D02*
X149166666Y-95383390D01*
X149166666Y-95383390D02*
X149166666Y-95526247D01*
X149166666Y-95526247D02*
X149214285Y-95716723D01*
X149214285Y-95716723D02*
X149261904Y-95811961D01*
X149261904Y-95811961D02*
X149357142Y-95907200D01*
X149357142Y-95907200D02*
X149499999Y-95954819D01*
X149499999Y-95954819D02*
X149738094Y-95954819D01*
X148214285Y-95954819D02*
X148785713Y-95954819D01*
X148499999Y-95954819D02*
X148499999Y-94954819D01*
X148499999Y-94954819D02*
X148595237Y-95097676D01*
X148595237Y-95097676D02*
X148690475Y-95192914D01*
X148690475Y-95192914D02*
X148785713Y-95240533D01*
X158212628Y-88900000D02*
X158241200Y-88871428D01*
X158241200Y-88871428D02*
X158269771Y-88785714D01*
X158269771Y-88785714D02*
X158269771Y-88728571D01*
X158269771Y-88728571D02*
X158241200Y-88642857D01*
X158241200Y-88642857D02*
X158184057Y-88585714D01*
X158184057Y-88585714D02*
X158126914Y-88557143D01*
X158126914Y-88557143D02*
X158012628Y-88528571D01*
X158012628Y-88528571D02*
X157926914Y-88528571D01*
X157926914Y-88528571D02*
X157812628Y-88557143D01*
X157812628Y-88557143D02*
X157755485Y-88585714D01*
X157755485Y-88585714D02*
X157698342Y-88642857D01*
X157698342Y-88642857D02*
X157669771Y-88728571D01*
X157669771Y-88728571D02*
X157669771Y-88785714D01*
X157669771Y-88785714D02*
X157698342Y-88871428D01*
X157698342Y-88871428D02*
X157726914Y-88900000D01*
X157669771Y-89100000D02*
X157669771Y-89500000D01*
X157669771Y-89500000D02*
X158269771Y-89242857D01*
X148238094Y-101954819D02*
X148238094Y-100954819D01*
X148238094Y-100954819D02*
X147999999Y-100954819D01*
X147999999Y-100954819D02*
X147857142Y-101002438D01*
X147857142Y-101002438D02*
X147761904Y-101097676D01*
X147761904Y-101097676D02*
X147714285Y-101192914D01*
X147714285Y-101192914D02*
X147666666Y-101383390D01*
X147666666Y-101383390D02*
X147666666Y-101526247D01*
X147666666Y-101526247D02*
X147714285Y-101716723D01*
X147714285Y-101716723D02*
X147761904Y-101811961D01*
X147761904Y-101811961D02*
X147857142Y-101907200D01*
X147857142Y-101907200D02*
X147999999Y-101954819D01*
X147999999Y-101954819D02*
X148238094Y-101954819D01*
X147285713Y-101050057D02*
X147238094Y-101002438D01*
X147238094Y-101002438D02*
X147142856Y-100954819D01*
X147142856Y-100954819D02*
X146904761Y-100954819D01*
X146904761Y-100954819D02*
X146809523Y-101002438D01*
X146809523Y-101002438D02*
X146761904Y-101050057D01*
X146761904Y-101050057D02*
X146714285Y-101145295D01*
X146714285Y-101145295D02*
X146714285Y-101240533D01*
X146714285Y-101240533D02*
X146761904Y-101383390D01*
X146761904Y-101383390D02*
X147333332Y-101954819D01*
X147333332Y-101954819D02*
X146714285Y-101954819D01*
X157212628Y-97214285D02*
X157241200Y-97185713D01*
X157241200Y-97185713D02*
X157269771Y-97099999D01*
X157269771Y-97099999D02*
X157269771Y-97042856D01*
X157269771Y-97042856D02*
X157241200Y-96957142D01*
X157241200Y-96957142D02*
X157184057Y-96899999D01*
X157184057Y-96899999D02*
X157126914Y-96871428D01*
X157126914Y-96871428D02*
X157012628Y-96842856D01*
X157012628Y-96842856D02*
X156926914Y-96842856D01*
X156926914Y-96842856D02*
X156812628Y-96871428D01*
X156812628Y-96871428D02*
X156755485Y-96899999D01*
X156755485Y-96899999D02*
X156698342Y-96957142D01*
X156698342Y-96957142D02*
X156669771Y-97042856D01*
X156669771Y-97042856D02*
X156669771Y-97099999D01*
X156669771Y-97099999D02*
X156698342Y-97185713D01*
X156698342Y-97185713D02*
X156726914Y-97214285D01*
X157269771Y-97785713D02*
X157269771Y-97442856D01*
X157269771Y-97614285D02*
X156669771Y-97614285D01*
X156669771Y-97614285D02*
X156755485Y-97557142D01*
X156755485Y-97557142D02*
X156812628Y-97499999D01*
X156812628Y-97499999D02*
X156841200Y-97442856D01*
X156669771Y-97985714D02*
X156669771Y-98357142D01*
X156669771Y-98357142D02*
X156898342Y-98157142D01*
X156898342Y-98157142D02*
X156898342Y-98242857D01*
X156898342Y-98242857D02*
X156926914Y-98300000D01*
X156926914Y-98300000D02*
X156955485Y-98328571D01*
X156955485Y-98328571D02*
X157012628Y-98357142D01*
X157012628Y-98357142D02*
X157155485Y-98357142D01*
X157155485Y-98357142D02*
X157212628Y-98328571D01*
X157212628Y-98328571D02*
X157241200Y-98300000D01*
X157241200Y-98300000D02*
X157269771Y-98242857D01*
X157269771Y-98242857D02*
X157269771Y-98071428D01*
X157269771Y-98071428D02*
X157241200Y-98014285D01*
X157241200Y-98014285D02*
X157212628Y-97985714D01*
X153666666Y-111929580D02*
X153714285Y-111977200D01*
X153714285Y-111977200D02*
X153857142Y-112024819D01*
X153857142Y-112024819D02*
X153952380Y-112024819D01*
X153952380Y-112024819D02*
X154095237Y-111977200D01*
X154095237Y-111977200D02*
X154190475Y-111881961D01*
X154190475Y-111881961D02*
X154238094Y-111786723D01*
X154238094Y-111786723D02*
X154285713Y-111596247D01*
X154285713Y-111596247D02*
X154285713Y-111453390D01*
X154285713Y-111453390D02*
X154238094Y-111262914D01*
X154238094Y-111262914D02*
X154190475Y-111167676D01*
X154190475Y-111167676D02*
X154095237Y-111072438D01*
X154095237Y-111072438D02*
X153952380Y-111024819D01*
X153952380Y-111024819D02*
X153857142Y-111024819D01*
X153857142Y-111024819D02*
X153714285Y-111072438D01*
X153714285Y-111072438D02*
X153666666Y-111120057D01*
X153285713Y-111120057D02*
X153238094Y-111072438D01*
X153238094Y-111072438D02*
X153142856Y-111024819D01*
X153142856Y-111024819D02*
X152904761Y-111024819D01*
X152904761Y-111024819D02*
X152809523Y-111072438D01*
X152809523Y-111072438D02*
X152761904Y-111120057D01*
X152761904Y-111120057D02*
X152714285Y-111215295D01*
X152714285Y-111215295D02*
X152714285Y-111310533D01*
X152714285Y-111310533D02*
X152761904Y-111453390D01*
X152761904Y-111453390D02*
X153333332Y-112024819D01*
X153333332Y-112024819D02*
X152714285Y-112024819D01*
X146859580Y-113333333D02*
X146907200Y-113285714D01*
X146907200Y-113285714D02*
X146954819Y-113142857D01*
X146954819Y-113142857D02*
X146954819Y-113047619D01*
X146954819Y-113047619D02*
X146907200Y-112904762D01*
X146907200Y-112904762D02*
X146811961Y-112809524D01*
X146811961Y-112809524D02*
X146716723Y-112761905D01*
X146716723Y-112761905D02*
X146526247Y-112714286D01*
X146526247Y-112714286D02*
X146383390Y-112714286D01*
X146383390Y-112714286D02*
X146192914Y-112761905D01*
X146192914Y-112761905D02*
X146097676Y-112809524D01*
X146097676Y-112809524D02*
X146002438Y-112904762D01*
X146002438Y-112904762D02*
X145954819Y-113047619D01*
X145954819Y-113047619D02*
X145954819Y-113142857D01*
X145954819Y-113142857D02*
X146002438Y-113285714D01*
X146002438Y-113285714D02*
X146050057Y-113333333D01*
X146954819Y-114285714D02*
X146954819Y-113714286D01*
X146954819Y-114000000D02*
X145954819Y-114000000D01*
X145954819Y-114000000D02*
X146097676Y-113904762D01*
X146097676Y-113904762D02*
X146192914Y-113809524D01*
X146192914Y-113809524D02*
X146240533Y-113714286D01*
X147666666Y-91454819D02*
X147999999Y-90978628D01*
X148238094Y-91454819D02*
X148238094Y-90454819D01*
X148238094Y-90454819D02*
X147857142Y-90454819D01*
X147857142Y-90454819D02*
X147761904Y-90502438D01*
X147761904Y-90502438D02*
X147714285Y-90550057D01*
X147714285Y-90550057D02*
X147666666Y-90645295D01*
X147666666Y-90645295D02*
X147666666Y-90788152D01*
X147666666Y-90788152D02*
X147714285Y-90883390D01*
X147714285Y-90883390D02*
X147761904Y-90931009D01*
X147761904Y-90931009D02*
X147857142Y-90978628D01*
X147857142Y-90978628D02*
X148238094Y-90978628D01*
X147095237Y-90883390D02*
X147190475Y-90835771D01*
X147190475Y-90835771D02*
X147238094Y-90788152D01*
X147238094Y-90788152D02*
X147285713Y-90692914D01*
X147285713Y-90692914D02*
X147285713Y-90645295D01*
X147285713Y-90645295D02*
X147238094Y-90550057D01*
X147238094Y-90550057D02*
X147190475Y-90502438D01*
X147190475Y-90502438D02*
X147095237Y-90454819D01*
X147095237Y-90454819D02*
X146904761Y-90454819D01*
X146904761Y-90454819D02*
X146809523Y-90502438D01*
X146809523Y-90502438D02*
X146761904Y-90550057D01*
X146761904Y-90550057D02*
X146714285Y-90645295D01*
X146714285Y-90645295D02*
X146714285Y-90692914D01*
X146714285Y-90692914D02*
X146761904Y-90788152D01*
X146761904Y-90788152D02*
X146809523Y-90835771D01*
X146809523Y-90835771D02*
X146904761Y-90883390D01*
X146904761Y-90883390D02*
X147095237Y-90883390D01*
X147095237Y-90883390D02*
X147190475Y-90931009D01*
X147190475Y-90931009D02*
X147238094Y-90978628D01*
X147238094Y-90978628D02*
X147285713Y-91073866D01*
X147285713Y-91073866D02*
X147285713Y-91264342D01*
X147285713Y-91264342D02*
X147238094Y-91359580D01*
X147238094Y-91359580D02*
X147190475Y-91407200D01*
X147190475Y-91407200D02*
X147095237Y-91454819D01*
X147095237Y-91454819D02*
X146904761Y-91454819D01*
X146904761Y-91454819D02*
X146809523Y-91407200D01*
X146809523Y-91407200D02*
X146761904Y-91359580D01*
X146761904Y-91359580D02*
X146714285Y-91264342D01*
X146714285Y-91264342D02*
X146714285Y-91073866D01*
X146714285Y-91073866D02*
X146761904Y-90978628D01*
X146761904Y-90978628D02*
X146809523Y-90931009D01*
X146809523Y-90931009D02*
X146904761Y-90883390D01*
X151385714Y-93072628D02*
X151414286Y-93101200D01*
X151414286Y-93101200D02*
X151500000Y-93129771D01*
X151500000Y-93129771D02*
X151557143Y-93129771D01*
X151557143Y-93129771D02*
X151642857Y-93101200D01*
X151642857Y-93101200D02*
X151700000Y-93044057D01*
X151700000Y-93044057D02*
X151728571Y-92986914D01*
X151728571Y-92986914D02*
X151757143Y-92872628D01*
X151757143Y-92872628D02*
X151757143Y-92786914D01*
X151757143Y-92786914D02*
X151728571Y-92672628D01*
X151728571Y-92672628D02*
X151700000Y-92615485D01*
X151700000Y-92615485D02*
X151642857Y-92558342D01*
X151642857Y-92558342D02*
X151557143Y-92529771D01*
X151557143Y-92529771D02*
X151500000Y-92529771D01*
X151500000Y-92529771D02*
X151414286Y-92558342D01*
X151414286Y-92558342D02*
X151385714Y-92586914D01*
X150814286Y-93129771D02*
X151157143Y-93129771D01*
X150985714Y-93129771D02*
X150985714Y-92529771D01*
X150985714Y-92529771D02*
X151042857Y-92615485D01*
X151042857Y-92615485D02*
X151100000Y-92672628D01*
X151100000Y-92672628D02*
X151157143Y-92701200D01*
X150442857Y-92529771D02*
X150385714Y-92529771D01*
X150385714Y-92529771D02*
X150328571Y-92558342D01*
X150328571Y-92558342D02*
X150300000Y-92586914D01*
X150300000Y-92586914D02*
X150271428Y-92644057D01*
X150271428Y-92644057D02*
X150242857Y-92758342D01*
X150242857Y-92758342D02*
X150242857Y-92901200D01*
X150242857Y-92901200D02*
X150271428Y-93015485D01*
X150271428Y-93015485D02*
X150300000Y-93072628D01*
X150300000Y-93072628D02*
X150328571Y-93101200D01*
X150328571Y-93101200D02*
X150385714Y-93129771D01*
X150385714Y-93129771D02*
X150442857Y-93129771D01*
X150442857Y-93129771D02*
X150500000Y-93101200D01*
X150500000Y-93101200D02*
X150528571Y-93072628D01*
X150528571Y-93072628D02*
X150557142Y-93015485D01*
X150557142Y-93015485D02*
X150585714Y-92901200D01*
X150585714Y-92901200D02*
X150585714Y-92758342D01*
X150585714Y-92758342D02*
X150557142Y-92644057D01*
X150557142Y-92644057D02*
X150528571Y-92586914D01*
X150528571Y-92586914D02*
X150500000Y-92558342D01*
X150500000Y-92558342D02*
X150442857Y-92529771D01*
X137359580Y-109833333D02*
X137407200Y-109785714D01*
X137407200Y-109785714D02*
X137454819Y-109642857D01*
X137454819Y-109642857D02*
X137454819Y-109547619D01*
X137454819Y-109547619D02*
X137407200Y-109404762D01*
X137407200Y-109404762D02*
X137311961Y-109309524D01*
X137311961Y-109309524D02*
X137216723Y-109261905D01*
X137216723Y-109261905D02*
X137026247Y-109214286D01*
X137026247Y-109214286D02*
X136883390Y-109214286D01*
X136883390Y-109214286D02*
X136692914Y-109261905D01*
X136692914Y-109261905D02*
X136597676Y-109309524D01*
X136597676Y-109309524D02*
X136502438Y-109404762D01*
X136502438Y-109404762D02*
X136454819Y-109547619D01*
X136454819Y-109547619D02*
X136454819Y-109642857D01*
X136454819Y-109642857D02*
X136502438Y-109785714D01*
X136502438Y-109785714D02*
X136550057Y-109833333D01*
X136454819Y-110738095D02*
X136454819Y-110261905D01*
X136454819Y-110261905D02*
X136931009Y-110214286D01*
X136931009Y-110214286D02*
X136883390Y-110261905D01*
X136883390Y-110261905D02*
X136835771Y-110357143D01*
X136835771Y-110357143D02*
X136835771Y-110595238D01*
X136835771Y-110595238D02*
X136883390Y-110690476D01*
X136883390Y-110690476D02*
X136931009Y-110738095D01*
X136931009Y-110738095D02*
X137026247Y-110785714D01*
X137026247Y-110785714D02*
X137264342Y-110785714D01*
X137264342Y-110785714D02*
X137359580Y-110738095D01*
X137359580Y-110738095D02*
X137407200Y-110690476D01*
X137407200Y-110690476D02*
X137454819Y-110595238D01*
X137454819Y-110595238D02*
X137454819Y-110357143D01*
X137454819Y-110357143D02*
X137407200Y-110261905D01*
X137407200Y-110261905D02*
X137359580Y-110214286D01*
X138024819Y-103833333D02*
X137548628Y-103500000D01*
X138024819Y-103261905D02*
X137024819Y-103261905D01*
X137024819Y-103261905D02*
X137024819Y-103642857D01*
X137024819Y-103642857D02*
X137072438Y-103738095D01*
X137072438Y-103738095D02*
X137120057Y-103785714D01*
X137120057Y-103785714D02*
X137215295Y-103833333D01*
X137215295Y-103833333D02*
X137358152Y-103833333D01*
X137358152Y-103833333D02*
X137453390Y-103785714D01*
X137453390Y-103785714D02*
X137501009Y-103738095D01*
X137501009Y-103738095D02*
X137548628Y-103642857D01*
X137548628Y-103642857D02*
X137548628Y-103261905D01*
X137358152Y-104690476D02*
X138024819Y-104690476D01*
X136977200Y-104452381D02*
X137691485Y-104214286D01*
X137691485Y-104214286D02*
X137691485Y-104833333D01*
X155166666Y-94024819D02*
X155499999Y-93548628D01*
X155738094Y-94024819D02*
X155738094Y-93024819D01*
X155738094Y-93024819D02*
X155357142Y-93024819D01*
X155357142Y-93024819D02*
X155261904Y-93072438D01*
X155261904Y-93072438D02*
X155214285Y-93120057D01*
X155214285Y-93120057D02*
X155166666Y-93215295D01*
X155166666Y-93215295D02*
X155166666Y-93358152D01*
X155166666Y-93358152D02*
X155214285Y-93453390D01*
X155214285Y-93453390D02*
X155261904Y-93501009D01*
X155261904Y-93501009D02*
X155357142Y-93548628D01*
X155357142Y-93548628D02*
X155738094Y-93548628D01*
X154690475Y-94024819D02*
X154499999Y-94024819D01*
X154499999Y-94024819D02*
X154404761Y-93977200D01*
X154404761Y-93977200D02*
X154357142Y-93929580D01*
X154357142Y-93929580D02*
X154261904Y-93786723D01*
X154261904Y-93786723D02*
X154214285Y-93596247D01*
X154214285Y-93596247D02*
X154214285Y-93215295D01*
X154214285Y-93215295D02*
X154261904Y-93120057D01*
X154261904Y-93120057D02*
X154309523Y-93072438D01*
X154309523Y-93072438D02*
X154404761Y-93024819D01*
X154404761Y-93024819D02*
X154595237Y-93024819D01*
X154595237Y-93024819D02*
X154690475Y-93072438D01*
X154690475Y-93072438D02*
X154738094Y-93120057D01*
X154738094Y-93120057D02*
X154785713Y-93215295D01*
X154785713Y-93215295D02*
X154785713Y-93453390D01*
X154785713Y-93453390D02*
X154738094Y-93548628D01*
X154738094Y-93548628D02*
X154690475Y-93596247D01*
X154690475Y-93596247D02*
X154595237Y-93643866D01*
X154595237Y-93643866D02*
X154404761Y-93643866D01*
X154404761Y-93643866D02*
X154309523Y-93596247D01*
X154309523Y-93596247D02*
X154261904Y-93548628D01*
X154261904Y-93548628D02*
X154214285Y-93453390D01*
X146666666Y-84454819D02*
X147142856Y-84454819D01*
X147142856Y-84454819D02*
X147142856Y-83454819D01*
X145809523Y-84454819D02*
X146380951Y-84454819D01*
X146095237Y-84454819D02*
X146095237Y-83454819D01*
X146095237Y-83454819D02*
X146190475Y-83597676D01*
X146190475Y-83597676D02*
X146285713Y-83692914D01*
X146285713Y-83692914D02*
X146380951Y-83740533D01*
X154761904Y-90954819D02*
X154761904Y-91764342D01*
X154761904Y-91764342D02*
X154714285Y-91859580D01*
X154714285Y-91859580D02*
X154666666Y-91907200D01*
X154666666Y-91907200D02*
X154571428Y-91954819D01*
X154571428Y-91954819D02*
X154380952Y-91954819D01*
X154380952Y-91954819D02*
X154285714Y-91907200D01*
X154285714Y-91907200D02*
X154238095Y-91859580D01*
X154238095Y-91859580D02*
X154190476Y-91764342D01*
X154190476Y-91764342D02*
X154190476Y-90954819D01*
X153285714Y-91288152D02*
X153285714Y-91954819D01*
X153523809Y-90907200D02*
X153761904Y-91621485D01*
X153761904Y-91621485D02*
X153142857Y-91621485D01*
X155238094Y-106954819D02*
X155238094Y-105954819D01*
X155238094Y-105954819D02*
X154999999Y-105954819D01*
X154999999Y-105954819D02*
X154857142Y-106002438D01*
X154857142Y-106002438D02*
X154761904Y-106097676D01*
X154761904Y-106097676D02*
X154714285Y-106192914D01*
X154714285Y-106192914D02*
X154666666Y-106383390D01*
X154666666Y-106383390D02*
X154666666Y-106526247D01*
X154666666Y-106526247D02*
X154714285Y-106716723D01*
X154714285Y-106716723D02*
X154761904Y-106811961D01*
X154761904Y-106811961D02*
X154857142Y-106907200D01*
X154857142Y-106907200D02*
X154999999Y-106954819D01*
X154999999Y-106954819D02*
X155238094Y-106954819D01*
X154333332Y-105954819D02*
X153714285Y-105954819D01*
X153714285Y-105954819D02*
X154047618Y-106335771D01*
X154047618Y-106335771D02*
X153904761Y-106335771D01*
X153904761Y-106335771D02*
X153809523Y-106383390D01*
X153809523Y-106383390D02*
X153761904Y-106431009D01*
X153761904Y-106431009D02*
X153714285Y-106526247D01*
X153714285Y-106526247D02*
X153714285Y-106764342D01*
X153714285Y-106764342D02*
X153761904Y-106859580D01*
X153761904Y-106859580D02*
X153809523Y-106907200D01*
X153809523Y-106907200D02*
X153904761Y-106954819D01*
X153904761Y-106954819D02*
X154190475Y-106954819D01*
X154190475Y-106954819D02*
X154285713Y-106907200D01*
X154285713Y-106907200D02*
X154333332Y-106859580D01*
X155212628Y-85400000D02*
X155241200Y-85371428D01*
X155241200Y-85371428D02*
X155269771Y-85285714D01*
X155269771Y-85285714D02*
X155269771Y-85228571D01*
X155269771Y-85228571D02*
X155241200Y-85142857D01*
X155241200Y-85142857D02*
X155184057Y-85085714D01*
X155184057Y-85085714D02*
X155126914Y-85057143D01*
X155126914Y-85057143D02*
X155012628Y-85028571D01*
X155012628Y-85028571D02*
X154926914Y-85028571D01*
X154926914Y-85028571D02*
X154812628Y-85057143D01*
X154812628Y-85057143D02*
X154755485Y-85085714D01*
X154755485Y-85085714D02*
X154698342Y-85142857D01*
X154698342Y-85142857D02*
X154669771Y-85228571D01*
X154669771Y-85228571D02*
X154669771Y-85285714D01*
X154669771Y-85285714D02*
X154698342Y-85371428D01*
X154698342Y-85371428D02*
X154726914Y-85400000D01*
X154926914Y-85742857D02*
X154898342Y-85685714D01*
X154898342Y-85685714D02*
X154869771Y-85657143D01*
X154869771Y-85657143D02*
X154812628Y-85628571D01*
X154812628Y-85628571D02*
X154784057Y-85628571D01*
X154784057Y-85628571D02*
X154726914Y-85657143D01*
X154726914Y-85657143D02*
X154698342Y-85685714D01*
X154698342Y-85685714D02*
X154669771Y-85742857D01*
X154669771Y-85742857D02*
X154669771Y-85857143D01*
X154669771Y-85857143D02*
X154698342Y-85914286D01*
X154698342Y-85914286D02*
X154726914Y-85942857D01*
X154726914Y-85942857D02*
X154784057Y-85971428D01*
X154784057Y-85971428D02*
X154812628Y-85971428D01*
X154812628Y-85971428D02*
X154869771Y-85942857D01*
X154869771Y-85942857D02*
X154898342Y-85914286D01*
X154898342Y-85914286D02*
X154926914Y-85857143D01*
X154926914Y-85857143D02*
X154926914Y-85742857D01*
X154926914Y-85742857D02*
X154955485Y-85685714D01*
X154955485Y-85685714D02*
X154984057Y-85657143D01*
X154984057Y-85657143D02*
X155041200Y-85628571D01*
X155041200Y-85628571D02*
X155155485Y-85628571D01*
X155155485Y-85628571D02*
X155212628Y-85657143D01*
X155212628Y-85657143D02*
X155241200Y-85685714D01*
X155241200Y-85685714D02*
X155269771Y-85742857D01*
X155269771Y-85742857D02*
X155269771Y-85857143D01*
X155269771Y-85857143D02*
X155241200Y-85914286D01*
X155241200Y-85914286D02*
X155212628Y-85942857D01*
X155212628Y-85942857D02*
X155155485Y-85971428D01*
X155155485Y-85971428D02*
X155041200Y-85971428D01*
X155041200Y-85971428D02*
X154984057Y-85942857D01*
X154984057Y-85942857D02*
X154955485Y-85914286D01*
X154955485Y-85914286D02*
X154926914Y-85857143D01*
X158212628Y-97214285D02*
X158241200Y-97185713D01*
X158241200Y-97185713D02*
X158269771Y-97099999D01*
X158269771Y-97099999D02*
X158269771Y-97042856D01*
X158269771Y-97042856D02*
X158241200Y-96957142D01*
X158241200Y-96957142D02*
X158184057Y-96899999D01*
X158184057Y-96899999D02*
X158126914Y-96871428D01*
X158126914Y-96871428D02*
X158012628Y-96842856D01*
X158012628Y-96842856D02*
X157926914Y-96842856D01*
X157926914Y-96842856D02*
X157812628Y-96871428D01*
X157812628Y-96871428D02*
X157755485Y-96899999D01*
X157755485Y-96899999D02*
X157698342Y-96957142D01*
X157698342Y-96957142D02*
X157669771Y-97042856D01*
X157669771Y-97042856D02*
X157669771Y-97099999D01*
X157669771Y-97099999D02*
X157698342Y-97185713D01*
X157698342Y-97185713D02*
X157726914Y-97214285D01*
X158269771Y-97785713D02*
X158269771Y-97442856D01*
X158269771Y-97614285D02*
X157669771Y-97614285D01*
X157669771Y-97614285D02*
X157755485Y-97557142D01*
X157755485Y-97557142D02*
X157812628Y-97499999D01*
X157812628Y-97499999D02*
X157841200Y-97442856D01*
X157726914Y-98014285D02*
X157698342Y-98042857D01*
X157698342Y-98042857D02*
X157669771Y-98100000D01*
X157669771Y-98100000D02*
X157669771Y-98242857D01*
X157669771Y-98242857D02*
X157698342Y-98300000D01*
X157698342Y-98300000D02*
X157726914Y-98328571D01*
X157726914Y-98328571D02*
X157784057Y-98357142D01*
X157784057Y-98357142D02*
X157841200Y-98357142D01*
X157841200Y-98357142D02*
X157926914Y-98328571D01*
X157926914Y-98328571D02*
X158269771Y-97985714D01*
X158269771Y-97985714D02*
X158269771Y-98357142D01*
X138859580Y-110333333D02*
X138907200Y-110285714D01*
X138907200Y-110285714D02*
X138954819Y-110142857D01*
X138954819Y-110142857D02*
X138954819Y-110047619D01*
X138954819Y-110047619D02*
X138907200Y-109904762D01*
X138907200Y-109904762D02*
X138811961Y-109809524D01*
X138811961Y-109809524D02*
X138716723Y-109761905D01*
X138716723Y-109761905D02*
X138526247Y-109714286D01*
X138526247Y-109714286D02*
X138383390Y-109714286D01*
X138383390Y-109714286D02*
X138192914Y-109761905D01*
X138192914Y-109761905D02*
X138097676Y-109809524D01*
X138097676Y-109809524D02*
X138002438Y-109904762D01*
X138002438Y-109904762D02*
X137954819Y-110047619D01*
X137954819Y-110047619D02*
X137954819Y-110142857D01*
X137954819Y-110142857D02*
X138002438Y-110285714D01*
X138002438Y-110285714D02*
X138050057Y-110333333D01*
X137954819Y-111190476D02*
X137954819Y-111000000D01*
X137954819Y-111000000D02*
X138002438Y-110904762D01*
X138002438Y-110904762D02*
X138050057Y-110857143D01*
X138050057Y-110857143D02*
X138192914Y-110761905D01*
X138192914Y-110761905D02*
X138383390Y-110714286D01*
X138383390Y-110714286D02*
X138764342Y-110714286D01*
X138764342Y-110714286D02*
X138859580Y-110761905D01*
X138859580Y-110761905D02*
X138907200Y-110809524D01*
X138907200Y-110809524D02*
X138954819Y-110904762D01*
X138954819Y-110904762D02*
X138954819Y-111095238D01*
X138954819Y-111095238D02*
X138907200Y-111190476D01*
X138907200Y-111190476D02*
X138859580Y-111238095D01*
X138859580Y-111238095D02*
X138764342Y-111285714D01*
X138764342Y-111285714D02*
X138526247Y-111285714D01*
X138526247Y-111285714D02*
X138431009Y-111238095D01*
X138431009Y-111238095D02*
X138383390Y-111190476D01*
X138383390Y-111190476D02*
X138335771Y-111095238D01*
X138335771Y-111095238D02*
X138335771Y-110904762D01*
X138335771Y-110904762D02*
X138383390Y-110809524D01*
X138383390Y-110809524D02*
X138431009Y-110761905D01*
X138431009Y-110761905D02*
X138526247Y-110714286D01*
X150761904Y-111454819D02*
X150761904Y-112264342D01*
X150761904Y-112264342D02*
X150714285Y-112359580D01*
X150714285Y-112359580D02*
X150666666Y-112407200D01*
X150666666Y-112407200D02*
X150571428Y-112454819D01*
X150571428Y-112454819D02*
X150380952Y-112454819D01*
X150380952Y-112454819D02*
X150285714Y-112407200D01*
X150285714Y-112407200D02*
X150238095Y-112359580D01*
X150238095Y-112359580D02*
X150190476Y-112264342D01*
X150190476Y-112264342D02*
X150190476Y-111454819D01*
X149809523Y-111454819D02*
X149190476Y-111454819D01*
X149190476Y-111454819D02*
X149523809Y-111835771D01*
X149523809Y-111835771D02*
X149380952Y-111835771D01*
X149380952Y-111835771D02*
X149285714Y-111883390D01*
X149285714Y-111883390D02*
X149238095Y-111931009D01*
X149238095Y-111931009D02*
X149190476Y-112026247D01*
X149190476Y-112026247D02*
X149190476Y-112264342D01*
X149190476Y-112264342D02*
X149238095Y-112359580D01*
X149238095Y-112359580D02*
X149285714Y-112407200D01*
X149285714Y-112407200D02*
X149380952Y-112454819D01*
X149380952Y-112454819D02*
X149666666Y-112454819D01*
X149666666Y-112454819D02*
X149761904Y-112407200D01*
X149761904Y-112407200D02*
X149809523Y-112359580D01*
X148599999Y-88212628D02*
X148628571Y-88241200D01*
X148628571Y-88241200D02*
X148714285Y-88269771D01*
X148714285Y-88269771D02*
X148771428Y-88269771D01*
X148771428Y-88269771D02*
X148857142Y-88241200D01*
X148857142Y-88241200D02*
X148914285Y-88184057D01*
X148914285Y-88184057D02*
X148942856Y-88126914D01*
X148942856Y-88126914D02*
X148971428Y-88012628D01*
X148971428Y-88012628D02*
X148971428Y-87926914D01*
X148971428Y-87926914D02*
X148942856Y-87812628D01*
X148942856Y-87812628D02*
X148914285Y-87755485D01*
X148914285Y-87755485D02*
X148857142Y-87698342D01*
X148857142Y-87698342D02*
X148771428Y-87669771D01*
X148771428Y-87669771D02*
X148714285Y-87669771D01*
X148714285Y-87669771D02*
X148628571Y-87698342D01*
X148628571Y-87698342D02*
X148599999Y-87726914D01*
X148314285Y-88269771D02*
X148199999Y-88269771D01*
X148199999Y-88269771D02*
X148142856Y-88241200D01*
X148142856Y-88241200D02*
X148114285Y-88212628D01*
X148114285Y-88212628D02*
X148057142Y-88126914D01*
X148057142Y-88126914D02*
X148028571Y-88012628D01*
X148028571Y-88012628D02*
X148028571Y-87784057D01*
X148028571Y-87784057D02*
X148057142Y-87726914D01*
X148057142Y-87726914D02*
X148085714Y-87698342D01*
X148085714Y-87698342D02*
X148142856Y-87669771D01*
X148142856Y-87669771D02*
X148257142Y-87669771D01*
X148257142Y-87669771D02*
X148314285Y-87698342D01*
X148314285Y-87698342D02*
X148342856Y-87726914D01*
X148342856Y-87726914D02*
X148371428Y-87784057D01*
X148371428Y-87784057D02*
X148371428Y-87926914D01*
X148371428Y-87926914D02*
X148342856Y-87984057D01*
X148342856Y-87984057D02*
X148314285Y-88012628D01*
X148314285Y-88012628D02*
X148257142Y-88041200D01*
X148257142Y-88041200D02*
X148142856Y-88041200D01*
X148142856Y-88041200D02*
X148085714Y-88012628D01*
X148085714Y-88012628D02*
X148057142Y-87984057D01*
X148057142Y-87984057D02*
X148028571Y-87926914D01*
X147666666Y-89954819D02*
X147999999Y-89478628D01*
X148238094Y-89954819D02*
X148238094Y-88954819D01*
X148238094Y-88954819D02*
X147857142Y-88954819D01*
X147857142Y-88954819D02*
X147761904Y-89002438D01*
X147761904Y-89002438D02*
X147714285Y-89050057D01*
X147714285Y-89050057D02*
X147666666Y-89145295D01*
X147666666Y-89145295D02*
X147666666Y-89288152D01*
X147666666Y-89288152D02*
X147714285Y-89383390D01*
X147714285Y-89383390D02*
X147761904Y-89431009D01*
X147761904Y-89431009D02*
X147857142Y-89478628D01*
X147857142Y-89478628D02*
X148238094Y-89478628D01*
X147333332Y-88954819D02*
X146666666Y-88954819D01*
X146666666Y-88954819D02*
X147095237Y-89954819D01*
X140954819Y-110333333D02*
X140478628Y-110000000D01*
X140954819Y-109761905D02*
X139954819Y-109761905D01*
X139954819Y-109761905D02*
X139954819Y-110142857D01*
X139954819Y-110142857D02*
X140002438Y-110238095D01*
X140002438Y-110238095D02*
X140050057Y-110285714D01*
X140050057Y-110285714D02*
X140145295Y-110333333D01*
X140145295Y-110333333D02*
X140288152Y-110333333D01*
X140288152Y-110333333D02*
X140383390Y-110285714D01*
X140383390Y-110285714D02*
X140431009Y-110238095D01*
X140431009Y-110238095D02*
X140478628Y-110142857D01*
X140478628Y-110142857D02*
X140478628Y-109761905D01*
X139954819Y-111238095D02*
X139954819Y-110761905D01*
X139954819Y-110761905D02*
X140431009Y-110714286D01*
X140431009Y-110714286D02*
X140383390Y-110761905D01*
X140383390Y-110761905D02*
X140335771Y-110857143D01*
X140335771Y-110857143D02*
X140335771Y-111095238D01*
X140335771Y-111095238D02*
X140383390Y-111190476D01*
X140383390Y-111190476D02*
X140431009Y-111238095D01*
X140431009Y-111238095D02*
X140526247Y-111285714D01*
X140526247Y-111285714D02*
X140764342Y-111285714D01*
X140764342Y-111285714D02*
X140859580Y-111238095D01*
X140859580Y-111238095D02*
X140907200Y-111190476D01*
X140907200Y-111190476D02*
X140954819Y-111095238D01*
X140954819Y-111095238D02*
X140954819Y-110857143D01*
X140954819Y-110857143D02*
X140907200Y-110761905D01*
X140907200Y-110761905D02*
X140859580Y-110714286D01*
X146885714Y-92712628D02*
X146914286Y-92741200D01*
X146914286Y-92741200D02*
X147000000Y-92769771D01*
X147000000Y-92769771D02*
X147057143Y-92769771D01*
X147057143Y-92769771D02*
X147142857Y-92741200D01*
X147142857Y-92741200D02*
X147200000Y-92684057D01*
X147200000Y-92684057D02*
X147228571Y-92626914D01*
X147228571Y-92626914D02*
X147257143Y-92512628D01*
X147257143Y-92512628D02*
X147257143Y-92426914D01*
X147257143Y-92426914D02*
X147228571Y-92312628D01*
X147228571Y-92312628D02*
X147200000Y-92255485D01*
X147200000Y-92255485D02*
X147142857Y-92198342D01*
X147142857Y-92198342D02*
X147057143Y-92169771D01*
X147057143Y-92169771D02*
X147000000Y-92169771D01*
X147000000Y-92169771D02*
X146914286Y-92198342D01*
X146914286Y-92198342D02*
X146885714Y-92226914D01*
X146314286Y-92769771D02*
X146657143Y-92769771D01*
X146485714Y-92769771D02*
X146485714Y-92169771D01*
X146485714Y-92169771D02*
X146542857Y-92255485D01*
X146542857Y-92255485D02*
X146600000Y-92312628D01*
X146600000Y-92312628D02*
X146657143Y-92341200D01*
X145742857Y-92769771D02*
X146085714Y-92769771D01*
X145914285Y-92769771D02*
X145914285Y-92169771D01*
X145914285Y-92169771D02*
X145971428Y-92255485D01*
X145971428Y-92255485D02*
X146028571Y-92312628D01*
X146028571Y-92312628D02*
X146085714Y-92341200D01*
D12*
%TO.C,R11*%
X139237258Y-98022500D02*
X138762742Y-98022500D01*
X139237258Y-96977500D02*
X138762742Y-96977500D01*
%TO.C,D1*%
X147440000Y-94830000D02*
X147300000Y-94640000D01*
X147580000Y-94640000D01*
X147440000Y-94830000D01*
G36*
X147440000Y-94830000D02*
G01*
X147300000Y-94640000D01*
X147580000Y-94640000D01*
X147440000Y-94830000D01*
G37*
X147235000Y-96140000D02*
X147235000Y-95860000D01*
X147149252Y-94840000D02*
X145765000Y-94840000D01*
X145765000Y-97160000D02*
X147235000Y-97160000D01*
X145765000Y-96510000D02*
X145765000Y-97160000D01*
X145765000Y-94840000D02*
X145765000Y-95490000D01*
%TO.C,C7*%
X156490000Y-88859420D02*
X156490000Y-89140580D01*
X157510000Y-88859420D02*
X157510000Y-89140580D01*
%TO.C,D2*%
X151010000Y-102350000D02*
X145500000Y-102350000D01*
X151010000Y-102350000D02*
X151010000Y-105650000D01*
X151010000Y-105650000D02*
X145500000Y-105650000D01*
%TO.C,C2*%
X153640580Y-112490000D02*
X153359420Y-112490000D01*
X153640580Y-113510000D02*
X153359420Y-113510000D01*
%TO.C,C1*%
X146990000Y-115640580D02*
X146990000Y-115359420D01*
X148010000Y-115640580D02*
X148010000Y-115359420D01*
%TO.C,R8*%
X150237258Y-90477500D02*
X149762742Y-90477500D01*
X150237258Y-91522500D02*
X149762742Y-91522500D01*
%TO.C,C10*%
X149392164Y-92140000D02*
X149607836Y-92140000D01*
X149392164Y-92860000D02*
X149607836Y-92860000D01*
%TO.C,C5*%
X135675000Y-106480000D02*
X137325000Y-106480000D01*
X135675000Y-108800000D02*
X135675000Y-106480000D01*
X137325000Y-106480000D02*
X137325000Y-108800000D01*
%TO.C,R4*%
X138477500Y-103762742D02*
X138477500Y-104237258D01*
X139522500Y-103762742D02*
X139522500Y-104237258D01*
%TO.C,R9*%
X155237258Y-94477500D02*
X154762742Y-94477500D01*
X155237258Y-95522500D02*
X154762742Y-95522500D01*
%TO.C,L1*%
X147790000Y-82790000D02*
X147790000Y-83490000D01*
X147790000Y-86510000D02*
X147790000Y-87210000D01*
X147790000Y-87210000D02*
X152210000Y-87210000D01*
X152210000Y-82790000D02*
X147790000Y-82790000D01*
X152210000Y-83490000D02*
X152210000Y-82790000D01*
X152210000Y-87210000D02*
X152210000Y-86510000D01*
%TO.C,U4*%
X153090000Y-87440000D02*
X153090000Y-87490000D01*
X153090000Y-90510000D02*
X153090000Y-90560000D01*
X153090000Y-90560000D02*
X154910000Y-90560000D01*
X154910000Y-87440000D02*
X153090000Y-87440000D01*
X154910000Y-87490000D02*
X154910000Y-87440000D01*
X154910000Y-90560000D02*
X154910000Y-90510000D01*
X155450000Y-87490000D02*
X155210000Y-87160000D01*
X155690000Y-87160000D01*
X155450000Y-87490000D01*
G36*
X155450000Y-87490000D02*
G01*
X155210000Y-87160000D01*
X155690000Y-87160000D01*
X155450000Y-87490000D01*
G37*
%TO.C,D3*%
X150990000Y-102350000D02*
X156500000Y-102350000D01*
X150990000Y-105650000D02*
X150990000Y-102350000D01*
X150990000Y-105650000D02*
X156500000Y-105650000D01*
%TO.C,C8*%
X153490000Y-85359420D02*
X153490000Y-85640580D01*
X154510000Y-85359420D02*
X154510000Y-85640580D01*
%TO.C,C6*%
X137990000Y-107859420D02*
X137990000Y-108140580D01*
X139010000Y-107859420D02*
X139010000Y-108140580D01*
%TO.C,U3*%
X148440000Y-113590000D02*
X148440000Y-115410000D01*
X148440000Y-115410000D02*
X148490000Y-115410000D01*
X148490000Y-113590000D02*
X148440000Y-113590000D01*
X149610000Y-115410000D02*
X150390000Y-115410000D01*
X151510000Y-115410000D02*
X151560000Y-115410000D01*
X151560000Y-113590000D02*
X151510000Y-113590000D01*
X151560000Y-115410000D02*
X151560000Y-113590000D01*
X148490000Y-113050000D02*
X148160000Y-113290000D01*
X148160000Y-112810000D01*
X148490000Y-113050000D01*
G36*
X148490000Y-113050000D02*
G01*
X148160000Y-113290000D01*
X148160000Y-112810000D01*
X148490000Y-113050000D01*
G37*
%TO.C,R7*%
X149762742Y-88977500D02*
X150237258Y-88977500D01*
X149762742Y-90022500D02*
X150237258Y-90022500D01*
%TO.C,R5*%
X139977500Y-108237258D02*
X139977500Y-107762742D01*
X141022500Y-108237258D02*
X141022500Y-107762742D01*
%TO.C,C11*%
X147140580Y-92990000D02*
X146859420Y-92990000D01*
X147140580Y-94010000D02*
X146859420Y-94010000D01*
%TD*%
M02*
