%TF.GenerationSoftware,KiCad,Pcbnew,9.0.5*%
%TF.CreationDate,2026-03-24T11:01:46-07:00*%
%TF.ProjectId,ESP32_PCB,45535033-325f-4504-9342-2e6b69636164,rev?*%
%TF.SameCoordinates,Original*%
%TF.FileFunction,Copper,L2,Bot*%
%TF.FilePolarity,Positive*%
%FSLAX46Y46*%
G04 Gerber Fmt 4.6, Leading zero omitted, Abs format (unit mm)*
G04 Created by KiCad (PCBNEW 9.0.5) date 2026-03-24 11:01:46*
%MOMM*%
%LPD*%
G01*
G04 APERTURE LIST*
G04 Aperture macros list*
%AMRoundRect*
0 Rectangle with rounded corners*
0 $1 Rounding radius*
0 $2 $3 $4 $5 $6 $7 $8 $9 X,Y pos of 4 corners*
0 Add a 4 corners polygon primitive as box body*
4,1,4,$2,$3,$4,$5,$6,$7,$8,$9,$2,$3,0*
0 Add four circle primitives for the rounded corners*
1,1,$1+$1,$2,$3*
1,1,$1+$1,$4,$5*
1,1,$1+$1,$6,$7*
1,1,$1+$1,$8,$9*
0 Add four rect primitives between the rounded corners*
20,1,$1+$1,$2,$3,$4,$5,0*
20,1,$1+$1,$4,$5,$6,$7,0*
20,1,$1+$1,$6,$7,$8,$9,0*
20,1,$1+$1,$8,$9,$2,$3,0*%
G04 Aperture macros list end*
%TA.AperFunction,SMDPad,CuDef*%
%ADD10RoundRect,0.200000X0.200000X0.275000X-0.200000X0.275000X-0.200000X-0.275000X0.200000X-0.275000X0*%
%TD*%
%TA.AperFunction,ComponentPad*%
%ADD11C,2.000000*%
%TD*%
%TA.AperFunction,SMDPad,CuDef*%
%ADD12RoundRect,0.125000X0.487500X0.125000X-0.487500X0.125000X-0.487500X-0.125000X0.487500X-0.125000X0*%
%TD*%
%TA.AperFunction,ComponentPad*%
%ADD13C,1.905000*%
%TD*%
%TA.AperFunction,ComponentPad*%
%ADD14R,1.700000X1.700000*%
%TD*%
%TA.AperFunction,ComponentPad*%
%ADD15C,1.700000*%
%TD*%
%TA.AperFunction,HeatsinkPad*%
%ADD16O,1.100000X2.100000*%
%TD*%
%TA.AperFunction,HeatsinkPad*%
%ADD17O,1.100000X2.600000*%
%TD*%
%TA.AperFunction,SMDPad,CuDef*%
%ADD18RoundRect,0.225000X-0.250000X0.225000X-0.250000X-0.225000X0.250000X-0.225000X0.250000X0.225000X0*%
%TD*%
%TA.AperFunction,SMDPad,CuDef*%
%ADD19RoundRect,0.250000X1.000000X0.650000X-1.000000X0.650000X-1.000000X-0.650000X1.000000X-0.650000X0*%
%TD*%
%TA.AperFunction,SMDPad,CuDef*%
%ADD20RoundRect,0.100000X-0.100000X0.130000X-0.100000X-0.130000X0.100000X-0.130000X0.100000X0.130000X0*%
%TD*%
%TA.AperFunction,SMDPad,CuDef*%
%ADD21RoundRect,0.225000X0.225000X0.250000X-0.225000X0.250000X-0.225000X-0.250000X0.225000X-0.250000X0*%
%TD*%
%TA.AperFunction,SMDPad,CuDef*%
%ADD22RoundRect,0.225000X0.250000X-0.225000X0.250000X0.225000X-0.250000X0.225000X-0.250000X-0.225000X0*%
%TD*%
%TA.AperFunction,SMDPad,CuDef*%
%ADD23RoundRect,0.140000X-0.140000X-0.170000X0.140000X-0.170000X0.140000X0.170000X-0.140000X0.170000X0*%
%TD*%
%TA.AperFunction,SMDPad,CuDef*%
%ADD24RoundRect,0.250000X-0.315000X0.295000X-0.315000X-0.295000X0.315000X-0.295000X0.315000X0.295000X0*%
%TD*%
%TA.AperFunction,SMDPad,CuDef*%
%ADD25RoundRect,0.200000X-0.275000X0.200000X-0.275000X-0.200000X0.275000X-0.200000X0.275000X0.200000X0*%
%TD*%
%TA.AperFunction,SMDPad,CuDef*%
%ADD26RoundRect,0.250001X0.499999X0.999999X-0.499999X0.999999X-0.499999X-0.999999X0.499999X-0.999999X0*%
%TD*%
%TA.AperFunction,SMDPad,CuDef*%
%ADD27RoundRect,0.150000X0.512500X0.150000X-0.512500X0.150000X-0.512500X-0.150000X0.512500X-0.150000X0*%
%TD*%
%TA.AperFunction,SMDPad,CuDef*%
%ADD28RoundRect,0.250000X-1.000000X-0.650000X1.000000X-0.650000X1.000000X0.650000X-1.000000X0.650000X0*%
%TD*%
%TA.AperFunction,SMDPad,CuDef*%
%ADD29RoundRect,0.150000X-0.150000X0.512500X-0.150000X-0.512500X0.150000X-0.512500X0.150000X0.512500X0*%
%TD*%
%TA.AperFunction,SMDPad,CuDef*%
%ADD30RoundRect,0.100000X0.130000X0.100000X-0.130000X0.100000X-0.130000X-0.100000X0.130000X-0.100000X0*%
%TD*%
%TA.AperFunction,SMDPad,CuDef*%
%ADD31RoundRect,0.200000X-0.200000X-0.275000X0.200000X-0.275000X0.200000X0.275000X-0.200000X0.275000X0*%
%TD*%
%TA.AperFunction,SMDPad,CuDef*%
%ADD32RoundRect,0.200000X0.275000X-0.200000X0.275000X0.200000X-0.275000X0.200000X-0.275000X-0.200000X0*%
%TD*%
%TA.AperFunction,ViaPad*%
%ADD33C,0.600000*%
%TD*%
%TA.AperFunction,Conductor*%
%ADD34C,0.200000*%
%TD*%
%TA.AperFunction,Conductor*%
%ADD35C,0.300000*%
%TD*%
G04 APERTURE END LIST*
D10*
%TO.P,R11,2*%
%TO.N,GNDREF*%
X138175000Y-97500000D03*
%TO.P,R11,1*%
%TO.N,Net-(D5-K)*%
X139825000Y-97500000D03*
%TD*%
D11*
%TO.P,J5,1,Pin_1*%
%TO.N,/SPI_DO*%
X144670000Y-88670000D03*
%TO.P,J5,2,Pin_2*%
%TO.N,/SPI_SCK*%
X142130000Y-88670000D03*
%TO.P,J5,3,Pin_3*%
%TO.N,GNDREF*%
X144670000Y-86130000D03*
%TD*%
D12*
%TO.P,D1,3*%
%TO.N,+3V3*%
X145562500Y-96000000D03*
%TO.P,D1,2*%
%TO.N,/VUSB*%
X147437500Y-96650000D03*
%TO.P,D1,1*%
%TO.N,VIN*%
X147437500Y-95350000D03*
%TD*%
D13*
%TO.P,J3,1,Pin_1*%
%TO.N,Net-(D3-A2)*%
X165000000Y-97500000D03*
%TO.P,J3,2,Pin_2*%
%TO.N,GNDREF*%
X165000000Y-100000000D03*
%TO.P,J3,3,Pin_3*%
%TO.N,/S2*%
X165000000Y-102500000D03*
%TD*%
%TO.P,J2,1,Pin_1*%
%TO.N,Net-(D2-A2)*%
X135000000Y-102500000D03*
%TO.P,J2,2,Pin_2*%
%TO.N,GNDREF*%
X135000000Y-100000000D03*
%TO.P,J2,3,Pin_3*%
%TO.N,/S1*%
X135000000Y-97500000D03*
%TD*%
D14*
%TO.P,J4,1,Pin_1*%
%TO.N,GNDREF*%
X159725000Y-93690000D03*
D15*
%TO.P,J4,2,Pin_2*%
X162265000Y-93690000D03*
%TO.P,J4,3,Pin_3*%
%TO.N,/EN*%
X159725000Y-96230000D03*
%TO.P,J4,4,Pin_4*%
%TO.N,GNDREF*%
X162265000Y-96230000D03*
%TO.P,J4,5,Pin_5*%
%TO.N,/BOOT*%
X159725000Y-98770000D03*
%TO.P,J4,6,Pin_6*%
%TO.N,GNDREF*%
X162265000Y-98770000D03*
%TO.P,J4,7,Pin_7*%
X159725000Y-101310000D03*
%TO.P,J4,8,Pin_8*%
X162265000Y-101310000D03*
%TD*%
D16*
%TO.P,J1,S1,SHIELD*%
%TO.N,unconnected-(J1-SHIELD-PadS1)_1*%
X145680000Y-110195000D03*
D17*
%TO.N,unconnected-(J1-SHIELD-PadS1)_3*%
X145680000Y-115555000D03*
D16*
%TO.N,unconnected-(J1-SHIELD-PadS1)*%
X154320000Y-110195000D03*
D17*
%TO.N,unconnected-(J1-SHIELD-PadS1)_2*%
X154320000Y-115555000D03*
%TD*%
D18*
%TO.P,C7,1*%
%TO.N,GNDREF*%
X157000000Y-88225000D03*
%TO.P,C7,2*%
%TO.N,VBATT*%
X157000000Y-89775000D03*
%TD*%
D19*
%TO.P,D2,1,A1*%
%TO.N,VBATT*%
X149500000Y-104000000D03*
%TO.P,D2,2,A2*%
%TO.N,Net-(D2-A2)*%
X145500000Y-104000000D03*
%TD*%
D20*
%TO.P,C13,1*%
%TO.N,GNDREF*%
X157000000Y-95530000D03*
%TO.P,C13,2*%
%TO.N,/EN*%
X157000000Y-96170000D03*
%TD*%
D21*
%TO.P,C2,1*%
%TO.N,GNDREF*%
X154275000Y-113000000D03*
%TO.P,C2,2*%
%TO.N,Net-(U3-EN)*%
X152725000Y-113000000D03*
%TD*%
D22*
%TO.P,C1,1*%
%TO.N,GNDREF*%
X147500000Y-116275000D03*
%TO.P,C1,2*%
%TO.N,/VUSB*%
X147500000Y-114725000D03*
%TD*%
D10*
%TO.P,R8,1*%
%TO.N,Net-(U4-FB)*%
X150825000Y-91000000D03*
%TO.P,R8,2*%
%TO.N,GNDREF*%
X149175000Y-91000000D03*
%TD*%
D23*
%TO.P,C10,1*%
%TO.N,GNDREF*%
X149020000Y-92500000D03*
%TO.P,C10,2*%
%TO.N,VIN*%
X149980000Y-92500000D03*
%TD*%
D24*
%TO.P,C5,1*%
%TO.N,+3V3*%
X136500000Y-107285000D03*
%TO.P,C5,2*%
%TO.N,GNDREF*%
X136500000Y-108715000D03*
%TD*%
D25*
%TO.P,R4,1*%
%TO.N,+3V3*%
X139000000Y-103175000D03*
%TO.P,R4,2*%
%TO.N,/SCL*%
X139000000Y-104825000D03*
%TD*%
D10*
%TO.P,R9,1*%
%TO.N,/EN*%
X155825000Y-95000000D03*
%TO.P,R9,2*%
%TO.N,+3V3*%
X154175000Y-95000000D03*
%TD*%
D26*
%TO.P,L1,1,1*%
%TO.N,Net-(U4-SW)*%
X151850000Y-85000000D03*
%TO.P,L1,2,2*%
%TO.N,VIN*%
X148150000Y-85000000D03*
%TD*%
D27*
%TO.P,U4,1,GND*%
%TO.N,GNDREF*%
X155137500Y-88050000D03*
%TO.P,U4,2,SW*%
%TO.N,Net-(U4-SW)*%
X155137500Y-89000000D03*
%TO.P,U4,3,VIN*%
%TO.N,VBATT*%
X155137500Y-89950000D03*
%TO.P,U4,4,FB*%
%TO.N,Net-(U4-FB)*%
X152862500Y-89950000D03*
%TO.P,U4,5,EN*%
%TO.N,VBATT*%
X152862500Y-89000000D03*
%TO.P,U4,6,BOOT*%
%TO.N,Net-(U4-BOOT)*%
X152862500Y-88050000D03*
%TD*%
D28*
%TO.P,D3,1,A1*%
%TO.N,VBATT*%
X152500000Y-104000000D03*
%TO.P,D3,2,A2*%
%TO.N,Net-(D3-A2)*%
X156500000Y-104000000D03*
%TD*%
D18*
%TO.P,C8,1*%
%TO.N,Net-(U4-SW)*%
X154000000Y-84725000D03*
%TO.P,C8,2*%
%TO.N,Net-(U4-BOOT)*%
X154000000Y-86275000D03*
%TD*%
D20*
%TO.P,C12,1*%
%TO.N,GNDREF*%
X158000000Y-95530000D03*
%TO.P,C12,2*%
%TO.N,/EN*%
X158000000Y-96170000D03*
%TD*%
D18*
%TO.P,C6,1*%
%TO.N,+3V3*%
X138500000Y-107225000D03*
%TO.P,C6,2*%
%TO.N,GNDREF*%
X138500000Y-108775000D03*
%TD*%
D29*
%TO.P,U3,1,VIN*%
%TO.N,Net-(U3-EN)*%
X149050000Y-113362500D03*
%TO.P,U3,2,GND*%
%TO.N,GNDREF*%
X150000000Y-113362500D03*
%TO.P,U3,3,EN*%
%TO.N,Net-(U3-EN)*%
X150950000Y-113362500D03*
%TO.P,U3,4,NC*%
%TO.N,unconnected-(U3-NC-Pad4)*%
X150950000Y-115637500D03*
%TO.P,U3,5,VOUT*%
%TO.N,/VUSB*%
X149050000Y-115637500D03*
%TD*%
D30*
%TO.P,C9,1*%
%TO.N,Net-(U4-FB)*%
X150320000Y-88000000D03*
%TO.P,C9,2*%
%TO.N,VIN*%
X149680000Y-88000000D03*
%TD*%
D31*
%TO.P,R7,1*%
%TO.N,VIN*%
X149175000Y-89500000D03*
%TO.P,R7,2*%
%TO.N,Net-(U4-FB)*%
X150825000Y-89500000D03*
%TD*%
D32*
%TO.P,R5,1*%
%TO.N,GNDREF*%
X140500000Y-108825000D03*
%TO.P,R5,2*%
%TO.N,+3V3*%
X140500000Y-107175000D03*
%TD*%
D21*
%TO.P,C11,1*%
%TO.N,GNDREF*%
X147775000Y-93500000D03*
%TO.P,C11,2*%
%TO.N,+3V3*%
X146225000Y-93500000D03*
%TD*%
D33*
%TO.N,/SPI_SCK*%
X141550000Y-95200000D03*
%TO.N,Net-(D5-K)*%
X140450000Y-96600000D03*
%TO.N,GNDREF*%
X150000000Y-97500000D03*
X144500000Y-106000000D03*
X145500000Y-106000000D03*
X146500000Y-106000000D03*
X137200000Y-100500000D03*
%TO.N,/SPI_DO*%
X141000000Y-99800000D03*
%TO.N,/SPI_SCK*%
X141700000Y-100500000D03*
%TO.N,/Status_LED*%
X140800000Y-104600000D03*
X141240313Y-105701000D03*
%TO.N,/SPI_DO*%
X140000000Y-104600000D03*
%TO.N,/SPI_SCK*%
X141672183Y-104599999D03*
X141500000Y-108000000D03*
%TO.N,/SPI_DO*%
X141389910Y-106628414D03*
%TO.N,+3V3*%
X139000000Y-95750000D03*
%TO.N,GNDREF*%
X155000000Y-100500000D03*
X151650000Y-99175000D03*
X148350000Y-100825000D03*
X151650000Y-100825000D03*
X148350000Y-99175000D03*
X156000000Y-101500000D03*
X137000000Y-106000000D03*
X146500000Y-98000000D03*
X150000000Y-100825000D03*
X149175000Y-100000000D03*
X150825000Y-101650000D03*
X146500000Y-100000000D03*
X149175000Y-101650000D03*
X155000000Y-101500000D03*
X146500000Y-101000000D03*
X150825000Y-100000000D03*
X146500000Y-99000000D03*
X156000000Y-99500000D03*
X150825000Y-98350000D03*
X134000000Y-104500000D03*
X156000000Y-100500000D03*
X155000000Y-99500000D03*
X149175000Y-98350000D03*
X150000000Y-99175000D03*
%TO.N,Net-(U3-EN)*%
X151500000Y-108500000D03*
X155682183Y-113183465D03*
%TO.N,+3V3*%
X144000000Y-95500000D03*
X136000001Y-106000000D03*
%TO.N,/S2*%
X154500000Y-103000000D03*
%TO.N,/SCL*%
X139000000Y-106000001D03*
%TO.N,/USB_D+*%
X150000000Y-106000000D03*
X149500000Y-108500000D03*
X155754676Y-112436974D03*
%TO.N,/BOOT*%
X154674265Y-98174265D03*
%TD*%
D34*
%TO.N,/SPI_SCK*%
X141700000Y-95350000D02*
X141550000Y-95200000D01*
X141700000Y-100500000D02*
X141700000Y-95350000D01*
%TO.N,/EN*%
X157000000Y-96170000D02*
X156520000Y-96170000D01*
X156520000Y-96170000D02*
X155825000Y-95475000D01*
X155825000Y-95475000D02*
X155825000Y-95000000D01*
%TO.N,Net-(D5-K)*%
X140450000Y-96600000D02*
X140450000Y-96875000D01*
X140450000Y-96875000D02*
X139825000Y-97500000D01*
%TO.N,GNDREF*%
X151290968Y-116601000D02*
X150000000Y-116601000D01*
X150000000Y-113362500D02*
X150000000Y-116601000D01*
%TO.N,Net-(U3-EN)*%
X150950000Y-109550000D02*
X150950000Y-112400000D01*
X149050000Y-113362500D02*
X149050000Y-113078744D01*
X149728744Y-112400000D02*
X150950000Y-112400000D01*
X149050000Y-113078744D02*
X149728744Y-112400000D01*
%TO.N,/SPI_DO*%
X141000000Y-99800000D02*
X141000000Y-94102634D01*
X141000000Y-94102634D02*
X144670000Y-90432634D01*
X144670000Y-90432634D02*
X144670000Y-88670000D01*
%TO.N,/Status_LED*%
X141240313Y-105040313D02*
X140800000Y-104600000D01*
X141240313Y-105701000D02*
X141240313Y-105040313D01*
%TO.N,/SPI_DO*%
X141389910Y-106628414D02*
X140000000Y-105238504D01*
X140000000Y-105238504D02*
X140000000Y-104600000D01*
%TO.N,+3V3*%
X139000000Y-95750000D02*
X139000000Y-103175000D01*
%TO.N,/VUSB*%
X148137500Y-114725000D02*
X149050000Y-115637500D01*
X147500000Y-114725000D02*
X148137500Y-114725000D01*
X147500000Y-96712500D02*
X147500000Y-114725000D01*
X147437500Y-96650000D02*
X147500000Y-96712500D01*
%TO.N,GNDREF*%
X147826000Y-116601000D02*
X147500000Y-116275000D01*
X154275000Y-113616968D02*
X154095984Y-113795984D01*
X154095984Y-113795984D02*
X151290968Y-116601000D01*
X146724000Y-115499000D02*
X146724000Y-113724000D01*
X147500000Y-116275000D02*
X146724000Y-115499000D01*
X154275000Y-113000000D02*
X154275000Y-113616968D01*
X150000000Y-116601000D02*
X147826000Y-116601000D01*
%TO.N,Net-(U3-EN)*%
X155383465Y-113183465D02*
X155225000Y-113025000D01*
X155225000Y-113025000D02*
X155225000Y-112718831D01*
X153501000Y-112224000D02*
X152725000Y-113000000D01*
X150950000Y-114024999D02*
X150950000Y-113362500D01*
X151500000Y-109000000D02*
X150950000Y-109550000D01*
X155682183Y-113183465D02*
X155383465Y-113183465D01*
X152362500Y-113362500D02*
X152725000Y-113000000D01*
X150950000Y-112400000D02*
X150950000Y-113362500D01*
X150950000Y-113362500D02*
X152362500Y-113362500D01*
X151500000Y-108500000D02*
X151500000Y-109000000D01*
X149050000Y-113362500D02*
X149050000Y-114024999D01*
X151000000Y-113312500D02*
X150950000Y-113362500D01*
X154730169Y-112224000D02*
X153501000Y-112224000D01*
X155225000Y-112718831D02*
X154730169Y-112224000D01*
%TO.N,+3V3*%
X144000000Y-94450000D02*
X144000000Y-95500000D01*
X145562500Y-96000000D02*
X144500000Y-96000000D01*
X138550000Y-107175000D02*
X138500000Y-107225000D01*
X136560000Y-107225000D02*
X136500000Y-107285000D01*
X144500000Y-96000000D02*
X144000000Y-95500000D01*
X136500000Y-106499999D02*
X136000001Y-106000000D01*
X154175000Y-95000000D02*
X153175000Y-96000000D01*
X138500000Y-107225000D02*
X136560000Y-107225000D01*
X136500000Y-107285000D02*
X136500000Y-106499999D01*
X144950000Y-93500000D02*
X144000000Y-94450000D01*
X140500000Y-107175000D02*
X138550000Y-107175000D01*
X153175000Y-96000000D02*
X145562500Y-96000000D01*
X146225000Y-93500000D02*
X144950000Y-93500000D01*
%TO.N,VBATT*%
X155137500Y-89950000D02*
X155000000Y-90087500D01*
D35*
X155074000Y-90013500D02*
X155137500Y-89950000D01*
X155074000Y-95426000D02*
X155074000Y-90013500D01*
X153524999Y-89000000D02*
X154475001Y-89950000D01*
D34*
X154475001Y-89950000D02*
X155137500Y-89950000D01*
D35*
X154000000Y-102500000D02*
X154000000Y-96500000D01*
D34*
X156825000Y-89950000D02*
X157000000Y-89775000D01*
D35*
X154000000Y-102500000D02*
X152500000Y-104000000D01*
X155137500Y-89950000D02*
X156825000Y-89950000D01*
X154000000Y-96500000D02*
X155074000Y-95426000D01*
X152500000Y-104000000D02*
X149500000Y-104000000D01*
D34*
X152862500Y-89000000D02*
X153524999Y-89000000D01*
%TO.N,Net-(U4-SW)*%
X154775000Y-86725110D02*
X154775000Y-85500000D01*
X151850000Y-85000000D02*
X153725000Y-85000000D01*
X154500000Y-89000000D02*
X154174000Y-88674000D01*
X155799999Y-89000000D02*
X155137500Y-89000000D01*
X154775000Y-85500000D02*
X154000000Y-84725000D01*
X154174000Y-87326110D02*
X154775000Y-86725110D01*
X154174000Y-88674000D02*
X154174000Y-87326110D01*
X153725000Y-85000000D02*
X154000000Y-84725000D01*
X155137500Y-89000000D02*
X154500000Y-89000000D01*
%TO.N,Net-(U4-BOOT)*%
X154000000Y-86912500D02*
X154000000Y-86275000D01*
X152862500Y-88050000D02*
X154000000Y-86912500D01*
%TO.N,VIN*%
X149980000Y-92500000D02*
X149980000Y-92807500D01*
X149980000Y-92807500D02*
X147437500Y-95350000D01*
X149980000Y-90305000D02*
X149980000Y-92500000D01*
X149680000Y-88000000D02*
X149680000Y-86530000D01*
X149175000Y-89500000D02*
X149980000Y-90305000D01*
X149175000Y-89500000D02*
X149175000Y-88505000D01*
X149680000Y-86530000D02*
X148150000Y-85000000D01*
X149175000Y-88505000D02*
X149680000Y-88000000D01*
%TO.N,Net-(U4-FB)*%
X150825000Y-91000000D02*
X150825000Y-89500000D01*
X150320000Y-88000000D02*
X150320000Y-88995000D01*
X152862500Y-89950000D02*
X151275000Y-89950000D01*
X151275000Y-89950000D02*
X150825000Y-89500000D01*
X150320000Y-88995000D02*
X150825000Y-89500000D01*
%TO.N,/S2*%
X154500000Y-103000000D02*
X155000000Y-102500000D01*
X155000000Y-102500000D02*
X165000000Y-102500000D01*
D35*
%TO.N,Net-(D2-A2)*%
X136500000Y-104000000D02*
X145500000Y-104000000D01*
X135000000Y-102500000D02*
X136500000Y-104000000D01*
%TO.N,Net-(D3-A2)*%
X156500000Y-104000000D02*
X165343428Y-104000000D01*
X166303500Y-98803500D02*
X165000000Y-97500000D01*
X165343428Y-104000000D02*
X166303500Y-103039928D01*
X166303500Y-103039928D02*
X166303500Y-98803500D01*
D34*
%TO.N,/SCL*%
X139000000Y-104825000D02*
X139000000Y-106000001D01*
%TO.N,/USB_D+*%
X153334900Y-109484957D02*
X151749943Y-107900000D01*
X149500000Y-107600000D02*
X149500000Y-106500000D01*
X149800000Y-107900000D02*
X149500000Y-107600000D01*
X149500000Y-108500000D02*
X149500000Y-107600000D01*
X153334900Y-111823000D02*
X153334900Y-109484957D01*
X151749943Y-107900000D02*
X149800000Y-107900000D01*
X155140702Y-111823000D02*
X153334900Y-111823000D01*
X155754676Y-112436974D02*
X155140702Y-111823000D01*
X149500000Y-106500000D02*
X150000000Y-106000000D01*
%TO.N,/EN*%
X159675000Y-96180000D02*
X159725000Y-96230000D01*
X157000000Y-96180000D02*
X158000000Y-96180000D01*
X158000000Y-96180000D02*
X159675000Y-96180000D01*
%TO.N,/BOOT*%
X155270000Y-98770000D02*
X159725000Y-98770000D01*
X154674265Y-98174265D02*
X155270000Y-98770000D01*
%TO.N,/SPI_SCK*%
X141939910Y-107560090D02*
X141500000Y-108000000D01*
X141672183Y-104599999D02*
X141672183Y-104649999D01*
X141672183Y-104649999D02*
X141939910Y-104917726D01*
X141939910Y-104917726D02*
X141939910Y-107560090D01*
%TD*%
%TA.AperFunction,Conductor*%
%TO.N,GNDREF*%
G36*
X150092539Y-113382185D02*
G01*
X150138294Y-113434989D01*
X150149500Y-113486500D01*
X150149500Y-113940701D01*
X150152401Y-113977567D01*
X150152402Y-113977573D01*
X150198254Y-114135393D01*
X150198255Y-114135395D01*
X150198256Y-114135398D01*
X150232732Y-114193694D01*
X150250000Y-114256814D01*
X150250000Y-114522295D01*
X150276247Y-114546558D01*
X150312114Y-114606519D01*
X150309869Y-114676353D01*
X150285471Y-114716014D01*
X150286702Y-114716969D01*
X150281917Y-114723137D01*
X150198255Y-114864603D01*
X150198254Y-114864606D01*
X150152402Y-115022426D01*
X150152401Y-115022432D01*
X150149500Y-115059298D01*
X150149500Y-116215701D01*
X150152401Y-116252567D01*
X150152402Y-116252573D01*
X150198254Y-116410393D01*
X150198255Y-116410396D01*
X150281917Y-116551862D01*
X150281923Y-116551870D01*
X150398129Y-116668076D01*
X150398133Y-116668079D01*
X150398135Y-116668081D01*
X150539602Y-116751744D01*
X150539609Y-116751746D01*
X150541204Y-116752437D01*
X150542260Y-116753315D01*
X150546317Y-116755715D01*
X150545930Y-116756369D01*
X150546904Y-116757180D01*
X150554111Y-116758939D01*
X150573400Y-116779225D01*
X150594914Y-116797125D01*
X150597145Y-116804197D01*
X150602257Y-116809573D01*
X150607516Y-116837067D01*
X150615937Y-116863757D01*
X150613990Y-116870913D01*
X150615384Y-116878199D01*
X150604944Y-116904169D01*
X150597599Y-116931177D01*
X150592092Y-116936145D01*
X150589326Y-116943027D01*
X150566505Y-116959229D01*
X150545722Y-116977980D01*
X150536990Y-116980184D01*
X150532355Y-116983476D01*
X150497690Y-116990108D01*
X150400105Y-116994620D01*
X150395507Y-116994833D01*
X150389781Y-116994965D01*
X149610219Y-116994965D01*
X149604492Y-116994833D01*
X149599645Y-116994608D01*
X149502309Y-116990108D01*
X149436251Y-116967347D01*
X149392984Y-116912486D01*
X149386245Y-116842942D01*
X149418175Y-116780795D01*
X149453805Y-116755921D01*
X149453683Y-116755715D01*
X149456420Y-116754095D01*
X149458800Y-116752435D01*
X149460394Y-116751745D01*
X149460398Y-116751744D01*
X149601865Y-116668081D01*
X149718081Y-116551865D01*
X149801744Y-116410398D01*
X149847598Y-116252569D01*
X149850500Y-116215694D01*
X149850500Y-115059306D01*
X149847598Y-115022431D01*
X149801744Y-114864602D01*
X149718081Y-114723135D01*
X149718078Y-114723132D01*
X149713298Y-114716969D01*
X149714982Y-114715662D01*
X149686757Y-114663972D01*
X149691741Y-114594280D01*
X149723752Y-114546557D01*
X149750000Y-114522293D01*
X149750000Y-114256814D01*
X149767267Y-114193694D01*
X149801744Y-114135398D01*
X149847598Y-113977569D01*
X149850500Y-113940694D01*
X149850500Y-113486500D01*
X149853050Y-113477814D01*
X149851762Y-113468853D01*
X149862740Y-113444812D01*
X149870185Y-113419461D01*
X149877025Y-113413533D01*
X149880787Y-113405297D01*
X149903021Y-113391007D01*
X149922989Y-113373706D01*
X149933503Y-113371418D01*
X149939565Y-113367523D01*
X149974500Y-113362500D01*
X150025500Y-113362500D01*
X150092539Y-113382185D01*
G37*
%TD.AperFunction*%
%TA.AperFunction,Conductor*%
G36*
X153512009Y-113782572D02*
G01*
X153543679Y-113784835D01*
X153546992Y-113786964D01*
X153549835Y-113787321D01*
X153579864Y-113805867D01*
X153613984Y-113834378D01*
X153652805Y-113892470D01*
X153654057Y-113962328D01*
X153622155Y-114017212D01*
X153504023Y-114135344D01*
X153389058Y-114307403D01*
X153309870Y-114498579D01*
X153309868Y-114498587D01*
X153269500Y-114701530D01*
X153269500Y-114701534D01*
X153269500Y-114701535D01*
X153269500Y-116408465D01*
X153280264Y-116462581D01*
X153296752Y-116545474D01*
X153290523Y-116615065D01*
X153247660Y-116670242D01*
X153197919Y-116691553D01*
X152739659Y-116777217D01*
X152734005Y-116778139D01*
X151961909Y-116885842D01*
X151956219Y-116886502D01*
X151529484Y-116926045D01*
X151460915Y-116912630D01*
X151410483Y-116864273D01*
X151394200Y-116796327D01*
X151417237Y-116730364D01*
X151454921Y-116695843D01*
X151501865Y-116668081D01*
X151618081Y-116551865D01*
X151701744Y-116410398D01*
X151747598Y-116252569D01*
X151750500Y-116215694D01*
X151750500Y-115059306D01*
X151747598Y-115022431D01*
X151701744Y-114864602D01*
X151618081Y-114723135D01*
X151618079Y-114723133D01*
X151618076Y-114723129D01*
X151501870Y-114606923D01*
X151501867Y-114606921D01*
X151501865Y-114606919D01*
X151501549Y-114606732D01*
X151501353Y-114606522D01*
X151495702Y-114602139D01*
X151496409Y-114601227D01*
X151453866Y-114555664D01*
X151441362Y-114486923D01*
X151468006Y-114422333D01*
X151495921Y-114398144D01*
X151495702Y-114397861D01*
X151500911Y-114393820D01*
X151501550Y-114393267D01*
X151501865Y-114393081D01*
X151618081Y-114276865D01*
X151701744Y-114135398D01*
X151701745Y-114135395D01*
X151725857Y-114052404D01*
X151763464Y-113993519D01*
X151826936Y-113964313D01*
X151844933Y-113963000D01*
X152275833Y-113963000D01*
X152283439Y-113963000D01*
X152283443Y-113963001D01*
X152328202Y-113963001D01*
X152345540Y-113964836D01*
X152345558Y-113964661D01*
X152352291Y-113965348D01*
X152352292Y-113965349D01*
X152451655Y-113975500D01*
X152998344Y-113975499D01*
X152998352Y-113975498D01*
X152998355Y-113975498D01*
X153052760Y-113969940D01*
X153097708Y-113965349D01*
X153258697Y-113912003D01*
X153403044Y-113822968D01*
X153412668Y-113813343D01*
X153415678Y-113811699D01*
X153417484Y-113808777D01*
X153446130Y-113795069D01*
X153473987Y-113779856D01*
X153477411Y-113780100D01*
X153480510Y-113778618D01*
X153512009Y-113782572D01*
G37*
%TD.AperFunction*%
%TA.AperFunction,Conductor*%
G36*
X143699504Y-104670185D02*
G01*
X143745259Y-104722989D01*
X143755823Y-104761898D01*
X143760001Y-104802797D01*
X143760001Y-104802799D01*
X143771888Y-104838671D01*
X143815186Y-104969334D01*
X143907288Y-105118656D01*
X144031344Y-105242712D01*
X144180666Y-105334814D01*
X144347203Y-105389999D01*
X144449991Y-105400500D01*
X146550008Y-105400499D01*
X146652797Y-105389999D01*
X146736498Y-105362262D01*
X146806323Y-105359861D01*
X146866365Y-105395592D01*
X146897558Y-105458112D01*
X146899500Y-105479969D01*
X146899500Y-109270654D01*
X146879815Y-109337693D01*
X146827011Y-109383448D01*
X146757853Y-109393392D01*
X146694297Y-109364367D01*
X146660939Y-109318107D01*
X146610942Y-109197403D01*
X146495975Y-109025342D01*
X146349657Y-108879024D01*
X146186097Y-108769738D01*
X146177598Y-108764059D01*
X146103815Y-108733497D01*
X145986420Y-108684870D01*
X145986412Y-108684868D01*
X145783469Y-108644500D01*
X145783465Y-108644500D01*
X145576535Y-108644500D01*
X145576530Y-108644500D01*
X145373587Y-108684868D01*
X145373579Y-108684870D01*
X145182403Y-108764058D01*
X145010342Y-108879024D01*
X144864024Y-109025342D01*
X144749058Y-109197403D01*
X144669870Y-109388579D01*
X144669868Y-109388587D01*
X144629500Y-109591530D01*
X144629500Y-110798469D01*
X144669868Y-111001412D01*
X144669870Y-111001420D01*
X144726291Y-111137633D01*
X144749059Y-111192598D01*
X144796382Y-111263423D01*
X144864024Y-111364657D01*
X145010342Y-111510975D01*
X145010345Y-111510977D01*
X145182402Y-111625941D01*
X145373580Y-111705130D01*
X145486460Y-111727583D01*
X145576530Y-111745499D01*
X145576534Y-111745500D01*
X145576535Y-111745500D01*
X145783466Y-111745500D01*
X145783467Y-111745499D01*
X145986420Y-111705130D01*
X146177598Y-111625941D01*
X146349655Y-111510977D01*
X146495977Y-111364655D01*
X146610941Y-111192598D01*
X146660939Y-111071891D01*
X146704780Y-111017489D01*
X146771074Y-110995424D01*
X146838773Y-111012703D01*
X146886384Y-111063840D01*
X146899500Y-111119345D01*
X146899500Y-113794574D01*
X146879815Y-113861613D01*
X146840598Y-113900112D01*
X146796957Y-113927030D01*
X146677030Y-114046958D01*
X146656568Y-114080133D01*
X146604620Y-114126857D01*
X146535657Y-114138078D01*
X146471575Y-114110235D01*
X146463349Y-114102716D01*
X146349657Y-113989024D01*
X146241834Y-113916980D01*
X146177598Y-113874059D01*
X146164298Y-113868550D01*
X145986420Y-113794870D01*
X145986412Y-113794868D01*
X145783469Y-113754500D01*
X145783465Y-113754500D01*
X145576535Y-113754500D01*
X145576530Y-113754500D01*
X145373587Y-113794868D01*
X145373579Y-113794870D01*
X145182403Y-113874058D01*
X145010342Y-113989024D01*
X144864024Y-114135342D01*
X144749058Y-114307403D01*
X144669870Y-114498579D01*
X144669868Y-114498587D01*
X144629500Y-114701530D01*
X144629500Y-115951789D01*
X144621418Y-115979309D01*
X144616267Y-116007526D01*
X144611699Y-116012411D01*
X144609815Y-116018828D01*
X144588142Y-116037607D01*
X144568550Y-116058563D01*
X144562064Y-116060203D01*
X144557011Y-116064583D01*
X144528619Y-116068665D01*
X144500814Y-116075700D01*
X144491509Y-116074001D01*
X144487853Y-116074527D01*
X144466094Y-116069361D01*
X144229572Y-115990088D01*
X144224184Y-115988143D01*
X143497226Y-115706517D01*
X143491942Y-115704328D01*
X142778767Y-115389431D01*
X142773624Y-115387016D01*
X142075766Y-115039523D01*
X142070699Y-115036852D01*
X141389654Y-114657513D01*
X141384715Y-114654611D01*
X141143923Y-114505519D01*
X140721889Y-114244206D01*
X140717111Y-114241093D01*
X140073946Y-113800515D01*
X140069298Y-113797171D01*
X140062462Y-113792009D01*
X139447181Y-113327370D01*
X139442691Y-113323813D01*
X138842945Y-112825790D01*
X138838624Y-112822030D01*
X138262508Y-112296830D01*
X138258365Y-112292874D01*
X137707125Y-111741634D01*
X137703169Y-111737491D01*
X137194591Y-111179608D01*
X137177967Y-111161373D01*
X137174209Y-111157054D01*
X137058316Y-111017489D01*
X136676182Y-110557303D01*
X136672629Y-110552818D01*
X136598705Y-110454927D01*
X136214704Y-109946427D01*
X136190013Y-109881067D01*
X136204578Y-109812733D01*
X136225978Y-109784021D01*
X136250000Y-109759999D01*
X136750000Y-109759999D01*
X136864972Y-109759999D01*
X136864986Y-109759998D01*
X136967697Y-109749505D01*
X137134119Y-109694358D01*
X137134124Y-109694356D01*
X137283345Y-109602315D01*
X137407317Y-109478343D01*
X137444731Y-109417685D01*
X137496678Y-109370960D01*
X137565641Y-109359737D01*
X137629723Y-109387580D01*
X137655808Y-109417683D01*
X137677426Y-109452731D01*
X137797267Y-109572572D01*
X137797271Y-109572575D01*
X137941507Y-109661542D01*
X137941518Y-109661547D01*
X138102393Y-109714855D01*
X138201683Y-109724999D01*
X138750000Y-109724999D01*
X138798308Y-109724999D01*
X138798322Y-109724998D01*
X138897607Y-109714855D01*
X139058481Y-109661547D01*
X139058492Y-109661542D01*
X139202728Y-109572575D01*
X139202732Y-109572572D01*
X139322571Y-109452733D01*
X139389212Y-109344692D01*
X139441160Y-109297968D01*
X139510123Y-109286745D01*
X139574205Y-109314589D01*
X139600868Y-109345639D01*
X139669927Y-109459877D01*
X139790122Y-109580072D01*
X139935604Y-109668019D01*
X139935603Y-109668019D01*
X140097894Y-109718590D01*
X140097892Y-109718590D01*
X140168418Y-109724999D01*
X140750000Y-109724999D01*
X140831581Y-109724999D01*
X140902102Y-109718591D01*
X140902107Y-109718590D01*
X141064396Y-109668018D01*
X141209877Y-109580072D01*
X141330072Y-109459877D01*
X141418019Y-109314395D01*
X141468590Y-109152106D01*
X141475000Y-109081572D01*
X141475000Y-109075000D01*
X140750000Y-109075000D01*
X140750000Y-109724999D01*
X140168418Y-109724999D01*
X140249999Y-109724998D01*
X140250000Y-109724998D01*
X140250000Y-109075000D01*
X139496362Y-109075000D01*
X139429323Y-109055315D01*
X139408681Y-109038681D01*
X139395000Y-109025000D01*
X138750000Y-109025000D01*
X138750000Y-109724999D01*
X138201683Y-109724999D01*
X138249999Y-109724998D01*
X138250000Y-109724998D01*
X138250000Y-109025000D01*
X137506362Y-109025000D01*
X137439323Y-109005315D01*
X137418681Y-108988681D01*
X137395000Y-108965000D01*
X136750000Y-108965000D01*
X136750000Y-109759999D01*
X136250000Y-109759999D01*
X136250000Y-108839000D01*
X136269685Y-108771961D01*
X136322489Y-108726206D01*
X136374000Y-108715000D01*
X136500000Y-108715000D01*
X136500000Y-108589000D01*
X136519685Y-108521961D01*
X136572489Y-108476206D01*
X136624000Y-108465000D01*
X137583638Y-108465000D01*
X137650677Y-108484685D01*
X137671319Y-108501319D01*
X137695000Y-108525000D01*
X139503638Y-108525000D01*
X139570677Y-108544685D01*
X139591319Y-108561319D01*
X139605000Y-108575000D01*
X140891559Y-108575000D01*
X140958598Y-108594685D01*
X140979240Y-108611319D01*
X140989707Y-108621786D01*
X140989711Y-108621789D01*
X141120814Y-108709390D01*
X141120827Y-108709397D01*
X141252795Y-108764059D01*
X141266503Y-108769737D01*
X141421153Y-108800499D01*
X141421156Y-108800500D01*
X141421158Y-108800500D01*
X141578844Y-108800500D01*
X141578845Y-108800499D01*
X141733497Y-108769737D01*
X141879179Y-108709394D01*
X142010289Y-108621789D01*
X142121789Y-108510289D01*
X142209394Y-108379179D01*
X142269737Y-108233497D01*
X142300500Y-108078842D01*
X142300500Y-108078840D01*
X142300637Y-108078152D01*
X142333021Y-108016241D01*
X142334574Y-108014661D01*
X142361963Y-107987273D01*
X142420430Y-107928806D01*
X142421423Y-107927087D01*
X142435304Y-107903043D01*
X142499487Y-107791874D01*
X142540411Y-107639147D01*
X142540411Y-107481032D01*
X142540411Y-107473437D01*
X142540410Y-107473419D01*
X142540410Y-104838671D01*
X142540410Y-104838669D01*
X142531815Y-104806592D01*
X142533478Y-104736743D01*
X142572641Y-104678881D01*
X142636869Y-104651377D01*
X142651590Y-104650500D01*
X143632465Y-104650500D01*
X143699504Y-104670185D01*
G37*
%TD.AperFunction*%
%TA.AperFunction,Conductor*%
G36*
X147066009Y-83279134D02*
G01*
X147120687Y-83322632D01*
X147143170Y-83388785D01*
X147126317Y-83456592D01*
X147106961Y-83481672D01*
X147057289Y-83531344D01*
X147057286Y-83531348D01*
X146965187Y-83680662D01*
X146965186Y-83680664D01*
X146910001Y-83847203D01*
X146910000Y-83847204D01*
X146899500Y-83949984D01*
X146899500Y-86050015D01*
X146910000Y-86152795D01*
X146910001Y-86152797D01*
X146925471Y-86199482D01*
X146965186Y-86319335D01*
X146965187Y-86319337D01*
X147057286Y-86468651D01*
X147057289Y-86468655D01*
X147181344Y-86592710D01*
X147181348Y-86592713D01*
X147330662Y-86684812D01*
X147330664Y-86684813D01*
X147330666Y-86684814D01*
X147497203Y-86739999D01*
X147599992Y-86750500D01*
X147599997Y-86750500D01*
X148700003Y-86750500D01*
X148700008Y-86750500D01*
X148802797Y-86739999D01*
X148908936Y-86704827D01*
X148924499Y-86704292D01*
X148939091Y-86698850D01*
X148958701Y-86703116D01*
X148978761Y-86702426D01*
X148993086Y-86710596D01*
X149007364Y-86713702D01*
X149035618Y-86734853D01*
X149043181Y-86742416D01*
X149076666Y-86803739D01*
X149079500Y-86830097D01*
X149079500Y-87484645D01*
X149059815Y-87551684D01*
X149053876Y-87560131D01*
X149025464Y-87597157D01*
X148964956Y-87743237D01*
X148964956Y-87743238D01*
X148951866Y-87842661D01*
X148942617Y-87863567D01*
X148937759Y-87885900D01*
X148925481Y-87902302D01*
X148923599Y-87906557D01*
X148916609Y-87914155D01*
X148806286Y-88024478D01*
X148806285Y-88024478D01*
X148806284Y-88024479D01*
X148694481Y-88136282D01*
X148694479Y-88136285D01*
X148663769Y-88189478D01*
X148663768Y-88189480D01*
X148615423Y-88273214D01*
X148615423Y-88273215D01*
X148574499Y-88425943D01*
X148574499Y-88425945D01*
X148574499Y-88583481D01*
X148554814Y-88650520D01*
X148538180Y-88671162D01*
X148419531Y-88789810D01*
X148419530Y-88789811D01*
X148331522Y-88935393D01*
X148280913Y-89097807D01*
X148274500Y-89168386D01*
X148274500Y-89831613D01*
X148280913Y-89902192D01*
X148280913Y-89902194D01*
X148280914Y-89902196D01*
X148331522Y-90064606D01*
X148395537Y-90170500D01*
X148405109Y-90186333D01*
X148422945Y-90253888D01*
X148405109Y-90314632D01*
X148331982Y-90435599D01*
X148331980Y-90435603D01*
X148281409Y-90597893D01*
X148275000Y-90668427D01*
X148275000Y-90750000D01*
X149051000Y-90750000D01*
X149118039Y-90769685D01*
X149163794Y-90822489D01*
X149175000Y-90874000D01*
X149175000Y-91000000D01*
X149255500Y-91000000D01*
X149322539Y-91019685D01*
X149368294Y-91072489D01*
X149379500Y-91124000D01*
X149379500Y-91833333D01*
X149359815Y-91900372D01*
X149343181Y-91921014D01*
X149329887Y-91934307D01*
X149329881Y-91934315D01*
X149247505Y-92073606D01*
X149247504Y-92073609D01*
X149202357Y-92229002D01*
X149202356Y-92229008D01*
X149199500Y-92265302D01*
X149199500Y-92376000D01*
X149179815Y-92443039D01*
X149127011Y-92488794D01*
X149075500Y-92500000D01*
X149020000Y-92500000D01*
X149020000Y-92626000D01*
X149000315Y-92693039D01*
X148947511Y-92738794D01*
X148896000Y-92750000D01*
X148234000Y-92750000D01*
X148166961Y-92730315D01*
X148121206Y-92677511D01*
X148110000Y-92626000D01*
X148110000Y-92531301D01*
X148048322Y-92525000D01*
X148025000Y-92525000D01*
X148025000Y-93376000D01*
X148005315Y-93443039D01*
X147952511Y-93488794D01*
X147901000Y-93500000D01*
X147649000Y-93500000D01*
X147581961Y-93480315D01*
X147536206Y-93427511D01*
X147525000Y-93376000D01*
X147525000Y-92524999D01*
X147501693Y-92525000D01*
X147501674Y-92525001D01*
X147402392Y-92535144D01*
X147241518Y-92588452D01*
X147241507Y-92588457D01*
X147097271Y-92677424D01*
X147097265Y-92677428D01*
X147088031Y-92686663D01*
X147026707Y-92720146D01*
X146957015Y-92715159D01*
X146912672Y-92686660D01*
X146903044Y-92677032D01*
X146903040Y-92677029D01*
X146758705Y-92588001D01*
X146758699Y-92587998D01*
X146758697Y-92587997D01*
X146758694Y-92587996D01*
X146597709Y-92534651D01*
X146498346Y-92524500D01*
X145951662Y-92524500D01*
X145951644Y-92524501D01*
X145852292Y-92534650D01*
X145852289Y-92534651D01*
X145691305Y-92587996D01*
X145691294Y-92588001D01*
X145546959Y-92677029D01*
X145546955Y-92677032D01*
X145427031Y-92796956D01*
X145400113Y-92840598D01*
X145348165Y-92887322D01*
X145294575Y-92899500D01*
X145036669Y-92899500D01*
X145036653Y-92899499D01*
X145029057Y-92899499D01*
X144870943Y-92899499D01*
X144763587Y-92928265D01*
X144718210Y-92940424D01*
X144718209Y-92940425D01*
X144668096Y-92969359D01*
X144668095Y-92969360D01*
X144645424Y-92982449D01*
X144581285Y-93019479D01*
X144581282Y-93019481D01*
X143519481Y-94081282D01*
X143519479Y-94081285D01*
X143497021Y-94120185D01*
X143476387Y-94155925D01*
X143469361Y-94168094D01*
X143469359Y-94168096D01*
X143440425Y-94218209D01*
X143440424Y-94218210D01*
X143437380Y-94229572D01*
X143399499Y-94370943D01*
X143399499Y-94370945D01*
X143399499Y-94539046D01*
X143399500Y-94539059D01*
X143399500Y-94920234D01*
X143379815Y-94987273D01*
X143378602Y-94989125D01*
X143290609Y-95120814D01*
X143290602Y-95120827D01*
X143230264Y-95266498D01*
X143230261Y-95266510D01*
X143199500Y-95421153D01*
X143199500Y-95578846D01*
X143230261Y-95733489D01*
X143230264Y-95733501D01*
X143290602Y-95879172D01*
X143290609Y-95879185D01*
X143378210Y-96010288D01*
X143378213Y-96010292D01*
X143489707Y-96121786D01*
X143489711Y-96121789D01*
X143620814Y-96209390D01*
X143620827Y-96209397D01*
X143766498Y-96269735D01*
X143766503Y-96269737D01*
X143921158Y-96300500D01*
X143921847Y-96300637D01*
X143983758Y-96333022D01*
X143985337Y-96334573D01*
X144131284Y-96480520D01*
X144131286Y-96480521D01*
X144131290Y-96480524D01*
X144257571Y-96553431D01*
X144268216Y-96559577D01*
X144420943Y-96600501D01*
X144420945Y-96600501D01*
X144586654Y-96600501D01*
X144586670Y-96600500D01*
X144616899Y-96600500D01*
X144681674Y-96619520D01*
X144681865Y-96619199D01*
X144683132Y-96619948D01*
X144683938Y-96620185D01*
X144686014Y-96621653D01*
X144700296Y-96630099D01*
X144824610Y-96703618D01*
X144976373Y-96747709D01*
X145011837Y-96750500D01*
X146113162Y-96750499D01*
X146148627Y-96747709D01*
X146167344Y-96742271D01*
X146237212Y-96742468D01*
X146295883Y-96780409D01*
X146324728Y-96844046D01*
X146325559Y-96851617D01*
X146327291Y-96873628D01*
X146371380Y-97025385D01*
X146371382Y-97025390D01*
X146451827Y-97161416D01*
X146451834Y-97161425D01*
X146563574Y-97273165D01*
X146563578Y-97273168D01*
X146563580Y-97273170D01*
X146699610Y-97353618D01*
X146810098Y-97385717D01*
X146868980Y-97423321D01*
X146898187Y-97486793D01*
X146899500Y-97504792D01*
X146899500Y-102520030D01*
X146879815Y-102587069D01*
X146827011Y-102632824D01*
X146757853Y-102642768D01*
X146736497Y-102637736D01*
X146652799Y-102610001D01*
X146652795Y-102610000D01*
X146550010Y-102599500D01*
X144449998Y-102599500D01*
X144449981Y-102599501D01*
X144347203Y-102610000D01*
X144347200Y-102610001D01*
X144180668Y-102665185D01*
X144180663Y-102665187D01*
X144031342Y-102757289D01*
X143907289Y-102881342D01*
X143815187Y-103030663D01*
X143815185Y-103030668D01*
X143760001Y-103197204D01*
X143760000Y-103197205D01*
X143755823Y-103238102D01*
X143729427Y-103302793D01*
X143672247Y-103342945D01*
X143632465Y-103349500D01*
X140099500Y-103349500D01*
X140032461Y-103329815D01*
X139986706Y-103277011D01*
X139975500Y-103225500D01*
X139975500Y-102918386D01*
X139969086Y-102847807D01*
X139969086Y-102847804D01*
X139918478Y-102685394D01*
X139830472Y-102539815D01*
X139830470Y-102539813D01*
X139830469Y-102539811D01*
X139710188Y-102419530D01*
X139660348Y-102389400D01*
X139613162Y-102337871D01*
X139600500Y-102283284D01*
X139600500Y-98599500D01*
X139620185Y-98532461D01*
X139672989Y-98486706D01*
X139724500Y-98475500D01*
X140081613Y-98475500D01*
X140081616Y-98475500D01*
X140152196Y-98469086D01*
X140238612Y-98442157D01*
X140308471Y-98441008D01*
X140367863Y-98477809D01*
X140397931Y-98540878D01*
X140399500Y-98560544D01*
X140399500Y-99220234D01*
X140379815Y-99287273D01*
X140378602Y-99289125D01*
X140290609Y-99420814D01*
X140290602Y-99420827D01*
X140230264Y-99566498D01*
X140230261Y-99566510D01*
X140199500Y-99721153D01*
X140199500Y-99878846D01*
X140230261Y-100033489D01*
X140230264Y-100033501D01*
X140290602Y-100179172D01*
X140290609Y-100179185D01*
X140378210Y-100310288D01*
X140378213Y-100310292D01*
X140489707Y-100421786D01*
X140489711Y-100421789D01*
X140620814Y-100509390D01*
X140620827Y-100509397D01*
X140730082Y-100554651D01*
X140766503Y-100569737D01*
X140821831Y-100580742D01*
X140883740Y-100613126D01*
X140918315Y-100673841D01*
X140919256Y-100678166D01*
X140930261Y-100733492D01*
X140930264Y-100733501D01*
X140990602Y-100879172D01*
X140990609Y-100879185D01*
X141078210Y-101010288D01*
X141078213Y-101010292D01*
X141189707Y-101121786D01*
X141189711Y-101121789D01*
X141320814Y-101209390D01*
X141320827Y-101209397D01*
X141436436Y-101257283D01*
X141466503Y-101269737D01*
X141566426Y-101289613D01*
X141621153Y-101300499D01*
X141621156Y-101300500D01*
X141621158Y-101300500D01*
X141778844Y-101300500D01*
X141778845Y-101300499D01*
X141933497Y-101269737D01*
X142079179Y-101209394D01*
X142210289Y-101121789D01*
X142321789Y-101010289D01*
X142409394Y-100879179D01*
X142469737Y-100733497D01*
X142500500Y-100578842D01*
X142500500Y-100421158D01*
X142500500Y-100421155D01*
X142500499Y-100421153D01*
X142478447Y-100310292D01*
X142469737Y-100266503D01*
X142440007Y-100194727D01*
X142409397Y-100120827D01*
X142409390Y-100120814D01*
X142321398Y-99989125D01*
X142300520Y-99922447D01*
X142300500Y-99920234D01*
X142300500Y-95504604D01*
X142309939Y-95457151D01*
X142310848Y-95454956D01*
X142319737Y-95433497D01*
X142350500Y-95278842D01*
X142350500Y-95121158D01*
X142350500Y-95121155D01*
X142350499Y-95121153D01*
X142343821Y-95087583D01*
X142319737Y-94966503D01*
X142312694Y-94949500D01*
X142259397Y-94820827D01*
X142259390Y-94820814D01*
X142171789Y-94689711D01*
X142171786Y-94689707D01*
X142060292Y-94578213D01*
X142060288Y-94578210D01*
X141929185Y-94490609D01*
X141929172Y-94490602D01*
X141783496Y-94430262D01*
X141780531Y-94429363D01*
X141779167Y-94428469D01*
X141777870Y-94427932D01*
X141777971Y-94427685D01*
X141722093Y-94391065D01*
X141693636Y-94327253D01*
X141704197Y-94258186D01*
X141728843Y-94223025D01*
X143701870Y-92249999D01*
X148241209Y-92249999D01*
X148241210Y-92250000D01*
X148770000Y-92250000D01*
X148770000Y-91684000D01*
X148789685Y-91616961D01*
X148842489Y-91571206D01*
X148894000Y-91560000D01*
X148925000Y-91560000D01*
X148925000Y-91250000D01*
X148275001Y-91250000D01*
X148275001Y-91331582D01*
X148281408Y-91402102D01*
X148281409Y-91402107D01*
X148331981Y-91564396D01*
X148419927Y-91709877D01*
X148424554Y-91715783D01*
X148423528Y-91716586D01*
X148453278Y-91771055D01*
X148448300Y-91840747D01*
X148419796Y-91885105D01*
X148370286Y-91934615D01*
X148370278Y-91934625D01*
X148287968Y-92073804D01*
X148287966Y-92073809D01*
X148242855Y-92229081D01*
X148242854Y-92229087D01*
X148241209Y-92249999D01*
X143701870Y-92249999D01*
X145150520Y-90801350D01*
X145229577Y-90664418D01*
X145270501Y-90511691D01*
X145270501Y-90353576D01*
X145270501Y-90345981D01*
X145270500Y-90345963D01*
X145270500Y-90124067D01*
X145290185Y-90057028D01*
X145338205Y-90013582D01*
X145456433Y-89953343D01*
X145647510Y-89814517D01*
X145814517Y-89647510D01*
X145953343Y-89456433D01*
X146060568Y-89245992D01*
X146133553Y-89021368D01*
X146150882Y-88911959D01*
X146170500Y-88788097D01*
X146170500Y-88551902D01*
X146133553Y-88318631D01*
X146095787Y-88202401D01*
X146060568Y-88094008D01*
X146060566Y-88094005D01*
X146060566Y-88094003D01*
X145988047Y-87951677D01*
X145953343Y-87883567D01*
X145814517Y-87692490D01*
X145647510Y-87525483D01*
X145588282Y-87482451D01*
X145545617Y-87427122D01*
X145537550Y-87372404D01*
X145539104Y-87352657D01*
X144799408Y-86612962D01*
X144862993Y-86595925D01*
X144977007Y-86530099D01*
X145070099Y-86437007D01*
X145135925Y-86322993D01*
X145152962Y-86259409D01*
X145892658Y-86999105D01*
X145892658Y-86999104D01*
X145952914Y-86916169D01*
X145952918Y-86916163D01*
X146060102Y-86705802D01*
X146133065Y-86481247D01*
X146170000Y-86248052D01*
X146170000Y-86011947D01*
X146133065Y-85778752D01*
X146060102Y-85554197D01*
X145952914Y-85343828D01*
X145892658Y-85260894D01*
X145892658Y-85260893D01*
X145152962Y-86000590D01*
X145135925Y-85937007D01*
X145070099Y-85822993D01*
X144977007Y-85729901D01*
X144862993Y-85664075D01*
X144799409Y-85647037D01*
X145539105Y-84907340D01*
X145539104Y-84907338D01*
X145456174Y-84847087D01*
X145245802Y-84739897D01*
X145021247Y-84666934D01*
X145021248Y-84666934D01*
X144788052Y-84630000D01*
X144551948Y-84630000D01*
X144318752Y-84666934D01*
X144094197Y-84739897D01*
X143883830Y-84847084D01*
X143800894Y-84907340D01*
X144540591Y-85647037D01*
X144477007Y-85664075D01*
X144362993Y-85729901D01*
X144269901Y-85822993D01*
X144204075Y-85937007D01*
X144187037Y-86000591D01*
X143447340Y-85260894D01*
X143387084Y-85343830D01*
X143279897Y-85554197D01*
X143206934Y-85778752D01*
X143170000Y-86011947D01*
X143170000Y-86248052D01*
X143206934Y-86481247D01*
X143279897Y-86705802D01*
X143387087Y-86916174D01*
X143447338Y-86999104D01*
X143447340Y-86999105D01*
X144187037Y-86259408D01*
X144204075Y-86322993D01*
X144269901Y-86437007D01*
X144362993Y-86530099D01*
X144477007Y-86595925D01*
X144540590Y-86612962D01*
X143800893Y-87352658D01*
X143802448Y-87372405D01*
X143788084Y-87440783D01*
X143751717Y-87482451D01*
X143692490Y-87525482D01*
X143525484Y-87692488D01*
X143500318Y-87727127D01*
X143444987Y-87769792D01*
X143375374Y-87775771D01*
X143313579Y-87743165D01*
X143299682Y-87727127D01*
X143283677Y-87705098D01*
X143274517Y-87692490D01*
X143107510Y-87525483D01*
X142916433Y-87386657D01*
X142907130Y-87381917D01*
X142705996Y-87279433D01*
X142481368Y-87206446D01*
X142248097Y-87169500D01*
X142248092Y-87169500D01*
X142011908Y-87169500D01*
X142011903Y-87169500D01*
X141778631Y-87206446D01*
X141554003Y-87279433D01*
X141343566Y-87386657D01*
X141270079Y-87440049D01*
X141152490Y-87525483D01*
X141152488Y-87525485D01*
X141152487Y-87525485D01*
X140985485Y-87692487D01*
X140985485Y-87692488D01*
X140985483Y-87692490D01*
X140929320Y-87769792D01*
X140846657Y-87883566D01*
X140739433Y-88094003D01*
X140666446Y-88318631D01*
X140629500Y-88551902D01*
X140629500Y-88788097D01*
X140666446Y-89021368D01*
X140739433Y-89245996D01*
X140819069Y-89402289D01*
X140846657Y-89456433D01*
X140985483Y-89647510D01*
X141152490Y-89814517D01*
X141343567Y-89953343D01*
X141442991Y-90004002D01*
X141554003Y-90060566D01*
X141554005Y-90060566D01*
X141554008Y-90060568D01*
X141605304Y-90077235D01*
X141778631Y-90133553D01*
X142011903Y-90170500D01*
X142011908Y-90170500D01*
X142248097Y-90170500D01*
X142481368Y-90133553D01*
X142510563Y-90124067D01*
X142705992Y-90060568D01*
X142916433Y-89953343D01*
X143107510Y-89814517D01*
X143274517Y-89647510D01*
X143299682Y-89612872D01*
X143355011Y-89570207D01*
X143424625Y-89564228D01*
X143486420Y-89596833D01*
X143500315Y-89612870D01*
X143525483Y-89647510D01*
X143692490Y-89814517D01*
X143821900Y-89908539D01*
X143883568Y-89953344D01*
X143958177Y-89991358D01*
X144001794Y-90013582D01*
X144012857Y-90024031D01*
X144026703Y-90030354D01*
X144037744Y-90047535D01*
X144052590Y-90061556D01*
X144056831Y-90077235D01*
X144064477Y-90089132D01*
X144069500Y-90124067D01*
X144069500Y-90132535D01*
X144049815Y-90199574D01*
X144033181Y-90220216D01*
X142012181Y-92241216D01*
X141950858Y-92274701D01*
X141881166Y-92269717D01*
X141825233Y-92227845D01*
X141800816Y-92162381D01*
X141800500Y-92153535D01*
X141800500Y-91842724D01*
X141800499Y-91842722D01*
X141800276Y-91840747D01*
X141765282Y-91530160D01*
X141695289Y-91223500D01*
X141591402Y-90926606D01*
X141454926Y-90643211D01*
X141287577Y-90376877D01*
X141091461Y-90130956D01*
X140869044Y-89908539D01*
X140623123Y-89712423D01*
X140356789Y-89545074D01*
X140356786Y-89545072D01*
X140073395Y-89408598D01*
X139776501Y-89304711D01*
X139776499Y-89304710D01*
X139469843Y-89234718D01*
X139469827Y-89234716D01*
X139157277Y-89199500D01*
X139157273Y-89199500D01*
X138842727Y-89199500D01*
X138842722Y-89199500D01*
X138530172Y-89234716D01*
X138530156Y-89234718D01*
X138223500Y-89304710D01*
X138223498Y-89304711D01*
X137926604Y-89408598D01*
X137643213Y-89545072D01*
X137376878Y-89712422D01*
X137130956Y-89908538D01*
X136908538Y-90130956D01*
X136712422Y-90376878D01*
X136545072Y-90643213D01*
X136408598Y-90926604D01*
X136304711Y-91223498D01*
X136304710Y-91223500D01*
X136234718Y-91530156D01*
X136234716Y-91530172D01*
X136199500Y-91842722D01*
X136199500Y-92157277D01*
X136234716Y-92469827D01*
X136234718Y-92469843D01*
X136304710Y-92776499D01*
X136304711Y-92776501D01*
X136408598Y-93073395D01*
X136545072Y-93356786D01*
X136545074Y-93356789D01*
X136712423Y-93623123D01*
X136908539Y-93869044D01*
X137130956Y-94091461D01*
X137376877Y-94287577D01*
X137638104Y-94451717D01*
X137643213Y-94454927D01*
X137679411Y-94472359D01*
X137926606Y-94591402D01*
X138223500Y-94695289D01*
X138530160Y-94765282D01*
X138530164Y-94765282D01*
X138530173Y-94765284D01*
X138601983Y-94773374D01*
X138646296Y-94778367D01*
X138710709Y-94805433D01*
X138750264Y-94863028D01*
X138752402Y-94932864D01*
X138716445Y-94992771D01*
X138679866Y-95016147D01*
X138620829Y-95040601D01*
X138620814Y-95040609D01*
X138489711Y-95128210D01*
X138489707Y-95128213D01*
X138378213Y-95239707D01*
X138378210Y-95239711D01*
X138290609Y-95370814D01*
X138290602Y-95370827D01*
X138230264Y-95516498D01*
X138230261Y-95516510D01*
X138199500Y-95671153D01*
X138199500Y-95828846D01*
X138230261Y-95983489D01*
X138230264Y-95983501D01*
X138290602Y-96129172D01*
X138290609Y-96129185D01*
X138369595Y-96247395D01*
X138376202Y-96257283D01*
X138378602Y-96260874D01*
X138399480Y-96327551D01*
X138399500Y-96329765D01*
X138399500Y-102283284D01*
X138379815Y-102350323D01*
X138339652Y-102389400D01*
X138289811Y-102419530D01*
X138169530Y-102539811D01*
X138081522Y-102685393D01*
X138030913Y-102847807D01*
X138024500Y-102918386D01*
X138024500Y-103225500D01*
X138004815Y-103292539D01*
X137952011Y-103338294D01*
X137900500Y-103349500D01*
X136820808Y-103349500D01*
X136753769Y-103329815D01*
X136733127Y-103313181D01*
X136432443Y-103012497D01*
X136398958Y-102951174D01*
X136402193Y-102886498D01*
X136403868Y-102881344D01*
X136417222Y-102840245D01*
X136453000Y-102614354D01*
X136453000Y-102385646D01*
X136417222Y-102159755D01*
X136417221Y-102159751D01*
X136417221Y-102159750D01*
X136346549Y-101942244D01*
X136324769Y-101899499D01*
X136242717Y-101738462D01*
X136108286Y-101553434D01*
X135946566Y-101391714D01*
X135882190Y-101344942D01*
X135839526Y-101289613D01*
X135831459Y-101234896D01*
X135835098Y-101188650D01*
X135129409Y-100482962D01*
X135192993Y-100465925D01*
X135307007Y-100400099D01*
X135400099Y-100307007D01*
X135465925Y-100192993D01*
X135482962Y-100129410D01*
X136188651Y-100835099D01*
X136188651Y-100835098D01*
X136242288Y-100761276D01*
X136346082Y-100557568D01*
X136416734Y-100340125D01*
X136416734Y-100340124D01*
X136452500Y-100114313D01*
X136452500Y-99885686D01*
X136416734Y-99659875D01*
X136416734Y-99659874D01*
X136346082Y-99442431D01*
X136242292Y-99238731D01*
X136242288Y-99238725D01*
X136188651Y-99164900D01*
X136188651Y-99164899D01*
X135482962Y-99870589D01*
X135465925Y-99807007D01*
X135400099Y-99692993D01*
X135307007Y-99599901D01*
X135192993Y-99534075D01*
X135129408Y-99517037D01*
X135835098Y-98811348D01*
X135831459Y-98765103D01*
X135845823Y-98696726D01*
X135882190Y-98655057D01*
X135946566Y-98608286D01*
X136108286Y-98446566D01*
X136242717Y-98261538D01*
X136346548Y-98057758D01*
X136352017Y-98040925D01*
X136417221Y-97840249D01*
X136417221Y-97840248D01*
X136417222Y-97840245D01*
X136418594Y-97831582D01*
X137275001Y-97831582D01*
X137281408Y-97902102D01*
X137281409Y-97902107D01*
X137331981Y-98064396D01*
X137419927Y-98209877D01*
X137540122Y-98330072D01*
X137685604Y-98418019D01*
X137685603Y-98418019D01*
X137847894Y-98468590D01*
X137847893Y-98468590D01*
X137918408Y-98474998D01*
X137918426Y-98474999D01*
X137924999Y-98474998D01*
X137925000Y-98474998D01*
X137925000Y-97750000D01*
X137275001Y-97750000D01*
X137275001Y-97831582D01*
X136418594Y-97831582D01*
X136453000Y-97614354D01*
X136453000Y-97385646D01*
X136448556Y-97357589D01*
X136421223Y-97185013D01*
X136419304Y-97172903D01*
X136418595Y-97168427D01*
X137275000Y-97168427D01*
X137275000Y-97250000D01*
X137925000Y-97250000D01*
X137925000Y-96525000D01*
X137924999Y-96524999D01*
X137918436Y-96525000D01*
X137918417Y-96525001D01*
X137847897Y-96531408D01*
X137847892Y-96531409D01*
X137685603Y-96581981D01*
X137540122Y-96669927D01*
X137419927Y-96790122D01*
X137331980Y-96935604D01*
X137281409Y-97097893D01*
X137275000Y-97168427D01*
X136418595Y-97168427D01*
X136417222Y-97159755D01*
X136417221Y-97159751D01*
X136417221Y-97159750D01*
X136346549Y-96942244D01*
X136300372Y-96851617D01*
X136242717Y-96738462D01*
X136108286Y-96553434D01*
X135946566Y-96391714D01*
X135761538Y-96257283D01*
X135707990Y-96229999D01*
X135557755Y-96153450D01*
X135340248Y-96082778D01*
X135170826Y-96055944D01*
X135114354Y-96047000D01*
X134885646Y-96047000D01*
X134810349Y-96058926D01*
X134659753Y-96082778D01*
X134659750Y-96082778D01*
X134442244Y-96153450D01*
X134238461Y-96257283D01*
X134185412Y-96295826D01*
X134053434Y-96391714D01*
X134053432Y-96391716D01*
X134053431Y-96391716D01*
X133891716Y-96553431D01*
X133891716Y-96553432D01*
X133891714Y-96553434D01*
X133833980Y-96632896D01*
X133757283Y-96738461D01*
X133653450Y-96942244D01*
X133582778Y-97159750D01*
X133582778Y-97159753D01*
X133551444Y-97357589D01*
X133547000Y-97385646D01*
X133547000Y-97614354D01*
X133557277Y-97679240D01*
X133582778Y-97840246D01*
X133582778Y-97840249D01*
X133653450Y-98057755D01*
X133756982Y-98260947D01*
X133757283Y-98261538D01*
X133891714Y-98446566D01*
X134053434Y-98608286D01*
X134053437Y-98608288D01*
X134117806Y-98655055D01*
X134160472Y-98710385D01*
X134168539Y-98765101D01*
X134164899Y-98811347D01*
X134870590Y-99517037D01*
X134807007Y-99534075D01*
X134692993Y-99599901D01*
X134599901Y-99692993D01*
X134534075Y-99807007D01*
X134517037Y-99870590D01*
X133811347Y-99164899D01*
X133811346Y-99164900D01*
X133757713Y-99238719D01*
X133653917Y-99442431D01*
X133583265Y-99659874D01*
X133583265Y-99659875D01*
X133547500Y-99885686D01*
X133547500Y-100114313D01*
X133583265Y-100340124D01*
X133583265Y-100340125D01*
X133653917Y-100557568D01*
X133757711Y-100761276D01*
X133811347Y-100835098D01*
X133811347Y-100835099D01*
X134517037Y-100129409D01*
X134534075Y-100192993D01*
X134599901Y-100307007D01*
X134692993Y-100400099D01*
X134807007Y-100465925D01*
X134870590Y-100482962D01*
X134164899Y-101188651D01*
X134168539Y-101234898D01*
X134154174Y-101303275D01*
X134117807Y-101344943D01*
X134053440Y-101391709D01*
X134053431Y-101391716D01*
X133891716Y-101553431D01*
X133891716Y-101553432D01*
X133891714Y-101553434D01*
X133838899Y-101626127D01*
X133757283Y-101738461D01*
X133653450Y-101942244D01*
X133582778Y-102159750D01*
X133582778Y-102159753D01*
X133565812Y-102266872D01*
X133547000Y-102385646D01*
X133547000Y-102614354D01*
X133555051Y-102665185D01*
X133582778Y-102840246D01*
X133582778Y-102840249D01*
X133653450Y-103057755D01*
X133709823Y-103168392D01*
X133757283Y-103261538D01*
X133891714Y-103446566D01*
X134053434Y-103608286D01*
X134238462Y-103742717D01*
X134340897Y-103794910D01*
X134442244Y-103846549D01*
X134659751Y-103917221D01*
X134659752Y-103917221D01*
X134659755Y-103917222D01*
X134885646Y-103953000D01*
X134885647Y-103953000D01*
X135114353Y-103953000D01*
X135114354Y-103953000D01*
X135340245Y-103917222D01*
X135386499Y-103902192D01*
X135456339Y-103900198D01*
X135512497Y-103932443D01*
X136085324Y-104505271D01*
X136085327Y-104505274D01*
X136179777Y-104568383D01*
X136183827Y-104571089D01*
X136191873Y-104576465D01*
X136310256Y-104625501D01*
X136310260Y-104625501D01*
X136310261Y-104625502D01*
X136435928Y-104650500D01*
X136435931Y-104650500D01*
X137900500Y-104650500D01*
X137967539Y-104670185D01*
X138013294Y-104722989D01*
X138024500Y-104774500D01*
X138024500Y-105081613D01*
X138030913Y-105152192D01*
X138030913Y-105152194D01*
X138030914Y-105152196D01*
X138081522Y-105314606D01*
X138138342Y-105408598D01*
X138169530Y-105460188D01*
X138243605Y-105534263D01*
X138277090Y-105595586D01*
X138272106Y-105665278D01*
X138270486Y-105669396D01*
X138230263Y-105766504D01*
X138230262Y-105766507D01*
X138230262Y-105766508D01*
X138230261Y-105766511D01*
X138199500Y-105921154D01*
X138199500Y-106078847D01*
X138211092Y-106137124D01*
X138204865Y-106206716D01*
X138162002Y-106261893D01*
X138108678Y-106282163D01*
X138108908Y-106283235D01*
X138102289Y-106284651D01*
X137941305Y-106337996D01*
X137941294Y-106338001D01*
X137796959Y-106427029D01*
X137796955Y-106427032D01*
X137677031Y-106546956D01*
X137665535Y-106565596D01*
X137657948Y-106572419D01*
X137653709Y-106581703D01*
X137632410Y-106595390D01*
X137613588Y-106612321D01*
X137601951Y-106614965D01*
X137594931Y-106619477D01*
X137559996Y-106624500D01*
X137540546Y-106624500D01*
X137473507Y-106604815D01*
X137435007Y-106565597D01*
X137407712Y-106521344D01*
X137283656Y-106397288D01*
X137134334Y-106305186D01*
X137134333Y-106305185D01*
X137134332Y-106305185D01*
X137113073Y-106298140D01*
X137055629Y-106258366D01*
X137044692Y-106242434D01*
X137040444Y-106235077D01*
X136980520Y-106131283D01*
X136868716Y-106019479D01*
X136868715Y-106019478D01*
X136864385Y-106015148D01*
X136864374Y-106015138D01*
X136834575Y-105985339D01*
X136801090Y-105924016D01*
X136800639Y-105921849D01*
X136771590Y-105775815D01*
X136769738Y-105766503D01*
X136747337Y-105712422D01*
X136709398Y-105620827D01*
X136709391Y-105620814D01*
X136621790Y-105489711D01*
X136621787Y-105489707D01*
X136510293Y-105378213D01*
X136510289Y-105378210D01*
X136379186Y-105290609D01*
X136379173Y-105290602D01*
X136233502Y-105230264D01*
X136233490Y-105230261D01*
X136078846Y-105199500D01*
X136078843Y-105199500D01*
X135921159Y-105199500D01*
X135921156Y-105199500D01*
X135766511Y-105230261D01*
X135766499Y-105230264D01*
X135620828Y-105290602D01*
X135620815Y-105290609D01*
X135489712Y-105378210D01*
X135489708Y-105378213D01*
X135378214Y-105489707D01*
X135378211Y-105489711D01*
X135290610Y-105620814D01*
X135290603Y-105620827D01*
X135230265Y-105766498D01*
X135230262Y-105766510D01*
X135199501Y-105921153D01*
X135199501Y-106078846D01*
X135230262Y-106233489D01*
X135230265Y-106233501D01*
X135290603Y-106379172D01*
X135290610Y-106379185D01*
X135378211Y-106510288D01*
X135378214Y-106510292D01*
X135455660Y-106587738D01*
X135489145Y-106649061D01*
X135485685Y-106714422D01*
X135445001Y-106837200D01*
X135445000Y-106837204D01*
X135434500Y-106939983D01*
X135434500Y-107630001D01*
X135434501Y-107630019D01*
X135445000Y-107732796D01*
X135445001Y-107732799D01*
X135464579Y-107791880D01*
X135500186Y-107899334D01*
X135508414Y-107912673D01*
X135522419Y-107935380D01*
X135540858Y-108002773D01*
X135522419Y-108065569D01*
X135500647Y-108100868D01*
X135500641Y-108100880D01*
X135445494Y-108267302D01*
X135445493Y-108267309D01*
X135439944Y-108321623D01*
X135413547Y-108386314D01*
X135356366Y-108426465D01*
X135286555Y-108429327D01*
X135226278Y-108393993D01*
X135208257Y-108369358D01*
X135186613Y-108330500D01*
X135028373Y-108046403D01*
X134963147Y-107929300D01*
X134960476Y-107924233D01*
X134824536Y-107651229D01*
X134612970Y-107226349D01*
X134610577Y-107221251D01*
X134295662Y-106508036D01*
X134293482Y-106502773D01*
X134216936Y-106305185D01*
X134011847Y-105775790D01*
X134009920Y-105770453D01*
X133762169Y-105031262D01*
X133760475Y-105025790D01*
X133707235Y-104838671D01*
X133547129Y-104275958D01*
X133545704Y-104270473D01*
X133367215Y-103511584D01*
X133366033Y-103505981D01*
X133323231Y-103277011D01*
X133222781Y-102739655D01*
X133221860Y-102734005D01*
X133207746Y-102632824D01*
X133114155Y-101961895D01*
X133113497Y-101956219D01*
X133112033Y-101940423D01*
X133041567Y-101179979D01*
X133041171Y-101174266D01*
X133005167Y-100395508D01*
X133005035Y-100389781D01*
X133005035Y-99610218D01*
X133005167Y-99604491D01*
X133011454Y-99468500D01*
X133041171Y-98825728D01*
X133041568Y-98820019D01*
X133113499Y-98043760D01*
X133114157Y-98038090D01*
X133221861Y-97265982D01*
X133222782Y-97260340D01*
X133241273Y-97161425D01*
X133366034Y-96494009D01*
X133367216Y-96488413D01*
X133545707Y-95729516D01*
X133547126Y-95724052D01*
X133760478Y-94974197D01*
X133762169Y-94968737D01*
X133762275Y-94968422D01*
X134009925Y-94229532D01*
X134011841Y-94224223D01*
X134293485Y-93497217D01*
X134295655Y-93491979D01*
X134610584Y-92778731D01*
X134612962Y-92773667D01*
X134960480Y-92075756D01*
X134963147Y-92070699D01*
X134999432Y-92005555D01*
X135342504Y-91389623D01*
X135345369Y-91384745D01*
X135755812Y-90721858D01*
X135758886Y-90717141D01*
X136199503Y-90073917D01*
X136202806Y-90069328D01*
X136672649Y-89447154D01*
X136676165Y-89442716D01*
X137174230Y-88842920D01*
X137177948Y-88838647D01*
X137703189Y-88262486D01*
X137707103Y-88258387D01*
X138258387Y-87707103D01*
X138262486Y-87703189D01*
X138838647Y-87177948D01*
X138842920Y-87174230D01*
X139442716Y-86676165D01*
X139447154Y-86672649D01*
X140069328Y-86202806D01*
X140073917Y-86199503D01*
X140717141Y-85758886D01*
X140721858Y-85755812D01*
X141384745Y-85345369D01*
X141389623Y-85342504D01*
X142070708Y-84963142D01*
X142075756Y-84960480D01*
X142773667Y-84612962D01*
X142778731Y-84610584D01*
X143491979Y-84295655D01*
X143497217Y-84293485D01*
X144224223Y-84011841D01*
X144229532Y-84009925D01*
X144968748Y-83762165D01*
X144974197Y-83760478D01*
X145724052Y-83547126D01*
X145729516Y-83545707D01*
X146488423Y-83367213D01*
X146494009Y-83366034D01*
X146996496Y-83272103D01*
X147066009Y-83279134D01*
G37*
%TD.AperFunction*%
%TA.AperFunction,Conductor*%
G36*
X153095943Y-96600501D02*
G01*
X153225501Y-96600501D01*
X153292540Y-96620186D01*
X153338295Y-96672990D01*
X153349500Y-96724501D01*
X153349500Y-102179191D01*
X153329815Y-102246230D01*
X153313181Y-102266872D01*
X153016872Y-102563181D01*
X152955549Y-102596666D01*
X152929191Y-102599500D01*
X151449998Y-102599500D01*
X151449981Y-102599501D01*
X151347203Y-102610000D01*
X151347200Y-102610001D01*
X151180668Y-102665185D01*
X151180659Y-102665189D01*
X151065096Y-102736469D01*
X150997704Y-102754909D01*
X150934904Y-102736469D01*
X150819340Y-102665189D01*
X150819335Y-102665187D01*
X150819334Y-102665186D01*
X150652797Y-102610001D01*
X150652795Y-102610000D01*
X150550010Y-102599500D01*
X148449998Y-102599500D01*
X148449981Y-102599501D01*
X148347203Y-102610000D01*
X148347200Y-102610001D01*
X148263504Y-102637736D01*
X148193676Y-102640138D01*
X148133634Y-102604406D01*
X148102441Y-102541886D01*
X148100500Y-102520030D01*
X148100500Y-97467478D01*
X148120185Y-97400439D01*
X148169000Y-97358139D01*
X148168675Y-97357589D01*
X148171703Y-97355798D01*
X148172989Y-97354684D01*
X148175257Y-97353675D01*
X148175382Y-97353620D01*
X148175390Y-97353618D01*
X148311420Y-97273170D01*
X148423170Y-97161420D01*
X148503618Y-97025390D01*
X148547709Y-96873627D01*
X148550500Y-96838163D01*
X148550500Y-96724500D01*
X148570185Y-96657461D01*
X148622989Y-96611706D01*
X148674500Y-96600500D01*
X153088332Y-96600500D01*
X153095939Y-96600500D01*
X153095943Y-96600501D01*
G37*
%TD.AperFunction*%
%TA.AperFunction,Conductor*%
G36*
X154855703Y-99205384D02*
G01*
X154862169Y-99211405D01*
X154882822Y-99232058D01*
X154901283Y-99250519D01*
X154901290Y-99250524D01*
X155038209Y-99329573D01*
X155038216Y-99329577D01*
X155190943Y-99370501D01*
X155190945Y-99370501D01*
X155356654Y-99370501D01*
X155356670Y-99370500D01*
X158439281Y-99370500D01*
X158506320Y-99390185D01*
X158549765Y-99438205D01*
X158569947Y-99477814D01*
X158569948Y-99477815D01*
X158694890Y-99649786D01*
X158845213Y-99800109D01*
X159017179Y-99925048D01*
X159017181Y-99925049D01*
X159017184Y-99925051D01*
X159026493Y-99929794D01*
X159077290Y-99977766D01*
X159094087Y-100045587D01*
X159071552Y-100111722D01*
X159026505Y-100150760D01*
X159017446Y-100155376D01*
X159017440Y-100155380D01*
X158963282Y-100194727D01*
X158963282Y-100194728D01*
X159595591Y-100827037D01*
X159532007Y-100844075D01*
X159417993Y-100909901D01*
X159324901Y-101002993D01*
X159259075Y-101117007D01*
X159242037Y-101180591D01*
X158609728Y-100548282D01*
X158609727Y-100548282D01*
X158570380Y-100602439D01*
X158473904Y-100791782D01*
X158408242Y-100993869D01*
X158408242Y-100993872D01*
X158375000Y-101203753D01*
X158375000Y-101416246D01*
X158408242Y-101626127D01*
X158408242Y-101626130D01*
X158444325Y-101737182D01*
X158446320Y-101807024D01*
X158410239Y-101866856D01*
X158347538Y-101897684D01*
X158326394Y-101899500D01*
X155086670Y-101899500D01*
X155086654Y-101899499D01*
X155079058Y-101899499D01*
X154920943Y-101899499D01*
X154920942Y-101899499D01*
X154806593Y-101930139D01*
X154736744Y-101928476D01*
X154678881Y-101889313D01*
X154651377Y-101825085D01*
X154650500Y-101810364D01*
X154650500Y-99299097D01*
X154670185Y-99232058D01*
X154722989Y-99186303D01*
X154792147Y-99176359D01*
X154855703Y-99205384D01*
G37*
%TD.AperFunction*%
%TA.AperFunction,Conductor*%
G36*
X164534075Y-100192993D02*
G01*
X164599901Y-100307007D01*
X164692993Y-100400099D01*
X164807007Y-100465925D01*
X164870589Y-100482962D01*
X164164899Y-101188651D01*
X164168539Y-101234898D01*
X164154174Y-101303275D01*
X164117807Y-101344943D01*
X164053440Y-101391709D01*
X164053431Y-101391716D01*
X163891715Y-101553432D01*
X163813664Y-101660860D01*
X163758333Y-101703525D01*
X163688720Y-101709504D01*
X163626925Y-101676898D01*
X163592568Y-101616059D01*
X163590873Y-101568576D01*
X163615000Y-101416246D01*
X163615000Y-101203753D01*
X163581757Y-100993872D01*
X163581757Y-100993869D01*
X163544624Y-100879584D01*
X163542629Y-100809743D01*
X163578710Y-100749910D01*
X163641411Y-100719082D01*
X163710825Y-100727047D01*
X163762873Y-100768380D01*
X163811347Y-100835098D01*
X163811347Y-100835099D01*
X164517037Y-100129409D01*
X164534075Y-100192993D01*
G37*
%TD.AperFunction*%
%TA.AperFunction,Conductor*%
G36*
X161799075Y-98962993D02*
G01*
X161864901Y-99077007D01*
X161957993Y-99170099D01*
X162072007Y-99235925D01*
X162135591Y-99252962D01*
X161534971Y-99853581D01*
X161613711Y-99970895D01*
X161614920Y-99974729D01*
X161617844Y-99977491D01*
X161625343Y-100007778D01*
X161634727Y-100037529D01*
X161633671Y-100041408D01*
X161634638Y-100045312D01*
X161624573Y-100074844D01*
X161616383Y-100104947D01*
X161613397Y-100107640D01*
X161612100Y-100111447D01*
X161567051Y-100150483D01*
X161557440Y-100155380D01*
X161503282Y-100194727D01*
X161503282Y-100194728D01*
X162135591Y-100827037D01*
X162072007Y-100844075D01*
X161957993Y-100909901D01*
X161864901Y-101002993D01*
X161799075Y-101117007D01*
X161782037Y-101180591D01*
X161149728Y-100548282D01*
X161149727Y-100548282D01*
X161110380Y-100602440D01*
X161105483Y-100612051D01*
X161057506Y-100662845D01*
X160989684Y-100679638D01*
X160923550Y-100657098D01*
X160884516Y-100612048D01*
X160879626Y-100602452D01*
X160840270Y-100548282D01*
X160840269Y-100548282D01*
X160207962Y-101180589D01*
X160190925Y-101117007D01*
X160125099Y-101002993D01*
X160032007Y-100909901D01*
X159917993Y-100844075D01*
X159854409Y-100827037D01*
X160486716Y-100194728D01*
X160432547Y-100155373D01*
X160432547Y-100155372D01*
X160423500Y-100150763D01*
X160372706Y-100102788D01*
X160355912Y-100034966D01*
X160378451Y-99968832D01*
X160423508Y-99929793D01*
X160432816Y-99925051D01*
X160531187Y-99853581D01*
X160604786Y-99800109D01*
X160604788Y-99800106D01*
X160604792Y-99800104D01*
X160755104Y-99649792D01*
X160755106Y-99649788D01*
X160755109Y-99649786D01*
X160840890Y-99531717D01*
X160880051Y-99477816D01*
X160884793Y-99468508D01*
X160932763Y-99417711D01*
X161000583Y-99400911D01*
X161066719Y-99423445D01*
X161105763Y-99468500D01*
X161110373Y-99477547D01*
X161149728Y-99531716D01*
X161782037Y-98899408D01*
X161799075Y-98962993D01*
G37*
%TD.AperFunction*%
%TA.AperFunction,Conductor*%
G36*
X163380270Y-99531717D02*
G01*
X163395383Y-99530527D01*
X163418307Y-99512850D01*
X163487920Y-99506869D01*
X163549716Y-99539473D01*
X163584075Y-99600311D01*
X163583882Y-99655036D01*
X163584028Y-99655060D01*
X163583878Y-99656002D01*
X163583874Y-99657340D01*
X163583265Y-99659877D01*
X163547500Y-99885686D01*
X163547500Y-100114313D01*
X163583265Y-100340124D01*
X163583265Y-100340125D01*
X163627912Y-100477534D01*
X163629907Y-100547375D01*
X163593827Y-100607208D01*
X163531126Y-100638036D01*
X163461711Y-100630071D01*
X163409663Y-100588737D01*
X163380271Y-100548282D01*
X163380269Y-100548282D01*
X162747962Y-101180589D01*
X162730925Y-101117007D01*
X162665099Y-101002993D01*
X162572007Y-100909901D01*
X162457993Y-100844075D01*
X162394409Y-100827037D01*
X163026716Y-100194728D01*
X162972550Y-100155375D01*
X162962954Y-100150486D01*
X162912157Y-100102512D01*
X162895361Y-100034692D01*
X162917897Y-99968556D01*
X162962954Y-99929514D01*
X162972554Y-99924622D01*
X163026716Y-99885270D01*
X163026717Y-99885270D01*
X162394408Y-99252962D01*
X162457993Y-99235925D01*
X162572007Y-99170099D01*
X162665099Y-99077007D01*
X162730925Y-98962993D01*
X162747962Y-98899408D01*
X163380270Y-99531717D01*
G37*
%TD.AperFunction*%
%TA.AperFunction,Conductor*%
G36*
X163734835Y-98260947D02*
G01*
X163786883Y-98302279D01*
X163891714Y-98446566D01*
X164053434Y-98608286D01*
X164053437Y-98608288D01*
X164117806Y-98655055D01*
X164160472Y-98710385D01*
X164168539Y-98765101D01*
X164164899Y-98811347D01*
X164870590Y-99517037D01*
X164807007Y-99534075D01*
X164692993Y-99599901D01*
X164599901Y-99692993D01*
X164534075Y-99807007D01*
X164517037Y-99870590D01*
X163811347Y-99164899D01*
X163811346Y-99164900D01*
X163805390Y-99173098D01*
X163750060Y-99215763D01*
X163680446Y-99221742D01*
X163618651Y-99189136D01*
X163584294Y-99128297D01*
X163582599Y-99080814D01*
X163615000Y-98876245D01*
X163615000Y-98663753D01*
X163581757Y-98453872D01*
X163581757Y-98453869D01*
X163568635Y-98413484D01*
X163566640Y-98343643D01*
X163602720Y-98283810D01*
X163665421Y-98252982D01*
X163734835Y-98260947D01*
G37*
%TD.AperFunction*%
%TA.AperFunction,Conductor*%
G36*
X161799075Y-96422993D02*
G01*
X161864901Y-96537007D01*
X161957993Y-96630099D01*
X162072007Y-96695925D01*
X162135591Y-96712962D01*
X161534971Y-97313581D01*
X161613711Y-97430895D01*
X161614920Y-97434729D01*
X161617844Y-97437491D01*
X161625343Y-97467778D01*
X161634727Y-97497529D01*
X161633671Y-97501408D01*
X161634638Y-97505312D01*
X161624573Y-97534844D01*
X161616383Y-97564947D01*
X161613397Y-97567640D01*
X161612100Y-97571447D01*
X161567051Y-97610483D01*
X161557440Y-97615380D01*
X161503282Y-97654727D01*
X161503282Y-97654728D01*
X162135591Y-98287037D01*
X162072007Y-98304075D01*
X161957993Y-98369901D01*
X161864901Y-98462993D01*
X161799075Y-98577007D01*
X161782037Y-98640591D01*
X161149728Y-98008282D01*
X161149727Y-98008282D01*
X161110380Y-98062440D01*
X161110376Y-98062446D01*
X161105760Y-98071505D01*
X161057781Y-98122297D01*
X160989959Y-98139087D01*
X160923826Y-98116543D01*
X160884794Y-98071493D01*
X160880051Y-98062184D01*
X160880049Y-98062181D01*
X160880048Y-98062179D01*
X160755109Y-97890213D01*
X160604786Y-97739890D01*
X160432820Y-97614951D01*
X160431646Y-97614353D01*
X160424054Y-97610485D01*
X160373259Y-97562512D01*
X160356463Y-97494692D01*
X160378999Y-97428556D01*
X160424054Y-97389515D01*
X160432816Y-97385051D01*
X160462285Y-97363641D01*
X160604786Y-97260109D01*
X160604788Y-97260106D01*
X160604792Y-97260104D01*
X160755104Y-97109792D01*
X160755106Y-97109788D01*
X160755109Y-97109786D01*
X160822515Y-97017007D01*
X160880051Y-96937816D01*
X160884793Y-96928508D01*
X160932763Y-96877711D01*
X161000583Y-96860911D01*
X161066719Y-96883445D01*
X161105763Y-96928500D01*
X161110373Y-96937547D01*
X161149728Y-96991716D01*
X161782037Y-96359408D01*
X161799075Y-96422993D01*
G37*
%TD.AperFunction*%
%TA.AperFunction,Conductor*%
G36*
X163380269Y-96991716D02*
G01*
X163385197Y-96984935D01*
X163440527Y-96942269D01*
X163510140Y-96936290D01*
X163571936Y-96968895D01*
X163606293Y-97029734D01*
X163603447Y-97096137D01*
X163582779Y-97159746D01*
X163582778Y-97159753D01*
X163551444Y-97357589D01*
X163547000Y-97385646D01*
X163547000Y-97614354D01*
X163557277Y-97679240D01*
X163582778Y-97840246D01*
X163582778Y-97840249D01*
X163603447Y-97903860D01*
X163605442Y-97973701D01*
X163569362Y-98033534D01*
X163506661Y-98064362D01*
X163437246Y-98056397D01*
X163385198Y-98015063D01*
X163380271Y-98008282D01*
X163380269Y-98008282D01*
X162747962Y-98640590D01*
X162730925Y-98577007D01*
X162665099Y-98462993D01*
X162572007Y-98369901D01*
X162457993Y-98304075D01*
X162394409Y-98287037D01*
X163026716Y-97654728D01*
X162972550Y-97615375D01*
X162962954Y-97610486D01*
X162912157Y-97562512D01*
X162895361Y-97494692D01*
X162917897Y-97428556D01*
X162962954Y-97389514D01*
X162972554Y-97384622D01*
X163026716Y-97345270D01*
X163026717Y-97345270D01*
X162394408Y-96712962D01*
X162457993Y-96695925D01*
X162572007Y-96630099D01*
X162665099Y-96537007D01*
X162730925Y-96422993D01*
X162747962Y-96359408D01*
X163380269Y-96991716D01*
G37*
%TD.AperFunction*%
%TA.AperFunction,Conductor*%
G36*
X154785702Y-83692164D02*
G01*
X155025790Y-83760475D01*
X155031263Y-83762169D01*
X155770453Y-84009920D01*
X155775790Y-84011847D01*
X156355553Y-84236448D01*
X156502773Y-84293482D01*
X156508036Y-84295662D01*
X157221251Y-84610577D01*
X157226349Y-84612970D01*
X157689513Y-84843599D01*
X157924233Y-84960476D01*
X157929300Y-84963147D01*
X158217911Y-85123902D01*
X158610357Y-85342493D01*
X158615272Y-85345381D01*
X159278121Y-85755799D01*
X159282878Y-85758899D01*
X159926061Y-86199489D01*
X159930691Y-86202821D01*
X160519817Y-86647708D01*
X160552818Y-86672629D01*
X160557303Y-86676182D01*
X161151383Y-87169500D01*
X161157054Y-87174209D01*
X161161373Y-87177967D01*
X161621202Y-87597157D01*
X161737491Y-87703169D01*
X161741634Y-87707125D01*
X162292874Y-88258365D01*
X162296830Y-88262508D01*
X162822030Y-88838624D01*
X162825790Y-88842945D01*
X163323813Y-89442691D01*
X163327370Y-89447181D01*
X163791324Y-90061556D01*
X163797171Y-90069298D01*
X163800515Y-90073946D01*
X164239886Y-90715349D01*
X164241086Y-90717100D01*
X164244206Y-90721889D01*
X164322820Y-90848854D01*
X164654611Y-91384715D01*
X164657513Y-91389654D01*
X165036852Y-92070699D01*
X165039523Y-92075766D01*
X165245187Y-92488794D01*
X165375252Y-92750000D01*
X165387016Y-92773624D01*
X165389431Y-92778767D01*
X165704325Y-93491934D01*
X165706517Y-93497226D01*
X165988143Y-94224184D01*
X165990088Y-94229572D01*
X166237830Y-94968737D01*
X166239524Y-94974209D01*
X166452862Y-95724012D01*
X166454302Y-95729556D01*
X166632783Y-96488413D01*
X166633966Y-96494018D01*
X166777217Y-97260340D01*
X166778139Y-97265994D01*
X166885842Y-98038090D01*
X166886502Y-98043780D01*
X166897991Y-98167771D01*
X166884576Y-98236341D01*
X166836219Y-98286773D01*
X166768273Y-98303055D01*
X166702310Y-98280017D01*
X166686839Y-98266893D01*
X166432443Y-98012497D01*
X166398958Y-97951174D01*
X166402193Y-97886498D01*
X166417222Y-97840245D01*
X166453000Y-97614354D01*
X166453000Y-97385646D01*
X166417222Y-97159755D01*
X166417221Y-97159751D01*
X166417221Y-97159750D01*
X166346549Y-96942244D01*
X166300372Y-96851617D01*
X166242717Y-96738462D01*
X166108286Y-96553434D01*
X165946566Y-96391714D01*
X165761538Y-96257283D01*
X165707990Y-96229999D01*
X165557755Y-96153450D01*
X165340248Y-96082778D01*
X165170826Y-96055944D01*
X165114354Y-96047000D01*
X164885646Y-96047000D01*
X164810349Y-96058926D01*
X164659753Y-96082778D01*
X164659750Y-96082778D01*
X164442244Y-96153450D01*
X164238461Y-96257283D01*
X164185412Y-96295826D01*
X164053434Y-96391714D01*
X164053432Y-96391716D01*
X164053431Y-96391716D01*
X163891715Y-96553432D01*
X163786884Y-96697719D01*
X163731553Y-96740384D01*
X163661940Y-96746363D01*
X163600145Y-96713757D01*
X163565788Y-96652918D01*
X163568635Y-96586514D01*
X163581758Y-96546126D01*
X163615000Y-96336246D01*
X163615000Y-96123753D01*
X163581757Y-95913872D01*
X163581757Y-95913869D01*
X163516095Y-95711782D01*
X163419624Y-95522449D01*
X163380270Y-95468282D01*
X163380269Y-95468282D01*
X162747962Y-96100590D01*
X162730925Y-96037007D01*
X162665099Y-95922993D01*
X162572007Y-95829901D01*
X162457993Y-95764075D01*
X162394409Y-95747037D01*
X163026716Y-95114728D01*
X162972550Y-95075375D01*
X162962954Y-95070486D01*
X162912157Y-95022512D01*
X162895361Y-94954692D01*
X162917897Y-94888556D01*
X162962954Y-94849514D01*
X162972554Y-94844622D01*
X163026716Y-94805270D01*
X163026717Y-94805270D01*
X162394408Y-94172962D01*
X162457993Y-94155925D01*
X162572007Y-94090099D01*
X162665099Y-93997007D01*
X162730925Y-93882993D01*
X162747962Y-93819408D01*
X163380270Y-94451717D01*
X163380270Y-94451716D01*
X163419622Y-94397554D01*
X163516095Y-94208217D01*
X163581757Y-94006130D01*
X163581757Y-94006127D01*
X163615000Y-93796246D01*
X163615000Y-93583753D01*
X163581757Y-93373872D01*
X163581757Y-93373869D01*
X163516095Y-93171782D01*
X163419624Y-92982449D01*
X163380270Y-92928282D01*
X163380269Y-92928282D01*
X162747962Y-93560590D01*
X162730925Y-93497007D01*
X162665099Y-93382993D01*
X162572007Y-93289901D01*
X162457993Y-93224075D01*
X162394409Y-93207037D01*
X163026716Y-92574728D01*
X162972550Y-92535375D01*
X162783217Y-92438904D01*
X162581129Y-92373242D01*
X162371246Y-92340000D01*
X162158754Y-92340000D01*
X161948872Y-92373242D01*
X161948869Y-92373242D01*
X161746782Y-92438904D01*
X161557439Y-92535380D01*
X161503282Y-92574727D01*
X161503282Y-92574728D01*
X162135591Y-93207037D01*
X162072007Y-93224075D01*
X161957993Y-93289901D01*
X161864901Y-93382993D01*
X161799075Y-93497007D01*
X161782037Y-93560591D01*
X161112642Y-92891196D01*
X161079319Y-92830609D01*
X161040527Y-92657364D01*
X161018354Y-92597913D01*
X161018350Y-92597906D01*
X160932190Y-92482812D01*
X160932187Y-92482809D01*
X160817093Y-92396649D01*
X160817086Y-92396645D01*
X160682379Y-92346403D01*
X160682372Y-92346401D01*
X160622844Y-92340000D01*
X159975000Y-92340000D01*
X159975000Y-93256988D01*
X159917993Y-93224075D01*
X159790826Y-93190000D01*
X159659174Y-93190000D01*
X159532007Y-93224075D01*
X159475000Y-93256988D01*
X159475000Y-92340000D01*
X158827155Y-92340000D01*
X158767627Y-92346401D01*
X158767620Y-92346403D01*
X158632913Y-92396645D01*
X158632906Y-92396649D01*
X158517812Y-92482809D01*
X158517809Y-92482812D01*
X158431649Y-92597906D01*
X158431645Y-92597913D01*
X158381403Y-92732620D01*
X158381401Y-92732627D01*
X158375000Y-92792155D01*
X158375000Y-93440000D01*
X159291988Y-93440000D01*
X159259075Y-93497007D01*
X159225000Y-93624174D01*
X159225000Y-93755826D01*
X159259075Y-93882993D01*
X159291988Y-93940000D01*
X158375000Y-93940000D01*
X158375000Y-94587844D01*
X158381401Y-94647372D01*
X158381403Y-94647380D01*
X158381716Y-94648219D01*
X158381765Y-94648913D01*
X158383187Y-94654930D01*
X158382211Y-94655160D01*
X158386695Y-94717911D01*
X158353206Y-94779232D01*
X158291881Y-94812713D01*
X158249346Y-94814484D01*
X158200000Y-94807987D01*
X158200000Y-95315500D01*
X158197449Y-95324185D01*
X158198738Y-95333147D01*
X158187759Y-95357187D01*
X158180315Y-95382539D01*
X158173474Y-95388466D01*
X158169713Y-95396703D01*
X158147478Y-95410992D01*
X158127511Y-95428294D01*
X158116996Y-95430581D01*
X158110935Y-95434477D01*
X158076000Y-95439500D01*
X157924000Y-95439500D01*
X157856961Y-95419815D01*
X157811206Y-95367011D01*
X157800000Y-95315500D01*
X157800000Y-94807987D01*
X157743368Y-94815444D01*
X157597410Y-94875900D01*
X157575486Y-94892724D01*
X157510316Y-94917918D01*
X157441872Y-94903879D01*
X157424514Y-94892724D01*
X157402588Y-94875900D01*
X157402589Y-94875900D01*
X157256631Y-94815444D01*
X157200000Y-94807987D01*
X157200000Y-95315500D01*
X157197449Y-95324185D01*
X157198738Y-95333147D01*
X157187759Y-95357187D01*
X157180315Y-95382539D01*
X157173474Y-95388466D01*
X157169713Y-95396703D01*
X157147478Y-95410992D01*
X157127511Y-95428294D01*
X157116996Y-95430581D01*
X157110935Y-95434477D01*
X157076000Y-95439500D01*
X156924000Y-95439500D01*
X156856961Y-95419815D01*
X156811206Y-95367011D01*
X156800000Y-95315500D01*
X156800000Y-94807987D01*
X156767741Y-94779697D01*
X156730317Y-94720695D01*
X156725500Y-94686469D01*
X156725500Y-94668386D01*
X156725372Y-94666975D01*
X156719086Y-94597804D01*
X156668478Y-94435394D01*
X156580472Y-94289815D01*
X156580470Y-94289813D01*
X156580469Y-94289811D01*
X156460188Y-94169530D01*
X156457814Y-94168095D01*
X156314606Y-94081522D01*
X156152196Y-94030914D01*
X156152194Y-94030913D01*
X156152192Y-94030913D01*
X156102778Y-94026423D01*
X156081616Y-94024500D01*
X156081613Y-94024500D01*
X155848500Y-94024500D01*
X155781461Y-94004815D01*
X155735706Y-93952011D01*
X155724500Y-93900500D01*
X155724500Y-90848854D01*
X155744185Y-90781815D01*
X155796989Y-90736060D01*
X155813896Y-90729780D01*
X155910398Y-90701744D01*
X156021648Y-90635950D01*
X156052395Y-90617768D01*
X156068296Y-90613417D01*
X156080581Y-90605523D01*
X156115516Y-90600500D01*
X156306426Y-90600500D01*
X156371522Y-90618961D01*
X156441303Y-90662003D01*
X156602292Y-90715349D01*
X156701655Y-90725500D01*
X157298344Y-90725499D01*
X157298352Y-90725498D01*
X157298355Y-90725498D01*
X157380566Y-90717100D01*
X157397708Y-90715349D01*
X157558697Y-90662003D01*
X157703044Y-90572968D01*
X157822968Y-90453044D01*
X157912003Y-90308697D01*
X157965349Y-90147708D01*
X157975500Y-90048345D01*
X157975499Y-89501656D01*
X157972755Y-89474798D01*
X157965349Y-89402292D01*
X157965348Y-89402289D01*
X157912003Y-89241303D01*
X157911999Y-89241297D01*
X157911998Y-89241294D01*
X157822970Y-89096959D01*
X157822967Y-89096955D01*
X157813339Y-89087327D01*
X157779854Y-89026004D01*
X157784838Y-88956312D01*
X157813345Y-88911959D01*
X157822573Y-88902731D01*
X157911542Y-88758492D01*
X157911547Y-88758481D01*
X157964855Y-88597606D01*
X157974999Y-88498322D01*
X157975000Y-88498309D01*
X157975000Y-88475000D01*
X156246309Y-88475000D01*
X156179270Y-88455315D01*
X156158628Y-88438681D01*
X156051870Y-88331923D01*
X156051862Y-88331917D01*
X155973681Y-88285681D01*
X155910398Y-88248256D01*
X155910397Y-88248255D01*
X155910396Y-88248255D01*
X155910393Y-88248254D01*
X155752573Y-88202402D01*
X155752567Y-88202401D01*
X155715701Y-88199500D01*
X155715694Y-88199500D01*
X155261500Y-88199500D01*
X155252814Y-88196949D01*
X155243853Y-88198238D01*
X155219812Y-88187259D01*
X155194461Y-88179815D01*
X155188533Y-88172974D01*
X155180297Y-88169213D01*
X155166007Y-88146978D01*
X155148706Y-88127011D01*
X155146418Y-88116496D01*
X155142523Y-88110435D01*
X155137500Y-88075500D01*
X155137500Y-87924000D01*
X155157185Y-87856961D01*
X155209989Y-87811206D01*
X155261500Y-87800000D01*
X156306000Y-87800000D01*
X156373039Y-87819685D01*
X156418794Y-87872489D01*
X156430000Y-87924000D01*
X156430000Y-87975000D01*
X156750000Y-87975000D01*
X157250000Y-87975000D01*
X157974999Y-87975000D01*
X157974999Y-87951692D01*
X157974998Y-87951677D01*
X157964855Y-87852392D01*
X157911547Y-87691518D01*
X157911542Y-87691507D01*
X157822575Y-87547271D01*
X157822572Y-87547267D01*
X157702732Y-87427427D01*
X157702728Y-87427424D01*
X157558492Y-87338457D01*
X157558481Y-87338452D01*
X157397606Y-87285144D01*
X157298322Y-87275000D01*
X157250000Y-87275000D01*
X157250000Y-87975000D01*
X156750000Y-87975000D01*
X156750000Y-87275000D01*
X156749999Y-87274999D01*
X156701693Y-87275000D01*
X156701675Y-87275001D01*
X156602392Y-87285144D01*
X156441518Y-87338452D01*
X156441507Y-87338457D01*
X156297271Y-87427424D01*
X156284646Y-87440049D01*
X156223322Y-87473532D01*
X156153630Y-87468546D01*
X156109286Y-87440046D01*
X156051561Y-87382321D01*
X156051552Y-87382314D01*
X155910196Y-87298717D01*
X155910193Y-87298716D01*
X155752495Y-87252900D01*
X155752489Y-87252899D01*
X155715649Y-87250000D01*
X155380127Y-87250000D01*
X155313088Y-87230315D01*
X155267333Y-87177511D01*
X155257389Y-87108353D01*
X155272740Y-87064000D01*
X155279816Y-87051743D01*
X155334577Y-86956894D01*
X155375500Y-86804167D01*
X155375500Y-85589060D01*
X155375501Y-85589047D01*
X155375501Y-85420944D01*
X155356465Y-85349902D01*
X155334577Y-85268216D01*
X155330349Y-85260893D01*
X155255524Y-85131290D01*
X155255518Y-85131282D01*
X155011818Y-84887582D01*
X154978333Y-84826259D01*
X154975499Y-84799901D01*
X154975499Y-84451662D01*
X154975498Y-84451644D01*
X154965349Y-84352292D01*
X154965348Y-84352289D01*
X154945861Y-84293482D01*
X154912003Y-84191303D01*
X154911999Y-84191297D01*
X154911998Y-84191294D01*
X154822970Y-84046959D01*
X154822967Y-84046955D01*
X154703045Y-83927033D01*
X154703044Y-83927032D01*
X154686775Y-83916997D01*
X154640053Y-83865049D01*
X154628832Y-83796086D01*
X154656676Y-83732004D01*
X154714746Y-83693149D01*
X154784603Y-83691857D01*
X154785702Y-83692164D01*
G37*
%TD.AperFunction*%
%TA.AperFunction,Conductor*%
G36*
X161799075Y-93882993D02*
G01*
X161864901Y-93997007D01*
X161957993Y-94090099D01*
X162072007Y-94155925D01*
X162135591Y-94172962D01*
X161534971Y-94773581D01*
X161613711Y-94890895D01*
X161634727Y-94957529D01*
X161616383Y-95024947D01*
X161567051Y-95070483D01*
X161557440Y-95075380D01*
X161503282Y-95114727D01*
X161503282Y-95114728D01*
X162135591Y-95747037D01*
X162072007Y-95764075D01*
X161957993Y-95829901D01*
X161864901Y-95922993D01*
X161799075Y-96037007D01*
X161782037Y-96100591D01*
X161149728Y-95468282D01*
X161149727Y-95468282D01*
X161110380Y-95522440D01*
X161110376Y-95522446D01*
X161105760Y-95531505D01*
X161057781Y-95582297D01*
X160989959Y-95599087D01*
X160923826Y-95576543D01*
X160884794Y-95531493D01*
X160880051Y-95522184D01*
X160880049Y-95522181D01*
X160880048Y-95522179D01*
X160755109Y-95350213D01*
X160641181Y-95236285D01*
X160607696Y-95174962D01*
X160612680Y-95105270D01*
X160654552Y-95049337D01*
X160685529Y-95032422D01*
X160817086Y-94983354D01*
X160817093Y-94983350D01*
X160932187Y-94897190D01*
X160932190Y-94897187D01*
X161018350Y-94782093D01*
X161018354Y-94782086D01*
X161040529Y-94722632D01*
X161079319Y-94549390D01*
X161079682Y-94548734D01*
X161079642Y-94547984D01*
X161112642Y-94488802D01*
X161782037Y-93819408D01*
X161799075Y-93882993D01*
G37*
%TD.AperFunction*%
%TD*%
M02*
