%TF.GenerationSoftware,KiCad,Pcbnew,9.0.5*%
%TF.CreationDate,2026-03-24T11:13:35-07:00*%
%TF.ProjectId,ESP32_PCB,45535033-325f-4504-9342-2e6b69636164,rev?*%
%TF.SameCoordinates,Original*%
%TF.FileFunction,Paste,Bot*%
%TF.FilePolarity,Positive*%
%FSLAX46Y46*%
G04 Gerber Fmt 4.6, Leading zero omitted, Abs format (unit mm)*
G04 Created by KiCad (PCBNEW 9.0.5) date 2026-03-24 11:13:35*
%MOMM*%
%LPD*%
G01*
G04 APERTURE LIST*
G04 Aperture macros list*
%AMRoundRect*
0 Rectangle with rounded corners*
0 $1 Rounding radius*
0 $2 $3 $4 $5 $6 $7 $8 $9 X,Y pos of 4 corners*
0 Add a 4 corners polygon primitive as box body*
4,1,4,$2,$3,$4,$5,$6,$7,$8,$9,$2,$3,0*
0 Add four circle primitives for the rounded corners*
1,1,$1+$1,$2,$3*
1,1,$1+$1,$4,$5*
1,1,$1+$1,$6,$7*
1,1,$1+$1,$8,$9*
0 Add four rect primitives between the rounded corners*
20,1,$1+$1,$2,$3,$4,$5,0*
20,1,$1+$1,$4,$5,$6,$7,0*
20,1,$1+$1,$6,$7,$8,$9,0*
20,1,$1+$1,$8,$9,$2,$3,0*%
G04 Aperture macros list end*
%ADD10RoundRect,0.200000X0.200000X0.275000X-0.200000X0.275000X-0.200000X-0.275000X0.200000X-0.275000X0*%
%ADD11RoundRect,0.125000X0.487500X0.125000X-0.487500X0.125000X-0.487500X-0.125000X0.487500X-0.125000X0*%
%ADD12RoundRect,0.225000X-0.250000X0.225000X-0.250000X-0.225000X0.250000X-0.225000X0.250000X0.225000X0*%
%ADD13RoundRect,0.250000X1.000000X0.650000X-1.000000X0.650000X-1.000000X-0.650000X1.000000X-0.650000X0*%
%ADD14RoundRect,0.079500X-0.100500X0.079500X-0.100500X-0.079500X0.100500X-0.079500X0.100500X0.079500X0*%
%ADD15RoundRect,0.225000X0.225000X0.250000X-0.225000X0.250000X-0.225000X-0.250000X0.225000X-0.250000X0*%
%ADD16RoundRect,0.225000X0.250000X-0.225000X0.250000X0.225000X-0.250000X0.225000X-0.250000X-0.225000X0*%
%ADD17RoundRect,0.140000X-0.140000X-0.170000X0.140000X-0.170000X0.140000X0.170000X-0.140000X0.170000X0*%
%ADD18RoundRect,0.250000X-0.315000X0.295000X-0.315000X-0.295000X0.315000X-0.295000X0.315000X0.295000X0*%
%ADD19RoundRect,0.200000X-0.275000X0.200000X-0.275000X-0.200000X0.275000X-0.200000X0.275000X0.200000X0*%
%ADD20RoundRect,0.250001X0.499999X0.999999X-0.499999X0.999999X-0.499999X-0.999999X0.499999X-0.999999X0*%
%ADD21RoundRect,0.150000X0.512500X0.150000X-0.512500X0.150000X-0.512500X-0.150000X0.512500X-0.150000X0*%
%ADD22RoundRect,0.250000X-1.000000X-0.650000X1.000000X-0.650000X1.000000X0.650000X-1.000000X0.650000X0*%
%ADD23RoundRect,0.150000X-0.150000X0.512500X-0.150000X-0.512500X0.150000X-0.512500X0.150000X0.512500X0*%
%ADD24RoundRect,0.079500X0.079500X0.100500X-0.079500X0.100500X-0.079500X-0.100500X0.079500X-0.100500X0*%
%ADD25RoundRect,0.200000X-0.200000X-0.275000X0.200000X-0.275000X0.200000X0.275000X-0.200000X0.275000X0*%
%ADD26RoundRect,0.200000X0.275000X-0.200000X0.275000X0.200000X-0.275000X0.200000X-0.275000X-0.200000X0*%
G04 APERTURE END LIST*
D10*
%TO.C,R11*%
X138175000Y-97500000D03*
X139825000Y-97500000D03*
%TD*%
D11*
%TO.C,D1*%
X145562500Y-96000000D03*
X147437500Y-96650000D03*
X147437500Y-95350000D03*
%TD*%
D12*
%TO.C,C7*%
X157000000Y-88225000D03*
X157000000Y-89775000D03*
%TD*%
D13*
%TO.C,D2*%
X149500000Y-104000000D03*
X145500000Y-104000000D03*
%TD*%
D14*
%TO.C,C13*%
X157000000Y-95505000D03*
X157000000Y-96195000D03*
%TD*%
D15*
%TO.C,C2*%
X154275000Y-113000000D03*
X152725000Y-113000000D03*
%TD*%
D16*
%TO.C,C1*%
X147500000Y-116275000D03*
X147500000Y-114725000D03*
%TD*%
D10*
%TO.C,R8*%
X150825000Y-91000000D03*
X149175000Y-91000000D03*
%TD*%
D17*
%TO.C,C10*%
X149020000Y-92500000D03*
X149980000Y-92500000D03*
%TD*%
D18*
%TO.C,C5*%
X136500000Y-107285000D03*
X136500000Y-108715000D03*
%TD*%
D19*
%TO.C,R4*%
X139000000Y-103175000D03*
X139000000Y-104825000D03*
%TD*%
D10*
%TO.C,R9*%
X155825000Y-95000000D03*
X154175000Y-95000000D03*
%TD*%
D20*
%TO.C,L1*%
X151850000Y-85000000D03*
X148150000Y-85000000D03*
%TD*%
D21*
%TO.C,U4*%
X155137500Y-88050000D03*
X155137500Y-89000000D03*
X155137500Y-89950000D03*
X152862500Y-89950000D03*
X152862500Y-89000000D03*
X152862500Y-88050000D03*
%TD*%
D22*
%TO.C,D3*%
X152500000Y-104000000D03*
X156500000Y-104000000D03*
%TD*%
D12*
%TO.C,C8*%
X154000000Y-84725000D03*
X154000000Y-86275000D03*
%TD*%
D14*
%TO.C,C12*%
X158000000Y-95505000D03*
X158000000Y-96195000D03*
%TD*%
D12*
%TO.C,C6*%
X138500000Y-107225000D03*
X138500000Y-108775000D03*
%TD*%
D23*
%TO.C,U3*%
X149050000Y-113362500D03*
X150000000Y-113362500D03*
X150950000Y-113362500D03*
X150950000Y-115637500D03*
X149050000Y-115637500D03*
%TD*%
D24*
%TO.C,C9*%
X150345000Y-88000000D03*
X149655000Y-88000000D03*
%TD*%
D25*
%TO.C,R7*%
X149175000Y-89500000D03*
X150825000Y-89500000D03*
%TD*%
D26*
%TO.C,R5*%
X140500000Y-108825000D03*
X140500000Y-107175000D03*
%TD*%
D15*
%TO.C,C11*%
X147775000Y-93500000D03*
X146225000Y-93500000D03*
%TD*%
M02*
